M48
; DRILL file {KiCad 7.0.7} date Tue Aug 18 22:11:52 2026
; FORMAT={-:-/ absolute / inch / decimal}
; #@! TF.CreationDate,2026-08-18T22:11:52-05:00
; #@! TF.GenerationSoftware,Kicad,Pcbnew,7.0.7
; #@! TF.FileFunction,Plated,1,2,PTH
FMAT,2
INCH
; #@! TA.AperFunction,Plated,PTH,ViaDrill
T1C0.0157
; #@! TA.AperFunction,Plated,PTH,ViaDrill
T2C0.0197
; #@! TA.AperFunction,Plated,PTH,ComponentDrill
T3C0.0315
; #@! TA.AperFunction,Plated,PTH,ComponentDrill
T4C0.0394
%
G90
G05
T1
X2.1048Y-5.2232
X2.3997Y-2.7339
X2.5855Y-2.1691
X2.6213Y-4.2546
X2.6388Y-2.6446
X2.7801Y-4.6991
X2.9882Y-5.277
X3.2737Y-4.5687
X3.3561Y-4.9366
X3.3938Y-1.4943
X3.886Y-4.3399
X3.9111Y-4.8828
X3.9279Y-4.9429
X3.9502Y-4.2144
X4.0107Y-4.2267
X4.0189Y-4.3321
X4.0335Y-4.9719
X4.1132Y-5.0918
X4.1531Y-5.0683
X4.2217Y-3.2244
X4.2619Y-3.2659
X4.5883Y-5.3147
X4.6303Y-2.4357
X4.8506Y-2.9693
X5.1006Y-4.0086
X5.1124Y-3.8723
X5.328Y-5.4773
X5.3948Y-4.1495
X5.4155Y-4.097
X5.451Y-4.0437
X5.4552Y-5.3803
X5.4878Y-4.4435
X5.7989Y-3.1246
X5.8157Y-5.3815
X5.8426Y-4.1347
X5.8707Y-5.3518
X5.9059Y-4.1526
X5.9724Y-4.2267
X5.9875Y-4.3866
X5.9976Y-5.4266
X6.1192Y-2.7315
X6.1322Y-5.3823
X6.1918Y-1.0063
X6.2311Y-2.4871
X6.2319Y-2.5981
X6.234Y-3.8106
X6.2525Y-4.5865
X6.3015Y-3.8583
X6.5807Y-5.3328
X6.5911Y-4.7807
X6.6093Y-5.3001
X6.6767Y-5.3982
X6.7026Y-4.1952
X6.7546Y-3.8124
X6.7847Y-4.2423
X6.7989Y-3.1046
X6.8062Y-5.4145
X6.888Y-3.0155
X6.9435Y-4.056
X6.9765Y-5.225
X6.9847Y-3.7682
X7.0871Y-2.17
X7.1124Y-3.8074
X7.1807Y-1.6342
X7.2055Y-3.7783
X7.2249Y-2.4236
X7.3Y-4.5251
X7.421Y-5.4366
X7.5255Y-5.3207
X7.5274Y-5.5136
X7.5736Y-5.6727
X7.5781Y-3.9631
X7.5919Y-5.5893
X7.5956Y-4.1526
X7.6217Y-4.0587
X7.6313Y-5.6102
X7.6579Y-5.4959
X7.6844Y-1.9681
X7.6913Y-3.6692
X7.7417Y-4.1256
X7.7639Y-2.3059
X7.7731Y-5.4072
X7.7787Y-5.6001
X7.78Y-4.0364
X7.7836Y-1.9698
X7.8564Y-2.2352
X7.8838Y-1.6854
X7.8917Y-4.0907
X7.9069Y-1.8943
X7.9152Y-4.0471
X7.9352Y-2.5981
X7.9511Y-2.1346
X8.0335Y-3.8868
X8.1211Y-4.0186
X8.753Y-4.9269
X8.7707Y-4.2557
X8.7851Y-3.6844
X8.8315Y-5.0462
T2
X3.973Y-4.2868
T3
X1.6996Y-1.15
X1.6996Y-1.25
X1.6996Y-1.35
X1.6996Y-1.45
X1.6996Y-1.55
X1.6996Y-1.65
X1.6996Y-1.75
X1.7Y-4.425
X1.7Y-4.525
X1.7Y-4.625
X1.7Y-4.725
X1.7Y-4.825
X1.7Y-4.925
X1.7Y-5.025
X1.7012Y-2.8244
X1.7012Y-2.9244
X1.7012Y-3.0244
X1.7012Y-3.1244
X1.7012Y-3.2244
X1.7012Y-3.3244
X1.7012Y-3.4244
X1.7012Y-3.5244
X1.7034Y-5.475
X1.7516Y-1.025
X1.7531Y-2.7
X1.775Y-4.3
X1.8019Y-5.475
X1.9484Y-1.025
X1.95Y-2.7
X1.9719Y-4.3
X1.9996Y-1.15
X1.9996Y-1.25
X1.9996Y-1.35
X1.9996Y-1.45
X1.9996Y-1.55
X1.9996Y-1.65
X1.9996Y-1.75
X2.0Y-4.425
X2.0Y-4.525
X2.0Y-4.625
X2.0Y-4.725
X2.0Y-4.825
X2.0Y-4.925
X2.0Y-5.025
X2.0012Y-2.8244
X2.0012Y-2.9244
X2.0012Y-3.0244
X2.0012Y-3.1244
X2.0012Y-3.2244
X2.0012Y-3.3244
X2.0012Y-3.4244
X2.0012Y-3.5244
X2.475Y-4.425
X2.475Y-4.725
X2.5996Y-2.8244
X2.5996Y-2.9244
X2.5996Y-3.0244
X2.5996Y-3.1244
X2.5996Y-3.2244
X2.5996Y-3.3244
X2.5996Y-3.4244
X2.5996Y-3.5244
X2.5996Y-4.4244
X2.5996Y-4.5244
X2.5996Y-4.6244
X2.5996Y-4.7244
X2.5996Y-4.8244
X2.5996Y-4.9244
X2.5996Y-5.0244
X2.5996Y-5.1244
X2.6004Y-1.1498
X2.6004Y-1.2498
X2.6004Y-1.3498
X2.6004Y-1.4498
X2.6004Y-1.5498
X2.6004Y-1.6498
X2.6004Y-1.7498
X2.65Y-2.7
X2.6524Y-1.0248
X2.6766Y-4.3
X2.8469Y-2.7
X2.8492Y-1.0248
X2.8734Y-4.3
X2.8996Y-2.8244
X2.8996Y-2.9244
X2.8996Y-3.0244
X2.8996Y-3.1244
X2.8996Y-3.2244
X2.8996Y-3.3244
X2.8996Y-3.4244
X2.8996Y-3.5244
X2.8996Y-4.4244
X2.8996Y-4.5244
X2.8996Y-4.6244
X2.8996Y-4.7244
X2.8996Y-4.8244
X2.8996Y-4.9244
X2.8996Y-5.0244
X2.8996Y-5.1244
X2.9004Y-1.1498
X2.9004Y-1.2498
X2.9004Y-1.3498
X2.9004Y-1.4498
X2.9004Y-1.5498
X2.9004Y-1.6498
X2.9004Y-1.7498
X3.35Y-4.425
X3.35Y-4.725
X3.4996Y-1.1494
X3.4996Y-1.2494
X3.4996Y-1.3494
X3.4996Y-1.4494
X3.4996Y-1.5494
X3.4996Y-1.6494
X3.4996Y-1.7494
X3.4996Y-1.8494
X3.4996Y-2.8244
X3.4996Y-2.9244
X3.4996Y-3.0244
X3.4996Y-3.1244
X3.4996Y-3.2244
X3.4996Y-3.3244
X3.4996Y-3.4244
X3.4996Y-3.5244
X3.4996Y-4.425
X3.4996Y-4.525
X3.4996Y-4.625
X3.4996Y-4.725
X3.4996Y-4.825
X3.4996Y-4.925
X3.4996Y-5.025
X3.4996Y-5.125
X3.5516Y-4.3
X3.5531Y-1.025
X3.5531Y-2.7
X3.7484Y-4.3
X3.75Y-1.025
X3.75Y-2.7
X3.7996Y-1.1494
X3.7996Y-1.2494
X3.7996Y-1.3494
X3.7996Y-1.4494
X3.7996Y-1.5494
X3.7996Y-1.6494
X3.7996Y-1.7494
X3.7996Y-1.8494
X3.7996Y-2.8244
X3.7996Y-2.9244
X3.7996Y-3.0244
X3.7996Y-3.1244
X3.7996Y-3.2244
X3.7996Y-3.3244
X3.7996Y-3.4244
X3.7996Y-3.5244
X3.7996Y-4.425
X3.7996Y-4.525
X3.7996Y-4.625
X3.7996Y-4.725
X3.7996Y-4.825
X3.7996Y-4.925
X3.7996Y-5.025
X3.7996Y-5.125
X4.3996Y-1.15
X4.3996Y-1.25
X4.3996Y-1.35
X4.3996Y-1.45
X4.3996Y-1.55
X4.3996Y-1.65
X4.3996Y-1.75
X4.3996Y-1.85
X4.3996Y-2.825
X4.3996Y-2.925
X4.3996Y-3.025
X4.3996Y-3.125
X4.3996Y-3.225
X4.3996Y-3.325
X4.3996Y-3.425
X4.3996Y-3.525
X4.3996Y-4.425
X4.3996Y-4.525
X4.3996Y-4.625
X4.3996Y-4.725
X4.3996Y-4.825
X4.3996Y-4.925
X4.3996Y-5.025
X4.3996Y-5.125
X4.3996Y-5.225
X4.3996Y-5.325
X4.45Y-2.7
X4.45Y-4.3
X4.4516Y-1.025
X4.6469Y-2.7
X4.6469Y-4.3
X4.6484Y-1.025
X4.6996Y-1.15
X4.6996Y-1.25
X4.6996Y-1.35
X4.6996Y-1.45
X4.6996Y-1.55
X4.6996Y-1.65
X4.6996Y-1.75
X4.6996Y-1.85
X4.6996Y-2.825
X4.6996Y-2.925
X4.6996Y-3.025
X4.6996Y-3.125
X4.6996Y-3.225
X4.6996Y-3.325
X4.6996Y-3.425
X4.6996Y-3.525
X4.6996Y-4.425
X4.6996Y-4.525
X4.6996Y-4.625
X4.6996Y-4.725
X4.6996Y-4.825
X4.6996Y-4.925
X4.6996Y-5.025
X4.6996Y-5.125
X4.6996Y-5.225
X4.6996Y-5.325
X5.2996Y-1.15
X5.2996Y-1.25
X5.2996Y-1.35
X5.2996Y-1.45
X5.2996Y-1.55
X5.2996Y-1.65
X5.2996Y-1.75
X5.2996Y-1.85
X5.2996Y-2.825
X5.2996Y-2.925
X5.2996Y-3.025
X5.2996Y-3.125
X5.2996Y-3.225
X5.2996Y-3.325
X5.2996Y-3.425
X5.2996Y-3.525
X5.2996Y-4.425
X5.2996Y-4.525
X5.2996Y-4.625
X5.2996Y-4.725
X5.2996Y-4.825
X5.2996Y-4.925
X5.2996Y-5.025
X5.2996Y-5.125
X5.2996Y-5.225
X5.2996Y-5.325
X5.35Y-2.7
X5.35Y-4.3
X5.3531Y-1.025
X5.5469Y-2.7
X5.5469Y-4.3
X5.55Y-1.025
X5.5996Y-1.15
X5.5996Y-1.25
X5.5996Y-1.35
X5.5996Y-1.45
X5.5996Y-1.55
X5.5996Y-1.65
X5.5996Y-1.75
X5.5996Y-1.85
X5.5996Y-2.825
X5.5996Y-2.925
X5.5996Y-3.025
X5.5996Y-3.125
X5.5996Y-3.225
X5.5996Y-3.325
X5.5996Y-3.425
X5.5996Y-3.525
X5.5996Y-4.425
X5.5996Y-4.525
X5.5996Y-4.625
X5.5996Y-4.725
X5.5996Y-4.825
X5.5996Y-4.925
X5.5996Y-5.025
X5.5996Y-5.125
X5.5996Y-5.225
X5.5996Y-5.325
X6.1996Y-1.15
X6.1996Y-1.25
X6.1996Y-1.35
X6.1996Y-1.45
X6.1996Y-1.55
X6.1996Y-1.65
X6.1996Y-1.75
X6.1996Y-1.85
X6.1996Y-2.825
X6.1996Y-2.925
X6.1996Y-3.025
X6.1996Y-3.125
X6.1996Y-3.225
X6.1996Y-3.325
X6.1996Y-3.425
X6.1996Y-3.525
X6.1996Y-4.425
X6.1996Y-4.525
X6.1996Y-4.625
X6.1996Y-4.725
X6.1996Y-4.825
X6.1996Y-4.925
X6.1996Y-5.025
X6.1996Y-5.125
X6.1996Y-5.225
X6.1996Y-5.325
X6.25Y-1.025
X6.2516Y-2.7
X6.2516Y-4.3
X6.4469Y-1.025
X6.4484Y-2.7
X6.4484Y-4.3
X6.4996Y-1.15
X6.4996Y-1.25
X6.4996Y-1.35
X6.4996Y-1.45
X6.4996Y-1.55
X6.4996Y-1.65
X6.4996Y-1.75
X6.4996Y-1.85
X6.4996Y-2.825
X6.4996Y-2.925
X6.4996Y-3.025
X6.4996Y-3.125
X6.4996Y-3.225
X6.4996Y-3.325
X6.4996Y-3.425
X6.4996Y-3.525
X6.4996Y-4.425
X6.4996Y-4.525
X6.4996Y-4.625
X6.4996Y-4.725
X6.4996Y-4.825
X6.4996Y-4.925
X6.4996Y-5.025
X6.4996Y-5.125
X6.4996Y-5.225
X6.4996Y-5.325
X7.0996Y-1.15
X7.0996Y-1.25
X7.0996Y-1.35
X7.0996Y-1.45
X7.0996Y-1.55
X7.0996Y-1.65
X7.0996Y-1.75
X7.0996Y-1.85
X7.0996Y-1.95
X7.0996Y-2.05
X7.0996Y-4.425
X7.0996Y-4.525
X7.0996Y-4.625
X7.0996Y-4.725
X7.0996Y-4.825
X7.0996Y-4.925
X7.0996Y-5.025
X7.0996Y-5.125
X7.0996Y-5.225
X7.0996Y-5.325
X7.1Y-2.825
X7.1Y-2.925
X7.1Y-3.025
X7.1Y-3.125
X7.1Y-3.225
X7.1Y-3.325
X7.1Y-3.425
X7.1Y-3.525
X7.1516Y-1.025
X7.1516Y-4.3
X7.175Y-2.7
X7.3484Y-1.025
X7.3484Y-4.3
X7.3719Y-2.7
X7.3996Y-1.15
X7.3996Y-1.25
X7.3996Y-1.35
X7.3996Y-1.45
X7.3996Y-1.55
X7.3996Y-1.65
X7.3996Y-1.75
X7.3996Y-1.85
X7.3996Y-1.95
X7.3996Y-2.05
X7.3996Y-4.425
X7.3996Y-4.525
X7.3996Y-4.625
X7.3996Y-4.725
X7.3996Y-4.825
X7.3996Y-4.925
X7.3996Y-5.025
X7.3996Y-5.125
X7.3996Y-5.225
X7.3996Y-5.325
X7.4Y-2.825
X7.4Y-2.925
X7.4Y-3.025
X7.4Y-3.125
X7.4Y-3.225
X7.4Y-3.325
X7.4Y-3.425
X7.4Y-3.525
X7.9996Y-1.15
X7.9996Y-1.25
X7.9996Y-1.35
X7.9996Y-1.45
X7.9996Y-1.55
X7.9996Y-1.65
X7.9996Y-1.75
X7.9996Y-1.85
X7.9996Y-1.95
X7.9996Y-2.05
X7.9996Y-2.825
X7.9996Y-2.925
X7.9996Y-3.025
X7.9996Y-3.125
X7.9996Y-3.225
X7.9996Y-3.325
X7.9996Y-3.425
X7.9996Y-3.525
X7.9996Y-4.425
X7.9996Y-4.525
X7.9996Y-4.625
X7.9996Y-4.725
X7.9996Y-4.825
X7.9996Y-4.925
X7.9996Y-5.025
X7.9996Y-5.125
X7.9996Y-5.225
X7.9996Y-5.325
X8.0516Y-1.025
X8.0516Y-2.7
X8.0516Y-4.3
X8.2484Y-1.025
X8.2484Y-2.7
X8.2484Y-4.3
X8.2996Y-1.15
X8.2996Y-1.25
X8.2996Y-1.35
X8.2996Y-1.45
X8.2996Y-1.55
X8.2996Y-1.65
X8.2996Y-1.75
X8.2996Y-1.85
X8.2996Y-1.95
X8.2996Y-2.05
X8.2996Y-2.825
X8.2996Y-2.925
X8.2996Y-3.025
X8.2996Y-3.125
X8.2996Y-3.225
X8.2996Y-3.325
X8.2996Y-3.425
X8.2996Y-3.525
X8.2996Y-4.425
X8.2996Y-4.525
X8.2996Y-4.625
X8.2996Y-4.725
X8.2996Y-4.825
X8.2996Y-4.925
X8.2996Y-5.025
X8.2996Y-5.125
X8.2996Y-5.225
X8.2996Y-5.325
X8.8996Y-1.15
X8.8996Y-1.25
X8.8996Y-1.35
X8.8996Y-1.45
X8.8996Y-1.55
X8.8996Y-1.65
X8.8996Y-1.75
X8.8996Y-1.85
X8.8996Y-1.95
X8.8996Y-2.05
X8.8996Y-2.825
X8.8996Y-2.925
X8.8996Y-3.025
X8.8996Y-3.125
X8.8996Y-3.225
X8.8996Y-3.325
X8.8996Y-3.425
X8.8996Y-3.525
X8.8996Y-4.425
X8.8996Y-4.525
X8.8996Y-4.625
X8.8996Y-4.725
X8.8996Y-4.825
X8.8996Y-4.925
X8.8996Y-5.025
X8.8996Y-5.125
X8.8996Y-5.225
X8.8996Y-5.325
X8.95Y-2.7
X8.9516Y-4.3
X8.9531Y-1.025
X9.1469Y-2.7
X9.1484Y-4.3
X9.15Y-1.025
X9.1996Y-1.15
X9.1996Y-1.25
X9.1996Y-1.35
X9.1996Y-1.45
X9.1996Y-1.55
X9.1996Y-1.65
X9.1996Y-1.75
X9.1996Y-1.85
X9.1996Y-1.95
X9.1996Y-2.05
X9.1996Y-2.825
X9.1996Y-2.925
X9.1996Y-3.025
X9.1996Y-3.125
X9.1996Y-3.225
X9.1996Y-3.325
X9.1996Y-3.425
X9.1996Y-3.525
X9.1996Y-4.425
X9.1996Y-4.525
X9.1996Y-4.625
X9.1996Y-4.725
X9.1996Y-4.825
X9.1996Y-4.925
X9.1996Y-5.025
X9.1996Y-5.125
X9.1996Y-5.225
X9.1996Y-5.325
T4
X1.875Y-5.8
X1.875Y-5.9
X1.975Y-5.8
X1.975Y-5.9
X2.075Y-5.8
X2.075Y-5.9
X2.175Y-5.8
X2.175Y-5.9
X2.275Y-5.8
X2.275Y-5.9
X2.375Y-5.8
X2.375Y-5.9
X2.475Y-5.8
X2.475Y-5.9
X2.575Y-5.8
X2.575Y-5.9
X2.675Y-5.8
X2.675Y-5.9
X2.775Y-5.8
X2.775Y-5.9
X2.875Y-5.8
X2.875Y-5.9
X2.975Y-5.8
X2.975Y-5.9
X3.075Y-5.8
X3.075Y-5.9
X3.175Y-5.8
X3.175Y-5.9
X3.275Y-5.8
X3.275Y-5.9
X3.375Y-5.8
X3.375Y-5.9
X3.475Y-5.8
X3.475Y-5.9
X3.575Y-5.8
X3.575Y-5.9
X3.675Y-5.8
X3.675Y-5.9
X3.775Y-5.8
X3.775Y-5.9
X3.875Y-5.8
X3.875Y-5.9
X3.975Y-5.8
X3.975Y-5.9
X4.075Y-5.8
X4.075Y-5.9
X4.175Y-5.8
X4.175Y-5.9
X4.275Y-5.8
X4.275Y-5.9
X4.375Y-5.8
X4.375Y-5.9
X4.475Y-5.8
X4.475Y-5.9
X4.575Y-5.8
X4.575Y-5.9
X4.675Y-5.8
X4.675Y-5.9
X4.775Y-5.8
X4.775Y-5.9
X4.875Y-5.8
X4.875Y-5.9
X4.975Y-5.8
X4.975Y-5.9
X5.95Y-5.8
X5.95Y-5.9
X6.05Y-5.8
X6.05Y-5.9
X6.15Y-5.8
X6.15Y-5.9
X6.25Y-5.8
X6.25Y-5.9
X6.35Y-5.8
X6.35Y-5.9
X6.45Y-5.8
X6.45Y-5.9
X6.55Y-5.8
X6.55Y-5.9
X6.65Y-5.8
X6.65Y-5.9
X6.75Y-5.8
X6.75Y-5.9
X6.85Y-5.8
X6.85Y-5.9
X6.95Y-5.8
X6.95Y-5.9
X7.05Y-5.8
X7.05Y-5.9
X7.15Y-5.8
X7.15Y-5.9
X7.25Y-5.8
X7.25Y-5.9
X7.35Y-5.8
X7.35Y-5.9
X7.45Y-5.8
X7.45Y-5.9
X7.55Y-5.8
X7.55Y-5.9
X7.65Y-5.8
X7.65Y-5.9
X7.75Y-5.8
X7.75Y-5.9
X7.85Y-5.8
X7.85Y-5.9
X7.95Y-5.8
X7.95Y-5.9
X8.05Y-5.8
X8.05Y-5.9
X8.15Y-5.8
X8.15Y-5.9
X8.25Y-5.8
X8.25Y-5.9
X8.35Y-5.8
X8.35Y-5.9
X8.45Y-5.8
X8.45Y-5.9
X8.55Y-5.8
X8.55Y-5.9
X8.65Y-5.8
X8.65Y-5.9
X8.75Y-5.8
X8.75Y-5.9
X8.85Y-5.8
X8.85Y-5.9
X8.95Y-5.8
X8.95Y-5.9
X9.05Y-5.8
X9.05Y-5.9
T0
M30
