%TF.GenerationSoftware,KiCad,Pcbnew,7.0.7*%
%TF.CreationDate,2026-08-18T22:11:53-05:00*%
%TF.ProjectId,Registers,52656769-7374-4657-9273-2e6b69636164,rev?*%
%TF.SameCoordinates,Original*%
%TF.FileFunction,Drillmap*%
%TF.FilePolarity,Positive*%
%FSLAX45Y45*%
G04 Gerber Fmt 4.5, Leading zero omitted, Abs format (unit mm)*
G04 Created by KiCad (PCBNEW 7.0.7) date 2026-08-18 22:11:53*
%MOMM*%
%LPD*%
G01*
G04 APERTURE LIST*
%ADD10C,0.100000*%
%ADD11C,0.200000*%
%ADD12C,0.040000*%
%ADD13C,0.050000*%
%ADD14C,0.080000*%
G04 APERTURE END LIST*
D10*
X3556000Y-1778000D02*
X24193500Y-1778000D01*
X24193500Y-15532100D01*
X3556000Y-15532100D01*
X3556000Y-1778000D01*
D11*
D12*
X5326100Y-13246960D02*
X5366100Y-13286960D01*
X5366100Y-13246960D02*
X5326100Y-13286960D01*
X6075270Y-6923980D02*
X6115270Y-6963980D01*
X6115270Y-6923980D02*
X6075270Y-6963980D01*
X6547130Y-5489530D02*
X6587130Y-5529530D01*
X6587130Y-5489530D02*
X6547130Y-5529530D01*
X6638170Y-10786580D02*
X6678170Y-10826580D01*
X6678170Y-10786580D02*
X6638170Y-10826580D01*
X6682660Y-6697160D02*
X6722660Y-6737160D01*
X6722660Y-6697160D02*
X6682660Y-6737160D01*
X7041330Y-11915590D02*
X7081330Y-11955590D01*
X7081330Y-11915590D02*
X7041330Y-11955590D01*
X7570030Y-13383470D02*
X7610030Y-13423470D01*
X7610030Y-13383470D02*
X7570030Y-13423470D01*
X8295190Y-11584530D02*
X8335190Y-11624530D01*
X8335190Y-11584530D02*
X8295190Y-11624530D01*
X8504500Y-12518920D02*
X8544500Y-12558920D01*
X8544500Y-12518920D02*
X8504500Y-12558920D01*
X8600310Y-3775540D02*
X8640310Y-3815540D01*
X8640310Y-3775540D02*
X8600310Y-3815540D01*
X9850460Y-11003440D02*
X9890460Y-11043440D01*
X9890460Y-11003440D02*
X9850460Y-11043440D01*
X9914270Y-12382350D02*
X9954270Y-12422350D01*
X9954270Y-12382350D02*
X9914270Y-12422350D01*
X9956780Y-12534900D02*
X9996780Y-12574900D01*
X9996780Y-12534900D02*
X9956780Y-12574900D01*
X10013420Y-10684680D02*
X10053420Y-10724680D01*
X10053420Y-10684680D02*
X10013420Y-10724680D01*
X10167090Y-10715890D02*
X10207090Y-10755890D01*
X10207090Y-10715890D02*
X10167090Y-10755890D01*
X10187890Y-10983510D02*
X10227890Y-11023510D01*
X10227890Y-10983510D02*
X10187890Y-11023510D01*
X10225100Y-12608540D02*
X10265100Y-12648540D01*
X10265100Y-12608540D02*
X10225100Y-12648540D01*
X10427610Y-12913190D02*
X10467610Y-12953190D01*
X10467610Y-12913190D02*
X10427610Y-12953190D01*
X10528770Y-12853400D02*
X10568770Y-12893400D01*
X10568770Y-12853400D02*
X10528770Y-12893400D01*
X10703220Y-8170000D02*
X10743220Y-8210000D01*
X10743220Y-8170000D02*
X10703220Y-8210000D01*
X10805110Y-8275480D02*
X10845110Y-8315480D01*
X10845110Y-8275480D02*
X10805110Y-8315480D01*
X11634300Y-13479290D02*
X11674300Y-13519290D01*
X11674300Y-13479290D02*
X11634300Y-13519290D01*
X11741060Y-6166560D02*
X11781060Y-6206560D01*
X11781060Y-6166560D02*
X11741060Y-6206560D01*
X12300540Y-7522030D02*
X12340540Y-7562030D01*
X12340540Y-7522030D02*
X12300540Y-7562030D01*
X12935500Y-10161860D02*
X12975500Y-10201860D01*
X12975500Y-10161860D02*
X12935500Y-10201860D01*
X12965480Y-9815620D02*
X13005480Y-9855620D01*
X13005480Y-9815620D02*
X12965480Y-9855620D01*
X13513130Y-13892270D02*
X13553130Y-13932270D01*
X13553130Y-13892270D02*
X13513130Y-13932270D01*
X13682910Y-10519680D02*
X13722910Y-10559680D01*
X13722910Y-10519680D02*
X13682910Y-10559680D01*
X13735340Y-10386380D02*
X13775340Y-10426380D01*
X13775340Y-10386380D02*
X13735340Y-10426380D01*
X13825590Y-10250910D02*
X13865590Y-10290910D01*
X13865590Y-10250910D02*
X13825590Y-10290910D01*
X13836160Y-13646010D02*
X13876160Y-13686010D01*
X13876160Y-13646010D02*
X13836160Y-13686010D01*
X13919020Y-11266390D02*
X13959020Y-11306390D01*
X13959020Y-11266390D02*
X13919020Y-11306390D01*
X14709310Y-7916590D02*
X14749310Y-7956590D01*
X14749310Y-7916590D02*
X14709310Y-7956590D01*
X14751990Y-13649020D02*
X14791990Y-13689020D01*
X14791990Y-13649020D02*
X14751990Y-13689020D01*
X14820160Y-10482190D02*
X14860160Y-10522190D01*
X14860160Y-10482190D02*
X14820160Y-10522190D01*
X14891610Y-13573580D02*
X14931610Y-13613580D01*
X14931610Y-13573580D02*
X14891610Y-13613580D01*
X14981100Y-10527550D02*
X15021100Y-10567550D01*
X15021100Y-10527550D02*
X14981100Y-10567550D01*
X15150020Y-10715890D02*
X15190020Y-10755890D01*
X15190020Y-10715890D02*
X15150020Y-10755890D01*
X15188200Y-11121910D02*
X15228200Y-11161910D01*
X15228200Y-11121910D02*
X15188200Y-11161910D01*
X15213910Y-13763450D02*
X15253910Y-13803450D01*
X15253910Y-13763450D02*
X15213910Y-13803450D01*
X15522890Y-6918130D02*
X15562890Y-6958130D01*
X15562890Y-6918130D02*
X15522890Y-6958130D01*
X15555720Y-13651100D02*
X15595720Y-13691100D01*
X15595720Y-13651100D02*
X15555720Y-13691100D01*
X15707110Y-2535980D02*
X15747110Y-2575980D01*
X15747110Y-2535980D02*
X15707110Y-2575980D01*
X15806930Y-6297350D02*
X15846930Y-6337350D01*
X15846930Y-6297350D02*
X15806930Y-6337350D01*
X15809140Y-6579200D02*
X15849140Y-6619200D01*
X15849140Y-6579200D02*
X15809140Y-6619200D01*
X15814330Y-9658840D02*
X15854330Y-9698840D01*
X15854330Y-9658840D02*
X15814330Y-9698840D01*
X15861260Y-11629770D02*
X15901260Y-11669770D01*
X15901260Y-11629770D02*
X15861260Y-11669770D01*
X15985860Y-9779960D02*
X16025860Y-9819960D01*
X16025860Y-9779960D02*
X15985860Y-9819960D01*
X16694870Y-13525210D02*
X16734870Y-13565210D01*
X16734870Y-13525210D02*
X16694870Y-13565210D01*
X16721460Y-12122970D02*
X16761460Y-12162970D01*
X16761460Y-12122970D02*
X16721460Y-12162970D01*
X16767570Y-13442360D02*
X16807570Y-13482360D01*
X16807570Y-13442360D02*
X16767570Y-13482360D01*
X16938840Y-13691430D02*
X16978840Y-13731430D01*
X16978840Y-13691430D02*
X16938840Y-13731430D01*
X17004720Y-10635870D02*
X17044720Y-10675870D01*
X17044720Y-10635870D02*
X17004720Y-10675870D01*
X17136570Y-9663440D02*
X17176570Y-9703440D01*
X17176570Y-9663440D02*
X17136570Y-9703440D01*
X17213020Y-10755420D02*
X17253020Y-10795420D01*
X17253020Y-10755420D02*
X17213020Y-10795420D01*
X17249190Y-7865590D02*
X17289190Y-7905590D01*
X17289190Y-7865590D02*
X17249190Y-7905590D01*
X17267780Y-13732800D02*
X17307780Y-13772800D01*
X17307780Y-13732800D02*
X17267780Y-13772800D01*
X17475560Y-7639260D02*
X17515560Y-7679260D01*
X17515560Y-7639260D02*
X17475560Y-7679260D01*
X17616570Y-10282120D02*
X17656570Y-10322120D01*
X17656570Y-10282120D02*
X17616570Y-10322120D01*
X17700190Y-13251500D02*
X17740190Y-13291500D01*
X17740190Y-13251500D02*
X17700190Y-13291500D01*
X17721200Y-9551350D02*
X17761200Y-9591350D01*
X17761200Y-9551350D02*
X17721200Y-9591350D01*
X17981320Y-5491810D02*
X18021320Y-5531810D01*
X18021320Y-5491810D02*
X17981320Y-5531810D01*
X18045530Y-9650840D02*
X18085530Y-9690840D01*
X18085530Y-9650840D02*
X18045530Y-9690840D01*
X18219040Y-4130910D02*
X18259040Y-4170910D01*
X18259040Y-4130910D02*
X18219040Y-4170910D01*
X18281850Y-9576900D02*
X18321850Y-9616900D01*
X18321850Y-9576900D02*
X18281850Y-9616900D01*
X18331320Y-6136070D02*
X18371320Y-6176070D01*
X18371320Y-6136070D02*
X18331320Y-6176070D01*
X18521880Y-11473680D02*
X18561880Y-11513680D01*
X18561880Y-11473680D02*
X18521880Y-11513680D01*
X18829390Y-13789070D02*
X18869390Y-13829070D01*
X18869390Y-13789070D02*
X18829390Y-13829070D01*
X19094850Y-13494640D02*
X19134850Y-13534640D01*
X19134850Y-13494640D02*
X19094850Y-13534640D01*
X19099650Y-13984620D02*
X19139650Y-14024620D01*
X19139650Y-13984620D02*
X19099650Y-14024620D01*
X19216960Y-14388730D02*
X19256960Y-14428730D01*
X19256960Y-14388730D02*
X19216960Y-14428730D01*
X19228390Y-10046300D02*
X19268390Y-10086300D01*
X19268390Y-10046300D02*
X19228390Y-10086300D01*
X19263410Y-14176890D02*
X19303410Y-14216890D01*
X19303410Y-14176890D02*
X19263410Y-14216890D01*
X19272750Y-10527550D02*
X19312750Y-10567550D01*
X19312750Y-10527550D02*
X19272750Y-10567550D01*
X19339200Y-10289160D02*
X19379200Y-10329160D01*
X19379200Y-10289160D02*
X19339200Y-10329160D01*
X19363450Y-14229940D02*
X19403450Y-14269940D01*
X19403450Y-14229940D02*
X19363450Y-14269940D01*
X19430950Y-13939590D02*
X19470950Y-13979590D01*
X19470950Y-13939590D02*
X19430950Y-13979590D01*
X19498270Y-4979100D02*
X19538270Y-5019100D01*
X19538270Y-4979100D02*
X19498270Y-5019100D01*
X19515990Y-9299820D02*
X19555990Y-9339820D01*
X19555990Y-9299820D02*
X19515990Y-9339820D01*
X19643940Y-10458970D02*
X19683940Y-10498970D01*
X19683940Y-10458970D02*
X19643940Y-10498970D01*
X19700230Y-5836880D02*
X19740230Y-5876880D01*
X19740230Y-5836880D02*
X19700230Y-5876880D01*
X19723580Y-13714390D02*
X19763580Y-13754390D01*
X19763580Y-13714390D02*
X19723580Y-13754390D01*
X19737910Y-14204220D02*
X19777910Y-14244220D01*
X19777910Y-14204220D02*
X19737910Y-14244220D01*
X19741190Y-10232550D02*
X19781190Y-10272550D01*
X19781190Y-10232550D02*
X19741190Y-10272550D01*
X19750250Y-4983320D02*
X19790250Y-5023320D01*
X19790250Y-4983320D02*
X19750250Y-5023320D01*
X19935360Y-5657410D02*
X19975360Y-5697410D01*
X19975360Y-5657410D02*
X19935360Y-5697410D01*
X20004880Y-4260810D02*
X20044880Y-4300810D01*
X20044880Y-4260810D02*
X20004880Y-4300810D01*
X20024980Y-10370290D02*
X20064980Y-10410290D01*
X20064980Y-10370290D02*
X20024980Y-10410290D01*
X20063540Y-4791530D02*
X20103540Y-4831530D01*
X20103540Y-4791530D02*
X20063540Y-4831530D01*
X20084540Y-10259730D02*
X20124540Y-10299730D01*
X20124540Y-10259730D02*
X20084540Y-10299730D01*
X20135290Y-6579200D02*
X20175290Y-6619200D01*
X20175290Y-6579200D02*
X20135290Y-6619200D01*
X20175750Y-5401780D02*
X20215750Y-5441780D01*
X20215750Y-5401780D02*
X20175750Y-5441780D01*
X20385150Y-9852490D02*
X20425150Y-9892490D01*
X20425150Y-9852490D02*
X20385150Y-9892490D01*
X20607600Y-10187200D02*
X20647600Y-10227200D01*
X20647600Y-10187200D02*
X20607600Y-10227200D01*
X22212730Y-12494440D02*
X22252730Y-12534440D01*
X22252730Y-12494440D02*
X22212730Y-12534440D01*
X22257700Y-10789460D02*
X22297700Y-10829460D01*
X22297700Y-10789460D02*
X22257700Y-10829460D01*
X22294160Y-9338450D02*
X22334160Y-9378450D01*
X22334160Y-9338450D02*
X22294160Y-9378450D01*
X22412000Y-12797320D02*
X22452000Y-12837320D01*
X22452000Y-12797320D02*
X22412000Y-12837320D01*
D13*
X10116520Y-10888540D02*
G75*
G03*
X10116520Y-10888540I-25000J0D01*
G01*
D14*
X4317000Y-2881000D02*
X4317000Y-2961000D01*
X4277000Y-2921000D02*
X4357000Y-2921000D01*
X4317000Y-3135000D02*
X4317000Y-3215000D01*
X4277000Y-3175000D02*
X4357000Y-3175000D01*
X4317000Y-3389000D02*
X4317000Y-3469000D01*
X4277000Y-3429000D02*
X4357000Y-3429000D01*
X4317000Y-3643000D02*
X4317000Y-3723000D01*
X4277000Y-3683000D02*
X4357000Y-3683000D01*
X4317000Y-3897000D02*
X4317000Y-3977000D01*
X4277000Y-3937000D02*
X4357000Y-3937000D01*
X4317000Y-4151000D02*
X4317000Y-4231000D01*
X4277000Y-4191000D02*
X4357000Y-4191000D01*
X4317000Y-4405000D02*
X4317000Y-4485000D01*
X4277000Y-4445000D02*
X4357000Y-4445000D01*
X4318000Y-11199500D02*
X4318000Y-11279500D01*
X4278000Y-11239500D02*
X4358000Y-11239500D01*
X4318000Y-11453500D02*
X4318000Y-11533500D01*
X4278000Y-11493500D02*
X4358000Y-11493500D01*
X4318000Y-11707500D02*
X4318000Y-11787500D01*
X4278000Y-11747500D02*
X4358000Y-11747500D01*
X4318000Y-11961500D02*
X4318000Y-12041500D01*
X4278000Y-12001500D02*
X4358000Y-12001500D01*
X4318000Y-12215500D02*
X4318000Y-12295500D01*
X4278000Y-12255500D02*
X4358000Y-12255500D01*
X4318000Y-12469500D02*
X4318000Y-12549500D01*
X4278000Y-12509500D02*
X4358000Y-12509500D01*
X4318000Y-12723500D02*
X4318000Y-12803500D01*
X4278000Y-12763500D02*
X4358000Y-12763500D01*
X4321000Y-7134000D02*
X4321000Y-7214000D01*
X4281000Y-7174000D02*
X4361000Y-7174000D01*
X4321000Y-7388000D02*
X4321000Y-7468000D01*
X4281000Y-7428000D02*
X4361000Y-7428000D01*
X4321000Y-7642000D02*
X4321000Y-7722000D01*
X4281000Y-7682000D02*
X4361000Y-7682000D01*
X4321000Y-7896000D02*
X4321000Y-7976000D01*
X4281000Y-7936000D02*
X4361000Y-7936000D01*
X4321000Y-8150000D02*
X4321000Y-8230000D01*
X4281000Y-8190000D02*
X4361000Y-8190000D01*
X4321000Y-8404000D02*
X4321000Y-8484000D01*
X4281000Y-8444000D02*
X4361000Y-8444000D01*
X4321000Y-8658000D02*
X4321000Y-8738000D01*
X4281000Y-8698000D02*
X4361000Y-8698000D01*
X4321000Y-8912000D02*
X4321000Y-8992000D01*
X4281000Y-8952000D02*
X4361000Y-8952000D01*
X4326760Y-13866500D02*
X4326760Y-13946500D01*
X4286760Y-13906500D02*
X4366760Y-13906500D01*
X4449000Y-2563500D02*
X4449000Y-2643500D01*
X4409000Y-2603500D02*
X4489000Y-2603500D01*
X4453000Y-6818000D02*
X4453000Y-6898000D01*
X4413000Y-6858000D02*
X4493000Y-6858000D01*
X4508500Y-10882000D02*
X4508500Y-10962000D01*
X4468500Y-10922000D02*
X4548500Y-10922000D01*
X4576760Y-13866500D02*
X4576760Y-13946500D01*
X4536760Y-13906500D02*
X4616760Y-13906500D01*
X4949000Y-2563500D02*
X4949000Y-2643500D01*
X4909000Y-2603500D02*
X4989000Y-2603500D01*
X4953000Y-6818000D02*
X4953000Y-6898000D01*
X4913000Y-6858000D02*
X4993000Y-6858000D01*
X5008500Y-10882000D02*
X5008500Y-10962000D01*
X4968500Y-10922000D02*
X5048500Y-10922000D01*
X5079000Y-2881000D02*
X5079000Y-2961000D01*
X5039000Y-2921000D02*
X5119000Y-2921000D01*
X5079000Y-3135000D02*
X5079000Y-3215000D01*
X5039000Y-3175000D02*
X5119000Y-3175000D01*
X5079000Y-3389000D02*
X5079000Y-3469000D01*
X5039000Y-3429000D02*
X5119000Y-3429000D01*
X5079000Y-3643000D02*
X5079000Y-3723000D01*
X5039000Y-3683000D02*
X5119000Y-3683000D01*
X5079000Y-3897000D02*
X5079000Y-3977000D01*
X5039000Y-3937000D02*
X5119000Y-3937000D01*
X5079000Y-4151000D02*
X5079000Y-4231000D01*
X5039000Y-4191000D02*
X5119000Y-4191000D01*
X5079000Y-4405000D02*
X5079000Y-4485000D01*
X5039000Y-4445000D02*
X5119000Y-4445000D01*
X5080000Y-11199500D02*
X5080000Y-11279500D01*
X5040000Y-11239500D02*
X5120000Y-11239500D01*
X5080000Y-11453500D02*
X5080000Y-11533500D01*
X5040000Y-11493500D02*
X5120000Y-11493500D01*
X5080000Y-11707500D02*
X5080000Y-11787500D01*
X5040000Y-11747500D02*
X5120000Y-11747500D01*
X5080000Y-11961500D02*
X5080000Y-12041500D01*
X5040000Y-12001500D02*
X5120000Y-12001500D01*
X5080000Y-12215500D02*
X5080000Y-12295500D01*
X5040000Y-12255500D02*
X5120000Y-12255500D01*
X5080000Y-12469500D02*
X5080000Y-12549500D01*
X5040000Y-12509500D02*
X5120000Y-12509500D01*
X5080000Y-12723500D02*
X5080000Y-12803500D01*
X5040000Y-12763500D02*
X5120000Y-12763500D01*
X5083000Y-7134000D02*
X5083000Y-7214000D01*
X5043000Y-7174000D02*
X5123000Y-7174000D01*
X5083000Y-7388000D02*
X5083000Y-7468000D01*
X5043000Y-7428000D02*
X5123000Y-7428000D01*
X5083000Y-7642000D02*
X5083000Y-7722000D01*
X5043000Y-7682000D02*
X5123000Y-7682000D01*
X5083000Y-7896000D02*
X5083000Y-7976000D01*
X5043000Y-7936000D02*
X5123000Y-7936000D01*
X5083000Y-8150000D02*
X5083000Y-8230000D01*
X5043000Y-8190000D02*
X5123000Y-8190000D01*
X5083000Y-8404000D02*
X5083000Y-8484000D01*
X5043000Y-8444000D02*
X5123000Y-8444000D01*
X5083000Y-8658000D02*
X5083000Y-8738000D01*
X5043000Y-8698000D02*
X5123000Y-8698000D01*
X5083000Y-8912000D02*
X5083000Y-8992000D01*
X5043000Y-8952000D02*
X5123000Y-8952000D01*
X6286500Y-11199500D02*
X6286500Y-11279500D01*
X6246500Y-11239500D02*
X6326500Y-11239500D01*
X6286500Y-11961500D02*
X6286500Y-12041500D01*
X6246500Y-12001500D02*
X6326500Y-12001500D01*
X6603000Y-7134000D02*
X6603000Y-7214000D01*
X6563000Y-7174000D02*
X6643000Y-7174000D01*
X6603000Y-7388000D02*
X6603000Y-7468000D01*
X6563000Y-7428000D02*
X6643000Y-7428000D01*
X6603000Y-7642000D02*
X6603000Y-7722000D01*
X6563000Y-7682000D02*
X6643000Y-7682000D01*
X6603000Y-7896000D02*
X6603000Y-7976000D01*
X6563000Y-7936000D02*
X6643000Y-7936000D01*
X6603000Y-8150000D02*
X6603000Y-8230000D01*
X6563000Y-8190000D02*
X6643000Y-8190000D01*
X6603000Y-8404000D02*
X6603000Y-8484000D01*
X6563000Y-8444000D02*
X6643000Y-8444000D01*
X6603000Y-8658000D02*
X6603000Y-8738000D01*
X6563000Y-8698000D02*
X6643000Y-8698000D01*
X6603000Y-8912000D02*
X6603000Y-8992000D01*
X6563000Y-8952000D02*
X6643000Y-8952000D01*
X6603000Y-11198000D02*
X6603000Y-11278000D01*
X6563000Y-11238000D02*
X6643000Y-11238000D01*
X6603000Y-11452000D02*
X6603000Y-11532000D01*
X6563000Y-11492000D02*
X6643000Y-11492000D01*
X6603000Y-11706000D02*
X6603000Y-11786000D01*
X6563000Y-11746000D02*
X6643000Y-11746000D01*
X6603000Y-11960000D02*
X6603000Y-12040000D01*
X6563000Y-12000000D02*
X6643000Y-12000000D01*
X6603000Y-12214000D02*
X6603000Y-12294000D01*
X6563000Y-12254000D02*
X6643000Y-12254000D01*
X6603000Y-12468000D02*
X6603000Y-12548000D01*
X6563000Y-12508000D02*
X6643000Y-12508000D01*
X6603000Y-12722000D02*
X6603000Y-12802000D01*
X6563000Y-12762000D02*
X6643000Y-12762000D01*
X6603000Y-12976000D02*
X6603000Y-13056000D01*
X6563000Y-13016000D02*
X6643000Y-13016000D01*
X6605000Y-2880500D02*
X6605000Y-2960500D01*
X6565000Y-2920500D02*
X6645000Y-2920500D01*
X6605000Y-3134500D02*
X6605000Y-3214500D01*
X6565000Y-3174500D02*
X6645000Y-3174500D01*
X6605000Y-3388500D02*
X6605000Y-3468500D01*
X6565000Y-3428500D02*
X6645000Y-3428500D01*
X6605000Y-3642500D02*
X6605000Y-3722500D01*
X6565000Y-3682500D02*
X6645000Y-3682500D01*
X6605000Y-3896500D02*
X6605000Y-3976500D01*
X6565000Y-3936500D02*
X6645000Y-3936500D01*
X6605000Y-4150500D02*
X6605000Y-4230500D01*
X6565000Y-4190500D02*
X6645000Y-4190500D01*
X6605000Y-4404500D02*
X6605000Y-4484500D01*
X6565000Y-4444500D02*
X6645000Y-4444500D01*
X6731000Y-6818000D02*
X6731000Y-6898000D01*
X6691000Y-6858000D02*
X6771000Y-6858000D01*
X6737000Y-2563000D02*
X6737000Y-2643000D01*
X6697000Y-2603000D02*
X6777000Y-2603000D01*
X6798500Y-10882000D02*
X6798500Y-10962000D01*
X6758500Y-10922000D02*
X6838500Y-10922000D01*
X7231000Y-6818000D02*
X7231000Y-6898000D01*
X7191000Y-6858000D02*
X7271000Y-6858000D01*
X7237000Y-2563000D02*
X7237000Y-2643000D01*
X7197000Y-2603000D02*
X7277000Y-2603000D01*
X7298500Y-10882000D02*
X7298500Y-10962000D01*
X7258500Y-10922000D02*
X7338500Y-10922000D01*
X7365000Y-7134000D02*
X7365000Y-7214000D01*
X7325000Y-7174000D02*
X7405000Y-7174000D01*
X7365000Y-7388000D02*
X7365000Y-7468000D01*
X7325000Y-7428000D02*
X7405000Y-7428000D01*
X7365000Y-7642000D02*
X7365000Y-7722000D01*
X7325000Y-7682000D02*
X7405000Y-7682000D01*
X7365000Y-7896000D02*
X7365000Y-7976000D01*
X7325000Y-7936000D02*
X7405000Y-7936000D01*
X7365000Y-8150000D02*
X7365000Y-8230000D01*
X7325000Y-8190000D02*
X7405000Y-8190000D01*
X7365000Y-8404000D02*
X7365000Y-8484000D01*
X7325000Y-8444000D02*
X7405000Y-8444000D01*
X7365000Y-8658000D02*
X7365000Y-8738000D01*
X7325000Y-8698000D02*
X7405000Y-8698000D01*
X7365000Y-8912000D02*
X7365000Y-8992000D01*
X7325000Y-8952000D02*
X7405000Y-8952000D01*
X7365000Y-11198000D02*
X7365000Y-11278000D01*
X7325000Y-11238000D02*
X7405000Y-11238000D01*
X7365000Y-11452000D02*
X7365000Y-11532000D01*
X7325000Y-11492000D02*
X7405000Y-11492000D01*
X7365000Y-11706000D02*
X7365000Y-11786000D01*
X7325000Y-11746000D02*
X7405000Y-11746000D01*
X7365000Y-11960000D02*
X7365000Y-12040000D01*
X7325000Y-12000000D02*
X7405000Y-12000000D01*
X7365000Y-12214000D02*
X7365000Y-12294000D01*
X7325000Y-12254000D02*
X7405000Y-12254000D01*
X7365000Y-12468000D02*
X7365000Y-12548000D01*
X7325000Y-12508000D02*
X7405000Y-12508000D01*
X7365000Y-12722000D02*
X7365000Y-12802000D01*
X7325000Y-12762000D02*
X7405000Y-12762000D01*
X7365000Y-12976000D02*
X7365000Y-13056000D01*
X7325000Y-13016000D02*
X7405000Y-13016000D01*
X7367000Y-2880500D02*
X7367000Y-2960500D01*
X7327000Y-2920500D02*
X7407000Y-2920500D01*
X7367000Y-3134500D02*
X7367000Y-3214500D01*
X7327000Y-3174500D02*
X7407000Y-3174500D01*
X7367000Y-3388500D02*
X7367000Y-3468500D01*
X7327000Y-3428500D02*
X7407000Y-3428500D01*
X7367000Y-3642500D02*
X7367000Y-3722500D01*
X7327000Y-3682500D02*
X7407000Y-3682500D01*
X7367000Y-3896500D02*
X7367000Y-3976500D01*
X7327000Y-3936500D02*
X7407000Y-3936500D01*
X7367000Y-4150500D02*
X7367000Y-4230500D01*
X7327000Y-4190500D02*
X7407000Y-4190500D01*
X7367000Y-4404500D02*
X7367000Y-4484500D01*
X7327000Y-4444500D02*
X7407000Y-4444500D01*
X8509000Y-11199500D02*
X8509000Y-11279500D01*
X8469000Y-11239500D02*
X8549000Y-11239500D01*
X8509000Y-11961500D02*
X8509000Y-12041500D01*
X8469000Y-12001500D02*
X8549000Y-12001500D01*
X8889000Y-2879500D02*
X8889000Y-2959500D01*
X8849000Y-2919500D02*
X8929000Y-2919500D01*
X8889000Y-3133500D02*
X8889000Y-3213500D01*
X8849000Y-3173500D02*
X8929000Y-3173500D01*
X8889000Y-3387500D02*
X8889000Y-3467500D01*
X8849000Y-3427500D02*
X8929000Y-3427500D01*
X8889000Y-3641500D02*
X8889000Y-3721500D01*
X8849000Y-3681500D02*
X8929000Y-3681500D01*
X8889000Y-3895500D02*
X8889000Y-3975500D01*
X8849000Y-3935500D02*
X8929000Y-3935500D01*
X8889000Y-4149500D02*
X8889000Y-4229500D01*
X8849000Y-4189500D02*
X8929000Y-4189500D01*
X8889000Y-4403500D02*
X8889000Y-4483500D01*
X8849000Y-4443500D02*
X8929000Y-4443500D01*
X8889000Y-4657500D02*
X8889000Y-4737500D01*
X8849000Y-4697500D02*
X8929000Y-4697500D01*
X8889000Y-7134000D02*
X8889000Y-7214000D01*
X8849000Y-7174000D02*
X8929000Y-7174000D01*
X8889000Y-7388000D02*
X8889000Y-7468000D01*
X8849000Y-7428000D02*
X8929000Y-7428000D01*
X8889000Y-7642000D02*
X8889000Y-7722000D01*
X8849000Y-7682000D02*
X8929000Y-7682000D01*
X8889000Y-7896000D02*
X8889000Y-7976000D01*
X8849000Y-7936000D02*
X8929000Y-7936000D01*
X8889000Y-8150000D02*
X8889000Y-8230000D01*
X8849000Y-8190000D02*
X8929000Y-8190000D01*
X8889000Y-8404000D02*
X8889000Y-8484000D01*
X8849000Y-8444000D02*
X8929000Y-8444000D01*
X8889000Y-8658000D02*
X8889000Y-8738000D01*
X8849000Y-8698000D02*
X8929000Y-8698000D01*
X8889000Y-8912000D02*
X8889000Y-8992000D01*
X8849000Y-8952000D02*
X8929000Y-8952000D01*
X8889000Y-11199500D02*
X8889000Y-11279500D01*
X8849000Y-11239500D02*
X8929000Y-11239500D01*
X8889000Y-11453500D02*
X8889000Y-11533500D01*
X8849000Y-11493500D02*
X8929000Y-11493500D01*
X8889000Y-11707500D02*
X8889000Y-11787500D01*
X8849000Y-11747500D02*
X8929000Y-11747500D01*
X8889000Y-11961500D02*
X8889000Y-12041500D01*
X8849000Y-12001500D02*
X8929000Y-12001500D01*
X8889000Y-12215500D02*
X8889000Y-12295500D01*
X8849000Y-12255500D02*
X8929000Y-12255500D01*
X8889000Y-12469500D02*
X8889000Y-12549500D01*
X8849000Y-12509500D02*
X8929000Y-12509500D01*
X8889000Y-12723500D02*
X8889000Y-12803500D01*
X8849000Y-12763500D02*
X8929000Y-12763500D01*
X8889000Y-12977500D02*
X8889000Y-13057500D01*
X8849000Y-13017500D02*
X8929000Y-13017500D01*
X9021000Y-10882000D02*
X9021000Y-10962000D01*
X8981000Y-10922000D02*
X9061000Y-10922000D01*
X9025000Y-2563500D02*
X9025000Y-2643500D01*
X8985000Y-2603500D02*
X9065000Y-2603500D01*
X9025000Y-6818000D02*
X9025000Y-6898000D01*
X8985000Y-6858000D02*
X9065000Y-6858000D01*
X9521000Y-10882000D02*
X9521000Y-10962000D01*
X9481000Y-10922000D02*
X9561000Y-10922000D01*
X9525000Y-2563500D02*
X9525000Y-2643500D01*
X9485000Y-2603500D02*
X9565000Y-2603500D01*
X9525000Y-6818000D02*
X9525000Y-6898000D01*
X9485000Y-6858000D02*
X9565000Y-6858000D01*
X9651000Y-2879500D02*
X9651000Y-2959500D01*
X9611000Y-2919500D02*
X9691000Y-2919500D01*
X9651000Y-3133500D02*
X9651000Y-3213500D01*
X9611000Y-3173500D02*
X9691000Y-3173500D01*
X9651000Y-3387500D02*
X9651000Y-3467500D01*
X9611000Y-3427500D02*
X9691000Y-3427500D01*
X9651000Y-3641500D02*
X9651000Y-3721500D01*
X9611000Y-3681500D02*
X9691000Y-3681500D01*
X9651000Y-3895500D02*
X9651000Y-3975500D01*
X9611000Y-3935500D02*
X9691000Y-3935500D01*
X9651000Y-4149500D02*
X9651000Y-4229500D01*
X9611000Y-4189500D02*
X9691000Y-4189500D01*
X9651000Y-4403500D02*
X9651000Y-4483500D01*
X9611000Y-4443500D02*
X9691000Y-4443500D01*
X9651000Y-4657500D02*
X9651000Y-4737500D01*
X9611000Y-4697500D02*
X9691000Y-4697500D01*
X9651000Y-7134000D02*
X9651000Y-7214000D01*
X9611000Y-7174000D02*
X9691000Y-7174000D01*
X9651000Y-7388000D02*
X9651000Y-7468000D01*
X9611000Y-7428000D02*
X9691000Y-7428000D01*
X9651000Y-7642000D02*
X9651000Y-7722000D01*
X9611000Y-7682000D02*
X9691000Y-7682000D01*
X9651000Y-7896000D02*
X9651000Y-7976000D01*
X9611000Y-7936000D02*
X9691000Y-7936000D01*
X9651000Y-8150000D02*
X9651000Y-8230000D01*
X9611000Y-8190000D02*
X9691000Y-8190000D01*
X9651000Y-8404000D02*
X9651000Y-8484000D01*
X9611000Y-8444000D02*
X9691000Y-8444000D01*
X9651000Y-8658000D02*
X9651000Y-8738000D01*
X9611000Y-8698000D02*
X9691000Y-8698000D01*
X9651000Y-8912000D02*
X9651000Y-8992000D01*
X9611000Y-8952000D02*
X9691000Y-8952000D01*
X9651000Y-11199500D02*
X9651000Y-11279500D01*
X9611000Y-11239500D02*
X9691000Y-11239500D01*
X9651000Y-11453500D02*
X9651000Y-11533500D01*
X9611000Y-11493500D02*
X9691000Y-11493500D01*
X9651000Y-11707500D02*
X9651000Y-11787500D01*
X9611000Y-11747500D02*
X9691000Y-11747500D01*
X9651000Y-11961500D02*
X9651000Y-12041500D01*
X9611000Y-12001500D02*
X9691000Y-12001500D01*
X9651000Y-12215500D02*
X9651000Y-12295500D01*
X9611000Y-12255500D02*
X9691000Y-12255500D01*
X9651000Y-12469500D02*
X9651000Y-12549500D01*
X9611000Y-12509500D02*
X9691000Y-12509500D01*
X9651000Y-12723500D02*
X9651000Y-12803500D01*
X9611000Y-12763500D02*
X9691000Y-12763500D01*
X9651000Y-12977500D02*
X9651000Y-13057500D01*
X9611000Y-13017500D02*
X9691000Y-13017500D01*
X11175000Y-2881000D02*
X11175000Y-2961000D01*
X11135000Y-2921000D02*
X11215000Y-2921000D01*
X11175000Y-3135000D02*
X11175000Y-3215000D01*
X11135000Y-3175000D02*
X11215000Y-3175000D01*
X11175000Y-3389000D02*
X11175000Y-3469000D01*
X11135000Y-3429000D02*
X11215000Y-3429000D01*
X11175000Y-3643000D02*
X11175000Y-3723000D01*
X11135000Y-3683000D02*
X11215000Y-3683000D01*
X11175000Y-3897000D02*
X11175000Y-3977000D01*
X11135000Y-3937000D02*
X11215000Y-3937000D01*
X11175000Y-4151000D02*
X11175000Y-4231000D01*
X11135000Y-4191000D02*
X11215000Y-4191000D01*
X11175000Y-4405000D02*
X11175000Y-4485000D01*
X11135000Y-4445000D02*
X11215000Y-4445000D01*
X11175000Y-4659000D02*
X11175000Y-4739000D01*
X11135000Y-4699000D02*
X11215000Y-4699000D01*
X11175000Y-7135500D02*
X11175000Y-7215500D01*
X11135000Y-7175500D02*
X11215000Y-7175500D01*
X11175000Y-7389500D02*
X11175000Y-7469500D01*
X11135000Y-7429500D02*
X11215000Y-7429500D01*
X11175000Y-7643500D02*
X11175000Y-7723500D01*
X11135000Y-7683500D02*
X11215000Y-7683500D01*
X11175000Y-7897500D02*
X11175000Y-7977500D01*
X11135000Y-7937500D02*
X11215000Y-7937500D01*
X11175000Y-8151500D02*
X11175000Y-8231500D01*
X11135000Y-8191500D02*
X11215000Y-8191500D01*
X11175000Y-8405500D02*
X11175000Y-8485500D01*
X11135000Y-8445500D02*
X11215000Y-8445500D01*
X11175000Y-8659500D02*
X11175000Y-8739500D01*
X11135000Y-8699500D02*
X11215000Y-8699500D01*
X11175000Y-8913500D02*
X11175000Y-8993500D01*
X11135000Y-8953500D02*
X11215000Y-8953500D01*
X11175000Y-11199500D02*
X11175000Y-11279500D01*
X11135000Y-11239500D02*
X11215000Y-11239500D01*
X11175000Y-11453500D02*
X11175000Y-11533500D01*
X11135000Y-11493500D02*
X11215000Y-11493500D01*
X11175000Y-11707500D02*
X11175000Y-11787500D01*
X11135000Y-11747500D02*
X11215000Y-11747500D01*
X11175000Y-11961500D02*
X11175000Y-12041500D01*
X11135000Y-12001500D02*
X11215000Y-12001500D01*
X11175000Y-12215500D02*
X11175000Y-12295500D01*
X11135000Y-12255500D02*
X11215000Y-12255500D01*
X11175000Y-12469500D02*
X11175000Y-12549500D01*
X11135000Y-12509500D02*
X11215000Y-12509500D01*
X11175000Y-12723500D02*
X11175000Y-12803500D01*
X11135000Y-12763500D02*
X11215000Y-12763500D01*
X11175000Y-12977500D02*
X11175000Y-13057500D01*
X11135000Y-13017500D02*
X11215000Y-13017500D01*
X11175000Y-13231500D02*
X11175000Y-13311500D01*
X11135000Y-13271500D02*
X11215000Y-13271500D01*
X11175000Y-13485500D02*
X11175000Y-13565500D01*
X11135000Y-13525500D02*
X11215000Y-13525500D01*
X11303000Y-6818000D02*
X11303000Y-6898000D01*
X11263000Y-6858000D02*
X11343000Y-6858000D01*
X11303000Y-10882000D02*
X11303000Y-10962000D01*
X11263000Y-10922000D02*
X11343000Y-10922000D01*
X11307000Y-2563500D02*
X11307000Y-2643500D01*
X11267000Y-2603500D02*
X11347000Y-2603500D01*
X11803000Y-6818000D02*
X11803000Y-6898000D01*
X11763000Y-6858000D02*
X11843000Y-6858000D01*
X11803000Y-10882000D02*
X11803000Y-10962000D01*
X11763000Y-10922000D02*
X11843000Y-10922000D01*
X11807000Y-2563500D02*
X11807000Y-2643500D01*
X11767000Y-2603500D02*
X11847000Y-2603500D01*
X11937000Y-2881000D02*
X11937000Y-2961000D01*
X11897000Y-2921000D02*
X11977000Y-2921000D01*
X11937000Y-3135000D02*
X11937000Y-3215000D01*
X11897000Y-3175000D02*
X11977000Y-3175000D01*
X11937000Y-3389000D02*
X11937000Y-3469000D01*
X11897000Y-3429000D02*
X11977000Y-3429000D01*
X11937000Y-3643000D02*
X11937000Y-3723000D01*
X11897000Y-3683000D02*
X11977000Y-3683000D01*
X11937000Y-3897000D02*
X11937000Y-3977000D01*
X11897000Y-3937000D02*
X11977000Y-3937000D01*
X11937000Y-4151000D02*
X11937000Y-4231000D01*
X11897000Y-4191000D02*
X11977000Y-4191000D01*
X11937000Y-4405000D02*
X11937000Y-4485000D01*
X11897000Y-4445000D02*
X11977000Y-4445000D01*
X11937000Y-4659000D02*
X11937000Y-4739000D01*
X11897000Y-4699000D02*
X11977000Y-4699000D01*
X11937000Y-7135500D02*
X11937000Y-7215500D01*
X11897000Y-7175500D02*
X11977000Y-7175500D01*
X11937000Y-7389500D02*
X11937000Y-7469500D01*
X11897000Y-7429500D02*
X11977000Y-7429500D01*
X11937000Y-7643500D02*
X11937000Y-7723500D01*
X11897000Y-7683500D02*
X11977000Y-7683500D01*
X11937000Y-7897500D02*
X11937000Y-7977500D01*
X11897000Y-7937500D02*
X11977000Y-7937500D01*
X11937000Y-8151500D02*
X11937000Y-8231500D01*
X11897000Y-8191500D02*
X11977000Y-8191500D01*
X11937000Y-8405500D02*
X11937000Y-8485500D01*
X11897000Y-8445500D02*
X11977000Y-8445500D01*
X11937000Y-8659500D02*
X11937000Y-8739500D01*
X11897000Y-8699500D02*
X11977000Y-8699500D01*
X11937000Y-8913500D02*
X11937000Y-8993500D01*
X11897000Y-8953500D02*
X11977000Y-8953500D01*
X11937000Y-11199500D02*
X11937000Y-11279500D01*
X11897000Y-11239500D02*
X11977000Y-11239500D01*
X11937000Y-11453500D02*
X11937000Y-11533500D01*
X11897000Y-11493500D02*
X11977000Y-11493500D01*
X11937000Y-11707500D02*
X11937000Y-11787500D01*
X11897000Y-11747500D02*
X11977000Y-11747500D01*
X11937000Y-11961500D02*
X11937000Y-12041500D01*
X11897000Y-12001500D02*
X11977000Y-12001500D01*
X11937000Y-12215500D02*
X11937000Y-12295500D01*
X11897000Y-12255500D02*
X11977000Y-12255500D01*
X11937000Y-12469500D02*
X11937000Y-12549500D01*
X11897000Y-12509500D02*
X11977000Y-12509500D01*
X11937000Y-12723500D02*
X11937000Y-12803500D01*
X11897000Y-12763500D02*
X11977000Y-12763500D01*
X11937000Y-12977500D02*
X11937000Y-13057500D01*
X11897000Y-13017500D02*
X11977000Y-13017500D01*
X11937000Y-13231500D02*
X11937000Y-13311500D01*
X11897000Y-13271500D02*
X11977000Y-13271500D01*
X11937000Y-13485500D02*
X11937000Y-13565500D01*
X11897000Y-13525500D02*
X11977000Y-13525500D01*
X13461000Y-2881000D02*
X13461000Y-2961000D01*
X13421000Y-2921000D02*
X13501000Y-2921000D01*
X13461000Y-3135000D02*
X13461000Y-3215000D01*
X13421000Y-3175000D02*
X13501000Y-3175000D01*
X13461000Y-3389000D02*
X13461000Y-3469000D01*
X13421000Y-3429000D02*
X13501000Y-3429000D01*
X13461000Y-3643000D02*
X13461000Y-3723000D01*
X13421000Y-3683000D02*
X13501000Y-3683000D01*
X13461000Y-3897000D02*
X13461000Y-3977000D01*
X13421000Y-3937000D02*
X13501000Y-3937000D01*
X13461000Y-4151000D02*
X13461000Y-4231000D01*
X13421000Y-4191000D02*
X13501000Y-4191000D01*
X13461000Y-4405000D02*
X13461000Y-4485000D01*
X13421000Y-4445000D02*
X13501000Y-4445000D01*
X13461000Y-4659000D02*
X13461000Y-4739000D01*
X13421000Y-4699000D02*
X13501000Y-4699000D01*
X13461000Y-7135500D02*
X13461000Y-7215500D01*
X13421000Y-7175500D02*
X13501000Y-7175500D01*
X13461000Y-7389500D02*
X13461000Y-7469500D01*
X13421000Y-7429500D02*
X13501000Y-7429500D01*
X13461000Y-7643500D02*
X13461000Y-7723500D01*
X13421000Y-7683500D02*
X13501000Y-7683500D01*
X13461000Y-7897500D02*
X13461000Y-7977500D01*
X13421000Y-7937500D02*
X13501000Y-7937500D01*
X13461000Y-8151500D02*
X13461000Y-8231500D01*
X13421000Y-8191500D02*
X13501000Y-8191500D01*
X13461000Y-8405500D02*
X13461000Y-8485500D01*
X13421000Y-8445500D02*
X13501000Y-8445500D01*
X13461000Y-8659500D02*
X13461000Y-8739500D01*
X13421000Y-8699500D02*
X13501000Y-8699500D01*
X13461000Y-8913500D02*
X13461000Y-8993500D01*
X13421000Y-8953500D02*
X13501000Y-8953500D01*
X13461000Y-11199500D02*
X13461000Y-11279500D01*
X13421000Y-11239500D02*
X13501000Y-11239500D01*
X13461000Y-11453500D02*
X13461000Y-11533500D01*
X13421000Y-11493500D02*
X13501000Y-11493500D01*
X13461000Y-11707500D02*
X13461000Y-11787500D01*
X13421000Y-11747500D02*
X13501000Y-11747500D01*
X13461000Y-11961500D02*
X13461000Y-12041500D01*
X13421000Y-12001500D02*
X13501000Y-12001500D01*
X13461000Y-12215500D02*
X13461000Y-12295500D01*
X13421000Y-12255500D02*
X13501000Y-12255500D01*
X13461000Y-12469500D02*
X13461000Y-12549500D01*
X13421000Y-12509500D02*
X13501000Y-12509500D01*
X13461000Y-12723500D02*
X13461000Y-12803500D01*
X13421000Y-12763500D02*
X13501000Y-12763500D01*
X13461000Y-12977500D02*
X13461000Y-13057500D01*
X13421000Y-13017500D02*
X13501000Y-13017500D01*
X13461000Y-13231500D02*
X13461000Y-13311500D01*
X13421000Y-13271500D02*
X13501000Y-13271500D01*
X13461000Y-13485500D02*
X13461000Y-13565500D01*
X13421000Y-13525500D02*
X13501000Y-13525500D01*
X13589000Y-6818000D02*
X13589000Y-6898000D01*
X13549000Y-6858000D02*
X13629000Y-6858000D01*
X13589000Y-10882000D02*
X13589000Y-10962000D01*
X13549000Y-10922000D02*
X13629000Y-10922000D01*
X13597000Y-2563500D02*
X13597000Y-2643500D01*
X13557000Y-2603500D02*
X13637000Y-2603500D01*
X14089000Y-6818000D02*
X14089000Y-6898000D01*
X14049000Y-6858000D02*
X14129000Y-6858000D01*
X14089000Y-10882000D02*
X14089000Y-10962000D01*
X14049000Y-10922000D02*
X14129000Y-10922000D01*
X14097000Y-2563500D02*
X14097000Y-2643500D01*
X14057000Y-2603500D02*
X14137000Y-2603500D01*
X14223000Y-2881000D02*
X14223000Y-2961000D01*
X14183000Y-2921000D02*
X14263000Y-2921000D01*
X14223000Y-3135000D02*
X14223000Y-3215000D01*
X14183000Y-3175000D02*
X14263000Y-3175000D01*
X14223000Y-3389000D02*
X14223000Y-3469000D01*
X14183000Y-3429000D02*
X14263000Y-3429000D01*
X14223000Y-3643000D02*
X14223000Y-3723000D01*
X14183000Y-3683000D02*
X14263000Y-3683000D01*
X14223000Y-3897000D02*
X14223000Y-3977000D01*
X14183000Y-3937000D02*
X14263000Y-3937000D01*
X14223000Y-4151000D02*
X14223000Y-4231000D01*
X14183000Y-4191000D02*
X14263000Y-4191000D01*
X14223000Y-4405000D02*
X14223000Y-4485000D01*
X14183000Y-4445000D02*
X14263000Y-4445000D01*
X14223000Y-4659000D02*
X14223000Y-4739000D01*
X14183000Y-4699000D02*
X14263000Y-4699000D01*
X14223000Y-7135500D02*
X14223000Y-7215500D01*
X14183000Y-7175500D02*
X14263000Y-7175500D01*
X14223000Y-7389500D02*
X14223000Y-7469500D01*
X14183000Y-7429500D02*
X14263000Y-7429500D01*
X14223000Y-7643500D02*
X14223000Y-7723500D01*
X14183000Y-7683500D02*
X14263000Y-7683500D01*
X14223000Y-7897500D02*
X14223000Y-7977500D01*
X14183000Y-7937500D02*
X14263000Y-7937500D01*
X14223000Y-8151500D02*
X14223000Y-8231500D01*
X14183000Y-8191500D02*
X14263000Y-8191500D01*
X14223000Y-8405500D02*
X14223000Y-8485500D01*
X14183000Y-8445500D02*
X14263000Y-8445500D01*
X14223000Y-8659500D02*
X14223000Y-8739500D01*
X14183000Y-8699500D02*
X14263000Y-8699500D01*
X14223000Y-8913500D02*
X14223000Y-8993500D01*
X14183000Y-8953500D02*
X14263000Y-8953500D01*
X14223000Y-11199500D02*
X14223000Y-11279500D01*
X14183000Y-11239500D02*
X14263000Y-11239500D01*
X14223000Y-11453500D02*
X14223000Y-11533500D01*
X14183000Y-11493500D02*
X14263000Y-11493500D01*
X14223000Y-11707500D02*
X14223000Y-11787500D01*
X14183000Y-11747500D02*
X14263000Y-11747500D01*
X14223000Y-11961500D02*
X14223000Y-12041500D01*
X14183000Y-12001500D02*
X14263000Y-12001500D01*
X14223000Y-12215500D02*
X14223000Y-12295500D01*
X14183000Y-12255500D02*
X14263000Y-12255500D01*
X14223000Y-12469500D02*
X14223000Y-12549500D01*
X14183000Y-12509500D02*
X14263000Y-12509500D01*
X14223000Y-12723500D02*
X14223000Y-12803500D01*
X14183000Y-12763500D02*
X14263000Y-12763500D01*
X14223000Y-12977500D02*
X14223000Y-13057500D01*
X14183000Y-13017500D02*
X14263000Y-13017500D01*
X14223000Y-13231500D02*
X14223000Y-13311500D01*
X14183000Y-13271500D02*
X14263000Y-13271500D01*
X14223000Y-13485500D02*
X14223000Y-13565500D01*
X14183000Y-13525500D02*
X14263000Y-13525500D01*
X15747000Y-2881000D02*
X15747000Y-2961000D01*
X15707000Y-2921000D02*
X15787000Y-2921000D01*
X15747000Y-3135000D02*
X15747000Y-3215000D01*
X15707000Y-3175000D02*
X15787000Y-3175000D01*
X15747000Y-3389000D02*
X15747000Y-3469000D01*
X15707000Y-3429000D02*
X15787000Y-3429000D01*
X15747000Y-3643000D02*
X15747000Y-3723000D01*
X15707000Y-3683000D02*
X15787000Y-3683000D01*
X15747000Y-3897000D02*
X15747000Y-3977000D01*
X15707000Y-3937000D02*
X15787000Y-3937000D01*
X15747000Y-4151000D02*
X15747000Y-4231000D01*
X15707000Y-4191000D02*
X15787000Y-4191000D01*
X15747000Y-4405000D02*
X15747000Y-4485000D01*
X15707000Y-4445000D02*
X15787000Y-4445000D01*
X15747000Y-4659000D02*
X15747000Y-4739000D01*
X15707000Y-4699000D02*
X15787000Y-4699000D01*
X15747000Y-7135500D02*
X15747000Y-7215500D01*
X15707000Y-7175500D02*
X15787000Y-7175500D01*
X15747000Y-7389500D02*
X15747000Y-7469500D01*
X15707000Y-7429500D02*
X15787000Y-7429500D01*
X15747000Y-7643500D02*
X15747000Y-7723500D01*
X15707000Y-7683500D02*
X15787000Y-7683500D01*
X15747000Y-7897500D02*
X15747000Y-7977500D01*
X15707000Y-7937500D02*
X15787000Y-7937500D01*
X15747000Y-8151500D02*
X15747000Y-8231500D01*
X15707000Y-8191500D02*
X15787000Y-8191500D01*
X15747000Y-8405500D02*
X15747000Y-8485500D01*
X15707000Y-8445500D02*
X15787000Y-8445500D01*
X15747000Y-8659500D02*
X15747000Y-8739500D01*
X15707000Y-8699500D02*
X15787000Y-8699500D01*
X15747000Y-8913500D02*
X15747000Y-8993500D01*
X15707000Y-8953500D02*
X15787000Y-8953500D01*
X15747000Y-11199500D02*
X15747000Y-11279500D01*
X15707000Y-11239500D02*
X15787000Y-11239500D01*
X15747000Y-11453500D02*
X15747000Y-11533500D01*
X15707000Y-11493500D02*
X15787000Y-11493500D01*
X15747000Y-11707500D02*
X15747000Y-11787500D01*
X15707000Y-11747500D02*
X15787000Y-11747500D01*
X15747000Y-11961500D02*
X15747000Y-12041500D01*
X15707000Y-12001500D02*
X15787000Y-12001500D01*
X15747000Y-12215500D02*
X15747000Y-12295500D01*
X15707000Y-12255500D02*
X15787000Y-12255500D01*
X15747000Y-12469500D02*
X15747000Y-12549500D01*
X15707000Y-12509500D02*
X15787000Y-12509500D01*
X15747000Y-12723500D02*
X15747000Y-12803500D01*
X15707000Y-12763500D02*
X15787000Y-12763500D01*
X15747000Y-12977500D02*
X15747000Y-13057500D01*
X15707000Y-13017500D02*
X15787000Y-13017500D01*
X15747000Y-13231500D02*
X15747000Y-13311500D01*
X15707000Y-13271500D02*
X15787000Y-13271500D01*
X15747000Y-13485500D02*
X15747000Y-13565500D01*
X15707000Y-13525500D02*
X15787000Y-13525500D01*
X15875000Y-2563500D02*
X15875000Y-2643500D01*
X15835000Y-2603500D02*
X15915000Y-2603500D01*
X15879000Y-6818000D02*
X15879000Y-6898000D01*
X15839000Y-6858000D02*
X15919000Y-6858000D01*
X15879000Y-10882000D02*
X15879000Y-10962000D01*
X15839000Y-10922000D02*
X15919000Y-10922000D01*
X16375000Y-2563500D02*
X16375000Y-2643500D01*
X16335000Y-2603500D02*
X16415000Y-2603500D01*
X16379000Y-6818000D02*
X16379000Y-6898000D01*
X16339000Y-6858000D02*
X16419000Y-6858000D01*
X16379000Y-10882000D02*
X16379000Y-10962000D01*
X16339000Y-10922000D02*
X16419000Y-10922000D01*
X16509000Y-2881000D02*
X16509000Y-2961000D01*
X16469000Y-2921000D02*
X16549000Y-2921000D01*
X16509000Y-3135000D02*
X16509000Y-3215000D01*
X16469000Y-3175000D02*
X16549000Y-3175000D01*
X16509000Y-3389000D02*
X16509000Y-3469000D01*
X16469000Y-3429000D02*
X16549000Y-3429000D01*
X16509000Y-3643000D02*
X16509000Y-3723000D01*
X16469000Y-3683000D02*
X16549000Y-3683000D01*
X16509000Y-3897000D02*
X16509000Y-3977000D01*
X16469000Y-3937000D02*
X16549000Y-3937000D01*
X16509000Y-4151000D02*
X16509000Y-4231000D01*
X16469000Y-4191000D02*
X16549000Y-4191000D01*
X16509000Y-4405000D02*
X16509000Y-4485000D01*
X16469000Y-4445000D02*
X16549000Y-4445000D01*
X16509000Y-4659000D02*
X16509000Y-4739000D01*
X16469000Y-4699000D02*
X16549000Y-4699000D01*
X16509000Y-7135500D02*
X16509000Y-7215500D01*
X16469000Y-7175500D02*
X16549000Y-7175500D01*
X16509000Y-7389500D02*
X16509000Y-7469500D01*
X16469000Y-7429500D02*
X16549000Y-7429500D01*
X16509000Y-7643500D02*
X16509000Y-7723500D01*
X16469000Y-7683500D02*
X16549000Y-7683500D01*
X16509000Y-7897500D02*
X16509000Y-7977500D01*
X16469000Y-7937500D02*
X16549000Y-7937500D01*
X16509000Y-8151500D02*
X16509000Y-8231500D01*
X16469000Y-8191500D02*
X16549000Y-8191500D01*
X16509000Y-8405500D02*
X16509000Y-8485500D01*
X16469000Y-8445500D02*
X16549000Y-8445500D01*
X16509000Y-8659500D02*
X16509000Y-8739500D01*
X16469000Y-8699500D02*
X16549000Y-8699500D01*
X16509000Y-8913500D02*
X16509000Y-8993500D01*
X16469000Y-8953500D02*
X16549000Y-8953500D01*
X16509000Y-11199500D02*
X16509000Y-11279500D01*
X16469000Y-11239500D02*
X16549000Y-11239500D01*
X16509000Y-11453500D02*
X16509000Y-11533500D01*
X16469000Y-11493500D02*
X16549000Y-11493500D01*
X16509000Y-11707500D02*
X16509000Y-11787500D01*
X16469000Y-11747500D02*
X16549000Y-11747500D01*
X16509000Y-11961500D02*
X16509000Y-12041500D01*
X16469000Y-12001500D02*
X16549000Y-12001500D01*
X16509000Y-12215500D02*
X16509000Y-12295500D01*
X16469000Y-12255500D02*
X16549000Y-12255500D01*
X16509000Y-12469500D02*
X16509000Y-12549500D01*
X16469000Y-12509500D02*
X16549000Y-12509500D01*
X16509000Y-12723500D02*
X16509000Y-12803500D01*
X16469000Y-12763500D02*
X16549000Y-12763500D01*
X16509000Y-12977500D02*
X16509000Y-13057500D01*
X16469000Y-13017500D02*
X16549000Y-13017500D01*
X16509000Y-13231500D02*
X16509000Y-13311500D01*
X16469000Y-13271500D02*
X16549000Y-13271500D01*
X16509000Y-13485500D02*
X16509000Y-13565500D01*
X16469000Y-13525500D02*
X16549000Y-13525500D01*
X18033000Y-2881000D02*
X18033000Y-2961000D01*
X17993000Y-2921000D02*
X18073000Y-2921000D01*
X18033000Y-3135000D02*
X18033000Y-3215000D01*
X17993000Y-3175000D02*
X18073000Y-3175000D01*
X18033000Y-3389000D02*
X18033000Y-3469000D01*
X17993000Y-3429000D02*
X18073000Y-3429000D01*
X18033000Y-3643000D02*
X18033000Y-3723000D01*
X17993000Y-3683000D02*
X18073000Y-3683000D01*
X18033000Y-3897000D02*
X18033000Y-3977000D01*
X17993000Y-3937000D02*
X18073000Y-3937000D01*
X18033000Y-4151000D02*
X18033000Y-4231000D01*
X17993000Y-4191000D02*
X18073000Y-4191000D01*
X18033000Y-4405000D02*
X18033000Y-4485000D01*
X17993000Y-4445000D02*
X18073000Y-4445000D01*
X18033000Y-4659000D02*
X18033000Y-4739000D01*
X17993000Y-4699000D02*
X18073000Y-4699000D01*
X18033000Y-4913000D02*
X18033000Y-4993000D01*
X17993000Y-4953000D02*
X18073000Y-4953000D01*
X18033000Y-5167000D02*
X18033000Y-5247000D01*
X17993000Y-5207000D02*
X18073000Y-5207000D01*
X18033000Y-11199500D02*
X18033000Y-11279500D01*
X17993000Y-11239500D02*
X18073000Y-11239500D01*
X18033000Y-11453500D02*
X18033000Y-11533500D01*
X17993000Y-11493500D02*
X18073000Y-11493500D01*
X18033000Y-11707500D02*
X18033000Y-11787500D01*
X17993000Y-11747500D02*
X18073000Y-11747500D01*
X18033000Y-11961500D02*
X18033000Y-12041500D01*
X17993000Y-12001500D02*
X18073000Y-12001500D01*
X18033000Y-12215500D02*
X18033000Y-12295500D01*
X17993000Y-12255500D02*
X18073000Y-12255500D01*
X18033000Y-12469500D02*
X18033000Y-12549500D01*
X17993000Y-12509500D02*
X18073000Y-12509500D01*
X18033000Y-12723500D02*
X18033000Y-12803500D01*
X17993000Y-12763500D02*
X18073000Y-12763500D01*
X18033000Y-12977500D02*
X18033000Y-13057500D01*
X17993000Y-13017500D02*
X18073000Y-13017500D01*
X18033000Y-13231500D02*
X18033000Y-13311500D01*
X17993000Y-13271500D02*
X18073000Y-13271500D01*
X18033000Y-13485500D02*
X18033000Y-13565500D01*
X17993000Y-13525500D02*
X18073000Y-13525500D01*
X18034000Y-7135500D02*
X18034000Y-7215500D01*
X17994000Y-7175500D02*
X18074000Y-7175500D01*
X18034000Y-7389500D02*
X18034000Y-7469500D01*
X17994000Y-7429500D02*
X18074000Y-7429500D01*
X18034000Y-7643500D02*
X18034000Y-7723500D01*
X17994000Y-7683500D02*
X18074000Y-7683500D01*
X18034000Y-7897500D02*
X18034000Y-7977500D01*
X17994000Y-7937500D02*
X18074000Y-7937500D01*
X18034000Y-8151500D02*
X18034000Y-8231500D01*
X17994000Y-8191500D02*
X18074000Y-8191500D01*
X18034000Y-8405500D02*
X18034000Y-8485500D01*
X17994000Y-8445500D02*
X18074000Y-8445500D01*
X18034000Y-8659500D02*
X18034000Y-8739500D01*
X17994000Y-8699500D02*
X18074000Y-8699500D01*
X18034000Y-8913500D02*
X18034000Y-8993500D01*
X17994000Y-8953500D02*
X18074000Y-8953500D01*
X18165000Y-2563500D02*
X18165000Y-2643500D01*
X18125000Y-2603500D02*
X18205000Y-2603500D01*
X18165000Y-10882000D02*
X18165000Y-10962000D01*
X18125000Y-10922000D02*
X18205000Y-10922000D01*
X18224500Y-6818000D02*
X18224500Y-6898000D01*
X18184500Y-6858000D02*
X18264500Y-6858000D01*
X18665000Y-2563500D02*
X18665000Y-2643500D01*
X18625000Y-2603500D02*
X18705000Y-2603500D01*
X18665000Y-10882000D02*
X18665000Y-10962000D01*
X18625000Y-10922000D02*
X18705000Y-10922000D01*
X18724500Y-6818000D02*
X18724500Y-6898000D01*
X18684500Y-6858000D02*
X18764500Y-6858000D01*
X18795000Y-2881000D02*
X18795000Y-2961000D01*
X18755000Y-2921000D02*
X18835000Y-2921000D01*
X18795000Y-3135000D02*
X18795000Y-3215000D01*
X18755000Y-3175000D02*
X18835000Y-3175000D01*
X18795000Y-3389000D02*
X18795000Y-3469000D01*
X18755000Y-3429000D02*
X18835000Y-3429000D01*
X18795000Y-3643000D02*
X18795000Y-3723000D01*
X18755000Y-3683000D02*
X18835000Y-3683000D01*
X18795000Y-3897000D02*
X18795000Y-3977000D01*
X18755000Y-3937000D02*
X18835000Y-3937000D01*
X18795000Y-4151000D02*
X18795000Y-4231000D01*
X18755000Y-4191000D02*
X18835000Y-4191000D01*
X18795000Y-4405000D02*
X18795000Y-4485000D01*
X18755000Y-4445000D02*
X18835000Y-4445000D01*
X18795000Y-4659000D02*
X18795000Y-4739000D01*
X18755000Y-4699000D02*
X18835000Y-4699000D01*
X18795000Y-4913000D02*
X18795000Y-4993000D01*
X18755000Y-4953000D02*
X18835000Y-4953000D01*
X18795000Y-5167000D02*
X18795000Y-5247000D01*
X18755000Y-5207000D02*
X18835000Y-5207000D01*
X18795000Y-11199500D02*
X18795000Y-11279500D01*
X18755000Y-11239500D02*
X18835000Y-11239500D01*
X18795000Y-11453500D02*
X18795000Y-11533500D01*
X18755000Y-11493500D02*
X18835000Y-11493500D01*
X18795000Y-11707500D02*
X18795000Y-11787500D01*
X18755000Y-11747500D02*
X18835000Y-11747500D01*
X18795000Y-11961500D02*
X18795000Y-12041500D01*
X18755000Y-12001500D02*
X18835000Y-12001500D01*
X18795000Y-12215500D02*
X18795000Y-12295500D01*
X18755000Y-12255500D02*
X18835000Y-12255500D01*
X18795000Y-12469500D02*
X18795000Y-12549500D01*
X18755000Y-12509500D02*
X18835000Y-12509500D01*
X18795000Y-12723500D02*
X18795000Y-12803500D01*
X18755000Y-12763500D02*
X18835000Y-12763500D01*
X18795000Y-12977500D02*
X18795000Y-13057500D01*
X18755000Y-13017500D02*
X18835000Y-13017500D01*
X18795000Y-13231500D02*
X18795000Y-13311500D01*
X18755000Y-13271500D02*
X18835000Y-13271500D01*
X18795000Y-13485500D02*
X18795000Y-13565500D01*
X18755000Y-13525500D02*
X18835000Y-13525500D01*
X18796000Y-7135500D02*
X18796000Y-7215500D01*
X18756000Y-7175500D02*
X18836000Y-7175500D01*
X18796000Y-7389500D02*
X18796000Y-7469500D01*
X18756000Y-7429500D02*
X18836000Y-7429500D01*
X18796000Y-7643500D02*
X18796000Y-7723500D01*
X18756000Y-7683500D02*
X18836000Y-7683500D01*
X18796000Y-7897500D02*
X18796000Y-7977500D01*
X18756000Y-7937500D02*
X18836000Y-7937500D01*
X18796000Y-8151500D02*
X18796000Y-8231500D01*
X18756000Y-8191500D02*
X18836000Y-8191500D01*
X18796000Y-8405500D02*
X18796000Y-8485500D01*
X18756000Y-8445500D02*
X18836000Y-8445500D01*
X18796000Y-8659500D02*
X18796000Y-8739500D01*
X18756000Y-8699500D02*
X18836000Y-8699500D01*
X18796000Y-8913500D02*
X18796000Y-8993500D01*
X18756000Y-8953500D02*
X18836000Y-8953500D01*
X20319000Y-2881000D02*
X20319000Y-2961000D01*
X20279000Y-2921000D02*
X20359000Y-2921000D01*
X20319000Y-3135000D02*
X20319000Y-3215000D01*
X20279000Y-3175000D02*
X20359000Y-3175000D01*
X20319000Y-3389000D02*
X20319000Y-3469000D01*
X20279000Y-3429000D02*
X20359000Y-3429000D01*
X20319000Y-3643000D02*
X20319000Y-3723000D01*
X20279000Y-3683000D02*
X20359000Y-3683000D01*
X20319000Y-3897000D02*
X20319000Y-3977000D01*
X20279000Y-3937000D02*
X20359000Y-3937000D01*
X20319000Y-4151000D02*
X20319000Y-4231000D01*
X20279000Y-4191000D02*
X20359000Y-4191000D01*
X20319000Y-4405000D02*
X20319000Y-4485000D01*
X20279000Y-4445000D02*
X20359000Y-4445000D01*
X20319000Y-4659000D02*
X20319000Y-4739000D01*
X20279000Y-4699000D02*
X20359000Y-4699000D01*
X20319000Y-4913000D02*
X20319000Y-4993000D01*
X20279000Y-4953000D02*
X20359000Y-4953000D01*
X20319000Y-5167000D02*
X20319000Y-5247000D01*
X20279000Y-5207000D02*
X20359000Y-5207000D01*
X20319000Y-7135500D02*
X20319000Y-7215500D01*
X20279000Y-7175500D02*
X20359000Y-7175500D01*
X20319000Y-7389500D02*
X20319000Y-7469500D01*
X20279000Y-7429500D02*
X20359000Y-7429500D01*
X20319000Y-7643500D02*
X20319000Y-7723500D01*
X20279000Y-7683500D02*
X20359000Y-7683500D01*
X20319000Y-7897500D02*
X20319000Y-7977500D01*
X20279000Y-7937500D02*
X20359000Y-7937500D01*
X20319000Y-8151500D02*
X20319000Y-8231500D01*
X20279000Y-8191500D02*
X20359000Y-8191500D01*
X20319000Y-8405500D02*
X20319000Y-8485500D01*
X20279000Y-8445500D02*
X20359000Y-8445500D01*
X20319000Y-8659500D02*
X20319000Y-8739500D01*
X20279000Y-8699500D02*
X20359000Y-8699500D01*
X20319000Y-8913500D02*
X20319000Y-8993500D01*
X20279000Y-8953500D02*
X20359000Y-8953500D01*
X20319000Y-11199500D02*
X20319000Y-11279500D01*
X20279000Y-11239500D02*
X20359000Y-11239500D01*
X20319000Y-11453500D02*
X20319000Y-11533500D01*
X20279000Y-11493500D02*
X20359000Y-11493500D01*
X20319000Y-11707500D02*
X20319000Y-11787500D01*
X20279000Y-11747500D02*
X20359000Y-11747500D01*
X20319000Y-11961500D02*
X20319000Y-12041500D01*
X20279000Y-12001500D02*
X20359000Y-12001500D01*
X20319000Y-12215500D02*
X20319000Y-12295500D01*
X20279000Y-12255500D02*
X20359000Y-12255500D01*
X20319000Y-12469500D02*
X20319000Y-12549500D01*
X20279000Y-12509500D02*
X20359000Y-12509500D01*
X20319000Y-12723500D02*
X20319000Y-12803500D01*
X20279000Y-12763500D02*
X20359000Y-12763500D01*
X20319000Y-12977500D02*
X20319000Y-13057500D01*
X20279000Y-13017500D02*
X20359000Y-13017500D01*
X20319000Y-13231500D02*
X20319000Y-13311500D01*
X20279000Y-13271500D02*
X20359000Y-13271500D01*
X20319000Y-13485500D02*
X20319000Y-13565500D01*
X20279000Y-13525500D02*
X20359000Y-13525500D01*
X20451000Y-2563500D02*
X20451000Y-2643500D01*
X20411000Y-2603500D02*
X20491000Y-2603500D01*
X20451000Y-6818000D02*
X20451000Y-6898000D01*
X20411000Y-6858000D02*
X20491000Y-6858000D01*
X20451000Y-10882000D02*
X20451000Y-10962000D01*
X20411000Y-10922000D02*
X20491000Y-10922000D01*
X20951000Y-2563500D02*
X20951000Y-2643500D01*
X20911000Y-2603500D02*
X20991000Y-2603500D01*
X20951000Y-6818000D02*
X20951000Y-6898000D01*
X20911000Y-6858000D02*
X20991000Y-6858000D01*
X20951000Y-10882000D02*
X20951000Y-10962000D01*
X20911000Y-10922000D02*
X20991000Y-10922000D01*
X21081000Y-2881000D02*
X21081000Y-2961000D01*
X21041000Y-2921000D02*
X21121000Y-2921000D01*
X21081000Y-3135000D02*
X21081000Y-3215000D01*
X21041000Y-3175000D02*
X21121000Y-3175000D01*
X21081000Y-3389000D02*
X21081000Y-3469000D01*
X21041000Y-3429000D02*
X21121000Y-3429000D01*
X21081000Y-3643000D02*
X21081000Y-3723000D01*
X21041000Y-3683000D02*
X21121000Y-3683000D01*
X21081000Y-3897000D02*
X21081000Y-3977000D01*
X21041000Y-3937000D02*
X21121000Y-3937000D01*
X21081000Y-4151000D02*
X21081000Y-4231000D01*
X21041000Y-4191000D02*
X21121000Y-4191000D01*
X21081000Y-4405000D02*
X21081000Y-4485000D01*
X21041000Y-4445000D02*
X21121000Y-4445000D01*
X21081000Y-4659000D02*
X21081000Y-4739000D01*
X21041000Y-4699000D02*
X21121000Y-4699000D01*
X21081000Y-4913000D02*
X21081000Y-4993000D01*
X21041000Y-4953000D02*
X21121000Y-4953000D01*
X21081000Y-5167000D02*
X21081000Y-5247000D01*
X21041000Y-5207000D02*
X21121000Y-5207000D01*
X21081000Y-7135500D02*
X21081000Y-7215500D01*
X21041000Y-7175500D02*
X21121000Y-7175500D01*
X21081000Y-7389500D02*
X21081000Y-7469500D01*
X21041000Y-7429500D02*
X21121000Y-7429500D01*
X21081000Y-7643500D02*
X21081000Y-7723500D01*
X21041000Y-7683500D02*
X21121000Y-7683500D01*
X21081000Y-7897500D02*
X21081000Y-7977500D01*
X21041000Y-7937500D02*
X21121000Y-7937500D01*
X21081000Y-8151500D02*
X21081000Y-8231500D01*
X21041000Y-8191500D02*
X21121000Y-8191500D01*
X21081000Y-8405500D02*
X21081000Y-8485500D01*
X21041000Y-8445500D02*
X21121000Y-8445500D01*
X21081000Y-8659500D02*
X21081000Y-8739500D01*
X21041000Y-8699500D02*
X21121000Y-8699500D01*
X21081000Y-8913500D02*
X21081000Y-8993500D01*
X21041000Y-8953500D02*
X21121000Y-8953500D01*
X21081000Y-11199500D02*
X21081000Y-11279500D01*
X21041000Y-11239500D02*
X21121000Y-11239500D01*
X21081000Y-11453500D02*
X21081000Y-11533500D01*
X21041000Y-11493500D02*
X21121000Y-11493500D01*
X21081000Y-11707500D02*
X21081000Y-11787500D01*
X21041000Y-11747500D02*
X21121000Y-11747500D01*
X21081000Y-11961500D02*
X21081000Y-12041500D01*
X21041000Y-12001500D02*
X21121000Y-12001500D01*
X21081000Y-12215500D02*
X21081000Y-12295500D01*
X21041000Y-12255500D02*
X21121000Y-12255500D01*
X21081000Y-12469500D02*
X21081000Y-12549500D01*
X21041000Y-12509500D02*
X21121000Y-12509500D01*
X21081000Y-12723500D02*
X21081000Y-12803500D01*
X21041000Y-12763500D02*
X21121000Y-12763500D01*
X21081000Y-12977500D02*
X21081000Y-13057500D01*
X21041000Y-13017500D02*
X21121000Y-13017500D01*
X21081000Y-13231500D02*
X21081000Y-13311500D01*
X21041000Y-13271500D02*
X21121000Y-13271500D01*
X21081000Y-13485500D02*
X21081000Y-13565500D01*
X21041000Y-13525500D02*
X21121000Y-13525500D01*
X22605000Y-2881000D02*
X22605000Y-2961000D01*
X22565000Y-2921000D02*
X22645000Y-2921000D01*
X22605000Y-3135000D02*
X22605000Y-3215000D01*
X22565000Y-3175000D02*
X22645000Y-3175000D01*
X22605000Y-3389000D02*
X22605000Y-3469000D01*
X22565000Y-3429000D02*
X22645000Y-3429000D01*
X22605000Y-3643000D02*
X22605000Y-3723000D01*
X22565000Y-3683000D02*
X22645000Y-3683000D01*
X22605000Y-3897000D02*
X22605000Y-3977000D01*
X22565000Y-3937000D02*
X22645000Y-3937000D01*
X22605000Y-4151000D02*
X22605000Y-4231000D01*
X22565000Y-4191000D02*
X22645000Y-4191000D01*
X22605000Y-4405000D02*
X22605000Y-4485000D01*
X22565000Y-4445000D02*
X22645000Y-4445000D01*
X22605000Y-4659000D02*
X22605000Y-4739000D01*
X22565000Y-4699000D02*
X22645000Y-4699000D01*
X22605000Y-4913000D02*
X22605000Y-4993000D01*
X22565000Y-4953000D02*
X22645000Y-4953000D01*
X22605000Y-5167000D02*
X22605000Y-5247000D01*
X22565000Y-5207000D02*
X22645000Y-5207000D01*
X22605000Y-7135500D02*
X22605000Y-7215500D01*
X22565000Y-7175500D02*
X22645000Y-7175500D01*
X22605000Y-7389500D02*
X22605000Y-7469500D01*
X22565000Y-7429500D02*
X22645000Y-7429500D01*
X22605000Y-7643500D02*
X22605000Y-7723500D01*
X22565000Y-7683500D02*
X22645000Y-7683500D01*
X22605000Y-7897500D02*
X22605000Y-7977500D01*
X22565000Y-7937500D02*
X22645000Y-7937500D01*
X22605000Y-8151500D02*
X22605000Y-8231500D01*
X22565000Y-8191500D02*
X22645000Y-8191500D01*
X22605000Y-8405500D02*
X22605000Y-8485500D01*
X22565000Y-8445500D02*
X22645000Y-8445500D01*
X22605000Y-8659500D02*
X22605000Y-8739500D01*
X22565000Y-8699500D02*
X22645000Y-8699500D01*
X22605000Y-8913500D02*
X22605000Y-8993500D01*
X22565000Y-8953500D02*
X22645000Y-8953500D01*
X22605000Y-11199500D02*
X22605000Y-11279500D01*
X22565000Y-11239500D02*
X22645000Y-11239500D01*
X22605000Y-11453500D02*
X22605000Y-11533500D01*
X22565000Y-11493500D02*
X22645000Y-11493500D01*
X22605000Y-11707500D02*
X22605000Y-11787500D01*
X22565000Y-11747500D02*
X22645000Y-11747500D01*
X22605000Y-11961500D02*
X22605000Y-12041500D01*
X22565000Y-12001500D02*
X22645000Y-12001500D01*
X22605000Y-12215500D02*
X22605000Y-12295500D01*
X22565000Y-12255500D02*
X22645000Y-12255500D01*
X22605000Y-12469500D02*
X22605000Y-12549500D01*
X22565000Y-12509500D02*
X22645000Y-12509500D01*
X22605000Y-12723500D02*
X22605000Y-12803500D01*
X22565000Y-12763500D02*
X22645000Y-12763500D01*
X22605000Y-12977500D02*
X22605000Y-13057500D01*
X22565000Y-13017500D02*
X22645000Y-13017500D01*
X22605000Y-13231500D02*
X22605000Y-13311500D01*
X22565000Y-13271500D02*
X22645000Y-13271500D01*
X22605000Y-13485500D02*
X22605000Y-13565500D01*
X22565000Y-13525500D02*
X22645000Y-13525500D01*
X22733000Y-6818000D02*
X22733000Y-6898000D01*
X22693000Y-6858000D02*
X22773000Y-6858000D01*
X22737000Y-10882000D02*
X22737000Y-10962000D01*
X22697000Y-10922000D02*
X22777000Y-10922000D01*
X22741000Y-2563500D02*
X22741000Y-2643500D01*
X22701000Y-2603500D02*
X22781000Y-2603500D01*
X23233000Y-6818000D02*
X23233000Y-6898000D01*
X23193000Y-6858000D02*
X23273000Y-6858000D01*
X23237000Y-10882000D02*
X23237000Y-10962000D01*
X23197000Y-10922000D02*
X23277000Y-10922000D01*
X23241000Y-2563500D02*
X23241000Y-2643500D01*
X23201000Y-2603500D02*
X23281000Y-2603500D01*
X23367000Y-2881000D02*
X23367000Y-2961000D01*
X23327000Y-2921000D02*
X23407000Y-2921000D01*
X23367000Y-3135000D02*
X23367000Y-3215000D01*
X23327000Y-3175000D02*
X23407000Y-3175000D01*
X23367000Y-3389000D02*
X23367000Y-3469000D01*
X23327000Y-3429000D02*
X23407000Y-3429000D01*
X23367000Y-3643000D02*
X23367000Y-3723000D01*
X23327000Y-3683000D02*
X23407000Y-3683000D01*
X23367000Y-3897000D02*
X23367000Y-3977000D01*
X23327000Y-3937000D02*
X23407000Y-3937000D01*
X23367000Y-4151000D02*
X23367000Y-4231000D01*
X23327000Y-4191000D02*
X23407000Y-4191000D01*
X23367000Y-4405000D02*
X23367000Y-4485000D01*
X23327000Y-4445000D02*
X23407000Y-4445000D01*
X23367000Y-4659000D02*
X23367000Y-4739000D01*
X23327000Y-4699000D02*
X23407000Y-4699000D01*
X23367000Y-4913000D02*
X23367000Y-4993000D01*
X23327000Y-4953000D02*
X23407000Y-4953000D01*
X23367000Y-5167000D02*
X23367000Y-5247000D01*
X23327000Y-5207000D02*
X23407000Y-5207000D01*
X23367000Y-7135500D02*
X23367000Y-7215500D01*
X23327000Y-7175500D02*
X23407000Y-7175500D01*
X23367000Y-7389500D02*
X23367000Y-7469500D01*
X23327000Y-7429500D02*
X23407000Y-7429500D01*
X23367000Y-7643500D02*
X23367000Y-7723500D01*
X23327000Y-7683500D02*
X23407000Y-7683500D01*
X23367000Y-7897500D02*
X23367000Y-7977500D01*
X23327000Y-7937500D02*
X23407000Y-7937500D01*
X23367000Y-8151500D02*
X23367000Y-8231500D01*
X23327000Y-8191500D02*
X23407000Y-8191500D01*
X23367000Y-8405500D02*
X23367000Y-8485500D01*
X23327000Y-8445500D02*
X23407000Y-8445500D01*
X23367000Y-8659500D02*
X23367000Y-8739500D01*
X23327000Y-8699500D02*
X23407000Y-8699500D01*
X23367000Y-8913500D02*
X23367000Y-8993500D01*
X23327000Y-8953500D02*
X23407000Y-8953500D01*
X23367000Y-11199500D02*
X23367000Y-11279500D01*
X23327000Y-11239500D02*
X23407000Y-11239500D01*
X23367000Y-11453500D02*
X23367000Y-11533500D01*
X23327000Y-11493500D02*
X23407000Y-11493500D01*
X23367000Y-11707500D02*
X23367000Y-11787500D01*
X23327000Y-11747500D02*
X23407000Y-11747500D01*
X23367000Y-11961500D02*
X23367000Y-12041500D01*
X23327000Y-12001500D02*
X23407000Y-12001500D01*
X23367000Y-12215500D02*
X23367000Y-12295500D01*
X23327000Y-12255500D02*
X23407000Y-12255500D01*
X23367000Y-12469500D02*
X23367000Y-12549500D01*
X23327000Y-12509500D02*
X23407000Y-12509500D01*
X23367000Y-12723500D02*
X23367000Y-12803500D01*
X23327000Y-12763500D02*
X23407000Y-12763500D01*
X23367000Y-12977500D02*
X23367000Y-13057500D01*
X23327000Y-13017500D02*
X23407000Y-13017500D01*
X23367000Y-13231500D02*
X23367000Y-13311500D01*
X23327000Y-13271500D02*
X23407000Y-13271500D01*
X23367000Y-13485500D02*
X23367000Y-13565500D01*
X23327000Y-13525500D02*
X23407000Y-13525500D01*
D10*
X4797856Y-14767356D02*
X4797856Y-14696644D01*
X4727144Y-14696644D01*
X4727144Y-14767356D01*
X4797856Y-14767356D01*
X4797856Y-15021356D02*
X4797856Y-14950644D01*
X4727144Y-14950644D01*
X4727144Y-15021356D01*
X4797856Y-15021356D01*
X5051856Y-14767356D02*
X5051856Y-14696644D01*
X4981144Y-14696644D01*
X4981144Y-14767356D01*
X5051856Y-14767356D01*
X5051856Y-15021356D02*
X5051856Y-14950644D01*
X4981144Y-14950644D01*
X4981144Y-15021356D01*
X5051856Y-15021356D01*
X5305856Y-14767356D02*
X5305856Y-14696644D01*
X5235144Y-14696644D01*
X5235144Y-14767356D01*
X5305856Y-14767356D01*
X5305856Y-15021356D02*
X5305856Y-14950644D01*
X5235144Y-14950644D01*
X5235144Y-15021356D01*
X5305856Y-15021356D01*
X5559856Y-14767356D02*
X5559856Y-14696644D01*
X5489144Y-14696644D01*
X5489144Y-14767356D01*
X5559856Y-14767356D01*
X5559856Y-15021356D02*
X5559856Y-14950644D01*
X5489144Y-14950644D01*
X5489144Y-15021356D01*
X5559856Y-15021356D01*
X5813856Y-14767356D02*
X5813856Y-14696644D01*
X5743144Y-14696644D01*
X5743144Y-14767356D01*
X5813856Y-14767356D01*
X5813856Y-15021356D02*
X5813856Y-14950644D01*
X5743144Y-14950644D01*
X5743144Y-15021356D01*
X5813856Y-15021356D01*
X6067856Y-14767356D02*
X6067856Y-14696644D01*
X5997144Y-14696644D01*
X5997144Y-14767356D01*
X6067856Y-14767356D01*
X6067856Y-15021356D02*
X6067856Y-14950644D01*
X5997144Y-14950644D01*
X5997144Y-15021356D01*
X6067856Y-15021356D01*
X6321856Y-14767356D02*
X6321856Y-14696644D01*
X6251144Y-14696644D01*
X6251144Y-14767356D01*
X6321856Y-14767356D01*
X6321856Y-15021356D02*
X6321856Y-14950644D01*
X6251144Y-14950644D01*
X6251144Y-15021356D01*
X6321856Y-15021356D01*
X6575856Y-14767356D02*
X6575856Y-14696644D01*
X6505144Y-14696644D01*
X6505144Y-14767356D01*
X6575856Y-14767356D01*
X6575856Y-15021356D02*
X6575856Y-14950644D01*
X6505144Y-14950644D01*
X6505144Y-15021356D01*
X6575856Y-15021356D01*
X6829856Y-14767356D02*
X6829856Y-14696644D01*
X6759144Y-14696644D01*
X6759144Y-14767356D01*
X6829856Y-14767356D01*
X6829856Y-15021356D02*
X6829856Y-14950644D01*
X6759144Y-14950644D01*
X6759144Y-15021356D01*
X6829856Y-15021356D01*
X7083856Y-14767356D02*
X7083856Y-14696644D01*
X7013144Y-14696644D01*
X7013144Y-14767356D01*
X7083856Y-14767356D01*
X7083856Y-15021356D02*
X7083856Y-14950644D01*
X7013144Y-14950644D01*
X7013144Y-15021356D01*
X7083856Y-15021356D01*
X7337856Y-14767356D02*
X7337856Y-14696644D01*
X7267144Y-14696644D01*
X7267144Y-14767356D01*
X7337856Y-14767356D01*
X7337856Y-15021356D02*
X7337856Y-14950644D01*
X7267144Y-14950644D01*
X7267144Y-15021356D01*
X7337856Y-15021356D01*
X7591856Y-14767356D02*
X7591856Y-14696644D01*
X7521144Y-14696644D01*
X7521144Y-14767356D01*
X7591856Y-14767356D01*
X7591856Y-15021356D02*
X7591856Y-14950644D01*
X7521144Y-14950644D01*
X7521144Y-15021356D01*
X7591856Y-15021356D01*
X7845856Y-14767356D02*
X7845856Y-14696644D01*
X7775144Y-14696644D01*
X7775144Y-14767356D01*
X7845856Y-14767356D01*
X7845856Y-15021356D02*
X7845856Y-14950644D01*
X7775144Y-14950644D01*
X7775144Y-15021356D01*
X7845856Y-15021356D01*
X8099856Y-14767356D02*
X8099856Y-14696644D01*
X8029144Y-14696644D01*
X8029144Y-14767356D01*
X8099856Y-14767356D01*
X8099856Y-15021356D02*
X8099856Y-14950644D01*
X8029144Y-14950644D01*
X8029144Y-15021356D01*
X8099856Y-15021356D01*
X8353856Y-14767356D02*
X8353856Y-14696644D01*
X8283144Y-14696644D01*
X8283144Y-14767356D01*
X8353856Y-14767356D01*
X8353856Y-15021356D02*
X8353856Y-14950644D01*
X8283144Y-14950644D01*
X8283144Y-15021356D01*
X8353856Y-15021356D01*
X8607856Y-14767356D02*
X8607856Y-14696644D01*
X8537144Y-14696644D01*
X8537144Y-14767356D01*
X8607856Y-14767356D01*
X8607856Y-15021356D02*
X8607856Y-14950644D01*
X8537144Y-14950644D01*
X8537144Y-15021356D01*
X8607856Y-15021356D01*
X8861856Y-14767356D02*
X8861856Y-14696644D01*
X8791144Y-14696644D01*
X8791144Y-14767356D01*
X8861856Y-14767356D01*
X8861856Y-15021356D02*
X8861856Y-14950644D01*
X8791144Y-14950644D01*
X8791144Y-15021356D01*
X8861856Y-15021356D01*
X9115856Y-14767356D02*
X9115856Y-14696644D01*
X9045144Y-14696644D01*
X9045144Y-14767356D01*
X9115856Y-14767356D01*
X9115856Y-15021356D02*
X9115856Y-14950644D01*
X9045144Y-14950644D01*
X9045144Y-15021356D01*
X9115856Y-15021356D01*
X9369856Y-14767356D02*
X9369856Y-14696644D01*
X9299144Y-14696644D01*
X9299144Y-14767356D01*
X9369856Y-14767356D01*
X9369856Y-15021356D02*
X9369856Y-14950644D01*
X9299144Y-14950644D01*
X9299144Y-15021356D01*
X9369856Y-15021356D01*
X9623856Y-14767356D02*
X9623856Y-14696644D01*
X9553144Y-14696644D01*
X9553144Y-14767356D01*
X9623856Y-14767356D01*
X9623856Y-15021356D02*
X9623856Y-14950644D01*
X9553144Y-14950644D01*
X9553144Y-15021356D01*
X9623856Y-15021356D01*
X9877856Y-14767356D02*
X9877856Y-14696644D01*
X9807144Y-14696644D01*
X9807144Y-14767356D01*
X9877856Y-14767356D01*
X9877856Y-15021356D02*
X9877856Y-14950644D01*
X9807144Y-14950644D01*
X9807144Y-15021356D01*
X9877856Y-15021356D01*
X10131856Y-14767356D02*
X10131856Y-14696644D01*
X10061144Y-14696644D01*
X10061144Y-14767356D01*
X10131856Y-14767356D01*
X10131856Y-15021356D02*
X10131856Y-14950644D01*
X10061144Y-14950644D01*
X10061144Y-15021356D01*
X10131856Y-15021356D01*
X10385856Y-14767356D02*
X10385856Y-14696644D01*
X10315144Y-14696644D01*
X10315144Y-14767356D01*
X10385856Y-14767356D01*
X10385856Y-15021356D02*
X10385856Y-14950644D01*
X10315144Y-14950644D01*
X10315144Y-15021356D01*
X10385856Y-15021356D01*
X10639856Y-14767356D02*
X10639856Y-14696644D01*
X10569144Y-14696644D01*
X10569144Y-14767356D01*
X10639856Y-14767356D01*
X10639856Y-15021356D02*
X10639856Y-14950644D01*
X10569144Y-14950644D01*
X10569144Y-15021356D01*
X10639856Y-15021356D01*
X10893856Y-14767356D02*
X10893856Y-14696644D01*
X10823144Y-14696644D01*
X10823144Y-14767356D01*
X10893856Y-14767356D01*
X10893856Y-15021356D02*
X10893856Y-14950644D01*
X10823144Y-14950644D01*
X10823144Y-15021356D01*
X10893856Y-15021356D01*
X11147856Y-14767356D02*
X11147856Y-14696644D01*
X11077144Y-14696644D01*
X11077144Y-14767356D01*
X11147856Y-14767356D01*
X11147856Y-15021356D02*
X11147856Y-14950644D01*
X11077144Y-14950644D01*
X11077144Y-15021356D01*
X11147856Y-15021356D01*
X11401856Y-14767356D02*
X11401856Y-14696644D01*
X11331144Y-14696644D01*
X11331144Y-14767356D01*
X11401856Y-14767356D01*
X11401856Y-15021356D02*
X11401856Y-14950644D01*
X11331144Y-14950644D01*
X11331144Y-15021356D01*
X11401856Y-15021356D01*
X11655856Y-14767356D02*
X11655856Y-14696644D01*
X11585144Y-14696644D01*
X11585144Y-14767356D01*
X11655856Y-14767356D01*
X11655856Y-15021356D02*
X11655856Y-14950644D01*
X11585144Y-14950644D01*
X11585144Y-15021356D01*
X11655856Y-15021356D01*
X11909856Y-14767356D02*
X11909856Y-14696644D01*
X11839144Y-14696644D01*
X11839144Y-14767356D01*
X11909856Y-14767356D01*
X11909856Y-15021356D02*
X11909856Y-14950644D01*
X11839144Y-14950644D01*
X11839144Y-15021356D01*
X11909856Y-15021356D01*
X12163856Y-14767356D02*
X12163856Y-14696644D01*
X12093144Y-14696644D01*
X12093144Y-14767356D01*
X12163856Y-14767356D01*
X12163856Y-15021356D02*
X12163856Y-14950644D01*
X12093144Y-14950644D01*
X12093144Y-15021356D01*
X12163856Y-15021356D01*
X12417856Y-14767356D02*
X12417856Y-14696644D01*
X12347144Y-14696644D01*
X12347144Y-14767356D01*
X12417856Y-14767356D01*
X12417856Y-15021356D02*
X12417856Y-14950644D01*
X12347144Y-14950644D01*
X12347144Y-15021356D01*
X12417856Y-15021356D01*
X12671856Y-14767356D02*
X12671856Y-14696644D01*
X12601144Y-14696644D01*
X12601144Y-14767356D01*
X12671856Y-14767356D01*
X12671856Y-15021356D02*
X12671856Y-14950644D01*
X12601144Y-14950644D01*
X12601144Y-15021356D01*
X12671856Y-15021356D01*
X15148356Y-14767356D02*
X15148356Y-14696644D01*
X15077644Y-14696644D01*
X15077644Y-14767356D01*
X15148356Y-14767356D01*
X15148356Y-15021356D02*
X15148356Y-14950644D01*
X15077644Y-14950644D01*
X15077644Y-15021356D01*
X15148356Y-15021356D01*
X15402356Y-14767356D02*
X15402356Y-14696644D01*
X15331644Y-14696644D01*
X15331644Y-14767356D01*
X15402356Y-14767356D01*
X15402356Y-15021356D02*
X15402356Y-14950644D01*
X15331644Y-14950644D01*
X15331644Y-15021356D01*
X15402356Y-15021356D01*
X15656356Y-14767356D02*
X15656356Y-14696644D01*
X15585644Y-14696644D01*
X15585644Y-14767356D01*
X15656356Y-14767356D01*
X15656356Y-15021356D02*
X15656356Y-14950644D01*
X15585644Y-14950644D01*
X15585644Y-15021356D01*
X15656356Y-15021356D01*
X15910356Y-14767356D02*
X15910356Y-14696644D01*
X15839644Y-14696644D01*
X15839644Y-14767356D01*
X15910356Y-14767356D01*
X15910356Y-15021356D02*
X15910356Y-14950644D01*
X15839644Y-14950644D01*
X15839644Y-15021356D01*
X15910356Y-15021356D01*
X16164356Y-14767356D02*
X16164356Y-14696644D01*
X16093644Y-14696644D01*
X16093644Y-14767356D01*
X16164356Y-14767356D01*
X16164356Y-15021356D02*
X16164356Y-14950644D01*
X16093644Y-14950644D01*
X16093644Y-15021356D01*
X16164356Y-15021356D01*
X16418356Y-14767356D02*
X16418356Y-14696644D01*
X16347644Y-14696644D01*
X16347644Y-14767356D01*
X16418356Y-14767356D01*
X16418356Y-15021356D02*
X16418356Y-14950644D01*
X16347644Y-14950644D01*
X16347644Y-15021356D01*
X16418356Y-15021356D01*
X16672356Y-14767356D02*
X16672356Y-14696644D01*
X16601644Y-14696644D01*
X16601644Y-14767356D01*
X16672356Y-14767356D01*
X16672356Y-15021356D02*
X16672356Y-14950644D01*
X16601644Y-14950644D01*
X16601644Y-15021356D01*
X16672356Y-15021356D01*
X16926356Y-14767356D02*
X16926356Y-14696644D01*
X16855644Y-14696644D01*
X16855644Y-14767356D01*
X16926356Y-14767356D01*
X16926356Y-15021356D02*
X16926356Y-14950644D01*
X16855644Y-14950644D01*
X16855644Y-15021356D01*
X16926356Y-15021356D01*
X17180356Y-14767356D02*
X17180356Y-14696644D01*
X17109644Y-14696644D01*
X17109644Y-14767356D01*
X17180356Y-14767356D01*
X17180356Y-15021356D02*
X17180356Y-14950644D01*
X17109644Y-14950644D01*
X17109644Y-15021356D01*
X17180356Y-15021356D01*
X17434356Y-14767356D02*
X17434356Y-14696644D01*
X17363644Y-14696644D01*
X17363644Y-14767356D01*
X17434356Y-14767356D01*
X17434356Y-15021356D02*
X17434356Y-14950644D01*
X17363644Y-14950644D01*
X17363644Y-15021356D01*
X17434356Y-15021356D01*
X17688356Y-14767356D02*
X17688356Y-14696644D01*
X17617644Y-14696644D01*
X17617644Y-14767356D01*
X17688356Y-14767356D01*
X17688356Y-15021356D02*
X17688356Y-14950644D01*
X17617644Y-14950644D01*
X17617644Y-15021356D01*
X17688356Y-15021356D01*
X17942356Y-14767356D02*
X17942356Y-14696644D01*
X17871644Y-14696644D01*
X17871644Y-14767356D01*
X17942356Y-14767356D01*
X17942356Y-15021356D02*
X17942356Y-14950644D01*
X17871644Y-14950644D01*
X17871644Y-15021356D01*
X17942356Y-15021356D01*
X18196356Y-14767356D02*
X18196356Y-14696644D01*
X18125644Y-14696644D01*
X18125644Y-14767356D01*
X18196356Y-14767356D01*
X18196356Y-15021356D02*
X18196356Y-14950644D01*
X18125644Y-14950644D01*
X18125644Y-15021356D01*
X18196356Y-15021356D01*
X18450356Y-14767356D02*
X18450356Y-14696644D01*
X18379644Y-14696644D01*
X18379644Y-14767356D01*
X18450356Y-14767356D01*
X18450356Y-15021356D02*
X18450356Y-14950644D01*
X18379644Y-14950644D01*
X18379644Y-15021356D01*
X18450356Y-15021356D01*
X18704356Y-14767356D02*
X18704356Y-14696644D01*
X18633644Y-14696644D01*
X18633644Y-14767356D01*
X18704356Y-14767356D01*
X18704356Y-15021356D02*
X18704356Y-14950644D01*
X18633644Y-14950644D01*
X18633644Y-15021356D01*
X18704356Y-15021356D01*
X18958356Y-14767356D02*
X18958356Y-14696644D01*
X18887644Y-14696644D01*
X18887644Y-14767356D01*
X18958356Y-14767356D01*
X18958356Y-15021356D02*
X18958356Y-14950644D01*
X18887644Y-14950644D01*
X18887644Y-15021356D01*
X18958356Y-15021356D01*
X19212356Y-14767356D02*
X19212356Y-14696644D01*
X19141644Y-14696644D01*
X19141644Y-14767356D01*
X19212356Y-14767356D01*
X19212356Y-15021356D02*
X19212356Y-14950644D01*
X19141644Y-14950644D01*
X19141644Y-15021356D01*
X19212356Y-15021356D01*
X19466356Y-14767356D02*
X19466356Y-14696644D01*
X19395644Y-14696644D01*
X19395644Y-14767356D01*
X19466356Y-14767356D01*
X19466356Y-15021356D02*
X19466356Y-14950644D01*
X19395644Y-14950644D01*
X19395644Y-15021356D01*
X19466356Y-15021356D01*
X19720356Y-14767356D02*
X19720356Y-14696644D01*
X19649644Y-14696644D01*
X19649644Y-14767356D01*
X19720356Y-14767356D01*
X19720356Y-15021356D02*
X19720356Y-14950644D01*
X19649644Y-14950644D01*
X19649644Y-15021356D01*
X19720356Y-15021356D01*
X19974356Y-14767356D02*
X19974356Y-14696644D01*
X19903644Y-14696644D01*
X19903644Y-14767356D01*
X19974356Y-14767356D01*
X19974356Y-15021356D02*
X19974356Y-14950644D01*
X19903644Y-14950644D01*
X19903644Y-15021356D01*
X19974356Y-15021356D01*
X20228356Y-14767356D02*
X20228356Y-14696644D01*
X20157644Y-14696644D01*
X20157644Y-14767356D01*
X20228356Y-14767356D01*
X20228356Y-15021356D02*
X20228356Y-14950644D01*
X20157644Y-14950644D01*
X20157644Y-15021356D01*
X20228356Y-15021356D01*
X20482356Y-14767356D02*
X20482356Y-14696644D01*
X20411644Y-14696644D01*
X20411644Y-14767356D01*
X20482356Y-14767356D01*
X20482356Y-15021356D02*
X20482356Y-14950644D01*
X20411644Y-14950644D01*
X20411644Y-15021356D01*
X20482356Y-15021356D01*
X20736356Y-14767356D02*
X20736356Y-14696644D01*
X20665644Y-14696644D01*
X20665644Y-14767356D01*
X20736356Y-14767356D01*
X20736356Y-15021356D02*
X20736356Y-14950644D01*
X20665644Y-14950644D01*
X20665644Y-15021356D01*
X20736356Y-15021356D01*
X20990356Y-14767356D02*
X20990356Y-14696644D01*
X20919644Y-14696644D01*
X20919644Y-14767356D01*
X20990356Y-14767356D01*
X20990356Y-15021356D02*
X20990356Y-14950644D01*
X20919644Y-14950644D01*
X20919644Y-15021356D01*
X20990356Y-15021356D01*
X21244356Y-14767356D02*
X21244356Y-14696644D01*
X21173644Y-14696644D01*
X21173644Y-14767356D01*
X21244356Y-14767356D01*
X21244356Y-15021356D02*
X21244356Y-14950644D01*
X21173644Y-14950644D01*
X21173644Y-15021356D01*
X21244356Y-15021356D01*
X21498356Y-14767356D02*
X21498356Y-14696644D01*
X21427644Y-14696644D01*
X21427644Y-14767356D01*
X21498356Y-14767356D01*
X21498356Y-15021356D02*
X21498356Y-14950644D01*
X21427644Y-14950644D01*
X21427644Y-15021356D01*
X21498356Y-15021356D01*
X21752356Y-14767356D02*
X21752356Y-14696644D01*
X21681644Y-14696644D01*
X21681644Y-14767356D01*
X21752356Y-14767356D01*
X21752356Y-15021356D02*
X21752356Y-14950644D01*
X21681644Y-14950644D01*
X21681644Y-15021356D01*
X21752356Y-15021356D01*
X22006356Y-14767356D02*
X22006356Y-14696644D01*
X21935644Y-14696644D01*
X21935644Y-14767356D01*
X22006356Y-14767356D01*
X22006356Y-15021356D02*
X22006356Y-14950644D01*
X21935644Y-14950644D01*
X21935644Y-15021356D01*
X22006356Y-15021356D01*
X22260356Y-14767356D02*
X22260356Y-14696644D01*
X22189644Y-14696644D01*
X22189644Y-14767356D01*
X22260356Y-14767356D01*
X22260356Y-15021356D02*
X22260356Y-14950644D01*
X22189644Y-14950644D01*
X22189644Y-15021356D01*
X22260356Y-15021356D01*
X22514356Y-14767356D02*
X22514356Y-14696644D01*
X22443644Y-14696644D01*
X22443644Y-14767356D01*
X22514356Y-14767356D01*
X22514356Y-15021356D02*
X22514356Y-14950644D01*
X22443644Y-14950644D01*
X22443644Y-15021356D01*
X22514356Y-15021356D01*
X22768356Y-14767356D02*
X22768356Y-14696644D01*
X22697644Y-14696644D01*
X22697644Y-14767356D01*
X22768356Y-14767356D01*
X22768356Y-15021356D02*
X22768356Y-14950644D01*
X22697644Y-14950644D01*
X22697644Y-15021356D01*
X22768356Y-15021356D01*
X23022356Y-14767356D02*
X23022356Y-14696644D01*
X22951644Y-14696644D01*
X22951644Y-14767356D01*
X23022356Y-14767356D01*
X23022356Y-15021356D02*
X23022356Y-14950644D01*
X22951644Y-14950644D01*
X22951644Y-15021356D01*
X23022356Y-15021356D01*
D11*
X3811777Y-15848584D02*
X3811777Y-15648584D01*
X3811777Y-15648584D02*
X3859396Y-15648584D01*
X3859396Y-15648584D02*
X3887967Y-15658108D01*
X3887967Y-15658108D02*
X3907015Y-15677155D01*
X3907015Y-15677155D02*
X3916539Y-15696203D01*
X3916539Y-15696203D02*
X3926062Y-15734298D01*
X3926062Y-15734298D02*
X3926062Y-15762869D01*
X3926062Y-15762869D02*
X3916539Y-15800965D01*
X3916539Y-15800965D02*
X3907015Y-15820012D01*
X3907015Y-15820012D02*
X3887967Y-15839060D01*
X3887967Y-15839060D02*
X3859396Y-15848584D01*
X3859396Y-15848584D02*
X3811777Y-15848584D01*
X4011777Y-15848584D02*
X4011777Y-15715250D01*
X4011777Y-15753346D02*
X4021301Y-15734298D01*
X4021301Y-15734298D02*
X4030824Y-15724774D01*
X4030824Y-15724774D02*
X4049872Y-15715250D01*
X4049872Y-15715250D02*
X4068920Y-15715250D01*
X4135586Y-15848584D02*
X4135586Y-15715250D01*
X4135586Y-15648584D02*
X4126062Y-15658108D01*
X4126062Y-15658108D02*
X4135586Y-15667631D01*
X4135586Y-15667631D02*
X4145110Y-15658108D01*
X4145110Y-15658108D02*
X4135586Y-15648584D01*
X4135586Y-15648584D02*
X4135586Y-15667631D01*
X4259396Y-15848584D02*
X4240348Y-15839060D01*
X4240348Y-15839060D02*
X4230824Y-15820012D01*
X4230824Y-15820012D02*
X4230824Y-15648584D01*
X4364158Y-15848584D02*
X4345110Y-15839060D01*
X4345110Y-15839060D02*
X4335586Y-15820012D01*
X4335586Y-15820012D02*
X4335586Y-15648584D01*
X4592729Y-15848584D02*
X4592729Y-15648584D01*
X4592729Y-15648584D02*
X4659396Y-15791441D01*
X4659396Y-15791441D02*
X4726063Y-15648584D01*
X4726063Y-15648584D02*
X4726063Y-15848584D01*
X4907015Y-15848584D02*
X4907015Y-15743822D01*
X4907015Y-15743822D02*
X4897491Y-15724774D01*
X4897491Y-15724774D02*
X4878444Y-15715250D01*
X4878444Y-15715250D02*
X4840348Y-15715250D01*
X4840348Y-15715250D02*
X4821301Y-15724774D01*
X4907015Y-15839060D02*
X4887967Y-15848584D01*
X4887967Y-15848584D02*
X4840348Y-15848584D01*
X4840348Y-15848584D02*
X4821301Y-15839060D01*
X4821301Y-15839060D02*
X4811777Y-15820012D01*
X4811777Y-15820012D02*
X4811777Y-15800965D01*
X4811777Y-15800965D02*
X4821301Y-15781917D01*
X4821301Y-15781917D02*
X4840348Y-15772393D01*
X4840348Y-15772393D02*
X4887967Y-15772393D01*
X4887967Y-15772393D02*
X4907015Y-15762869D01*
X5002253Y-15715250D02*
X5002253Y-15915250D01*
X5002253Y-15724774D02*
X5021301Y-15715250D01*
X5021301Y-15715250D02*
X5059396Y-15715250D01*
X5059396Y-15715250D02*
X5078444Y-15724774D01*
X5078444Y-15724774D02*
X5087967Y-15734298D01*
X5087967Y-15734298D02*
X5097491Y-15753346D01*
X5097491Y-15753346D02*
X5097491Y-15810488D01*
X5097491Y-15810488D02*
X5087967Y-15829536D01*
X5087967Y-15829536D02*
X5078444Y-15839060D01*
X5078444Y-15839060D02*
X5059396Y-15848584D01*
X5059396Y-15848584D02*
X5021301Y-15848584D01*
X5021301Y-15848584D02*
X5002253Y-15839060D01*
X5183205Y-15829536D02*
X5192729Y-15839060D01*
X5192729Y-15839060D02*
X5183205Y-15848584D01*
X5183205Y-15848584D02*
X5173682Y-15839060D01*
X5173682Y-15839060D02*
X5183205Y-15829536D01*
X5183205Y-15829536D02*
X5183205Y-15848584D01*
X5183205Y-15724774D02*
X5192729Y-15734298D01*
X5192729Y-15734298D02*
X5183205Y-15743822D01*
X5183205Y-15743822D02*
X5173682Y-15734298D01*
X5173682Y-15734298D02*
X5183205Y-15724774D01*
X5183205Y-15724774D02*
X5183205Y-15743822D01*
D12*
X3511000Y-16157100D02*
X3551000Y-16197100D01*
X3551000Y-16157100D02*
X3511000Y-16197100D01*
D11*
X3849872Y-16068584D02*
X3868920Y-16068584D01*
X3868920Y-16068584D02*
X3887967Y-16078108D01*
X3887967Y-16078108D02*
X3897491Y-16087631D01*
X3897491Y-16087631D02*
X3907015Y-16106679D01*
X3907015Y-16106679D02*
X3916539Y-16144774D01*
X3916539Y-16144774D02*
X3916539Y-16192393D01*
X3916539Y-16192393D02*
X3907015Y-16230488D01*
X3907015Y-16230488D02*
X3897491Y-16249536D01*
X3897491Y-16249536D02*
X3887967Y-16259060D01*
X3887967Y-16259060D02*
X3868920Y-16268584D01*
X3868920Y-16268584D02*
X3849872Y-16268584D01*
X3849872Y-16268584D02*
X3830824Y-16259060D01*
X3830824Y-16259060D02*
X3821301Y-16249536D01*
X3821301Y-16249536D02*
X3811777Y-16230488D01*
X3811777Y-16230488D02*
X3802253Y-16192393D01*
X3802253Y-16192393D02*
X3802253Y-16144774D01*
X3802253Y-16144774D02*
X3811777Y-16106679D01*
X3811777Y-16106679D02*
X3821301Y-16087631D01*
X3821301Y-16087631D02*
X3830824Y-16078108D01*
X3830824Y-16078108D02*
X3849872Y-16068584D01*
X4002253Y-16249536D02*
X4011777Y-16259060D01*
X4011777Y-16259060D02*
X4002253Y-16268584D01*
X4002253Y-16268584D02*
X3992729Y-16259060D01*
X3992729Y-16259060D02*
X4002253Y-16249536D01*
X4002253Y-16249536D02*
X4002253Y-16268584D01*
X4183205Y-16135250D02*
X4183205Y-16268584D01*
X4135586Y-16059060D02*
X4087967Y-16201917D01*
X4087967Y-16201917D02*
X4211777Y-16201917D01*
X4326063Y-16068584D02*
X4345110Y-16068584D01*
X4345110Y-16068584D02*
X4364158Y-16078108D01*
X4364158Y-16078108D02*
X4373682Y-16087631D01*
X4373682Y-16087631D02*
X4383205Y-16106679D01*
X4383205Y-16106679D02*
X4392729Y-16144774D01*
X4392729Y-16144774D02*
X4392729Y-16192393D01*
X4392729Y-16192393D02*
X4383205Y-16230488D01*
X4383205Y-16230488D02*
X4373682Y-16249536D01*
X4373682Y-16249536D02*
X4364158Y-16259060D01*
X4364158Y-16259060D02*
X4345110Y-16268584D01*
X4345110Y-16268584D02*
X4326063Y-16268584D01*
X4326063Y-16268584D02*
X4307015Y-16259060D01*
X4307015Y-16259060D02*
X4297491Y-16249536D01*
X4297491Y-16249536D02*
X4287967Y-16230488D01*
X4287967Y-16230488D02*
X4278444Y-16192393D01*
X4278444Y-16192393D02*
X4278444Y-16144774D01*
X4278444Y-16144774D02*
X4287967Y-16106679D01*
X4287967Y-16106679D02*
X4297491Y-16087631D01*
X4297491Y-16087631D02*
X4307015Y-16078108D01*
X4307015Y-16078108D02*
X4326063Y-16068584D01*
X4516539Y-16068584D02*
X4535586Y-16068584D01*
X4535586Y-16068584D02*
X4554634Y-16078108D01*
X4554634Y-16078108D02*
X4564158Y-16087631D01*
X4564158Y-16087631D02*
X4573682Y-16106679D01*
X4573682Y-16106679D02*
X4583205Y-16144774D01*
X4583205Y-16144774D02*
X4583205Y-16192393D01*
X4583205Y-16192393D02*
X4573682Y-16230488D01*
X4573682Y-16230488D02*
X4564158Y-16249536D01*
X4564158Y-16249536D02*
X4554634Y-16259060D01*
X4554634Y-16259060D02*
X4535586Y-16268584D01*
X4535586Y-16268584D02*
X4516539Y-16268584D01*
X4516539Y-16268584D02*
X4497491Y-16259060D01*
X4497491Y-16259060D02*
X4487967Y-16249536D01*
X4487967Y-16249536D02*
X4478444Y-16230488D01*
X4478444Y-16230488D02*
X4468920Y-16192393D01*
X4468920Y-16192393D02*
X4468920Y-16144774D01*
X4468920Y-16144774D02*
X4478444Y-16106679D01*
X4478444Y-16106679D02*
X4487967Y-16087631D01*
X4487967Y-16087631D02*
X4497491Y-16078108D01*
X4497491Y-16078108D02*
X4516539Y-16068584D01*
X4668920Y-16268584D02*
X4668920Y-16135250D01*
X4668920Y-16154298D02*
X4678444Y-16144774D01*
X4678444Y-16144774D02*
X4697491Y-16135250D01*
X4697491Y-16135250D02*
X4726063Y-16135250D01*
X4726063Y-16135250D02*
X4745110Y-16144774D01*
X4745110Y-16144774D02*
X4754634Y-16163822D01*
X4754634Y-16163822D02*
X4754634Y-16268584D01*
X4754634Y-16163822D02*
X4764158Y-16144774D01*
X4764158Y-16144774D02*
X4783205Y-16135250D01*
X4783205Y-16135250D02*
X4811777Y-16135250D01*
X4811777Y-16135250D02*
X4830825Y-16144774D01*
X4830825Y-16144774D02*
X4840348Y-16163822D01*
X4840348Y-16163822D02*
X4840348Y-16268584D01*
X4935586Y-16268584D02*
X4935586Y-16135250D01*
X4935586Y-16154298D02*
X4945110Y-16144774D01*
X4945110Y-16144774D02*
X4964158Y-16135250D01*
X4964158Y-16135250D02*
X4992729Y-16135250D01*
X4992729Y-16135250D02*
X5011777Y-16144774D01*
X5011777Y-16144774D02*
X5021301Y-16163822D01*
X5021301Y-16163822D02*
X5021301Y-16268584D01*
X5021301Y-16163822D02*
X5030825Y-16144774D01*
X5030825Y-16144774D02*
X5049872Y-16135250D01*
X5049872Y-16135250D02*
X5078444Y-16135250D01*
X5078444Y-16135250D02*
X5097491Y-16144774D01*
X5097491Y-16144774D02*
X5107015Y-16163822D01*
X5107015Y-16163822D02*
X5107015Y-16268584D01*
X5497491Y-16059060D02*
X5326063Y-16316203D01*
X5754634Y-16068584D02*
X5773682Y-16068584D01*
X5773682Y-16068584D02*
X5792729Y-16078108D01*
X5792729Y-16078108D02*
X5802253Y-16087631D01*
X5802253Y-16087631D02*
X5811777Y-16106679D01*
X5811777Y-16106679D02*
X5821301Y-16144774D01*
X5821301Y-16144774D02*
X5821301Y-16192393D01*
X5821301Y-16192393D02*
X5811777Y-16230488D01*
X5811777Y-16230488D02*
X5802253Y-16249536D01*
X5802253Y-16249536D02*
X5792729Y-16259060D01*
X5792729Y-16259060D02*
X5773682Y-16268584D01*
X5773682Y-16268584D02*
X5754634Y-16268584D01*
X5754634Y-16268584D02*
X5735586Y-16259060D01*
X5735586Y-16259060D02*
X5726063Y-16249536D01*
X5726063Y-16249536D02*
X5716539Y-16230488D01*
X5716539Y-16230488D02*
X5707015Y-16192393D01*
X5707015Y-16192393D02*
X5707015Y-16144774D01*
X5707015Y-16144774D02*
X5716539Y-16106679D01*
X5716539Y-16106679D02*
X5726063Y-16087631D01*
X5726063Y-16087631D02*
X5735586Y-16078108D01*
X5735586Y-16078108D02*
X5754634Y-16068584D01*
X5907015Y-16249536D02*
X5916539Y-16259060D01*
X5916539Y-16259060D02*
X5907015Y-16268584D01*
X5907015Y-16268584D02*
X5897491Y-16259060D01*
X5897491Y-16259060D02*
X5907015Y-16249536D01*
X5907015Y-16249536D02*
X5907015Y-16268584D01*
X6040348Y-16068584D02*
X6059396Y-16068584D01*
X6059396Y-16068584D02*
X6078444Y-16078108D01*
X6078444Y-16078108D02*
X6087967Y-16087631D01*
X6087967Y-16087631D02*
X6097491Y-16106679D01*
X6097491Y-16106679D02*
X6107015Y-16144774D01*
X6107015Y-16144774D02*
X6107015Y-16192393D01*
X6107015Y-16192393D02*
X6097491Y-16230488D01*
X6097491Y-16230488D02*
X6087967Y-16249536D01*
X6087967Y-16249536D02*
X6078444Y-16259060D01*
X6078444Y-16259060D02*
X6059396Y-16268584D01*
X6059396Y-16268584D02*
X6040348Y-16268584D01*
X6040348Y-16268584D02*
X6021301Y-16259060D01*
X6021301Y-16259060D02*
X6011777Y-16249536D01*
X6011777Y-16249536D02*
X6002253Y-16230488D01*
X6002253Y-16230488D02*
X5992729Y-16192393D01*
X5992729Y-16192393D02*
X5992729Y-16144774D01*
X5992729Y-16144774D02*
X6002253Y-16106679D01*
X6002253Y-16106679D02*
X6011777Y-16087631D01*
X6011777Y-16087631D02*
X6021301Y-16078108D01*
X6021301Y-16078108D02*
X6040348Y-16068584D01*
X6297491Y-16268584D02*
X6183206Y-16268584D01*
X6240348Y-16268584D02*
X6240348Y-16068584D01*
X6240348Y-16068584D02*
X6221301Y-16097155D01*
X6221301Y-16097155D02*
X6202253Y-16116203D01*
X6202253Y-16116203D02*
X6183206Y-16125727D01*
X6478444Y-16068584D02*
X6383206Y-16068584D01*
X6383206Y-16068584D02*
X6373682Y-16163822D01*
X6373682Y-16163822D02*
X6383206Y-16154298D01*
X6383206Y-16154298D02*
X6402253Y-16144774D01*
X6402253Y-16144774D02*
X6449872Y-16144774D01*
X6449872Y-16144774D02*
X6468920Y-16154298D01*
X6468920Y-16154298D02*
X6478444Y-16163822D01*
X6478444Y-16163822D02*
X6487967Y-16182869D01*
X6487967Y-16182869D02*
X6487967Y-16230488D01*
X6487967Y-16230488D02*
X6478444Y-16249536D01*
X6478444Y-16249536D02*
X6468920Y-16259060D01*
X6468920Y-16259060D02*
X6449872Y-16268584D01*
X6449872Y-16268584D02*
X6402253Y-16268584D01*
X6402253Y-16268584D02*
X6383206Y-16259060D01*
X6383206Y-16259060D02*
X6373682Y-16249536D01*
X6554634Y-16068584D02*
X6687967Y-16068584D01*
X6687967Y-16068584D02*
X6602253Y-16268584D01*
X6754634Y-16068584D02*
X6754634Y-16106679D01*
X6830825Y-16068584D02*
X6830825Y-16106679D01*
X7126063Y-16344774D02*
X7116539Y-16335250D01*
X7116539Y-16335250D02*
X7097491Y-16306679D01*
X7097491Y-16306679D02*
X7087968Y-16287631D01*
X7087968Y-16287631D02*
X7078444Y-16259060D01*
X7078444Y-16259060D02*
X7068920Y-16211441D01*
X7068920Y-16211441D02*
X7068920Y-16173346D01*
X7068920Y-16173346D02*
X7078444Y-16125727D01*
X7078444Y-16125727D02*
X7087968Y-16097155D01*
X7087968Y-16097155D02*
X7097491Y-16078108D01*
X7097491Y-16078108D02*
X7116539Y-16049536D01*
X7116539Y-16049536D02*
X7126063Y-16040012D01*
X7211777Y-16268584D02*
X7249872Y-16268584D01*
X7249872Y-16268584D02*
X7268920Y-16259060D01*
X7268920Y-16259060D02*
X7278444Y-16249536D01*
X7278444Y-16249536D02*
X7297491Y-16220965D01*
X7297491Y-16220965D02*
X7307015Y-16182869D01*
X7307015Y-16182869D02*
X7307015Y-16106679D01*
X7307015Y-16106679D02*
X7297491Y-16087631D01*
X7297491Y-16087631D02*
X7287968Y-16078108D01*
X7287968Y-16078108D02*
X7268920Y-16068584D01*
X7268920Y-16068584D02*
X7230825Y-16068584D01*
X7230825Y-16068584D02*
X7211777Y-16078108D01*
X7211777Y-16078108D02*
X7202253Y-16087631D01*
X7202253Y-16087631D02*
X7192729Y-16106679D01*
X7192729Y-16106679D02*
X7192729Y-16154298D01*
X7192729Y-16154298D02*
X7202253Y-16173346D01*
X7202253Y-16173346D02*
X7211777Y-16182869D01*
X7211777Y-16182869D02*
X7230825Y-16192393D01*
X7230825Y-16192393D02*
X7268920Y-16192393D01*
X7268920Y-16192393D02*
X7287968Y-16182869D01*
X7287968Y-16182869D02*
X7297491Y-16173346D01*
X7297491Y-16173346D02*
X7307015Y-16154298D01*
X7421301Y-16154298D02*
X7402253Y-16144774D01*
X7402253Y-16144774D02*
X7392729Y-16135250D01*
X7392729Y-16135250D02*
X7383206Y-16116203D01*
X7383206Y-16116203D02*
X7383206Y-16106679D01*
X7383206Y-16106679D02*
X7392729Y-16087631D01*
X7392729Y-16087631D02*
X7402253Y-16078108D01*
X7402253Y-16078108D02*
X7421301Y-16068584D01*
X7421301Y-16068584D02*
X7459396Y-16068584D01*
X7459396Y-16068584D02*
X7478444Y-16078108D01*
X7478444Y-16078108D02*
X7487968Y-16087631D01*
X7487968Y-16087631D02*
X7497491Y-16106679D01*
X7497491Y-16106679D02*
X7497491Y-16116203D01*
X7497491Y-16116203D02*
X7487968Y-16135250D01*
X7487968Y-16135250D02*
X7478444Y-16144774D01*
X7478444Y-16144774D02*
X7459396Y-16154298D01*
X7459396Y-16154298D02*
X7421301Y-16154298D01*
X7421301Y-16154298D02*
X7402253Y-16163822D01*
X7402253Y-16163822D02*
X7392729Y-16173346D01*
X7392729Y-16173346D02*
X7383206Y-16192393D01*
X7383206Y-16192393D02*
X7383206Y-16230488D01*
X7383206Y-16230488D02*
X7392729Y-16249536D01*
X7392729Y-16249536D02*
X7402253Y-16259060D01*
X7402253Y-16259060D02*
X7421301Y-16268584D01*
X7421301Y-16268584D02*
X7459396Y-16268584D01*
X7459396Y-16268584D02*
X7478444Y-16259060D01*
X7478444Y-16259060D02*
X7487968Y-16249536D01*
X7487968Y-16249536D02*
X7497491Y-16230488D01*
X7497491Y-16230488D02*
X7497491Y-16192393D01*
X7497491Y-16192393D02*
X7487968Y-16173346D01*
X7487968Y-16173346D02*
X7478444Y-16163822D01*
X7478444Y-16163822D02*
X7459396Y-16154298D01*
X7735587Y-16268584D02*
X7735587Y-16068584D01*
X7821301Y-16268584D02*
X7821301Y-16163822D01*
X7821301Y-16163822D02*
X7811777Y-16144774D01*
X7811777Y-16144774D02*
X7792730Y-16135250D01*
X7792730Y-16135250D02*
X7764158Y-16135250D01*
X7764158Y-16135250D02*
X7745110Y-16144774D01*
X7745110Y-16144774D02*
X7735587Y-16154298D01*
X7945110Y-16268584D02*
X7926063Y-16259060D01*
X7926063Y-16259060D02*
X7916539Y-16249536D01*
X7916539Y-16249536D02*
X7907015Y-16230488D01*
X7907015Y-16230488D02*
X7907015Y-16173346D01*
X7907015Y-16173346D02*
X7916539Y-16154298D01*
X7916539Y-16154298D02*
X7926063Y-16144774D01*
X7926063Y-16144774D02*
X7945110Y-16135250D01*
X7945110Y-16135250D02*
X7973682Y-16135250D01*
X7973682Y-16135250D02*
X7992730Y-16144774D01*
X7992730Y-16144774D02*
X8002253Y-16154298D01*
X8002253Y-16154298D02*
X8011777Y-16173346D01*
X8011777Y-16173346D02*
X8011777Y-16230488D01*
X8011777Y-16230488D02*
X8002253Y-16249536D01*
X8002253Y-16249536D02*
X7992730Y-16259060D01*
X7992730Y-16259060D02*
X7973682Y-16268584D01*
X7973682Y-16268584D02*
X7945110Y-16268584D01*
X8126063Y-16268584D02*
X8107015Y-16259060D01*
X8107015Y-16259060D02*
X8097491Y-16240012D01*
X8097491Y-16240012D02*
X8097491Y-16068584D01*
X8278444Y-16259060D02*
X8259396Y-16268584D01*
X8259396Y-16268584D02*
X8221301Y-16268584D01*
X8221301Y-16268584D02*
X8202253Y-16259060D01*
X8202253Y-16259060D02*
X8192730Y-16240012D01*
X8192730Y-16240012D02*
X8192730Y-16163822D01*
X8192730Y-16163822D02*
X8202253Y-16144774D01*
X8202253Y-16144774D02*
X8221301Y-16135250D01*
X8221301Y-16135250D02*
X8259396Y-16135250D01*
X8259396Y-16135250D02*
X8278444Y-16144774D01*
X8278444Y-16144774D02*
X8287968Y-16163822D01*
X8287968Y-16163822D02*
X8287968Y-16182869D01*
X8287968Y-16182869D02*
X8192730Y-16201917D01*
X8364158Y-16259060D02*
X8383206Y-16268584D01*
X8383206Y-16268584D02*
X8421301Y-16268584D01*
X8421301Y-16268584D02*
X8440349Y-16259060D01*
X8440349Y-16259060D02*
X8449873Y-16240012D01*
X8449873Y-16240012D02*
X8449873Y-16230488D01*
X8449873Y-16230488D02*
X8440349Y-16211441D01*
X8440349Y-16211441D02*
X8421301Y-16201917D01*
X8421301Y-16201917D02*
X8392730Y-16201917D01*
X8392730Y-16201917D02*
X8373682Y-16192393D01*
X8373682Y-16192393D02*
X8364158Y-16173346D01*
X8364158Y-16173346D02*
X8364158Y-16163822D01*
X8364158Y-16163822D02*
X8373682Y-16144774D01*
X8373682Y-16144774D02*
X8392730Y-16135250D01*
X8392730Y-16135250D02*
X8421301Y-16135250D01*
X8421301Y-16135250D02*
X8440349Y-16144774D01*
X8516539Y-16344774D02*
X8526063Y-16335250D01*
X8526063Y-16335250D02*
X8545111Y-16306679D01*
X8545111Y-16306679D02*
X8554634Y-16287631D01*
X8554634Y-16287631D02*
X8564158Y-16259060D01*
X8564158Y-16259060D02*
X8573682Y-16211441D01*
X8573682Y-16211441D02*
X8573682Y-16173346D01*
X8573682Y-16173346D02*
X8564158Y-16125727D01*
X8564158Y-16125727D02*
X8554634Y-16097155D01*
X8554634Y-16097155D02*
X8545111Y-16078108D01*
X8545111Y-16078108D02*
X8526063Y-16049536D01*
X8526063Y-16049536D02*
X8516539Y-16040012D01*
D13*
X3551000Y-16441100D02*
G75*
G03*
X3551000Y-16441100I-25000J0D01*
G01*
D11*
X3849872Y-16332584D02*
X3868920Y-16332584D01*
X3868920Y-16332584D02*
X3887967Y-16342108D01*
X3887967Y-16342108D02*
X3897491Y-16351631D01*
X3897491Y-16351631D02*
X3907015Y-16370679D01*
X3907015Y-16370679D02*
X3916539Y-16408774D01*
X3916539Y-16408774D02*
X3916539Y-16456393D01*
X3916539Y-16456393D02*
X3907015Y-16494488D01*
X3907015Y-16494488D02*
X3897491Y-16513536D01*
X3897491Y-16513536D02*
X3887967Y-16523060D01*
X3887967Y-16523060D02*
X3868920Y-16532584D01*
X3868920Y-16532584D02*
X3849872Y-16532584D01*
X3849872Y-16532584D02*
X3830824Y-16523060D01*
X3830824Y-16523060D02*
X3821301Y-16513536D01*
X3821301Y-16513536D02*
X3811777Y-16494488D01*
X3811777Y-16494488D02*
X3802253Y-16456393D01*
X3802253Y-16456393D02*
X3802253Y-16408774D01*
X3802253Y-16408774D02*
X3811777Y-16370679D01*
X3811777Y-16370679D02*
X3821301Y-16351631D01*
X3821301Y-16351631D02*
X3830824Y-16342108D01*
X3830824Y-16342108D02*
X3849872Y-16332584D01*
X4002253Y-16513536D02*
X4011777Y-16523060D01*
X4011777Y-16523060D02*
X4002253Y-16532584D01*
X4002253Y-16532584D02*
X3992729Y-16523060D01*
X3992729Y-16523060D02*
X4002253Y-16513536D01*
X4002253Y-16513536D02*
X4002253Y-16532584D01*
X4192729Y-16332584D02*
X4097491Y-16332584D01*
X4097491Y-16332584D02*
X4087967Y-16427822D01*
X4087967Y-16427822D02*
X4097491Y-16418298D01*
X4097491Y-16418298D02*
X4116539Y-16408774D01*
X4116539Y-16408774D02*
X4164158Y-16408774D01*
X4164158Y-16408774D02*
X4183205Y-16418298D01*
X4183205Y-16418298D02*
X4192729Y-16427822D01*
X4192729Y-16427822D02*
X4202253Y-16446869D01*
X4202253Y-16446869D02*
X4202253Y-16494488D01*
X4202253Y-16494488D02*
X4192729Y-16513536D01*
X4192729Y-16513536D02*
X4183205Y-16523060D01*
X4183205Y-16523060D02*
X4164158Y-16532584D01*
X4164158Y-16532584D02*
X4116539Y-16532584D01*
X4116539Y-16532584D02*
X4097491Y-16523060D01*
X4097491Y-16523060D02*
X4087967Y-16513536D01*
X4326063Y-16332584D02*
X4345110Y-16332584D01*
X4345110Y-16332584D02*
X4364158Y-16342108D01*
X4364158Y-16342108D02*
X4373682Y-16351631D01*
X4373682Y-16351631D02*
X4383205Y-16370679D01*
X4383205Y-16370679D02*
X4392729Y-16408774D01*
X4392729Y-16408774D02*
X4392729Y-16456393D01*
X4392729Y-16456393D02*
X4383205Y-16494488D01*
X4383205Y-16494488D02*
X4373682Y-16513536D01*
X4373682Y-16513536D02*
X4364158Y-16523060D01*
X4364158Y-16523060D02*
X4345110Y-16532584D01*
X4345110Y-16532584D02*
X4326063Y-16532584D01*
X4326063Y-16532584D02*
X4307015Y-16523060D01*
X4307015Y-16523060D02*
X4297491Y-16513536D01*
X4297491Y-16513536D02*
X4287967Y-16494488D01*
X4287967Y-16494488D02*
X4278444Y-16456393D01*
X4278444Y-16456393D02*
X4278444Y-16408774D01*
X4278444Y-16408774D02*
X4287967Y-16370679D01*
X4287967Y-16370679D02*
X4297491Y-16351631D01*
X4297491Y-16351631D02*
X4307015Y-16342108D01*
X4307015Y-16342108D02*
X4326063Y-16332584D01*
X4516539Y-16332584D02*
X4535586Y-16332584D01*
X4535586Y-16332584D02*
X4554634Y-16342108D01*
X4554634Y-16342108D02*
X4564158Y-16351631D01*
X4564158Y-16351631D02*
X4573682Y-16370679D01*
X4573682Y-16370679D02*
X4583205Y-16408774D01*
X4583205Y-16408774D02*
X4583205Y-16456393D01*
X4583205Y-16456393D02*
X4573682Y-16494488D01*
X4573682Y-16494488D02*
X4564158Y-16513536D01*
X4564158Y-16513536D02*
X4554634Y-16523060D01*
X4554634Y-16523060D02*
X4535586Y-16532584D01*
X4535586Y-16532584D02*
X4516539Y-16532584D01*
X4516539Y-16532584D02*
X4497491Y-16523060D01*
X4497491Y-16523060D02*
X4487967Y-16513536D01*
X4487967Y-16513536D02*
X4478444Y-16494488D01*
X4478444Y-16494488D02*
X4468920Y-16456393D01*
X4468920Y-16456393D02*
X4468920Y-16408774D01*
X4468920Y-16408774D02*
X4478444Y-16370679D01*
X4478444Y-16370679D02*
X4487967Y-16351631D01*
X4487967Y-16351631D02*
X4497491Y-16342108D01*
X4497491Y-16342108D02*
X4516539Y-16332584D01*
X4668920Y-16532584D02*
X4668920Y-16399250D01*
X4668920Y-16418298D02*
X4678444Y-16408774D01*
X4678444Y-16408774D02*
X4697491Y-16399250D01*
X4697491Y-16399250D02*
X4726063Y-16399250D01*
X4726063Y-16399250D02*
X4745110Y-16408774D01*
X4745110Y-16408774D02*
X4754634Y-16427822D01*
X4754634Y-16427822D02*
X4754634Y-16532584D01*
X4754634Y-16427822D02*
X4764158Y-16408774D01*
X4764158Y-16408774D02*
X4783205Y-16399250D01*
X4783205Y-16399250D02*
X4811777Y-16399250D01*
X4811777Y-16399250D02*
X4830825Y-16408774D01*
X4830825Y-16408774D02*
X4840348Y-16427822D01*
X4840348Y-16427822D02*
X4840348Y-16532584D01*
X4935586Y-16532584D02*
X4935586Y-16399250D01*
X4935586Y-16418298D02*
X4945110Y-16408774D01*
X4945110Y-16408774D02*
X4964158Y-16399250D01*
X4964158Y-16399250D02*
X4992729Y-16399250D01*
X4992729Y-16399250D02*
X5011777Y-16408774D01*
X5011777Y-16408774D02*
X5021301Y-16427822D01*
X5021301Y-16427822D02*
X5021301Y-16532584D01*
X5021301Y-16427822D02*
X5030825Y-16408774D01*
X5030825Y-16408774D02*
X5049872Y-16399250D01*
X5049872Y-16399250D02*
X5078444Y-16399250D01*
X5078444Y-16399250D02*
X5097491Y-16408774D01*
X5097491Y-16408774D02*
X5107015Y-16427822D01*
X5107015Y-16427822D02*
X5107015Y-16532584D01*
X5497491Y-16323060D02*
X5326063Y-16580203D01*
X5754634Y-16332584D02*
X5773682Y-16332584D01*
X5773682Y-16332584D02*
X5792729Y-16342108D01*
X5792729Y-16342108D02*
X5802253Y-16351631D01*
X5802253Y-16351631D02*
X5811777Y-16370679D01*
X5811777Y-16370679D02*
X5821301Y-16408774D01*
X5821301Y-16408774D02*
X5821301Y-16456393D01*
X5821301Y-16456393D02*
X5811777Y-16494488D01*
X5811777Y-16494488D02*
X5802253Y-16513536D01*
X5802253Y-16513536D02*
X5792729Y-16523060D01*
X5792729Y-16523060D02*
X5773682Y-16532584D01*
X5773682Y-16532584D02*
X5754634Y-16532584D01*
X5754634Y-16532584D02*
X5735586Y-16523060D01*
X5735586Y-16523060D02*
X5726063Y-16513536D01*
X5726063Y-16513536D02*
X5716539Y-16494488D01*
X5716539Y-16494488D02*
X5707015Y-16456393D01*
X5707015Y-16456393D02*
X5707015Y-16408774D01*
X5707015Y-16408774D02*
X5716539Y-16370679D01*
X5716539Y-16370679D02*
X5726063Y-16351631D01*
X5726063Y-16351631D02*
X5735586Y-16342108D01*
X5735586Y-16342108D02*
X5754634Y-16332584D01*
X5907015Y-16513536D02*
X5916539Y-16523060D01*
X5916539Y-16523060D02*
X5907015Y-16532584D01*
X5907015Y-16532584D02*
X5897491Y-16523060D01*
X5897491Y-16523060D02*
X5907015Y-16513536D01*
X5907015Y-16513536D02*
X5907015Y-16532584D01*
X6040348Y-16332584D02*
X6059396Y-16332584D01*
X6059396Y-16332584D02*
X6078444Y-16342108D01*
X6078444Y-16342108D02*
X6087967Y-16351631D01*
X6087967Y-16351631D02*
X6097491Y-16370679D01*
X6097491Y-16370679D02*
X6107015Y-16408774D01*
X6107015Y-16408774D02*
X6107015Y-16456393D01*
X6107015Y-16456393D02*
X6097491Y-16494488D01*
X6097491Y-16494488D02*
X6087967Y-16513536D01*
X6087967Y-16513536D02*
X6078444Y-16523060D01*
X6078444Y-16523060D02*
X6059396Y-16532584D01*
X6059396Y-16532584D02*
X6040348Y-16532584D01*
X6040348Y-16532584D02*
X6021301Y-16523060D01*
X6021301Y-16523060D02*
X6011777Y-16513536D01*
X6011777Y-16513536D02*
X6002253Y-16494488D01*
X6002253Y-16494488D02*
X5992729Y-16456393D01*
X5992729Y-16456393D02*
X5992729Y-16408774D01*
X5992729Y-16408774D02*
X6002253Y-16370679D01*
X6002253Y-16370679D02*
X6011777Y-16351631D01*
X6011777Y-16351631D02*
X6021301Y-16342108D01*
X6021301Y-16342108D02*
X6040348Y-16332584D01*
X6297491Y-16532584D02*
X6183206Y-16532584D01*
X6240348Y-16532584D02*
X6240348Y-16332584D01*
X6240348Y-16332584D02*
X6221301Y-16361155D01*
X6221301Y-16361155D02*
X6202253Y-16380203D01*
X6202253Y-16380203D02*
X6183206Y-16389727D01*
X6392729Y-16532584D02*
X6430825Y-16532584D01*
X6430825Y-16532584D02*
X6449872Y-16523060D01*
X6449872Y-16523060D02*
X6459396Y-16513536D01*
X6459396Y-16513536D02*
X6478444Y-16484965D01*
X6478444Y-16484965D02*
X6487967Y-16446869D01*
X6487967Y-16446869D02*
X6487967Y-16370679D01*
X6487967Y-16370679D02*
X6478444Y-16351631D01*
X6478444Y-16351631D02*
X6468920Y-16342108D01*
X6468920Y-16342108D02*
X6449872Y-16332584D01*
X6449872Y-16332584D02*
X6411777Y-16332584D01*
X6411777Y-16332584D02*
X6392729Y-16342108D01*
X6392729Y-16342108D02*
X6383206Y-16351631D01*
X6383206Y-16351631D02*
X6373682Y-16370679D01*
X6373682Y-16370679D02*
X6373682Y-16418298D01*
X6373682Y-16418298D02*
X6383206Y-16437346D01*
X6383206Y-16437346D02*
X6392729Y-16446869D01*
X6392729Y-16446869D02*
X6411777Y-16456393D01*
X6411777Y-16456393D02*
X6449872Y-16456393D01*
X6449872Y-16456393D02*
X6468920Y-16446869D01*
X6468920Y-16446869D02*
X6478444Y-16437346D01*
X6478444Y-16437346D02*
X6487967Y-16418298D01*
X6554634Y-16332584D02*
X6687967Y-16332584D01*
X6687967Y-16332584D02*
X6602253Y-16532584D01*
X6754634Y-16332584D02*
X6754634Y-16370679D01*
X6830825Y-16332584D02*
X6830825Y-16370679D01*
X7126063Y-16608774D02*
X7116539Y-16599250D01*
X7116539Y-16599250D02*
X7097491Y-16570679D01*
X7097491Y-16570679D02*
X7087968Y-16551631D01*
X7087968Y-16551631D02*
X7078444Y-16523060D01*
X7078444Y-16523060D02*
X7068920Y-16475441D01*
X7068920Y-16475441D02*
X7068920Y-16437346D01*
X7068920Y-16437346D02*
X7078444Y-16389727D01*
X7078444Y-16389727D02*
X7087968Y-16361155D01*
X7087968Y-16361155D02*
X7097491Y-16342108D01*
X7097491Y-16342108D02*
X7116539Y-16313536D01*
X7116539Y-16313536D02*
X7126063Y-16304012D01*
X7307015Y-16532584D02*
X7192729Y-16532584D01*
X7249872Y-16532584D02*
X7249872Y-16332584D01*
X7249872Y-16332584D02*
X7230825Y-16361155D01*
X7230825Y-16361155D02*
X7211777Y-16380203D01*
X7211777Y-16380203D02*
X7192729Y-16389727D01*
X7545110Y-16532584D02*
X7545110Y-16332584D01*
X7630825Y-16532584D02*
X7630825Y-16427822D01*
X7630825Y-16427822D02*
X7621301Y-16408774D01*
X7621301Y-16408774D02*
X7602253Y-16399250D01*
X7602253Y-16399250D02*
X7573682Y-16399250D01*
X7573682Y-16399250D02*
X7554634Y-16408774D01*
X7554634Y-16408774D02*
X7545110Y-16418298D01*
X7754634Y-16532584D02*
X7735587Y-16523060D01*
X7735587Y-16523060D02*
X7726063Y-16513536D01*
X7726063Y-16513536D02*
X7716539Y-16494488D01*
X7716539Y-16494488D02*
X7716539Y-16437346D01*
X7716539Y-16437346D02*
X7726063Y-16418298D01*
X7726063Y-16418298D02*
X7735587Y-16408774D01*
X7735587Y-16408774D02*
X7754634Y-16399250D01*
X7754634Y-16399250D02*
X7783206Y-16399250D01*
X7783206Y-16399250D02*
X7802253Y-16408774D01*
X7802253Y-16408774D02*
X7811777Y-16418298D01*
X7811777Y-16418298D02*
X7821301Y-16437346D01*
X7821301Y-16437346D02*
X7821301Y-16494488D01*
X7821301Y-16494488D02*
X7811777Y-16513536D01*
X7811777Y-16513536D02*
X7802253Y-16523060D01*
X7802253Y-16523060D02*
X7783206Y-16532584D01*
X7783206Y-16532584D02*
X7754634Y-16532584D01*
X7935587Y-16532584D02*
X7916539Y-16523060D01*
X7916539Y-16523060D02*
X7907015Y-16504012D01*
X7907015Y-16504012D02*
X7907015Y-16332584D01*
X8087968Y-16523060D02*
X8068920Y-16532584D01*
X8068920Y-16532584D02*
X8030825Y-16532584D01*
X8030825Y-16532584D02*
X8011777Y-16523060D01*
X8011777Y-16523060D02*
X8002253Y-16504012D01*
X8002253Y-16504012D02*
X8002253Y-16427822D01*
X8002253Y-16427822D02*
X8011777Y-16408774D01*
X8011777Y-16408774D02*
X8030825Y-16399250D01*
X8030825Y-16399250D02*
X8068920Y-16399250D01*
X8068920Y-16399250D02*
X8087968Y-16408774D01*
X8087968Y-16408774D02*
X8097491Y-16427822D01*
X8097491Y-16427822D02*
X8097491Y-16446869D01*
X8097491Y-16446869D02*
X8002253Y-16465917D01*
X8164158Y-16608774D02*
X8173682Y-16599250D01*
X8173682Y-16599250D02*
X8192730Y-16570679D01*
X8192730Y-16570679D02*
X8202253Y-16551631D01*
X8202253Y-16551631D02*
X8211777Y-16523060D01*
X8211777Y-16523060D02*
X8221301Y-16475441D01*
X8221301Y-16475441D02*
X8221301Y-16437346D01*
X8221301Y-16437346D02*
X8211777Y-16389727D01*
X8211777Y-16389727D02*
X8202253Y-16361155D01*
X8202253Y-16361155D02*
X8192730Y-16342108D01*
X8192730Y-16342108D02*
X8173682Y-16313536D01*
X8173682Y-16313536D02*
X8164158Y-16304012D01*
D14*
X3511000Y-16665100D02*
X3511000Y-16745100D01*
X3471000Y-16705100D02*
X3551000Y-16705100D01*
D11*
X3849872Y-16596584D02*
X3868920Y-16596584D01*
X3868920Y-16596584D02*
X3887967Y-16606108D01*
X3887967Y-16606108D02*
X3897491Y-16615631D01*
X3897491Y-16615631D02*
X3907015Y-16634679D01*
X3907015Y-16634679D02*
X3916539Y-16672774D01*
X3916539Y-16672774D02*
X3916539Y-16720393D01*
X3916539Y-16720393D02*
X3907015Y-16758488D01*
X3907015Y-16758488D02*
X3897491Y-16777536D01*
X3897491Y-16777536D02*
X3887967Y-16787060D01*
X3887967Y-16787060D02*
X3868920Y-16796584D01*
X3868920Y-16796584D02*
X3849872Y-16796584D01*
X3849872Y-16796584D02*
X3830824Y-16787060D01*
X3830824Y-16787060D02*
X3821301Y-16777536D01*
X3821301Y-16777536D02*
X3811777Y-16758488D01*
X3811777Y-16758488D02*
X3802253Y-16720393D01*
X3802253Y-16720393D02*
X3802253Y-16672774D01*
X3802253Y-16672774D02*
X3811777Y-16634679D01*
X3811777Y-16634679D02*
X3821301Y-16615631D01*
X3821301Y-16615631D02*
X3830824Y-16606108D01*
X3830824Y-16606108D02*
X3849872Y-16596584D01*
X4002253Y-16777536D02*
X4011777Y-16787060D01*
X4011777Y-16787060D02*
X4002253Y-16796584D01*
X4002253Y-16796584D02*
X3992729Y-16787060D01*
X3992729Y-16787060D02*
X4002253Y-16777536D01*
X4002253Y-16777536D02*
X4002253Y-16796584D01*
X4126062Y-16682298D02*
X4107015Y-16672774D01*
X4107015Y-16672774D02*
X4097491Y-16663250D01*
X4097491Y-16663250D02*
X4087967Y-16644203D01*
X4087967Y-16644203D02*
X4087967Y-16634679D01*
X4087967Y-16634679D02*
X4097491Y-16615631D01*
X4097491Y-16615631D02*
X4107015Y-16606108D01*
X4107015Y-16606108D02*
X4126062Y-16596584D01*
X4126062Y-16596584D02*
X4164158Y-16596584D01*
X4164158Y-16596584D02*
X4183205Y-16606108D01*
X4183205Y-16606108D02*
X4192729Y-16615631D01*
X4192729Y-16615631D02*
X4202253Y-16634679D01*
X4202253Y-16634679D02*
X4202253Y-16644203D01*
X4202253Y-16644203D02*
X4192729Y-16663250D01*
X4192729Y-16663250D02*
X4183205Y-16672774D01*
X4183205Y-16672774D02*
X4164158Y-16682298D01*
X4164158Y-16682298D02*
X4126062Y-16682298D01*
X4126062Y-16682298D02*
X4107015Y-16691822D01*
X4107015Y-16691822D02*
X4097491Y-16701346D01*
X4097491Y-16701346D02*
X4087967Y-16720393D01*
X4087967Y-16720393D02*
X4087967Y-16758488D01*
X4087967Y-16758488D02*
X4097491Y-16777536D01*
X4097491Y-16777536D02*
X4107015Y-16787060D01*
X4107015Y-16787060D02*
X4126062Y-16796584D01*
X4126062Y-16796584D02*
X4164158Y-16796584D01*
X4164158Y-16796584D02*
X4183205Y-16787060D01*
X4183205Y-16787060D02*
X4192729Y-16777536D01*
X4192729Y-16777536D02*
X4202253Y-16758488D01*
X4202253Y-16758488D02*
X4202253Y-16720393D01*
X4202253Y-16720393D02*
X4192729Y-16701346D01*
X4192729Y-16701346D02*
X4183205Y-16691822D01*
X4183205Y-16691822D02*
X4164158Y-16682298D01*
X4326063Y-16596584D02*
X4345110Y-16596584D01*
X4345110Y-16596584D02*
X4364158Y-16606108D01*
X4364158Y-16606108D02*
X4373682Y-16615631D01*
X4373682Y-16615631D02*
X4383205Y-16634679D01*
X4383205Y-16634679D02*
X4392729Y-16672774D01*
X4392729Y-16672774D02*
X4392729Y-16720393D01*
X4392729Y-16720393D02*
X4383205Y-16758488D01*
X4383205Y-16758488D02*
X4373682Y-16777536D01*
X4373682Y-16777536D02*
X4364158Y-16787060D01*
X4364158Y-16787060D02*
X4345110Y-16796584D01*
X4345110Y-16796584D02*
X4326063Y-16796584D01*
X4326063Y-16796584D02*
X4307015Y-16787060D01*
X4307015Y-16787060D02*
X4297491Y-16777536D01*
X4297491Y-16777536D02*
X4287967Y-16758488D01*
X4287967Y-16758488D02*
X4278444Y-16720393D01*
X4278444Y-16720393D02*
X4278444Y-16672774D01*
X4278444Y-16672774D02*
X4287967Y-16634679D01*
X4287967Y-16634679D02*
X4297491Y-16615631D01*
X4297491Y-16615631D02*
X4307015Y-16606108D01*
X4307015Y-16606108D02*
X4326063Y-16596584D01*
X4516539Y-16596584D02*
X4535586Y-16596584D01*
X4535586Y-16596584D02*
X4554634Y-16606108D01*
X4554634Y-16606108D02*
X4564158Y-16615631D01*
X4564158Y-16615631D02*
X4573682Y-16634679D01*
X4573682Y-16634679D02*
X4583205Y-16672774D01*
X4583205Y-16672774D02*
X4583205Y-16720393D01*
X4583205Y-16720393D02*
X4573682Y-16758488D01*
X4573682Y-16758488D02*
X4564158Y-16777536D01*
X4564158Y-16777536D02*
X4554634Y-16787060D01*
X4554634Y-16787060D02*
X4535586Y-16796584D01*
X4535586Y-16796584D02*
X4516539Y-16796584D01*
X4516539Y-16796584D02*
X4497491Y-16787060D01*
X4497491Y-16787060D02*
X4487967Y-16777536D01*
X4487967Y-16777536D02*
X4478444Y-16758488D01*
X4478444Y-16758488D02*
X4468920Y-16720393D01*
X4468920Y-16720393D02*
X4468920Y-16672774D01*
X4468920Y-16672774D02*
X4478444Y-16634679D01*
X4478444Y-16634679D02*
X4487967Y-16615631D01*
X4487967Y-16615631D02*
X4497491Y-16606108D01*
X4497491Y-16606108D02*
X4516539Y-16596584D01*
X4668920Y-16796584D02*
X4668920Y-16663250D01*
X4668920Y-16682298D02*
X4678444Y-16672774D01*
X4678444Y-16672774D02*
X4697491Y-16663250D01*
X4697491Y-16663250D02*
X4726063Y-16663250D01*
X4726063Y-16663250D02*
X4745110Y-16672774D01*
X4745110Y-16672774D02*
X4754634Y-16691822D01*
X4754634Y-16691822D02*
X4754634Y-16796584D01*
X4754634Y-16691822D02*
X4764158Y-16672774D01*
X4764158Y-16672774D02*
X4783205Y-16663250D01*
X4783205Y-16663250D02*
X4811777Y-16663250D01*
X4811777Y-16663250D02*
X4830825Y-16672774D01*
X4830825Y-16672774D02*
X4840348Y-16691822D01*
X4840348Y-16691822D02*
X4840348Y-16796584D01*
X4935586Y-16796584D02*
X4935586Y-16663250D01*
X4935586Y-16682298D02*
X4945110Y-16672774D01*
X4945110Y-16672774D02*
X4964158Y-16663250D01*
X4964158Y-16663250D02*
X4992729Y-16663250D01*
X4992729Y-16663250D02*
X5011777Y-16672774D01*
X5011777Y-16672774D02*
X5021301Y-16691822D01*
X5021301Y-16691822D02*
X5021301Y-16796584D01*
X5021301Y-16691822D02*
X5030825Y-16672774D01*
X5030825Y-16672774D02*
X5049872Y-16663250D01*
X5049872Y-16663250D02*
X5078444Y-16663250D01*
X5078444Y-16663250D02*
X5097491Y-16672774D01*
X5097491Y-16672774D02*
X5107015Y-16691822D01*
X5107015Y-16691822D02*
X5107015Y-16796584D01*
X5497491Y-16587060D02*
X5326063Y-16844203D01*
X5754634Y-16596584D02*
X5773682Y-16596584D01*
X5773682Y-16596584D02*
X5792729Y-16606108D01*
X5792729Y-16606108D02*
X5802253Y-16615631D01*
X5802253Y-16615631D02*
X5811777Y-16634679D01*
X5811777Y-16634679D02*
X5821301Y-16672774D01*
X5821301Y-16672774D02*
X5821301Y-16720393D01*
X5821301Y-16720393D02*
X5811777Y-16758488D01*
X5811777Y-16758488D02*
X5802253Y-16777536D01*
X5802253Y-16777536D02*
X5792729Y-16787060D01*
X5792729Y-16787060D02*
X5773682Y-16796584D01*
X5773682Y-16796584D02*
X5754634Y-16796584D01*
X5754634Y-16796584D02*
X5735586Y-16787060D01*
X5735586Y-16787060D02*
X5726063Y-16777536D01*
X5726063Y-16777536D02*
X5716539Y-16758488D01*
X5716539Y-16758488D02*
X5707015Y-16720393D01*
X5707015Y-16720393D02*
X5707015Y-16672774D01*
X5707015Y-16672774D02*
X5716539Y-16634679D01*
X5716539Y-16634679D02*
X5726063Y-16615631D01*
X5726063Y-16615631D02*
X5735586Y-16606108D01*
X5735586Y-16606108D02*
X5754634Y-16596584D01*
X5907015Y-16777536D02*
X5916539Y-16787060D01*
X5916539Y-16787060D02*
X5907015Y-16796584D01*
X5907015Y-16796584D02*
X5897491Y-16787060D01*
X5897491Y-16787060D02*
X5907015Y-16777536D01*
X5907015Y-16777536D02*
X5907015Y-16796584D01*
X6040348Y-16596584D02*
X6059396Y-16596584D01*
X6059396Y-16596584D02*
X6078444Y-16606108D01*
X6078444Y-16606108D02*
X6087967Y-16615631D01*
X6087967Y-16615631D02*
X6097491Y-16634679D01*
X6097491Y-16634679D02*
X6107015Y-16672774D01*
X6107015Y-16672774D02*
X6107015Y-16720393D01*
X6107015Y-16720393D02*
X6097491Y-16758488D01*
X6097491Y-16758488D02*
X6087967Y-16777536D01*
X6087967Y-16777536D02*
X6078444Y-16787060D01*
X6078444Y-16787060D02*
X6059396Y-16796584D01*
X6059396Y-16796584D02*
X6040348Y-16796584D01*
X6040348Y-16796584D02*
X6021301Y-16787060D01*
X6021301Y-16787060D02*
X6011777Y-16777536D01*
X6011777Y-16777536D02*
X6002253Y-16758488D01*
X6002253Y-16758488D02*
X5992729Y-16720393D01*
X5992729Y-16720393D02*
X5992729Y-16672774D01*
X5992729Y-16672774D02*
X6002253Y-16634679D01*
X6002253Y-16634679D02*
X6011777Y-16615631D01*
X6011777Y-16615631D02*
X6021301Y-16606108D01*
X6021301Y-16606108D02*
X6040348Y-16596584D01*
X6173682Y-16596584D02*
X6297491Y-16596584D01*
X6297491Y-16596584D02*
X6230825Y-16672774D01*
X6230825Y-16672774D02*
X6259396Y-16672774D01*
X6259396Y-16672774D02*
X6278444Y-16682298D01*
X6278444Y-16682298D02*
X6287967Y-16691822D01*
X6287967Y-16691822D02*
X6297491Y-16710869D01*
X6297491Y-16710869D02*
X6297491Y-16758488D01*
X6297491Y-16758488D02*
X6287967Y-16777536D01*
X6287967Y-16777536D02*
X6278444Y-16787060D01*
X6278444Y-16787060D02*
X6259396Y-16796584D01*
X6259396Y-16796584D02*
X6202253Y-16796584D01*
X6202253Y-16796584D02*
X6183206Y-16787060D01*
X6183206Y-16787060D02*
X6173682Y-16777536D01*
X6487967Y-16796584D02*
X6373682Y-16796584D01*
X6430825Y-16796584D02*
X6430825Y-16596584D01*
X6430825Y-16596584D02*
X6411777Y-16625155D01*
X6411777Y-16625155D02*
X6392729Y-16644203D01*
X6392729Y-16644203D02*
X6373682Y-16653727D01*
X6668920Y-16596584D02*
X6573682Y-16596584D01*
X6573682Y-16596584D02*
X6564158Y-16691822D01*
X6564158Y-16691822D02*
X6573682Y-16682298D01*
X6573682Y-16682298D02*
X6592729Y-16672774D01*
X6592729Y-16672774D02*
X6640348Y-16672774D01*
X6640348Y-16672774D02*
X6659396Y-16682298D01*
X6659396Y-16682298D02*
X6668920Y-16691822D01*
X6668920Y-16691822D02*
X6678444Y-16710869D01*
X6678444Y-16710869D02*
X6678444Y-16758488D01*
X6678444Y-16758488D02*
X6668920Y-16777536D01*
X6668920Y-16777536D02*
X6659396Y-16787060D01*
X6659396Y-16787060D02*
X6640348Y-16796584D01*
X6640348Y-16796584D02*
X6592729Y-16796584D01*
X6592729Y-16796584D02*
X6573682Y-16787060D01*
X6573682Y-16787060D02*
X6564158Y-16777536D01*
X6754634Y-16596584D02*
X6754634Y-16634679D01*
X6830825Y-16596584D02*
X6830825Y-16634679D01*
X7126063Y-16872774D02*
X7116539Y-16863250D01*
X7116539Y-16863250D02*
X7097491Y-16834679D01*
X7097491Y-16834679D02*
X7087968Y-16815631D01*
X7087968Y-16815631D02*
X7078444Y-16787060D01*
X7078444Y-16787060D02*
X7068920Y-16739441D01*
X7068920Y-16739441D02*
X7068920Y-16701346D01*
X7068920Y-16701346D02*
X7078444Y-16653727D01*
X7078444Y-16653727D02*
X7087968Y-16625155D01*
X7087968Y-16625155D02*
X7097491Y-16606108D01*
X7097491Y-16606108D02*
X7116539Y-16577536D01*
X7116539Y-16577536D02*
X7126063Y-16568012D01*
X7297491Y-16596584D02*
X7202253Y-16596584D01*
X7202253Y-16596584D02*
X7192729Y-16691822D01*
X7192729Y-16691822D02*
X7202253Y-16682298D01*
X7202253Y-16682298D02*
X7221301Y-16672774D01*
X7221301Y-16672774D02*
X7268920Y-16672774D01*
X7268920Y-16672774D02*
X7287968Y-16682298D01*
X7287968Y-16682298D02*
X7297491Y-16691822D01*
X7297491Y-16691822D02*
X7307015Y-16710869D01*
X7307015Y-16710869D02*
X7307015Y-16758488D01*
X7307015Y-16758488D02*
X7297491Y-16777536D01*
X7297491Y-16777536D02*
X7287968Y-16787060D01*
X7287968Y-16787060D02*
X7268920Y-16796584D01*
X7268920Y-16796584D02*
X7221301Y-16796584D01*
X7221301Y-16796584D02*
X7202253Y-16787060D01*
X7202253Y-16787060D02*
X7192729Y-16777536D01*
X7383206Y-16615631D02*
X7392729Y-16606108D01*
X7392729Y-16606108D02*
X7411777Y-16596584D01*
X7411777Y-16596584D02*
X7459396Y-16596584D01*
X7459396Y-16596584D02*
X7478444Y-16606108D01*
X7478444Y-16606108D02*
X7487968Y-16615631D01*
X7487968Y-16615631D02*
X7497491Y-16634679D01*
X7497491Y-16634679D02*
X7497491Y-16653727D01*
X7497491Y-16653727D02*
X7487968Y-16682298D01*
X7487968Y-16682298D02*
X7373682Y-16796584D01*
X7373682Y-16796584D02*
X7497491Y-16796584D01*
X7573682Y-16615631D02*
X7583206Y-16606108D01*
X7583206Y-16606108D02*
X7602253Y-16596584D01*
X7602253Y-16596584D02*
X7649872Y-16596584D01*
X7649872Y-16596584D02*
X7668920Y-16606108D01*
X7668920Y-16606108D02*
X7678444Y-16615631D01*
X7678444Y-16615631D02*
X7687968Y-16634679D01*
X7687968Y-16634679D02*
X7687968Y-16653727D01*
X7687968Y-16653727D02*
X7678444Y-16682298D01*
X7678444Y-16682298D02*
X7564158Y-16796584D01*
X7564158Y-16796584D02*
X7687968Y-16796584D01*
X7926063Y-16796584D02*
X7926063Y-16596584D01*
X8011777Y-16796584D02*
X8011777Y-16691822D01*
X8011777Y-16691822D02*
X8002253Y-16672774D01*
X8002253Y-16672774D02*
X7983206Y-16663250D01*
X7983206Y-16663250D02*
X7954634Y-16663250D01*
X7954634Y-16663250D02*
X7935587Y-16672774D01*
X7935587Y-16672774D02*
X7926063Y-16682298D01*
X8135587Y-16796584D02*
X8116539Y-16787060D01*
X8116539Y-16787060D02*
X8107015Y-16777536D01*
X8107015Y-16777536D02*
X8097491Y-16758488D01*
X8097491Y-16758488D02*
X8097491Y-16701346D01*
X8097491Y-16701346D02*
X8107015Y-16682298D01*
X8107015Y-16682298D02*
X8116539Y-16672774D01*
X8116539Y-16672774D02*
X8135587Y-16663250D01*
X8135587Y-16663250D02*
X8164158Y-16663250D01*
X8164158Y-16663250D02*
X8183206Y-16672774D01*
X8183206Y-16672774D02*
X8192730Y-16682298D01*
X8192730Y-16682298D02*
X8202253Y-16701346D01*
X8202253Y-16701346D02*
X8202253Y-16758488D01*
X8202253Y-16758488D02*
X8192730Y-16777536D01*
X8192730Y-16777536D02*
X8183206Y-16787060D01*
X8183206Y-16787060D02*
X8164158Y-16796584D01*
X8164158Y-16796584D02*
X8135587Y-16796584D01*
X8316539Y-16796584D02*
X8297491Y-16787060D01*
X8297491Y-16787060D02*
X8287968Y-16768012D01*
X8287968Y-16768012D02*
X8287968Y-16596584D01*
X8468920Y-16787060D02*
X8449873Y-16796584D01*
X8449873Y-16796584D02*
X8411777Y-16796584D01*
X8411777Y-16796584D02*
X8392730Y-16787060D01*
X8392730Y-16787060D02*
X8383206Y-16768012D01*
X8383206Y-16768012D02*
X8383206Y-16691822D01*
X8383206Y-16691822D02*
X8392730Y-16672774D01*
X8392730Y-16672774D02*
X8411777Y-16663250D01*
X8411777Y-16663250D02*
X8449873Y-16663250D01*
X8449873Y-16663250D02*
X8468920Y-16672774D01*
X8468920Y-16672774D02*
X8478444Y-16691822D01*
X8478444Y-16691822D02*
X8478444Y-16710869D01*
X8478444Y-16710869D02*
X8383206Y-16729917D01*
X8554634Y-16787060D02*
X8573682Y-16796584D01*
X8573682Y-16796584D02*
X8611777Y-16796584D01*
X8611777Y-16796584D02*
X8630825Y-16787060D01*
X8630825Y-16787060D02*
X8640349Y-16768012D01*
X8640349Y-16768012D02*
X8640349Y-16758488D01*
X8640349Y-16758488D02*
X8630825Y-16739441D01*
X8630825Y-16739441D02*
X8611777Y-16729917D01*
X8611777Y-16729917D02*
X8583206Y-16729917D01*
X8583206Y-16729917D02*
X8564158Y-16720393D01*
X8564158Y-16720393D02*
X8554634Y-16701346D01*
X8554634Y-16701346D02*
X8554634Y-16691822D01*
X8554634Y-16691822D02*
X8564158Y-16672774D01*
X8564158Y-16672774D02*
X8583206Y-16663250D01*
X8583206Y-16663250D02*
X8611777Y-16663250D01*
X8611777Y-16663250D02*
X8630825Y-16672774D01*
X8707015Y-16872774D02*
X8716539Y-16863250D01*
X8716539Y-16863250D02*
X8735587Y-16834679D01*
X8735587Y-16834679D02*
X8745111Y-16815631D01*
X8745111Y-16815631D02*
X8754634Y-16787060D01*
X8754634Y-16787060D02*
X8764158Y-16739441D01*
X8764158Y-16739441D02*
X8764158Y-16701346D01*
X8764158Y-16701346D02*
X8754634Y-16653727D01*
X8754634Y-16653727D02*
X8745111Y-16625155D01*
X8745111Y-16625155D02*
X8735587Y-16606108D01*
X8735587Y-16606108D02*
X8716539Y-16577536D01*
X8716539Y-16577536D02*
X8707015Y-16568012D01*
D10*
X3536356Y-17004456D02*
X3536356Y-16933744D01*
X3465644Y-16933744D01*
X3465644Y-17004456D01*
X3536356Y-17004456D01*
D11*
X3916539Y-17060584D02*
X3802253Y-17060584D01*
X3859396Y-17060584D02*
X3859396Y-16860584D01*
X3859396Y-16860584D02*
X3840348Y-16889155D01*
X3840348Y-16889155D02*
X3821301Y-16908203D01*
X3821301Y-16908203D02*
X3802253Y-16917727D01*
X4002253Y-17041536D02*
X4011777Y-17051060D01*
X4011777Y-17051060D02*
X4002253Y-17060584D01*
X4002253Y-17060584D02*
X3992729Y-17051060D01*
X3992729Y-17051060D02*
X4002253Y-17041536D01*
X4002253Y-17041536D02*
X4002253Y-17060584D01*
X4135586Y-16860584D02*
X4154634Y-16860584D01*
X4154634Y-16860584D02*
X4173682Y-16870108D01*
X4173682Y-16870108D02*
X4183205Y-16879631D01*
X4183205Y-16879631D02*
X4192729Y-16898679D01*
X4192729Y-16898679D02*
X4202253Y-16936774D01*
X4202253Y-16936774D02*
X4202253Y-16984393D01*
X4202253Y-16984393D02*
X4192729Y-17022489D01*
X4192729Y-17022489D02*
X4183205Y-17041536D01*
X4183205Y-17041536D02*
X4173682Y-17051060D01*
X4173682Y-17051060D02*
X4154634Y-17060584D01*
X4154634Y-17060584D02*
X4135586Y-17060584D01*
X4135586Y-17060584D02*
X4116539Y-17051060D01*
X4116539Y-17051060D02*
X4107015Y-17041536D01*
X4107015Y-17041536D02*
X4097491Y-17022489D01*
X4097491Y-17022489D02*
X4087967Y-16984393D01*
X4087967Y-16984393D02*
X4087967Y-16936774D01*
X4087967Y-16936774D02*
X4097491Y-16898679D01*
X4097491Y-16898679D02*
X4107015Y-16879631D01*
X4107015Y-16879631D02*
X4116539Y-16870108D01*
X4116539Y-16870108D02*
X4135586Y-16860584D01*
X4326063Y-16860584D02*
X4345110Y-16860584D01*
X4345110Y-16860584D02*
X4364158Y-16870108D01*
X4364158Y-16870108D02*
X4373682Y-16879631D01*
X4373682Y-16879631D02*
X4383205Y-16898679D01*
X4383205Y-16898679D02*
X4392729Y-16936774D01*
X4392729Y-16936774D02*
X4392729Y-16984393D01*
X4392729Y-16984393D02*
X4383205Y-17022489D01*
X4383205Y-17022489D02*
X4373682Y-17041536D01*
X4373682Y-17041536D02*
X4364158Y-17051060D01*
X4364158Y-17051060D02*
X4345110Y-17060584D01*
X4345110Y-17060584D02*
X4326063Y-17060584D01*
X4326063Y-17060584D02*
X4307015Y-17051060D01*
X4307015Y-17051060D02*
X4297491Y-17041536D01*
X4297491Y-17041536D02*
X4287967Y-17022489D01*
X4287967Y-17022489D02*
X4278444Y-16984393D01*
X4278444Y-16984393D02*
X4278444Y-16936774D01*
X4278444Y-16936774D02*
X4287967Y-16898679D01*
X4287967Y-16898679D02*
X4297491Y-16879631D01*
X4297491Y-16879631D02*
X4307015Y-16870108D01*
X4307015Y-16870108D02*
X4326063Y-16860584D01*
X4516539Y-16860584D02*
X4535586Y-16860584D01*
X4535586Y-16860584D02*
X4554634Y-16870108D01*
X4554634Y-16870108D02*
X4564158Y-16879631D01*
X4564158Y-16879631D02*
X4573682Y-16898679D01*
X4573682Y-16898679D02*
X4583205Y-16936774D01*
X4583205Y-16936774D02*
X4583205Y-16984393D01*
X4583205Y-16984393D02*
X4573682Y-17022489D01*
X4573682Y-17022489D02*
X4564158Y-17041536D01*
X4564158Y-17041536D02*
X4554634Y-17051060D01*
X4554634Y-17051060D02*
X4535586Y-17060584D01*
X4535586Y-17060584D02*
X4516539Y-17060584D01*
X4516539Y-17060584D02*
X4497491Y-17051060D01*
X4497491Y-17051060D02*
X4487967Y-17041536D01*
X4487967Y-17041536D02*
X4478444Y-17022489D01*
X4478444Y-17022489D02*
X4468920Y-16984393D01*
X4468920Y-16984393D02*
X4468920Y-16936774D01*
X4468920Y-16936774D02*
X4478444Y-16898679D01*
X4478444Y-16898679D02*
X4487967Y-16879631D01*
X4487967Y-16879631D02*
X4497491Y-16870108D01*
X4497491Y-16870108D02*
X4516539Y-16860584D01*
X4668920Y-17060584D02*
X4668920Y-16927250D01*
X4668920Y-16946298D02*
X4678444Y-16936774D01*
X4678444Y-16936774D02*
X4697491Y-16927250D01*
X4697491Y-16927250D02*
X4726063Y-16927250D01*
X4726063Y-16927250D02*
X4745110Y-16936774D01*
X4745110Y-16936774D02*
X4754634Y-16955822D01*
X4754634Y-16955822D02*
X4754634Y-17060584D01*
X4754634Y-16955822D02*
X4764158Y-16936774D01*
X4764158Y-16936774D02*
X4783205Y-16927250D01*
X4783205Y-16927250D02*
X4811777Y-16927250D01*
X4811777Y-16927250D02*
X4830825Y-16936774D01*
X4830825Y-16936774D02*
X4840348Y-16955822D01*
X4840348Y-16955822D02*
X4840348Y-17060584D01*
X4935586Y-17060584D02*
X4935586Y-16927250D01*
X4935586Y-16946298D02*
X4945110Y-16936774D01*
X4945110Y-16936774D02*
X4964158Y-16927250D01*
X4964158Y-16927250D02*
X4992729Y-16927250D01*
X4992729Y-16927250D02*
X5011777Y-16936774D01*
X5011777Y-16936774D02*
X5021301Y-16955822D01*
X5021301Y-16955822D02*
X5021301Y-17060584D01*
X5021301Y-16955822D02*
X5030825Y-16936774D01*
X5030825Y-16936774D02*
X5049872Y-16927250D01*
X5049872Y-16927250D02*
X5078444Y-16927250D01*
X5078444Y-16927250D02*
X5097491Y-16936774D01*
X5097491Y-16936774D02*
X5107015Y-16955822D01*
X5107015Y-16955822D02*
X5107015Y-17060584D01*
X5497491Y-16851060D02*
X5326063Y-17108203D01*
X5754634Y-16860584D02*
X5773682Y-16860584D01*
X5773682Y-16860584D02*
X5792729Y-16870108D01*
X5792729Y-16870108D02*
X5802253Y-16879631D01*
X5802253Y-16879631D02*
X5811777Y-16898679D01*
X5811777Y-16898679D02*
X5821301Y-16936774D01*
X5821301Y-16936774D02*
X5821301Y-16984393D01*
X5821301Y-16984393D02*
X5811777Y-17022489D01*
X5811777Y-17022489D02*
X5802253Y-17041536D01*
X5802253Y-17041536D02*
X5792729Y-17051060D01*
X5792729Y-17051060D02*
X5773682Y-17060584D01*
X5773682Y-17060584D02*
X5754634Y-17060584D01*
X5754634Y-17060584D02*
X5735586Y-17051060D01*
X5735586Y-17051060D02*
X5726063Y-17041536D01*
X5726063Y-17041536D02*
X5716539Y-17022489D01*
X5716539Y-17022489D02*
X5707015Y-16984393D01*
X5707015Y-16984393D02*
X5707015Y-16936774D01*
X5707015Y-16936774D02*
X5716539Y-16898679D01*
X5716539Y-16898679D02*
X5726063Y-16879631D01*
X5726063Y-16879631D02*
X5735586Y-16870108D01*
X5735586Y-16870108D02*
X5754634Y-16860584D01*
X5907015Y-17041536D02*
X5916539Y-17051060D01*
X5916539Y-17051060D02*
X5907015Y-17060584D01*
X5907015Y-17060584D02*
X5897491Y-17051060D01*
X5897491Y-17051060D02*
X5907015Y-17041536D01*
X5907015Y-17041536D02*
X5907015Y-17060584D01*
X6040348Y-16860584D02*
X6059396Y-16860584D01*
X6059396Y-16860584D02*
X6078444Y-16870108D01*
X6078444Y-16870108D02*
X6087967Y-16879631D01*
X6087967Y-16879631D02*
X6097491Y-16898679D01*
X6097491Y-16898679D02*
X6107015Y-16936774D01*
X6107015Y-16936774D02*
X6107015Y-16984393D01*
X6107015Y-16984393D02*
X6097491Y-17022489D01*
X6097491Y-17022489D02*
X6087967Y-17041536D01*
X6087967Y-17041536D02*
X6078444Y-17051060D01*
X6078444Y-17051060D02*
X6059396Y-17060584D01*
X6059396Y-17060584D02*
X6040348Y-17060584D01*
X6040348Y-17060584D02*
X6021301Y-17051060D01*
X6021301Y-17051060D02*
X6011777Y-17041536D01*
X6011777Y-17041536D02*
X6002253Y-17022489D01*
X6002253Y-17022489D02*
X5992729Y-16984393D01*
X5992729Y-16984393D02*
X5992729Y-16936774D01*
X5992729Y-16936774D02*
X6002253Y-16898679D01*
X6002253Y-16898679D02*
X6011777Y-16879631D01*
X6011777Y-16879631D02*
X6021301Y-16870108D01*
X6021301Y-16870108D02*
X6040348Y-16860584D01*
X6173682Y-16860584D02*
X6297491Y-16860584D01*
X6297491Y-16860584D02*
X6230825Y-16936774D01*
X6230825Y-16936774D02*
X6259396Y-16936774D01*
X6259396Y-16936774D02*
X6278444Y-16946298D01*
X6278444Y-16946298D02*
X6287967Y-16955822D01*
X6287967Y-16955822D02*
X6297491Y-16974870D01*
X6297491Y-16974870D02*
X6297491Y-17022489D01*
X6297491Y-17022489D02*
X6287967Y-17041536D01*
X6287967Y-17041536D02*
X6278444Y-17051060D01*
X6278444Y-17051060D02*
X6259396Y-17060584D01*
X6259396Y-17060584D02*
X6202253Y-17060584D01*
X6202253Y-17060584D02*
X6183206Y-17051060D01*
X6183206Y-17051060D02*
X6173682Y-17041536D01*
X6392729Y-17060584D02*
X6430825Y-17060584D01*
X6430825Y-17060584D02*
X6449872Y-17051060D01*
X6449872Y-17051060D02*
X6459396Y-17041536D01*
X6459396Y-17041536D02*
X6478444Y-17012965D01*
X6478444Y-17012965D02*
X6487967Y-16974870D01*
X6487967Y-16974870D02*
X6487967Y-16898679D01*
X6487967Y-16898679D02*
X6478444Y-16879631D01*
X6478444Y-16879631D02*
X6468920Y-16870108D01*
X6468920Y-16870108D02*
X6449872Y-16860584D01*
X6449872Y-16860584D02*
X6411777Y-16860584D01*
X6411777Y-16860584D02*
X6392729Y-16870108D01*
X6392729Y-16870108D02*
X6383206Y-16879631D01*
X6383206Y-16879631D02*
X6373682Y-16898679D01*
X6373682Y-16898679D02*
X6373682Y-16946298D01*
X6373682Y-16946298D02*
X6383206Y-16965346D01*
X6383206Y-16965346D02*
X6392729Y-16974870D01*
X6392729Y-16974870D02*
X6411777Y-16984393D01*
X6411777Y-16984393D02*
X6449872Y-16984393D01*
X6449872Y-16984393D02*
X6468920Y-16974870D01*
X6468920Y-16974870D02*
X6478444Y-16965346D01*
X6478444Y-16965346D02*
X6487967Y-16946298D01*
X6659396Y-16927250D02*
X6659396Y-17060584D01*
X6611777Y-16851060D02*
X6564158Y-16993917D01*
X6564158Y-16993917D02*
X6687967Y-16993917D01*
X6754634Y-16860584D02*
X6754634Y-16898679D01*
X6830825Y-16860584D02*
X6830825Y-16898679D01*
X7126063Y-17136774D02*
X7116539Y-17127250D01*
X7116539Y-17127250D02*
X7097491Y-17098679D01*
X7097491Y-17098679D02*
X7087968Y-17079631D01*
X7087968Y-17079631D02*
X7078444Y-17051060D01*
X7078444Y-17051060D02*
X7068920Y-17003441D01*
X7068920Y-17003441D02*
X7068920Y-16965346D01*
X7068920Y-16965346D02*
X7078444Y-16917727D01*
X7078444Y-16917727D02*
X7087968Y-16889155D01*
X7087968Y-16889155D02*
X7097491Y-16870108D01*
X7097491Y-16870108D02*
X7116539Y-16841536D01*
X7116539Y-16841536D02*
X7126063Y-16832012D01*
X7307015Y-17060584D02*
X7192729Y-17060584D01*
X7249872Y-17060584D02*
X7249872Y-16860584D01*
X7249872Y-16860584D02*
X7230825Y-16889155D01*
X7230825Y-16889155D02*
X7211777Y-16908203D01*
X7211777Y-16908203D02*
X7192729Y-16917727D01*
X7383206Y-16879631D02*
X7392729Y-16870108D01*
X7392729Y-16870108D02*
X7411777Y-16860584D01*
X7411777Y-16860584D02*
X7459396Y-16860584D01*
X7459396Y-16860584D02*
X7478444Y-16870108D01*
X7478444Y-16870108D02*
X7487968Y-16879631D01*
X7487968Y-16879631D02*
X7497491Y-16898679D01*
X7497491Y-16898679D02*
X7497491Y-16917727D01*
X7497491Y-16917727D02*
X7487968Y-16946298D01*
X7487968Y-16946298D02*
X7373682Y-17060584D01*
X7373682Y-17060584D02*
X7497491Y-17060584D01*
X7611777Y-16946298D02*
X7592729Y-16936774D01*
X7592729Y-16936774D02*
X7583206Y-16927250D01*
X7583206Y-16927250D02*
X7573682Y-16908203D01*
X7573682Y-16908203D02*
X7573682Y-16898679D01*
X7573682Y-16898679D02*
X7583206Y-16879631D01*
X7583206Y-16879631D02*
X7592729Y-16870108D01*
X7592729Y-16870108D02*
X7611777Y-16860584D01*
X7611777Y-16860584D02*
X7649872Y-16860584D01*
X7649872Y-16860584D02*
X7668920Y-16870108D01*
X7668920Y-16870108D02*
X7678444Y-16879631D01*
X7678444Y-16879631D02*
X7687968Y-16898679D01*
X7687968Y-16898679D02*
X7687968Y-16908203D01*
X7687968Y-16908203D02*
X7678444Y-16927250D01*
X7678444Y-16927250D02*
X7668920Y-16936774D01*
X7668920Y-16936774D02*
X7649872Y-16946298D01*
X7649872Y-16946298D02*
X7611777Y-16946298D01*
X7611777Y-16946298D02*
X7592729Y-16955822D01*
X7592729Y-16955822D02*
X7583206Y-16965346D01*
X7583206Y-16965346D02*
X7573682Y-16984393D01*
X7573682Y-16984393D02*
X7573682Y-17022489D01*
X7573682Y-17022489D02*
X7583206Y-17041536D01*
X7583206Y-17041536D02*
X7592729Y-17051060D01*
X7592729Y-17051060D02*
X7611777Y-17060584D01*
X7611777Y-17060584D02*
X7649872Y-17060584D01*
X7649872Y-17060584D02*
X7668920Y-17051060D01*
X7668920Y-17051060D02*
X7678444Y-17041536D01*
X7678444Y-17041536D02*
X7687968Y-17022489D01*
X7687968Y-17022489D02*
X7687968Y-16984393D01*
X7687968Y-16984393D02*
X7678444Y-16965346D01*
X7678444Y-16965346D02*
X7668920Y-16955822D01*
X7668920Y-16955822D02*
X7649872Y-16946298D01*
X7926063Y-17060584D02*
X7926063Y-16860584D01*
X8011777Y-17060584D02*
X8011777Y-16955822D01*
X8011777Y-16955822D02*
X8002253Y-16936774D01*
X8002253Y-16936774D02*
X7983206Y-16927250D01*
X7983206Y-16927250D02*
X7954634Y-16927250D01*
X7954634Y-16927250D02*
X7935587Y-16936774D01*
X7935587Y-16936774D02*
X7926063Y-16946298D01*
X8135587Y-17060584D02*
X8116539Y-17051060D01*
X8116539Y-17051060D02*
X8107015Y-17041536D01*
X8107015Y-17041536D02*
X8097491Y-17022489D01*
X8097491Y-17022489D02*
X8097491Y-16965346D01*
X8097491Y-16965346D02*
X8107015Y-16946298D01*
X8107015Y-16946298D02*
X8116539Y-16936774D01*
X8116539Y-16936774D02*
X8135587Y-16927250D01*
X8135587Y-16927250D02*
X8164158Y-16927250D01*
X8164158Y-16927250D02*
X8183206Y-16936774D01*
X8183206Y-16936774D02*
X8192730Y-16946298D01*
X8192730Y-16946298D02*
X8202253Y-16965346D01*
X8202253Y-16965346D02*
X8202253Y-17022489D01*
X8202253Y-17022489D02*
X8192730Y-17041536D01*
X8192730Y-17041536D02*
X8183206Y-17051060D01*
X8183206Y-17051060D02*
X8164158Y-17060584D01*
X8164158Y-17060584D02*
X8135587Y-17060584D01*
X8316539Y-17060584D02*
X8297491Y-17051060D01*
X8297491Y-17051060D02*
X8287968Y-17032012D01*
X8287968Y-17032012D02*
X8287968Y-16860584D01*
X8468920Y-17051060D02*
X8449873Y-17060584D01*
X8449873Y-17060584D02*
X8411777Y-17060584D01*
X8411777Y-17060584D02*
X8392730Y-17051060D01*
X8392730Y-17051060D02*
X8383206Y-17032012D01*
X8383206Y-17032012D02*
X8383206Y-16955822D01*
X8383206Y-16955822D02*
X8392730Y-16936774D01*
X8392730Y-16936774D02*
X8411777Y-16927250D01*
X8411777Y-16927250D02*
X8449873Y-16927250D01*
X8449873Y-16927250D02*
X8468920Y-16936774D01*
X8468920Y-16936774D02*
X8478444Y-16955822D01*
X8478444Y-16955822D02*
X8478444Y-16974870D01*
X8478444Y-16974870D02*
X8383206Y-16993917D01*
X8554634Y-17051060D02*
X8573682Y-17060584D01*
X8573682Y-17060584D02*
X8611777Y-17060584D01*
X8611777Y-17060584D02*
X8630825Y-17051060D01*
X8630825Y-17051060D02*
X8640349Y-17032012D01*
X8640349Y-17032012D02*
X8640349Y-17022489D01*
X8640349Y-17022489D02*
X8630825Y-17003441D01*
X8630825Y-17003441D02*
X8611777Y-16993917D01*
X8611777Y-16993917D02*
X8583206Y-16993917D01*
X8583206Y-16993917D02*
X8564158Y-16984393D01*
X8564158Y-16984393D02*
X8554634Y-16965346D01*
X8554634Y-16965346D02*
X8554634Y-16955822D01*
X8554634Y-16955822D02*
X8564158Y-16936774D01*
X8564158Y-16936774D02*
X8583206Y-16927250D01*
X8583206Y-16927250D02*
X8611777Y-16927250D01*
X8611777Y-16927250D02*
X8630825Y-16936774D01*
X8707015Y-17136774D02*
X8716539Y-17127250D01*
X8716539Y-17127250D02*
X8735587Y-17098679D01*
X8735587Y-17098679D02*
X8745111Y-17079631D01*
X8745111Y-17079631D02*
X8754634Y-17051060D01*
X8754634Y-17051060D02*
X8764158Y-17003441D01*
X8764158Y-17003441D02*
X8764158Y-16965346D01*
X8764158Y-16965346D02*
X8754634Y-16917727D01*
X8754634Y-16917727D02*
X8745111Y-16889155D01*
X8745111Y-16889155D02*
X8735587Y-16870108D01*
X8735587Y-16870108D02*
X8716539Y-16841536D01*
X8716539Y-16841536D02*
X8707015Y-16832012D01*
M02*
