%TF.GenerationSoftware,KiCad,Pcbnew,7.0.7*%
%TF.CreationDate,2026-08-18T22:11:50-05:00*%
%TF.ProjectId,Registers,52656769-7374-4657-9273-2e6b69636164,rev?*%
%TF.SameCoordinates,Original*%
%TF.FileFunction,Legend,Top*%
%TF.FilePolarity,Positive*%
%FSLAX46Y46*%
G04 Gerber Fmt 4.6, Leading zero omitted, Abs format (unit mm)*
G04 Created by KiCad (PCBNEW 7.0.7) date 2026-08-18 22:11:50*
%MOMM*%
%LPD*%
G01*
G04 APERTURE LIST*
%ADD10C,0.400000*%
%ADD11C,0.150000*%
%ADD12C,0.120000*%
G04 APERTURE END LIST*
D10*
X38077204Y-20689438D02*
X37410537Y-19737057D01*
X36934347Y-20689438D02*
X36934347Y-18689438D01*
X36934347Y-18689438D02*
X37696252Y-18689438D01*
X37696252Y-18689438D02*
X37886728Y-18784676D01*
X37886728Y-18784676D02*
X37981966Y-18879914D01*
X37981966Y-18879914D02*
X38077204Y-19070390D01*
X38077204Y-19070390D02*
X38077204Y-19356104D01*
X38077204Y-19356104D02*
X37981966Y-19546580D01*
X37981966Y-19546580D02*
X37886728Y-19641819D01*
X37886728Y-19641819D02*
X37696252Y-19737057D01*
X37696252Y-19737057D02*
X36934347Y-19737057D01*
X38934347Y-20689438D02*
X38934347Y-18689438D01*
X38934347Y-18689438D02*
X39410537Y-18689438D01*
X39410537Y-18689438D02*
X39696252Y-18784676D01*
X39696252Y-18784676D02*
X39886728Y-18975152D01*
X39886728Y-18975152D02*
X39981966Y-19165628D01*
X39981966Y-19165628D02*
X40077204Y-19546580D01*
X40077204Y-19546580D02*
X40077204Y-19832295D01*
X40077204Y-19832295D02*
X39981966Y-20213247D01*
X39981966Y-20213247D02*
X39886728Y-20403723D01*
X39886728Y-20403723D02*
X39696252Y-20594200D01*
X39696252Y-20594200D02*
X39410537Y-20689438D01*
X39410537Y-20689438D02*
X38934347Y-20689438D01*
X40934347Y-20689438D02*
X40934347Y-18689438D01*
X40934347Y-18689438D02*
X41696252Y-18689438D01*
X41696252Y-18689438D02*
X41886728Y-18784676D01*
X41886728Y-18784676D02*
X41981966Y-18879914D01*
X41981966Y-18879914D02*
X42077204Y-19070390D01*
X42077204Y-19070390D02*
X42077204Y-19356104D01*
X42077204Y-19356104D02*
X41981966Y-19546580D01*
X41981966Y-19546580D02*
X41886728Y-19641819D01*
X41886728Y-19641819D02*
X41696252Y-19737057D01*
X41696252Y-19737057D02*
X40934347Y-19737057D01*
X42934347Y-19927533D02*
X44458157Y-19927533D01*
X45505775Y-20689438D02*
X45886727Y-20689438D01*
X45886727Y-20689438D02*
X46077204Y-20594200D01*
X46077204Y-20594200D02*
X46172442Y-20498961D01*
X46172442Y-20498961D02*
X46362918Y-20213247D01*
X46362918Y-20213247D02*
X46458156Y-19832295D01*
X46458156Y-19832295D02*
X46458156Y-19070390D01*
X46458156Y-19070390D02*
X46362918Y-18879914D01*
X46362918Y-18879914D02*
X46267680Y-18784676D01*
X46267680Y-18784676D02*
X46077204Y-18689438D01*
X46077204Y-18689438D02*
X45696251Y-18689438D01*
X45696251Y-18689438D02*
X45505775Y-18784676D01*
X45505775Y-18784676D02*
X45410537Y-18879914D01*
X45410537Y-18879914D02*
X45315299Y-19070390D01*
X45315299Y-19070390D02*
X45315299Y-19546580D01*
X45315299Y-19546580D02*
X45410537Y-19737057D01*
X45410537Y-19737057D02*
X45505775Y-19832295D01*
X45505775Y-19832295D02*
X45696251Y-19927533D01*
X45696251Y-19927533D02*
X46077204Y-19927533D01*
X46077204Y-19927533D02*
X46267680Y-19832295D01*
X46267680Y-19832295D02*
X46362918Y-19737057D01*
X46362918Y-19737057D02*
X46458156Y-19546580D01*
X47220061Y-20118009D02*
X48172442Y-20118009D01*
X47029585Y-20689438D02*
X47696251Y-18689438D01*
X47696251Y-18689438D02*
X48362918Y-20689438D01*
X49029585Y-19927533D02*
X50553395Y-19927533D01*
X52648632Y-20689438D02*
X51981965Y-19737057D01*
X51505775Y-20689438D02*
X51505775Y-18689438D01*
X51505775Y-18689438D02*
X52267680Y-18689438D01*
X52267680Y-18689438D02*
X52458156Y-18784676D01*
X52458156Y-18784676D02*
X52553394Y-18879914D01*
X52553394Y-18879914D02*
X52648632Y-19070390D01*
X52648632Y-19070390D02*
X52648632Y-19356104D01*
X52648632Y-19356104D02*
X52553394Y-19546580D01*
X52553394Y-19546580D02*
X52458156Y-19641819D01*
X52458156Y-19641819D02*
X52267680Y-19737057D01*
X52267680Y-19737057D02*
X51505775Y-19737057D01*
X53505775Y-19641819D02*
X54172442Y-19641819D01*
X54458156Y-20689438D02*
X53505775Y-20689438D01*
X53505775Y-20689438D02*
X53505775Y-18689438D01*
X53505775Y-18689438D02*
X54458156Y-18689438D01*
X56362918Y-18784676D02*
X56172442Y-18689438D01*
X56172442Y-18689438D02*
X55886728Y-18689438D01*
X55886728Y-18689438D02*
X55601013Y-18784676D01*
X55601013Y-18784676D02*
X55410537Y-18975152D01*
X55410537Y-18975152D02*
X55315299Y-19165628D01*
X55315299Y-19165628D02*
X55220061Y-19546580D01*
X55220061Y-19546580D02*
X55220061Y-19832295D01*
X55220061Y-19832295D02*
X55315299Y-20213247D01*
X55315299Y-20213247D02*
X55410537Y-20403723D01*
X55410537Y-20403723D02*
X55601013Y-20594200D01*
X55601013Y-20594200D02*
X55886728Y-20689438D01*
X55886728Y-20689438D02*
X56077204Y-20689438D01*
X56077204Y-20689438D02*
X56362918Y-20594200D01*
X56362918Y-20594200D02*
X56458156Y-20498961D01*
X56458156Y-20498961D02*
X56458156Y-19832295D01*
X56458156Y-19832295D02*
X56077204Y-19832295D01*
X57315299Y-19927533D02*
X58839109Y-19927533D01*
X60172441Y-18689438D02*
X60362918Y-18689438D01*
X60362918Y-18689438D02*
X60553394Y-18784676D01*
X60553394Y-18784676D02*
X60648632Y-18879914D01*
X60648632Y-18879914D02*
X60743870Y-19070390D01*
X60743870Y-19070390D02*
X60839108Y-19451342D01*
X60839108Y-19451342D02*
X60839108Y-19927533D01*
X60839108Y-19927533D02*
X60743870Y-20308485D01*
X60743870Y-20308485D02*
X60648632Y-20498961D01*
X60648632Y-20498961D02*
X60553394Y-20594200D01*
X60553394Y-20594200D02*
X60362918Y-20689438D01*
X60362918Y-20689438D02*
X60172441Y-20689438D01*
X60172441Y-20689438D02*
X59981965Y-20594200D01*
X59981965Y-20594200D02*
X59886727Y-20498961D01*
X59886727Y-20498961D02*
X59791489Y-20308485D01*
X59791489Y-20308485D02*
X59696251Y-19927533D01*
X59696251Y-19927533D02*
X59696251Y-19451342D01*
X59696251Y-19451342D02*
X59791489Y-19070390D01*
X59791489Y-19070390D02*
X59886727Y-18879914D01*
X59886727Y-18879914D02*
X59981965Y-18784676D01*
X59981965Y-18784676D02*
X60172441Y-18689438D01*
D11*
X131111666Y-148314819D02*
X131111666Y-149029104D01*
X131111666Y-149029104D02*
X131064047Y-149171961D01*
X131064047Y-149171961D02*
X130968809Y-149267200D01*
X130968809Y-149267200D02*
X130825952Y-149314819D01*
X130825952Y-149314819D02*
X130730714Y-149314819D01*
X132111666Y-149314819D02*
X131540238Y-149314819D01*
X131825952Y-149314819D02*
X131825952Y-148314819D01*
X131825952Y-148314819D02*
X131730714Y-148457676D01*
X131730714Y-148457676D02*
X131635476Y-148552914D01*
X131635476Y-148552914D02*
X131540238Y-148600533D01*
X206367142Y-26394580D02*
X206319523Y-26442200D01*
X206319523Y-26442200D02*
X206176666Y-26489819D01*
X206176666Y-26489819D02*
X206081428Y-26489819D01*
X206081428Y-26489819D02*
X205938571Y-26442200D01*
X205938571Y-26442200D02*
X205843333Y-26346961D01*
X205843333Y-26346961D02*
X205795714Y-26251723D01*
X205795714Y-26251723D02*
X205748095Y-26061247D01*
X205748095Y-26061247D02*
X205748095Y-25918390D01*
X205748095Y-25918390D02*
X205795714Y-25727914D01*
X205795714Y-25727914D02*
X205843333Y-25632676D01*
X205843333Y-25632676D02*
X205938571Y-25537438D01*
X205938571Y-25537438D02*
X206081428Y-25489819D01*
X206081428Y-25489819D02*
X206176666Y-25489819D01*
X206176666Y-25489819D02*
X206319523Y-25537438D01*
X206319523Y-25537438D02*
X206367142Y-25585057D01*
X207319523Y-26489819D02*
X206748095Y-26489819D01*
X207033809Y-26489819D02*
X207033809Y-25489819D01*
X207033809Y-25489819D02*
X206938571Y-25632676D01*
X206938571Y-25632676D02*
X206843333Y-25727914D01*
X206843333Y-25727914D02*
X206748095Y-25775533D01*
X207652857Y-25489819D02*
X208319523Y-25489819D01*
X208319523Y-25489819D02*
X207890952Y-26489819D01*
X200691905Y-26124819D02*
X200691905Y-26934342D01*
X200691905Y-26934342D02*
X200739524Y-27029580D01*
X200739524Y-27029580D02*
X200787143Y-27077200D01*
X200787143Y-27077200D02*
X200882381Y-27124819D01*
X200882381Y-27124819D02*
X201072857Y-27124819D01*
X201072857Y-27124819D02*
X201168095Y-27077200D01*
X201168095Y-27077200D02*
X201215714Y-27029580D01*
X201215714Y-27029580D02*
X201263333Y-26934342D01*
X201263333Y-26934342D02*
X201263333Y-26124819D01*
X202263333Y-27124819D02*
X201691905Y-27124819D01*
X201977619Y-27124819D02*
X201977619Y-26124819D01*
X201977619Y-26124819D02*
X201882381Y-26267676D01*
X201882381Y-26267676D02*
X201787143Y-26362914D01*
X201787143Y-26362914D02*
X201691905Y-26410533D01*
X202596667Y-26124819D02*
X203263333Y-26124819D01*
X203263333Y-26124819D02*
X202834762Y-27124819D01*
X200691905Y-109309819D02*
X200691905Y-110119342D01*
X200691905Y-110119342D02*
X200739524Y-110214580D01*
X200739524Y-110214580D02*
X200787143Y-110262200D01*
X200787143Y-110262200D02*
X200882381Y-110309819D01*
X200882381Y-110309819D02*
X201072857Y-110309819D01*
X201072857Y-110309819D02*
X201168095Y-110262200D01*
X201168095Y-110262200D02*
X201215714Y-110214580D01*
X201215714Y-110214580D02*
X201263333Y-110119342D01*
X201263333Y-110119342D02*
X201263333Y-109309819D01*
X202263333Y-110309819D02*
X201691905Y-110309819D01*
X201977619Y-110309819D02*
X201977619Y-109309819D01*
X201977619Y-109309819D02*
X201882381Y-109452676D01*
X201882381Y-109452676D02*
X201787143Y-109547914D01*
X201787143Y-109547914D02*
X201691905Y-109595533D01*
X203215714Y-110309819D02*
X202644286Y-110309819D01*
X202930000Y-110309819D02*
X202930000Y-109309819D01*
X202930000Y-109309819D02*
X202834762Y-109452676D01*
X202834762Y-109452676D02*
X202739524Y-109547914D01*
X202739524Y-109547914D02*
X202644286Y-109595533D01*
X115363333Y-68939580D02*
X115315714Y-68987200D01*
X115315714Y-68987200D02*
X115172857Y-69034819D01*
X115172857Y-69034819D02*
X115077619Y-69034819D01*
X115077619Y-69034819D02*
X114934762Y-68987200D01*
X114934762Y-68987200D02*
X114839524Y-68891961D01*
X114839524Y-68891961D02*
X114791905Y-68796723D01*
X114791905Y-68796723D02*
X114744286Y-68606247D01*
X114744286Y-68606247D02*
X114744286Y-68463390D01*
X114744286Y-68463390D02*
X114791905Y-68272914D01*
X114791905Y-68272914D02*
X114839524Y-68177676D01*
X114839524Y-68177676D02*
X114934762Y-68082438D01*
X114934762Y-68082438D02*
X115077619Y-68034819D01*
X115077619Y-68034819D02*
X115172857Y-68034819D01*
X115172857Y-68034819D02*
X115315714Y-68082438D01*
X115315714Y-68082438D02*
X115363333Y-68130057D01*
X116220476Y-68034819D02*
X116030000Y-68034819D01*
X116030000Y-68034819D02*
X115934762Y-68082438D01*
X115934762Y-68082438D02*
X115887143Y-68130057D01*
X115887143Y-68130057D02*
X115791905Y-68272914D01*
X115791905Y-68272914D02*
X115744286Y-68463390D01*
X115744286Y-68463390D02*
X115744286Y-68844342D01*
X115744286Y-68844342D02*
X115791905Y-68939580D01*
X115791905Y-68939580D02*
X115839524Y-68987200D01*
X115839524Y-68987200D02*
X115934762Y-69034819D01*
X115934762Y-69034819D02*
X116125238Y-69034819D01*
X116125238Y-69034819D02*
X116220476Y-68987200D01*
X116220476Y-68987200D02*
X116268095Y-68939580D01*
X116268095Y-68939580D02*
X116315714Y-68844342D01*
X116315714Y-68844342D02*
X116315714Y-68606247D01*
X116315714Y-68606247D02*
X116268095Y-68511009D01*
X116268095Y-68511009D02*
X116220476Y-68463390D01*
X116220476Y-68463390D02*
X116125238Y-68415771D01*
X116125238Y-68415771D02*
X115934762Y-68415771D01*
X115934762Y-68415771D02*
X115839524Y-68463390D01*
X115839524Y-68463390D02*
X115791905Y-68511009D01*
X115791905Y-68511009D02*
X115744286Y-68606247D01*
X206367142Y-109579580D02*
X206319523Y-109627200D01*
X206319523Y-109627200D02*
X206176666Y-109674819D01*
X206176666Y-109674819D02*
X206081428Y-109674819D01*
X206081428Y-109674819D02*
X205938571Y-109627200D01*
X205938571Y-109627200D02*
X205843333Y-109531961D01*
X205843333Y-109531961D02*
X205795714Y-109436723D01*
X205795714Y-109436723D02*
X205748095Y-109246247D01*
X205748095Y-109246247D02*
X205748095Y-109103390D01*
X205748095Y-109103390D02*
X205795714Y-108912914D01*
X205795714Y-108912914D02*
X205843333Y-108817676D01*
X205843333Y-108817676D02*
X205938571Y-108722438D01*
X205938571Y-108722438D02*
X206081428Y-108674819D01*
X206081428Y-108674819D02*
X206176666Y-108674819D01*
X206176666Y-108674819D02*
X206319523Y-108722438D01*
X206319523Y-108722438D02*
X206367142Y-108770057D01*
X207319523Y-109674819D02*
X206748095Y-109674819D01*
X207033809Y-109674819D02*
X207033809Y-108674819D01*
X207033809Y-108674819D02*
X206938571Y-108817676D01*
X206938571Y-108817676D02*
X206843333Y-108912914D01*
X206843333Y-108912914D02*
X206748095Y-108960533D01*
X208271904Y-109674819D02*
X207700476Y-109674819D01*
X207986190Y-109674819D02*
X207986190Y-108674819D01*
X207986190Y-108674819D02*
X207890952Y-108817676D01*
X207890952Y-108817676D02*
X207795714Y-108912914D01*
X207795714Y-108912914D02*
X207700476Y-108960533D01*
X223551905Y-26124819D02*
X223551905Y-26934342D01*
X223551905Y-26934342D02*
X223599524Y-27029580D01*
X223599524Y-27029580D02*
X223647143Y-27077200D01*
X223647143Y-27077200D02*
X223742381Y-27124819D01*
X223742381Y-27124819D02*
X223932857Y-27124819D01*
X223932857Y-27124819D02*
X224028095Y-27077200D01*
X224028095Y-27077200D02*
X224075714Y-27029580D01*
X224075714Y-27029580D02*
X224123333Y-26934342D01*
X224123333Y-26934342D02*
X224123333Y-26124819D01*
X225123333Y-27124819D02*
X224551905Y-27124819D01*
X224837619Y-27124819D02*
X224837619Y-26124819D01*
X224837619Y-26124819D02*
X224742381Y-26267676D01*
X224742381Y-26267676D02*
X224647143Y-26362914D01*
X224647143Y-26362914D02*
X224551905Y-26410533D01*
X225980476Y-26124819D02*
X225790000Y-26124819D01*
X225790000Y-26124819D02*
X225694762Y-26172438D01*
X225694762Y-26172438D02*
X225647143Y-26220057D01*
X225647143Y-26220057D02*
X225551905Y-26362914D01*
X225551905Y-26362914D02*
X225504286Y-26553390D01*
X225504286Y-26553390D02*
X225504286Y-26934342D01*
X225504286Y-26934342D02*
X225551905Y-27029580D01*
X225551905Y-27029580D02*
X225599524Y-27077200D01*
X225599524Y-27077200D02*
X225694762Y-27124819D01*
X225694762Y-27124819D02*
X225885238Y-27124819D01*
X225885238Y-27124819D02*
X225980476Y-27077200D01*
X225980476Y-27077200D02*
X226028095Y-27029580D01*
X226028095Y-27029580D02*
X226075714Y-26934342D01*
X226075714Y-26934342D02*
X226075714Y-26696247D01*
X226075714Y-26696247D02*
X226028095Y-26601009D01*
X226028095Y-26601009D02*
X225980476Y-26553390D01*
X225980476Y-26553390D02*
X225885238Y-26505771D01*
X225885238Y-26505771D02*
X225694762Y-26505771D01*
X225694762Y-26505771D02*
X225599524Y-26553390D01*
X225599524Y-26553390D02*
X225551905Y-26601009D01*
X225551905Y-26601009D02*
X225504286Y-26696247D01*
X92067142Y-109579580D02*
X92019523Y-109627200D01*
X92019523Y-109627200D02*
X91876666Y-109674819D01*
X91876666Y-109674819D02*
X91781428Y-109674819D01*
X91781428Y-109674819D02*
X91638571Y-109627200D01*
X91638571Y-109627200D02*
X91543333Y-109531961D01*
X91543333Y-109531961D02*
X91495714Y-109436723D01*
X91495714Y-109436723D02*
X91448095Y-109246247D01*
X91448095Y-109246247D02*
X91448095Y-109103390D01*
X91448095Y-109103390D02*
X91495714Y-108912914D01*
X91495714Y-108912914D02*
X91543333Y-108817676D01*
X91543333Y-108817676D02*
X91638571Y-108722438D01*
X91638571Y-108722438D02*
X91781428Y-108674819D01*
X91781428Y-108674819D02*
X91876666Y-108674819D01*
X91876666Y-108674819D02*
X92019523Y-108722438D01*
X92019523Y-108722438D02*
X92067142Y-108770057D01*
X93019523Y-109674819D02*
X92448095Y-109674819D01*
X92733809Y-109674819D02*
X92733809Y-108674819D01*
X92733809Y-108674819D02*
X92638571Y-108817676D01*
X92638571Y-108817676D02*
X92543333Y-108912914D01*
X92543333Y-108912914D02*
X92448095Y-108960533D01*
X93495714Y-109674819D02*
X93686190Y-109674819D01*
X93686190Y-109674819D02*
X93781428Y-109627200D01*
X93781428Y-109627200D02*
X93829047Y-109579580D01*
X93829047Y-109579580D02*
X93924285Y-109436723D01*
X93924285Y-109436723D02*
X93971904Y-109246247D01*
X93971904Y-109246247D02*
X93971904Y-108865295D01*
X93971904Y-108865295D02*
X93924285Y-108770057D01*
X93924285Y-108770057D02*
X93876666Y-108722438D01*
X93876666Y-108722438D02*
X93781428Y-108674819D01*
X93781428Y-108674819D02*
X93590952Y-108674819D01*
X93590952Y-108674819D02*
X93495714Y-108722438D01*
X93495714Y-108722438D02*
X93448095Y-108770057D01*
X93448095Y-108770057D02*
X93400476Y-108865295D01*
X93400476Y-108865295D02*
X93400476Y-109103390D01*
X93400476Y-109103390D02*
X93448095Y-109198628D01*
X93448095Y-109198628D02*
X93495714Y-109246247D01*
X93495714Y-109246247D02*
X93590952Y-109293866D01*
X93590952Y-109293866D02*
X93781428Y-109293866D01*
X93781428Y-109293866D02*
X93876666Y-109246247D01*
X93876666Y-109246247D02*
X93924285Y-109198628D01*
X93924285Y-109198628D02*
X93971904Y-109103390D01*
X206843333Y-68939580D02*
X206795714Y-68987200D01*
X206795714Y-68987200D02*
X206652857Y-69034819D01*
X206652857Y-69034819D02*
X206557619Y-69034819D01*
X206557619Y-69034819D02*
X206414762Y-68987200D01*
X206414762Y-68987200D02*
X206319524Y-68891961D01*
X206319524Y-68891961D02*
X206271905Y-68796723D01*
X206271905Y-68796723D02*
X206224286Y-68606247D01*
X206224286Y-68606247D02*
X206224286Y-68463390D01*
X206224286Y-68463390D02*
X206271905Y-68272914D01*
X206271905Y-68272914D02*
X206319524Y-68177676D01*
X206319524Y-68177676D02*
X206414762Y-68082438D01*
X206414762Y-68082438D02*
X206557619Y-68034819D01*
X206557619Y-68034819D02*
X206652857Y-68034819D01*
X206652857Y-68034819D02*
X206795714Y-68082438D01*
X206795714Y-68082438D02*
X206843333Y-68130057D01*
X207224286Y-68130057D02*
X207271905Y-68082438D01*
X207271905Y-68082438D02*
X207367143Y-68034819D01*
X207367143Y-68034819D02*
X207605238Y-68034819D01*
X207605238Y-68034819D02*
X207700476Y-68082438D01*
X207700476Y-68082438D02*
X207748095Y-68130057D01*
X207748095Y-68130057D02*
X207795714Y-68225295D01*
X207795714Y-68225295D02*
X207795714Y-68320533D01*
X207795714Y-68320533D02*
X207748095Y-68463390D01*
X207748095Y-68463390D02*
X207176667Y-69034819D01*
X207176667Y-69034819D02*
X207795714Y-69034819D01*
X69842142Y-109579580D02*
X69794523Y-109627200D01*
X69794523Y-109627200D02*
X69651666Y-109674819D01*
X69651666Y-109674819D02*
X69556428Y-109674819D01*
X69556428Y-109674819D02*
X69413571Y-109627200D01*
X69413571Y-109627200D02*
X69318333Y-109531961D01*
X69318333Y-109531961D02*
X69270714Y-109436723D01*
X69270714Y-109436723D02*
X69223095Y-109246247D01*
X69223095Y-109246247D02*
X69223095Y-109103390D01*
X69223095Y-109103390D02*
X69270714Y-108912914D01*
X69270714Y-108912914D02*
X69318333Y-108817676D01*
X69318333Y-108817676D02*
X69413571Y-108722438D01*
X69413571Y-108722438D02*
X69556428Y-108674819D01*
X69556428Y-108674819D02*
X69651666Y-108674819D01*
X69651666Y-108674819D02*
X69794523Y-108722438D01*
X69794523Y-108722438D02*
X69842142Y-108770057D01*
X70223095Y-108770057D02*
X70270714Y-108722438D01*
X70270714Y-108722438D02*
X70365952Y-108674819D01*
X70365952Y-108674819D02*
X70604047Y-108674819D01*
X70604047Y-108674819D02*
X70699285Y-108722438D01*
X70699285Y-108722438D02*
X70746904Y-108770057D01*
X70746904Y-108770057D02*
X70794523Y-108865295D01*
X70794523Y-108865295D02*
X70794523Y-108960533D01*
X70794523Y-108960533D02*
X70746904Y-109103390D01*
X70746904Y-109103390D02*
X70175476Y-109674819D01*
X70175476Y-109674819D02*
X70794523Y-109674819D01*
X71413571Y-108674819D02*
X71508809Y-108674819D01*
X71508809Y-108674819D02*
X71604047Y-108722438D01*
X71604047Y-108722438D02*
X71651666Y-108770057D01*
X71651666Y-108770057D02*
X71699285Y-108865295D01*
X71699285Y-108865295D02*
X71746904Y-109055771D01*
X71746904Y-109055771D02*
X71746904Y-109293866D01*
X71746904Y-109293866D02*
X71699285Y-109484342D01*
X71699285Y-109484342D02*
X71651666Y-109579580D01*
X71651666Y-109579580D02*
X71604047Y-109627200D01*
X71604047Y-109627200D02*
X71508809Y-109674819D01*
X71508809Y-109674819D02*
X71413571Y-109674819D01*
X71413571Y-109674819D02*
X71318333Y-109627200D01*
X71318333Y-109627200D02*
X71270714Y-109579580D01*
X71270714Y-109579580D02*
X71223095Y-109484342D01*
X71223095Y-109484342D02*
X71175476Y-109293866D01*
X71175476Y-109293866D02*
X71175476Y-109055771D01*
X71175476Y-109055771D02*
X71223095Y-108865295D01*
X71223095Y-108865295D02*
X71270714Y-108770057D01*
X71270714Y-108770057D02*
X71318333Y-108722438D01*
X71318333Y-108722438D02*
X71413571Y-108674819D01*
X177831905Y-109309819D02*
X177831905Y-110119342D01*
X177831905Y-110119342D02*
X177879524Y-110214580D01*
X177879524Y-110214580D02*
X177927143Y-110262200D01*
X177927143Y-110262200D02*
X178022381Y-110309819D01*
X178022381Y-110309819D02*
X178212857Y-110309819D01*
X178212857Y-110309819D02*
X178308095Y-110262200D01*
X178308095Y-110262200D02*
X178355714Y-110214580D01*
X178355714Y-110214580D02*
X178403333Y-110119342D01*
X178403333Y-110119342D02*
X178403333Y-109309819D01*
X179403333Y-110309819D02*
X178831905Y-110309819D01*
X179117619Y-110309819D02*
X179117619Y-109309819D01*
X179117619Y-109309819D02*
X179022381Y-109452676D01*
X179022381Y-109452676D02*
X178927143Y-109547914D01*
X178927143Y-109547914D02*
X178831905Y-109595533D01*
X179784286Y-109405057D02*
X179831905Y-109357438D01*
X179831905Y-109357438D02*
X179927143Y-109309819D01*
X179927143Y-109309819D02*
X180165238Y-109309819D01*
X180165238Y-109309819D02*
X180260476Y-109357438D01*
X180260476Y-109357438D02*
X180308095Y-109405057D01*
X180308095Y-109405057D02*
X180355714Y-109500295D01*
X180355714Y-109500295D02*
X180355714Y-109595533D01*
X180355714Y-109595533D02*
X180308095Y-109738390D01*
X180308095Y-109738390D02*
X179736667Y-110309819D01*
X179736667Y-110309819D02*
X180355714Y-110309819D01*
X86391905Y-26319819D02*
X86391905Y-27129342D01*
X86391905Y-27129342D02*
X86439524Y-27224580D01*
X86439524Y-27224580D02*
X86487143Y-27272200D01*
X86487143Y-27272200D02*
X86582381Y-27319819D01*
X86582381Y-27319819D02*
X86772857Y-27319819D01*
X86772857Y-27319819D02*
X86868095Y-27272200D01*
X86868095Y-27272200D02*
X86915714Y-27224580D01*
X86915714Y-27224580D02*
X86963333Y-27129342D01*
X86963333Y-27129342D02*
X86963333Y-26319819D01*
X87391905Y-26415057D02*
X87439524Y-26367438D01*
X87439524Y-26367438D02*
X87534762Y-26319819D01*
X87534762Y-26319819D02*
X87772857Y-26319819D01*
X87772857Y-26319819D02*
X87868095Y-26367438D01*
X87868095Y-26367438D02*
X87915714Y-26415057D01*
X87915714Y-26415057D02*
X87963333Y-26510295D01*
X87963333Y-26510295D02*
X87963333Y-26605533D01*
X87963333Y-26605533D02*
X87915714Y-26748390D01*
X87915714Y-26748390D02*
X87344286Y-27319819D01*
X87344286Y-27319819D02*
X87963333Y-27319819D01*
X88820476Y-26653152D02*
X88820476Y-27319819D01*
X88582381Y-26272200D02*
X88344286Y-26986485D01*
X88344286Y-26986485D02*
X88963333Y-26986485D01*
X177831905Y-26334819D02*
X177831905Y-27144342D01*
X177831905Y-27144342D02*
X177879524Y-27239580D01*
X177879524Y-27239580D02*
X177927143Y-27287200D01*
X177927143Y-27287200D02*
X178022381Y-27334819D01*
X178022381Y-27334819D02*
X178212857Y-27334819D01*
X178212857Y-27334819D02*
X178308095Y-27287200D01*
X178308095Y-27287200D02*
X178355714Y-27239580D01*
X178355714Y-27239580D02*
X178403333Y-27144342D01*
X178403333Y-27144342D02*
X178403333Y-26334819D01*
X179403333Y-27334819D02*
X178831905Y-27334819D01*
X179117619Y-27334819D02*
X179117619Y-26334819D01*
X179117619Y-26334819D02*
X179022381Y-26477676D01*
X179022381Y-26477676D02*
X178927143Y-26572914D01*
X178927143Y-26572914D02*
X178831905Y-26620533D01*
X179974762Y-26763390D02*
X179879524Y-26715771D01*
X179879524Y-26715771D02*
X179831905Y-26668152D01*
X179831905Y-26668152D02*
X179784286Y-26572914D01*
X179784286Y-26572914D02*
X179784286Y-26525295D01*
X179784286Y-26525295D02*
X179831905Y-26430057D01*
X179831905Y-26430057D02*
X179879524Y-26382438D01*
X179879524Y-26382438D02*
X179974762Y-26334819D01*
X179974762Y-26334819D02*
X180165238Y-26334819D01*
X180165238Y-26334819D02*
X180260476Y-26382438D01*
X180260476Y-26382438D02*
X180308095Y-26430057D01*
X180308095Y-26430057D02*
X180355714Y-26525295D01*
X180355714Y-26525295D02*
X180355714Y-26572914D01*
X180355714Y-26572914D02*
X180308095Y-26668152D01*
X180308095Y-26668152D02*
X180260476Y-26715771D01*
X180260476Y-26715771D02*
X180165238Y-26763390D01*
X180165238Y-26763390D02*
X179974762Y-26763390D01*
X179974762Y-26763390D02*
X179879524Y-26811009D01*
X179879524Y-26811009D02*
X179831905Y-26858628D01*
X179831905Y-26858628D02*
X179784286Y-26953866D01*
X179784286Y-26953866D02*
X179784286Y-27144342D01*
X179784286Y-27144342D02*
X179831905Y-27239580D01*
X179831905Y-27239580D02*
X179879524Y-27287200D01*
X179879524Y-27287200D02*
X179974762Y-27334819D01*
X179974762Y-27334819D02*
X180165238Y-27334819D01*
X180165238Y-27334819D02*
X180260476Y-27287200D01*
X180260476Y-27287200D02*
X180308095Y-27239580D01*
X180308095Y-27239580D02*
X180355714Y-27144342D01*
X180355714Y-27144342D02*
X180355714Y-26953866D01*
X180355714Y-26953866D02*
X180308095Y-26858628D01*
X180308095Y-26858628D02*
X180260476Y-26811009D01*
X180260476Y-26811009D02*
X180165238Y-26763390D01*
X92583333Y-68939580D02*
X92535714Y-68987200D01*
X92535714Y-68987200D02*
X92392857Y-69034819D01*
X92392857Y-69034819D02*
X92297619Y-69034819D01*
X92297619Y-69034819D02*
X92154762Y-68987200D01*
X92154762Y-68987200D02*
X92059524Y-68891961D01*
X92059524Y-68891961D02*
X92011905Y-68796723D01*
X92011905Y-68796723D02*
X91964286Y-68606247D01*
X91964286Y-68606247D02*
X91964286Y-68463390D01*
X91964286Y-68463390D02*
X92011905Y-68272914D01*
X92011905Y-68272914D02*
X92059524Y-68177676D01*
X92059524Y-68177676D02*
X92154762Y-68082438D01*
X92154762Y-68082438D02*
X92297619Y-68034819D01*
X92297619Y-68034819D02*
X92392857Y-68034819D01*
X92392857Y-68034819D02*
X92535714Y-68082438D01*
X92535714Y-68082438D02*
X92583333Y-68130057D01*
X92916667Y-68034819D02*
X93583333Y-68034819D01*
X93583333Y-68034819D02*
X93154762Y-69034819D01*
X82383333Y-114119819D02*
X82050000Y-113643628D01*
X81811905Y-114119819D02*
X81811905Y-113119819D01*
X81811905Y-113119819D02*
X82192857Y-113119819D01*
X82192857Y-113119819D02*
X82288095Y-113167438D01*
X82288095Y-113167438D02*
X82335714Y-113215057D01*
X82335714Y-113215057D02*
X82383333Y-113310295D01*
X82383333Y-113310295D02*
X82383333Y-113453152D01*
X82383333Y-113453152D02*
X82335714Y-113548390D01*
X82335714Y-113548390D02*
X82288095Y-113596009D01*
X82288095Y-113596009D02*
X82192857Y-113643628D01*
X82192857Y-113643628D02*
X81811905Y-113643628D01*
X83335714Y-114119819D02*
X82764286Y-114119819D01*
X83050000Y-114119819D02*
X83050000Y-113119819D01*
X83050000Y-113119819D02*
X82954762Y-113262676D01*
X82954762Y-113262676D02*
X82859524Y-113357914D01*
X82859524Y-113357914D02*
X82764286Y-113405533D01*
X84878152Y-117228809D02*
X85544819Y-117228809D01*
X84497200Y-117466904D02*
X85211485Y-117704999D01*
X85211485Y-117704999D02*
X85211485Y-117085952D01*
X85449580Y-116704999D02*
X85497200Y-116657380D01*
X85497200Y-116657380D02*
X85544819Y-116704999D01*
X85544819Y-116704999D02*
X85497200Y-116752618D01*
X85497200Y-116752618D02*
X85449580Y-116704999D01*
X85449580Y-116704999D02*
X85544819Y-116704999D01*
X84544819Y-116324047D02*
X84544819Y-115657381D01*
X84544819Y-115657381D02*
X85544819Y-116085952D01*
X85544819Y-115276428D02*
X84544819Y-115276428D01*
X85544819Y-114705000D02*
X84973390Y-115133571D01*
X84544819Y-114705000D02*
X85116247Y-115276428D01*
X138223333Y-68939580D02*
X138175714Y-68987200D01*
X138175714Y-68987200D02*
X138032857Y-69034819D01*
X138032857Y-69034819D02*
X137937619Y-69034819D01*
X137937619Y-69034819D02*
X137794762Y-68987200D01*
X137794762Y-68987200D02*
X137699524Y-68891961D01*
X137699524Y-68891961D02*
X137651905Y-68796723D01*
X137651905Y-68796723D02*
X137604286Y-68606247D01*
X137604286Y-68606247D02*
X137604286Y-68463390D01*
X137604286Y-68463390D02*
X137651905Y-68272914D01*
X137651905Y-68272914D02*
X137699524Y-68177676D01*
X137699524Y-68177676D02*
X137794762Y-68082438D01*
X137794762Y-68082438D02*
X137937619Y-68034819D01*
X137937619Y-68034819D02*
X138032857Y-68034819D01*
X138032857Y-68034819D02*
X138175714Y-68082438D01*
X138175714Y-68082438D02*
X138223333Y-68130057D01*
X139128095Y-68034819D02*
X138651905Y-68034819D01*
X138651905Y-68034819D02*
X138604286Y-68511009D01*
X138604286Y-68511009D02*
X138651905Y-68463390D01*
X138651905Y-68463390D02*
X138747143Y-68415771D01*
X138747143Y-68415771D02*
X138985238Y-68415771D01*
X138985238Y-68415771D02*
X139080476Y-68463390D01*
X139080476Y-68463390D02*
X139128095Y-68511009D01*
X139128095Y-68511009D02*
X139175714Y-68606247D01*
X139175714Y-68606247D02*
X139175714Y-68844342D01*
X139175714Y-68844342D02*
X139128095Y-68939580D01*
X139128095Y-68939580D02*
X139080476Y-68987200D01*
X139080476Y-68987200D02*
X138985238Y-69034819D01*
X138985238Y-69034819D02*
X138747143Y-69034819D01*
X138747143Y-69034819D02*
X138651905Y-68987200D01*
X138651905Y-68987200D02*
X138604286Y-68939580D01*
X178943095Y-68669819D02*
X178943095Y-69479342D01*
X178943095Y-69479342D02*
X178990714Y-69574580D01*
X178990714Y-69574580D02*
X179038333Y-69622200D01*
X179038333Y-69622200D02*
X179133571Y-69669819D01*
X179133571Y-69669819D02*
X179324047Y-69669819D01*
X179324047Y-69669819D02*
X179419285Y-69622200D01*
X179419285Y-69622200D02*
X179466904Y-69574580D01*
X179466904Y-69574580D02*
X179514523Y-69479342D01*
X179514523Y-69479342D02*
X179514523Y-68669819D01*
X179895476Y-68669819D02*
X180514523Y-68669819D01*
X180514523Y-68669819D02*
X180181190Y-69050771D01*
X180181190Y-69050771D02*
X180324047Y-69050771D01*
X180324047Y-69050771D02*
X180419285Y-69098390D01*
X180419285Y-69098390D02*
X180466904Y-69146009D01*
X180466904Y-69146009D02*
X180514523Y-69241247D01*
X180514523Y-69241247D02*
X180514523Y-69479342D01*
X180514523Y-69479342D02*
X180466904Y-69574580D01*
X180466904Y-69574580D02*
X180419285Y-69622200D01*
X180419285Y-69622200D02*
X180324047Y-69669819D01*
X180324047Y-69669819D02*
X180038333Y-69669819D01*
X180038333Y-69669819D02*
X179943095Y-69622200D01*
X179943095Y-69622200D02*
X179895476Y-69574580D01*
X69643333Y-68939580D02*
X69595714Y-68987200D01*
X69595714Y-68987200D02*
X69452857Y-69034819D01*
X69452857Y-69034819D02*
X69357619Y-69034819D01*
X69357619Y-69034819D02*
X69214762Y-68987200D01*
X69214762Y-68987200D02*
X69119524Y-68891961D01*
X69119524Y-68891961D02*
X69071905Y-68796723D01*
X69071905Y-68796723D02*
X69024286Y-68606247D01*
X69024286Y-68606247D02*
X69024286Y-68463390D01*
X69024286Y-68463390D02*
X69071905Y-68272914D01*
X69071905Y-68272914D02*
X69119524Y-68177676D01*
X69119524Y-68177676D02*
X69214762Y-68082438D01*
X69214762Y-68082438D02*
X69357619Y-68034819D01*
X69357619Y-68034819D02*
X69452857Y-68034819D01*
X69452857Y-68034819D02*
X69595714Y-68082438D01*
X69595714Y-68082438D02*
X69643333Y-68130057D01*
X70214762Y-68463390D02*
X70119524Y-68415771D01*
X70119524Y-68415771D02*
X70071905Y-68368152D01*
X70071905Y-68368152D02*
X70024286Y-68272914D01*
X70024286Y-68272914D02*
X70024286Y-68225295D01*
X70024286Y-68225295D02*
X70071905Y-68130057D01*
X70071905Y-68130057D02*
X70119524Y-68082438D01*
X70119524Y-68082438D02*
X70214762Y-68034819D01*
X70214762Y-68034819D02*
X70405238Y-68034819D01*
X70405238Y-68034819D02*
X70500476Y-68082438D01*
X70500476Y-68082438D02*
X70548095Y-68130057D01*
X70548095Y-68130057D02*
X70595714Y-68225295D01*
X70595714Y-68225295D02*
X70595714Y-68272914D01*
X70595714Y-68272914D02*
X70548095Y-68368152D01*
X70548095Y-68368152D02*
X70500476Y-68415771D01*
X70500476Y-68415771D02*
X70405238Y-68463390D01*
X70405238Y-68463390D02*
X70214762Y-68463390D01*
X70214762Y-68463390D02*
X70119524Y-68511009D01*
X70119524Y-68511009D02*
X70071905Y-68558628D01*
X70071905Y-68558628D02*
X70024286Y-68653866D01*
X70024286Y-68653866D02*
X70024286Y-68844342D01*
X70024286Y-68844342D02*
X70071905Y-68939580D01*
X70071905Y-68939580D02*
X70119524Y-68987200D01*
X70119524Y-68987200D02*
X70214762Y-69034819D01*
X70214762Y-69034819D02*
X70405238Y-69034819D01*
X70405238Y-69034819D02*
X70500476Y-68987200D01*
X70500476Y-68987200D02*
X70548095Y-68939580D01*
X70548095Y-68939580D02*
X70595714Y-68844342D01*
X70595714Y-68844342D02*
X70595714Y-68653866D01*
X70595714Y-68653866D02*
X70548095Y-68558628D01*
X70548095Y-68558628D02*
X70500476Y-68511009D01*
X70500476Y-68511009D02*
X70405238Y-68463390D01*
X109251905Y-26334819D02*
X109251905Y-27144342D01*
X109251905Y-27144342D02*
X109299524Y-27239580D01*
X109299524Y-27239580D02*
X109347143Y-27287200D01*
X109347143Y-27287200D02*
X109442381Y-27334819D01*
X109442381Y-27334819D02*
X109632857Y-27334819D01*
X109632857Y-27334819D02*
X109728095Y-27287200D01*
X109728095Y-27287200D02*
X109775714Y-27239580D01*
X109775714Y-27239580D02*
X109823333Y-27144342D01*
X109823333Y-27144342D02*
X109823333Y-26334819D01*
X110251905Y-26430057D02*
X110299524Y-26382438D01*
X110299524Y-26382438D02*
X110394762Y-26334819D01*
X110394762Y-26334819D02*
X110632857Y-26334819D01*
X110632857Y-26334819D02*
X110728095Y-26382438D01*
X110728095Y-26382438D02*
X110775714Y-26430057D01*
X110775714Y-26430057D02*
X110823333Y-26525295D01*
X110823333Y-26525295D02*
X110823333Y-26620533D01*
X110823333Y-26620533D02*
X110775714Y-26763390D01*
X110775714Y-26763390D02*
X110204286Y-27334819D01*
X110204286Y-27334819D02*
X110823333Y-27334819D01*
X111156667Y-26334819D02*
X111775714Y-26334819D01*
X111775714Y-26334819D02*
X111442381Y-26715771D01*
X111442381Y-26715771D02*
X111585238Y-26715771D01*
X111585238Y-26715771D02*
X111680476Y-26763390D01*
X111680476Y-26763390D02*
X111728095Y-26811009D01*
X111728095Y-26811009D02*
X111775714Y-26906247D01*
X111775714Y-26906247D02*
X111775714Y-27144342D01*
X111775714Y-27144342D02*
X111728095Y-27239580D01*
X111728095Y-27239580D02*
X111680476Y-27287200D01*
X111680476Y-27287200D02*
X111585238Y-27334819D01*
X111585238Y-27334819D02*
X111299524Y-27334819D01*
X111299524Y-27334819D02*
X111204286Y-27287200D01*
X111204286Y-27287200D02*
X111156667Y-27239580D01*
X132111905Y-26334819D02*
X132111905Y-27144342D01*
X132111905Y-27144342D02*
X132159524Y-27239580D01*
X132159524Y-27239580D02*
X132207143Y-27287200D01*
X132207143Y-27287200D02*
X132302381Y-27334819D01*
X132302381Y-27334819D02*
X132492857Y-27334819D01*
X132492857Y-27334819D02*
X132588095Y-27287200D01*
X132588095Y-27287200D02*
X132635714Y-27239580D01*
X132635714Y-27239580D02*
X132683333Y-27144342D01*
X132683333Y-27144342D02*
X132683333Y-26334819D01*
X133111905Y-26430057D02*
X133159524Y-26382438D01*
X133159524Y-26382438D02*
X133254762Y-26334819D01*
X133254762Y-26334819D02*
X133492857Y-26334819D01*
X133492857Y-26334819D02*
X133588095Y-26382438D01*
X133588095Y-26382438D02*
X133635714Y-26430057D01*
X133635714Y-26430057D02*
X133683333Y-26525295D01*
X133683333Y-26525295D02*
X133683333Y-26620533D01*
X133683333Y-26620533D02*
X133635714Y-26763390D01*
X133635714Y-26763390D02*
X133064286Y-27334819D01*
X133064286Y-27334819D02*
X133683333Y-27334819D01*
X134064286Y-26430057D02*
X134111905Y-26382438D01*
X134111905Y-26382438D02*
X134207143Y-26334819D01*
X134207143Y-26334819D02*
X134445238Y-26334819D01*
X134445238Y-26334819D02*
X134540476Y-26382438D01*
X134540476Y-26382438D02*
X134588095Y-26430057D01*
X134588095Y-26430057D02*
X134635714Y-26525295D01*
X134635714Y-26525295D02*
X134635714Y-26620533D01*
X134635714Y-26620533D02*
X134588095Y-26763390D01*
X134588095Y-26763390D02*
X134016667Y-27334819D01*
X134016667Y-27334819D02*
X134635714Y-27334819D01*
X183507142Y-109579580D02*
X183459523Y-109627200D01*
X183459523Y-109627200D02*
X183316666Y-109674819D01*
X183316666Y-109674819D02*
X183221428Y-109674819D01*
X183221428Y-109674819D02*
X183078571Y-109627200D01*
X183078571Y-109627200D02*
X182983333Y-109531961D01*
X182983333Y-109531961D02*
X182935714Y-109436723D01*
X182935714Y-109436723D02*
X182888095Y-109246247D01*
X182888095Y-109246247D02*
X182888095Y-109103390D01*
X182888095Y-109103390D02*
X182935714Y-108912914D01*
X182935714Y-108912914D02*
X182983333Y-108817676D01*
X182983333Y-108817676D02*
X183078571Y-108722438D01*
X183078571Y-108722438D02*
X183221428Y-108674819D01*
X183221428Y-108674819D02*
X183316666Y-108674819D01*
X183316666Y-108674819D02*
X183459523Y-108722438D01*
X183459523Y-108722438D02*
X183507142Y-108770057D01*
X184459523Y-109674819D02*
X183888095Y-109674819D01*
X184173809Y-109674819D02*
X184173809Y-108674819D01*
X184173809Y-108674819D02*
X184078571Y-108817676D01*
X184078571Y-108817676D02*
X183983333Y-108912914D01*
X183983333Y-108912914D02*
X183888095Y-108960533D01*
X184840476Y-108770057D02*
X184888095Y-108722438D01*
X184888095Y-108722438D02*
X184983333Y-108674819D01*
X184983333Y-108674819D02*
X185221428Y-108674819D01*
X185221428Y-108674819D02*
X185316666Y-108722438D01*
X185316666Y-108722438D02*
X185364285Y-108770057D01*
X185364285Y-108770057D02*
X185411904Y-108865295D01*
X185411904Y-108865295D02*
X185411904Y-108960533D01*
X185411904Y-108960533D02*
X185364285Y-109103390D01*
X185364285Y-109103390D02*
X184792857Y-109674819D01*
X184792857Y-109674819D02*
X185411904Y-109674819D01*
X41316905Y-109324819D02*
X41316905Y-110134342D01*
X41316905Y-110134342D02*
X41364524Y-110229580D01*
X41364524Y-110229580D02*
X41412143Y-110277200D01*
X41412143Y-110277200D02*
X41507381Y-110324819D01*
X41507381Y-110324819D02*
X41697857Y-110324819D01*
X41697857Y-110324819D02*
X41793095Y-110277200D01*
X41793095Y-110277200D02*
X41840714Y-110229580D01*
X41840714Y-110229580D02*
X41888333Y-110134342D01*
X41888333Y-110134342D02*
X41888333Y-109324819D01*
X42316905Y-109420057D02*
X42364524Y-109372438D01*
X42364524Y-109372438D02*
X42459762Y-109324819D01*
X42459762Y-109324819D02*
X42697857Y-109324819D01*
X42697857Y-109324819D02*
X42793095Y-109372438D01*
X42793095Y-109372438D02*
X42840714Y-109420057D01*
X42840714Y-109420057D02*
X42888333Y-109515295D01*
X42888333Y-109515295D02*
X42888333Y-109610533D01*
X42888333Y-109610533D02*
X42840714Y-109753390D01*
X42840714Y-109753390D02*
X42269286Y-110324819D01*
X42269286Y-110324819D02*
X42888333Y-110324819D01*
X43793095Y-109324819D02*
X43316905Y-109324819D01*
X43316905Y-109324819D02*
X43269286Y-109801009D01*
X43269286Y-109801009D02*
X43316905Y-109753390D01*
X43316905Y-109753390D02*
X43412143Y-109705771D01*
X43412143Y-109705771D02*
X43650238Y-109705771D01*
X43650238Y-109705771D02*
X43745476Y-109753390D01*
X43745476Y-109753390D02*
X43793095Y-109801009D01*
X43793095Y-109801009D02*
X43840714Y-109896247D01*
X43840714Y-109896247D02*
X43840714Y-110134342D01*
X43840714Y-110134342D02*
X43793095Y-110229580D01*
X43793095Y-110229580D02*
X43745476Y-110277200D01*
X43745476Y-110277200D02*
X43650238Y-110324819D01*
X43650238Y-110324819D02*
X43412143Y-110324819D01*
X43412143Y-110324819D02*
X43316905Y-110277200D01*
X43316905Y-110277200D02*
X43269286Y-110229580D01*
X46942142Y-109579580D02*
X46894523Y-109627200D01*
X46894523Y-109627200D02*
X46751666Y-109674819D01*
X46751666Y-109674819D02*
X46656428Y-109674819D01*
X46656428Y-109674819D02*
X46513571Y-109627200D01*
X46513571Y-109627200D02*
X46418333Y-109531961D01*
X46418333Y-109531961D02*
X46370714Y-109436723D01*
X46370714Y-109436723D02*
X46323095Y-109246247D01*
X46323095Y-109246247D02*
X46323095Y-109103390D01*
X46323095Y-109103390D02*
X46370714Y-108912914D01*
X46370714Y-108912914D02*
X46418333Y-108817676D01*
X46418333Y-108817676D02*
X46513571Y-108722438D01*
X46513571Y-108722438D02*
X46656428Y-108674819D01*
X46656428Y-108674819D02*
X46751666Y-108674819D01*
X46751666Y-108674819D02*
X46894523Y-108722438D01*
X46894523Y-108722438D02*
X46942142Y-108770057D01*
X47323095Y-108770057D02*
X47370714Y-108722438D01*
X47370714Y-108722438D02*
X47465952Y-108674819D01*
X47465952Y-108674819D02*
X47704047Y-108674819D01*
X47704047Y-108674819D02*
X47799285Y-108722438D01*
X47799285Y-108722438D02*
X47846904Y-108770057D01*
X47846904Y-108770057D02*
X47894523Y-108865295D01*
X47894523Y-108865295D02*
X47894523Y-108960533D01*
X47894523Y-108960533D02*
X47846904Y-109103390D01*
X47846904Y-109103390D02*
X47275476Y-109674819D01*
X47275476Y-109674819D02*
X47894523Y-109674819D01*
X48799285Y-108674819D02*
X48323095Y-108674819D01*
X48323095Y-108674819D02*
X48275476Y-109151009D01*
X48275476Y-109151009D02*
X48323095Y-109103390D01*
X48323095Y-109103390D02*
X48418333Y-109055771D01*
X48418333Y-109055771D02*
X48656428Y-109055771D01*
X48656428Y-109055771D02*
X48751666Y-109103390D01*
X48751666Y-109103390D02*
X48799285Y-109151009D01*
X48799285Y-109151009D02*
X48846904Y-109246247D01*
X48846904Y-109246247D02*
X48846904Y-109484342D01*
X48846904Y-109484342D02*
X48799285Y-109579580D01*
X48799285Y-109579580D02*
X48751666Y-109627200D01*
X48751666Y-109627200D02*
X48656428Y-109674819D01*
X48656428Y-109674819D02*
X48418333Y-109674819D01*
X48418333Y-109674819D02*
X48323095Y-109627200D01*
X48323095Y-109627200D02*
X48275476Y-109579580D01*
X46863333Y-68939580D02*
X46815714Y-68987200D01*
X46815714Y-68987200D02*
X46672857Y-69034819D01*
X46672857Y-69034819D02*
X46577619Y-69034819D01*
X46577619Y-69034819D02*
X46434762Y-68987200D01*
X46434762Y-68987200D02*
X46339524Y-68891961D01*
X46339524Y-68891961D02*
X46291905Y-68796723D01*
X46291905Y-68796723D02*
X46244286Y-68606247D01*
X46244286Y-68606247D02*
X46244286Y-68463390D01*
X46244286Y-68463390D02*
X46291905Y-68272914D01*
X46291905Y-68272914D02*
X46339524Y-68177676D01*
X46339524Y-68177676D02*
X46434762Y-68082438D01*
X46434762Y-68082438D02*
X46577619Y-68034819D01*
X46577619Y-68034819D02*
X46672857Y-68034819D01*
X46672857Y-68034819D02*
X46815714Y-68082438D01*
X46815714Y-68082438D02*
X46863333Y-68130057D01*
X47339524Y-69034819D02*
X47530000Y-69034819D01*
X47530000Y-69034819D02*
X47625238Y-68987200D01*
X47625238Y-68987200D02*
X47672857Y-68939580D01*
X47672857Y-68939580D02*
X47768095Y-68796723D01*
X47768095Y-68796723D02*
X47815714Y-68606247D01*
X47815714Y-68606247D02*
X47815714Y-68225295D01*
X47815714Y-68225295D02*
X47768095Y-68130057D01*
X47768095Y-68130057D02*
X47720476Y-68082438D01*
X47720476Y-68082438D02*
X47625238Y-68034819D01*
X47625238Y-68034819D02*
X47434762Y-68034819D01*
X47434762Y-68034819D02*
X47339524Y-68082438D01*
X47339524Y-68082438D02*
X47291905Y-68130057D01*
X47291905Y-68130057D02*
X47244286Y-68225295D01*
X47244286Y-68225295D02*
X47244286Y-68463390D01*
X47244286Y-68463390D02*
X47291905Y-68558628D01*
X47291905Y-68558628D02*
X47339524Y-68606247D01*
X47339524Y-68606247D02*
X47434762Y-68653866D01*
X47434762Y-68653866D02*
X47625238Y-68653866D01*
X47625238Y-68653866D02*
X47720476Y-68606247D01*
X47720476Y-68606247D02*
X47768095Y-68558628D01*
X47768095Y-68558628D02*
X47815714Y-68463390D01*
X160687142Y-109579580D02*
X160639523Y-109627200D01*
X160639523Y-109627200D02*
X160496666Y-109674819D01*
X160496666Y-109674819D02*
X160401428Y-109674819D01*
X160401428Y-109674819D02*
X160258571Y-109627200D01*
X160258571Y-109627200D02*
X160163333Y-109531961D01*
X160163333Y-109531961D02*
X160115714Y-109436723D01*
X160115714Y-109436723D02*
X160068095Y-109246247D01*
X160068095Y-109246247D02*
X160068095Y-109103390D01*
X160068095Y-109103390D02*
X160115714Y-108912914D01*
X160115714Y-108912914D02*
X160163333Y-108817676D01*
X160163333Y-108817676D02*
X160258571Y-108722438D01*
X160258571Y-108722438D02*
X160401428Y-108674819D01*
X160401428Y-108674819D02*
X160496666Y-108674819D01*
X160496666Y-108674819D02*
X160639523Y-108722438D01*
X160639523Y-108722438D02*
X160687142Y-108770057D01*
X161639523Y-109674819D02*
X161068095Y-109674819D01*
X161353809Y-109674819D02*
X161353809Y-108674819D01*
X161353809Y-108674819D02*
X161258571Y-108817676D01*
X161258571Y-108817676D02*
X161163333Y-108912914D01*
X161163333Y-108912914D02*
X161068095Y-108960533D01*
X161972857Y-108674819D02*
X162591904Y-108674819D01*
X162591904Y-108674819D02*
X162258571Y-109055771D01*
X162258571Y-109055771D02*
X162401428Y-109055771D01*
X162401428Y-109055771D02*
X162496666Y-109103390D01*
X162496666Y-109103390D02*
X162544285Y-109151009D01*
X162544285Y-109151009D02*
X162591904Y-109246247D01*
X162591904Y-109246247D02*
X162591904Y-109484342D01*
X162591904Y-109484342D02*
X162544285Y-109579580D01*
X162544285Y-109579580D02*
X162496666Y-109627200D01*
X162496666Y-109627200D02*
X162401428Y-109674819D01*
X162401428Y-109674819D02*
X162115714Y-109674819D01*
X162115714Y-109674819D02*
X162020476Y-109627200D01*
X162020476Y-109627200D02*
X161972857Y-109579580D01*
X114927142Y-26394580D02*
X114879523Y-26442200D01*
X114879523Y-26442200D02*
X114736666Y-26489819D01*
X114736666Y-26489819D02*
X114641428Y-26489819D01*
X114641428Y-26489819D02*
X114498571Y-26442200D01*
X114498571Y-26442200D02*
X114403333Y-26346961D01*
X114403333Y-26346961D02*
X114355714Y-26251723D01*
X114355714Y-26251723D02*
X114308095Y-26061247D01*
X114308095Y-26061247D02*
X114308095Y-25918390D01*
X114308095Y-25918390D02*
X114355714Y-25727914D01*
X114355714Y-25727914D02*
X114403333Y-25632676D01*
X114403333Y-25632676D02*
X114498571Y-25537438D01*
X114498571Y-25537438D02*
X114641428Y-25489819D01*
X114641428Y-25489819D02*
X114736666Y-25489819D01*
X114736666Y-25489819D02*
X114879523Y-25537438D01*
X114879523Y-25537438D02*
X114927142Y-25585057D01*
X115308095Y-25585057D02*
X115355714Y-25537438D01*
X115355714Y-25537438D02*
X115450952Y-25489819D01*
X115450952Y-25489819D02*
X115689047Y-25489819D01*
X115689047Y-25489819D02*
X115784285Y-25537438D01*
X115784285Y-25537438D02*
X115831904Y-25585057D01*
X115831904Y-25585057D02*
X115879523Y-25680295D01*
X115879523Y-25680295D02*
X115879523Y-25775533D01*
X115879523Y-25775533D02*
X115831904Y-25918390D01*
X115831904Y-25918390D02*
X115260476Y-26489819D01*
X115260476Y-26489819D02*
X115879523Y-26489819D01*
X116212857Y-25489819D02*
X116831904Y-25489819D01*
X116831904Y-25489819D02*
X116498571Y-25870771D01*
X116498571Y-25870771D02*
X116641428Y-25870771D01*
X116641428Y-25870771D02*
X116736666Y-25918390D01*
X116736666Y-25918390D02*
X116784285Y-25966009D01*
X116784285Y-25966009D02*
X116831904Y-26061247D01*
X116831904Y-26061247D02*
X116831904Y-26299342D01*
X116831904Y-26299342D02*
X116784285Y-26394580D01*
X116784285Y-26394580D02*
X116736666Y-26442200D01*
X116736666Y-26442200D02*
X116641428Y-26489819D01*
X116641428Y-26489819D02*
X116355714Y-26489819D01*
X116355714Y-26489819D02*
X116260476Y-26442200D01*
X116260476Y-26442200D02*
X116212857Y-26394580D01*
X63551905Y-26119819D02*
X63551905Y-26929342D01*
X63551905Y-26929342D02*
X63599524Y-27024580D01*
X63599524Y-27024580D02*
X63647143Y-27072200D01*
X63647143Y-27072200D02*
X63742381Y-27119819D01*
X63742381Y-27119819D02*
X63932857Y-27119819D01*
X63932857Y-27119819D02*
X64028095Y-27072200D01*
X64028095Y-27072200D02*
X64075714Y-27024580D01*
X64075714Y-27024580D02*
X64123333Y-26929342D01*
X64123333Y-26929342D02*
X64123333Y-26119819D01*
X64551905Y-26215057D02*
X64599524Y-26167438D01*
X64599524Y-26167438D02*
X64694762Y-26119819D01*
X64694762Y-26119819D02*
X64932857Y-26119819D01*
X64932857Y-26119819D02*
X65028095Y-26167438D01*
X65028095Y-26167438D02*
X65075714Y-26215057D01*
X65075714Y-26215057D02*
X65123333Y-26310295D01*
X65123333Y-26310295D02*
X65123333Y-26405533D01*
X65123333Y-26405533D02*
X65075714Y-26548390D01*
X65075714Y-26548390D02*
X64504286Y-27119819D01*
X64504286Y-27119819D02*
X65123333Y-27119819D01*
X65456667Y-26119819D02*
X66123333Y-26119819D01*
X66123333Y-26119819D02*
X65694762Y-27119819D01*
X154971905Y-26334819D02*
X154971905Y-27144342D01*
X154971905Y-27144342D02*
X155019524Y-27239580D01*
X155019524Y-27239580D02*
X155067143Y-27287200D01*
X155067143Y-27287200D02*
X155162381Y-27334819D01*
X155162381Y-27334819D02*
X155352857Y-27334819D01*
X155352857Y-27334819D02*
X155448095Y-27287200D01*
X155448095Y-27287200D02*
X155495714Y-27239580D01*
X155495714Y-27239580D02*
X155543333Y-27144342D01*
X155543333Y-27144342D02*
X155543333Y-26334819D01*
X155971905Y-26430057D02*
X156019524Y-26382438D01*
X156019524Y-26382438D02*
X156114762Y-26334819D01*
X156114762Y-26334819D02*
X156352857Y-26334819D01*
X156352857Y-26334819D02*
X156448095Y-26382438D01*
X156448095Y-26382438D02*
X156495714Y-26430057D01*
X156495714Y-26430057D02*
X156543333Y-26525295D01*
X156543333Y-26525295D02*
X156543333Y-26620533D01*
X156543333Y-26620533D02*
X156495714Y-26763390D01*
X156495714Y-26763390D02*
X155924286Y-27334819D01*
X155924286Y-27334819D02*
X156543333Y-27334819D01*
X157495714Y-27334819D02*
X156924286Y-27334819D01*
X157210000Y-27334819D02*
X157210000Y-26334819D01*
X157210000Y-26334819D02*
X157114762Y-26477676D01*
X157114762Y-26477676D02*
X157019524Y-26572914D01*
X157019524Y-26572914D02*
X156924286Y-26620533D01*
X137747142Y-109579580D02*
X137699523Y-109627200D01*
X137699523Y-109627200D02*
X137556666Y-109674819D01*
X137556666Y-109674819D02*
X137461428Y-109674819D01*
X137461428Y-109674819D02*
X137318571Y-109627200D01*
X137318571Y-109627200D02*
X137223333Y-109531961D01*
X137223333Y-109531961D02*
X137175714Y-109436723D01*
X137175714Y-109436723D02*
X137128095Y-109246247D01*
X137128095Y-109246247D02*
X137128095Y-109103390D01*
X137128095Y-109103390D02*
X137175714Y-108912914D01*
X137175714Y-108912914D02*
X137223333Y-108817676D01*
X137223333Y-108817676D02*
X137318571Y-108722438D01*
X137318571Y-108722438D02*
X137461428Y-108674819D01*
X137461428Y-108674819D02*
X137556666Y-108674819D01*
X137556666Y-108674819D02*
X137699523Y-108722438D01*
X137699523Y-108722438D02*
X137747142Y-108770057D01*
X138699523Y-109674819D02*
X138128095Y-109674819D01*
X138413809Y-109674819D02*
X138413809Y-108674819D01*
X138413809Y-108674819D02*
X138318571Y-108817676D01*
X138318571Y-108817676D02*
X138223333Y-108912914D01*
X138223333Y-108912914D02*
X138128095Y-108960533D01*
X139556666Y-109008152D02*
X139556666Y-109674819D01*
X139318571Y-108627200D02*
X139080476Y-109341485D01*
X139080476Y-109341485D02*
X139699523Y-109341485D01*
X223551905Y-109309819D02*
X223551905Y-110119342D01*
X223551905Y-110119342D02*
X223599524Y-110214580D01*
X223599524Y-110214580D02*
X223647143Y-110262200D01*
X223647143Y-110262200D02*
X223742381Y-110309819D01*
X223742381Y-110309819D02*
X223932857Y-110309819D01*
X223932857Y-110309819D02*
X224028095Y-110262200D01*
X224028095Y-110262200D02*
X224075714Y-110214580D01*
X224075714Y-110214580D02*
X224123333Y-110119342D01*
X224123333Y-110119342D02*
X224123333Y-109309819D01*
X225123333Y-110309819D02*
X224551905Y-110309819D01*
X224837619Y-110309819D02*
X224837619Y-109309819D01*
X224837619Y-109309819D02*
X224742381Y-109452676D01*
X224742381Y-109452676D02*
X224647143Y-109547914D01*
X224647143Y-109547914D02*
X224551905Y-109595533D01*
X225742381Y-109309819D02*
X225837619Y-109309819D01*
X225837619Y-109309819D02*
X225932857Y-109357438D01*
X225932857Y-109357438D02*
X225980476Y-109405057D01*
X225980476Y-109405057D02*
X226028095Y-109500295D01*
X226028095Y-109500295D02*
X226075714Y-109690771D01*
X226075714Y-109690771D02*
X226075714Y-109928866D01*
X226075714Y-109928866D02*
X226028095Y-110119342D01*
X226028095Y-110119342D02*
X225980476Y-110214580D01*
X225980476Y-110214580D02*
X225932857Y-110262200D01*
X225932857Y-110262200D02*
X225837619Y-110309819D01*
X225837619Y-110309819D02*
X225742381Y-110309819D01*
X225742381Y-110309819D02*
X225647143Y-110262200D01*
X225647143Y-110262200D02*
X225599524Y-110214580D01*
X225599524Y-110214580D02*
X225551905Y-110119342D01*
X225551905Y-110119342D02*
X225504286Y-109928866D01*
X225504286Y-109928866D02*
X225504286Y-109690771D01*
X225504286Y-109690771D02*
X225551905Y-109500295D01*
X225551905Y-109500295D02*
X225599524Y-109405057D01*
X225599524Y-109405057D02*
X225647143Y-109357438D01*
X225647143Y-109357438D02*
X225742381Y-109309819D01*
X161123333Y-68939580D02*
X161075714Y-68987200D01*
X161075714Y-68987200D02*
X160932857Y-69034819D01*
X160932857Y-69034819D02*
X160837619Y-69034819D01*
X160837619Y-69034819D02*
X160694762Y-68987200D01*
X160694762Y-68987200D02*
X160599524Y-68891961D01*
X160599524Y-68891961D02*
X160551905Y-68796723D01*
X160551905Y-68796723D02*
X160504286Y-68606247D01*
X160504286Y-68606247D02*
X160504286Y-68463390D01*
X160504286Y-68463390D02*
X160551905Y-68272914D01*
X160551905Y-68272914D02*
X160599524Y-68177676D01*
X160599524Y-68177676D02*
X160694762Y-68082438D01*
X160694762Y-68082438D02*
X160837619Y-68034819D01*
X160837619Y-68034819D02*
X160932857Y-68034819D01*
X160932857Y-68034819D02*
X161075714Y-68082438D01*
X161075714Y-68082438D02*
X161123333Y-68130057D01*
X161980476Y-68368152D02*
X161980476Y-69034819D01*
X161742381Y-67987200D02*
X161504286Y-68701485D01*
X161504286Y-68701485D02*
X162123333Y-68701485D01*
X109251905Y-109309819D02*
X109251905Y-110119342D01*
X109251905Y-110119342D02*
X109299524Y-110214580D01*
X109299524Y-110214580D02*
X109347143Y-110262200D01*
X109347143Y-110262200D02*
X109442381Y-110309819D01*
X109442381Y-110309819D02*
X109632857Y-110309819D01*
X109632857Y-110309819D02*
X109728095Y-110262200D01*
X109728095Y-110262200D02*
X109775714Y-110214580D01*
X109775714Y-110214580D02*
X109823333Y-110119342D01*
X109823333Y-110119342D02*
X109823333Y-109309819D01*
X110823333Y-110309819D02*
X110251905Y-110309819D01*
X110537619Y-110309819D02*
X110537619Y-109309819D01*
X110537619Y-109309819D02*
X110442381Y-109452676D01*
X110442381Y-109452676D02*
X110347143Y-109547914D01*
X110347143Y-109547914D02*
X110251905Y-109595533D01*
X111728095Y-109309819D02*
X111251905Y-109309819D01*
X111251905Y-109309819D02*
X111204286Y-109786009D01*
X111204286Y-109786009D02*
X111251905Y-109738390D01*
X111251905Y-109738390D02*
X111347143Y-109690771D01*
X111347143Y-109690771D02*
X111585238Y-109690771D01*
X111585238Y-109690771D02*
X111680476Y-109738390D01*
X111680476Y-109738390D02*
X111728095Y-109786009D01*
X111728095Y-109786009D02*
X111775714Y-109881247D01*
X111775714Y-109881247D02*
X111775714Y-110119342D01*
X111775714Y-110119342D02*
X111728095Y-110214580D01*
X111728095Y-110214580D02*
X111680476Y-110262200D01*
X111680476Y-110262200D02*
X111585238Y-110309819D01*
X111585238Y-110309819D02*
X111347143Y-110309819D01*
X111347143Y-110309819D02*
X111251905Y-110262200D01*
X111251905Y-110262200D02*
X111204286Y-110214580D01*
X64166905Y-109309819D02*
X64166905Y-110119342D01*
X64166905Y-110119342D02*
X64214524Y-110214580D01*
X64214524Y-110214580D02*
X64262143Y-110262200D01*
X64262143Y-110262200D02*
X64357381Y-110309819D01*
X64357381Y-110309819D02*
X64547857Y-110309819D01*
X64547857Y-110309819D02*
X64643095Y-110262200D01*
X64643095Y-110262200D02*
X64690714Y-110214580D01*
X64690714Y-110214580D02*
X64738333Y-110119342D01*
X64738333Y-110119342D02*
X64738333Y-109309819D01*
X65166905Y-109405057D02*
X65214524Y-109357438D01*
X65214524Y-109357438D02*
X65309762Y-109309819D01*
X65309762Y-109309819D02*
X65547857Y-109309819D01*
X65547857Y-109309819D02*
X65643095Y-109357438D01*
X65643095Y-109357438D02*
X65690714Y-109405057D01*
X65690714Y-109405057D02*
X65738333Y-109500295D01*
X65738333Y-109500295D02*
X65738333Y-109595533D01*
X65738333Y-109595533D02*
X65690714Y-109738390D01*
X65690714Y-109738390D02*
X65119286Y-110309819D01*
X65119286Y-110309819D02*
X65738333Y-110309819D01*
X66357381Y-109309819D02*
X66452619Y-109309819D01*
X66452619Y-109309819D02*
X66547857Y-109357438D01*
X66547857Y-109357438D02*
X66595476Y-109405057D01*
X66595476Y-109405057D02*
X66643095Y-109500295D01*
X66643095Y-109500295D02*
X66690714Y-109690771D01*
X66690714Y-109690771D02*
X66690714Y-109928866D01*
X66690714Y-109928866D02*
X66643095Y-110119342D01*
X66643095Y-110119342D02*
X66595476Y-110214580D01*
X66595476Y-110214580D02*
X66547857Y-110262200D01*
X66547857Y-110262200D02*
X66452619Y-110309819D01*
X66452619Y-110309819D02*
X66357381Y-110309819D01*
X66357381Y-110309819D02*
X66262143Y-110262200D01*
X66262143Y-110262200D02*
X66214524Y-110214580D01*
X66214524Y-110214580D02*
X66166905Y-110119342D01*
X66166905Y-110119342D02*
X66119286Y-109928866D01*
X66119286Y-109928866D02*
X66119286Y-109690771D01*
X66119286Y-109690771D02*
X66166905Y-109500295D01*
X66166905Y-109500295D02*
X66214524Y-109405057D01*
X66214524Y-109405057D02*
X66262143Y-109357438D01*
X66262143Y-109357438D02*
X66357381Y-109309819D01*
X184578333Y-68939580D02*
X184530714Y-68987200D01*
X184530714Y-68987200D02*
X184387857Y-69034819D01*
X184387857Y-69034819D02*
X184292619Y-69034819D01*
X184292619Y-69034819D02*
X184149762Y-68987200D01*
X184149762Y-68987200D02*
X184054524Y-68891961D01*
X184054524Y-68891961D02*
X184006905Y-68796723D01*
X184006905Y-68796723D02*
X183959286Y-68606247D01*
X183959286Y-68606247D02*
X183959286Y-68463390D01*
X183959286Y-68463390D02*
X184006905Y-68272914D01*
X184006905Y-68272914D02*
X184054524Y-68177676D01*
X184054524Y-68177676D02*
X184149762Y-68082438D01*
X184149762Y-68082438D02*
X184292619Y-68034819D01*
X184292619Y-68034819D02*
X184387857Y-68034819D01*
X184387857Y-68034819D02*
X184530714Y-68082438D01*
X184530714Y-68082438D02*
X184578333Y-68130057D01*
X184911667Y-68034819D02*
X185530714Y-68034819D01*
X185530714Y-68034819D02*
X185197381Y-68415771D01*
X185197381Y-68415771D02*
X185340238Y-68415771D01*
X185340238Y-68415771D02*
X185435476Y-68463390D01*
X185435476Y-68463390D02*
X185483095Y-68511009D01*
X185483095Y-68511009D02*
X185530714Y-68606247D01*
X185530714Y-68606247D02*
X185530714Y-68844342D01*
X185530714Y-68844342D02*
X185483095Y-68939580D01*
X185483095Y-68939580D02*
X185435476Y-68987200D01*
X185435476Y-68987200D02*
X185340238Y-69034819D01*
X185340238Y-69034819D02*
X185054524Y-69034819D01*
X185054524Y-69034819D02*
X184959286Y-68987200D01*
X184959286Y-68987200D02*
X184911667Y-68939580D01*
X154971905Y-109309819D02*
X154971905Y-110119342D01*
X154971905Y-110119342D02*
X155019524Y-110214580D01*
X155019524Y-110214580D02*
X155067143Y-110262200D01*
X155067143Y-110262200D02*
X155162381Y-110309819D01*
X155162381Y-110309819D02*
X155352857Y-110309819D01*
X155352857Y-110309819D02*
X155448095Y-110262200D01*
X155448095Y-110262200D02*
X155495714Y-110214580D01*
X155495714Y-110214580D02*
X155543333Y-110119342D01*
X155543333Y-110119342D02*
X155543333Y-109309819D01*
X156543333Y-110309819D02*
X155971905Y-110309819D01*
X156257619Y-110309819D02*
X156257619Y-109309819D01*
X156257619Y-109309819D02*
X156162381Y-109452676D01*
X156162381Y-109452676D02*
X156067143Y-109547914D01*
X156067143Y-109547914D02*
X155971905Y-109595533D01*
X156876667Y-109309819D02*
X157495714Y-109309819D01*
X157495714Y-109309819D02*
X157162381Y-109690771D01*
X157162381Y-109690771D02*
X157305238Y-109690771D01*
X157305238Y-109690771D02*
X157400476Y-109738390D01*
X157400476Y-109738390D02*
X157448095Y-109786009D01*
X157448095Y-109786009D02*
X157495714Y-109881247D01*
X157495714Y-109881247D02*
X157495714Y-110119342D01*
X157495714Y-110119342D02*
X157448095Y-110214580D01*
X157448095Y-110214580D02*
X157400476Y-110262200D01*
X157400476Y-110262200D02*
X157305238Y-110309819D01*
X157305238Y-110309819D02*
X157019524Y-110309819D01*
X157019524Y-110309819D02*
X156924286Y-110262200D01*
X156924286Y-110262200D02*
X156876667Y-110214580D01*
X160607142Y-26394580D02*
X160559523Y-26442200D01*
X160559523Y-26442200D02*
X160416666Y-26489819D01*
X160416666Y-26489819D02*
X160321428Y-26489819D01*
X160321428Y-26489819D02*
X160178571Y-26442200D01*
X160178571Y-26442200D02*
X160083333Y-26346961D01*
X160083333Y-26346961D02*
X160035714Y-26251723D01*
X160035714Y-26251723D02*
X159988095Y-26061247D01*
X159988095Y-26061247D02*
X159988095Y-25918390D01*
X159988095Y-25918390D02*
X160035714Y-25727914D01*
X160035714Y-25727914D02*
X160083333Y-25632676D01*
X160083333Y-25632676D02*
X160178571Y-25537438D01*
X160178571Y-25537438D02*
X160321428Y-25489819D01*
X160321428Y-25489819D02*
X160416666Y-25489819D01*
X160416666Y-25489819D02*
X160559523Y-25537438D01*
X160559523Y-25537438D02*
X160607142Y-25585057D01*
X160988095Y-25585057D02*
X161035714Y-25537438D01*
X161035714Y-25537438D02*
X161130952Y-25489819D01*
X161130952Y-25489819D02*
X161369047Y-25489819D01*
X161369047Y-25489819D02*
X161464285Y-25537438D01*
X161464285Y-25537438D02*
X161511904Y-25585057D01*
X161511904Y-25585057D02*
X161559523Y-25680295D01*
X161559523Y-25680295D02*
X161559523Y-25775533D01*
X161559523Y-25775533D02*
X161511904Y-25918390D01*
X161511904Y-25918390D02*
X160940476Y-26489819D01*
X160940476Y-26489819D02*
X161559523Y-26489819D01*
X162511904Y-26489819D02*
X161940476Y-26489819D01*
X162226190Y-26489819D02*
X162226190Y-25489819D01*
X162226190Y-25489819D02*
X162130952Y-25632676D01*
X162130952Y-25632676D02*
X162035714Y-25727914D01*
X162035714Y-25727914D02*
X161940476Y-25775533D01*
X41188095Y-68669819D02*
X41188095Y-69479342D01*
X41188095Y-69479342D02*
X41235714Y-69574580D01*
X41235714Y-69574580D02*
X41283333Y-69622200D01*
X41283333Y-69622200D02*
X41378571Y-69669819D01*
X41378571Y-69669819D02*
X41569047Y-69669819D01*
X41569047Y-69669819D02*
X41664285Y-69622200D01*
X41664285Y-69622200D02*
X41711904Y-69574580D01*
X41711904Y-69574580D02*
X41759523Y-69479342D01*
X41759523Y-69479342D02*
X41759523Y-68669819D01*
X42283333Y-69669819D02*
X42473809Y-69669819D01*
X42473809Y-69669819D02*
X42569047Y-69622200D01*
X42569047Y-69622200D02*
X42616666Y-69574580D01*
X42616666Y-69574580D02*
X42711904Y-69431723D01*
X42711904Y-69431723D02*
X42759523Y-69241247D01*
X42759523Y-69241247D02*
X42759523Y-68860295D01*
X42759523Y-68860295D02*
X42711904Y-68765057D01*
X42711904Y-68765057D02*
X42664285Y-68717438D01*
X42664285Y-68717438D02*
X42569047Y-68669819D01*
X42569047Y-68669819D02*
X42378571Y-68669819D01*
X42378571Y-68669819D02*
X42283333Y-68717438D01*
X42283333Y-68717438D02*
X42235714Y-68765057D01*
X42235714Y-68765057D02*
X42188095Y-68860295D01*
X42188095Y-68860295D02*
X42188095Y-69098390D01*
X42188095Y-69098390D02*
X42235714Y-69193628D01*
X42235714Y-69193628D02*
X42283333Y-69241247D01*
X42283333Y-69241247D02*
X42378571Y-69288866D01*
X42378571Y-69288866D02*
X42569047Y-69288866D01*
X42569047Y-69288866D02*
X42664285Y-69241247D01*
X42664285Y-69241247D02*
X42711904Y-69193628D01*
X42711904Y-69193628D02*
X42759523Y-69098390D01*
X114887142Y-109579580D02*
X114839523Y-109627200D01*
X114839523Y-109627200D02*
X114696666Y-109674819D01*
X114696666Y-109674819D02*
X114601428Y-109674819D01*
X114601428Y-109674819D02*
X114458571Y-109627200D01*
X114458571Y-109627200D02*
X114363333Y-109531961D01*
X114363333Y-109531961D02*
X114315714Y-109436723D01*
X114315714Y-109436723D02*
X114268095Y-109246247D01*
X114268095Y-109246247D02*
X114268095Y-109103390D01*
X114268095Y-109103390D02*
X114315714Y-108912914D01*
X114315714Y-108912914D02*
X114363333Y-108817676D01*
X114363333Y-108817676D02*
X114458571Y-108722438D01*
X114458571Y-108722438D02*
X114601428Y-108674819D01*
X114601428Y-108674819D02*
X114696666Y-108674819D01*
X114696666Y-108674819D02*
X114839523Y-108722438D01*
X114839523Y-108722438D02*
X114887142Y-108770057D01*
X115839523Y-109674819D02*
X115268095Y-109674819D01*
X115553809Y-109674819D02*
X115553809Y-108674819D01*
X115553809Y-108674819D02*
X115458571Y-108817676D01*
X115458571Y-108817676D02*
X115363333Y-108912914D01*
X115363333Y-108912914D02*
X115268095Y-108960533D01*
X116744285Y-108674819D02*
X116268095Y-108674819D01*
X116268095Y-108674819D02*
X116220476Y-109151009D01*
X116220476Y-109151009D02*
X116268095Y-109103390D01*
X116268095Y-109103390D02*
X116363333Y-109055771D01*
X116363333Y-109055771D02*
X116601428Y-109055771D01*
X116601428Y-109055771D02*
X116696666Y-109103390D01*
X116696666Y-109103390D02*
X116744285Y-109151009D01*
X116744285Y-109151009D02*
X116791904Y-109246247D01*
X116791904Y-109246247D02*
X116791904Y-109484342D01*
X116791904Y-109484342D02*
X116744285Y-109579580D01*
X116744285Y-109579580D02*
X116696666Y-109627200D01*
X116696666Y-109627200D02*
X116601428Y-109674819D01*
X116601428Y-109674819D02*
X116363333Y-109674819D01*
X116363333Y-109674819D02*
X116268095Y-109627200D01*
X116268095Y-109627200D02*
X116220476Y-109579580D01*
X109728095Y-68669819D02*
X109728095Y-69479342D01*
X109728095Y-69479342D02*
X109775714Y-69574580D01*
X109775714Y-69574580D02*
X109823333Y-69622200D01*
X109823333Y-69622200D02*
X109918571Y-69669819D01*
X109918571Y-69669819D02*
X110109047Y-69669819D01*
X110109047Y-69669819D02*
X110204285Y-69622200D01*
X110204285Y-69622200D02*
X110251904Y-69574580D01*
X110251904Y-69574580D02*
X110299523Y-69479342D01*
X110299523Y-69479342D02*
X110299523Y-68669819D01*
X111204285Y-68669819D02*
X111013809Y-68669819D01*
X111013809Y-68669819D02*
X110918571Y-68717438D01*
X110918571Y-68717438D02*
X110870952Y-68765057D01*
X110870952Y-68765057D02*
X110775714Y-68907914D01*
X110775714Y-68907914D02*
X110728095Y-69098390D01*
X110728095Y-69098390D02*
X110728095Y-69479342D01*
X110728095Y-69479342D02*
X110775714Y-69574580D01*
X110775714Y-69574580D02*
X110823333Y-69622200D01*
X110823333Y-69622200D02*
X110918571Y-69669819D01*
X110918571Y-69669819D02*
X111109047Y-69669819D01*
X111109047Y-69669819D02*
X111204285Y-69622200D01*
X111204285Y-69622200D02*
X111251904Y-69574580D01*
X111251904Y-69574580D02*
X111299523Y-69479342D01*
X111299523Y-69479342D02*
X111299523Y-69241247D01*
X111299523Y-69241247D02*
X111251904Y-69146009D01*
X111251904Y-69146009D02*
X111204285Y-69098390D01*
X111204285Y-69098390D02*
X111109047Y-69050771D01*
X111109047Y-69050771D02*
X110918571Y-69050771D01*
X110918571Y-69050771D02*
X110823333Y-69098390D01*
X110823333Y-69098390D02*
X110775714Y-69146009D01*
X110775714Y-69146009D02*
X110728095Y-69241247D01*
X132588095Y-68669819D02*
X132588095Y-69479342D01*
X132588095Y-69479342D02*
X132635714Y-69574580D01*
X132635714Y-69574580D02*
X132683333Y-69622200D01*
X132683333Y-69622200D02*
X132778571Y-69669819D01*
X132778571Y-69669819D02*
X132969047Y-69669819D01*
X132969047Y-69669819D02*
X133064285Y-69622200D01*
X133064285Y-69622200D02*
X133111904Y-69574580D01*
X133111904Y-69574580D02*
X133159523Y-69479342D01*
X133159523Y-69479342D02*
X133159523Y-68669819D01*
X134111904Y-68669819D02*
X133635714Y-68669819D01*
X133635714Y-68669819D02*
X133588095Y-69146009D01*
X133588095Y-69146009D02*
X133635714Y-69098390D01*
X133635714Y-69098390D02*
X133730952Y-69050771D01*
X133730952Y-69050771D02*
X133969047Y-69050771D01*
X133969047Y-69050771D02*
X134064285Y-69098390D01*
X134064285Y-69098390D02*
X134111904Y-69146009D01*
X134111904Y-69146009D02*
X134159523Y-69241247D01*
X134159523Y-69241247D02*
X134159523Y-69479342D01*
X134159523Y-69479342D02*
X134111904Y-69574580D01*
X134111904Y-69574580D02*
X134064285Y-69622200D01*
X134064285Y-69622200D02*
X133969047Y-69669819D01*
X133969047Y-69669819D02*
X133730952Y-69669819D01*
X133730952Y-69669819D02*
X133635714Y-69622200D01*
X133635714Y-69622200D02*
X133588095Y-69574580D01*
X201168095Y-68669819D02*
X201168095Y-69479342D01*
X201168095Y-69479342D02*
X201215714Y-69574580D01*
X201215714Y-69574580D02*
X201263333Y-69622200D01*
X201263333Y-69622200D02*
X201358571Y-69669819D01*
X201358571Y-69669819D02*
X201549047Y-69669819D01*
X201549047Y-69669819D02*
X201644285Y-69622200D01*
X201644285Y-69622200D02*
X201691904Y-69574580D01*
X201691904Y-69574580D02*
X201739523Y-69479342D01*
X201739523Y-69479342D02*
X201739523Y-68669819D01*
X202168095Y-68765057D02*
X202215714Y-68717438D01*
X202215714Y-68717438D02*
X202310952Y-68669819D01*
X202310952Y-68669819D02*
X202549047Y-68669819D01*
X202549047Y-68669819D02*
X202644285Y-68717438D01*
X202644285Y-68717438D02*
X202691904Y-68765057D01*
X202691904Y-68765057D02*
X202739523Y-68860295D01*
X202739523Y-68860295D02*
X202739523Y-68955533D01*
X202739523Y-68955533D02*
X202691904Y-69098390D01*
X202691904Y-69098390D02*
X202120476Y-69669819D01*
X202120476Y-69669819D02*
X202739523Y-69669819D01*
X224028095Y-68669819D02*
X224028095Y-69479342D01*
X224028095Y-69479342D02*
X224075714Y-69574580D01*
X224075714Y-69574580D02*
X224123333Y-69622200D01*
X224123333Y-69622200D02*
X224218571Y-69669819D01*
X224218571Y-69669819D02*
X224409047Y-69669819D01*
X224409047Y-69669819D02*
X224504285Y-69622200D01*
X224504285Y-69622200D02*
X224551904Y-69574580D01*
X224551904Y-69574580D02*
X224599523Y-69479342D01*
X224599523Y-69479342D02*
X224599523Y-68669819D01*
X225599523Y-69669819D02*
X225028095Y-69669819D01*
X225313809Y-69669819D02*
X225313809Y-68669819D01*
X225313809Y-68669819D02*
X225218571Y-68812676D01*
X225218571Y-68812676D02*
X225123333Y-68907914D01*
X225123333Y-68907914D02*
X225028095Y-68955533D01*
X64008095Y-68669819D02*
X64008095Y-69479342D01*
X64008095Y-69479342D02*
X64055714Y-69574580D01*
X64055714Y-69574580D02*
X64103333Y-69622200D01*
X64103333Y-69622200D02*
X64198571Y-69669819D01*
X64198571Y-69669819D02*
X64389047Y-69669819D01*
X64389047Y-69669819D02*
X64484285Y-69622200D01*
X64484285Y-69622200D02*
X64531904Y-69574580D01*
X64531904Y-69574580D02*
X64579523Y-69479342D01*
X64579523Y-69479342D02*
X64579523Y-68669819D01*
X65198571Y-69098390D02*
X65103333Y-69050771D01*
X65103333Y-69050771D02*
X65055714Y-69003152D01*
X65055714Y-69003152D02*
X65008095Y-68907914D01*
X65008095Y-68907914D02*
X65008095Y-68860295D01*
X65008095Y-68860295D02*
X65055714Y-68765057D01*
X65055714Y-68765057D02*
X65103333Y-68717438D01*
X65103333Y-68717438D02*
X65198571Y-68669819D01*
X65198571Y-68669819D02*
X65389047Y-68669819D01*
X65389047Y-68669819D02*
X65484285Y-68717438D01*
X65484285Y-68717438D02*
X65531904Y-68765057D01*
X65531904Y-68765057D02*
X65579523Y-68860295D01*
X65579523Y-68860295D02*
X65579523Y-68907914D01*
X65579523Y-68907914D02*
X65531904Y-69003152D01*
X65531904Y-69003152D02*
X65484285Y-69050771D01*
X65484285Y-69050771D02*
X65389047Y-69098390D01*
X65389047Y-69098390D02*
X65198571Y-69098390D01*
X65198571Y-69098390D02*
X65103333Y-69146009D01*
X65103333Y-69146009D02*
X65055714Y-69193628D01*
X65055714Y-69193628D02*
X65008095Y-69288866D01*
X65008095Y-69288866D02*
X65008095Y-69479342D01*
X65008095Y-69479342D02*
X65055714Y-69574580D01*
X65055714Y-69574580D02*
X65103333Y-69622200D01*
X65103333Y-69622200D02*
X65198571Y-69669819D01*
X65198571Y-69669819D02*
X65389047Y-69669819D01*
X65389047Y-69669819D02*
X65484285Y-69622200D01*
X65484285Y-69622200D02*
X65531904Y-69574580D01*
X65531904Y-69574580D02*
X65579523Y-69479342D01*
X65579523Y-69479342D02*
X65579523Y-69288866D01*
X65579523Y-69288866D02*
X65531904Y-69193628D01*
X65531904Y-69193628D02*
X65484285Y-69146009D01*
X65484285Y-69146009D02*
X65389047Y-69098390D01*
X69227142Y-26389580D02*
X69179523Y-26437200D01*
X69179523Y-26437200D02*
X69036666Y-26484819D01*
X69036666Y-26484819D02*
X68941428Y-26484819D01*
X68941428Y-26484819D02*
X68798571Y-26437200D01*
X68798571Y-26437200D02*
X68703333Y-26341961D01*
X68703333Y-26341961D02*
X68655714Y-26246723D01*
X68655714Y-26246723D02*
X68608095Y-26056247D01*
X68608095Y-26056247D02*
X68608095Y-25913390D01*
X68608095Y-25913390D02*
X68655714Y-25722914D01*
X68655714Y-25722914D02*
X68703333Y-25627676D01*
X68703333Y-25627676D02*
X68798571Y-25532438D01*
X68798571Y-25532438D02*
X68941428Y-25484819D01*
X68941428Y-25484819D02*
X69036666Y-25484819D01*
X69036666Y-25484819D02*
X69179523Y-25532438D01*
X69179523Y-25532438D02*
X69227142Y-25580057D01*
X69608095Y-25580057D02*
X69655714Y-25532438D01*
X69655714Y-25532438D02*
X69750952Y-25484819D01*
X69750952Y-25484819D02*
X69989047Y-25484819D01*
X69989047Y-25484819D02*
X70084285Y-25532438D01*
X70084285Y-25532438D02*
X70131904Y-25580057D01*
X70131904Y-25580057D02*
X70179523Y-25675295D01*
X70179523Y-25675295D02*
X70179523Y-25770533D01*
X70179523Y-25770533D02*
X70131904Y-25913390D01*
X70131904Y-25913390D02*
X69560476Y-26484819D01*
X69560476Y-26484819D02*
X70179523Y-26484819D01*
X70512857Y-25484819D02*
X71179523Y-25484819D01*
X71179523Y-25484819D02*
X70750952Y-26484819D01*
X40671905Y-26334819D02*
X40671905Y-27144342D01*
X40671905Y-27144342D02*
X40719524Y-27239580D01*
X40719524Y-27239580D02*
X40767143Y-27287200D01*
X40767143Y-27287200D02*
X40862381Y-27334819D01*
X40862381Y-27334819D02*
X41052857Y-27334819D01*
X41052857Y-27334819D02*
X41148095Y-27287200D01*
X41148095Y-27287200D02*
X41195714Y-27239580D01*
X41195714Y-27239580D02*
X41243333Y-27144342D01*
X41243333Y-27144342D02*
X41243333Y-26334819D01*
X41671905Y-26430057D02*
X41719524Y-26382438D01*
X41719524Y-26382438D02*
X41814762Y-26334819D01*
X41814762Y-26334819D02*
X42052857Y-26334819D01*
X42052857Y-26334819D02*
X42148095Y-26382438D01*
X42148095Y-26382438D02*
X42195714Y-26430057D01*
X42195714Y-26430057D02*
X42243333Y-26525295D01*
X42243333Y-26525295D02*
X42243333Y-26620533D01*
X42243333Y-26620533D02*
X42195714Y-26763390D01*
X42195714Y-26763390D02*
X41624286Y-27334819D01*
X41624286Y-27334819D02*
X42243333Y-27334819D01*
X43100476Y-26334819D02*
X42910000Y-26334819D01*
X42910000Y-26334819D02*
X42814762Y-26382438D01*
X42814762Y-26382438D02*
X42767143Y-26430057D01*
X42767143Y-26430057D02*
X42671905Y-26572914D01*
X42671905Y-26572914D02*
X42624286Y-26763390D01*
X42624286Y-26763390D02*
X42624286Y-27144342D01*
X42624286Y-27144342D02*
X42671905Y-27239580D01*
X42671905Y-27239580D02*
X42719524Y-27287200D01*
X42719524Y-27287200D02*
X42814762Y-27334819D01*
X42814762Y-27334819D02*
X43005238Y-27334819D01*
X43005238Y-27334819D02*
X43100476Y-27287200D01*
X43100476Y-27287200D02*
X43148095Y-27239580D01*
X43148095Y-27239580D02*
X43195714Y-27144342D01*
X43195714Y-27144342D02*
X43195714Y-26906247D01*
X43195714Y-26906247D02*
X43148095Y-26811009D01*
X43148095Y-26811009D02*
X43100476Y-26763390D01*
X43100476Y-26763390D02*
X43005238Y-26715771D01*
X43005238Y-26715771D02*
X42814762Y-26715771D01*
X42814762Y-26715771D02*
X42719524Y-26763390D01*
X42719524Y-26763390D02*
X42671905Y-26811009D01*
X42671905Y-26811009D02*
X42624286Y-26906247D01*
X86868095Y-68669819D02*
X86868095Y-69479342D01*
X86868095Y-69479342D02*
X86915714Y-69574580D01*
X86915714Y-69574580D02*
X86963333Y-69622200D01*
X86963333Y-69622200D02*
X87058571Y-69669819D01*
X87058571Y-69669819D02*
X87249047Y-69669819D01*
X87249047Y-69669819D02*
X87344285Y-69622200D01*
X87344285Y-69622200D02*
X87391904Y-69574580D01*
X87391904Y-69574580D02*
X87439523Y-69479342D01*
X87439523Y-69479342D02*
X87439523Y-68669819D01*
X87820476Y-68669819D02*
X88487142Y-68669819D01*
X88487142Y-68669819D02*
X88058571Y-69669819D01*
X92107142Y-26394580D02*
X92059523Y-26442200D01*
X92059523Y-26442200D02*
X91916666Y-26489819D01*
X91916666Y-26489819D02*
X91821428Y-26489819D01*
X91821428Y-26489819D02*
X91678571Y-26442200D01*
X91678571Y-26442200D02*
X91583333Y-26346961D01*
X91583333Y-26346961D02*
X91535714Y-26251723D01*
X91535714Y-26251723D02*
X91488095Y-26061247D01*
X91488095Y-26061247D02*
X91488095Y-25918390D01*
X91488095Y-25918390D02*
X91535714Y-25727914D01*
X91535714Y-25727914D02*
X91583333Y-25632676D01*
X91583333Y-25632676D02*
X91678571Y-25537438D01*
X91678571Y-25537438D02*
X91821428Y-25489819D01*
X91821428Y-25489819D02*
X91916666Y-25489819D01*
X91916666Y-25489819D02*
X92059523Y-25537438D01*
X92059523Y-25537438D02*
X92107142Y-25585057D01*
X92488095Y-25585057D02*
X92535714Y-25537438D01*
X92535714Y-25537438D02*
X92630952Y-25489819D01*
X92630952Y-25489819D02*
X92869047Y-25489819D01*
X92869047Y-25489819D02*
X92964285Y-25537438D01*
X92964285Y-25537438D02*
X93011904Y-25585057D01*
X93011904Y-25585057D02*
X93059523Y-25680295D01*
X93059523Y-25680295D02*
X93059523Y-25775533D01*
X93059523Y-25775533D02*
X93011904Y-25918390D01*
X93011904Y-25918390D02*
X92440476Y-26489819D01*
X92440476Y-26489819D02*
X93059523Y-26489819D01*
X93916666Y-25823152D02*
X93916666Y-26489819D01*
X93678571Y-25442200D02*
X93440476Y-26156485D01*
X93440476Y-26156485D02*
X94059523Y-26156485D01*
X46347142Y-26394580D02*
X46299523Y-26442200D01*
X46299523Y-26442200D02*
X46156666Y-26489819D01*
X46156666Y-26489819D02*
X46061428Y-26489819D01*
X46061428Y-26489819D02*
X45918571Y-26442200D01*
X45918571Y-26442200D02*
X45823333Y-26346961D01*
X45823333Y-26346961D02*
X45775714Y-26251723D01*
X45775714Y-26251723D02*
X45728095Y-26061247D01*
X45728095Y-26061247D02*
X45728095Y-25918390D01*
X45728095Y-25918390D02*
X45775714Y-25727914D01*
X45775714Y-25727914D02*
X45823333Y-25632676D01*
X45823333Y-25632676D02*
X45918571Y-25537438D01*
X45918571Y-25537438D02*
X46061428Y-25489819D01*
X46061428Y-25489819D02*
X46156666Y-25489819D01*
X46156666Y-25489819D02*
X46299523Y-25537438D01*
X46299523Y-25537438D02*
X46347142Y-25585057D01*
X46728095Y-25585057D02*
X46775714Y-25537438D01*
X46775714Y-25537438D02*
X46870952Y-25489819D01*
X46870952Y-25489819D02*
X47109047Y-25489819D01*
X47109047Y-25489819D02*
X47204285Y-25537438D01*
X47204285Y-25537438D02*
X47251904Y-25585057D01*
X47251904Y-25585057D02*
X47299523Y-25680295D01*
X47299523Y-25680295D02*
X47299523Y-25775533D01*
X47299523Y-25775533D02*
X47251904Y-25918390D01*
X47251904Y-25918390D02*
X46680476Y-26489819D01*
X46680476Y-26489819D02*
X47299523Y-26489819D01*
X48156666Y-25489819D02*
X47966190Y-25489819D01*
X47966190Y-25489819D02*
X47870952Y-25537438D01*
X47870952Y-25537438D02*
X47823333Y-25585057D01*
X47823333Y-25585057D02*
X47728095Y-25727914D01*
X47728095Y-25727914D02*
X47680476Y-25918390D01*
X47680476Y-25918390D02*
X47680476Y-26299342D01*
X47680476Y-26299342D02*
X47728095Y-26394580D01*
X47728095Y-26394580D02*
X47775714Y-26442200D01*
X47775714Y-26442200D02*
X47870952Y-26489819D01*
X47870952Y-26489819D02*
X48061428Y-26489819D01*
X48061428Y-26489819D02*
X48156666Y-26442200D01*
X48156666Y-26442200D02*
X48204285Y-26394580D01*
X48204285Y-26394580D02*
X48251904Y-26299342D01*
X48251904Y-26299342D02*
X48251904Y-26061247D01*
X48251904Y-26061247D02*
X48204285Y-25966009D01*
X48204285Y-25966009D02*
X48156666Y-25918390D01*
X48156666Y-25918390D02*
X48061428Y-25870771D01*
X48061428Y-25870771D02*
X47870952Y-25870771D01*
X47870952Y-25870771D02*
X47775714Y-25918390D01*
X47775714Y-25918390D02*
X47728095Y-25966009D01*
X47728095Y-25966009D02*
X47680476Y-26061247D01*
X60158333Y-114119819D02*
X59825000Y-113643628D01*
X59586905Y-114119819D02*
X59586905Y-113119819D01*
X59586905Y-113119819D02*
X59967857Y-113119819D01*
X59967857Y-113119819D02*
X60063095Y-113167438D01*
X60063095Y-113167438D02*
X60110714Y-113215057D01*
X60110714Y-113215057D02*
X60158333Y-113310295D01*
X60158333Y-113310295D02*
X60158333Y-113453152D01*
X60158333Y-113453152D02*
X60110714Y-113548390D01*
X60110714Y-113548390D02*
X60063095Y-113596009D01*
X60063095Y-113596009D02*
X59967857Y-113643628D01*
X59967857Y-113643628D02*
X59586905Y-113643628D01*
X60539286Y-113215057D02*
X60586905Y-113167438D01*
X60586905Y-113167438D02*
X60682143Y-113119819D01*
X60682143Y-113119819D02*
X60920238Y-113119819D01*
X60920238Y-113119819D02*
X61015476Y-113167438D01*
X61015476Y-113167438D02*
X61063095Y-113215057D01*
X61063095Y-113215057D02*
X61110714Y-113310295D01*
X61110714Y-113310295D02*
X61110714Y-113405533D01*
X61110714Y-113405533D02*
X61063095Y-113548390D01*
X61063095Y-113548390D02*
X60491667Y-114119819D01*
X60491667Y-114119819D02*
X61110714Y-114119819D01*
X62653152Y-117228809D02*
X63319819Y-117228809D01*
X62272200Y-117466904D02*
X62986485Y-117704999D01*
X62986485Y-117704999D02*
X62986485Y-117085952D01*
X63224580Y-116704999D02*
X63272200Y-116657380D01*
X63272200Y-116657380D02*
X63319819Y-116704999D01*
X63319819Y-116704999D02*
X63272200Y-116752618D01*
X63272200Y-116752618D02*
X63224580Y-116704999D01*
X63224580Y-116704999D02*
X63319819Y-116704999D01*
X62319819Y-116324047D02*
X62319819Y-115657381D01*
X62319819Y-115657381D02*
X63319819Y-116085952D01*
X63319819Y-115276428D02*
X62319819Y-115276428D01*
X63319819Y-114705000D02*
X62748390Y-115133571D01*
X62319819Y-114705000D02*
X62891247Y-115276428D01*
X229623333Y-68939580D02*
X229575714Y-68987200D01*
X229575714Y-68987200D02*
X229432857Y-69034819D01*
X229432857Y-69034819D02*
X229337619Y-69034819D01*
X229337619Y-69034819D02*
X229194762Y-68987200D01*
X229194762Y-68987200D02*
X229099524Y-68891961D01*
X229099524Y-68891961D02*
X229051905Y-68796723D01*
X229051905Y-68796723D02*
X229004286Y-68606247D01*
X229004286Y-68606247D02*
X229004286Y-68463390D01*
X229004286Y-68463390D02*
X229051905Y-68272914D01*
X229051905Y-68272914D02*
X229099524Y-68177676D01*
X229099524Y-68177676D02*
X229194762Y-68082438D01*
X229194762Y-68082438D02*
X229337619Y-68034819D01*
X229337619Y-68034819D02*
X229432857Y-68034819D01*
X229432857Y-68034819D02*
X229575714Y-68082438D01*
X229575714Y-68082438D02*
X229623333Y-68130057D01*
X230575714Y-69034819D02*
X230004286Y-69034819D01*
X230290000Y-69034819D02*
X230290000Y-68034819D01*
X230290000Y-68034819D02*
X230194762Y-68177676D01*
X230194762Y-68177676D02*
X230099524Y-68272914D01*
X230099524Y-68272914D02*
X230004286Y-68320533D01*
X43874742Y-135024580D02*
X43827123Y-135072200D01*
X43827123Y-135072200D02*
X43684266Y-135119819D01*
X43684266Y-135119819D02*
X43589028Y-135119819D01*
X43589028Y-135119819D02*
X43446171Y-135072200D01*
X43446171Y-135072200D02*
X43350933Y-134976961D01*
X43350933Y-134976961D02*
X43303314Y-134881723D01*
X43303314Y-134881723D02*
X43255695Y-134691247D01*
X43255695Y-134691247D02*
X43255695Y-134548390D01*
X43255695Y-134548390D02*
X43303314Y-134357914D01*
X43303314Y-134357914D02*
X43350933Y-134262676D01*
X43350933Y-134262676D02*
X43446171Y-134167438D01*
X43446171Y-134167438D02*
X43589028Y-134119819D01*
X43589028Y-134119819D02*
X43684266Y-134119819D01*
X43684266Y-134119819D02*
X43827123Y-134167438D01*
X43827123Y-134167438D02*
X43874742Y-134215057D01*
X44255695Y-134215057D02*
X44303314Y-134167438D01*
X44303314Y-134167438D02*
X44398552Y-134119819D01*
X44398552Y-134119819D02*
X44636647Y-134119819D01*
X44636647Y-134119819D02*
X44731885Y-134167438D01*
X44731885Y-134167438D02*
X44779504Y-134215057D01*
X44779504Y-134215057D02*
X44827123Y-134310295D01*
X44827123Y-134310295D02*
X44827123Y-134405533D01*
X44827123Y-134405533D02*
X44779504Y-134548390D01*
X44779504Y-134548390D02*
X44208076Y-135119819D01*
X44208076Y-135119819D02*
X44827123Y-135119819D01*
X45398552Y-134548390D02*
X45303314Y-134500771D01*
X45303314Y-134500771D02*
X45255695Y-134453152D01*
X45255695Y-134453152D02*
X45208076Y-134357914D01*
X45208076Y-134357914D02*
X45208076Y-134310295D01*
X45208076Y-134310295D02*
X45255695Y-134215057D01*
X45255695Y-134215057D02*
X45303314Y-134167438D01*
X45303314Y-134167438D02*
X45398552Y-134119819D01*
X45398552Y-134119819D02*
X45589028Y-134119819D01*
X45589028Y-134119819D02*
X45684266Y-134167438D01*
X45684266Y-134167438D02*
X45731885Y-134215057D01*
X45731885Y-134215057D02*
X45779504Y-134310295D01*
X45779504Y-134310295D02*
X45779504Y-134357914D01*
X45779504Y-134357914D02*
X45731885Y-134453152D01*
X45731885Y-134453152D02*
X45684266Y-134500771D01*
X45684266Y-134500771D02*
X45589028Y-134548390D01*
X45589028Y-134548390D02*
X45398552Y-134548390D01*
X45398552Y-134548390D02*
X45303314Y-134596009D01*
X45303314Y-134596009D02*
X45255695Y-134643628D01*
X45255695Y-134643628D02*
X45208076Y-134738866D01*
X45208076Y-134738866D02*
X45208076Y-134929342D01*
X45208076Y-134929342D02*
X45255695Y-135024580D01*
X45255695Y-135024580D02*
X45303314Y-135072200D01*
X45303314Y-135072200D02*
X45398552Y-135119819D01*
X45398552Y-135119819D02*
X45589028Y-135119819D01*
X45589028Y-135119819D02*
X45684266Y-135072200D01*
X45684266Y-135072200D02*
X45731885Y-135024580D01*
X45731885Y-135024580D02*
X45779504Y-134929342D01*
X45779504Y-134929342D02*
X45779504Y-134738866D01*
X45779504Y-134738866D02*
X45731885Y-134643628D01*
X45731885Y-134643628D02*
X45684266Y-134596009D01*
X45684266Y-134596009D02*
X45589028Y-134548390D01*
X229267142Y-26394580D02*
X229219523Y-26442200D01*
X229219523Y-26442200D02*
X229076666Y-26489819D01*
X229076666Y-26489819D02*
X228981428Y-26489819D01*
X228981428Y-26489819D02*
X228838571Y-26442200D01*
X228838571Y-26442200D02*
X228743333Y-26346961D01*
X228743333Y-26346961D02*
X228695714Y-26251723D01*
X228695714Y-26251723D02*
X228648095Y-26061247D01*
X228648095Y-26061247D02*
X228648095Y-25918390D01*
X228648095Y-25918390D02*
X228695714Y-25727914D01*
X228695714Y-25727914D02*
X228743333Y-25632676D01*
X228743333Y-25632676D02*
X228838571Y-25537438D01*
X228838571Y-25537438D02*
X228981428Y-25489819D01*
X228981428Y-25489819D02*
X229076666Y-25489819D01*
X229076666Y-25489819D02*
X229219523Y-25537438D01*
X229219523Y-25537438D02*
X229267142Y-25585057D01*
X230219523Y-26489819D02*
X229648095Y-26489819D01*
X229933809Y-26489819D02*
X229933809Y-25489819D01*
X229933809Y-25489819D02*
X229838571Y-25632676D01*
X229838571Y-25632676D02*
X229743333Y-25727914D01*
X229743333Y-25727914D02*
X229648095Y-25775533D01*
X231076666Y-25489819D02*
X230886190Y-25489819D01*
X230886190Y-25489819D02*
X230790952Y-25537438D01*
X230790952Y-25537438D02*
X230743333Y-25585057D01*
X230743333Y-25585057D02*
X230648095Y-25727914D01*
X230648095Y-25727914D02*
X230600476Y-25918390D01*
X230600476Y-25918390D02*
X230600476Y-26299342D01*
X230600476Y-26299342D02*
X230648095Y-26394580D01*
X230648095Y-26394580D02*
X230695714Y-26442200D01*
X230695714Y-26442200D02*
X230790952Y-26489819D01*
X230790952Y-26489819D02*
X230981428Y-26489819D01*
X230981428Y-26489819D02*
X231076666Y-26442200D01*
X231076666Y-26442200D02*
X231124285Y-26394580D01*
X231124285Y-26394580D02*
X231171904Y-26299342D01*
X231171904Y-26299342D02*
X231171904Y-26061247D01*
X231171904Y-26061247D02*
X231124285Y-25966009D01*
X231124285Y-25966009D02*
X231076666Y-25918390D01*
X231076666Y-25918390D02*
X230981428Y-25870771D01*
X230981428Y-25870771D02*
X230790952Y-25870771D01*
X230790952Y-25870771D02*
X230695714Y-25918390D01*
X230695714Y-25918390D02*
X230648095Y-25966009D01*
X230648095Y-25966009D02*
X230600476Y-26061247D01*
X234616666Y-148314819D02*
X234616666Y-149029104D01*
X234616666Y-149029104D02*
X234569047Y-149171961D01*
X234569047Y-149171961D02*
X234473809Y-149267200D01*
X234473809Y-149267200D02*
X234330952Y-149314819D01*
X234330952Y-149314819D02*
X234235714Y-149314819D01*
X235045238Y-148410057D02*
X235092857Y-148362438D01*
X235092857Y-148362438D02*
X235188095Y-148314819D01*
X235188095Y-148314819D02*
X235426190Y-148314819D01*
X235426190Y-148314819D02*
X235521428Y-148362438D01*
X235521428Y-148362438D02*
X235569047Y-148410057D01*
X235569047Y-148410057D02*
X235616666Y-148505295D01*
X235616666Y-148505295D02*
X235616666Y-148600533D01*
X235616666Y-148600533D02*
X235569047Y-148743390D01*
X235569047Y-148743390D02*
X234997619Y-149314819D01*
X234997619Y-149314819D02*
X235616666Y-149314819D01*
X137827142Y-26394580D02*
X137779523Y-26442200D01*
X137779523Y-26442200D02*
X137636666Y-26489819D01*
X137636666Y-26489819D02*
X137541428Y-26489819D01*
X137541428Y-26489819D02*
X137398571Y-26442200D01*
X137398571Y-26442200D02*
X137303333Y-26346961D01*
X137303333Y-26346961D02*
X137255714Y-26251723D01*
X137255714Y-26251723D02*
X137208095Y-26061247D01*
X137208095Y-26061247D02*
X137208095Y-25918390D01*
X137208095Y-25918390D02*
X137255714Y-25727914D01*
X137255714Y-25727914D02*
X137303333Y-25632676D01*
X137303333Y-25632676D02*
X137398571Y-25537438D01*
X137398571Y-25537438D02*
X137541428Y-25489819D01*
X137541428Y-25489819D02*
X137636666Y-25489819D01*
X137636666Y-25489819D02*
X137779523Y-25537438D01*
X137779523Y-25537438D02*
X137827142Y-25585057D01*
X138208095Y-25585057D02*
X138255714Y-25537438D01*
X138255714Y-25537438D02*
X138350952Y-25489819D01*
X138350952Y-25489819D02*
X138589047Y-25489819D01*
X138589047Y-25489819D02*
X138684285Y-25537438D01*
X138684285Y-25537438D02*
X138731904Y-25585057D01*
X138731904Y-25585057D02*
X138779523Y-25680295D01*
X138779523Y-25680295D02*
X138779523Y-25775533D01*
X138779523Y-25775533D02*
X138731904Y-25918390D01*
X138731904Y-25918390D02*
X138160476Y-26489819D01*
X138160476Y-26489819D02*
X138779523Y-26489819D01*
X139160476Y-25585057D02*
X139208095Y-25537438D01*
X139208095Y-25537438D02*
X139303333Y-25489819D01*
X139303333Y-25489819D02*
X139541428Y-25489819D01*
X139541428Y-25489819D02*
X139636666Y-25537438D01*
X139636666Y-25537438D02*
X139684285Y-25585057D01*
X139684285Y-25585057D02*
X139731904Y-25680295D01*
X139731904Y-25680295D02*
X139731904Y-25775533D01*
X139731904Y-25775533D02*
X139684285Y-25918390D01*
X139684285Y-25918390D02*
X139112857Y-26489819D01*
X139112857Y-26489819D02*
X139731904Y-26489819D01*
X155448095Y-68669819D02*
X155448095Y-69479342D01*
X155448095Y-69479342D02*
X155495714Y-69574580D01*
X155495714Y-69574580D02*
X155543333Y-69622200D01*
X155543333Y-69622200D02*
X155638571Y-69669819D01*
X155638571Y-69669819D02*
X155829047Y-69669819D01*
X155829047Y-69669819D02*
X155924285Y-69622200D01*
X155924285Y-69622200D02*
X155971904Y-69574580D01*
X155971904Y-69574580D02*
X156019523Y-69479342D01*
X156019523Y-69479342D02*
X156019523Y-68669819D01*
X156924285Y-69003152D02*
X156924285Y-69669819D01*
X156686190Y-68622200D02*
X156448095Y-69336485D01*
X156448095Y-69336485D02*
X157067142Y-69336485D01*
X132111905Y-109309819D02*
X132111905Y-110119342D01*
X132111905Y-110119342D02*
X132159524Y-110214580D01*
X132159524Y-110214580D02*
X132207143Y-110262200D01*
X132207143Y-110262200D02*
X132302381Y-110309819D01*
X132302381Y-110309819D02*
X132492857Y-110309819D01*
X132492857Y-110309819D02*
X132588095Y-110262200D01*
X132588095Y-110262200D02*
X132635714Y-110214580D01*
X132635714Y-110214580D02*
X132683333Y-110119342D01*
X132683333Y-110119342D02*
X132683333Y-109309819D01*
X133683333Y-110309819D02*
X133111905Y-110309819D01*
X133397619Y-110309819D02*
X133397619Y-109309819D01*
X133397619Y-109309819D02*
X133302381Y-109452676D01*
X133302381Y-109452676D02*
X133207143Y-109547914D01*
X133207143Y-109547914D02*
X133111905Y-109595533D01*
X134540476Y-109643152D02*
X134540476Y-110309819D01*
X134302381Y-109262200D02*
X134064286Y-109976485D01*
X134064286Y-109976485D02*
X134683333Y-109976485D01*
X183507142Y-26394580D02*
X183459523Y-26442200D01*
X183459523Y-26442200D02*
X183316666Y-26489819D01*
X183316666Y-26489819D02*
X183221428Y-26489819D01*
X183221428Y-26489819D02*
X183078571Y-26442200D01*
X183078571Y-26442200D02*
X182983333Y-26346961D01*
X182983333Y-26346961D02*
X182935714Y-26251723D01*
X182935714Y-26251723D02*
X182888095Y-26061247D01*
X182888095Y-26061247D02*
X182888095Y-25918390D01*
X182888095Y-25918390D02*
X182935714Y-25727914D01*
X182935714Y-25727914D02*
X182983333Y-25632676D01*
X182983333Y-25632676D02*
X183078571Y-25537438D01*
X183078571Y-25537438D02*
X183221428Y-25489819D01*
X183221428Y-25489819D02*
X183316666Y-25489819D01*
X183316666Y-25489819D02*
X183459523Y-25537438D01*
X183459523Y-25537438D02*
X183507142Y-25585057D01*
X184459523Y-26489819D02*
X183888095Y-26489819D01*
X184173809Y-26489819D02*
X184173809Y-25489819D01*
X184173809Y-25489819D02*
X184078571Y-25632676D01*
X184078571Y-25632676D02*
X183983333Y-25727914D01*
X183983333Y-25727914D02*
X183888095Y-25775533D01*
X185030952Y-25918390D02*
X184935714Y-25870771D01*
X184935714Y-25870771D02*
X184888095Y-25823152D01*
X184888095Y-25823152D02*
X184840476Y-25727914D01*
X184840476Y-25727914D02*
X184840476Y-25680295D01*
X184840476Y-25680295D02*
X184888095Y-25585057D01*
X184888095Y-25585057D02*
X184935714Y-25537438D01*
X184935714Y-25537438D02*
X185030952Y-25489819D01*
X185030952Y-25489819D02*
X185221428Y-25489819D01*
X185221428Y-25489819D02*
X185316666Y-25537438D01*
X185316666Y-25537438D02*
X185364285Y-25585057D01*
X185364285Y-25585057D02*
X185411904Y-25680295D01*
X185411904Y-25680295D02*
X185411904Y-25727914D01*
X185411904Y-25727914D02*
X185364285Y-25823152D01*
X185364285Y-25823152D02*
X185316666Y-25870771D01*
X185316666Y-25870771D02*
X185221428Y-25918390D01*
X185221428Y-25918390D02*
X185030952Y-25918390D01*
X185030952Y-25918390D02*
X184935714Y-25966009D01*
X184935714Y-25966009D02*
X184888095Y-26013628D01*
X184888095Y-26013628D02*
X184840476Y-26108866D01*
X184840476Y-26108866D02*
X184840476Y-26299342D01*
X184840476Y-26299342D02*
X184888095Y-26394580D01*
X184888095Y-26394580D02*
X184935714Y-26442200D01*
X184935714Y-26442200D02*
X185030952Y-26489819D01*
X185030952Y-26489819D02*
X185221428Y-26489819D01*
X185221428Y-26489819D02*
X185316666Y-26442200D01*
X185316666Y-26442200D02*
X185364285Y-26394580D01*
X185364285Y-26394580D02*
X185411904Y-26299342D01*
X185411904Y-26299342D02*
X185411904Y-26108866D01*
X185411904Y-26108866D02*
X185364285Y-26013628D01*
X185364285Y-26013628D02*
X185316666Y-25966009D01*
X185316666Y-25966009D02*
X185221428Y-25918390D01*
X229227142Y-109579580D02*
X229179523Y-109627200D01*
X229179523Y-109627200D02*
X229036666Y-109674819D01*
X229036666Y-109674819D02*
X228941428Y-109674819D01*
X228941428Y-109674819D02*
X228798571Y-109627200D01*
X228798571Y-109627200D02*
X228703333Y-109531961D01*
X228703333Y-109531961D02*
X228655714Y-109436723D01*
X228655714Y-109436723D02*
X228608095Y-109246247D01*
X228608095Y-109246247D02*
X228608095Y-109103390D01*
X228608095Y-109103390D02*
X228655714Y-108912914D01*
X228655714Y-108912914D02*
X228703333Y-108817676D01*
X228703333Y-108817676D02*
X228798571Y-108722438D01*
X228798571Y-108722438D02*
X228941428Y-108674819D01*
X228941428Y-108674819D02*
X229036666Y-108674819D01*
X229036666Y-108674819D02*
X229179523Y-108722438D01*
X229179523Y-108722438D02*
X229227142Y-108770057D01*
X230179523Y-109674819D02*
X229608095Y-109674819D01*
X229893809Y-109674819D02*
X229893809Y-108674819D01*
X229893809Y-108674819D02*
X229798571Y-108817676D01*
X229798571Y-108817676D02*
X229703333Y-108912914D01*
X229703333Y-108912914D02*
X229608095Y-108960533D01*
X230798571Y-108674819D02*
X230893809Y-108674819D01*
X230893809Y-108674819D02*
X230989047Y-108722438D01*
X230989047Y-108722438D02*
X231036666Y-108770057D01*
X231036666Y-108770057D02*
X231084285Y-108865295D01*
X231084285Y-108865295D02*
X231131904Y-109055771D01*
X231131904Y-109055771D02*
X231131904Y-109293866D01*
X231131904Y-109293866D02*
X231084285Y-109484342D01*
X231084285Y-109484342D02*
X231036666Y-109579580D01*
X231036666Y-109579580D02*
X230989047Y-109627200D01*
X230989047Y-109627200D02*
X230893809Y-109674819D01*
X230893809Y-109674819D02*
X230798571Y-109674819D01*
X230798571Y-109674819D02*
X230703333Y-109627200D01*
X230703333Y-109627200D02*
X230655714Y-109579580D01*
X230655714Y-109579580D02*
X230608095Y-109484342D01*
X230608095Y-109484342D02*
X230560476Y-109293866D01*
X230560476Y-109293866D02*
X230560476Y-109055771D01*
X230560476Y-109055771D02*
X230608095Y-108865295D01*
X230608095Y-108865295D02*
X230655714Y-108770057D01*
X230655714Y-108770057D02*
X230703333Y-108722438D01*
X230703333Y-108722438D02*
X230798571Y-108674819D01*
X86391905Y-109309819D02*
X86391905Y-110119342D01*
X86391905Y-110119342D02*
X86439524Y-110214580D01*
X86439524Y-110214580D02*
X86487143Y-110262200D01*
X86487143Y-110262200D02*
X86582381Y-110309819D01*
X86582381Y-110309819D02*
X86772857Y-110309819D01*
X86772857Y-110309819D02*
X86868095Y-110262200D01*
X86868095Y-110262200D02*
X86915714Y-110214580D01*
X86915714Y-110214580D02*
X86963333Y-110119342D01*
X86963333Y-110119342D02*
X86963333Y-109309819D01*
X87963333Y-110309819D02*
X87391905Y-110309819D01*
X87677619Y-110309819D02*
X87677619Y-109309819D01*
X87677619Y-109309819D02*
X87582381Y-109452676D01*
X87582381Y-109452676D02*
X87487143Y-109547914D01*
X87487143Y-109547914D02*
X87391905Y-109595533D01*
X88439524Y-110309819D02*
X88630000Y-110309819D01*
X88630000Y-110309819D02*
X88725238Y-110262200D01*
X88725238Y-110262200D02*
X88772857Y-110214580D01*
X88772857Y-110214580D02*
X88868095Y-110071723D01*
X88868095Y-110071723D02*
X88915714Y-109881247D01*
X88915714Y-109881247D02*
X88915714Y-109500295D01*
X88915714Y-109500295D02*
X88868095Y-109405057D01*
X88868095Y-109405057D02*
X88820476Y-109357438D01*
X88820476Y-109357438D02*
X88725238Y-109309819D01*
X88725238Y-109309819D02*
X88534762Y-109309819D01*
X88534762Y-109309819D02*
X88439524Y-109357438D01*
X88439524Y-109357438D02*
X88391905Y-109405057D01*
X88391905Y-109405057D02*
X88344286Y-109500295D01*
X88344286Y-109500295D02*
X88344286Y-109738390D01*
X88344286Y-109738390D02*
X88391905Y-109833628D01*
X88391905Y-109833628D02*
X88439524Y-109881247D01*
X88439524Y-109881247D02*
X88534762Y-109928866D01*
X88534762Y-109928866D02*
X88725238Y-109928866D01*
X88725238Y-109928866D02*
X88820476Y-109881247D01*
X88820476Y-109881247D02*
X88868095Y-109833628D01*
X88868095Y-109833628D02*
X88915714Y-109738390D01*
D12*
%TO.C,J1*%
X134255000Y-155160000D02*
X134255000Y-149600000D01*
X134255000Y-149600000D02*
X128735000Y-149600000D01*
X128736000Y-150600000D02*
X127460000Y-150600000D01*
X128735000Y-149600000D02*
X128735000Y-150600000D01*
X128060000Y-150160000D02*
X128060000Y-149560000D01*
X128060000Y-149560000D02*
X127460000Y-149860000D01*
X127460000Y-149860000D02*
X128060000Y-150160000D01*
X125270000Y-150600000D02*
X124694000Y-150600000D01*
X122955000Y-150600000D02*
X122154000Y-150600000D01*
X120415000Y-150600000D02*
X119614000Y-150600000D01*
X117875000Y-150600000D02*
X117074000Y-150600000D01*
X115335000Y-150600000D02*
X114534000Y-150600000D01*
X112795000Y-150600000D02*
X111994000Y-150600000D01*
X110255000Y-150600000D02*
X109454000Y-150600000D01*
X107715000Y-150600000D02*
X106914000Y-150600000D01*
X105175000Y-150600000D02*
X104374000Y-150600000D01*
X102635000Y-150600000D02*
X101834000Y-150600000D01*
X100095000Y-150600000D02*
X99294000Y-150600000D01*
X97555000Y-150600000D02*
X96754000Y-150600000D01*
X95015000Y-150600000D02*
X94214000Y-150600000D01*
X92475000Y-150600000D02*
X91674000Y-150600000D01*
X89935000Y-150600000D02*
X89134000Y-150600000D01*
X87395000Y-150600000D02*
X86594000Y-150600000D01*
X84855000Y-150600000D02*
X84054000Y-150600000D01*
X82315000Y-150600000D02*
X81514000Y-150600000D01*
X79775000Y-150600000D02*
X78974000Y-150600000D01*
X77235000Y-150600000D02*
X76434000Y-150600000D01*
X74695000Y-150600000D02*
X73894000Y-150600000D01*
X72155000Y-150600000D02*
X71354000Y-150600000D01*
X69615000Y-150600000D02*
X68814000Y-150600000D01*
X67075000Y-150600000D02*
X66274000Y-150600000D01*
X64535000Y-150600000D02*
X63734000Y-150600000D01*
X61995000Y-150600000D02*
X61194000Y-150600000D01*
X59455000Y-150600000D02*
X58654000Y-150600000D01*
X56915000Y-150600000D02*
X56114000Y-150600000D01*
X54375000Y-150600000D02*
X53574000Y-150600000D01*
X51835000Y-150600000D02*
X51034000Y-150600000D01*
X49295000Y-150600000D02*
X48494000Y-150600000D01*
X46755000Y-150600000D02*
X45255000Y-150600000D01*
X45255000Y-149600000D02*
X45255000Y-150600000D01*
X39735000Y-155160000D02*
X39735000Y-149600000D01*
X39735000Y-149600000D02*
X45255000Y-149600000D01*
%TO.C,C17*%
X209630000Y-27405000D02*
X209630000Y-27090000D01*
X209630000Y-27405000D02*
X204390000Y-27405000D01*
X209630000Y-24980000D02*
X209630000Y-24665000D01*
X209630000Y-24665000D02*
X204390000Y-24665000D01*
X204390000Y-27405000D02*
X204390000Y-27090000D01*
X204390000Y-24980000D02*
X204390000Y-24665000D01*
%TO.C,U17*%
X204350000Y-27880000D02*
X204350000Y-53400000D01*
X204350000Y-53400000D02*
X209650000Y-53400000D01*
X206000000Y-27880000D02*
X204350000Y-27880000D01*
X209650000Y-27880000D02*
X208000000Y-27880000D01*
X209650000Y-53400000D02*
X209650000Y-27880000D01*
X206000000Y-27880000D02*
G75*
G03*
X208000000Y-27880000I1000000J0D01*
G01*
%TO.C,U11*%
X204350000Y-111065000D02*
X204350000Y-136585000D01*
X204350000Y-136585000D02*
X209650000Y-136585000D01*
X206000000Y-111065000D02*
X204350000Y-111065000D01*
X209650000Y-111065000D02*
X208000000Y-111065000D01*
X209650000Y-136585000D02*
X209650000Y-111065000D01*
X206000000Y-111065000D02*
G75*
G03*
X208000000Y-111065000I1000000J0D01*
G01*
%TO.C,C6*%
X118150000Y-69950000D02*
X118150000Y-69635000D01*
X118150000Y-69950000D02*
X112910000Y-69950000D01*
X118150000Y-67525000D02*
X118150000Y-67210000D01*
X118150000Y-67210000D02*
X112910000Y-67210000D01*
X112910000Y-69950000D02*
X112910000Y-69635000D01*
X112910000Y-67525000D02*
X112910000Y-67210000D01*
%TO.C,C11*%
X209630000Y-110590000D02*
X209630000Y-110275000D01*
X209630000Y-110590000D02*
X204390000Y-110590000D01*
X209630000Y-108165000D02*
X209630000Y-107850000D01*
X209630000Y-107850000D02*
X204390000Y-107850000D01*
X204390000Y-110590000D02*
X204390000Y-110275000D01*
X204390000Y-108165000D02*
X204390000Y-107850000D01*
%TO.C,U16*%
X227210000Y-27880000D02*
X227210000Y-53400000D01*
X227210000Y-53400000D02*
X232510000Y-53400000D01*
X228860000Y-27880000D02*
X227210000Y-27880000D01*
X232510000Y-27880000D02*
X230860000Y-27880000D01*
X232510000Y-53400000D02*
X232510000Y-27880000D01*
X228860000Y-27880000D02*
G75*
G03*
X230860000Y-27880000I1000000J0D01*
G01*
%TO.C,C19*%
X95330000Y-110590000D02*
X95330000Y-110275000D01*
X95330000Y-110590000D02*
X90090000Y-110590000D01*
X95330000Y-108165000D02*
X95330000Y-107850000D01*
X95330000Y-107850000D02*
X90090000Y-107850000D01*
X90090000Y-110590000D02*
X90090000Y-110275000D01*
X90090000Y-108165000D02*
X90090000Y-107850000D01*
%TO.C,C2*%
X209630000Y-69950000D02*
X209630000Y-69635000D01*
X209630000Y-69950000D02*
X204390000Y-69950000D01*
X209630000Y-67525000D02*
X209630000Y-67210000D01*
X209630000Y-67210000D02*
X204390000Y-67210000D01*
X204390000Y-69950000D02*
X204390000Y-69635000D01*
X204390000Y-67525000D02*
X204390000Y-67210000D01*
%TO.C,C20*%
X73105000Y-110590000D02*
X73105000Y-110275000D01*
X73105000Y-110590000D02*
X67865000Y-110590000D01*
X73105000Y-108165000D02*
X73105000Y-107850000D01*
X73105000Y-107850000D02*
X67865000Y-107850000D01*
X67865000Y-110590000D02*
X67865000Y-110275000D01*
X67865000Y-108165000D02*
X67865000Y-107850000D01*
%TO.C,U12*%
X181490000Y-111065000D02*
X181490000Y-136585000D01*
X181490000Y-136585000D02*
X186790000Y-136585000D01*
X183140000Y-111065000D02*
X181490000Y-111065000D01*
X186790000Y-111065000D02*
X185140000Y-111065000D01*
X186790000Y-136585000D02*
X186790000Y-111065000D01*
X183140000Y-111065000D02*
G75*
G03*
X185140000Y-111065000I1000000J0D01*
G01*
%TO.C,U24*%
X90050000Y-27865000D02*
X90050000Y-48305000D01*
X90050000Y-48305000D02*
X95350000Y-48305000D01*
X91700000Y-27865000D02*
X90050000Y-27865000D01*
X95350000Y-27865000D02*
X93700000Y-27865000D01*
X95350000Y-48305000D02*
X95350000Y-27865000D01*
X91700000Y-27865000D02*
G75*
G03*
X93700000Y-27865000I1000000J0D01*
G01*
%TO.C,U18*%
X181490000Y-27880000D02*
X181490000Y-53400000D01*
X181490000Y-53400000D02*
X186790000Y-53400000D01*
X183140000Y-27880000D02*
X181490000Y-27880000D01*
X186790000Y-27880000D02*
X185140000Y-27880000D01*
X186790000Y-53400000D02*
X186790000Y-27880000D01*
X183140000Y-27880000D02*
G75*
G03*
X185140000Y-27880000I1000000J0D01*
G01*
%TO.C,C7*%
X95370000Y-69950000D02*
X95370000Y-69635000D01*
X95370000Y-69950000D02*
X90130000Y-69950000D01*
X95370000Y-67525000D02*
X95370000Y-67210000D01*
X95370000Y-67210000D02*
X90130000Y-67210000D01*
X90130000Y-69950000D02*
X90130000Y-69635000D01*
X90130000Y-67525000D02*
X90130000Y-67210000D01*
%TO.C,R1*%
X86460000Y-112935000D02*
X86460000Y-119475000D01*
X86130000Y-112935000D02*
X86460000Y-112935000D01*
X84050000Y-112935000D02*
X83720000Y-112935000D01*
X83720000Y-112935000D02*
X83720000Y-119475000D01*
X86460000Y-119475000D02*
X86130000Y-119475000D01*
X83720000Y-119475000D02*
X84050000Y-119475000D01*
%TO.C,C5*%
X141010000Y-69950000D02*
X141010000Y-69635000D01*
X141010000Y-69950000D02*
X135770000Y-69950000D01*
X141010000Y-67525000D02*
X141010000Y-67210000D01*
X141010000Y-67210000D02*
X135770000Y-67210000D01*
X135770000Y-69950000D02*
X135770000Y-69635000D01*
X135770000Y-67525000D02*
X135770000Y-67210000D01*
%TO.C,U3*%
X181500000Y-70425000D02*
X181500000Y-90865000D01*
X181500000Y-90865000D02*
X186800000Y-90865000D01*
X183150000Y-70425000D02*
X181500000Y-70425000D01*
X186800000Y-70425000D02*
X185150000Y-70425000D01*
X186800000Y-90865000D02*
X186800000Y-70425000D01*
X183150000Y-70425000D02*
G75*
G03*
X185150000Y-70425000I1000000J0D01*
G01*
%TO.C,C8*%
X72430000Y-69950000D02*
X72430000Y-69635000D01*
X72430000Y-69950000D02*
X67190000Y-69950000D01*
X72430000Y-67525000D02*
X72430000Y-67210000D01*
X72430000Y-67210000D02*
X67190000Y-67210000D01*
X67190000Y-69950000D02*
X67190000Y-69635000D01*
X67190000Y-67525000D02*
X67190000Y-67210000D01*
%TO.C,U23*%
X112910000Y-27880000D02*
X112910000Y-48320000D01*
X112910000Y-48320000D02*
X118210000Y-48320000D01*
X114560000Y-27880000D02*
X112910000Y-27880000D01*
X118210000Y-27880000D02*
X116560000Y-27880000D01*
X118210000Y-48320000D02*
X118210000Y-27880000D01*
X114560000Y-27880000D02*
G75*
G03*
X116560000Y-27880000I1000000J0D01*
G01*
%TO.C,U22*%
X135770000Y-27880000D02*
X135770000Y-48320000D01*
X135770000Y-48320000D02*
X141070000Y-48320000D01*
X137420000Y-27880000D02*
X135770000Y-27880000D01*
X141070000Y-27880000D02*
X139420000Y-27880000D01*
X141070000Y-48320000D02*
X141070000Y-27880000D01*
X137420000Y-27880000D02*
G75*
G03*
X139420000Y-27880000I1000000J0D01*
G01*
%TO.C,C12*%
X186770000Y-110590000D02*
X186770000Y-110275000D01*
X186770000Y-110590000D02*
X181530000Y-110590000D01*
X186770000Y-108165000D02*
X186770000Y-107850000D01*
X186770000Y-107850000D02*
X181530000Y-107850000D01*
X181530000Y-110590000D02*
X181530000Y-110275000D01*
X181530000Y-108165000D02*
X181530000Y-107850000D01*
%TO.C,U25*%
X44340000Y-111065000D02*
X44340000Y-128965000D01*
X44340000Y-128965000D02*
X49640000Y-128965000D01*
X45990000Y-111065000D02*
X44340000Y-111065000D01*
X49640000Y-111065000D02*
X47990000Y-111065000D01*
X49640000Y-128965000D02*
X49640000Y-111065000D01*
X45990000Y-111065000D02*
G75*
G03*
X47990000Y-111065000I1000000J0D01*
G01*
%TO.C,C25*%
X50205000Y-110590000D02*
X50205000Y-110275000D01*
X50205000Y-110590000D02*
X44965000Y-110590000D01*
X50205000Y-108165000D02*
X50205000Y-107850000D01*
X50205000Y-107850000D02*
X44965000Y-107850000D01*
X44965000Y-110590000D02*
X44965000Y-110275000D01*
X44965000Y-108165000D02*
X44965000Y-107850000D01*
%TO.C,C9*%
X49650000Y-69950000D02*
X49650000Y-69635000D01*
X49650000Y-69950000D02*
X44410000Y-69950000D01*
X49650000Y-67525000D02*
X49650000Y-67210000D01*
X49650000Y-67210000D02*
X44410000Y-67210000D01*
X44410000Y-69950000D02*
X44410000Y-69635000D01*
X44410000Y-67525000D02*
X44410000Y-67210000D01*
%TO.C,C13*%
X163910000Y-110590000D02*
X163910000Y-110275000D01*
X163910000Y-110590000D02*
X158670000Y-110590000D01*
X163910000Y-108165000D02*
X163910000Y-107850000D01*
X163910000Y-107850000D02*
X158670000Y-107850000D01*
X158670000Y-110590000D02*
X158670000Y-110275000D01*
X158670000Y-108165000D02*
X158670000Y-107850000D01*
%TO.C,C23*%
X118190000Y-27405000D02*
X118190000Y-27090000D01*
X118190000Y-27405000D02*
X112950000Y-27405000D01*
X118190000Y-24980000D02*
X118190000Y-24665000D01*
X118190000Y-24665000D02*
X112950000Y-24665000D01*
X112950000Y-27405000D02*
X112950000Y-27090000D01*
X112950000Y-24980000D02*
X112950000Y-24665000D01*
%TO.C,U27*%
X67210000Y-27875000D02*
X67210000Y-45775000D01*
X67210000Y-45775000D02*
X72510000Y-45775000D01*
X68860000Y-27875000D02*
X67210000Y-27875000D01*
X72510000Y-27875000D02*
X70860000Y-27875000D01*
X72510000Y-45775000D02*
X72510000Y-27875000D01*
X68860000Y-27875000D02*
G75*
G03*
X70860000Y-27875000I1000000J0D01*
G01*
%TO.C,U21*%
X158630000Y-27880000D02*
X158630000Y-48320000D01*
X158630000Y-48320000D02*
X163930000Y-48320000D01*
X160280000Y-27880000D02*
X158630000Y-27880000D01*
X163930000Y-27880000D02*
X162280000Y-27880000D01*
X163930000Y-48320000D02*
X163930000Y-27880000D01*
X160280000Y-27880000D02*
G75*
G03*
X162280000Y-27880000I1000000J0D01*
G01*
%TO.C,C14*%
X141010000Y-110590000D02*
X141010000Y-110275000D01*
X141010000Y-110590000D02*
X135770000Y-110590000D01*
X141010000Y-108165000D02*
X141010000Y-107850000D01*
X141010000Y-107850000D02*
X135770000Y-107850000D01*
X135770000Y-110590000D02*
X135770000Y-110275000D01*
X135770000Y-108165000D02*
X135770000Y-107850000D01*
%TO.C,U10*%
X227210000Y-111065000D02*
X227210000Y-136585000D01*
X227210000Y-136585000D02*
X232510000Y-136585000D01*
X228860000Y-111065000D02*
X227210000Y-111065000D01*
X232510000Y-111065000D02*
X230860000Y-111065000D01*
X232510000Y-136585000D02*
X232510000Y-111065000D01*
X228860000Y-111065000D02*
G75*
G03*
X230860000Y-111065000I1000000J0D01*
G01*
%TO.C,C4*%
X163910000Y-69950000D02*
X163910000Y-69635000D01*
X163910000Y-69950000D02*
X158670000Y-69950000D01*
X163910000Y-67525000D02*
X163910000Y-67210000D01*
X163910000Y-67210000D02*
X158670000Y-67210000D01*
X158670000Y-69950000D02*
X158670000Y-69635000D01*
X158670000Y-67525000D02*
X158670000Y-67210000D01*
%TO.C,U15*%
X112910000Y-111065000D02*
X112910000Y-136585000D01*
X112910000Y-136585000D02*
X118210000Y-136585000D01*
X114560000Y-111065000D02*
X112910000Y-111065000D01*
X118210000Y-111065000D02*
X116560000Y-111065000D01*
X118210000Y-136585000D02*
X118210000Y-111065000D01*
X114560000Y-111065000D02*
G75*
G03*
X116560000Y-111065000I1000000J0D01*
G01*
%TO.C,U20*%
X67190000Y-111050000D02*
X67190000Y-131490000D01*
X67190000Y-131490000D02*
X72490000Y-131490000D01*
X68840000Y-111050000D02*
X67190000Y-111050000D01*
X72490000Y-111050000D02*
X70840000Y-111050000D01*
X72490000Y-131490000D02*
X72490000Y-111050000D01*
X68840000Y-111050000D02*
G75*
G03*
X70840000Y-111050000I1000000J0D01*
G01*
%TO.C,C3*%
X187365000Y-69950000D02*
X187365000Y-69635000D01*
X187365000Y-69950000D02*
X182125000Y-69950000D01*
X187365000Y-67525000D02*
X187365000Y-67210000D01*
X187365000Y-67210000D02*
X182125000Y-67210000D01*
X182125000Y-69950000D02*
X182125000Y-69635000D01*
X182125000Y-67525000D02*
X182125000Y-67210000D01*
%TO.C,U13*%
X158630000Y-111065000D02*
X158630000Y-136585000D01*
X158630000Y-136585000D02*
X163930000Y-136585000D01*
X160280000Y-111065000D02*
X158630000Y-111065000D01*
X163930000Y-111065000D02*
X162280000Y-111065000D01*
X163930000Y-136585000D02*
X163930000Y-111065000D01*
X160280000Y-111065000D02*
G75*
G03*
X162280000Y-111065000I1000000J0D01*
G01*
%TO.C,C21*%
X163870000Y-27405000D02*
X163870000Y-27090000D01*
X163870000Y-27405000D02*
X158630000Y-27405000D01*
X163870000Y-24980000D02*
X163870000Y-24665000D01*
X163870000Y-24665000D02*
X158630000Y-24665000D01*
X158630000Y-27405000D02*
X158630000Y-27090000D01*
X158630000Y-24980000D02*
X158630000Y-24665000D01*
%TO.C,U9*%
X44370000Y-70410000D02*
X44370000Y-90850000D01*
X44370000Y-90850000D02*
X49670000Y-90850000D01*
X46020000Y-70410000D02*
X44370000Y-70410000D01*
X49670000Y-70410000D02*
X48020000Y-70410000D01*
X49670000Y-90850000D02*
X49670000Y-70410000D01*
X46020000Y-70410000D02*
G75*
G03*
X48020000Y-70410000I1000000J0D01*
G01*
%TO.C,C15*%
X118150000Y-110590000D02*
X118150000Y-110275000D01*
X118150000Y-110590000D02*
X112910000Y-110590000D01*
X118150000Y-108165000D02*
X118150000Y-107850000D01*
X118150000Y-107850000D02*
X112910000Y-107850000D01*
X112910000Y-110590000D02*
X112910000Y-110275000D01*
X112910000Y-108165000D02*
X112910000Y-107850000D01*
%TO.C,U6*%
X112910000Y-70425000D02*
X112910000Y-90865000D01*
X112910000Y-90865000D02*
X118210000Y-90865000D01*
X114560000Y-70425000D02*
X112910000Y-70425000D01*
X118210000Y-70425000D02*
X116560000Y-70425000D01*
X118210000Y-90865000D02*
X118210000Y-70425000D01*
X114560000Y-70425000D02*
G75*
G03*
X116560000Y-70425000I1000000J0D01*
G01*
%TO.C,U5*%
X135770000Y-70425000D02*
X135770000Y-90865000D01*
X135770000Y-90865000D02*
X141070000Y-90865000D01*
X137420000Y-70425000D02*
X135770000Y-70425000D01*
X141070000Y-70425000D02*
X139420000Y-70425000D01*
X141070000Y-90865000D02*
X141070000Y-70425000D01*
X137420000Y-70425000D02*
G75*
G03*
X139420000Y-70425000I1000000J0D01*
G01*
%TO.C,U2*%
X204350000Y-70425000D02*
X204350000Y-90865000D01*
X204350000Y-90865000D02*
X209650000Y-90865000D01*
X206000000Y-70425000D02*
X204350000Y-70425000D01*
X209650000Y-70425000D02*
X208000000Y-70425000D01*
X209650000Y-90865000D02*
X209650000Y-70425000D01*
X206000000Y-70425000D02*
G75*
G03*
X208000000Y-70425000I1000000J0D01*
G01*
%TO.C,U1*%
X227210000Y-70425000D02*
X227210000Y-90865000D01*
X227210000Y-90865000D02*
X232510000Y-90865000D01*
X228860000Y-70425000D02*
X227210000Y-70425000D01*
X232510000Y-70425000D02*
X230860000Y-70425000D01*
X232510000Y-90865000D02*
X232510000Y-70425000D01*
X228860000Y-70425000D02*
G75*
G03*
X230860000Y-70425000I1000000J0D01*
G01*
%TO.C,U8*%
X67190000Y-70410000D02*
X67190000Y-90850000D01*
X67190000Y-90850000D02*
X72490000Y-90850000D01*
X68840000Y-70410000D02*
X67190000Y-70410000D01*
X72490000Y-70410000D02*
X70840000Y-70410000D01*
X72490000Y-90850000D02*
X72490000Y-70410000D01*
X68840000Y-70410000D02*
G75*
G03*
X70840000Y-70410000I1000000J0D01*
G01*
%TO.C,C27*%
X72490000Y-27400000D02*
X72490000Y-27085000D01*
X72490000Y-27400000D02*
X67250000Y-27400000D01*
X72490000Y-24975000D02*
X72490000Y-24660000D01*
X72490000Y-24660000D02*
X67250000Y-24660000D01*
X67250000Y-27400000D02*
X67250000Y-27085000D01*
X67250000Y-24975000D02*
X67250000Y-24660000D01*
%TO.C,U26*%
X44330000Y-27880000D02*
X44330000Y-45780000D01*
X44330000Y-45780000D02*
X49630000Y-45780000D01*
X45980000Y-27880000D02*
X44330000Y-27880000D01*
X49630000Y-27880000D02*
X47980000Y-27880000D01*
X49630000Y-45780000D02*
X49630000Y-27880000D01*
X45980000Y-27880000D02*
G75*
G03*
X47980000Y-27880000I1000000J0D01*
G01*
%TO.C,U7*%
X90050000Y-70410000D02*
X90050000Y-90850000D01*
X90050000Y-90850000D02*
X95350000Y-90850000D01*
X91700000Y-70410000D02*
X90050000Y-70410000D01*
X95350000Y-70410000D02*
X93700000Y-70410000D01*
X95350000Y-90850000D02*
X95350000Y-70410000D01*
X91700000Y-70410000D02*
G75*
G03*
X93700000Y-70410000I1000000J0D01*
G01*
%TO.C,C24*%
X95370000Y-27405000D02*
X95370000Y-27090000D01*
X95370000Y-27405000D02*
X90130000Y-27405000D01*
X95370000Y-24980000D02*
X95370000Y-24665000D01*
X95370000Y-24665000D02*
X90130000Y-24665000D01*
X90130000Y-27405000D02*
X90130000Y-27090000D01*
X90130000Y-24980000D02*
X90130000Y-24665000D01*
%TO.C,C26*%
X49610000Y-27405000D02*
X49610000Y-27090000D01*
X49610000Y-27405000D02*
X44370000Y-27405000D01*
X49610000Y-24980000D02*
X49610000Y-24665000D01*
X49610000Y-24665000D02*
X44370000Y-24665000D01*
X44370000Y-27405000D02*
X44370000Y-27090000D01*
X44370000Y-24980000D02*
X44370000Y-24665000D01*
%TO.C,R2*%
X64235000Y-112935000D02*
X64235000Y-119475000D01*
X63905000Y-112935000D02*
X64235000Y-112935000D01*
X61825000Y-112935000D02*
X61495000Y-112935000D01*
X61495000Y-112935000D02*
X61495000Y-119475000D01*
X64235000Y-119475000D02*
X63905000Y-119475000D01*
X61495000Y-119475000D02*
X61825000Y-119475000D01*
%TO.C,C1*%
X232450000Y-69950000D02*
X232450000Y-69635000D01*
X232450000Y-69950000D02*
X227210000Y-69950000D01*
X232450000Y-67525000D02*
X232450000Y-67210000D01*
X232450000Y-67210000D02*
X227210000Y-67210000D01*
X227210000Y-69950000D02*
X227210000Y-69635000D01*
X227210000Y-67525000D02*
X227210000Y-67210000D01*
%TO.C,C28*%
X41017359Y-137226000D02*
X41647359Y-137226000D01*
X41332359Y-136911000D02*
X41332359Y-137541000D01*
X44517600Y-135835000D02*
X44517600Y-142295000D01*
X44557600Y-135835000D02*
X44557600Y-142295000D01*
X44597600Y-135835000D02*
X44597600Y-142295000D01*
X44637600Y-135837000D02*
X44637600Y-142293000D01*
X44677600Y-135838000D02*
X44677600Y-142292000D01*
X44717600Y-135841000D02*
X44717600Y-142289000D01*
X44757600Y-135843000D02*
X44757600Y-138025000D01*
X44757600Y-140105000D02*
X44757600Y-142287000D01*
X44797600Y-135847000D02*
X44797600Y-138025000D01*
X44797600Y-140105000D02*
X44797600Y-142283000D01*
X44837600Y-135850000D02*
X44837600Y-138025000D01*
X44837600Y-140105000D02*
X44837600Y-142280000D01*
X44877600Y-135854000D02*
X44877600Y-138025000D01*
X44877600Y-140105000D02*
X44877600Y-142276000D01*
X44917600Y-135859000D02*
X44917600Y-138025000D01*
X44917600Y-140105000D02*
X44917600Y-142271000D01*
X44957600Y-135864000D02*
X44957600Y-138025000D01*
X44957600Y-140105000D02*
X44957600Y-142266000D01*
X44997600Y-135870000D02*
X44997600Y-138025000D01*
X44997600Y-140105000D02*
X44997600Y-142260000D01*
X45037600Y-135876000D02*
X45037600Y-138025000D01*
X45037600Y-140105000D02*
X45037600Y-142254000D01*
X45077600Y-135883000D02*
X45077600Y-138025000D01*
X45077600Y-140105000D02*
X45077600Y-142247000D01*
X45117600Y-135890000D02*
X45117600Y-138025000D01*
X45117600Y-140105000D02*
X45117600Y-142240000D01*
X45157600Y-135898000D02*
X45157600Y-138025000D01*
X45157600Y-140105000D02*
X45157600Y-142232000D01*
X45197600Y-135906000D02*
X45197600Y-138025000D01*
X45197600Y-140105000D02*
X45197600Y-142224000D01*
X45238600Y-135915000D02*
X45238600Y-138025000D01*
X45238600Y-140105000D02*
X45238600Y-142215000D01*
X45278600Y-135924000D02*
X45278600Y-138025000D01*
X45278600Y-140105000D02*
X45278600Y-142206000D01*
X45318600Y-135934000D02*
X45318600Y-138025000D01*
X45318600Y-140105000D02*
X45318600Y-142196000D01*
X45358600Y-135944000D02*
X45358600Y-138025000D01*
X45358600Y-140105000D02*
X45358600Y-142186000D01*
X45398600Y-135955000D02*
X45398600Y-138025000D01*
X45398600Y-140105000D02*
X45398600Y-142175000D01*
X45438600Y-135967000D02*
X45438600Y-138025000D01*
X45438600Y-140105000D02*
X45438600Y-142163000D01*
X45478600Y-135979000D02*
X45478600Y-138025000D01*
X45478600Y-140105000D02*
X45478600Y-142151000D01*
X45518600Y-135991000D02*
X45518600Y-138025000D01*
X45518600Y-140105000D02*
X45518600Y-142139000D01*
X45558600Y-136004000D02*
X45558600Y-138025000D01*
X45558600Y-140105000D02*
X45558600Y-142126000D01*
X45598600Y-136018000D02*
X45598600Y-138025000D01*
X45598600Y-140105000D02*
X45598600Y-142112000D01*
X45638600Y-136032000D02*
X45638600Y-138025000D01*
X45638600Y-140105000D02*
X45638600Y-142098000D01*
X45678600Y-136047000D02*
X45678600Y-138025000D01*
X45678600Y-140105000D02*
X45678600Y-142083000D01*
X45718600Y-136063000D02*
X45718600Y-138025000D01*
X45718600Y-140105000D02*
X45718600Y-142067000D01*
X45758600Y-136079000D02*
X45758600Y-138025000D01*
X45758600Y-140105000D02*
X45758600Y-142051000D01*
X45798600Y-136095000D02*
X45798600Y-138025000D01*
X45798600Y-140105000D02*
X45798600Y-142035000D01*
X45838600Y-136113000D02*
X45838600Y-138025000D01*
X45838600Y-140105000D02*
X45838600Y-142017000D01*
X45878600Y-136131000D02*
X45878600Y-138025000D01*
X45878600Y-140105000D02*
X45878600Y-141999000D01*
X45918600Y-136149000D02*
X45918600Y-138025000D01*
X45918600Y-140105000D02*
X45918600Y-141981000D01*
X45958600Y-136169000D02*
X45958600Y-138025000D01*
X45958600Y-140105000D02*
X45958600Y-141961000D01*
X45998600Y-136189000D02*
X45998600Y-138025000D01*
X45998600Y-140105000D02*
X45998600Y-141941000D01*
X46038600Y-136209000D02*
X46038600Y-138025000D01*
X46038600Y-140105000D02*
X46038600Y-141921000D01*
X46078600Y-136231000D02*
X46078600Y-138025000D01*
X46078600Y-140105000D02*
X46078600Y-141899000D01*
X46118600Y-136253000D02*
X46118600Y-138025000D01*
X46118600Y-140105000D02*
X46118600Y-141877000D01*
X46158600Y-136275000D02*
X46158600Y-138025000D01*
X46158600Y-140105000D02*
X46158600Y-141855000D01*
X46198600Y-136299000D02*
X46198600Y-138025000D01*
X46198600Y-140105000D02*
X46198600Y-141831000D01*
X46238600Y-136323000D02*
X46238600Y-138025000D01*
X46238600Y-140105000D02*
X46238600Y-141807000D01*
X46278600Y-136349000D02*
X46278600Y-138025000D01*
X46278600Y-140105000D02*
X46278600Y-141781000D01*
X46318600Y-136375000D02*
X46318600Y-138025000D01*
X46318600Y-140105000D02*
X46318600Y-141755000D01*
X46358600Y-136401000D02*
X46358600Y-138025000D01*
X46358600Y-140105000D02*
X46358600Y-141729000D01*
X46398600Y-136429000D02*
X46398600Y-138025000D01*
X46398600Y-140105000D02*
X46398600Y-141701000D01*
X46438600Y-136458000D02*
X46438600Y-138025000D01*
X46438600Y-140105000D02*
X46438600Y-141672000D01*
X46478600Y-136487000D02*
X46478600Y-138025000D01*
X46478600Y-140105000D02*
X46478600Y-141643000D01*
X46518600Y-136517000D02*
X46518600Y-138025000D01*
X46518600Y-140105000D02*
X46518600Y-141613000D01*
X46558600Y-136549000D02*
X46558600Y-138025000D01*
X46558600Y-140105000D02*
X46558600Y-141581000D01*
X46598600Y-136581000D02*
X46598600Y-138025000D01*
X46598600Y-140105000D02*
X46598600Y-141549000D01*
X46638600Y-136615000D02*
X46638600Y-138025000D01*
X46638600Y-140105000D02*
X46638600Y-141515000D01*
X46678600Y-136649000D02*
X46678600Y-138025000D01*
X46678600Y-140105000D02*
X46678600Y-141481000D01*
X46718600Y-136685000D02*
X46718600Y-138025000D01*
X46718600Y-140105000D02*
X46718600Y-141445000D01*
X46758600Y-136722000D02*
X46758600Y-138025000D01*
X46758600Y-140105000D02*
X46758600Y-141408000D01*
X46798600Y-136760000D02*
X46798600Y-138025000D01*
X46798600Y-140105000D02*
X46798600Y-141370000D01*
X46838600Y-136800000D02*
X46838600Y-141330000D01*
X46878600Y-136841000D02*
X46878600Y-141289000D01*
X46918600Y-136883000D02*
X46918600Y-141247000D01*
X46958600Y-136928000D02*
X46958600Y-141202000D01*
X46998600Y-136973000D02*
X46998600Y-141157000D01*
X47038600Y-137021000D02*
X47038600Y-141109000D01*
X47078600Y-137070000D02*
X47078600Y-141060000D01*
X47118600Y-137121000D02*
X47118600Y-141009000D01*
X47158600Y-137175000D02*
X47158600Y-140955000D01*
X47198600Y-137231000D02*
X47198600Y-140899000D01*
X47238600Y-137289000D02*
X47238600Y-140841000D01*
X47278600Y-137351000D02*
X47278600Y-140779000D01*
X47318600Y-137415000D02*
X47318600Y-140715000D01*
X47358600Y-137484000D02*
X47358600Y-140646000D01*
X47398600Y-137556000D02*
X47398600Y-140574000D01*
X47438600Y-137633000D02*
X47438600Y-140497000D01*
X47478600Y-137715000D02*
X47478600Y-140415000D01*
X47518600Y-137803000D02*
X47518600Y-140327000D01*
X47558600Y-137900000D02*
X47558600Y-140230000D01*
X47598600Y-138006000D02*
X47598600Y-140124000D01*
X47638600Y-138125000D02*
X47638600Y-140005000D01*
X47678600Y-138263000D02*
X47678600Y-139867000D01*
X47718600Y-138432000D02*
X47718600Y-139698000D01*
X47758600Y-138663000D02*
X47758600Y-139467000D01*
X47787600Y-139065000D02*
G75*
G03*
X47787600Y-139065000I-3270000J0D01*
G01*
%TO.C,C16*%
X232530000Y-27405000D02*
X232530000Y-27090000D01*
X232530000Y-27405000D02*
X227290000Y-27405000D01*
X232530000Y-24980000D02*
X232530000Y-24665000D01*
X232530000Y-24665000D02*
X227290000Y-24665000D01*
X227290000Y-27405000D02*
X227290000Y-27090000D01*
X227290000Y-24980000D02*
X227290000Y-24665000D01*
%TO.C,J2*%
X237760000Y-155160000D02*
X237760000Y-149600000D01*
X237760000Y-149600000D02*
X232240000Y-149600000D01*
X232241000Y-150600000D02*
X230965000Y-150600000D01*
X232240000Y-149600000D02*
X232240000Y-150600000D01*
X231565000Y-150160000D02*
X231565000Y-149560000D01*
X231565000Y-149560000D02*
X230965000Y-149860000D01*
X230965000Y-149860000D02*
X231565000Y-150160000D01*
X228775000Y-150600000D02*
X228199000Y-150600000D01*
X226460000Y-150600000D02*
X225659000Y-150600000D01*
X223920000Y-150600000D02*
X223119000Y-150600000D01*
X221380000Y-150600000D02*
X220579000Y-150600000D01*
X218840000Y-150600000D02*
X218039000Y-150600000D01*
X216300000Y-150600000D02*
X215499000Y-150600000D01*
X213760000Y-150600000D02*
X212959000Y-150600000D01*
X211220000Y-150600000D02*
X210419000Y-150600000D01*
X208680000Y-150600000D02*
X207879000Y-150600000D01*
X206140000Y-150600000D02*
X205339000Y-150600000D01*
X203600000Y-150600000D02*
X202799000Y-150600000D01*
X201060000Y-150600000D02*
X200259000Y-150600000D01*
X198520000Y-150600000D02*
X197719000Y-150600000D01*
X195980000Y-150600000D02*
X195179000Y-150600000D01*
X193440000Y-150600000D02*
X192639000Y-150600000D01*
X190900000Y-150600000D02*
X190099000Y-150600000D01*
X188360000Y-150600000D02*
X187559000Y-150600000D01*
X185820000Y-150600000D02*
X185019000Y-150600000D01*
X183280000Y-150600000D02*
X182479000Y-150600000D01*
X180740000Y-150600000D02*
X179939000Y-150600000D01*
X178200000Y-150600000D02*
X177399000Y-150600000D01*
X175660000Y-150600000D02*
X174859000Y-150600000D01*
X173120000Y-150600000D02*
X172319000Y-150600000D01*
X170580000Y-150600000D02*
X169779000Y-150600000D01*
X168040000Y-150600000D02*
X167239000Y-150600000D01*
X165500000Y-150600000D02*
X164699000Y-150600000D01*
X162960000Y-150600000D02*
X162159000Y-150600000D01*
X160420000Y-150600000D02*
X159619000Y-150600000D01*
X157880000Y-150600000D02*
X157079000Y-150600000D01*
X155340000Y-150600000D02*
X154539000Y-150600000D01*
X152800000Y-150600000D02*
X151999000Y-150600000D01*
X150260000Y-150600000D02*
X148760000Y-150600000D01*
X148760000Y-149600000D02*
X148760000Y-150600000D01*
X143240000Y-155160000D02*
X143240000Y-149600000D01*
X143240000Y-149600000D02*
X148760000Y-149600000D01*
%TO.C,C22*%
X141090000Y-27405000D02*
X141090000Y-27090000D01*
X141090000Y-27405000D02*
X135850000Y-27405000D01*
X141090000Y-24980000D02*
X141090000Y-24665000D01*
X141090000Y-24665000D02*
X135850000Y-24665000D01*
X135850000Y-27405000D02*
X135850000Y-27090000D01*
X135850000Y-24980000D02*
X135850000Y-24665000D01*
%TO.C,U4*%
X158630000Y-70425000D02*
X158630000Y-90865000D01*
X158630000Y-90865000D02*
X163930000Y-90865000D01*
X160280000Y-70425000D02*
X158630000Y-70425000D01*
X163930000Y-70425000D02*
X162280000Y-70425000D01*
X163930000Y-90865000D02*
X163930000Y-70425000D01*
X160280000Y-70425000D02*
G75*
G03*
X162280000Y-70425000I1000000J0D01*
G01*
%TO.C,U14*%
X135770000Y-111065000D02*
X135770000Y-136585000D01*
X135770000Y-136585000D02*
X141070000Y-136585000D01*
X137420000Y-111065000D02*
X135770000Y-111065000D01*
X141070000Y-111065000D02*
X139420000Y-111065000D01*
X141070000Y-136585000D02*
X141070000Y-111065000D01*
X137420000Y-111065000D02*
G75*
G03*
X139420000Y-111065000I1000000J0D01*
G01*
%TO.C,C18*%
X186770000Y-27405000D02*
X186770000Y-27090000D01*
X186770000Y-27405000D02*
X181530000Y-27405000D01*
X186770000Y-24980000D02*
X186770000Y-24665000D01*
X186770000Y-24665000D02*
X181530000Y-24665000D01*
X181530000Y-27405000D02*
X181530000Y-27090000D01*
X181530000Y-24980000D02*
X181530000Y-24665000D01*
%TO.C,C10*%
X232490000Y-110590000D02*
X232490000Y-110275000D01*
X232490000Y-110590000D02*
X227250000Y-110590000D01*
X232490000Y-108165000D02*
X232490000Y-107850000D01*
X232490000Y-107850000D02*
X227250000Y-107850000D01*
X227250000Y-110590000D02*
X227250000Y-110275000D01*
X227250000Y-108165000D02*
X227250000Y-107850000D01*
%TO.C,U19*%
X90050000Y-111065000D02*
X90050000Y-131505000D01*
X90050000Y-131505000D02*
X95350000Y-131505000D01*
X91700000Y-111065000D02*
X90050000Y-111065000D01*
X95350000Y-111065000D02*
X93700000Y-111065000D01*
X95350000Y-131505000D02*
X95350000Y-111065000D01*
X91700000Y-111065000D02*
G75*
G03*
X93700000Y-111065000I1000000J0D01*
G01*
%TD*%
M02*
