M48
; DRILL file {KiCad 7.0.7} date Mon Aug 17 21:49:15 2026
; FORMAT={-:-/ absolute / inch / decimal}
; #@! TF.CreationDate,2026-08-17T21:49:15-05:00
; #@! TF.GenerationSoftware,Kicad,Pcbnew,7.0.7
; #@! TF.FileFunction,Plated,1,2,PTH
FMAT,2
INCH
; #@! TA.AperFunction,Plated,PTH,ViaDrill
T1C0.0157
; #@! TA.AperFunction,Plated,PTH,ComponentDrill
T2C0.0315
; #@! TA.AperFunction,Plated,PTH,ComponentDrill
T3C0.0394
%
G90
G05
T1
X2.0586Y-5.6184
X2.4152Y-4.0316
X2.5698Y-4.4298
X2.867Y-5.6184
X3.1326Y-3.0306
X3.138Y-6.0137
X3.2073Y-4.0726
X3.2343Y-5.0257
X3.2439Y-2.6815
X3.4023Y-5.7477
X3.4493Y-4.1852
X3.4977Y-4.1062
X3.5502Y-3.9958
X3.5887Y-4.0422
X3.6641Y-4.0244
X3.6716Y-3.1583
X3.8482Y-3.8
X3.8896Y-5.1456
X3.9733Y-4.0244
X3.9929Y-3.9
X4.1004Y-5.4745
X4.1142Y-3.1438
X4.1158Y-2.6076
X4.1654Y-4.1524
X4.2827Y-3.2642
X4.6022Y-5.0911
X4.9192Y-3.2443
X5.1527Y-4.6002
X5.1778Y-4.3716
X5.1817Y-4.2879
X5.2155Y-5.4449
X5.3074Y-5.4865
X5.425Y-2.7277
X5.526Y-4.2261
X5.5313Y-2.8583
X5.5631Y-5.2308
X5.579Y-4.0029
X5.5987Y-5.1633
X5.6335Y-4.2841
X5.654Y-3.9807
X5.6795Y-5.9255
X5.6833Y-4.2173
X5.6876Y-4.4269
X5.7043Y-5.0552
X5.7043Y-5.5115
X5.8276Y-5.0565
X5.8908Y-2.9639
X5.9645Y-5.7079
X5.9815Y-2.2221
X6.01Y-2.5451
X6.0322Y-3.4176
X6.0458Y-2.5655
X6.2269Y-5.217
X6.2523Y-1.3555
X6.2845Y-1.4282
X6.5232Y-3.5564
X6.5383Y-3.2945
X6.6283Y-1.3849
X6.7186Y-3.9886
X6.853Y-4.7698
X6.8693Y-4.8369
X7.1294Y-5.897
X7.1492Y-2.9314
X7.1711Y-2.8894
X7.1809Y-3.3085
X7.19Y-1.0277
X7.2094Y-3.3784
X7.2294Y-1.0426
X7.2881Y-3.4977
X7.3161Y-4.9463
X7.748Y-3.061
X7.7546Y-4.3183
X7.8849Y-3.0595
X8.0684Y-5.531
X8.1027Y-2.6385
X8.1788Y-4.9461
X8.3536Y-4.6392
X8.3791Y-4.2698
X8.512Y-4.1901
X8.547Y-2.2573
X8.5544Y-5.3924
X8.5688Y-2.075
X8.708Y-5.2022
X8.8252Y-3.5709
X8.828Y-5.937
X8.9466Y-4.1822
X9.0058Y-2.0852
X9.4726Y-1.6452
X9.8379Y-3.4207
X9.9997Y-4.075
T2
X1.625Y-1.15
X1.625Y-1.75
X1.625Y-2.15
X1.625Y-2.25
X1.625Y-2.35
X1.625Y-2.45
X1.625Y-2.55
X1.625Y-2.65
X1.625Y-2.75
X1.625Y-2.85
X1.625Y-3.25
X1.625Y-3.35
X1.625Y-3.45
X1.625Y-3.55
X1.625Y-3.65
X1.625Y-3.75
X1.625Y-3.85
X1.625Y-3.95
X1.6254Y-4.3998
X1.6254Y-4.4998
X1.6254Y-4.5998
X1.6254Y-4.6998
X1.6254Y-4.7998
X1.6254Y-4.8998
X1.6254Y-4.9998
X1.6766Y-2.025
X1.6766Y-4.275
X1.7034Y-5.475
X1.8019Y-5.475
X1.8734Y-2.025
X1.8734Y-4.275
X1.925Y-1.15
X1.925Y-1.75
X1.925Y-2.15
X1.925Y-2.25
X1.925Y-2.35
X1.925Y-2.45
X1.925Y-2.55
X1.925Y-2.65
X1.925Y-2.75
X1.925Y-2.85
X1.925Y-3.25
X1.925Y-3.35
X1.925Y-3.45
X1.925Y-3.55
X1.925Y-3.65
X1.925Y-3.75
X1.925Y-3.85
X1.925Y-3.95
X1.9254Y-4.3998
X1.9254Y-4.4998
X1.9254Y-4.5998
X1.9254Y-4.6998
X1.9254Y-4.7998
X1.9254Y-4.8998
X1.9254Y-4.9998
X2.125Y-1.15
X2.125Y-1.3469
X2.125Y-2.35
X2.125Y-2.65
X2.275Y-2.35
X2.275Y-2.65
X2.3Y-3.25
X2.3Y-3.35
X2.3Y-3.45
X2.3Y-3.55
X2.3Y-3.65
X2.3Y-3.75
X2.3Y-3.85
X2.3Y-3.95
X2.3Y-4.05
X2.475Y-1.1
X2.475Y-1.2
X2.475Y-1.3
X2.475Y-1.4
X2.475Y-1.5
X2.475Y-1.6
X2.475Y-1.7
X2.475Y-1.8
X2.475Y-2.15
X2.475Y-2.25
X2.475Y-2.35
X2.475Y-2.45
X2.475Y-2.55
X2.475Y-2.65
X2.475Y-2.75
X2.475Y-2.85
X2.475Y-3.25
X2.475Y-3.35
X2.475Y-3.45
X2.475Y-3.55
X2.475Y-3.65
X2.475Y-3.75
X2.475Y-3.85
X2.475Y-3.95
X2.475Y-4.4002
X2.475Y-4.5002
X2.475Y-4.6002
X2.475Y-4.7002
X2.475Y-4.8002
X2.475Y-4.9002
X2.475Y-5.0002
X2.475Y-5.1002
X2.475Y-5.2002
X2.475Y-5.3002
X2.5266Y-0.975
X2.5266Y-2.025
X2.5266Y-4.275
X2.7234Y-0.975
X2.7234Y-2.025
X2.7234Y-4.275
X2.775Y-1.1
X2.775Y-1.2
X2.775Y-1.3
X2.775Y-1.4
X2.775Y-1.5
X2.775Y-1.6
X2.775Y-1.7
X2.775Y-1.8
X2.775Y-2.15
X2.775Y-2.25
X2.775Y-2.35
X2.775Y-2.45
X2.775Y-2.55
X2.775Y-2.65
X2.775Y-2.75
X2.775Y-2.85
X2.775Y-3.25
X2.775Y-3.35
X2.775Y-3.45
X2.775Y-3.55
X2.775Y-3.65
X2.775Y-3.75
X2.775Y-3.85
X2.775Y-3.95
X2.775Y-4.4002
X2.775Y-4.5002
X2.775Y-4.6002
X2.775Y-4.7002
X2.775Y-4.8002
X2.775Y-4.9002
X2.775Y-5.0002
X2.775Y-5.1002
X2.775Y-5.2002
X2.775Y-5.3002
X2.975Y-5.0
X2.975Y-5.3
X3.125Y-5.0
X3.125Y-5.3
X3.325Y-1.1
X3.325Y-1.2
X3.325Y-1.3
X3.325Y-1.4
X3.325Y-1.5
X3.325Y-1.6
X3.325Y-1.7
X3.325Y-1.8
X3.325Y-2.15
X3.325Y-2.25
X3.325Y-2.35
X3.325Y-2.45
X3.325Y-2.55
X3.325Y-2.65
X3.325Y-2.75
X3.325Y-3.25
X3.325Y-3.35
X3.325Y-3.45
X3.325Y-3.55
X3.325Y-3.65
X3.325Y-3.75
X3.325Y-3.85
X3.325Y-3.95
X3.325Y-4.4
X3.325Y-4.5
X3.325Y-4.6
X3.325Y-4.7
X3.325Y-4.8
X3.325Y-4.9
X3.325Y-5.0
X3.325Y-5.1
X3.325Y-5.2
X3.325Y-5.3
X3.375Y-0.975
X3.375Y-2.025
X3.3766Y-4.275
X3.5719Y-0.975
X3.5719Y-2.025
X3.5734Y-4.275
X3.625Y-1.1
X3.625Y-1.2
X3.625Y-1.3
X3.625Y-1.4
X3.625Y-1.5
X3.625Y-1.6
X3.625Y-1.7
X3.625Y-1.8
X3.625Y-2.15
X3.625Y-2.25
X3.625Y-2.35
X3.625Y-2.45
X3.625Y-2.55
X3.625Y-2.65
X3.625Y-2.75
X3.625Y-3.25
X3.625Y-3.35
X3.625Y-3.45
X3.625Y-3.55
X3.625Y-3.65
X3.625Y-3.75
X3.625Y-3.85
X3.625Y-3.95
X3.625Y-4.4
X3.625Y-4.5
X3.625Y-4.6
X3.625Y-4.7
X3.625Y-4.8
X3.625Y-4.9
X3.625Y-5.0
X3.625Y-5.1
X3.625Y-5.2
X3.625Y-5.3
X3.925Y-3.95
X3.925Y-4.25
X4.175Y-0.825
X4.175Y-1.1
X4.175Y-1.2
X4.175Y-1.3
X4.175Y-1.4
X4.175Y-1.5
X4.175Y-1.6
X4.175Y-1.7
X4.175Y-1.8
X4.175Y-2.15
X4.175Y-2.25
X4.175Y-2.35
X4.175Y-2.45
X4.175Y-2.55
X4.175Y-2.65
X4.175Y-2.75
X4.175Y-3.25
X4.175Y-3.35
X4.175Y-3.45
X4.175Y-3.55
X4.175Y-3.65
X4.175Y-3.75
X4.175Y-3.85
X4.175Y-3.95
X4.175Y-4.4
X4.175Y-4.5
X4.175Y-4.6
X4.175Y-4.7
X4.175Y-4.8
X4.175Y-4.9
X4.175Y-5.0
X4.175Y-5.1
X4.175Y-5.2
X4.175Y-5.3
X4.225Y-0.975
X4.225Y-4.275
X4.2266Y-2.025
X4.275Y-0.825
X4.375Y-0.825
X4.4219Y-0.975
X4.4219Y-4.275
X4.4234Y-2.025
X4.475Y-0.825
X4.475Y-1.1
X4.475Y-1.2
X4.475Y-1.3
X4.475Y-1.4
X4.475Y-1.5
X4.475Y-1.6
X4.475Y-1.7
X4.475Y-1.8
X4.475Y-2.15
X4.475Y-2.25
X4.475Y-2.35
X4.475Y-2.45
X4.475Y-2.55
X4.475Y-2.65
X4.475Y-2.75
X4.475Y-3.25
X4.475Y-3.35
X4.475Y-3.45
X4.475Y-3.55
X4.475Y-3.65
X4.475Y-3.75
X4.475Y-3.85
X4.475Y-3.95
X4.475Y-4.4
X4.475Y-4.5
X4.475Y-4.6
X4.475Y-4.7
X4.475Y-4.8
X4.475Y-4.9
X4.475Y-5.0
X4.475Y-5.1
X4.475Y-5.2
X4.475Y-5.3
X4.575Y-0.825
X4.675Y-0.825
X4.675Y-4.5
X4.675Y-4.8
X4.775Y-0.825
X4.825Y-4.5
X4.825Y-4.8
X4.825Y-4.9
X4.825Y-5.2
X4.875Y-0.825
X4.975Y-0.825
X5.025Y-1.1
X5.025Y-1.2
X5.025Y-1.3
X5.025Y-1.4
X5.025Y-1.5
X5.025Y-1.6
X5.025Y-1.7
X5.025Y-1.8
X5.025Y-2.15
X5.025Y-2.25
X5.025Y-2.35
X5.025Y-2.45
X5.025Y-2.55
X5.025Y-2.65
X5.025Y-2.75
X5.025Y-3.2
X5.025Y-3.3
X5.025Y-3.4
X5.025Y-3.5
X5.025Y-3.6
X5.025Y-3.7
X5.025Y-3.8
X5.025Y-3.9
X5.025Y-4.0
X5.025Y-4.1
X5.0254Y-4.4002
X5.0254Y-4.5002
X5.0254Y-4.6002
X5.0254Y-4.7002
X5.0254Y-4.8002
X5.0254Y-4.9002
X5.0254Y-5.0002
X5.0254Y-5.1002
X5.0254Y-5.2002
X5.0254Y-5.3002
X5.075Y-0.975
X5.075Y-2.025
X5.075Y-3.075
X5.0766Y-4.275
X5.2719Y-0.975
X5.2719Y-2.025
X5.2719Y-3.075
X5.2734Y-4.275
X5.325Y-1.1
X5.325Y-1.2
X5.325Y-1.3
X5.325Y-1.4
X5.325Y-1.5
X5.325Y-1.6
X5.325Y-1.7
X5.325Y-1.8
X5.325Y-2.15
X5.325Y-2.25
X5.325Y-2.35
X5.325Y-2.45
X5.325Y-2.55
X5.325Y-2.65
X5.325Y-2.75
X5.325Y-3.2
X5.325Y-3.3
X5.325Y-3.4
X5.325Y-3.5
X5.325Y-3.6
X5.325Y-3.7
X5.325Y-3.8
X5.325Y-3.9
X5.325Y-4.0
X5.325Y-4.1
X5.3254Y-4.4002
X5.3254Y-4.5002
X5.3254Y-4.6002
X5.3254Y-4.7002
X5.3254Y-4.8002
X5.3254Y-4.9002
X5.3254Y-5.0002
X5.3254Y-5.1002
X5.3254Y-5.2002
X5.3254Y-5.3002
X5.875Y-2.15
X5.875Y-2.25
X5.875Y-2.35
X5.875Y-2.45
X5.875Y-2.55
X5.875Y-2.65
X5.875Y-2.75
X5.875Y-3.2
X5.875Y-3.3
X5.875Y-3.4
X5.875Y-3.5
X5.875Y-3.6
X5.875Y-3.7
X5.875Y-3.8
X5.8754Y-1.0998
X5.8754Y-1.1998
X5.8754Y-1.2998
X5.8754Y-1.3998
X5.8754Y-1.4998
X5.8754Y-1.5998
X5.8754Y-1.6998
X5.8754Y-4.3998
X5.8754Y-4.4998
X5.8754Y-4.5998
X5.8754Y-4.6998
X5.8754Y-4.7998
X5.8754Y-4.8998
X5.8754Y-4.9998
X5.8754Y-5.3748
X5.8754Y-5.4748
X5.8754Y-5.5748
X5.8754Y-5.6748
X5.8754Y-5.7748
X5.8754Y-5.8748
X5.8754Y-5.9748
X5.925Y-0.975
X5.925Y-3.075
X5.925Y-4.275
X5.9266Y-2.025
X5.9266Y-5.25
X6.1219Y-0.975
X6.1219Y-3.075
X6.1219Y-4.275
X6.1234Y-2.025
X6.1234Y-5.25
X6.175Y-2.15
X6.175Y-2.25
X6.175Y-2.35
X6.175Y-2.45
X6.175Y-2.55
X6.175Y-2.65
X6.175Y-2.75
X6.175Y-3.2
X6.175Y-3.3
X6.175Y-3.4
X6.175Y-3.5
X6.175Y-3.6
X6.175Y-3.7
X6.175Y-3.8
X6.1754Y-1.0998
X6.1754Y-1.1998
X6.1754Y-1.2998
X6.1754Y-1.3998
X6.1754Y-1.4998
X6.1754Y-1.5998
X6.1754Y-1.6998
X6.1754Y-4.3998
X6.1754Y-4.4998
X6.1754Y-4.5998
X6.1754Y-4.6998
X6.1754Y-4.7998
X6.1754Y-4.8998
X6.1754Y-4.9998
X6.1754Y-5.3748
X6.1754Y-5.4748
X6.1754Y-5.5748
X6.1754Y-5.6748
X6.1754Y-5.7748
X6.1754Y-5.8748
X6.1754Y-5.9748
X6.375Y-5.475
X6.375Y-5.775
X6.525Y-5.475
X6.525Y-5.775
X6.725Y-2.15
X6.725Y-2.25
X6.725Y-2.35
X6.725Y-2.45
X6.725Y-2.55
X6.725Y-2.65
X6.725Y-2.75
X6.725Y-3.2
X6.725Y-3.3
X6.725Y-3.4
X6.725Y-3.5
X6.725Y-3.6
X6.725Y-3.7
X6.725Y-3.8
X6.725Y-4.4
X6.725Y-4.5
X6.725Y-4.6
X6.725Y-4.7
X6.725Y-4.8
X6.725Y-4.9
X6.725Y-5.0
X6.7254Y-1.1006
X6.7254Y-1.2006
X6.7254Y-1.3006
X6.7254Y-1.4006
X6.7254Y-1.5006
X6.7254Y-1.6006
X6.7254Y-1.7006
X6.7254Y-1.8006
X6.7254Y-5.3748
X6.7254Y-5.4748
X6.7254Y-5.5748
X6.7254Y-5.6748
X6.7254Y-5.7748
X6.7254Y-5.8748
X6.7254Y-5.9748
X6.775Y-2.025
X6.775Y-3.075
X6.775Y-4.275
X6.775Y-5.25
X6.7766Y-0.975
X6.8244Y-0.825
X6.9244Y-0.825
X6.9719Y-2.025
X6.9719Y-3.075
X6.9719Y-4.275
X6.9719Y-5.25
X6.9734Y-0.975
X7.0244Y-0.825
X7.025Y-2.15
X7.025Y-2.25
X7.025Y-2.35
X7.025Y-2.45
X7.025Y-2.55
X7.025Y-2.65
X7.025Y-2.75
X7.025Y-3.2
X7.025Y-3.3
X7.025Y-3.4
X7.025Y-3.5
X7.025Y-3.6
X7.025Y-3.7
X7.025Y-3.8
X7.025Y-4.4
X7.025Y-4.5
X7.025Y-4.6
X7.025Y-4.7
X7.025Y-4.8
X7.025Y-4.9
X7.025Y-5.0
X7.0254Y-1.1006
X7.0254Y-1.2006
X7.0254Y-1.3006
X7.0254Y-1.4006
X7.0254Y-1.5006
X7.0254Y-1.6006
X7.0254Y-1.7006
X7.0254Y-1.8006
X7.0254Y-5.3748
X7.0254Y-5.4748
X7.0254Y-5.5748
X7.0254Y-5.6748
X7.0254Y-5.7748
X7.0254Y-5.8748
X7.0254Y-5.9748
X7.1244Y-0.825
X7.2244Y-0.825
X7.225Y-5.475
X7.225Y-5.775
X7.3244Y-0.825
X7.375Y-5.475
X7.375Y-5.775
X7.4244Y-0.825
X7.5244Y-0.825
X7.575Y-1.1
X7.575Y-1.2
X7.575Y-1.3
X7.575Y-1.4
X7.575Y-1.5
X7.575Y-1.6
X7.575Y-1.7
X7.575Y-1.8
X7.575Y-2.15
X7.575Y-2.25
X7.575Y-2.35
X7.575Y-2.45
X7.575Y-2.55
X7.575Y-2.65
X7.575Y-2.75
X7.575Y-2.85
X7.575Y-3.2
X7.575Y-3.3
X7.575Y-3.4
X7.575Y-3.5
X7.575Y-3.6
X7.575Y-3.7
X7.575Y-3.8
X7.575Y-4.4
X7.575Y-4.5
X7.575Y-4.6
X7.575Y-4.7
X7.575Y-4.8
X7.575Y-4.9
X7.575Y-5.0
X7.575Y-5.375
X7.575Y-5.475
X7.575Y-5.575
X7.575Y-5.675
X7.575Y-5.775
X7.575Y-5.875
X7.575Y-5.975
X7.6244Y-0.825
X7.625Y-0.975
X7.625Y-3.075
X7.6266Y-2.025
X7.6266Y-4.275
X7.6266Y-5.25
X7.8219Y-0.975
X7.8219Y-3.075
X7.8234Y-2.025
X7.8234Y-4.275
X7.8234Y-5.25
X7.875Y-1.1
X7.875Y-1.2
X7.875Y-1.3
X7.875Y-1.4
X7.875Y-1.5
X7.875Y-1.6
X7.875Y-1.7
X7.875Y-1.8
X7.875Y-2.15
X7.875Y-2.25
X7.875Y-2.35
X7.875Y-2.45
X7.875Y-2.55
X7.875Y-2.65
X7.875Y-2.75
X7.875Y-2.85
X7.875Y-3.2
X7.875Y-3.3
X7.875Y-3.4
X7.875Y-3.5
X7.875Y-3.6
X7.875Y-3.7
X7.875Y-3.8
X7.875Y-4.4
X7.875Y-4.5
X7.875Y-4.6
X7.875Y-4.7
X7.875Y-4.8
X7.875Y-4.9
X7.875Y-5.0
X7.875Y-5.375
X7.875Y-5.475
X7.875Y-5.575
X7.875Y-5.675
X7.875Y-5.775
X7.875Y-5.875
X7.875Y-5.975
X8.075Y-4.7
X8.075Y-5.0
X8.075Y-5.475
X8.075Y-5.775
X8.125Y-1.6
X8.125Y-1.7
X8.125Y-1.8
X8.125Y-1.9
X8.125Y-2.0
X8.125Y-2.1
X8.125Y-2.2
X8.125Y-2.3
X8.125Y-2.4
X8.225Y-3.525
X8.225Y-3.825
X8.225Y-4.7
X8.225Y-5.0
X8.225Y-5.475
X8.225Y-5.775
X8.425Y-0.975
X8.425Y-1.075
X8.425Y-1.175
X8.425Y-1.275
X8.425Y-1.375
X8.425Y-1.475
X8.425Y-1.575
X8.425Y-1.675
X8.425Y-2.025
X8.425Y-2.125
X8.425Y-2.225
X8.425Y-2.325
X8.425Y-2.425
X8.425Y-2.525
X8.425Y-2.625
X8.425Y-2.725
X8.425Y-3.2
X8.425Y-3.3
X8.425Y-3.4
X8.425Y-3.5
X8.425Y-3.6
X8.425Y-3.7
X8.425Y-3.8
X8.425Y-4.4
X8.425Y-4.5
X8.425Y-4.6
X8.425Y-4.7
X8.425Y-4.8
X8.425Y-4.9
X8.425Y-5.0
X8.425Y-5.375
X8.425Y-5.475
X8.425Y-5.575
X8.425Y-5.675
X8.425Y-5.775
X8.425Y-5.875
X8.425Y-5.975
X8.4766Y-3.075
X8.4766Y-4.275
X8.4766Y-5.25
X8.6734Y-3.075
X8.6734Y-4.275
X8.6734Y-5.25
X8.725Y-0.975
X8.725Y-1.075
X8.725Y-1.175
X8.725Y-1.275
X8.725Y-1.375
X8.725Y-1.475
X8.725Y-1.575
X8.725Y-1.675
X8.725Y-2.025
X8.725Y-2.125
X8.725Y-2.225
X8.725Y-2.325
X8.725Y-2.425
X8.725Y-2.525
X8.725Y-2.625
X8.725Y-2.725
X8.725Y-3.2
X8.725Y-3.3
X8.725Y-3.4
X8.725Y-3.5
X8.725Y-3.6
X8.725Y-3.7
X8.725Y-3.8
X8.725Y-4.4
X8.725Y-4.5
X8.725Y-4.6
X8.725Y-4.7
X8.725Y-4.8
X8.725Y-4.9
X8.725Y-5.0
X8.725Y-5.375
X8.725Y-5.475
X8.725Y-5.575
X8.725Y-5.675
X8.725Y-5.775
X8.725Y-5.875
X8.725Y-5.975
X8.925Y-5.0
X8.925Y-5.3
X8.925Y-5.475
X8.925Y-5.775
X8.975Y-1.2266
X8.975Y-1.4234
X9.0089Y-0.925
X9.0876Y-0.925
X9.1Y-1.1746
X9.1Y-1.4746
X9.175Y-1.725
X9.175Y-1.825
X9.175Y-1.925
X9.175Y-2.025
X9.175Y-2.125
X9.175Y-2.225
X9.175Y-2.325
X9.175Y-2.425
X9.175Y-2.525
X9.175Y-2.625
X9.175Y-2.725
X9.175Y-2.825
X9.175Y-2.925
X9.175Y-3.025
X9.175Y-3.125
X9.175Y-3.225
X9.175Y-3.325
X9.175Y-3.425
X9.175Y-3.525
X9.175Y-3.625
X9.1766Y-1.6
X9.2Y-1.1746
X9.2Y-1.4746
X9.2Y-4.075
X9.2Y-4.175
X9.2Y-4.275
X9.2Y-4.375
X9.2Y-4.475
X9.2Y-4.575
X9.2Y-4.675
X9.2Y-4.775
X9.2Y-4.875
X9.2Y-4.975
X9.2Y-5.075
X9.2Y-5.175
X9.2Y-5.275
X9.2Y-5.375
X9.2Y-5.475
X9.2Y-5.575
X9.2Y-5.675
X9.2Y-5.775
X9.2Y-5.875
X9.2Y-5.975
X9.2016Y-3.95
X9.2589Y-0.925
X9.3Y-1.1746
X9.3Y-1.4746
X9.3376Y-0.925
X9.3734Y-1.6
X9.3984Y-3.95
X9.4Y-1.1746
X9.4Y-1.4746
X9.5Y-0.925
X9.5Y-1.1746
X9.5Y-1.4746
X9.5787Y-0.925
X9.6Y-1.1746
X9.6Y-1.4746
X9.7Y-1.1746
X9.7Y-1.4746
X9.75Y-0.925
X9.775Y-1.725
X9.775Y-1.825
X9.775Y-1.925
X9.775Y-2.025
X9.775Y-2.125
X9.775Y-2.225
X9.775Y-2.325
X9.775Y-2.425
X9.775Y-2.525
X9.775Y-2.625
X9.775Y-2.725
X9.775Y-2.825
X9.775Y-2.925
X9.775Y-3.025
X9.775Y-3.125
X9.775Y-3.225
X9.775Y-3.325
X9.775Y-3.425
X9.775Y-3.525
X9.775Y-3.625
X9.8Y-1.1746
X9.8Y-1.4746
X9.8Y-4.075
X9.8Y-4.175
X9.8Y-4.275
X9.8Y-4.375
X9.8Y-4.475
X9.8Y-4.575
X9.8Y-4.675
X9.8Y-4.775
X9.8Y-4.875
X9.8Y-4.975
X9.8Y-5.075
X9.8Y-5.175
X9.8Y-5.275
X9.8Y-5.375
X9.8Y-5.475
X9.8Y-5.575
X9.8Y-5.675
X9.8Y-5.775
X9.8Y-5.875
X9.8Y-5.975
X9.8287Y-0.925
X10.15Y-5.375
X10.15Y-5.475
X10.15Y-5.575
X10.15Y-5.675
X10.15Y-5.775
X10.15Y-5.875
X10.15Y-5.975
X10.2016Y-5.25
X10.3984Y-5.25
X10.45Y-5.375
X10.45Y-5.475
X10.45Y-5.575
X10.45Y-5.675
X10.45Y-5.775
X10.45Y-5.875
X10.45Y-5.975
T3
X1.875Y-5.8
X1.875Y-5.9
X1.975Y-5.8
X1.975Y-5.9
X2.075Y-5.8
X2.075Y-5.9
X2.175Y-5.8
X2.175Y-5.9
X2.275Y-5.8
X2.275Y-5.9
X2.375Y-5.8
X2.375Y-5.9
X2.475Y-5.8
X2.475Y-5.9
X2.575Y-5.8
X2.575Y-5.9
X2.675Y-5.8
X2.675Y-5.9
X2.775Y-5.8
X2.775Y-5.9
X2.875Y-5.8
X2.875Y-5.9
X2.975Y-5.8
X2.975Y-5.9
X3.075Y-5.8
X3.075Y-5.9
X3.175Y-5.8
X3.175Y-5.9
X3.275Y-5.8
X3.275Y-5.9
X3.375Y-5.8
X3.375Y-5.9
X3.475Y-5.8
X3.475Y-5.9
X3.575Y-5.8
X3.575Y-5.9
X3.675Y-5.8
X3.675Y-5.9
X3.775Y-5.8
X3.775Y-5.9
X3.875Y-5.8
X3.875Y-5.9
X3.975Y-5.8
X3.975Y-5.9
X4.075Y-5.8
X4.075Y-5.9
X4.175Y-5.8
X4.175Y-5.9
X4.275Y-5.8
X4.275Y-5.9
X4.375Y-5.8
X4.375Y-5.9
X4.475Y-5.8
X4.475Y-5.9
X4.575Y-5.8
X4.575Y-5.9
X4.675Y-5.8
X4.675Y-5.9
X4.775Y-5.8
X4.775Y-5.9
X4.875Y-5.8
X4.875Y-5.9
X4.975Y-5.8
X4.975Y-5.9
X9.0Y-1.7256
X9.0Y-1.8256
X9.0Y-1.9256
X9.025Y-4.0756
X9.025Y-4.1756
X9.025Y-4.2756
X10.1028Y-1.925
X10.1028Y-2.025
X10.1028Y-2.125
X10.1028Y-2.225
X10.1028Y-2.325
X10.1034Y-0.975
X10.1034Y-1.075
X10.1034Y-1.175
X10.1034Y-1.275
X10.1034Y-1.375
X10.1744Y-4.825
X10.1744Y-5.05
X10.2028Y-1.925
X10.2028Y-2.025
X10.2028Y-2.125
X10.2028Y-2.225
X10.2028Y-2.325
X10.2034Y-0.975
X10.2034Y-1.075
X10.2034Y-1.175
X10.2034Y-1.275
X10.2034Y-1.375
X10.2278Y-2.925
X10.2278Y-3.025
X10.2278Y-3.125
X10.2278Y-3.225
X10.2278Y-3.425
X10.2278Y-3.525
X10.2278Y-3.625
X10.2278Y-3.725
X10.2278Y-3.825
X10.2278Y-3.925
X10.2278Y-4.125
X10.2278Y-4.225
X10.2278Y-4.325
X10.2278Y-4.425
X10.2278Y-4.525
X10.2278Y-4.625
X10.2744Y-4.825
X10.2744Y-5.05
X10.3744Y-4.825
X10.3744Y-5.05
T0
M30
