%TF.GenerationSoftware,KiCad,Pcbnew,7.0.7*%
%TF.CreationDate,2026-08-17T21:49:15-05:00*%
%TF.ProjectId,TTY Clock,54545920-436c-46f6-936b-2e6b69636164,rev?*%
%TF.SameCoordinates,Original*%
%TF.FileFunction,Drillmap*%
%TF.FilePolarity,Positive*%
%FSLAX45Y45*%
G04 Gerber Fmt 4.5, Leading zero omitted, Abs format (unit mm)*
G04 Created by KiCad (PCBNEW 7.0.7) date 2026-08-17 21:49:15*
%MOMM*%
%LPD*%
G01*
G04 APERTURE LIST*
%ADD10C,0.100000*%
%ADD11C,0.200000*%
%ADD12C,0.040000*%
%ADD13C,0.080000*%
G04 APERTURE END LIST*
D10*
X3556000Y-1778000D02*
X27051000Y-1778000D01*
X27051000Y-15532100D01*
X3556000Y-15532100D01*
X3556000Y-1778000D01*
D11*
D12*
X5208940Y-14250750D02*
X5248940Y-14290750D01*
X5248940Y-14250750D02*
X5208940Y-14290750D01*
X6114550Y-10220250D02*
X6154550Y-10260250D01*
X6154550Y-10220250D02*
X6114550Y-10260250D01*
X6507340Y-11231740D02*
X6547340Y-11271740D01*
X6547340Y-11231740D02*
X6507340Y-11271740D01*
X7262250Y-14250750D02*
X7302250Y-14290750D01*
X7302250Y-14250750D02*
X7262250Y-14290750D01*
X7936810Y-7677750D02*
X7976810Y-7717750D01*
X7976810Y-7677750D02*
X7936810Y-7717750D01*
X7950560Y-15254740D02*
X7990560Y-15294740D01*
X7990560Y-15254740D02*
X7950560Y-15294740D01*
X8126580Y-10324520D02*
X8166580Y-10364520D01*
X8166580Y-10324520D02*
X8126580Y-10364520D01*
X8195200Y-12745190D02*
X8235200Y-12785190D01*
X8235200Y-12745190D02*
X8195200Y-12785190D01*
X8219540Y-6791030D02*
X8259540Y-6831030D01*
X8259540Y-6791030D02*
X8219540Y-6831030D01*
X8621870Y-14579210D02*
X8661870Y-14619210D01*
X8661870Y-14579210D02*
X8621870Y-14619210D01*
X8741310Y-10610430D02*
X8781310Y-10650430D01*
X8781310Y-10610430D02*
X8741310Y-10650430D01*
X8864150Y-10409650D02*
X8904150Y-10449650D01*
X8904150Y-10409650D02*
X8864150Y-10449650D01*
X8997600Y-10129220D02*
X9037600Y-10169220D01*
X9037600Y-10129220D02*
X8997600Y-10169220D01*
X9095260Y-10247130D02*
X9135260Y-10287130D01*
X9135260Y-10247130D02*
X9095260Y-10287130D01*
X9286880Y-10202090D02*
X9326880Y-10242090D01*
X9326880Y-10202090D02*
X9286880Y-10242090D01*
X9305740Y-8002080D02*
X9345740Y-8042080D01*
X9345740Y-8002080D02*
X9305740Y-8042080D01*
X9754400Y-9632000D02*
X9794400Y-9672000D01*
X9794400Y-9632000D02*
X9754400Y-9672000D01*
X9859500Y-13049770D02*
X9899500Y-13089770D01*
X9899500Y-13049770D02*
X9859500Y-13089770D01*
X10072190Y-10201890D02*
X10112190Y-10241890D01*
X10112190Y-10201890D02*
X10072190Y-10241890D01*
X10121970Y-9886000D02*
X10161970Y-9926000D01*
X10161970Y-9886000D02*
X10121970Y-9926000D01*
X10394920Y-13885160D02*
X10434920Y-13925160D01*
X10434920Y-13885160D02*
X10394920Y-13925160D01*
X10430000Y-7965370D02*
X10470000Y-8005370D01*
X10470000Y-7965370D02*
X10430000Y-8005370D01*
X10434100Y-6603370D02*
X10474100Y-6643370D01*
X10474100Y-6603370D02*
X10434100Y-6643370D01*
X10560190Y-10527220D02*
X10600190Y-10567220D01*
X10600190Y-10527220D02*
X10560190Y-10567220D01*
X10857940Y-8271070D02*
X10897940Y-8311070D01*
X10897940Y-8271070D02*
X10857940Y-8311070D01*
X11669600Y-12911510D02*
X11709600Y-12951510D01*
X11709600Y-12911510D02*
X11669600Y-12951510D01*
X12474870Y-8220540D02*
X12514870Y-8260540D01*
X12514870Y-8220540D02*
X12474870Y-8260540D01*
X13067950Y-11664500D02*
X13107950Y-11704500D01*
X13107950Y-11664500D02*
X13067950Y-11704500D01*
X13131650Y-11083960D02*
X13171650Y-11123960D01*
X13171650Y-11083960D02*
X13131650Y-11123960D01*
X13141560Y-10871310D02*
X13181560Y-10911310D01*
X13181560Y-10871310D02*
X13141560Y-10911310D01*
X13227340Y-13809930D02*
X13267340Y-13849930D01*
X13267340Y-13809930D02*
X13227340Y-13849930D01*
X13460900Y-13915660D02*
X13500900Y-13955660D01*
X13500900Y-13915660D02*
X13460900Y-13955660D01*
X13759550Y-6908250D02*
X13799550Y-6948250D01*
X13799550Y-6908250D02*
X13759550Y-6948250D01*
X14015930Y-10714360D02*
X14055930Y-10754360D01*
X14055930Y-10714360D02*
X14015930Y-10754360D01*
X14029430Y-7240130D02*
X14069430Y-7280130D01*
X14069430Y-7240130D02*
X14029430Y-7280130D01*
X14110400Y-13266160D02*
X14150400Y-13306160D01*
X14150400Y-13266160D02*
X14110400Y-13306160D01*
X14150660Y-10147480D02*
X14190660Y-10187480D01*
X14190660Y-10147480D02*
X14150660Y-10187480D01*
X14200780Y-13094890D02*
X14240780Y-13134890D01*
X14240780Y-13094890D02*
X14200780Y-13134890D01*
X14289130Y-10861660D02*
X14329130Y-10901660D01*
X14329130Y-10861660D02*
X14289130Y-10901660D01*
X14341170Y-10091060D02*
X14381170Y-10131060D01*
X14381170Y-10091060D02*
X14341170Y-10131060D01*
X14405900Y-15030810D02*
X14445900Y-15070810D01*
X14445900Y-15030810D02*
X14405900Y-15070810D01*
X14415590Y-10691860D02*
X14455590Y-10731860D01*
X14455590Y-10691860D02*
X14415590Y-10731860D01*
X14426510Y-11224290D02*
X14466510Y-11264290D01*
X14466510Y-11224290D02*
X14426510Y-11264290D01*
X14469010Y-12820190D02*
X14509010Y-12860190D01*
X14509010Y-12820190D02*
X14469010Y-12860190D01*
X14469010Y-13979220D02*
X14509010Y-14019220D01*
X14509010Y-13979220D02*
X14469010Y-14019220D01*
X14782090Y-12823630D02*
X14822090Y-12863630D01*
X14822090Y-12823630D02*
X14782090Y-12863630D01*
X14942680Y-7508180D02*
X14982680Y-7548180D01*
X14982680Y-7508180D02*
X14942680Y-7548180D01*
X15129780Y-14478070D02*
X15169780Y-14518070D01*
X15169780Y-14478070D02*
X15129780Y-14518070D01*
X15173100Y-5624060D02*
X15213100Y-5664060D01*
X15213100Y-5624060D02*
X15173100Y-5664060D01*
X15245380Y-6444520D02*
X15285380Y-6484520D01*
X15285380Y-6444520D02*
X15245380Y-6484520D01*
X15301870Y-8660750D02*
X15341870Y-8700750D01*
X15341870Y-8660750D02*
X15301870Y-8700750D01*
X15336430Y-6496370D02*
X15376430Y-6536370D01*
X15376430Y-6496370D02*
X15336430Y-6536370D01*
X15796260Y-13231250D02*
X15836260Y-13271250D01*
X15836260Y-13231250D02*
X15796260Y-13271250D01*
X15860770Y-3422970D02*
X15900770Y-3462970D01*
X15900770Y-3422970D02*
X15860770Y-3462970D01*
X15942620Y-3607520D02*
X15982620Y-3647520D01*
X15982620Y-3607520D02*
X15942620Y-3647520D01*
X16548930Y-9013370D02*
X16588930Y-9053370D01*
X16588930Y-9013370D02*
X16548930Y-9053370D01*
X16587170Y-8348120D02*
X16627170Y-8388120D01*
X16627170Y-8348120D02*
X16587170Y-8388120D01*
X16815980Y-3497720D02*
X16855980Y-3537720D01*
X16855980Y-3497720D02*
X16815980Y-3537720D01*
X17045120Y-10111050D02*
X17085120Y-10151050D01*
X17085120Y-10111050D02*
X17045120Y-10151050D01*
X17386720Y-12095280D02*
X17426720Y-12135280D01*
X17426720Y-12095280D02*
X17386720Y-12135280D01*
X17428120Y-12265650D02*
X17468120Y-12305650D01*
X17468120Y-12265650D02*
X17428120Y-12305650D01*
X18088610Y-14958270D02*
X18128610Y-14998270D01*
X18128610Y-14958270D02*
X18088610Y-14998270D01*
X18139070Y-7425780D02*
X18179070Y-7465780D01*
X18179070Y-7425780D02*
X18139070Y-7465780D01*
X18194550Y-7319070D02*
X18234550Y-7359070D01*
X18234550Y-7319070D02*
X18194550Y-7359070D01*
X18219400Y-8383710D02*
X18259400Y-8423710D01*
X18259400Y-8383710D02*
X18219400Y-8423710D01*
X18242620Y-2590480D02*
X18282620Y-2630480D01*
X18282620Y-2590480D02*
X18242620Y-2630480D01*
X18291930Y-8561230D02*
X18331930Y-8601230D01*
X18331930Y-8561230D02*
X18291930Y-8601230D01*
X18342690Y-2628320D02*
X18382690Y-2668320D01*
X18382690Y-2628320D02*
X18342690Y-2668320D01*
X18491740Y-8864200D02*
X18531740Y-8904200D01*
X18531740Y-8864200D02*
X18491740Y-8904200D01*
X18562950Y-12543570D02*
X18602950Y-12583570D01*
X18602950Y-12543570D02*
X18562950Y-12583570D01*
X19659930Y-7754970D02*
X19699930Y-7794970D01*
X19699930Y-7754970D02*
X19659930Y-7794970D01*
X19676790Y-10948360D02*
X19716790Y-10988360D01*
X19716790Y-10948360D02*
X19676790Y-10988360D01*
X20007660Y-7751020D02*
X20047660Y-7791020D01*
X20047660Y-7751020D02*
X20007660Y-7791020D01*
X20473650Y-14028810D02*
X20513650Y-14068810D01*
X20513650Y-14028810D02*
X20473650Y-14068810D01*
X20560980Y-6681680D02*
X20600980Y-6721680D01*
X20600980Y-6681680D02*
X20560980Y-6721680D01*
X20754080Y-12543080D02*
X20794080Y-12583080D01*
X20794080Y-12543080D02*
X20754080Y-12583080D01*
X21198200Y-11763550D02*
X21238200Y-11803550D01*
X21238200Y-11763550D02*
X21198200Y-11803550D01*
X21263030Y-10825350D02*
X21303030Y-10865350D01*
X21303030Y-10825350D02*
X21263030Y-10865350D01*
X21600450Y-10622810D02*
X21640450Y-10662810D01*
X21640450Y-10622810D02*
X21600450Y-10662810D01*
X21689310Y-5713470D02*
X21729310Y-5753470D01*
X21729310Y-5713470D02*
X21689310Y-5753470D01*
X21708110Y-13676630D02*
X21748110Y-13716630D01*
X21748110Y-13676630D02*
X21708110Y-13716630D01*
X21744710Y-5250500D02*
X21784710Y-5290500D01*
X21784710Y-5250500D02*
X21744710Y-5290500D01*
X22098410Y-13193480D02*
X22138410Y-13233480D01*
X22138410Y-13193480D02*
X22098410Y-13233480D01*
X22396030Y-9050150D02*
X22436030Y-9090150D01*
X22436030Y-9050150D02*
X22396030Y-9090150D01*
X22403120Y-15059880D02*
X22443120Y-15099880D01*
X22443120Y-15059880D02*
X22403120Y-15099880D01*
X22704270Y-10602720D02*
X22744270Y-10642720D01*
X22744270Y-10602720D02*
X22704270Y-10642720D01*
X22854710Y-5276400D02*
X22894710Y-5316400D01*
X22894710Y-5276400D02*
X22854710Y-5316400D01*
X24040300Y-4158780D02*
X24080300Y-4198780D01*
X24080300Y-4158780D02*
X24040300Y-4198780D01*
X24968370Y-8668620D02*
X25008370Y-8708620D01*
X25008370Y-8668620D02*
X24968370Y-8708620D01*
X25379290Y-10330500D02*
X25419290Y-10370500D01*
X25419290Y-10330500D02*
X25379290Y-10370500D01*
D13*
X4167500Y-2921000D02*
G75*
G03*
X4167500Y-2921000I-40000J0D01*
G01*
X4167500Y-4445000D02*
G75*
G03*
X4167500Y-4445000I-40000J0D01*
G01*
X4167500Y-5461000D02*
G75*
G03*
X4167500Y-5461000I-40000J0D01*
G01*
X4167500Y-5715000D02*
G75*
G03*
X4167500Y-5715000I-40000J0D01*
G01*
X4167500Y-5969000D02*
G75*
G03*
X4167500Y-5969000I-40000J0D01*
G01*
X4167500Y-6223000D02*
G75*
G03*
X4167500Y-6223000I-40000J0D01*
G01*
X4167500Y-6477000D02*
G75*
G03*
X4167500Y-6477000I-40000J0D01*
G01*
X4167500Y-6731000D02*
G75*
G03*
X4167500Y-6731000I-40000J0D01*
G01*
X4167500Y-6985000D02*
G75*
G03*
X4167500Y-6985000I-40000J0D01*
G01*
X4167500Y-7239000D02*
G75*
G03*
X4167500Y-7239000I-40000J0D01*
G01*
X4167500Y-8255000D02*
G75*
G03*
X4167500Y-8255000I-40000J0D01*
G01*
X4167500Y-8509000D02*
G75*
G03*
X4167500Y-8509000I-40000J0D01*
G01*
X4167500Y-8763000D02*
G75*
G03*
X4167500Y-8763000I-40000J0D01*
G01*
X4167500Y-9017000D02*
G75*
G03*
X4167500Y-9017000I-40000J0D01*
G01*
X4167500Y-9271000D02*
G75*
G03*
X4167500Y-9271000I-40000J0D01*
G01*
X4167500Y-9525000D02*
G75*
G03*
X4167500Y-9525000I-40000J0D01*
G01*
X4167500Y-9779000D02*
G75*
G03*
X4167500Y-9779000I-40000J0D01*
G01*
X4167500Y-10033000D02*
G75*
G03*
X4167500Y-10033000I-40000J0D01*
G01*
X4168500Y-11175500D02*
G75*
G03*
X4168500Y-11175500I-40000J0D01*
G01*
X4168500Y-11429500D02*
G75*
G03*
X4168500Y-11429500I-40000J0D01*
G01*
X4168500Y-11683500D02*
G75*
G03*
X4168500Y-11683500I-40000J0D01*
G01*
X4168500Y-11937500D02*
G75*
G03*
X4168500Y-11937500I-40000J0D01*
G01*
X4168500Y-12191500D02*
G75*
G03*
X4168500Y-12191500I-40000J0D01*
G01*
X4168500Y-12445500D02*
G75*
G03*
X4168500Y-12445500I-40000J0D01*
G01*
X4168500Y-12699500D02*
G75*
G03*
X4168500Y-12699500I-40000J0D01*
G01*
X4298500Y-5143500D02*
G75*
G03*
X4298500Y-5143500I-40000J0D01*
G01*
X4298500Y-10858500D02*
G75*
G03*
X4298500Y-10858500I-40000J0D01*
G01*
X4366760Y-13906500D02*
G75*
G03*
X4366760Y-13906500I-40000J0D01*
G01*
X4616760Y-13906500D02*
G75*
G03*
X4616760Y-13906500I-40000J0D01*
G01*
X4798500Y-5143500D02*
G75*
G03*
X4798500Y-5143500I-40000J0D01*
G01*
X4798500Y-10858500D02*
G75*
G03*
X4798500Y-10858500I-40000J0D01*
G01*
X4929500Y-2921000D02*
G75*
G03*
X4929500Y-2921000I-40000J0D01*
G01*
X4929500Y-4445000D02*
G75*
G03*
X4929500Y-4445000I-40000J0D01*
G01*
X4929500Y-5461000D02*
G75*
G03*
X4929500Y-5461000I-40000J0D01*
G01*
X4929500Y-5715000D02*
G75*
G03*
X4929500Y-5715000I-40000J0D01*
G01*
X4929500Y-5969000D02*
G75*
G03*
X4929500Y-5969000I-40000J0D01*
G01*
X4929500Y-6223000D02*
G75*
G03*
X4929500Y-6223000I-40000J0D01*
G01*
X4929500Y-6477000D02*
G75*
G03*
X4929500Y-6477000I-40000J0D01*
G01*
X4929500Y-6731000D02*
G75*
G03*
X4929500Y-6731000I-40000J0D01*
G01*
X4929500Y-6985000D02*
G75*
G03*
X4929500Y-6985000I-40000J0D01*
G01*
X4929500Y-7239000D02*
G75*
G03*
X4929500Y-7239000I-40000J0D01*
G01*
X4929500Y-8255000D02*
G75*
G03*
X4929500Y-8255000I-40000J0D01*
G01*
X4929500Y-8509000D02*
G75*
G03*
X4929500Y-8509000I-40000J0D01*
G01*
X4929500Y-8763000D02*
G75*
G03*
X4929500Y-8763000I-40000J0D01*
G01*
X4929500Y-9017000D02*
G75*
G03*
X4929500Y-9017000I-40000J0D01*
G01*
X4929500Y-9271000D02*
G75*
G03*
X4929500Y-9271000I-40000J0D01*
G01*
X4929500Y-9525000D02*
G75*
G03*
X4929500Y-9525000I-40000J0D01*
G01*
X4929500Y-9779000D02*
G75*
G03*
X4929500Y-9779000I-40000J0D01*
G01*
X4929500Y-10033000D02*
G75*
G03*
X4929500Y-10033000I-40000J0D01*
G01*
X4930500Y-11175500D02*
G75*
G03*
X4930500Y-11175500I-40000J0D01*
G01*
X4930500Y-11429500D02*
G75*
G03*
X4930500Y-11429500I-40000J0D01*
G01*
X4930500Y-11683500D02*
G75*
G03*
X4930500Y-11683500I-40000J0D01*
G01*
X4930500Y-11937500D02*
G75*
G03*
X4930500Y-11937500I-40000J0D01*
G01*
X4930500Y-12191500D02*
G75*
G03*
X4930500Y-12191500I-40000J0D01*
G01*
X4930500Y-12445500D02*
G75*
G03*
X4930500Y-12445500I-40000J0D01*
G01*
X4930500Y-12699500D02*
G75*
G03*
X4930500Y-12699500I-40000J0D01*
G01*
X5437500Y-2921000D02*
G75*
G03*
X5437500Y-2921000I-40000J0D01*
G01*
X5437500Y-3421000D02*
G75*
G03*
X5437500Y-3421000I-40000J0D01*
G01*
X5437500Y-5969000D02*
G75*
G03*
X5437500Y-5969000I-40000J0D01*
G01*
X5437500Y-6731000D02*
G75*
G03*
X5437500Y-6731000I-40000J0D01*
G01*
X5818500Y-5969000D02*
G75*
G03*
X5818500Y-5969000I-40000J0D01*
G01*
X5818500Y-6731000D02*
G75*
G03*
X5818500Y-6731000I-40000J0D01*
G01*
X5882000Y-8255000D02*
G75*
G03*
X5882000Y-8255000I-40000J0D01*
G01*
X5882000Y-8509000D02*
G75*
G03*
X5882000Y-8509000I-40000J0D01*
G01*
X5882000Y-8763000D02*
G75*
G03*
X5882000Y-8763000I-40000J0D01*
G01*
X5882000Y-9017000D02*
G75*
G03*
X5882000Y-9017000I-40000J0D01*
G01*
X5882000Y-9271000D02*
G75*
G03*
X5882000Y-9271000I-40000J0D01*
G01*
X5882000Y-9525000D02*
G75*
G03*
X5882000Y-9525000I-40000J0D01*
G01*
X5882000Y-9779000D02*
G75*
G03*
X5882000Y-9779000I-40000J0D01*
G01*
X5882000Y-10033000D02*
G75*
G03*
X5882000Y-10033000I-40000J0D01*
G01*
X5882000Y-10287000D02*
G75*
G03*
X5882000Y-10287000I-40000J0D01*
G01*
X6326500Y-2794000D02*
G75*
G03*
X6326500Y-2794000I-40000J0D01*
G01*
X6326500Y-3048000D02*
G75*
G03*
X6326500Y-3048000I-40000J0D01*
G01*
X6326500Y-3302000D02*
G75*
G03*
X6326500Y-3302000I-40000J0D01*
G01*
X6326500Y-3556000D02*
G75*
G03*
X6326500Y-3556000I-40000J0D01*
G01*
X6326500Y-3810000D02*
G75*
G03*
X6326500Y-3810000I-40000J0D01*
G01*
X6326500Y-4064000D02*
G75*
G03*
X6326500Y-4064000I-40000J0D01*
G01*
X6326500Y-4318000D02*
G75*
G03*
X6326500Y-4318000I-40000J0D01*
G01*
X6326500Y-4572000D02*
G75*
G03*
X6326500Y-4572000I-40000J0D01*
G01*
X6326500Y-5461000D02*
G75*
G03*
X6326500Y-5461000I-40000J0D01*
G01*
X6326500Y-5715000D02*
G75*
G03*
X6326500Y-5715000I-40000J0D01*
G01*
X6326500Y-5969000D02*
G75*
G03*
X6326500Y-5969000I-40000J0D01*
G01*
X6326500Y-6223000D02*
G75*
G03*
X6326500Y-6223000I-40000J0D01*
G01*
X6326500Y-6477000D02*
G75*
G03*
X6326500Y-6477000I-40000J0D01*
G01*
X6326500Y-6731000D02*
G75*
G03*
X6326500Y-6731000I-40000J0D01*
G01*
X6326500Y-6985000D02*
G75*
G03*
X6326500Y-6985000I-40000J0D01*
G01*
X6326500Y-7239000D02*
G75*
G03*
X6326500Y-7239000I-40000J0D01*
G01*
X6326500Y-8255000D02*
G75*
G03*
X6326500Y-8255000I-40000J0D01*
G01*
X6326500Y-8509000D02*
G75*
G03*
X6326500Y-8509000I-40000J0D01*
G01*
X6326500Y-8763000D02*
G75*
G03*
X6326500Y-8763000I-40000J0D01*
G01*
X6326500Y-9017000D02*
G75*
G03*
X6326500Y-9017000I-40000J0D01*
G01*
X6326500Y-9271000D02*
G75*
G03*
X6326500Y-9271000I-40000J0D01*
G01*
X6326500Y-9525000D02*
G75*
G03*
X6326500Y-9525000I-40000J0D01*
G01*
X6326500Y-9779000D02*
G75*
G03*
X6326500Y-9779000I-40000J0D01*
G01*
X6326500Y-10033000D02*
G75*
G03*
X6326500Y-10033000I-40000J0D01*
G01*
X6326500Y-11176500D02*
G75*
G03*
X6326500Y-11176500I-40000J0D01*
G01*
X6326500Y-11430500D02*
G75*
G03*
X6326500Y-11430500I-40000J0D01*
G01*
X6326500Y-11684500D02*
G75*
G03*
X6326500Y-11684500I-40000J0D01*
G01*
X6326500Y-11938500D02*
G75*
G03*
X6326500Y-11938500I-40000J0D01*
G01*
X6326500Y-12192500D02*
G75*
G03*
X6326500Y-12192500I-40000J0D01*
G01*
X6326500Y-12446500D02*
G75*
G03*
X6326500Y-12446500I-40000J0D01*
G01*
X6326500Y-12700500D02*
G75*
G03*
X6326500Y-12700500I-40000J0D01*
G01*
X6326500Y-12954500D02*
G75*
G03*
X6326500Y-12954500I-40000J0D01*
G01*
X6326500Y-13208500D02*
G75*
G03*
X6326500Y-13208500I-40000J0D01*
G01*
X6326500Y-13462500D02*
G75*
G03*
X6326500Y-13462500I-40000J0D01*
G01*
X6457500Y-2476500D02*
G75*
G03*
X6457500Y-2476500I-40000J0D01*
G01*
X6457500Y-5143500D02*
G75*
G03*
X6457500Y-5143500I-40000J0D01*
G01*
X6457500Y-10858500D02*
G75*
G03*
X6457500Y-10858500I-40000J0D01*
G01*
X6957500Y-2476500D02*
G75*
G03*
X6957500Y-2476500I-40000J0D01*
G01*
X6957500Y-5143500D02*
G75*
G03*
X6957500Y-5143500I-40000J0D01*
G01*
X6957500Y-10858500D02*
G75*
G03*
X6957500Y-10858500I-40000J0D01*
G01*
X7088500Y-2794000D02*
G75*
G03*
X7088500Y-2794000I-40000J0D01*
G01*
X7088500Y-3048000D02*
G75*
G03*
X7088500Y-3048000I-40000J0D01*
G01*
X7088500Y-3302000D02*
G75*
G03*
X7088500Y-3302000I-40000J0D01*
G01*
X7088500Y-3556000D02*
G75*
G03*
X7088500Y-3556000I-40000J0D01*
G01*
X7088500Y-3810000D02*
G75*
G03*
X7088500Y-3810000I-40000J0D01*
G01*
X7088500Y-4064000D02*
G75*
G03*
X7088500Y-4064000I-40000J0D01*
G01*
X7088500Y-4318000D02*
G75*
G03*
X7088500Y-4318000I-40000J0D01*
G01*
X7088500Y-4572000D02*
G75*
G03*
X7088500Y-4572000I-40000J0D01*
G01*
X7088500Y-5461000D02*
G75*
G03*
X7088500Y-5461000I-40000J0D01*
G01*
X7088500Y-5715000D02*
G75*
G03*
X7088500Y-5715000I-40000J0D01*
G01*
X7088500Y-5969000D02*
G75*
G03*
X7088500Y-5969000I-40000J0D01*
G01*
X7088500Y-6223000D02*
G75*
G03*
X7088500Y-6223000I-40000J0D01*
G01*
X7088500Y-6477000D02*
G75*
G03*
X7088500Y-6477000I-40000J0D01*
G01*
X7088500Y-6731000D02*
G75*
G03*
X7088500Y-6731000I-40000J0D01*
G01*
X7088500Y-6985000D02*
G75*
G03*
X7088500Y-6985000I-40000J0D01*
G01*
X7088500Y-7239000D02*
G75*
G03*
X7088500Y-7239000I-40000J0D01*
G01*
X7088500Y-8255000D02*
G75*
G03*
X7088500Y-8255000I-40000J0D01*
G01*
X7088500Y-8509000D02*
G75*
G03*
X7088500Y-8509000I-40000J0D01*
G01*
X7088500Y-8763000D02*
G75*
G03*
X7088500Y-8763000I-40000J0D01*
G01*
X7088500Y-9017000D02*
G75*
G03*
X7088500Y-9017000I-40000J0D01*
G01*
X7088500Y-9271000D02*
G75*
G03*
X7088500Y-9271000I-40000J0D01*
G01*
X7088500Y-9525000D02*
G75*
G03*
X7088500Y-9525000I-40000J0D01*
G01*
X7088500Y-9779000D02*
G75*
G03*
X7088500Y-9779000I-40000J0D01*
G01*
X7088500Y-10033000D02*
G75*
G03*
X7088500Y-10033000I-40000J0D01*
G01*
X7088500Y-11176500D02*
G75*
G03*
X7088500Y-11176500I-40000J0D01*
G01*
X7088500Y-11430500D02*
G75*
G03*
X7088500Y-11430500I-40000J0D01*
G01*
X7088500Y-11684500D02*
G75*
G03*
X7088500Y-11684500I-40000J0D01*
G01*
X7088500Y-11938500D02*
G75*
G03*
X7088500Y-11938500I-40000J0D01*
G01*
X7088500Y-12192500D02*
G75*
G03*
X7088500Y-12192500I-40000J0D01*
G01*
X7088500Y-12446500D02*
G75*
G03*
X7088500Y-12446500I-40000J0D01*
G01*
X7088500Y-12700500D02*
G75*
G03*
X7088500Y-12700500I-40000J0D01*
G01*
X7088500Y-12954500D02*
G75*
G03*
X7088500Y-12954500I-40000J0D01*
G01*
X7088500Y-13208500D02*
G75*
G03*
X7088500Y-13208500I-40000J0D01*
G01*
X7088500Y-13462500D02*
G75*
G03*
X7088500Y-13462500I-40000J0D01*
G01*
X7596500Y-12700000D02*
G75*
G03*
X7596500Y-12700000I-40000J0D01*
G01*
X7596500Y-13462000D02*
G75*
G03*
X7596500Y-13462000I-40000J0D01*
G01*
X7977500Y-12700000D02*
G75*
G03*
X7977500Y-12700000I-40000J0D01*
G01*
X7977500Y-13462000D02*
G75*
G03*
X7977500Y-13462000I-40000J0D01*
G01*
X8485500Y-2794000D02*
G75*
G03*
X8485500Y-2794000I-40000J0D01*
G01*
X8485500Y-3048000D02*
G75*
G03*
X8485500Y-3048000I-40000J0D01*
G01*
X8485500Y-3302000D02*
G75*
G03*
X8485500Y-3302000I-40000J0D01*
G01*
X8485500Y-3556000D02*
G75*
G03*
X8485500Y-3556000I-40000J0D01*
G01*
X8485500Y-3810000D02*
G75*
G03*
X8485500Y-3810000I-40000J0D01*
G01*
X8485500Y-4064000D02*
G75*
G03*
X8485500Y-4064000I-40000J0D01*
G01*
X8485500Y-4318000D02*
G75*
G03*
X8485500Y-4318000I-40000J0D01*
G01*
X8485500Y-4572000D02*
G75*
G03*
X8485500Y-4572000I-40000J0D01*
G01*
X8485500Y-5461000D02*
G75*
G03*
X8485500Y-5461000I-40000J0D01*
G01*
X8485500Y-5715000D02*
G75*
G03*
X8485500Y-5715000I-40000J0D01*
G01*
X8485500Y-5969000D02*
G75*
G03*
X8485500Y-5969000I-40000J0D01*
G01*
X8485500Y-6223000D02*
G75*
G03*
X8485500Y-6223000I-40000J0D01*
G01*
X8485500Y-6477000D02*
G75*
G03*
X8485500Y-6477000I-40000J0D01*
G01*
X8485500Y-6731000D02*
G75*
G03*
X8485500Y-6731000I-40000J0D01*
G01*
X8485500Y-6985000D02*
G75*
G03*
X8485500Y-6985000I-40000J0D01*
G01*
X8485500Y-8255000D02*
G75*
G03*
X8485500Y-8255000I-40000J0D01*
G01*
X8485500Y-8509000D02*
G75*
G03*
X8485500Y-8509000I-40000J0D01*
G01*
X8485500Y-8763000D02*
G75*
G03*
X8485500Y-8763000I-40000J0D01*
G01*
X8485500Y-9017000D02*
G75*
G03*
X8485500Y-9017000I-40000J0D01*
G01*
X8485500Y-9271000D02*
G75*
G03*
X8485500Y-9271000I-40000J0D01*
G01*
X8485500Y-9525000D02*
G75*
G03*
X8485500Y-9525000I-40000J0D01*
G01*
X8485500Y-9779000D02*
G75*
G03*
X8485500Y-9779000I-40000J0D01*
G01*
X8485500Y-10033000D02*
G75*
G03*
X8485500Y-10033000I-40000J0D01*
G01*
X8485500Y-11176000D02*
G75*
G03*
X8485500Y-11176000I-40000J0D01*
G01*
X8485500Y-11430000D02*
G75*
G03*
X8485500Y-11430000I-40000J0D01*
G01*
X8485500Y-11684000D02*
G75*
G03*
X8485500Y-11684000I-40000J0D01*
G01*
X8485500Y-11938000D02*
G75*
G03*
X8485500Y-11938000I-40000J0D01*
G01*
X8485500Y-12192000D02*
G75*
G03*
X8485500Y-12192000I-40000J0D01*
G01*
X8485500Y-12446000D02*
G75*
G03*
X8485500Y-12446000I-40000J0D01*
G01*
X8485500Y-12700000D02*
G75*
G03*
X8485500Y-12700000I-40000J0D01*
G01*
X8485500Y-12954000D02*
G75*
G03*
X8485500Y-12954000I-40000J0D01*
G01*
X8485500Y-13208000D02*
G75*
G03*
X8485500Y-13208000I-40000J0D01*
G01*
X8485500Y-13462000D02*
G75*
G03*
X8485500Y-13462000I-40000J0D01*
G01*
X8612500Y-2476500D02*
G75*
G03*
X8612500Y-2476500I-40000J0D01*
G01*
X8612500Y-5143500D02*
G75*
G03*
X8612500Y-5143500I-40000J0D01*
G01*
X8616500Y-10858500D02*
G75*
G03*
X8616500Y-10858500I-40000J0D01*
G01*
X9112500Y-2476500D02*
G75*
G03*
X9112500Y-2476500I-40000J0D01*
G01*
X9112500Y-5143500D02*
G75*
G03*
X9112500Y-5143500I-40000J0D01*
G01*
X9116500Y-10858500D02*
G75*
G03*
X9116500Y-10858500I-40000J0D01*
G01*
X9247500Y-2794000D02*
G75*
G03*
X9247500Y-2794000I-40000J0D01*
G01*
X9247500Y-3048000D02*
G75*
G03*
X9247500Y-3048000I-40000J0D01*
G01*
X9247500Y-3302000D02*
G75*
G03*
X9247500Y-3302000I-40000J0D01*
G01*
X9247500Y-3556000D02*
G75*
G03*
X9247500Y-3556000I-40000J0D01*
G01*
X9247500Y-3810000D02*
G75*
G03*
X9247500Y-3810000I-40000J0D01*
G01*
X9247500Y-4064000D02*
G75*
G03*
X9247500Y-4064000I-40000J0D01*
G01*
X9247500Y-4318000D02*
G75*
G03*
X9247500Y-4318000I-40000J0D01*
G01*
X9247500Y-4572000D02*
G75*
G03*
X9247500Y-4572000I-40000J0D01*
G01*
X9247500Y-5461000D02*
G75*
G03*
X9247500Y-5461000I-40000J0D01*
G01*
X9247500Y-5715000D02*
G75*
G03*
X9247500Y-5715000I-40000J0D01*
G01*
X9247500Y-5969000D02*
G75*
G03*
X9247500Y-5969000I-40000J0D01*
G01*
X9247500Y-6223000D02*
G75*
G03*
X9247500Y-6223000I-40000J0D01*
G01*
X9247500Y-6477000D02*
G75*
G03*
X9247500Y-6477000I-40000J0D01*
G01*
X9247500Y-6731000D02*
G75*
G03*
X9247500Y-6731000I-40000J0D01*
G01*
X9247500Y-6985000D02*
G75*
G03*
X9247500Y-6985000I-40000J0D01*
G01*
X9247500Y-8255000D02*
G75*
G03*
X9247500Y-8255000I-40000J0D01*
G01*
X9247500Y-8509000D02*
G75*
G03*
X9247500Y-8509000I-40000J0D01*
G01*
X9247500Y-8763000D02*
G75*
G03*
X9247500Y-8763000I-40000J0D01*
G01*
X9247500Y-9017000D02*
G75*
G03*
X9247500Y-9017000I-40000J0D01*
G01*
X9247500Y-9271000D02*
G75*
G03*
X9247500Y-9271000I-40000J0D01*
G01*
X9247500Y-9525000D02*
G75*
G03*
X9247500Y-9525000I-40000J0D01*
G01*
X9247500Y-9779000D02*
G75*
G03*
X9247500Y-9779000I-40000J0D01*
G01*
X9247500Y-10033000D02*
G75*
G03*
X9247500Y-10033000I-40000J0D01*
G01*
X9247500Y-11176000D02*
G75*
G03*
X9247500Y-11176000I-40000J0D01*
G01*
X9247500Y-11430000D02*
G75*
G03*
X9247500Y-11430000I-40000J0D01*
G01*
X9247500Y-11684000D02*
G75*
G03*
X9247500Y-11684000I-40000J0D01*
G01*
X9247500Y-11938000D02*
G75*
G03*
X9247500Y-11938000I-40000J0D01*
G01*
X9247500Y-12192000D02*
G75*
G03*
X9247500Y-12192000I-40000J0D01*
G01*
X9247500Y-12446000D02*
G75*
G03*
X9247500Y-12446000I-40000J0D01*
G01*
X9247500Y-12700000D02*
G75*
G03*
X9247500Y-12700000I-40000J0D01*
G01*
X9247500Y-12954000D02*
G75*
G03*
X9247500Y-12954000I-40000J0D01*
G01*
X9247500Y-13208000D02*
G75*
G03*
X9247500Y-13208000I-40000J0D01*
G01*
X9247500Y-13462000D02*
G75*
G03*
X9247500Y-13462000I-40000J0D01*
G01*
X10009500Y-10033000D02*
G75*
G03*
X10009500Y-10033000I-40000J0D01*
G01*
X10009500Y-10795000D02*
G75*
G03*
X10009500Y-10795000I-40000J0D01*
G01*
X10644500Y-2095500D02*
G75*
G03*
X10644500Y-2095500I-40000J0D01*
G01*
X10644500Y-2794000D02*
G75*
G03*
X10644500Y-2794000I-40000J0D01*
G01*
X10644500Y-3048000D02*
G75*
G03*
X10644500Y-3048000I-40000J0D01*
G01*
X10644500Y-3302000D02*
G75*
G03*
X10644500Y-3302000I-40000J0D01*
G01*
X10644500Y-3556000D02*
G75*
G03*
X10644500Y-3556000I-40000J0D01*
G01*
X10644500Y-3810000D02*
G75*
G03*
X10644500Y-3810000I-40000J0D01*
G01*
X10644500Y-4064000D02*
G75*
G03*
X10644500Y-4064000I-40000J0D01*
G01*
X10644500Y-4318000D02*
G75*
G03*
X10644500Y-4318000I-40000J0D01*
G01*
X10644500Y-4572000D02*
G75*
G03*
X10644500Y-4572000I-40000J0D01*
G01*
X10644500Y-5461000D02*
G75*
G03*
X10644500Y-5461000I-40000J0D01*
G01*
X10644500Y-5715000D02*
G75*
G03*
X10644500Y-5715000I-40000J0D01*
G01*
X10644500Y-5969000D02*
G75*
G03*
X10644500Y-5969000I-40000J0D01*
G01*
X10644500Y-6223000D02*
G75*
G03*
X10644500Y-6223000I-40000J0D01*
G01*
X10644500Y-6477000D02*
G75*
G03*
X10644500Y-6477000I-40000J0D01*
G01*
X10644500Y-6731000D02*
G75*
G03*
X10644500Y-6731000I-40000J0D01*
G01*
X10644500Y-6985000D02*
G75*
G03*
X10644500Y-6985000I-40000J0D01*
G01*
X10644500Y-8255000D02*
G75*
G03*
X10644500Y-8255000I-40000J0D01*
G01*
X10644500Y-8509000D02*
G75*
G03*
X10644500Y-8509000I-40000J0D01*
G01*
X10644500Y-8763000D02*
G75*
G03*
X10644500Y-8763000I-40000J0D01*
G01*
X10644500Y-9017000D02*
G75*
G03*
X10644500Y-9017000I-40000J0D01*
G01*
X10644500Y-9271000D02*
G75*
G03*
X10644500Y-9271000I-40000J0D01*
G01*
X10644500Y-9525000D02*
G75*
G03*
X10644500Y-9525000I-40000J0D01*
G01*
X10644500Y-9779000D02*
G75*
G03*
X10644500Y-9779000I-40000J0D01*
G01*
X10644500Y-10033000D02*
G75*
G03*
X10644500Y-10033000I-40000J0D01*
G01*
X10644500Y-11176000D02*
G75*
G03*
X10644500Y-11176000I-40000J0D01*
G01*
X10644500Y-11430000D02*
G75*
G03*
X10644500Y-11430000I-40000J0D01*
G01*
X10644500Y-11684000D02*
G75*
G03*
X10644500Y-11684000I-40000J0D01*
G01*
X10644500Y-11938000D02*
G75*
G03*
X10644500Y-11938000I-40000J0D01*
G01*
X10644500Y-12192000D02*
G75*
G03*
X10644500Y-12192000I-40000J0D01*
G01*
X10644500Y-12446000D02*
G75*
G03*
X10644500Y-12446000I-40000J0D01*
G01*
X10644500Y-12700000D02*
G75*
G03*
X10644500Y-12700000I-40000J0D01*
G01*
X10644500Y-12954000D02*
G75*
G03*
X10644500Y-12954000I-40000J0D01*
G01*
X10644500Y-13208000D02*
G75*
G03*
X10644500Y-13208000I-40000J0D01*
G01*
X10644500Y-13462000D02*
G75*
G03*
X10644500Y-13462000I-40000J0D01*
G01*
X10771500Y-2476500D02*
G75*
G03*
X10771500Y-2476500I-40000J0D01*
G01*
X10771500Y-10858500D02*
G75*
G03*
X10771500Y-10858500I-40000J0D01*
G01*
X10775500Y-5143500D02*
G75*
G03*
X10775500Y-5143500I-40000J0D01*
G01*
X10898500Y-2095500D02*
G75*
G03*
X10898500Y-2095500I-40000J0D01*
G01*
X11152500Y-2095500D02*
G75*
G03*
X11152500Y-2095500I-40000J0D01*
G01*
X11271500Y-2476500D02*
G75*
G03*
X11271500Y-2476500I-40000J0D01*
G01*
X11271500Y-10858500D02*
G75*
G03*
X11271500Y-10858500I-40000J0D01*
G01*
X11275500Y-5143500D02*
G75*
G03*
X11275500Y-5143500I-40000J0D01*
G01*
X11406500Y-2095500D02*
G75*
G03*
X11406500Y-2095500I-40000J0D01*
G01*
X11406500Y-2794000D02*
G75*
G03*
X11406500Y-2794000I-40000J0D01*
G01*
X11406500Y-3048000D02*
G75*
G03*
X11406500Y-3048000I-40000J0D01*
G01*
X11406500Y-3302000D02*
G75*
G03*
X11406500Y-3302000I-40000J0D01*
G01*
X11406500Y-3556000D02*
G75*
G03*
X11406500Y-3556000I-40000J0D01*
G01*
X11406500Y-3810000D02*
G75*
G03*
X11406500Y-3810000I-40000J0D01*
G01*
X11406500Y-4064000D02*
G75*
G03*
X11406500Y-4064000I-40000J0D01*
G01*
X11406500Y-4318000D02*
G75*
G03*
X11406500Y-4318000I-40000J0D01*
G01*
X11406500Y-4572000D02*
G75*
G03*
X11406500Y-4572000I-40000J0D01*
G01*
X11406500Y-5461000D02*
G75*
G03*
X11406500Y-5461000I-40000J0D01*
G01*
X11406500Y-5715000D02*
G75*
G03*
X11406500Y-5715000I-40000J0D01*
G01*
X11406500Y-5969000D02*
G75*
G03*
X11406500Y-5969000I-40000J0D01*
G01*
X11406500Y-6223000D02*
G75*
G03*
X11406500Y-6223000I-40000J0D01*
G01*
X11406500Y-6477000D02*
G75*
G03*
X11406500Y-6477000I-40000J0D01*
G01*
X11406500Y-6731000D02*
G75*
G03*
X11406500Y-6731000I-40000J0D01*
G01*
X11406500Y-6985000D02*
G75*
G03*
X11406500Y-6985000I-40000J0D01*
G01*
X11406500Y-8255000D02*
G75*
G03*
X11406500Y-8255000I-40000J0D01*
G01*
X11406500Y-8509000D02*
G75*
G03*
X11406500Y-8509000I-40000J0D01*
G01*
X11406500Y-8763000D02*
G75*
G03*
X11406500Y-8763000I-40000J0D01*
G01*
X11406500Y-9017000D02*
G75*
G03*
X11406500Y-9017000I-40000J0D01*
G01*
X11406500Y-9271000D02*
G75*
G03*
X11406500Y-9271000I-40000J0D01*
G01*
X11406500Y-9525000D02*
G75*
G03*
X11406500Y-9525000I-40000J0D01*
G01*
X11406500Y-9779000D02*
G75*
G03*
X11406500Y-9779000I-40000J0D01*
G01*
X11406500Y-10033000D02*
G75*
G03*
X11406500Y-10033000I-40000J0D01*
G01*
X11406500Y-11176000D02*
G75*
G03*
X11406500Y-11176000I-40000J0D01*
G01*
X11406500Y-11430000D02*
G75*
G03*
X11406500Y-11430000I-40000J0D01*
G01*
X11406500Y-11684000D02*
G75*
G03*
X11406500Y-11684000I-40000J0D01*
G01*
X11406500Y-11938000D02*
G75*
G03*
X11406500Y-11938000I-40000J0D01*
G01*
X11406500Y-12192000D02*
G75*
G03*
X11406500Y-12192000I-40000J0D01*
G01*
X11406500Y-12446000D02*
G75*
G03*
X11406500Y-12446000I-40000J0D01*
G01*
X11406500Y-12700000D02*
G75*
G03*
X11406500Y-12700000I-40000J0D01*
G01*
X11406500Y-12954000D02*
G75*
G03*
X11406500Y-12954000I-40000J0D01*
G01*
X11406500Y-13208000D02*
G75*
G03*
X11406500Y-13208000I-40000J0D01*
G01*
X11406500Y-13462000D02*
G75*
G03*
X11406500Y-13462000I-40000J0D01*
G01*
X11660500Y-2095500D02*
G75*
G03*
X11660500Y-2095500I-40000J0D01*
G01*
X11914500Y-2095500D02*
G75*
G03*
X11914500Y-2095500I-40000J0D01*
G01*
X11914500Y-11430000D02*
G75*
G03*
X11914500Y-11430000I-40000J0D01*
G01*
X11914500Y-12192000D02*
G75*
G03*
X11914500Y-12192000I-40000J0D01*
G01*
X12168500Y-2095500D02*
G75*
G03*
X12168500Y-2095500I-40000J0D01*
G01*
X12295500Y-11430000D02*
G75*
G03*
X12295500Y-11430000I-40000J0D01*
G01*
X12295500Y-12192000D02*
G75*
G03*
X12295500Y-12192000I-40000J0D01*
G01*
X12295500Y-12446000D02*
G75*
G03*
X12295500Y-12446000I-40000J0D01*
G01*
X12295500Y-13208000D02*
G75*
G03*
X12295500Y-13208000I-40000J0D01*
G01*
X12422500Y-2095500D02*
G75*
G03*
X12422500Y-2095500I-40000J0D01*
G01*
X12676500Y-2095500D02*
G75*
G03*
X12676500Y-2095500I-40000J0D01*
G01*
X12803500Y-2794000D02*
G75*
G03*
X12803500Y-2794000I-40000J0D01*
G01*
X12803500Y-3048000D02*
G75*
G03*
X12803500Y-3048000I-40000J0D01*
G01*
X12803500Y-3302000D02*
G75*
G03*
X12803500Y-3302000I-40000J0D01*
G01*
X12803500Y-3556000D02*
G75*
G03*
X12803500Y-3556000I-40000J0D01*
G01*
X12803500Y-3810000D02*
G75*
G03*
X12803500Y-3810000I-40000J0D01*
G01*
X12803500Y-4064000D02*
G75*
G03*
X12803500Y-4064000I-40000J0D01*
G01*
X12803500Y-4318000D02*
G75*
G03*
X12803500Y-4318000I-40000J0D01*
G01*
X12803500Y-4572000D02*
G75*
G03*
X12803500Y-4572000I-40000J0D01*
G01*
X12803500Y-5461000D02*
G75*
G03*
X12803500Y-5461000I-40000J0D01*
G01*
X12803500Y-5715000D02*
G75*
G03*
X12803500Y-5715000I-40000J0D01*
G01*
X12803500Y-5969000D02*
G75*
G03*
X12803500Y-5969000I-40000J0D01*
G01*
X12803500Y-6223000D02*
G75*
G03*
X12803500Y-6223000I-40000J0D01*
G01*
X12803500Y-6477000D02*
G75*
G03*
X12803500Y-6477000I-40000J0D01*
G01*
X12803500Y-6731000D02*
G75*
G03*
X12803500Y-6731000I-40000J0D01*
G01*
X12803500Y-6985000D02*
G75*
G03*
X12803500Y-6985000I-40000J0D01*
G01*
X12803500Y-8128000D02*
G75*
G03*
X12803500Y-8128000I-40000J0D01*
G01*
X12803500Y-8382000D02*
G75*
G03*
X12803500Y-8382000I-40000J0D01*
G01*
X12803500Y-8636000D02*
G75*
G03*
X12803500Y-8636000I-40000J0D01*
G01*
X12803500Y-8890000D02*
G75*
G03*
X12803500Y-8890000I-40000J0D01*
G01*
X12803500Y-9144000D02*
G75*
G03*
X12803500Y-9144000I-40000J0D01*
G01*
X12803500Y-9398000D02*
G75*
G03*
X12803500Y-9398000I-40000J0D01*
G01*
X12803500Y-9652000D02*
G75*
G03*
X12803500Y-9652000I-40000J0D01*
G01*
X12803500Y-9906000D02*
G75*
G03*
X12803500Y-9906000I-40000J0D01*
G01*
X12803500Y-10160000D02*
G75*
G03*
X12803500Y-10160000I-40000J0D01*
G01*
X12803500Y-10414000D02*
G75*
G03*
X12803500Y-10414000I-40000J0D01*
G01*
X12804500Y-11176500D02*
G75*
G03*
X12804500Y-11176500I-40000J0D01*
G01*
X12804500Y-11430500D02*
G75*
G03*
X12804500Y-11430500I-40000J0D01*
G01*
X12804500Y-11684500D02*
G75*
G03*
X12804500Y-11684500I-40000J0D01*
G01*
X12804500Y-11938500D02*
G75*
G03*
X12804500Y-11938500I-40000J0D01*
G01*
X12804500Y-12192500D02*
G75*
G03*
X12804500Y-12192500I-40000J0D01*
G01*
X12804500Y-12446500D02*
G75*
G03*
X12804500Y-12446500I-40000J0D01*
G01*
X12804500Y-12700500D02*
G75*
G03*
X12804500Y-12700500I-40000J0D01*
G01*
X12804500Y-12954500D02*
G75*
G03*
X12804500Y-12954500I-40000J0D01*
G01*
X12804500Y-13208500D02*
G75*
G03*
X12804500Y-13208500I-40000J0D01*
G01*
X12804500Y-13462500D02*
G75*
G03*
X12804500Y-13462500I-40000J0D01*
G01*
X12930500Y-2476500D02*
G75*
G03*
X12930500Y-2476500I-40000J0D01*
G01*
X12930500Y-5143500D02*
G75*
G03*
X12930500Y-5143500I-40000J0D01*
G01*
X12930500Y-7810500D02*
G75*
G03*
X12930500Y-7810500I-40000J0D01*
G01*
X12934500Y-10858500D02*
G75*
G03*
X12934500Y-10858500I-40000J0D01*
G01*
X13430500Y-2476500D02*
G75*
G03*
X13430500Y-2476500I-40000J0D01*
G01*
X13430500Y-5143500D02*
G75*
G03*
X13430500Y-5143500I-40000J0D01*
G01*
X13430500Y-7810500D02*
G75*
G03*
X13430500Y-7810500I-40000J0D01*
G01*
X13434500Y-10858500D02*
G75*
G03*
X13434500Y-10858500I-40000J0D01*
G01*
X13565500Y-2794000D02*
G75*
G03*
X13565500Y-2794000I-40000J0D01*
G01*
X13565500Y-3048000D02*
G75*
G03*
X13565500Y-3048000I-40000J0D01*
G01*
X13565500Y-3302000D02*
G75*
G03*
X13565500Y-3302000I-40000J0D01*
G01*
X13565500Y-3556000D02*
G75*
G03*
X13565500Y-3556000I-40000J0D01*
G01*
X13565500Y-3810000D02*
G75*
G03*
X13565500Y-3810000I-40000J0D01*
G01*
X13565500Y-4064000D02*
G75*
G03*
X13565500Y-4064000I-40000J0D01*
G01*
X13565500Y-4318000D02*
G75*
G03*
X13565500Y-4318000I-40000J0D01*
G01*
X13565500Y-4572000D02*
G75*
G03*
X13565500Y-4572000I-40000J0D01*
G01*
X13565500Y-5461000D02*
G75*
G03*
X13565500Y-5461000I-40000J0D01*
G01*
X13565500Y-5715000D02*
G75*
G03*
X13565500Y-5715000I-40000J0D01*
G01*
X13565500Y-5969000D02*
G75*
G03*
X13565500Y-5969000I-40000J0D01*
G01*
X13565500Y-6223000D02*
G75*
G03*
X13565500Y-6223000I-40000J0D01*
G01*
X13565500Y-6477000D02*
G75*
G03*
X13565500Y-6477000I-40000J0D01*
G01*
X13565500Y-6731000D02*
G75*
G03*
X13565500Y-6731000I-40000J0D01*
G01*
X13565500Y-6985000D02*
G75*
G03*
X13565500Y-6985000I-40000J0D01*
G01*
X13565500Y-8128000D02*
G75*
G03*
X13565500Y-8128000I-40000J0D01*
G01*
X13565500Y-8382000D02*
G75*
G03*
X13565500Y-8382000I-40000J0D01*
G01*
X13565500Y-8636000D02*
G75*
G03*
X13565500Y-8636000I-40000J0D01*
G01*
X13565500Y-8890000D02*
G75*
G03*
X13565500Y-8890000I-40000J0D01*
G01*
X13565500Y-9144000D02*
G75*
G03*
X13565500Y-9144000I-40000J0D01*
G01*
X13565500Y-9398000D02*
G75*
G03*
X13565500Y-9398000I-40000J0D01*
G01*
X13565500Y-9652000D02*
G75*
G03*
X13565500Y-9652000I-40000J0D01*
G01*
X13565500Y-9906000D02*
G75*
G03*
X13565500Y-9906000I-40000J0D01*
G01*
X13565500Y-10160000D02*
G75*
G03*
X13565500Y-10160000I-40000J0D01*
G01*
X13565500Y-10414000D02*
G75*
G03*
X13565500Y-10414000I-40000J0D01*
G01*
X13566500Y-11176500D02*
G75*
G03*
X13566500Y-11176500I-40000J0D01*
G01*
X13566500Y-11430500D02*
G75*
G03*
X13566500Y-11430500I-40000J0D01*
G01*
X13566500Y-11684500D02*
G75*
G03*
X13566500Y-11684500I-40000J0D01*
G01*
X13566500Y-11938500D02*
G75*
G03*
X13566500Y-11938500I-40000J0D01*
G01*
X13566500Y-12192500D02*
G75*
G03*
X13566500Y-12192500I-40000J0D01*
G01*
X13566500Y-12446500D02*
G75*
G03*
X13566500Y-12446500I-40000J0D01*
G01*
X13566500Y-12700500D02*
G75*
G03*
X13566500Y-12700500I-40000J0D01*
G01*
X13566500Y-12954500D02*
G75*
G03*
X13566500Y-12954500I-40000J0D01*
G01*
X13566500Y-13208500D02*
G75*
G03*
X13566500Y-13208500I-40000J0D01*
G01*
X13566500Y-13462500D02*
G75*
G03*
X13566500Y-13462500I-40000J0D01*
G01*
X14962500Y-5461000D02*
G75*
G03*
X14962500Y-5461000I-40000J0D01*
G01*
X14962500Y-5715000D02*
G75*
G03*
X14962500Y-5715000I-40000J0D01*
G01*
X14962500Y-5969000D02*
G75*
G03*
X14962500Y-5969000I-40000J0D01*
G01*
X14962500Y-6223000D02*
G75*
G03*
X14962500Y-6223000I-40000J0D01*
G01*
X14962500Y-6477000D02*
G75*
G03*
X14962500Y-6477000I-40000J0D01*
G01*
X14962500Y-6731000D02*
G75*
G03*
X14962500Y-6731000I-40000J0D01*
G01*
X14962500Y-6985000D02*
G75*
G03*
X14962500Y-6985000I-40000J0D01*
G01*
X14962500Y-8128000D02*
G75*
G03*
X14962500Y-8128000I-40000J0D01*
G01*
X14962500Y-8382000D02*
G75*
G03*
X14962500Y-8382000I-40000J0D01*
G01*
X14962500Y-8636000D02*
G75*
G03*
X14962500Y-8636000I-40000J0D01*
G01*
X14962500Y-8890000D02*
G75*
G03*
X14962500Y-8890000I-40000J0D01*
G01*
X14962500Y-9144000D02*
G75*
G03*
X14962500Y-9144000I-40000J0D01*
G01*
X14962500Y-9398000D02*
G75*
G03*
X14962500Y-9398000I-40000J0D01*
G01*
X14962500Y-9652000D02*
G75*
G03*
X14962500Y-9652000I-40000J0D01*
G01*
X14963500Y-2793500D02*
G75*
G03*
X14963500Y-2793500I-40000J0D01*
G01*
X14963500Y-3047500D02*
G75*
G03*
X14963500Y-3047500I-40000J0D01*
G01*
X14963500Y-3301500D02*
G75*
G03*
X14963500Y-3301500I-40000J0D01*
G01*
X14963500Y-3555500D02*
G75*
G03*
X14963500Y-3555500I-40000J0D01*
G01*
X14963500Y-3809500D02*
G75*
G03*
X14963500Y-3809500I-40000J0D01*
G01*
X14963500Y-4063500D02*
G75*
G03*
X14963500Y-4063500I-40000J0D01*
G01*
X14963500Y-4317500D02*
G75*
G03*
X14963500Y-4317500I-40000J0D01*
G01*
X14963500Y-11175500D02*
G75*
G03*
X14963500Y-11175500I-40000J0D01*
G01*
X14963500Y-11429500D02*
G75*
G03*
X14963500Y-11429500I-40000J0D01*
G01*
X14963500Y-11683500D02*
G75*
G03*
X14963500Y-11683500I-40000J0D01*
G01*
X14963500Y-11937500D02*
G75*
G03*
X14963500Y-11937500I-40000J0D01*
G01*
X14963500Y-12191500D02*
G75*
G03*
X14963500Y-12191500I-40000J0D01*
G01*
X14963500Y-12445500D02*
G75*
G03*
X14963500Y-12445500I-40000J0D01*
G01*
X14963500Y-12699500D02*
G75*
G03*
X14963500Y-12699500I-40000J0D01*
G01*
X14963500Y-13652000D02*
G75*
G03*
X14963500Y-13652000I-40000J0D01*
G01*
X14963500Y-13906000D02*
G75*
G03*
X14963500Y-13906000I-40000J0D01*
G01*
X14963500Y-14160000D02*
G75*
G03*
X14963500Y-14160000I-40000J0D01*
G01*
X14963500Y-14414000D02*
G75*
G03*
X14963500Y-14414000I-40000J0D01*
G01*
X14963500Y-14668000D02*
G75*
G03*
X14963500Y-14668000I-40000J0D01*
G01*
X14963500Y-14922000D02*
G75*
G03*
X14963500Y-14922000I-40000J0D01*
G01*
X14963500Y-15176000D02*
G75*
G03*
X14963500Y-15176000I-40000J0D01*
G01*
X15089500Y-2476500D02*
G75*
G03*
X15089500Y-2476500I-40000J0D01*
G01*
X15089500Y-7810500D02*
G75*
G03*
X15089500Y-7810500I-40000J0D01*
G01*
X15089500Y-10858500D02*
G75*
G03*
X15089500Y-10858500I-40000J0D01*
G01*
X15093500Y-5143500D02*
G75*
G03*
X15093500Y-5143500I-40000J0D01*
G01*
X15093500Y-13335000D02*
G75*
G03*
X15093500Y-13335000I-40000J0D01*
G01*
X15589500Y-2476500D02*
G75*
G03*
X15589500Y-2476500I-40000J0D01*
G01*
X15589500Y-7810500D02*
G75*
G03*
X15589500Y-7810500I-40000J0D01*
G01*
X15589500Y-10858500D02*
G75*
G03*
X15589500Y-10858500I-40000J0D01*
G01*
X15593500Y-5143500D02*
G75*
G03*
X15593500Y-5143500I-40000J0D01*
G01*
X15593500Y-13335000D02*
G75*
G03*
X15593500Y-13335000I-40000J0D01*
G01*
X15724500Y-5461000D02*
G75*
G03*
X15724500Y-5461000I-40000J0D01*
G01*
X15724500Y-5715000D02*
G75*
G03*
X15724500Y-5715000I-40000J0D01*
G01*
X15724500Y-5969000D02*
G75*
G03*
X15724500Y-5969000I-40000J0D01*
G01*
X15724500Y-6223000D02*
G75*
G03*
X15724500Y-6223000I-40000J0D01*
G01*
X15724500Y-6477000D02*
G75*
G03*
X15724500Y-6477000I-40000J0D01*
G01*
X15724500Y-6731000D02*
G75*
G03*
X15724500Y-6731000I-40000J0D01*
G01*
X15724500Y-6985000D02*
G75*
G03*
X15724500Y-6985000I-40000J0D01*
G01*
X15724500Y-8128000D02*
G75*
G03*
X15724500Y-8128000I-40000J0D01*
G01*
X15724500Y-8382000D02*
G75*
G03*
X15724500Y-8382000I-40000J0D01*
G01*
X15724500Y-8636000D02*
G75*
G03*
X15724500Y-8636000I-40000J0D01*
G01*
X15724500Y-8890000D02*
G75*
G03*
X15724500Y-8890000I-40000J0D01*
G01*
X15724500Y-9144000D02*
G75*
G03*
X15724500Y-9144000I-40000J0D01*
G01*
X15724500Y-9398000D02*
G75*
G03*
X15724500Y-9398000I-40000J0D01*
G01*
X15724500Y-9652000D02*
G75*
G03*
X15724500Y-9652000I-40000J0D01*
G01*
X15725500Y-2793500D02*
G75*
G03*
X15725500Y-2793500I-40000J0D01*
G01*
X15725500Y-3047500D02*
G75*
G03*
X15725500Y-3047500I-40000J0D01*
G01*
X15725500Y-3301500D02*
G75*
G03*
X15725500Y-3301500I-40000J0D01*
G01*
X15725500Y-3555500D02*
G75*
G03*
X15725500Y-3555500I-40000J0D01*
G01*
X15725500Y-3809500D02*
G75*
G03*
X15725500Y-3809500I-40000J0D01*
G01*
X15725500Y-4063500D02*
G75*
G03*
X15725500Y-4063500I-40000J0D01*
G01*
X15725500Y-4317500D02*
G75*
G03*
X15725500Y-4317500I-40000J0D01*
G01*
X15725500Y-11175500D02*
G75*
G03*
X15725500Y-11175500I-40000J0D01*
G01*
X15725500Y-11429500D02*
G75*
G03*
X15725500Y-11429500I-40000J0D01*
G01*
X15725500Y-11683500D02*
G75*
G03*
X15725500Y-11683500I-40000J0D01*
G01*
X15725500Y-11937500D02*
G75*
G03*
X15725500Y-11937500I-40000J0D01*
G01*
X15725500Y-12191500D02*
G75*
G03*
X15725500Y-12191500I-40000J0D01*
G01*
X15725500Y-12445500D02*
G75*
G03*
X15725500Y-12445500I-40000J0D01*
G01*
X15725500Y-12699500D02*
G75*
G03*
X15725500Y-12699500I-40000J0D01*
G01*
X15725500Y-13652000D02*
G75*
G03*
X15725500Y-13652000I-40000J0D01*
G01*
X15725500Y-13906000D02*
G75*
G03*
X15725500Y-13906000I-40000J0D01*
G01*
X15725500Y-14160000D02*
G75*
G03*
X15725500Y-14160000I-40000J0D01*
G01*
X15725500Y-14414000D02*
G75*
G03*
X15725500Y-14414000I-40000J0D01*
G01*
X15725500Y-14668000D02*
G75*
G03*
X15725500Y-14668000I-40000J0D01*
G01*
X15725500Y-14922000D02*
G75*
G03*
X15725500Y-14922000I-40000J0D01*
G01*
X15725500Y-15176000D02*
G75*
G03*
X15725500Y-15176000I-40000J0D01*
G01*
X16232500Y-13906500D02*
G75*
G03*
X16232500Y-13906500I-40000J0D01*
G01*
X16232500Y-14668500D02*
G75*
G03*
X16232500Y-14668500I-40000J0D01*
G01*
X16613500Y-13906500D02*
G75*
G03*
X16613500Y-13906500I-40000J0D01*
G01*
X16613500Y-14668500D02*
G75*
G03*
X16613500Y-14668500I-40000J0D01*
G01*
X17121500Y-5461000D02*
G75*
G03*
X17121500Y-5461000I-40000J0D01*
G01*
X17121500Y-5715000D02*
G75*
G03*
X17121500Y-5715000I-40000J0D01*
G01*
X17121500Y-5969000D02*
G75*
G03*
X17121500Y-5969000I-40000J0D01*
G01*
X17121500Y-6223000D02*
G75*
G03*
X17121500Y-6223000I-40000J0D01*
G01*
X17121500Y-6477000D02*
G75*
G03*
X17121500Y-6477000I-40000J0D01*
G01*
X17121500Y-6731000D02*
G75*
G03*
X17121500Y-6731000I-40000J0D01*
G01*
X17121500Y-6985000D02*
G75*
G03*
X17121500Y-6985000I-40000J0D01*
G01*
X17121500Y-8128000D02*
G75*
G03*
X17121500Y-8128000I-40000J0D01*
G01*
X17121500Y-8382000D02*
G75*
G03*
X17121500Y-8382000I-40000J0D01*
G01*
X17121500Y-8636000D02*
G75*
G03*
X17121500Y-8636000I-40000J0D01*
G01*
X17121500Y-8890000D02*
G75*
G03*
X17121500Y-8890000I-40000J0D01*
G01*
X17121500Y-9144000D02*
G75*
G03*
X17121500Y-9144000I-40000J0D01*
G01*
X17121500Y-9398000D02*
G75*
G03*
X17121500Y-9398000I-40000J0D01*
G01*
X17121500Y-9652000D02*
G75*
G03*
X17121500Y-9652000I-40000J0D01*
G01*
X17121500Y-11176000D02*
G75*
G03*
X17121500Y-11176000I-40000J0D01*
G01*
X17121500Y-11430000D02*
G75*
G03*
X17121500Y-11430000I-40000J0D01*
G01*
X17121500Y-11684000D02*
G75*
G03*
X17121500Y-11684000I-40000J0D01*
G01*
X17121500Y-11938000D02*
G75*
G03*
X17121500Y-11938000I-40000J0D01*
G01*
X17121500Y-12192000D02*
G75*
G03*
X17121500Y-12192000I-40000J0D01*
G01*
X17121500Y-12446000D02*
G75*
G03*
X17121500Y-12446000I-40000J0D01*
G01*
X17121500Y-12700000D02*
G75*
G03*
X17121500Y-12700000I-40000J0D01*
G01*
X17122500Y-2795500D02*
G75*
G03*
X17122500Y-2795500I-40000J0D01*
G01*
X17122500Y-3049500D02*
G75*
G03*
X17122500Y-3049500I-40000J0D01*
G01*
X17122500Y-3303500D02*
G75*
G03*
X17122500Y-3303500I-40000J0D01*
G01*
X17122500Y-3557500D02*
G75*
G03*
X17122500Y-3557500I-40000J0D01*
G01*
X17122500Y-3811500D02*
G75*
G03*
X17122500Y-3811500I-40000J0D01*
G01*
X17122500Y-4065500D02*
G75*
G03*
X17122500Y-4065500I-40000J0D01*
G01*
X17122500Y-4319500D02*
G75*
G03*
X17122500Y-4319500I-40000J0D01*
G01*
X17122500Y-4573500D02*
G75*
G03*
X17122500Y-4573500I-40000J0D01*
G01*
X17122500Y-13652000D02*
G75*
G03*
X17122500Y-13652000I-40000J0D01*
G01*
X17122500Y-13906000D02*
G75*
G03*
X17122500Y-13906000I-40000J0D01*
G01*
X17122500Y-14160000D02*
G75*
G03*
X17122500Y-14160000I-40000J0D01*
G01*
X17122500Y-14414000D02*
G75*
G03*
X17122500Y-14414000I-40000J0D01*
G01*
X17122500Y-14668000D02*
G75*
G03*
X17122500Y-14668000I-40000J0D01*
G01*
X17122500Y-14922000D02*
G75*
G03*
X17122500Y-14922000I-40000J0D01*
G01*
X17122500Y-15176000D02*
G75*
G03*
X17122500Y-15176000I-40000J0D01*
G01*
X17248500Y-5143500D02*
G75*
G03*
X17248500Y-5143500I-40000J0D01*
G01*
X17248500Y-7810500D02*
G75*
G03*
X17248500Y-7810500I-40000J0D01*
G01*
X17248500Y-10858500D02*
G75*
G03*
X17248500Y-10858500I-40000J0D01*
G01*
X17248500Y-13335000D02*
G75*
G03*
X17248500Y-13335000I-40000J0D01*
G01*
X17252500Y-2476500D02*
G75*
G03*
X17252500Y-2476500I-40000J0D01*
G01*
X17374000Y-2095500D02*
G75*
G03*
X17374000Y-2095500I-40000J0D01*
G01*
X17628000Y-2095500D02*
G75*
G03*
X17628000Y-2095500I-40000J0D01*
G01*
X17748500Y-5143500D02*
G75*
G03*
X17748500Y-5143500I-40000J0D01*
G01*
X17748500Y-7810500D02*
G75*
G03*
X17748500Y-7810500I-40000J0D01*
G01*
X17748500Y-10858500D02*
G75*
G03*
X17748500Y-10858500I-40000J0D01*
G01*
X17748500Y-13335000D02*
G75*
G03*
X17748500Y-13335000I-40000J0D01*
G01*
X17752500Y-2476500D02*
G75*
G03*
X17752500Y-2476500I-40000J0D01*
G01*
X17882000Y-2095500D02*
G75*
G03*
X17882000Y-2095500I-40000J0D01*
G01*
X17883500Y-5461000D02*
G75*
G03*
X17883500Y-5461000I-40000J0D01*
G01*
X17883500Y-5715000D02*
G75*
G03*
X17883500Y-5715000I-40000J0D01*
G01*
X17883500Y-5969000D02*
G75*
G03*
X17883500Y-5969000I-40000J0D01*
G01*
X17883500Y-6223000D02*
G75*
G03*
X17883500Y-6223000I-40000J0D01*
G01*
X17883500Y-6477000D02*
G75*
G03*
X17883500Y-6477000I-40000J0D01*
G01*
X17883500Y-6731000D02*
G75*
G03*
X17883500Y-6731000I-40000J0D01*
G01*
X17883500Y-6985000D02*
G75*
G03*
X17883500Y-6985000I-40000J0D01*
G01*
X17883500Y-8128000D02*
G75*
G03*
X17883500Y-8128000I-40000J0D01*
G01*
X17883500Y-8382000D02*
G75*
G03*
X17883500Y-8382000I-40000J0D01*
G01*
X17883500Y-8636000D02*
G75*
G03*
X17883500Y-8636000I-40000J0D01*
G01*
X17883500Y-8890000D02*
G75*
G03*
X17883500Y-8890000I-40000J0D01*
G01*
X17883500Y-9144000D02*
G75*
G03*
X17883500Y-9144000I-40000J0D01*
G01*
X17883500Y-9398000D02*
G75*
G03*
X17883500Y-9398000I-40000J0D01*
G01*
X17883500Y-9652000D02*
G75*
G03*
X17883500Y-9652000I-40000J0D01*
G01*
X17883500Y-11176000D02*
G75*
G03*
X17883500Y-11176000I-40000J0D01*
G01*
X17883500Y-11430000D02*
G75*
G03*
X17883500Y-11430000I-40000J0D01*
G01*
X17883500Y-11684000D02*
G75*
G03*
X17883500Y-11684000I-40000J0D01*
G01*
X17883500Y-11938000D02*
G75*
G03*
X17883500Y-11938000I-40000J0D01*
G01*
X17883500Y-12192000D02*
G75*
G03*
X17883500Y-12192000I-40000J0D01*
G01*
X17883500Y-12446000D02*
G75*
G03*
X17883500Y-12446000I-40000J0D01*
G01*
X17883500Y-12700000D02*
G75*
G03*
X17883500Y-12700000I-40000J0D01*
G01*
X17884500Y-2795500D02*
G75*
G03*
X17884500Y-2795500I-40000J0D01*
G01*
X17884500Y-3049500D02*
G75*
G03*
X17884500Y-3049500I-40000J0D01*
G01*
X17884500Y-3303500D02*
G75*
G03*
X17884500Y-3303500I-40000J0D01*
G01*
X17884500Y-3557500D02*
G75*
G03*
X17884500Y-3557500I-40000J0D01*
G01*
X17884500Y-3811500D02*
G75*
G03*
X17884500Y-3811500I-40000J0D01*
G01*
X17884500Y-4065500D02*
G75*
G03*
X17884500Y-4065500I-40000J0D01*
G01*
X17884500Y-4319500D02*
G75*
G03*
X17884500Y-4319500I-40000J0D01*
G01*
X17884500Y-4573500D02*
G75*
G03*
X17884500Y-4573500I-40000J0D01*
G01*
X17884500Y-13652000D02*
G75*
G03*
X17884500Y-13652000I-40000J0D01*
G01*
X17884500Y-13906000D02*
G75*
G03*
X17884500Y-13906000I-40000J0D01*
G01*
X17884500Y-14160000D02*
G75*
G03*
X17884500Y-14160000I-40000J0D01*
G01*
X17884500Y-14414000D02*
G75*
G03*
X17884500Y-14414000I-40000J0D01*
G01*
X17884500Y-14668000D02*
G75*
G03*
X17884500Y-14668000I-40000J0D01*
G01*
X17884500Y-14922000D02*
G75*
G03*
X17884500Y-14922000I-40000J0D01*
G01*
X17884500Y-15176000D02*
G75*
G03*
X17884500Y-15176000I-40000J0D01*
G01*
X18136000Y-2095500D02*
G75*
G03*
X18136000Y-2095500I-40000J0D01*
G01*
X18390000Y-2095500D02*
G75*
G03*
X18390000Y-2095500I-40000J0D01*
G01*
X18391500Y-13906500D02*
G75*
G03*
X18391500Y-13906500I-40000J0D01*
G01*
X18391500Y-14668500D02*
G75*
G03*
X18391500Y-14668500I-40000J0D01*
G01*
X18644000Y-2095500D02*
G75*
G03*
X18644000Y-2095500I-40000J0D01*
G01*
X18772500Y-13906500D02*
G75*
G03*
X18772500Y-13906500I-40000J0D01*
G01*
X18772500Y-14668500D02*
G75*
G03*
X18772500Y-14668500I-40000J0D01*
G01*
X18898000Y-2095500D02*
G75*
G03*
X18898000Y-2095500I-40000J0D01*
G01*
X19152000Y-2095500D02*
G75*
G03*
X19152000Y-2095500I-40000J0D01*
G01*
X19280500Y-2794000D02*
G75*
G03*
X19280500Y-2794000I-40000J0D01*
G01*
X19280500Y-3048000D02*
G75*
G03*
X19280500Y-3048000I-40000J0D01*
G01*
X19280500Y-3302000D02*
G75*
G03*
X19280500Y-3302000I-40000J0D01*
G01*
X19280500Y-3556000D02*
G75*
G03*
X19280500Y-3556000I-40000J0D01*
G01*
X19280500Y-3810000D02*
G75*
G03*
X19280500Y-3810000I-40000J0D01*
G01*
X19280500Y-4064000D02*
G75*
G03*
X19280500Y-4064000I-40000J0D01*
G01*
X19280500Y-4318000D02*
G75*
G03*
X19280500Y-4318000I-40000J0D01*
G01*
X19280500Y-4572000D02*
G75*
G03*
X19280500Y-4572000I-40000J0D01*
G01*
X19280500Y-5461000D02*
G75*
G03*
X19280500Y-5461000I-40000J0D01*
G01*
X19280500Y-5715000D02*
G75*
G03*
X19280500Y-5715000I-40000J0D01*
G01*
X19280500Y-5969000D02*
G75*
G03*
X19280500Y-5969000I-40000J0D01*
G01*
X19280500Y-6223000D02*
G75*
G03*
X19280500Y-6223000I-40000J0D01*
G01*
X19280500Y-6477000D02*
G75*
G03*
X19280500Y-6477000I-40000J0D01*
G01*
X19280500Y-6731000D02*
G75*
G03*
X19280500Y-6731000I-40000J0D01*
G01*
X19280500Y-6985000D02*
G75*
G03*
X19280500Y-6985000I-40000J0D01*
G01*
X19280500Y-7239000D02*
G75*
G03*
X19280500Y-7239000I-40000J0D01*
G01*
X19280500Y-8128000D02*
G75*
G03*
X19280500Y-8128000I-40000J0D01*
G01*
X19280500Y-8382000D02*
G75*
G03*
X19280500Y-8382000I-40000J0D01*
G01*
X19280500Y-8636000D02*
G75*
G03*
X19280500Y-8636000I-40000J0D01*
G01*
X19280500Y-8890000D02*
G75*
G03*
X19280500Y-8890000I-40000J0D01*
G01*
X19280500Y-9144000D02*
G75*
G03*
X19280500Y-9144000I-40000J0D01*
G01*
X19280500Y-9398000D02*
G75*
G03*
X19280500Y-9398000I-40000J0D01*
G01*
X19280500Y-9652000D02*
G75*
G03*
X19280500Y-9652000I-40000J0D01*
G01*
X19280500Y-11176000D02*
G75*
G03*
X19280500Y-11176000I-40000J0D01*
G01*
X19280500Y-11430000D02*
G75*
G03*
X19280500Y-11430000I-40000J0D01*
G01*
X19280500Y-11684000D02*
G75*
G03*
X19280500Y-11684000I-40000J0D01*
G01*
X19280500Y-11938000D02*
G75*
G03*
X19280500Y-11938000I-40000J0D01*
G01*
X19280500Y-12192000D02*
G75*
G03*
X19280500Y-12192000I-40000J0D01*
G01*
X19280500Y-12446000D02*
G75*
G03*
X19280500Y-12446000I-40000J0D01*
G01*
X19280500Y-12700000D02*
G75*
G03*
X19280500Y-12700000I-40000J0D01*
G01*
X19280500Y-13652500D02*
G75*
G03*
X19280500Y-13652500I-40000J0D01*
G01*
X19280500Y-13906500D02*
G75*
G03*
X19280500Y-13906500I-40000J0D01*
G01*
X19280500Y-14160500D02*
G75*
G03*
X19280500Y-14160500I-40000J0D01*
G01*
X19280500Y-14414500D02*
G75*
G03*
X19280500Y-14414500I-40000J0D01*
G01*
X19280500Y-14668500D02*
G75*
G03*
X19280500Y-14668500I-40000J0D01*
G01*
X19280500Y-14922500D02*
G75*
G03*
X19280500Y-14922500I-40000J0D01*
G01*
X19280500Y-15176500D02*
G75*
G03*
X19280500Y-15176500I-40000J0D01*
G01*
X19406000Y-2095500D02*
G75*
G03*
X19406000Y-2095500I-40000J0D01*
G01*
X19407500Y-2476500D02*
G75*
G03*
X19407500Y-2476500I-40000J0D01*
G01*
X19407500Y-7810500D02*
G75*
G03*
X19407500Y-7810500I-40000J0D01*
G01*
X19411500Y-5143500D02*
G75*
G03*
X19411500Y-5143500I-40000J0D01*
G01*
X19411500Y-10858500D02*
G75*
G03*
X19411500Y-10858500I-40000J0D01*
G01*
X19411500Y-13335000D02*
G75*
G03*
X19411500Y-13335000I-40000J0D01*
G01*
X19907500Y-2476500D02*
G75*
G03*
X19907500Y-2476500I-40000J0D01*
G01*
X19907500Y-7810500D02*
G75*
G03*
X19907500Y-7810500I-40000J0D01*
G01*
X19911500Y-5143500D02*
G75*
G03*
X19911500Y-5143500I-40000J0D01*
G01*
X19911500Y-10858500D02*
G75*
G03*
X19911500Y-10858500I-40000J0D01*
G01*
X19911500Y-13335000D02*
G75*
G03*
X19911500Y-13335000I-40000J0D01*
G01*
X20042500Y-2794000D02*
G75*
G03*
X20042500Y-2794000I-40000J0D01*
G01*
X20042500Y-3048000D02*
G75*
G03*
X20042500Y-3048000I-40000J0D01*
G01*
X20042500Y-3302000D02*
G75*
G03*
X20042500Y-3302000I-40000J0D01*
G01*
X20042500Y-3556000D02*
G75*
G03*
X20042500Y-3556000I-40000J0D01*
G01*
X20042500Y-3810000D02*
G75*
G03*
X20042500Y-3810000I-40000J0D01*
G01*
X20042500Y-4064000D02*
G75*
G03*
X20042500Y-4064000I-40000J0D01*
G01*
X20042500Y-4318000D02*
G75*
G03*
X20042500Y-4318000I-40000J0D01*
G01*
X20042500Y-4572000D02*
G75*
G03*
X20042500Y-4572000I-40000J0D01*
G01*
X20042500Y-5461000D02*
G75*
G03*
X20042500Y-5461000I-40000J0D01*
G01*
X20042500Y-5715000D02*
G75*
G03*
X20042500Y-5715000I-40000J0D01*
G01*
X20042500Y-5969000D02*
G75*
G03*
X20042500Y-5969000I-40000J0D01*
G01*
X20042500Y-6223000D02*
G75*
G03*
X20042500Y-6223000I-40000J0D01*
G01*
X20042500Y-6477000D02*
G75*
G03*
X20042500Y-6477000I-40000J0D01*
G01*
X20042500Y-6731000D02*
G75*
G03*
X20042500Y-6731000I-40000J0D01*
G01*
X20042500Y-6985000D02*
G75*
G03*
X20042500Y-6985000I-40000J0D01*
G01*
X20042500Y-7239000D02*
G75*
G03*
X20042500Y-7239000I-40000J0D01*
G01*
X20042500Y-8128000D02*
G75*
G03*
X20042500Y-8128000I-40000J0D01*
G01*
X20042500Y-8382000D02*
G75*
G03*
X20042500Y-8382000I-40000J0D01*
G01*
X20042500Y-8636000D02*
G75*
G03*
X20042500Y-8636000I-40000J0D01*
G01*
X20042500Y-8890000D02*
G75*
G03*
X20042500Y-8890000I-40000J0D01*
G01*
X20042500Y-9144000D02*
G75*
G03*
X20042500Y-9144000I-40000J0D01*
G01*
X20042500Y-9398000D02*
G75*
G03*
X20042500Y-9398000I-40000J0D01*
G01*
X20042500Y-9652000D02*
G75*
G03*
X20042500Y-9652000I-40000J0D01*
G01*
X20042500Y-11176000D02*
G75*
G03*
X20042500Y-11176000I-40000J0D01*
G01*
X20042500Y-11430000D02*
G75*
G03*
X20042500Y-11430000I-40000J0D01*
G01*
X20042500Y-11684000D02*
G75*
G03*
X20042500Y-11684000I-40000J0D01*
G01*
X20042500Y-11938000D02*
G75*
G03*
X20042500Y-11938000I-40000J0D01*
G01*
X20042500Y-12192000D02*
G75*
G03*
X20042500Y-12192000I-40000J0D01*
G01*
X20042500Y-12446000D02*
G75*
G03*
X20042500Y-12446000I-40000J0D01*
G01*
X20042500Y-12700000D02*
G75*
G03*
X20042500Y-12700000I-40000J0D01*
G01*
X20042500Y-13652500D02*
G75*
G03*
X20042500Y-13652500I-40000J0D01*
G01*
X20042500Y-13906500D02*
G75*
G03*
X20042500Y-13906500I-40000J0D01*
G01*
X20042500Y-14160500D02*
G75*
G03*
X20042500Y-14160500I-40000J0D01*
G01*
X20042500Y-14414500D02*
G75*
G03*
X20042500Y-14414500I-40000J0D01*
G01*
X20042500Y-14668500D02*
G75*
G03*
X20042500Y-14668500I-40000J0D01*
G01*
X20042500Y-14922500D02*
G75*
G03*
X20042500Y-14922500I-40000J0D01*
G01*
X20042500Y-15176500D02*
G75*
G03*
X20042500Y-15176500I-40000J0D01*
G01*
X20550500Y-11938000D02*
G75*
G03*
X20550500Y-11938000I-40000J0D01*
G01*
X20550500Y-12700000D02*
G75*
G03*
X20550500Y-12700000I-40000J0D01*
G01*
X20550500Y-13906500D02*
G75*
G03*
X20550500Y-13906500I-40000J0D01*
G01*
X20550500Y-14668500D02*
G75*
G03*
X20550500Y-14668500I-40000J0D01*
G01*
X20677500Y-4064000D02*
G75*
G03*
X20677500Y-4064000I-40000J0D01*
G01*
X20677500Y-4318000D02*
G75*
G03*
X20677500Y-4318000I-40000J0D01*
G01*
X20677500Y-4572000D02*
G75*
G03*
X20677500Y-4572000I-40000J0D01*
G01*
X20677500Y-4826000D02*
G75*
G03*
X20677500Y-4826000I-40000J0D01*
G01*
X20677500Y-5080000D02*
G75*
G03*
X20677500Y-5080000I-40000J0D01*
G01*
X20677500Y-5334000D02*
G75*
G03*
X20677500Y-5334000I-40000J0D01*
G01*
X20677500Y-5588000D02*
G75*
G03*
X20677500Y-5588000I-40000J0D01*
G01*
X20677500Y-5842000D02*
G75*
G03*
X20677500Y-5842000I-40000J0D01*
G01*
X20677500Y-6096000D02*
G75*
G03*
X20677500Y-6096000I-40000J0D01*
G01*
X20931500Y-8953500D02*
G75*
G03*
X20931500Y-8953500I-40000J0D01*
G01*
X20931500Y-9715500D02*
G75*
G03*
X20931500Y-9715500I-40000J0D01*
G01*
X20931500Y-11938000D02*
G75*
G03*
X20931500Y-11938000I-40000J0D01*
G01*
X20931500Y-12700000D02*
G75*
G03*
X20931500Y-12700000I-40000J0D01*
G01*
X20931500Y-13906500D02*
G75*
G03*
X20931500Y-13906500I-40000J0D01*
G01*
X20931500Y-14668500D02*
G75*
G03*
X20931500Y-14668500I-40000J0D01*
G01*
X21439500Y-2476500D02*
G75*
G03*
X21439500Y-2476500I-40000J0D01*
G01*
X21439500Y-2730500D02*
G75*
G03*
X21439500Y-2730500I-40000J0D01*
G01*
X21439500Y-2984500D02*
G75*
G03*
X21439500Y-2984500I-40000J0D01*
G01*
X21439500Y-3238500D02*
G75*
G03*
X21439500Y-3238500I-40000J0D01*
G01*
X21439500Y-3492500D02*
G75*
G03*
X21439500Y-3492500I-40000J0D01*
G01*
X21439500Y-3746500D02*
G75*
G03*
X21439500Y-3746500I-40000J0D01*
G01*
X21439500Y-4000500D02*
G75*
G03*
X21439500Y-4000500I-40000J0D01*
G01*
X21439500Y-4254500D02*
G75*
G03*
X21439500Y-4254500I-40000J0D01*
G01*
X21439500Y-5143500D02*
G75*
G03*
X21439500Y-5143500I-40000J0D01*
G01*
X21439500Y-5397500D02*
G75*
G03*
X21439500Y-5397500I-40000J0D01*
G01*
X21439500Y-5651500D02*
G75*
G03*
X21439500Y-5651500I-40000J0D01*
G01*
X21439500Y-5905500D02*
G75*
G03*
X21439500Y-5905500I-40000J0D01*
G01*
X21439500Y-6159500D02*
G75*
G03*
X21439500Y-6159500I-40000J0D01*
G01*
X21439500Y-6413500D02*
G75*
G03*
X21439500Y-6413500I-40000J0D01*
G01*
X21439500Y-6667500D02*
G75*
G03*
X21439500Y-6667500I-40000J0D01*
G01*
X21439500Y-6921500D02*
G75*
G03*
X21439500Y-6921500I-40000J0D01*
G01*
X21439500Y-8128000D02*
G75*
G03*
X21439500Y-8128000I-40000J0D01*
G01*
X21439500Y-8382000D02*
G75*
G03*
X21439500Y-8382000I-40000J0D01*
G01*
X21439500Y-8636000D02*
G75*
G03*
X21439500Y-8636000I-40000J0D01*
G01*
X21439500Y-8890000D02*
G75*
G03*
X21439500Y-8890000I-40000J0D01*
G01*
X21439500Y-9144000D02*
G75*
G03*
X21439500Y-9144000I-40000J0D01*
G01*
X21439500Y-9398000D02*
G75*
G03*
X21439500Y-9398000I-40000J0D01*
G01*
X21439500Y-9652000D02*
G75*
G03*
X21439500Y-9652000I-40000J0D01*
G01*
X21439500Y-11176000D02*
G75*
G03*
X21439500Y-11176000I-40000J0D01*
G01*
X21439500Y-11430000D02*
G75*
G03*
X21439500Y-11430000I-40000J0D01*
G01*
X21439500Y-11684000D02*
G75*
G03*
X21439500Y-11684000I-40000J0D01*
G01*
X21439500Y-11938000D02*
G75*
G03*
X21439500Y-11938000I-40000J0D01*
G01*
X21439500Y-12192000D02*
G75*
G03*
X21439500Y-12192000I-40000J0D01*
G01*
X21439500Y-12446000D02*
G75*
G03*
X21439500Y-12446000I-40000J0D01*
G01*
X21439500Y-12700000D02*
G75*
G03*
X21439500Y-12700000I-40000J0D01*
G01*
X21439500Y-13652500D02*
G75*
G03*
X21439500Y-13652500I-40000J0D01*
G01*
X21439500Y-13906500D02*
G75*
G03*
X21439500Y-13906500I-40000J0D01*
G01*
X21439500Y-14160500D02*
G75*
G03*
X21439500Y-14160500I-40000J0D01*
G01*
X21439500Y-14414500D02*
G75*
G03*
X21439500Y-14414500I-40000J0D01*
G01*
X21439500Y-14668500D02*
G75*
G03*
X21439500Y-14668500I-40000J0D01*
G01*
X21439500Y-14922500D02*
G75*
G03*
X21439500Y-14922500I-40000J0D01*
G01*
X21439500Y-15176500D02*
G75*
G03*
X21439500Y-15176500I-40000J0D01*
G01*
X21570500Y-7810500D02*
G75*
G03*
X21570500Y-7810500I-40000J0D01*
G01*
X21570500Y-10858500D02*
G75*
G03*
X21570500Y-10858500I-40000J0D01*
G01*
X21570500Y-13335000D02*
G75*
G03*
X21570500Y-13335000I-40000J0D01*
G01*
X22070500Y-7810500D02*
G75*
G03*
X22070500Y-7810500I-40000J0D01*
G01*
X22070500Y-10858500D02*
G75*
G03*
X22070500Y-10858500I-40000J0D01*
G01*
X22070500Y-13335000D02*
G75*
G03*
X22070500Y-13335000I-40000J0D01*
G01*
X22201500Y-2476500D02*
G75*
G03*
X22201500Y-2476500I-40000J0D01*
G01*
X22201500Y-2730500D02*
G75*
G03*
X22201500Y-2730500I-40000J0D01*
G01*
X22201500Y-2984500D02*
G75*
G03*
X22201500Y-2984500I-40000J0D01*
G01*
X22201500Y-3238500D02*
G75*
G03*
X22201500Y-3238500I-40000J0D01*
G01*
X22201500Y-3492500D02*
G75*
G03*
X22201500Y-3492500I-40000J0D01*
G01*
X22201500Y-3746500D02*
G75*
G03*
X22201500Y-3746500I-40000J0D01*
G01*
X22201500Y-4000500D02*
G75*
G03*
X22201500Y-4000500I-40000J0D01*
G01*
X22201500Y-4254500D02*
G75*
G03*
X22201500Y-4254500I-40000J0D01*
G01*
X22201500Y-5143500D02*
G75*
G03*
X22201500Y-5143500I-40000J0D01*
G01*
X22201500Y-5397500D02*
G75*
G03*
X22201500Y-5397500I-40000J0D01*
G01*
X22201500Y-5651500D02*
G75*
G03*
X22201500Y-5651500I-40000J0D01*
G01*
X22201500Y-5905500D02*
G75*
G03*
X22201500Y-5905500I-40000J0D01*
G01*
X22201500Y-6159500D02*
G75*
G03*
X22201500Y-6159500I-40000J0D01*
G01*
X22201500Y-6413500D02*
G75*
G03*
X22201500Y-6413500I-40000J0D01*
G01*
X22201500Y-6667500D02*
G75*
G03*
X22201500Y-6667500I-40000J0D01*
G01*
X22201500Y-6921500D02*
G75*
G03*
X22201500Y-6921500I-40000J0D01*
G01*
X22201500Y-8128000D02*
G75*
G03*
X22201500Y-8128000I-40000J0D01*
G01*
X22201500Y-8382000D02*
G75*
G03*
X22201500Y-8382000I-40000J0D01*
G01*
X22201500Y-8636000D02*
G75*
G03*
X22201500Y-8636000I-40000J0D01*
G01*
X22201500Y-8890000D02*
G75*
G03*
X22201500Y-8890000I-40000J0D01*
G01*
X22201500Y-9144000D02*
G75*
G03*
X22201500Y-9144000I-40000J0D01*
G01*
X22201500Y-9398000D02*
G75*
G03*
X22201500Y-9398000I-40000J0D01*
G01*
X22201500Y-9652000D02*
G75*
G03*
X22201500Y-9652000I-40000J0D01*
G01*
X22201500Y-11176000D02*
G75*
G03*
X22201500Y-11176000I-40000J0D01*
G01*
X22201500Y-11430000D02*
G75*
G03*
X22201500Y-11430000I-40000J0D01*
G01*
X22201500Y-11684000D02*
G75*
G03*
X22201500Y-11684000I-40000J0D01*
G01*
X22201500Y-11938000D02*
G75*
G03*
X22201500Y-11938000I-40000J0D01*
G01*
X22201500Y-12192000D02*
G75*
G03*
X22201500Y-12192000I-40000J0D01*
G01*
X22201500Y-12446000D02*
G75*
G03*
X22201500Y-12446000I-40000J0D01*
G01*
X22201500Y-12700000D02*
G75*
G03*
X22201500Y-12700000I-40000J0D01*
G01*
X22201500Y-13652500D02*
G75*
G03*
X22201500Y-13652500I-40000J0D01*
G01*
X22201500Y-13906500D02*
G75*
G03*
X22201500Y-13906500I-40000J0D01*
G01*
X22201500Y-14160500D02*
G75*
G03*
X22201500Y-14160500I-40000J0D01*
G01*
X22201500Y-14414500D02*
G75*
G03*
X22201500Y-14414500I-40000J0D01*
G01*
X22201500Y-14668500D02*
G75*
G03*
X22201500Y-14668500I-40000J0D01*
G01*
X22201500Y-14922500D02*
G75*
G03*
X22201500Y-14922500I-40000J0D01*
G01*
X22201500Y-15176500D02*
G75*
G03*
X22201500Y-15176500I-40000J0D01*
G01*
X22709500Y-12700000D02*
G75*
G03*
X22709500Y-12700000I-40000J0D01*
G01*
X22709500Y-13462000D02*
G75*
G03*
X22709500Y-13462000I-40000J0D01*
G01*
X22709500Y-13906500D02*
G75*
G03*
X22709500Y-13906500I-40000J0D01*
G01*
X22709500Y-14668500D02*
G75*
G03*
X22709500Y-14668500I-40000J0D01*
G01*
X22836500Y-3115500D02*
G75*
G03*
X22836500Y-3115500I-40000J0D01*
G01*
X22836500Y-3615500D02*
G75*
G03*
X22836500Y-3615500I-40000J0D01*
G01*
X22922510Y-2349500D02*
G75*
G03*
X22922510Y-2349500I-40000J0D01*
G01*
X23122510Y-2349500D02*
G75*
G03*
X23122510Y-2349500I-40000J0D01*
G01*
X23154000Y-2983500D02*
G75*
G03*
X23154000Y-2983500I-40000J0D01*
G01*
X23154000Y-3745500D02*
G75*
G03*
X23154000Y-3745500I-40000J0D01*
G01*
X23344500Y-4381500D02*
G75*
G03*
X23344500Y-4381500I-40000J0D01*
G01*
X23344500Y-4635500D02*
G75*
G03*
X23344500Y-4635500I-40000J0D01*
G01*
X23344500Y-4889500D02*
G75*
G03*
X23344500Y-4889500I-40000J0D01*
G01*
X23344500Y-5143500D02*
G75*
G03*
X23344500Y-5143500I-40000J0D01*
G01*
X23344500Y-5397500D02*
G75*
G03*
X23344500Y-5397500I-40000J0D01*
G01*
X23344500Y-5651500D02*
G75*
G03*
X23344500Y-5651500I-40000J0D01*
G01*
X23344500Y-5905500D02*
G75*
G03*
X23344500Y-5905500I-40000J0D01*
G01*
X23344500Y-6159500D02*
G75*
G03*
X23344500Y-6159500I-40000J0D01*
G01*
X23344500Y-6413500D02*
G75*
G03*
X23344500Y-6413500I-40000J0D01*
G01*
X23344500Y-6667500D02*
G75*
G03*
X23344500Y-6667500I-40000J0D01*
G01*
X23344500Y-6921500D02*
G75*
G03*
X23344500Y-6921500I-40000J0D01*
G01*
X23344500Y-7175500D02*
G75*
G03*
X23344500Y-7175500I-40000J0D01*
G01*
X23344500Y-7429500D02*
G75*
G03*
X23344500Y-7429500I-40000J0D01*
G01*
X23344500Y-7683500D02*
G75*
G03*
X23344500Y-7683500I-40000J0D01*
G01*
X23344500Y-7937500D02*
G75*
G03*
X23344500Y-7937500I-40000J0D01*
G01*
X23344500Y-8191500D02*
G75*
G03*
X23344500Y-8191500I-40000J0D01*
G01*
X23344500Y-8445500D02*
G75*
G03*
X23344500Y-8445500I-40000J0D01*
G01*
X23344500Y-8699500D02*
G75*
G03*
X23344500Y-8699500I-40000J0D01*
G01*
X23344500Y-8953500D02*
G75*
G03*
X23344500Y-8953500I-40000J0D01*
G01*
X23344500Y-9207500D02*
G75*
G03*
X23344500Y-9207500I-40000J0D01*
G01*
X23348500Y-4064000D02*
G75*
G03*
X23348500Y-4064000I-40000J0D01*
G01*
X23408000Y-2983500D02*
G75*
G03*
X23408000Y-2983500I-40000J0D01*
G01*
X23408000Y-3745500D02*
G75*
G03*
X23408000Y-3745500I-40000J0D01*
G01*
X23408000Y-10350500D02*
G75*
G03*
X23408000Y-10350500I-40000J0D01*
G01*
X23408000Y-10604500D02*
G75*
G03*
X23408000Y-10604500I-40000J0D01*
G01*
X23408000Y-10858500D02*
G75*
G03*
X23408000Y-10858500I-40000J0D01*
G01*
X23408000Y-11112500D02*
G75*
G03*
X23408000Y-11112500I-40000J0D01*
G01*
X23408000Y-11366500D02*
G75*
G03*
X23408000Y-11366500I-40000J0D01*
G01*
X23408000Y-11620500D02*
G75*
G03*
X23408000Y-11620500I-40000J0D01*
G01*
X23408000Y-11874500D02*
G75*
G03*
X23408000Y-11874500I-40000J0D01*
G01*
X23408000Y-12128500D02*
G75*
G03*
X23408000Y-12128500I-40000J0D01*
G01*
X23408000Y-12382500D02*
G75*
G03*
X23408000Y-12382500I-40000J0D01*
G01*
X23408000Y-12636500D02*
G75*
G03*
X23408000Y-12636500I-40000J0D01*
G01*
X23408000Y-12890500D02*
G75*
G03*
X23408000Y-12890500I-40000J0D01*
G01*
X23408000Y-13144500D02*
G75*
G03*
X23408000Y-13144500I-40000J0D01*
G01*
X23408000Y-13398500D02*
G75*
G03*
X23408000Y-13398500I-40000J0D01*
G01*
X23408000Y-13652500D02*
G75*
G03*
X23408000Y-13652500I-40000J0D01*
G01*
X23408000Y-13906500D02*
G75*
G03*
X23408000Y-13906500I-40000J0D01*
G01*
X23408000Y-14160500D02*
G75*
G03*
X23408000Y-14160500I-40000J0D01*
G01*
X23408000Y-14414500D02*
G75*
G03*
X23408000Y-14414500I-40000J0D01*
G01*
X23408000Y-14668500D02*
G75*
G03*
X23408000Y-14668500I-40000J0D01*
G01*
X23408000Y-14922500D02*
G75*
G03*
X23408000Y-14922500I-40000J0D01*
G01*
X23408000Y-15176500D02*
G75*
G03*
X23408000Y-15176500I-40000J0D01*
G01*
X23412000Y-10033000D02*
G75*
G03*
X23412000Y-10033000I-40000J0D01*
G01*
X23557510Y-2349500D02*
G75*
G03*
X23557510Y-2349500I-40000J0D01*
G01*
X23662000Y-2983500D02*
G75*
G03*
X23662000Y-2983500I-40000J0D01*
G01*
X23662000Y-3745500D02*
G75*
G03*
X23662000Y-3745500I-40000J0D01*
G01*
X23757510Y-2349500D02*
G75*
G03*
X23757510Y-2349500I-40000J0D01*
G01*
X23848500Y-4064000D02*
G75*
G03*
X23848500Y-4064000I-40000J0D01*
G01*
X23912000Y-10033000D02*
G75*
G03*
X23912000Y-10033000I-40000J0D01*
G01*
X23916000Y-2983500D02*
G75*
G03*
X23916000Y-2983500I-40000J0D01*
G01*
X23916000Y-3745500D02*
G75*
G03*
X23916000Y-3745500I-40000J0D01*
G01*
X24170000Y-2349500D02*
G75*
G03*
X24170000Y-2349500I-40000J0D01*
G01*
X24170000Y-2983500D02*
G75*
G03*
X24170000Y-2983500I-40000J0D01*
G01*
X24170000Y-3745500D02*
G75*
G03*
X24170000Y-3745500I-40000J0D01*
G01*
X24370000Y-2349500D02*
G75*
G03*
X24370000Y-2349500I-40000J0D01*
G01*
X24424000Y-2983500D02*
G75*
G03*
X24424000Y-2983500I-40000J0D01*
G01*
X24424000Y-3745500D02*
G75*
G03*
X24424000Y-3745500I-40000J0D01*
G01*
X24678000Y-2983500D02*
G75*
G03*
X24678000Y-2983500I-40000J0D01*
G01*
X24678000Y-3745500D02*
G75*
G03*
X24678000Y-3745500I-40000J0D01*
G01*
X24805000Y-2349500D02*
G75*
G03*
X24805000Y-2349500I-40000J0D01*
G01*
X24868500Y-4381500D02*
G75*
G03*
X24868500Y-4381500I-40000J0D01*
G01*
X24868500Y-4635500D02*
G75*
G03*
X24868500Y-4635500I-40000J0D01*
G01*
X24868500Y-4889500D02*
G75*
G03*
X24868500Y-4889500I-40000J0D01*
G01*
X24868500Y-5143500D02*
G75*
G03*
X24868500Y-5143500I-40000J0D01*
G01*
X24868500Y-5397500D02*
G75*
G03*
X24868500Y-5397500I-40000J0D01*
G01*
X24868500Y-5651500D02*
G75*
G03*
X24868500Y-5651500I-40000J0D01*
G01*
X24868500Y-5905500D02*
G75*
G03*
X24868500Y-5905500I-40000J0D01*
G01*
X24868500Y-6159500D02*
G75*
G03*
X24868500Y-6159500I-40000J0D01*
G01*
X24868500Y-6413500D02*
G75*
G03*
X24868500Y-6413500I-40000J0D01*
G01*
X24868500Y-6667500D02*
G75*
G03*
X24868500Y-6667500I-40000J0D01*
G01*
X24868500Y-6921500D02*
G75*
G03*
X24868500Y-6921500I-40000J0D01*
G01*
X24868500Y-7175500D02*
G75*
G03*
X24868500Y-7175500I-40000J0D01*
G01*
X24868500Y-7429500D02*
G75*
G03*
X24868500Y-7429500I-40000J0D01*
G01*
X24868500Y-7683500D02*
G75*
G03*
X24868500Y-7683500I-40000J0D01*
G01*
X24868500Y-7937500D02*
G75*
G03*
X24868500Y-7937500I-40000J0D01*
G01*
X24868500Y-8191500D02*
G75*
G03*
X24868500Y-8191500I-40000J0D01*
G01*
X24868500Y-8445500D02*
G75*
G03*
X24868500Y-8445500I-40000J0D01*
G01*
X24868500Y-8699500D02*
G75*
G03*
X24868500Y-8699500I-40000J0D01*
G01*
X24868500Y-8953500D02*
G75*
G03*
X24868500Y-8953500I-40000J0D01*
G01*
X24868500Y-9207500D02*
G75*
G03*
X24868500Y-9207500I-40000J0D01*
G01*
X24932000Y-2983500D02*
G75*
G03*
X24932000Y-2983500I-40000J0D01*
G01*
X24932000Y-3745500D02*
G75*
G03*
X24932000Y-3745500I-40000J0D01*
G01*
X24932000Y-10350500D02*
G75*
G03*
X24932000Y-10350500I-40000J0D01*
G01*
X24932000Y-10604500D02*
G75*
G03*
X24932000Y-10604500I-40000J0D01*
G01*
X24932000Y-10858500D02*
G75*
G03*
X24932000Y-10858500I-40000J0D01*
G01*
X24932000Y-11112500D02*
G75*
G03*
X24932000Y-11112500I-40000J0D01*
G01*
X24932000Y-11366500D02*
G75*
G03*
X24932000Y-11366500I-40000J0D01*
G01*
X24932000Y-11620500D02*
G75*
G03*
X24932000Y-11620500I-40000J0D01*
G01*
X24932000Y-11874500D02*
G75*
G03*
X24932000Y-11874500I-40000J0D01*
G01*
X24932000Y-12128500D02*
G75*
G03*
X24932000Y-12128500I-40000J0D01*
G01*
X24932000Y-12382500D02*
G75*
G03*
X24932000Y-12382500I-40000J0D01*
G01*
X24932000Y-12636500D02*
G75*
G03*
X24932000Y-12636500I-40000J0D01*
G01*
X24932000Y-12890500D02*
G75*
G03*
X24932000Y-12890500I-40000J0D01*
G01*
X24932000Y-13144500D02*
G75*
G03*
X24932000Y-13144500I-40000J0D01*
G01*
X24932000Y-13398500D02*
G75*
G03*
X24932000Y-13398500I-40000J0D01*
G01*
X24932000Y-13652500D02*
G75*
G03*
X24932000Y-13652500I-40000J0D01*
G01*
X24932000Y-13906500D02*
G75*
G03*
X24932000Y-13906500I-40000J0D01*
G01*
X24932000Y-14160500D02*
G75*
G03*
X24932000Y-14160500I-40000J0D01*
G01*
X24932000Y-14414500D02*
G75*
G03*
X24932000Y-14414500I-40000J0D01*
G01*
X24932000Y-14668500D02*
G75*
G03*
X24932000Y-14668500I-40000J0D01*
G01*
X24932000Y-14922500D02*
G75*
G03*
X24932000Y-14922500I-40000J0D01*
G01*
X24932000Y-15176500D02*
G75*
G03*
X24932000Y-15176500I-40000J0D01*
G01*
X25005000Y-2349500D02*
G75*
G03*
X25005000Y-2349500I-40000J0D01*
G01*
X25821000Y-13652500D02*
G75*
G03*
X25821000Y-13652500I-40000J0D01*
G01*
X25821000Y-13906500D02*
G75*
G03*
X25821000Y-13906500I-40000J0D01*
G01*
X25821000Y-14160500D02*
G75*
G03*
X25821000Y-14160500I-40000J0D01*
G01*
X25821000Y-14414500D02*
G75*
G03*
X25821000Y-14414500I-40000J0D01*
G01*
X25821000Y-14668500D02*
G75*
G03*
X25821000Y-14668500I-40000J0D01*
G01*
X25821000Y-14922500D02*
G75*
G03*
X25821000Y-14922500I-40000J0D01*
G01*
X25821000Y-15176500D02*
G75*
G03*
X25821000Y-15176500I-40000J0D01*
G01*
X25952000Y-13335000D02*
G75*
G03*
X25952000Y-13335000I-40000J0D01*
G01*
X26452000Y-13335000D02*
G75*
G03*
X26452000Y-13335000I-40000J0D01*
G01*
X26583000Y-13652500D02*
G75*
G03*
X26583000Y-13652500I-40000J0D01*
G01*
X26583000Y-13906500D02*
G75*
G03*
X26583000Y-13906500I-40000J0D01*
G01*
X26583000Y-14160500D02*
G75*
G03*
X26583000Y-14160500I-40000J0D01*
G01*
X26583000Y-14414500D02*
G75*
G03*
X26583000Y-14414500I-40000J0D01*
G01*
X26583000Y-14668500D02*
G75*
G03*
X26583000Y-14668500I-40000J0D01*
G01*
X26583000Y-14922500D02*
G75*
G03*
X26583000Y-14922500I-40000J0D01*
G01*
X26583000Y-15176500D02*
G75*
G03*
X26583000Y-15176500I-40000J0D01*
G01*
D10*
X4762500Y-14682000D02*
X4762500Y-14782000D01*
X4712500Y-14732000D02*
X4812500Y-14732000D01*
X4762500Y-14936000D02*
X4762500Y-15036000D01*
X4712500Y-14986000D02*
X4812500Y-14986000D01*
X5016500Y-14682000D02*
X5016500Y-14782000D01*
X4966500Y-14732000D02*
X5066500Y-14732000D01*
X5016500Y-14936000D02*
X5016500Y-15036000D01*
X4966500Y-14986000D02*
X5066500Y-14986000D01*
X5270500Y-14682000D02*
X5270500Y-14782000D01*
X5220500Y-14732000D02*
X5320500Y-14732000D01*
X5270500Y-14936000D02*
X5270500Y-15036000D01*
X5220500Y-14986000D02*
X5320500Y-14986000D01*
X5524500Y-14682000D02*
X5524500Y-14782000D01*
X5474500Y-14732000D02*
X5574500Y-14732000D01*
X5524500Y-14936000D02*
X5524500Y-15036000D01*
X5474500Y-14986000D02*
X5574500Y-14986000D01*
X5778500Y-14682000D02*
X5778500Y-14782000D01*
X5728500Y-14732000D02*
X5828500Y-14732000D01*
X5778500Y-14936000D02*
X5778500Y-15036000D01*
X5728500Y-14986000D02*
X5828500Y-14986000D01*
X6032500Y-14682000D02*
X6032500Y-14782000D01*
X5982500Y-14732000D02*
X6082500Y-14732000D01*
X6032500Y-14936000D02*
X6032500Y-15036000D01*
X5982500Y-14986000D02*
X6082500Y-14986000D01*
X6286500Y-14682000D02*
X6286500Y-14782000D01*
X6236500Y-14732000D02*
X6336500Y-14732000D01*
X6286500Y-14936000D02*
X6286500Y-15036000D01*
X6236500Y-14986000D02*
X6336500Y-14986000D01*
X6540500Y-14682000D02*
X6540500Y-14782000D01*
X6490500Y-14732000D02*
X6590500Y-14732000D01*
X6540500Y-14936000D02*
X6540500Y-15036000D01*
X6490500Y-14986000D02*
X6590500Y-14986000D01*
X6794500Y-14682000D02*
X6794500Y-14782000D01*
X6744500Y-14732000D02*
X6844500Y-14732000D01*
X6794500Y-14936000D02*
X6794500Y-15036000D01*
X6744500Y-14986000D02*
X6844500Y-14986000D01*
X7048500Y-14682000D02*
X7048500Y-14782000D01*
X6998500Y-14732000D02*
X7098500Y-14732000D01*
X7048500Y-14936000D02*
X7048500Y-15036000D01*
X6998500Y-14986000D02*
X7098500Y-14986000D01*
X7302500Y-14682000D02*
X7302500Y-14782000D01*
X7252500Y-14732000D02*
X7352500Y-14732000D01*
X7302500Y-14936000D02*
X7302500Y-15036000D01*
X7252500Y-14986000D02*
X7352500Y-14986000D01*
X7556500Y-14682000D02*
X7556500Y-14782000D01*
X7506500Y-14732000D02*
X7606500Y-14732000D01*
X7556500Y-14936000D02*
X7556500Y-15036000D01*
X7506500Y-14986000D02*
X7606500Y-14986000D01*
X7810500Y-14682000D02*
X7810500Y-14782000D01*
X7760500Y-14732000D02*
X7860500Y-14732000D01*
X7810500Y-14936000D02*
X7810500Y-15036000D01*
X7760500Y-14986000D02*
X7860500Y-14986000D01*
X8064500Y-14682000D02*
X8064500Y-14782000D01*
X8014500Y-14732000D02*
X8114500Y-14732000D01*
X8064500Y-14936000D02*
X8064500Y-15036000D01*
X8014500Y-14986000D02*
X8114500Y-14986000D01*
X8318500Y-14682000D02*
X8318500Y-14782000D01*
X8268500Y-14732000D02*
X8368500Y-14732000D01*
X8318500Y-14936000D02*
X8318500Y-15036000D01*
X8268500Y-14986000D02*
X8368500Y-14986000D01*
X8572500Y-14682000D02*
X8572500Y-14782000D01*
X8522500Y-14732000D02*
X8622500Y-14732000D01*
X8572500Y-14936000D02*
X8572500Y-15036000D01*
X8522500Y-14986000D02*
X8622500Y-14986000D01*
X8826500Y-14682000D02*
X8826500Y-14782000D01*
X8776500Y-14732000D02*
X8876500Y-14732000D01*
X8826500Y-14936000D02*
X8826500Y-15036000D01*
X8776500Y-14986000D02*
X8876500Y-14986000D01*
X9080500Y-14682000D02*
X9080500Y-14782000D01*
X9030500Y-14732000D02*
X9130500Y-14732000D01*
X9080500Y-14936000D02*
X9080500Y-15036000D01*
X9030500Y-14986000D02*
X9130500Y-14986000D01*
X9334500Y-14682000D02*
X9334500Y-14782000D01*
X9284500Y-14732000D02*
X9384500Y-14732000D01*
X9334500Y-14936000D02*
X9334500Y-15036000D01*
X9284500Y-14986000D02*
X9384500Y-14986000D01*
X9588500Y-14682000D02*
X9588500Y-14782000D01*
X9538500Y-14732000D02*
X9638500Y-14732000D01*
X9588500Y-14936000D02*
X9588500Y-15036000D01*
X9538500Y-14986000D02*
X9638500Y-14986000D01*
X9842500Y-14682000D02*
X9842500Y-14782000D01*
X9792500Y-14732000D02*
X9892500Y-14732000D01*
X9842500Y-14936000D02*
X9842500Y-15036000D01*
X9792500Y-14986000D02*
X9892500Y-14986000D01*
X10096500Y-14682000D02*
X10096500Y-14782000D01*
X10046500Y-14732000D02*
X10146500Y-14732000D01*
X10096500Y-14936000D02*
X10096500Y-15036000D01*
X10046500Y-14986000D02*
X10146500Y-14986000D01*
X10350500Y-14682000D02*
X10350500Y-14782000D01*
X10300500Y-14732000D02*
X10400500Y-14732000D01*
X10350500Y-14936000D02*
X10350500Y-15036000D01*
X10300500Y-14986000D02*
X10400500Y-14986000D01*
X10604500Y-14682000D02*
X10604500Y-14782000D01*
X10554500Y-14732000D02*
X10654500Y-14732000D01*
X10604500Y-14936000D02*
X10604500Y-15036000D01*
X10554500Y-14986000D02*
X10654500Y-14986000D01*
X10858500Y-14682000D02*
X10858500Y-14782000D01*
X10808500Y-14732000D02*
X10908500Y-14732000D01*
X10858500Y-14936000D02*
X10858500Y-15036000D01*
X10808500Y-14986000D02*
X10908500Y-14986000D01*
X11112500Y-14682000D02*
X11112500Y-14782000D01*
X11062500Y-14732000D02*
X11162500Y-14732000D01*
X11112500Y-14936000D02*
X11112500Y-15036000D01*
X11062500Y-14986000D02*
X11162500Y-14986000D01*
X11366500Y-14682000D02*
X11366500Y-14782000D01*
X11316500Y-14732000D02*
X11416500Y-14732000D01*
X11366500Y-14936000D02*
X11366500Y-15036000D01*
X11316500Y-14986000D02*
X11416500Y-14986000D01*
X11620500Y-14682000D02*
X11620500Y-14782000D01*
X11570500Y-14732000D02*
X11670500Y-14732000D01*
X11620500Y-14936000D02*
X11620500Y-15036000D01*
X11570500Y-14986000D02*
X11670500Y-14986000D01*
X11874500Y-14682000D02*
X11874500Y-14782000D01*
X11824500Y-14732000D02*
X11924500Y-14732000D01*
X11874500Y-14936000D02*
X11874500Y-15036000D01*
X11824500Y-14986000D02*
X11924500Y-14986000D01*
X12128500Y-14682000D02*
X12128500Y-14782000D01*
X12078500Y-14732000D02*
X12178500Y-14732000D01*
X12128500Y-14936000D02*
X12128500Y-15036000D01*
X12078500Y-14986000D02*
X12178500Y-14986000D01*
X12382500Y-14682000D02*
X12382500Y-14782000D01*
X12332500Y-14732000D02*
X12432500Y-14732000D01*
X12382500Y-14936000D02*
X12382500Y-15036000D01*
X12332500Y-14986000D02*
X12432500Y-14986000D01*
X12636500Y-14682000D02*
X12636500Y-14782000D01*
X12586500Y-14732000D02*
X12686500Y-14732000D01*
X12636500Y-14936000D02*
X12636500Y-15036000D01*
X12586500Y-14986000D02*
X12686500Y-14986000D01*
X22860000Y-4333000D02*
X22860000Y-4433000D01*
X22810000Y-4383000D02*
X22910000Y-4383000D01*
X22860000Y-4587000D02*
X22860000Y-4687000D01*
X22810000Y-4637000D02*
X22910000Y-4637000D01*
X22860000Y-4841000D02*
X22860000Y-4941000D01*
X22810000Y-4891000D02*
X22910000Y-4891000D01*
X22923500Y-10302000D02*
X22923500Y-10402000D01*
X22873500Y-10352000D02*
X22973500Y-10352000D01*
X22923500Y-10556000D02*
X22923500Y-10656000D01*
X22873500Y-10606000D02*
X22973500Y-10606000D01*
X22923500Y-10810000D02*
X22923500Y-10910000D01*
X22873500Y-10860000D02*
X22973500Y-10860000D01*
X25661000Y-4839500D02*
X25661000Y-4939500D01*
X25611000Y-4889500D02*
X25711000Y-4889500D01*
X25661000Y-5093500D02*
X25661000Y-5193500D01*
X25611000Y-5143500D02*
X25711000Y-5143500D01*
X25661000Y-5347500D02*
X25661000Y-5447500D01*
X25611000Y-5397500D02*
X25711000Y-5397500D01*
X25661000Y-5601500D02*
X25661000Y-5701500D01*
X25611000Y-5651500D02*
X25711000Y-5651500D01*
X25661000Y-5855500D02*
X25661000Y-5955500D01*
X25611000Y-5905500D02*
X25711000Y-5905500D01*
X25662750Y-2426500D02*
X25662750Y-2526500D01*
X25612750Y-2476500D02*
X25712750Y-2476500D01*
X25662750Y-2680500D02*
X25662750Y-2780500D01*
X25612750Y-2730500D02*
X25712750Y-2730500D01*
X25662750Y-2934500D02*
X25662750Y-3034500D01*
X25612750Y-2984500D02*
X25712750Y-2984500D01*
X25662750Y-3188500D02*
X25662750Y-3288500D01*
X25612750Y-3238500D02*
X25712750Y-3238500D01*
X25662750Y-3442500D02*
X25662750Y-3542500D01*
X25612750Y-3492500D02*
X25712750Y-3492500D01*
X25843000Y-12205500D02*
X25843000Y-12305500D01*
X25793000Y-12255500D02*
X25893000Y-12255500D01*
X25843000Y-12777000D02*
X25843000Y-12877000D01*
X25793000Y-12827000D02*
X25893000Y-12827000D01*
X25915000Y-4839500D02*
X25915000Y-4939500D01*
X25865000Y-4889500D02*
X25965000Y-4889500D01*
X25915000Y-5093500D02*
X25915000Y-5193500D01*
X25865000Y-5143500D02*
X25965000Y-5143500D01*
X25915000Y-5347500D02*
X25915000Y-5447500D01*
X25865000Y-5397500D02*
X25965000Y-5397500D01*
X25915000Y-5601500D02*
X25915000Y-5701500D01*
X25865000Y-5651500D02*
X25965000Y-5651500D01*
X25915000Y-5855500D02*
X25915000Y-5955500D01*
X25865000Y-5905500D02*
X25965000Y-5905500D01*
X25916750Y-2426500D02*
X25916750Y-2526500D01*
X25866750Y-2476500D02*
X25966750Y-2476500D01*
X25916750Y-2680500D02*
X25916750Y-2780500D01*
X25866750Y-2730500D02*
X25966750Y-2730500D01*
X25916750Y-2934500D02*
X25916750Y-3034500D01*
X25866750Y-2984500D02*
X25966750Y-2984500D01*
X25916750Y-3188500D02*
X25916750Y-3288500D01*
X25866750Y-3238500D02*
X25966750Y-3238500D01*
X25916750Y-3442500D02*
X25916750Y-3542500D01*
X25866750Y-3492500D02*
X25966750Y-3492500D01*
X25978500Y-7379500D02*
X25978500Y-7479500D01*
X25928500Y-7429500D02*
X26028500Y-7429500D01*
X25978500Y-7633500D02*
X25978500Y-7733500D01*
X25928500Y-7683500D02*
X26028500Y-7683500D01*
X25978500Y-7887500D02*
X25978500Y-7987500D01*
X25928500Y-7937500D02*
X26028500Y-7937500D01*
X25978500Y-8141500D02*
X25978500Y-8241500D01*
X25928500Y-8191500D02*
X26028500Y-8191500D01*
X25978500Y-8649500D02*
X25978500Y-8749500D01*
X25928500Y-8699500D02*
X26028500Y-8699500D01*
X25978500Y-8903500D02*
X25978500Y-9003500D01*
X25928500Y-8953500D02*
X26028500Y-8953500D01*
X25978500Y-9157500D02*
X25978500Y-9257500D01*
X25928500Y-9207500D02*
X26028500Y-9207500D01*
X25978500Y-9411500D02*
X25978500Y-9511500D01*
X25928500Y-9461500D02*
X26028500Y-9461500D01*
X25978500Y-9665500D02*
X25978500Y-9765500D01*
X25928500Y-9715500D02*
X26028500Y-9715500D01*
X25978500Y-9919500D02*
X25978500Y-10019500D01*
X25928500Y-9969500D02*
X26028500Y-9969500D01*
X25978500Y-10427500D02*
X25978500Y-10527500D01*
X25928500Y-10477500D02*
X26028500Y-10477500D01*
X25978500Y-10681500D02*
X25978500Y-10781500D01*
X25928500Y-10731500D02*
X26028500Y-10731500D01*
X25978500Y-10935500D02*
X25978500Y-11035500D01*
X25928500Y-10985500D02*
X26028500Y-10985500D01*
X25978500Y-11189500D02*
X25978500Y-11289500D01*
X25928500Y-11239500D02*
X26028500Y-11239500D01*
X25978500Y-11443500D02*
X25978500Y-11543500D01*
X25928500Y-11493500D02*
X26028500Y-11493500D01*
X25978500Y-11697500D02*
X25978500Y-11797500D01*
X25928500Y-11747500D02*
X26028500Y-11747500D01*
X26097000Y-12205500D02*
X26097000Y-12305500D01*
X26047000Y-12255500D02*
X26147000Y-12255500D01*
X26097000Y-12777000D02*
X26097000Y-12877000D01*
X26047000Y-12827000D02*
X26147000Y-12827000D01*
X26351000Y-12205500D02*
X26351000Y-12305500D01*
X26301000Y-12255500D02*
X26401000Y-12255500D01*
X26351000Y-12777000D02*
X26351000Y-12877000D01*
X26301000Y-12827000D02*
X26401000Y-12827000D01*
D11*
X3811777Y-15848584D02*
X3811777Y-15648584D01*
X3811777Y-15648584D02*
X3859396Y-15648584D01*
X3859396Y-15648584D02*
X3887967Y-15658108D01*
X3887967Y-15658108D02*
X3907015Y-15677155D01*
X3907015Y-15677155D02*
X3916539Y-15696203D01*
X3916539Y-15696203D02*
X3926062Y-15734298D01*
X3926062Y-15734298D02*
X3926062Y-15762869D01*
X3926062Y-15762869D02*
X3916539Y-15800965D01*
X3916539Y-15800965D02*
X3907015Y-15820012D01*
X3907015Y-15820012D02*
X3887967Y-15839060D01*
X3887967Y-15839060D02*
X3859396Y-15848584D01*
X3859396Y-15848584D02*
X3811777Y-15848584D01*
X4011777Y-15848584D02*
X4011777Y-15715250D01*
X4011777Y-15753346D02*
X4021301Y-15734298D01*
X4021301Y-15734298D02*
X4030824Y-15724774D01*
X4030824Y-15724774D02*
X4049872Y-15715250D01*
X4049872Y-15715250D02*
X4068920Y-15715250D01*
X4135586Y-15848584D02*
X4135586Y-15715250D01*
X4135586Y-15648584D02*
X4126062Y-15658108D01*
X4126062Y-15658108D02*
X4135586Y-15667631D01*
X4135586Y-15667631D02*
X4145110Y-15658108D01*
X4145110Y-15658108D02*
X4135586Y-15648584D01*
X4135586Y-15648584D02*
X4135586Y-15667631D01*
X4259396Y-15848584D02*
X4240348Y-15839060D01*
X4240348Y-15839060D02*
X4230824Y-15820012D01*
X4230824Y-15820012D02*
X4230824Y-15648584D01*
X4364158Y-15848584D02*
X4345110Y-15839060D01*
X4345110Y-15839060D02*
X4335586Y-15820012D01*
X4335586Y-15820012D02*
X4335586Y-15648584D01*
X4592729Y-15848584D02*
X4592729Y-15648584D01*
X4592729Y-15648584D02*
X4659396Y-15791441D01*
X4659396Y-15791441D02*
X4726063Y-15648584D01*
X4726063Y-15648584D02*
X4726063Y-15848584D01*
X4907015Y-15848584D02*
X4907015Y-15743822D01*
X4907015Y-15743822D02*
X4897491Y-15724774D01*
X4897491Y-15724774D02*
X4878444Y-15715250D01*
X4878444Y-15715250D02*
X4840348Y-15715250D01*
X4840348Y-15715250D02*
X4821301Y-15724774D01*
X4907015Y-15839060D02*
X4887967Y-15848584D01*
X4887967Y-15848584D02*
X4840348Y-15848584D01*
X4840348Y-15848584D02*
X4821301Y-15839060D01*
X4821301Y-15839060D02*
X4811777Y-15820012D01*
X4811777Y-15820012D02*
X4811777Y-15800965D01*
X4811777Y-15800965D02*
X4821301Y-15781917D01*
X4821301Y-15781917D02*
X4840348Y-15772393D01*
X4840348Y-15772393D02*
X4887967Y-15772393D01*
X4887967Y-15772393D02*
X4907015Y-15762869D01*
X5002253Y-15715250D02*
X5002253Y-15915250D01*
X5002253Y-15724774D02*
X5021301Y-15715250D01*
X5021301Y-15715250D02*
X5059396Y-15715250D01*
X5059396Y-15715250D02*
X5078444Y-15724774D01*
X5078444Y-15724774D02*
X5087967Y-15734298D01*
X5087967Y-15734298D02*
X5097491Y-15753346D01*
X5097491Y-15753346D02*
X5097491Y-15810488D01*
X5097491Y-15810488D02*
X5087967Y-15829536D01*
X5087967Y-15829536D02*
X5078444Y-15839060D01*
X5078444Y-15839060D02*
X5059396Y-15848584D01*
X5059396Y-15848584D02*
X5021301Y-15848584D01*
X5021301Y-15848584D02*
X5002253Y-15839060D01*
X5183205Y-15829536D02*
X5192729Y-15839060D01*
X5192729Y-15839060D02*
X5183205Y-15848584D01*
X5183205Y-15848584D02*
X5173682Y-15839060D01*
X5173682Y-15839060D02*
X5183205Y-15829536D01*
X5183205Y-15829536D02*
X5183205Y-15848584D01*
X5183205Y-15724774D02*
X5192729Y-15734298D01*
X5192729Y-15734298D02*
X5183205Y-15743822D01*
X5183205Y-15743822D02*
X5173682Y-15734298D01*
X5173682Y-15734298D02*
X5183205Y-15724774D01*
X5183205Y-15724774D02*
X5183205Y-15743822D01*
D12*
X3511000Y-16157100D02*
X3551000Y-16197100D01*
X3551000Y-16157100D02*
X3511000Y-16197100D01*
D11*
X3849872Y-16068584D02*
X3868920Y-16068584D01*
X3868920Y-16068584D02*
X3887967Y-16078108D01*
X3887967Y-16078108D02*
X3897491Y-16087631D01*
X3897491Y-16087631D02*
X3907015Y-16106679D01*
X3907015Y-16106679D02*
X3916539Y-16144774D01*
X3916539Y-16144774D02*
X3916539Y-16192393D01*
X3916539Y-16192393D02*
X3907015Y-16230488D01*
X3907015Y-16230488D02*
X3897491Y-16249536D01*
X3897491Y-16249536D02*
X3887967Y-16259060D01*
X3887967Y-16259060D02*
X3868920Y-16268584D01*
X3868920Y-16268584D02*
X3849872Y-16268584D01*
X3849872Y-16268584D02*
X3830824Y-16259060D01*
X3830824Y-16259060D02*
X3821301Y-16249536D01*
X3821301Y-16249536D02*
X3811777Y-16230488D01*
X3811777Y-16230488D02*
X3802253Y-16192393D01*
X3802253Y-16192393D02*
X3802253Y-16144774D01*
X3802253Y-16144774D02*
X3811777Y-16106679D01*
X3811777Y-16106679D02*
X3821301Y-16087631D01*
X3821301Y-16087631D02*
X3830824Y-16078108D01*
X3830824Y-16078108D02*
X3849872Y-16068584D01*
X4002253Y-16249536D02*
X4011777Y-16259060D01*
X4011777Y-16259060D02*
X4002253Y-16268584D01*
X4002253Y-16268584D02*
X3992729Y-16259060D01*
X3992729Y-16259060D02*
X4002253Y-16249536D01*
X4002253Y-16249536D02*
X4002253Y-16268584D01*
X4183205Y-16135250D02*
X4183205Y-16268584D01*
X4135586Y-16059060D02*
X4087967Y-16201917D01*
X4087967Y-16201917D02*
X4211777Y-16201917D01*
X4326063Y-16068584D02*
X4345110Y-16068584D01*
X4345110Y-16068584D02*
X4364158Y-16078108D01*
X4364158Y-16078108D02*
X4373682Y-16087631D01*
X4373682Y-16087631D02*
X4383205Y-16106679D01*
X4383205Y-16106679D02*
X4392729Y-16144774D01*
X4392729Y-16144774D02*
X4392729Y-16192393D01*
X4392729Y-16192393D02*
X4383205Y-16230488D01*
X4383205Y-16230488D02*
X4373682Y-16249536D01*
X4373682Y-16249536D02*
X4364158Y-16259060D01*
X4364158Y-16259060D02*
X4345110Y-16268584D01*
X4345110Y-16268584D02*
X4326063Y-16268584D01*
X4326063Y-16268584D02*
X4307015Y-16259060D01*
X4307015Y-16259060D02*
X4297491Y-16249536D01*
X4297491Y-16249536D02*
X4287967Y-16230488D01*
X4287967Y-16230488D02*
X4278444Y-16192393D01*
X4278444Y-16192393D02*
X4278444Y-16144774D01*
X4278444Y-16144774D02*
X4287967Y-16106679D01*
X4287967Y-16106679D02*
X4297491Y-16087631D01*
X4297491Y-16087631D02*
X4307015Y-16078108D01*
X4307015Y-16078108D02*
X4326063Y-16068584D01*
X4516539Y-16068584D02*
X4535586Y-16068584D01*
X4535586Y-16068584D02*
X4554634Y-16078108D01*
X4554634Y-16078108D02*
X4564158Y-16087631D01*
X4564158Y-16087631D02*
X4573682Y-16106679D01*
X4573682Y-16106679D02*
X4583205Y-16144774D01*
X4583205Y-16144774D02*
X4583205Y-16192393D01*
X4583205Y-16192393D02*
X4573682Y-16230488D01*
X4573682Y-16230488D02*
X4564158Y-16249536D01*
X4564158Y-16249536D02*
X4554634Y-16259060D01*
X4554634Y-16259060D02*
X4535586Y-16268584D01*
X4535586Y-16268584D02*
X4516539Y-16268584D01*
X4516539Y-16268584D02*
X4497491Y-16259060D01*
X4497491Y-16259060D02*
X4487967Y-16249536D01*
X4487967Y-16249536D02*
X4478444Y-16230488D01*
X4478444Y-16230488D02*
X4468920Y-16192393D01*
X4468920Y-16192393D02*
X4468920Y-16144774D01*
X4468920Y-16144774D02*
X4478444Y-16106679D01*
X4478444Y-16106679D02*
X4487967Y-16087631D01*
X4487967Y-16087631D02*
X4497491Y-16078108D01*
X4497491Y-16078108D02*
X4516539Y-16068584D01*
X4668920Y-16268584D02*
X4668920Y-16135250D01*
X4668920Y-16154298D02*
X4678444Y-16144774D01*
X4678444Y-16144774D02*
X4697491Y-16135250D01*
X4697491Y-16135250D02*
X4726063Y-16135250D01*
X4726063Y-16135250D02*
X4745110Y-16144774D01*
X4745110Y-16144774D02*
X4754634Y-16163822D01*
X4754634Y-16163822D02*
X4754634Y-16268584D01*
X4754634Y-16163822D02*
X4764158Y-16144774D01*
X4764158Y-16144774D02*
X4783205Y-16135250D01*
X4783205Y-16135250D02*
X4811777Y-16135250D01*
X4811777Y-16135250D02*
X4830825Y-16144774D01*
X4830825Y-16144774D02*
X4840348Y-16163822D01*
X4840348Y-16163822D02*
X4840348Y-16268584D01*
X4935586Y-16268584D02*
X4935586Y-16135250D01*
X4935586Y-16154298D02*
X4945110Y-16144774D01*
X4945110Y-16144774D02*
X4964158Y-16135250D01*
X4964158Y-16135250D02*
X4992729Y-16135250D01*
X4992729Y-16135250D02*
X5011777Y-16144774D01*
X5011777Y-16144774D02*
X5021301Y-16163822D01*
X5021301Y-16163822D02*
X5021301Y-16268584D01*
X5021301Y-16163822D02*
X5030825Y-16144774D01*
X5030825Y-16144774D02*
X5049872Y-16135250D01*
X5049872Y-16135250D02*
X5078444Y-16135250D01*
X5078444Y-16135250D02*
X5097491Y-16144774D01*
X5097491Y-16144774D02*
X5107015Y-16163822D01*
X5107015Y-16163822D02*
X5107015Y-16268584D01*
X5497491Y-16059060D02*
X5326063Y-16316203D01*
X5754634Y-16068584D02*
X5773682Y-16068584D01*
X5773682Y-16068584D02*
X5792729Y-16078108D01*
X5792729Y-16078108D02*
X5802253Y-16087631D01*
X5802253Y-16087631D02*
X5811777Y-16106679D01*
X5811777Y-16106679D02*
X5821301Y-16144774D01*
X5821301Y-16144774D02*
X5821301Y-16192393D01*
X5821301Y-16192393D02*
X5811777Y-16230488D01*
X5811777Y-16230488D02*
X5802253Y-16249536D01*
X5802253Y-16249536D02*
X5792729Y-16259060D01*
X5792729Y-16259060D02*
X5773682Y-16268584D01*
X5773682Y-16268584D02*
X5754634Y-16268584D01*
X5754634Y-16268584D02*
X5735586Y-16259060D01*
X5735586Y-16259060D02*
X5726063Y-16249536D01*
X5726063Y-16249536D02*
X5716539Y-16230488D01*
X5716539Y-16230488D02*
X5707015Y-16192393D01*
X5707015Y-16192393D02*
X5707015Y-16144774D01*
X5707015Y-16144774D02*
X5716539Y-16106679D01*
X5716539Y-16106679D02*
X5726063Y-16087631D01*
X5726063Y-16087631D02*
X5735586Y-16078108D01*
X5735586Y-16078108D02*
X5754634Y-16068584D01*
X5907015Y-16249536D02*
X5916539Y-16259060D01*
X5916539Y-16259060D02*
X5907015Y-16268584D01*
X5907015Y-16268584D02*
X5897491Y-16259060D01*
X5897491Y-16259060D02*
X5907015Y-16249536D01*
X5907015Y-16249536D02*
X5907015Y-16268584D01*
X6040348Y-16068584D02*
X6059396Y-16068584D01*
X6059396Y-16068584D02*
X6078444Y-16078108D01*
X6078444Y-16078108D02*
X6087967Y-16087631D01*
X6087967Y-16087631D02*
X6097491Y-16106679D01*
X6097491Y-16106679D02*
X6107015Y-16144774D01*
X6107015Y-16144774D02*
X6107015Y-16192393D01*
X6107015Y-16192393D02*
X6097491Y-16230488D01*
X6097491Y-16230488D02*
X6087967Y-16249536D01*
X6087967Y-16249536D02*
X6078444Y-16259060D01*
X6078444Y-16259060D02*
X6059396Y-16268584D01*
X6059396Y-16268584D02*
X6040348Y-16268584D01*
X6040348Y-16268584D02*
X6021301Y-16259060D01*
X6021301Y-16259060D02*
X6011777Y-16249536D01*
X6011777Y-16249536D02*
X6002253Y-16230488D01*
X6002253Y-16230488D02*
X5992729Y-16192393D01*
X5992729Y-16192393D02*
X5992729Y-16144774D01*
X5992729Y-16144774D02*
X6002253Y-16106679D01*
X6002253Y-16106679D02*
X6011777Y-16087631D01*
X6011777Y-16087631D02*
X6021301Y-16078108D01*
X6021301Y-16078108D02*
X6040348Y-16068584D01*
X6297491Y-16268584D02*
X6183206Y-16268584D01*
X6240348Y-16268584D02*
X6240348Y-16068584D01*
X6240348Y-16068584D02*
X6221301Y-16097155D01*
X6221301Y-16097155D02*
X6202253Y-16116203D01*
X6202253Y-16116203D02*
X6183206Y-16125727D01*
X6478444Y-16068584D02*
X6383206Y-16068584D01*
X6383206Y-16068584D02*
X6373682Y-16163822D01*
X6373682Y-16163822D02*
X6383206Y-16154298D01*
X6383206Y-16154298D02*
X6402253Y-16144774D01*
X6402253Y-16144774D02*
X6449872Y-16144774D01*
X6449872Y-16144774D02*
X6468920Y-16154298D01*
X6468920Y-16154298D02*
X6478444Y-16163822D01*
X6478444Y-16163822D02*
X6487967Y-16182869D01*
X6487967Y-16182869D02*
X6487967Y-16230488D01*
X6487967Y-16230488D02*
X6478444Y-16249536D01*
X6478444Y-16249536D02*
X6468920Y-16259060D01*
X6468920Y-16259060D02*
X6449872Y-16268584D01*
X6449872Y-16268584D02*
X6402253Y-16268584D01*
X6402253Y-16268584D02*
X6383206Y-16259060D01*
X6383206Y-16259060D02*
X6373682Y-16249536D01*
X6554634Y-16068584D02*
X6687967Y-16068584D01*
X6687967Y-16068584D02*
X6602253Y-16268584D01*
X6754634Y-16068584D02*
X6754634Y-16106679D01*
X6830825Y-16068584D02*
X6830825Y-16106679D01*
X7126063Y-16344774D02*
X7116539Y-16335250D01*
X7116539Y-16335250D02*
X7097491Y-16306679D01*
X7097491Y-16306679D02*
X7087968Y-16287631D01*
X7087968Y-16287631D02*
X7078444Y-16259060D01*
X7078444Y-16259060D02*
X7068920Y-16211441D01*
X7068920Y-16211441D02*
X7068920Y-16173346D01*
X7068920Y-16173346D02*
X7078444Y-16125727D01*
X7078444Y-16125727D02*
X7087968Y-16097155D01*
X7087968Y-16097155D02*
X7097491Y-16078108D01*
X7097491Y-16078108D02*
X7116539Y-16049536D01*
X7116539Y-16049536D02*
X7126063Y-16040012D01*
X7211777Y-16268584D02*
X7249872Y-16268584D01*
X7249872Y-16268584D02*
X7268920Y-16259060D01*
X7268920Y-16259060D02*
X7278444Y-16249536D01*
X7278444Y-16249536D02*
X7297491Y-16220965D01*
X7297491Y-16220965D02*
X7307015Y-16182869D01*
X7307015Y-16182869D02*
X7307015Y-16106679D01*
X7307015Y-16106679D02*
X7297491Y-16087631D01*
X7297491Y-16087631D02*
X7287968Y-16078108D01*
X7287968Y-16078108D02*
X7268920Y-16068584D01*
X7268920Y-16068584D02*
X7230825Y-16068584D01*
X7230825Y-16068584D02*
X7211777Y-16078108D01*
X7211777Y-16078108D02*
X7202253Y-16087631D01*
X7202253Y-16087631D02*
X7192729Y-16106679D01*
X7192729Y-16106679D02*
X7192729Y-16154298D01*
X7192729Y-16154298D02*
X7202253Y-16173346D01*
X7202253Y-16173346D02*
X7211777Y-16182869D01*
X7211777Y-16182869D02*
X7230825Y-16192393D01*
X7230825Y-16192393D02*
X7268920Y-16192393D01*
X7268920Y-16192393D02*
X7287968Y-16182869D01*
X7287968Y-16182869D02*
X7297491Y-16173346D01*
X7297491Y-16173346D02*
X7307015Y-16154298D01*
X7430825Y-16068584D02*
X7449872Y-16068584D01*
X7449872Y-16068584D02*
X7468920Y-16078108D01*
X7468920Y-16078108D02*
X7478444Y-16087631D01*
X7478444Y-16087631D02*
X7487968Y-16106679D01*
X7487968Y-16106679D02*
X7497491Y-16144774D01*
X7497491Y-16144774D02*
X7497491Y-16192393D01*
X7497491Y-16192393D02*
X7487968Y-16230488D01*
X7487968Y-16230488D02*
X7478444Y-16249536D01*
X7478444Y-16249536D02*
X7468920Y-16259060D01*
X7468920Y-16259060D02*
X7449872Y-16268584D01*
X7449872Y-16268584D02*
X7430825Y-16268584D01*
X7430825Y-16268584D02*
X7411777Y-16259060D01*
X7411777Y-16259060D02*
X7402253Y-16249536D01*
X7402253Y-16249536D02*
X7392729Y-16230488D01*
X7392729Y-16230488D02*
X7383206Y-16192393D01*
X7383206Y-16192393D02*
X7383206Y-16144774D01*
X7383206Y-16144774D02*
X7392729Y-16106679D01*
X7392729Y-16106679D02*
X7402253Y-16087631D01*
X7402253Y-16087631D02*
X7411777Y-16078108D01*
X7411777Y-16078108D02*
X7430825Y-16068584D01*
X7735587Y-16268584D02*
X7735587Y-16068584D01*
X7821301Y-16268584D02*
X7821301Y-16163822D01*
X7821301Y-16163822D02*
X7811777Y-16144774D01*
X7811777Y-16144774D02*
X7792730Y-16135250D01*
X7792730Y-16135250D02*
X7764158Y-16135250D01*
X7764158Y-16135250D02*
X7745110Y-16144774D01*
X7745110Y-16144774D02*
X7735587Y-16154298D01*
X7945110Y-16268584D02*
X7926063Y-16259060D01*
X7926063Y-16259060D02*
X7916539Y-16249536D01*
X7916539Y-16249536D02*
X7907015Y-16230488D01*
X7907015Y-16230488D02*
X7907015Y-16173346D01*
X7907015Y-16173346D02*
X7916539Y-16154298D01*
X7916539Y-16154298D02*
X7926063Y-16144774D01*
X7926063Y-16144774D02*
X7945110Y-16135250D01*
X7945110Y-16135250D02*
X7973682Y-16135250D01*
X7973682Y-16135250D02*
X7992730Y-16144774D01*
X7992730Y-16144774D02*
X8002253Y-16154298D01*
X8002253Y-16154298D02*
X8011777Y-16173346D01*
X8011777Y-16173346D02*
X8011777Y-16230488D01*
X8011777Y-16230488D02*
X8002253Y-16249536D01*
X8002253Y-16249536D02*
X7992730Y-16259060D01*
X7992730Y-16259060D02*
X7973682Y-16268584D01*
X7973682Y-16268584D02*
X7945110Y-16268584D01*
X8126063Y-16268584D02*
X8107015Y-16259060D01*
X8107015Y-16259060D02*
X8097491Y-16240012D01*
X8097491Y-16240012D02*
X8097491Y-16068584D01*
X8278444Y-16259060D02*
X8259396Y-16268584D01*
X8259396Y-16268584D02*
X8221301Y-16268584D01*
X8221301Y-16268584D02*
X8202253Y-16259060D01*
X8202253Y-16259060D02*
X8192730Y-16240012D01*
X8192730Y-16240012D02*
X8192730Y-16163822D01*
X8192730Y-16163822D02*
X8202253Y-16144774D01*
X8202253Y-16144774D02*
X8221301Y-16135250D01*
X8221301Y-16135250D02*
X8259396Y-16135250D01*
X8259396Y-16135250D02*
X8278444Y-16144774D01*
X8278444Y-16144774D02*
X8287968Y-16163822D01*
X8287968Y-16163822D02*
X8287968Y-16182869D01*
X8287968Y-16182869D02*
X8192730Y-16201917D01*
X8364158Y-16259060D02*
X8383206Y-16268584D01*
X8383206Y-16268584D02*
X8421301Y-16268584D01*
X8421301Y-16268584D02*
X8440349Y-16259060D01*
X8440349Y-16259060D02*
X8449873Y-16240012D01*
X8449873Y-16240012D02*
X8449873Y-16230488D01*
X8449873Y-16230488D02*
X8440349Y-16211441D01*
X8440349Y-16211441D02*
X8421301Y-16201917D01*
X8421301Y-16201917D02*
X8392730Y-16201917D01*
X8392730Y-16201917D02*
X8373682Y-16192393D01*
X8373682Y-16192393D02*
X8364158Y-16173346D01*
X8364158Y-16173346D02*
X8364158Y-16163822D01*
X8364158Y-16163822D02*
X8373682Y-16144774D01*
X8373682Y-16144774D02*
X8392730Y-16135250D01*
X8392730Y-16135250D02*
X8421301Y-16135250D01*
X8421301Y-16135250D02*
X8440349Y-16144774D01*
X8516539Y-16344774D02*
X8526063Y-16335250D01*
X8526063Y-16335250D02*
X8545111Y-16306679D01*
X8545111Y-16306679D02*
X8554634Y-16287631D01*
X8554634Y-16287631D02*
X8564158Y-16259060D01*
X8564158Y-16259060D02*
X8573682Y-16211441D01*
X8573682Y-16211441D02*
X8573682Y-16173346D01*
X8573682Y-16173346D02*
X8564158Y-16125727D01*
X8564158Y-16125727D02*
X8554634Y-16097155D01*
X8554634Y-16097155D02*
X8545111Y-16078108D01*
X8545111Y-16078108D02*
X8526063Y-16049536D01*
X8526063Y-16049536D02*
X8516539Y-16040012D01*
D13*
X3551000Y-16441100D02*
G75*
G03*
X3551000Y-16441100I-40000J0D01*
G01*
D11*
X3849872Y-16332584D02*
X3868920Y-16332584D01*
X3868920Y-16332584D02*
X3887967Y-16342108D01*
X3887967Y-16342108D02*
X3897491Y-16351631D01*
X3897491Y-16351631D02*
X3907015Y-16370679D01*
X3907015Y-16370679D02*
X3916539Y-16408774D01*
X3916539Y-16408774D02*
X3916539Y-16456393D01*
X3916539Y-16456393D02*
X3907015Y-16494488D01*
X3907015Y-16494488D02*
X3897491Y-16513536D01*
X3897491Y-16513536D02*
X3887967Y-16523060D01*
X3887967Y-16523060D02*
X3868920Y-16532584D01*
X3868920Y-16532584D02*
X3849872Y-16532584D01*
X3849872Y-16532584D02*
X3830824Y-16523060D01*
X3830824Y-16523060D02*
X3821301Y-16513536D01*
X3821301Y-16513536D02*
X3811777Y-16494488D01*
X3811777Y-16494488D02*
X3802253Y-16456393D01*
X3802253Y-16456393D02*
X3802253Y-16408774D01*
X3802253Y-16408774D02*
X3811777Y-16370679D01*
X3811777Y-16370679D02*
X3821301Y-16351631D01*
X3821301Y-16351631D02*
X3830824Y-16342108D01*
X3830824Y-16342108D02*
X3849872Y-16332584D01*
X4002253Y-16513536D02*
X4011777Y-16523060D01*
X4011777Y-16523060D02*
X4002253Y-16532584D01*
X4002253Y-16532584D02*
X3992729Y-16523060D01*
X3992729Y-16523060D02*
X4002253Y-16513536D01*
X4002253Y-16513536D02*
X4002253Y-16532584D01*
X4126062Y-16418298D02*
X4107015Y-16408774D01*
X4107015Y-16408774D02*
X4097491Y-16399250D01*
X4097491Y-16399250D02*
X4087967Y-16380203D01*
X4087967Y-16380203D02*
X4087967Y-16370679D01*
X4087967Y-16370679D02*
X4097491Y-16351631D01*
X4097491Y-16351631D02*
X4107015Y-16342108D01*
X4107015Y-16342108D02*
X4126062Y-16332584D01*
X4126062Y-16332584D02*
X4164158Y-16332584D01*
X4164158Y-16332584D02*
X4183205Y-16342108D01*
X4183205Y-16342108D02*
X4192729Y-16351631D01*
X4192729Y-16351631D02*
X4202253Y-16370679D01*
X4202253Y-16370679D02*
X4202253Y-16380203D01*
X4202253Y-16380203D02*
X4192729Y-16399250D01*
X4192729Y-16399250D02*
X4183205Y-16408774D01*
X4183205Y-16408774D02*
X4164158Y-16418298D01*
X4164158Y-16418298D02*
X4126062Y-16418298D01*
X4126062Y-16418298D02*
X4107015Y-16427822D01*
X4107015Y-16427822D02*
X4097491Y-16437346D01*
X4097491Y-16437346D02*
X4087967Y-16456393D01*
X4087967Y-16456393D02*
X4087967Y-16494488D01*
X4087967Y-16494488D02*
X4097491Y-16513536D01*
X4097491Y-16513536D02*
X4107015Y-16523060D01*
X4107015Y-16523060D02*
X4126062Y-16532584D01*
X4126062Y-16532584D02*
X4164158Y-16532584D01*
X4164158Y-16532584D02*
X4183205Y-16523060D01*
X4183205Y-16523060D02*
X4192729Y-16513536D01*
X4192729Y-16513536D02*
X4202253Y-16494488D01*
X4202253Y-16494488D02*
X4202253Y-16456393D01*
X4202253Y-16456393D02*
X4192729Y-16437346D01*
X4192729Y-16437346D02*
X4183205Y-16427822D01*
X4183205Y-16427822D02*
X4164158Y-16418298D01*
X4326063Y-16332584D02*
X4345110Y-16332584D01*
X4345110Y-16332584D02*
X4364158Y-16342108D01*
X4364158Y-16342108D02*
X4373682Y-16351631D01*
X4373682Y-16351631D02*
X4383205Y-16370679D01*
X4383205Y-16370679D02*
X4392729Y-16408774D01*
X4392729Y-16408774D02*
X4392729Y-16456393D01*
X4392729Y-16456393D02*
X4383205Y-16494488D01*
X4383205Y-16494488D02*
X4373682Y-16513536D01*
X4373682Y-16513536D02*
X4364158Y-16523060D01*
X4364158Y-16523060D02*
X4345110Y-16532584D01*
X4345110Y-16532584D02*
X4326063Y-16532584D01*
X4326063Y-16532584D02*
X4307015Y-16523060D01*
X4307015Y-16523060D02*
X4297491Y-16513536D01*
X4297491Y-16513536D02*
X4287967Y-16494488D01*
X4287967Y-16494488D02*
X4278444Y-16456393D01*
X4278444Y-16456393D02*
X4278444Y-16408774D01*
X4278444Y-16408774D02*
X4287967Y-16370679D01*
X4287967Y-16370679D02*
X4297491Y-16351631D01*
X4297491Y-16351631D02*
X4307015Y-16342108D01*
X4307015Y-16342108D02*
X4326063Y-16332584D01*
X4516539Y-16332584D02*
X4535586Y-16332584D01*
X4535586Y-16332584D02*
X4554634Y-16342108D01*
X4554634Y-16342108D02*
X4564158Y-16351631D01*
X4564158Y-16351631D02*
X4573682Y-16370679D01*
X4573682Y-16370679D02*
X4583205Y-16408774D01*
X4583205Y-16408774D02*
X4583205Y-16456393D01*
X4583205Y-16456393D02*
X4573682Y-16494488D01*
X4573682Y-16494488D02*
X4564158Y-16513536D01*
X4564158Y-16513536D02*
X4554634Y-16523060D01*
X4554634Y-16523060D02*
X4535586Y-16532584D01*
X4535586Y-16532584D02*
X4516539Y-16532584D01*
X4516539Y-16532584D02*
X4497491Y-16523060D01*
X4497491Y-16523060D02*
X4487967Y-16513536D01*
X4487967Y-16513536D02*
X4478444Y-16494488D01*
X4478444Y-16494488D02*
X4468920Y-16456393D01*
X4468920Y-16456393D02*
X4468920Y-16408774D01*
X4468920Y-16408774D02*
X4478444Y-16370679D01*
X4478444Y-16370679D02*
X4487967Y-16351631D01*
X4487967Y-16351631D02*
X4497491Y-16342108D01*
X4497491Y-16342108D02*
X4516539Y-16332584D01*
X4668920Y-16532584D02*
X4668920Y-16399250D01*
X4668920Y-16418298D02*
X4678444Y-16408774D01*
X4678444Y-16408774D02*
X4697491Y-16399250D01*
X4697491Y-16399250D02*
X4726063Y-16399250D01*
X4726063Y-16399250D02*
X4745110Y-16408774D01*
X4745110Y-16408774D02*
X4754634Y-16427822D01*
X4754634Y-16427822D02*
X4754634Y-16532584D01*
X4754634Y-16427822D02*
X4764158Y-16408774D01*
X4764158Y-16408774D02*
X4783205Y-16399250D01*
X4783205Y-16399250D02*
X4811777Y-16399250D01*
X4811777Y-16399250D02*
X4830825Y-16408774D01*
X4830825Y-16408774D02*
X4840348Y-16427822D01*
X4840348Y-16427822D02*
X4840348Y-16532584D01*
X4935586Y-16532584D02*
X4935586Y-16399250D01*
X4935586Y-16418298D02*
X4945110Y-16408774D01*
X4945110Y-16408774D02*
X4964158Y-16399250D01*
X4964158Y-16399250D02*
X4992729Y-16399250D01*
X4992729Y-16399250D02*
X5011777Y-16408774D01*
X5011777Y-16408774D02*
X5021301Y-16427822D01*
X5021301Y-16427822D02*
X5021301Y-16532584D01*
X5021301Y-16427822D02*
X5030825Y-16408774D01*
X5030825Y-16408774D02*
X5049872Y-16399250D01*
X5049872Y-16399250D02*
X5078444Y-16399250D01*
X5078444Y-16399250D02*
X5097491Y-16408774D01*
X5097491Y-16408774D02*
X5107015Y-16427822D01*
X5107015Y-16427822D02*
X5107015Y-16532584D01*
X5497491Y-16323060D02*
X5326063Y-16580203D01*
X5754634Y-16332584D02*
X5773682Y-16332584D01*
X5773682Y-16332584D02*
X5792729Y-16342108D01*
X5792729Y-16342108D02*
X5802253Y-16351631D01*
X5802253Y-16351631D02*
X5811777Y-16370679D01*
X5811777Y-16370679D02*
X5821301Y-16408774D01*
X5821301Y-16408774D02*
X5821301Y-16456393D01*
X5821301Y-16456393D02*
X5811777Y-16494488D01*
X5811777Y-16494488D02*
X5802253Y-16513536D01*
X5802253Y-16513536D02*
X5792729Y-16523060D01*
X5792729Y-16523060D02*
X5773682Y-16532584D01*
X5773682Y-16532584D02*
X5754634Y-16532584D01*
X5754634Y-16532584D02*
X5735586Y-16523060D01*
X5735586Y-16523060D02*
X5726063Y-16513536D01*
X5726063Y-16513536D02*
X5716539Y-16494488D01*
X5716539Y-16494488D02*
X5707015Y-16456393D01*
X5707015Y-16456393D02*
X5707015Y-16408774D01*
X5707015Y-16408774D02*
X5716539Y-16370679D01*
X5716539Y-16370679D02*
X5726063Y-16351631D01*
X5726063Y-16351631D02*
X5735586Y-16342108D01*
X5735586Y-16342108D02*
X5754634Y-16332584D01*
X5907015Y-16513536D02*
X5916539Y-16523060D01*
X5916539Y-16523060D02*
X5907015Y-16532584D01*
X5907015Y-16532584D02*
X5897491Y-16523060D01*
X5897491Y-16523060D02*
X5907015Y-16513536D01*
X5907015Y-16513536D02*
X5907015Y-16532584D01*
X6040348Y-16332584D02*
X6059396Y-16332584D01*
X6059396Y-16332584D02*
X6078444Y-16342108D01*
X6078444Y-16342108D02*
X6087967Y-16351631D01*
X6087967Y-16351631D02*
X6097491Y-16370679D01*
X6097491Y-16370679D02*
X6107015Y-16408774D01*
X6107015Y-16408774D02*
X6107015Y-16456393D01*
X6107015Y-16456393D02*
X6097491Y-16494488D01*
X6097491Y-16494488D02*
X6087967Y-16513536D01*
X6087967Y-16513536D02*
X6078444Y-16523060D01*
X6078444Y-16523060D02*
X6059396Y-16532584D01*
X6059396Y-16532584D02*
X6040348Y-16532584D01*
X6040348Y-16532584D02*
X6021301Y-16523060D01*
X6021301Y-16523060D02*
X6011777Y-16513536D01*
X6011777Y-16513536D02*
X6002253Y-16494488D01*
X6002253Y-16494488D02*
X5992729Y-16456393D01*
X5992729Y-16456393D02*
X5992729Y-16408774D01*
X5992729Y-16408774D02*
X6002253Y-16370679D01*
X6002253Y-16370679D02*
X6011777Y-16351631D01*
X6011777Y-16351631D02*
X6021301Y-16342108D01*
X6021301Y-16342108D02*
X6040348Y-16332584D01*
X6173682Y-16332584D02*
X6297491Y-16332584D01*
X6297491Y-16332584D02*
X6230825Y-16408774D01*
X6230825Y-16408774D02*
X6259396Y-16408774D01*
X6259396Y-16408774D02*
X6278444Y-16418298D01*
X6278444Y-16418298D02*
X6287967Y-16427822D01*
X6287967Y-16427822D02*
X6297491Y-16446869D01*
X6297491Y-16446869D02*
X6297491Y-16494488D01*
X6297491Y-16494488D02*
X6287967Y-16513536D01*
X6287967Y-16513536D02*
X6278444Y-16523060D01*
X6278444Y-16523060D02*
X6259396Y-16532584D01*
X6259396Y-16532584D02*
X6202253Y-16532584D01*
X6202253Y-16532584D02*
X6183206Y-16523060D01*
X6183206Y-16523060D02*
X6173682Y-16513536D01*
X6487967Y-16532584D02*
X6373682Y-16532584D01*
X6430825Y-16532584D02*
X6430825Y-16332584D01*
X6430825Y-16332584D02*
X6411777Y-16361155D01*
X6411777Y-16361155D02*
X6392729Y-16380203D01*
X6392729Y-16380203D02*
X6373682Y-16389727D01*
X6668920Y-16332584D02*
X6573682Y-16332584D01*
X6573682Y-16332584D02*
X6564158Y-16427822D01*
X6564158Y-16427822D02*
X6573682Y-16418298D01*
X6573682Y-16418298D02*
X6592729Y-16408774D01*
X6592729Y-16408774D02*
X6640348Y-16408774D01*
X6640348Y-16408774D02*
X6659396Y-16418298D01*
X6659396Y-16418298D02*
X6668920Y-16427822D01*
X6668920Y-16427822D02*
X6678444Y-16446869D01*
X6678444Y-16446869D02*
X6678444Y-16494488D01*
X6678444Y-16494488D02*
X6668920Y-16513536D01*
X6668920Y-16513536D02*
X6659396Y-16523060D01*
X6659396Y-16523060D02*
X6640348Y-16532584D01*
X6640348Y-16532584D02*
X6592729Y-16532584D01*
X6592729Y-16532584D02*
X6573682Y-16523060D01*
X6573682Y-16523060D02*
X6564158Y-16513536D01*
X6754634Y-16332584D02*
X6754634Y-16370679D01*
X6830825Y-16332584D02*
X6830825Y-16370679D01*
X7126063Y-16608774D02*
X7116539Y-16599250D01*
X7116539Y-16599250D02*
X7097491Y-16570679D01*
X7097491Y-16570679D02*
X7087968Y-16551631D01*
X7087968Y-16551631D02*
X7078444Y-16523060D01*
X7078444Y-16523060D02*
X7068920Y-16475441D01*
X7068920Y-16475441D02*
X7068920Y-16437346D01*
X7068920Y-16437346D02*
X7078444Y-16389727D01*
X7078444Y-16389727D02*
X7087968Y-16361155D01*
X7087968Y-16361155D02*
X7097491Y-16342108D01*
X7097491Y-16342108D02*
X7116539Y-16313536D01*
X7116539Y-16313536D02*
X7126063Y-16304012D01*
X7230825Y-16418298D02*
X7211777Y-16408774D01*
X7211777Y-16408774D02*
X7202253Y-16399250D01*
X7202253Y-16399250D02*
X7192729Y-16380203D01*
X7192729Y-16380203D02*
X7192729Y-16370679D01*
X7192729Y-16370679D02*
X7202253Y-16351631D01*
X7202253Y-16351631D02*
X7211777Y-16342108D01*
X7211777Y-16342108D02*
X7230825Y-16332584D01*
X7230825Y-16332584D02*
X7268920Y-16332584D01*
X7268920Y-16332584D02*
X7287968Y-16342108D01*
X7287968Y-16342108D02*
X7297491Y-16351631D01*
X7297491Y-16351631D02*
X7307015Y-16370679D01*
X7307015Y-16370679D02*
X7307015Y-16380203D01*
X7307015Y-16380203D02*
X7297491Y-16399250D01*
X7297491Y-16399250D02*
X7287968Y-16408774D01*
X7287968Y-16408774D02*
X7268920Y-16418298D01*
X7268920Y-16418298D02*
X7230825Y-16418298D01*
X7230825Y-16418298D02*
X7211777Y-16427822D01*
X7211777Y-16427822D02*
X7202253Y-16437346D01*
X7202253Y-16437346D02*
X7192729Y-16456393D01*
X7192729Y-16456393D02*
X7192729Y-16494488D01*
X7192729Y-16494488D02*
X7202253Y-16513536D01*
X7202253Y-16513536D02*
X7211777Y-16523060D01*
X7211777Y-16523060D02*
X7230825Y-16532584D01*
X7230825Y-16532584D02*
X7268920Y-16532584D01*
X7268920Y-16532584D02*
X7287968Y-16523060D01*
X7287968Y-16523060D02*
X7297491Y-16513536D01*
X7297491Y-16513536D02*
X7307015Y-16494488D01*
X7307015Y-16494488D02*
X7307015Y-16456393D01*
X7307015Y-16456393D02*
X7297491Y-16437346D01*
X7297491Y-16437346D02*
X7287968Y-16427822D01*
X7287968Y-16427822D02*
X7268920Y-16418298D01*
X7421301Y-16418298D02*
X7402253Y-16408774D01*
X7402253Y-16408774D02*
X7392729Y-16399250D01*
X7392729Y-16399250D02*
X7383206Y-16380203D01*
X7383206Y-16380203D02*
X7383206Y-16370679D01*
X7383206Y-16370679D02*
X7392729Y-16351631D01*
X7392729Y-16351631D02*
X7402253Y-16342108D01*
X7402253Y-16342108D02*
X7421301Y-16332584D01*
X7421301Y-16332584D02*
X7459396Y-16332584D01*
X7459396Y-16332584D02*
X7478444Y-16342108D01*
X7478444Y-16342108D02*
X7487968Y-16351631D01*
X7487968Y-16351631D02*
X7497491Y-16370679D01*
X7497491Y-16370679D02*
X7497491Y-16380203D01*
X7497491Y-16380203D02*
X7487968Y-16399250D01*
X7487968Y-16399250D02*
X7478444Y-16408774D01*
X7478444Y-16408774D02*
X7459396Y-16418298D01*
X7459396Y-16418298D02*
X7421301Y-16418298D01*
X7421301Y-16418298D02*
X7402253Y-16427822D01*
X7402253Y-16427822D02*
X7392729Y-16437346D01*
X7392729Y-16437346D02*
X7383206Y-16456393D01*
X7383206Y-16456393D02*
X7383206Y-16494488D01*
X7383206Y-16494488D02*
X7392729Y-16513536D01*
X7392729Y-16513536D02*
X7402253Y-16523060D01*
X7402253Y-16523060D02*
X7421301Y-16532584D01*
X7421301Y-16532584D02*
X7459396Y-16532584D01*
X7459396Y-16532584D02*
X7478444Y-16523060D01*
X7478444Y-16523060D02*
X7487968Y-16513536D01*
X7487968Y-16513536D02*
X7497491Y-16494488D01*
X7497491Y-16494488D02*
X7497491Y-16456393D01*
X7497491Y-16456393D02*
X7487968Y-16437346D01*
X7487968Y-16437346D02*
X7478444Y-16427822D01*
X7478444Y-16427822D02*
X7459396Y-16418298D01*
X7621301Y-16332584D02*
X7640349Y-16332584D01*
X7640349Y-16332584D02*
X7659396Y-16342108D01*
X7659396Y-16342108D02*
X7668920Y-16351631D01*
X7668920Y-16351631D02*
X7678444Y-16370679D01*
X7678444Y-16370679D02*
X7687968Y-16408774D01*
X7687968Y-16408774D02*
X7687968Y-16456393D01*
X7687968Y-16456393D02*
X7678444Y-16494488D01*
X7678444Y-16494488D02*
X7668920Y-16513536D01*
X7668920Y-16513536D02*
X7659396Y-16523060D01*
X7659396Y-16523060D02*
X7640349Y-16532584D01*
X7640349Y-16532584D02*
X7621301Y-16532584D01*
X7621301Y-16532584D02*
X7602253Y-16523060D01*
X7602253Y-16523060D02*
X7592729Y-16513536D01*
X7592729Y-16513536D02*
X7583206Y-16494488D01*
X7583206Y-16494488D02*
X7573682Y-16456393D01*
X7573682Y-16456393D02*
X7573682Y-16408774D01*
X7573682Y-16408774D02*
X7583206Y-16370679D01*
X7583206Y-16370679D02*
X7592729Y-16351631D01*
X7592729Y-16351631D02*
X7602253Y-16342108D01*
X7602253Y-16342108D02*
X7621301Y-16332584D01*
X7926063Y-16532584D02*
X7926063Y-16332584D01*
X8011777Y-16532584D02*
X8011777Y-16427822D01*
X8011777Y-16427822D02*
X8002253Y-16408774D01*
X8002253Y-16408774D02*
X7983206Y-16399250D01*
X7983206Y-16399250D02*
X7954634Y-16399250D01*
X7954634Y-16399250D02*
X7935587Y-16408774D01*
X7935587Y-16408774D02*
X7926063Y-16418298D01*
X8135587Y-16532584D02*
X8116539Y-16523060D01*
X8116539Y-16523060D02*
X8107015Y-16513536D01*
X8107015Y-16513536D02*
X8097491Y-16494488D01*
X8097491Y-16494488D02*
X8097491Y-16437346D01*
X8097491Y-16437346D02*
X8107015Y-16418298D01*
X8107015Y-16418298D02*
X8116539Y-16408774D01*
X8116539Y-16408774D02*
X8135587Y-16399250D01*
X8135587Y-16399250D02*
X8164158Y-16399250D01*
X8164158Y-16399250D02*
X8183206Y-16408774D01*
X8183206Y-16408774D02*
X8192730Y-16418298D01*
X8192730Y-16418298D02*
X8202253Y-16437346D01*
X8202253Y-16437346D02*
X8202253Y-16494488D01*
X8202253Y-16494488D02*
X8192730Y-16513536D01*
X8192730Y-16513536D02*
X8183206Y-16523060D01*
X8183206Y-16523060D02*
X8164158Y-16532584D01*
X8164158Y-16532584D02*
X8135587Y-16532584D01*
X8316539Y-16532584D02*
X8297491Y-16523060D01*
X8297491Y-16523060D02*
X8287968Y-16504012D01*
X8287968Y-16504012D02*
X8287968Y-16332584D01*
X8468920Y-16523060D02*
X8449873Y-16532584D01*
X8449873Y-16532584D02*
X8411777Y-16532584D01*
X8411777Y-16532584D02*
X8392730Y-16523060D01*
X8392730Y-16523060D02*
X8383206Y-16504012D01*
X8383206Y-16504012D02*
X8383206Y-16427822D01*
X8383206Y-16427822D02*
X8392730Y-16408774D01*
X8392730Y-16408774D02*
X8411777Y-16399250D01*
X8411777Y-16399250D02*
X8449873Y-16399250D01*
X8449873Y-16399250D02*
X8468920Y-16408774D01*
X8468920Y-16408774D02*
X8478444Y-16427822D01*
X8478444Y-16427822D02*
X8478444Y-16446869D01*
X8478444Y-16446869D02*
X8383206Y-16465917D01*
X8554634Y-16523060D02*
X8573682Y-16532584D01*
X8573682Y-16532584D02*
X8611777Y-16532584D01*
X8611777Y-16532584D02*
X8630825Y-16523060D01*
X8630825Y-16523060D02*
X8640349Y-16504012D01*
X8640349Y-16504012D02*
X8640349Y-16494488D01*
X8640349Y-16494488D02*
X8630825Y-16475441D01*
X8630825Y-16475441D02*
X8611777Y-16465917D01*
X8611777Y-16465917D02*
X8583206Y-16465917D01*
X8583206Y-16465917D02*
X8564158Y-16456393D01*
X8564158Y-16456393D02*
X8554634Y-16437346D01*
X8554634Y-16437346D02*
X8554634Y-16427822D01*
X8554634Y-16427822D02*
X8564158Y-16408774D01*
X8564158Y-16408774D02*
X8583206Y-16399250D01*
X8583206Y-16399250D02*
X8611777Y-16399250D01*
X8611777Y-16399250D02*
X8630825Y-16408774D01*
X8707015Y-16608774D02*
X8716539Y-16599250D01*
X8716539Y-16599250D02*
X8735587Y-16570679D01*
X8735587Y-16570679D02*
X8745111Y-16551631D01*
X8745111Y-16551631D02*
X8754634Y-16523060D01*
X8754634Y-16523060D02*
X8764158Y-16475441D01*
X8764158Y-16475441D02*
X8764158Y-16437346D01*
X8764158Y-16437346D02*
X8754634Y-16389727D01*
X8754634Y-16389727D02*
X8745111Y-16361155D01*
X8745111Y-16361155D02*
X8735587Y-16342108D01*
X8735587Y-16342108D02*
X8716539Y-16313536D01*
X8716539Y-16313536D02*
X8707015Y-16304012D01*
D10*
X3501000Y-16655100D02*
X3501000Y-16755100D01*
X3451000Y-16705100D02*
X3551000Y-16705100D01*
D11*
X3916539Y-16796584D02*
X3802253Y-16796584D01*
X3859396Y-16796584D02*
X3859396Y-16596584D01*
X3859396Y-16596584D02*
X3840348Y-16625155D01*
X3840348Y-16625155D02*
X3821301Y-16644203D01*
X3821301Y-16644203D02*
X3802253Y-16653727D01*
X4002253Y-16777536D02*
X4011777Y-16787060D01*
X4011777Y-16787060D02*
X4002253Y-16796584D01*
X4002253Y-16796584D02*
X3992729Y-16787060D01*
X3992729Y-16787060D02*
X4002253Y-16777536D01*
X4002253Y-16777536D02*
X4002253Y-16796584D01*
X4135586Y-16596584D02*
X4154634Y-16596584D01*
X4154634Y-16596584D02*
X4173682Y-16606108D01*
X4173682Y-16606108D02*
X4183205Y-16615631D01*
X4183205Y-16615631D02*
X4192729Y-16634679D01*
X4192729Y-16634679D02*
X4202253Y-16672774D01*
X4202253Y-16672774D02*
X4202253Y-16720393D01*
X4202253Y-16720393D02*
X4192729Y-16758488D01*
X4192729Y-16758488D02*
X4183205Y-16777536D01*
X4183205Y-16777536D02*
X4173682Y-16787060D01*
X4173682Y-16787060D02*
X4154634Y-16796584D01*
X4154634Y-16796584D02*
X4135586Y-16796584D01*
X4135586Y-16796584D02*
X4116539Y-16787060D01*
X4116539Y-16787060D02*
X4107015Y-16777536D01*
X4107015Y-16777536D02*
X4097491Y-16758488D01*
X4097491Y-16758488D02*
X4087967Y-16720393D01*
X4087967Y-16720393D02*
X4087967Y-16672774D01*
X4087967Y-16672774D02*
X4097491Y-16634679D01*
X4097491Y-16634679D02*
X4107015Y-16615631D01*
X4107015Y-16615631D02*
X4116539Y-16606108D01*
X4116539Y-16606108D02*
X4135586Y-16596584D01*
X4326063Y-16596584D02*
X4345110Y-16596584D01*
X4345110Y-16596584D02*
X4364158Y-16606108D01*
X4364158Y-16606108D02*
X4373682Y-16615631D01*
X4373682Y-16615631D02*
X4383205Y-16634679D01*
X4383205Y-16634679D02*
X4392729Y-16672774D01*
X4392729Y-16672774D02*
X4392729Y-16720393D01*
X4392729Y-16720393D02*
X4383205Y-16758488D01*
X4383205Y-16758488D02*
X4373682Y-16777536D01*
X4373682Y-16777536D02*
X4364158Y-16787060D01*
X4364158Y-16787060D02*
X4345110Y-16796584D01*
X4345110Y-16796584D02*
X4326063Y-16796584D01*
X4326063Y-16796584D02*
X4307015Y-16787060D01*
X4307015Y-16787060D02*
X4297491Y-16777536D01*
X4297491Y-16777536D02*
X4287967Y-16758488D01*
X4287967Y-16758488D02*
X4278444Y-16720393D01*
X4278444Y-16720393D02*
X4278444Y-16672774D01*
X4278444Y-16672774D02*
X4287967Y-16634679D01*
X4287967Y-16634679D02*
X4297491Y-16615631D01*
X4297491Y-16615631D02*
X4307015Y-16606108D01*
X4307015Y-16606108D02*
X4326063Y-16596584D01*
X4516539Y-16596584D02*
X4535586Y-16596584D01*
X4535586Y-16596584D02*
X4554634Y-16606108D01*
X4554634Y-16606108D02*
X4564158Y-16615631D01*
X4564158Y-16615631D02*
X4573682Y-16634679D01*
X4573682Y-16634679D02*
X4583205Y-16672774D01*
X4583205Y-16672774D02*
X4583205Y-16720393D01*
X4583205Y-16720393D02*
X4573682Y-16758488D01*
X4573682Y-16758488D02*
X4564158Y-16777536D01*
X4564158Y-16777536D02*
X4554634Y-16787060D01*
X4554634Y-16787060D02*
X4535586Y-16796584D01*
X4535586Y-16796584D02*
X4516539Y-16796584D01*
X4516539Y-16796584D02*
X4497491Y-16787060D01*
X4497491Y-16787060D02*
X4487967Y-16777536D01*
X4487967Y-16777536D02*
X4478444Y-16758488D01*
X4478444Y-16758488D02*
X4468920Y-16720393D01*
X4468920Y-16720393D02*
X4468920Y-16672774D01*
X4468920Y-16672774D02*
X4478444Y-16634679D01*
X4478444Y-16634679D02*
X4487967Y-16615631D01*
X4487967Y-16615631D02*
X4497491Y-16606108D01*
X4497491Y-16606108D02*
X4516539Y-16596584D01*
X4668920Y-16796584D02*
X4668920Y-16663250D01*
X4668920Y-16682298D02*
X4678444Y-16672774D01*
X4678444Y-16672774D02*
X4697491Y-16663250D01*
X4697491Y-16663250D02*
X4726063Y-16663250D01*
X4726063Y-16663250D02*
X4745110Y-16672774D01*
X4745110Y-16672774D02*
X4754634Y-16691822D01*
X4754634Y-16691822D02*
X4754634Y-16796584D01*
X4754634Y-16691822D02*
X4764158Y-16672774D01*
X4764158Y-16672774D02*
X4783205Y-16663250D01*
X4783205Y-16663250D02*
X4811777Y-16663250D01*
X4811777Y-16663250D02*
X4830825Y-16672774D01*
X4830825Y-16672774D02*
X4840348Y-16691822D01*
X4840348Y-16691822D02*
X4840348Y-16796584D01*
X4935586Y-16796584D02*
X4935586Y-16663250D01*
X4935586Y-16682298D02*
X4945110Y-16672774D01*
X4945110Y-16672774D02*
X4964158Y-16663250D01*
X4964158Y-16663250D02*
X4992729Y-16663250D01*
X4992729Y-16663250D02*
X5011777Y-16672774D01*
X5011777Y-16672774D02*
X5021301Y-16691822D01*
X5021301Y-16691822D02*
X5021301Y-16796584D01*
X5021301Y-16691822D02*
X5030825Y-16672774D01*
X5030825Y-16672774D02*
X5049872Y-16663250D01*
X5049872Y-16663250D02*
X5078444Y-16663250D01*
X5078444Y-16663250D02*
X5097491Y-16672774D01*
X5097491Y-16672774D02*
X5107015Y-16691822D01*
X5107015Y-16691822D02*
X5107015Y-16796584D01*
X5497491Y-16587060D02*
X5326063Y-16844203D01*
X5754634Y-16596584D02*
X5773682Y-16596584D01*
X5773682Y-16596584D02*
X5792729Y-16606108D01*
X5792729Y-16606108D02*
X5802253Y-16615631D01*
X5802253Y-16615631D02*
X5811777Y-16634679D01*
X5811777Y-16634679D02*
X5821301Y-16672774D01*
X5821301Y-16672774D02*
X5821301Y-16720393D01*
X5821301Y-16720393D02*
X5811777Y-16758488D01*
X5811777Y-16758488D02*
X5802253Y-16777536D01*
X5802253Y-16777536D02*
X5792729Y-16787060D01*
X5792729Y-16787060D02*
X5773682Y-16796584D01*
X5773682Y-16796584D02*
X5754634Y-16796584D01*
X5754634Y-16796584D02*
X5735586Y-16787060D01*
X5735586Y-16787060D02*
X5726063Y-16777536D01*
X5726063Y-16777536D02*
X5716539Y-16758488D01*
X5716539Y-16758488D02*
X5707015Y-16720393D01*
X5707015Y-16720393D02*
X5707015Y-16672774D01*
X5707015Y-16672774D02*
X5716539Y-16634679D01*
X5716539Y-16634679D02*
X5726063Y-16615631D01*
X5726063Y-16615631D02*
X5735586Y-16606108D01*
X5735586Y-16606108D02*
X5754634Y-16596584D01*
X5907015Y-16777536D02*
X5916539Y-16787060D01*
X5916539Y-16787060D02*
X5907015Y-16796584D01*
X5907015Y-16796584D02*
X5897491Y-16787060D01*
X5897491Y-16787060D02*
X5907015Y-16777536D01*
X5907015Y-16777536D02*
X5907015Y-16796584D01*
X6040348Y-16596584D02*
X6059396Y-16596584D01*
X6059396Y-16596584D02*
X6078444Y-16606108D01*
X6078444Y-16606108D02*
X6087967Y-16615631D01*
X6087967Y-16615631D02*
X6097491Y-16634679D01*
X6097491Y-16634679D02*
X6107015Y-16672774D01*
X6107015Y-16672774D02*
X6107015Y-16720393D01*
X6107015Y-16720393D02*
X6097491Y-16758488D01*
X6097491Y-16758488D02*
X6087967Y-16777536D01*
X6087967Y-16777536D02*
X6078444Y-16787060D01*
X6078444Y-16787060D02*
X6059396Y-16796584D01*
X6059396Y-16796584D02*
X6040348Y-16796584D01*
X6040348Y-16796584D02*
X6021301Y-16787060D01*
X6021301Y-16787060D02*
X6011777Y-16777536D01*
X6011777Y-16777536D02*
X6002253Y-16758488D01*
X6002253Y-16758488D02*
X5992729Y-16720393D01*
X5992729Y-16720393D02*
X5992729Y-16672774D01*
X5992729Y-16672774D02*
X6002253Y-16634679D01*
X6002253Y-16634679D02*
X6011777Y-16615631D01*
X6011777Y-16615631D02*
X6021301Y-16606108D01*
X6021301Y-16606108D02*
X6040348Y-16596584D01*
X6173682Y-16596584D02*
X6297491Y-16596584D01*
X6297491Y-16596584D02*
X6230825Y-16672774D01*
X6230825Y-16672774D02*
X6259396Y-16672774D01*
X6259396Y-16672774D02*
X6278444Y-16682298D01*
X6278444Y-16682298D02*
X6287967Y-16691822D01*
X6287967Y-16691822D02*
X6297491Y-16710869D01*
X6297491Y-16710869D02*
X6297491Y-16758488D01*
X6297491Y-16758488D02*
X6287967Y-16777536D01*
X6287967Y-16777536D02*
X6278444Y-16787060D01*
X6278444Y-16787060D02*
X6259396Y-16796584D01*
X6259396Y-16796584D02*
X6202253Y-16796584D01*
X6202253Y-16796584D02*
X6183206Y-16787060D01*
X6183206Y-16787060D02*
X6173682Y-16777536D01*
X6392729Y-16796584D02*
X6430825Y-16796584D01*
X6430825Y-16796584D02*
X6449872Y-16787060D01*
X6449872Y-16787060D02*
X6459396Y-16777536D01*
X6459396Y-16777536D02*
X6478444Y-16748965D01*
X6478444Y-16748965D02*
X6487967Y-16710869D01*
X6487967Y-16710869D02*
X6487967Y-16634679D01*
X6487967Y-16634679D02*
X6478444Y-16615631D01*
X6478444Y-16615631D02*
X6468920Y-16606108D01*
X6468920Y-16606108D02*
X6449872Y-16596584D01*
X6449872Y-16596584D02*
X6411777Y-16596584D01*
X6411777Y-16596584D02*
X6392729Y-16606108D01*
X6392729Y-16606108D02*
X6383206Y-16615631D01*
X6383206Y-16615631D02*
X6373682Y-16634679D01*
X6373682Y-16634679D02*
X6373682Y-16682298D01*
X6373682Y-16682298D02*
X6383206Y-16701346D01*
X6383206Y-16701346D02*
X6392729Y-16710869D01*
X6392729Y-16710869D02*
X6411777Y-16720393D01*
X6411777Y-16720393D02*
X6449872Y-16720393D01*
X6449872Y-16720393D02*
X6468920Y-16710869D01*
X6468920Y-16710869D02*
X6478444Y-16701346D01*
X6478444Y-16701346D02*
X6487967Y-16682298D01*
X6659396Y-16663250D02*
X6659396Y-16796584D01*
X6611777Y-16587060D02*
X6564158Y-16729917D01*
X6564158Y-16729917D02*
X6687967Y-16729917D01*
X6754634Y-16596584D02*
X6754634Y-16634679D01*
X6830825Y-16596584D02*
X6830825Y-16634679D01*
X7126063Y-16872774D02*
X7116539Y-16863250D01*
X7116539Y-16863250D02*
X7097491Y-16834679D01*
X7097491Y-16834679D02*
X7087968Y-16815631D01*
X7087968Y-16815631D02*
X7078444Y-16787060D01*
X7078444Y-16787060D02*
X7068920Y-16739441D01*
X7068920Y-16739441D02*
X7068920Y-16701346D01*
X7068920Y-16701346D02*
X7078444Y-16653727D01*
X7078444Y-16653727D02*
X7087968Y-16625155D01*
X7087968Y-16625155D02*
X7097491Y-16606108D01*
X7097491Y-16606108D02*
X7116539Y-16577536D01*
X7116539Y-16577536D02*
X7126063Y-16568012D01*
X7307015Y-16796584D02*
X7192729Y-16796584D01*
X7249872Y-16796584D02*
X7249872Y-16596584D01*
X7249872Y-16596584D02*
X7230825Y-16625155D01*
X7230825Y-16625155D02*
X7211777Y-16644203D01*
X7211777Y-16644203D02*
X7192729Y-16653727D01*
X7497491Y-16796584D02*
X7383206Y-16796584D01*
X7440348Y-16796584D02*
X7440348Y-16596584D01*
X7440348Y-16596584D02*
X7421301Y-16625155D01*
X7421301Y-16625155D02*
X7402253Y-16644203D01*
X7402253Y-16644203D02*
X7383206Y-16653727D01*
X7573682Y-16615631D02*
X7583206Y-16606108D01*
X7583206Y-16606108D02*
X7602253Y-16596584D01*
X7602253Y-16596584D02*
X7649872Y-16596584D01*
X7649872Y-16596584D02*
X7668920Y-16606108D01*
X7668920Y-16606108D02*
X7678444Y-16615631D01*
X7678444Y-16615631D02*
X7687968Y-16634679D01*
X7687968Y-16634679D02*
X7687968Y-16653727D01*
X7687968Y-16653727D02*
X7678444Y-16682298D01*
X7678444Y-16682298D02*
X7564158Y-16796584D01*
X7564158Y-16796584D02*
X7687968Y-16796584D01*
X7926063Y-16796584D02*
X7926063Y-16596584D01*
X8011777Y-16796584D02*
X8011777Y-16691822D01*
X8011777Y-16691822D02*
X8002253Y-16672774D01*
X8002253Y-16672774D02*
X7983206Y-16663250D01*
X7983206Y-16663250D02*
X7954634Y-16663250D01*
X7954634Y-16663250D02*
X7935587Y-16672774D01*
X7935587Y-16672774D02*
X7926063Y-16682298D01*
X8135587Y-16796584D02*
X8116539Y-16787060D01*
X8116539Y-16787060D02*
X8107015Y-16777536D01*
X8107015Y-16777536D02*
X8097491Y-16758488D01*
X8097491Y-16758488D02*
X8097491Y-16701346D01*
X8097491Y-16701346D02*
X8107015Y-16682298D01*
X8107015Y-16682298D02*
X8116539Y-16672774D01*
X8116539Y-16672774D02*
X8135587Y-16663250D01*
X8135587Y-16663250D02*
X8164158Y-16663250D01*
X8164158Y-16663250D02*
X8183206Y-16672774D01*
X8183206Y-16672774D02*
X8192730Y-16682298D01*
X8192730Y-16682298D02*
X8202253Y-16701346D01*
X8202253Y-16701346D02*
X8202253Y-16758488D01*
X8202253Y-16758488D02*
X8192730Y-16777536D01*
X8192730Y-16777536D02*
X8183206Y-16787060D01*
X8183206Y-16787060D02*
X8164158Y-16796584D01*
X8164158Y-16796584D02*
X8135587Y-16796584D01*
X8316539Y-16796584D02*
X8297491Y-16787060D01*
X8297491Y-16787060D02*
X8287968Y-16768012D01*
X8287968Y-16768012D02*
X8287968Y-16596584D01*
X8468920Y-16787060D02*
X8449873Y-16796584D01*
X8449873Y-16796584D02*
X8411777Y-16796584D01*
X8411777Y-16796584D02*
X8392730Y-16787060D01*
X8392730Y-16787060D02*
X8383206Y-16768012D01*
X8383206Y-16768012D02*
X8383206Y-16691822D01*
X8383206Y-16691822D02*
X8392730Y-16672774D01*
X8392730Y-16672774D02*
X8411777Y-16663250D01*
X8411777Y-16663250D02*
X8449873Y-16663250D01*
X8449873Y-16663250D02*
X8468920Y-16672774D01*
X8468920Y-16672774D02*
X8478444Y-16691822D01*
X8478444Y-16691822D02*
X8478444Y-16710869D01*
X8478444Y-16710869D02*
X8383206Y-16729917D01*
X8554634Y-16787060D02*
X8573682Y-16796584D01*
X8573682Y-16796584D02*
X8611777Y-16796584D01*
X8611777Y-16796584D02*
X8630825Y-16787060D01*
X8630825Y-16787060D02*
X8640349Y-16768012D01*
X8640349Y-16768012D02*
X8640349Y-16758488D01*
X8640349Y-16758488D02*
X8630825Y-16739441D01*
X8630825Y-16739441D02*
X8611777Y-16729917D01*
X8611777Y-16729917D02*
X8583206Y-16729917D01*
X8583206Y-16729917D02*
X8564158Y-16720393D01*
X8564158Y-16720393D02*
X8554634Y-16701346D01*
X8554634Y-16701346D02*
X8554634Y-16691822D01*
X8554634Y-16691822D02*
X8564158Y-16672774D01*
X8564158Y-16672774D02*
X8583206Y-16663250D01*
X8583206Y-16663250D02*
X8611777Y-16663250D01*
X8611777Y-16663250D02*
X8630825Y-16672774D01*
X8707015Y-16872774D02*
X8716539Y-16863250D01*
X8716539Y-16863250D02*
X8735587Y-16834679D01*
X8735587Y-16834679D02*
X8745111Y-16815631D01*
X8745111Y-16815631D02*
X8754634Y-16787060D01*
X8754634Y-16787060D02*
X8764158Y-16739441D01*
X8764158Y-16739441D02*
X8764158Y-16701346D01*
X8764158Y-16701346D02*
X8754634Y-16653727D01*
X8754634Y-16653727D02*
X8745111Y-16625155D01*
X8745111Y-16625155D02*
X8735587Y-16606108D01*
X8735587Y-16606108D02*
X8716539Y-16577536D01*
X8716539Y-16577536D02*
X8707015Y-16568012D01*
M02*
