M48
; DRILL file {KiCad 7.0.7} date Mon Aug 17 21:23:32 2026
; FORMAT={-:-/ absolute / inch / decimal}
; #@! TF.CreationDate,2026-08-17T21:23:32-05:00
; #@! TF.GenerationSoftware,Kicad,Pcbnew,7.0.7
; #@! TF.FileFunction,Plated,1,2,PTH
FMAT,2
INCH
; #@! TA.AperFunction,Plated,PTH,ViaDrill
T1C0.0157
; #@! TA.AperFunction,Plated,PTH,ComponentDrill
T2C0.0315
; #@! TA.AperFunction,Plated,PTH,ComponentDrill
T3C0.0354
; #@! TA.AperFunction,Plated,PTH,ComponentDrill
T4C0.0394
; #@! TA.AperFunction,Plated,PTH,ComponentDrill
T5C0.0866
%
G90
G05
T1
X1.9392Y-4.0743
X2.8118Y-2.8032
X2.9401Y-2.7715
X2.9789Y-3.5121
X3.2237Y-3.1902
X3.6596Y-3.7462
X4.0975Y-5.6221
X4.1066Y-4.0624
X4.3044Y-3.3847
X5.0167Y-2.7349
X5.0796Y-3.078
X5.3804Y-3.0509
X5.4838Y-3.2297
X5.558Y-3.7187
X5.7008Y-4.0974
X5.7492Y-4.114
X5.9995Y-3.3685
X6.2776Y-4.7374
X6.3363Y-4.1397
X6.4089Y-3.4367
X6.4287Y-4.5118
X6.4324Y-3.3305
X6.8262Y-4.01
X6.9439Y-2.7897
X7.1336Y-2.5265
X7.2859Y-3.2631
T2
X1.725Y-5.475
X1.75Y-5.0516
X1.75Y-5.2484
X1.825Y-3.9516
X1.825Y-4.1484
X1.8754Y-4.9996
X1.8754Y-5.2996
X1.95Y-3.9
X1.95Y-4.2
X1.9754Y-4.9996
X1.9754Y-5.2996
X2.025Y-5.475
X2.05Y-3.9
X2.05Y-4.2
X2.075Y-2.45
X2.075Y-3.175
X2.0754Y-4.9996
X2.0754Y-5.2996
X2.15Y-3.9
X2.15Y-4.2
X2.175Y-2.45
X2.175Y-3.175
X2.1754Y-4.9996
X2.1754Y-5.2996
X2.25Y-3.9
X2.25Y-4.2
X2.275Y-2.45
X2.275Y-3.175
X2.3Y-5.0516
X2.3Y-5.2484
X2.35Y-3.9
X2.35Y-4.2
X2.375Y-2.45
X2.375Y-3.175
X2.425Y-2.725
X2.425Y-2.9219
X2.425Y-5.05
X2.425Y-5.2469
X2.45Y-3.9
X2.45Y-4.2
X2.45Y-5.475
X2.475Y-2.45
X2.475Y-3.175
X2.55Y-2.675
X2.55Y-2.975
X2.55Y-3.9
X2.55Y-4.2
X2.575Y-2.45
X2.575Y-3.175
X2.65Y-2.675
X2.65Y-2.975
X2.65Y-5.025
X2.65Y-5.15
X2.65Y-5.275
X2.7Y-4.425
X2.75Y-2.675
X2.75Y-2.975
X2.75Y-5.475
X2.775Y-3.95
X2.775Y-4.1469
X2.8Y-4.425
X2.85Y-2.675
X2.85Y-2.975
X2.9Y-3.9
X2.9Y-4.2
X2.9Y-4.425
X2.95Y-2.675
X2.95Y-2.975
X2.95Y-5.025
X2.95Y-5.15
X2.95Y-5.275
X3.0Y-3.9
X3.0Y-4.2
X3.0Y-4.425
X3.05Y-2.675
X3.05Y-2.975
X3.1Y-3.9
X3.1Y-4.2
X3.1Y-4.425
X3.15Y-2.675
X3.15Y-2.975
X3.175Y-5.475
X3.2Y-3.9
X3.2Y-4.2
X3.2Y-4.425
X3.25Y-2.675
X3.25Y-2.975
X3.3Y-3.9
X3.3Y-4.2
X3.35Y-2.675
X3.35Y-2.975
X3.4Y-3.9
X3.4Y-4.2
X3.4Y-5.05
X3.4Y-5.2469
X3.45Y-2.675
X3.45Y-2.975
X3.475Y-2.45
X3.475Y-5.475
X3.5Y-3.9
X3.5Y-4.2
X3.525Y-5.0
X3.525Y-5.3
X3.575Y-2.45
X3.6Y-3.9
X3.6Y-4.2
X3.625Y-5.0
X3.625Y-5.3
X3.675Y-2.45
X3.7Y-3.9
X3.7Y-4.2
X3.725Y-5.0
X3.725Y-5.3
X3.75Y-2.7266
X3.75Y-2.9234
X3.775Y-2.45
X3.8Y-3.9
X3.8Y-4.2
X3.825Y-5.0
X3.825Y-5.3
X3.875Y-2.45
X3.875Y-2.675
X3.875Y-2.975
X3.9Y-5.475
X3.925Y-5.0
X3.925Y-5.3
X3.975Y-2.45
X3.975Y-2.675
X3.975Y-2.975
X4.025Y-3.9516
X4.025Y-4.1484
X4.025Y-5.0
X4.025Y-5.3
X4.075Y-2.675
X4.075Y-2.975
X4.125Y-5.0
X4.125Y-5.3
X4.15Y-3.9
X4.15Y-4.2
X4.175Y-2.675
X4.175Y-2.975
X4.2Y-5.475
X4.25Y-3.9
X4.25Y-4.2
X4.275Y-2.675
X4.275Y-2.975
X4.325Y-5.025
X4.325Y-5.15
X4.325Y-5.275
X4.35Y-3.9
X4.35Y-4.2
X4.375Y-2.675
X4.375Y-2.975
X4.45Y-3.9
X4.45Y-4.2
X4.475Y-2.675
X4.475Y-2.975
X4.55Y-3.9
X4.55Y-4.2
X4.575Y-2.675
X4.575Y-2.975
X4.625Y-5.025
X4.625Y-5.15
X4.625Y-5.275
X4.625Y-5.475
X4.65Y-3.9
X4.65Y-4.2
X4.675Y-2.675
X4.675Y-2.975
X4.7Y-4.425
X4.75Y-3.9
X4.75Y-4.2
X4.775Y-2.675
X4.775Y-2.975
X4.8Y-4.425
X4.85Y-3.9
X4.85Y-4.2
X4.9Y-4.425
X4.925Y-3.175
X4.925Y-5.475
X4.95Y-3.9
X4.95Y-4.2
X5.0Y-4.425
X5.025Y-3.175
X5.025Y-5.0516
X5.025Y-5.2484
X5.05Y-3.9
X5.05Y-4.2
X5.075Y-2.7266
X5.075Y-2.9234
X5.1Y-4.425
X5.125Y-3.175
X5.15Y-5.0
X5.15Y-5.3
X5.2Y-2.675
X5.2Y-2.975
X5.2Y-4.425
X5.225Y-3.175
X5.25Y-5.0
X5.25Y-5.3
X5.3Y-2.675
X5.3Y-2.975
X5.325Y-3.175
X5.35Y-5.0
X5.35Y-5.3
X5.35Y-5.475
X5.4Y-2.675
X5.4Y-2.975
X5.425Y-3.175
X5.45Y-5.0
X5.45Y-5.3
X5.5Y-2.675
X5.5Y-2.975
X5.55Y-5.0
X5.55Y-5.3
X5.6Y-2.675
X5.6Y-2.975
X5.65Y-5.0
X5.65Y-5.3
X5.65Y-5.475
X5.7Y-2.675
X5.7Y-2.975
X5.75Y-5.0
X5.75Y-5.3
X5.8Y-2.675
X5.8Y-2.975
X5.85Y-5.0
X5.85Y-5.3
X5.9Y-2.675
X5.9Y-2.975
X5.95Y-5.0
X5.95Y-5.3
X6.0Y-2.675
X6.0Y-2.975
X6.05Y-5.0
X6.05Y-5.3
X6.075Y-5.475
X6.1Y-2.675
X6.1Y-2.975
X6.375Y-5.475
X6.4Y-2.7266
X6.4Y-2.9234
X6.525Y-2.675
X6.525Y-2.975
X6.575Y-4.325
X6.625Y-2.675
X6.625Y-2.975
X6.6734Y-4.325
X6.7Y-5.0516
X6.7Y-5.2484
X6.725Y-2.675
X6.725Y-2.975
X6.8Y-5.475
X6.825Y-2.675
X6.825Y-2.975
X6.825Y-4.9996
X6.825Y-5.2996
X6.925Y-2.675
X6.925Y-2.975
X6.925Y-4.9996
X6.925Y-5.2996
X7.025Y-2.675
X7.025Y-2.975
X7.025Y-4.9996
X7.025Y-5.2996
X7.1Y-5.475
X7.125Y-2.675
X7.125Y-2.975
X7.125Y-4.9996
X7.125Y-5.2996
X7.225Y-2.675
X7.225Y-2.975
X7.225Y-4.9996
X7.225Y-5.2996
X7.325Y-2.675
X7.325Y-2.975
X7.325Y-4.9996
X7.325Y-5.2996
X7.425Y-2.675
X7.425Y-2.975
X7.425Y-4.9996
X7.425Y-5.2996
X7.475Y-2.45
X7.475Y-3.175
X7.475Y-4.425
X7.525Y-4.9996
X7.525Y-5.2996
X7.525Y-5.475
X7.575Y-2.45
X7.575Y-3.175
X7.575Y-4.425
X7.675Y-2.45
X7.675Y-3.175
X7.675Y-4.425
X7.775Y-2.45
X7.775Y-3.175
X7.775Y-4.425
X7.825Y-5.475
X7.875Y-2.45
X7.875Y-3.175
X7.875Y-4.425
X7.975Y-2.45
X7.975Y-3.175
X7.975Y-4.425
T3
X1.5998Y-2.175
X1.5998Y-3.45
X1.5998Y-4.7244
X1.6998Y-2.175
X1.6998Y-3.45
X1.6998Y-4.7244
X2.0248Y-4.725
X2.025Y-2.175
X2.025Y-3.45
X2.1248Y-4.725
X2.125Y-2.175
X2.125Y-3.45
X2.4498Y-2.175
X2.4498Y-3.45
X2.4498Y-4.725
X2.5498Y-2.175
X2.5498Y-3.45
X2.5498Y-4.725
X2.8748Y-2.175
X2.9498Y-4.725
X2.95Y-3.45
X2.9748Y-2.175
X3.0498Y-4.725
X3.05Y-3.45
X3.3748Y-4.725
X3.375Y-3.45
X3.45Y-2.175
X3.4748Y-4.725
X3.475Y-3.45
X3.55Y-2.175
X3.7998Y-3.45
X3.8Y-4.725
X3.8752Y-2.175
X3.8998Y-3.45
X3.9Y-4.725
X3.9752Y-2.175
X4.3Y-2.175
X4.3Y-3.45
X4.3Y-4.725
X4.4Y-2.175
X4.4Y-3.45
X4.4Y-4.725
X4.725Y-3.45
X4.725Y-4.725
X4.7252Y-2.175
X4.825Y-3.45
X4.825Y-4.725
X4.8252Y-2.175
X5.1498Y-3.45
X5.15Y-2.175
X5.15Y-4.725
X5.2498Y-3.45
X5.25Y-2.175
X5.25Y-4.725
X5.575Y-2.175
X5.6498Y-3.45
X5.65Y-4.725
X5.675Y-2.175
X5.7498Y-3.45
X5.75Y-4.725
X6.0748Y-4.725
X6.075Y-3.45
X6.1498Y-2.175
X6.1748Y-4.725
X6.175Y-3.45
X6.2498Y-2.175
X6.5Y-3.45
X6.5Y-4.725
X6.575Y-2.175
X6.6Y-3.45
X6.6Y-4.725
X6.675Y-2.175
X6.9998Y-2.175
X7.0Y-3.45
X7.0Y-4.725
X7.0998Y-2.175
X7.1Y-3.45
X7.1Y-4.725
X7.4248Y-4.725
X7.425Y-2.175
X7.425Y-3.45
X7.5248Y-4.725
X7.525Y-2.175
X7.525Y-3.45
X7.8498Y-2.175
X7.85Y-3.45
X7.85Y-4.725
X7.9498Y-2.175
X7.95Y-3.45
X7.95Y-4.725
T4
X5.425Y-3.85
X5.425Y-3.95
X5.525Y-3.85
X5.525Y-3.95
X5.625Y-3.85
X5.625Y-3.95
X5.725Y-3.85
X5.725Y-3.95
X5.825Y-3.85
X5.825Y-3.95
X5.925Y-3.85
X5.925Y-3.95
X6.025Y-3.85
X6.025Y-3.95
X6.125Y-3.85
X6.125Y-3.95
X6.225Y-3.85
X6.225Y-3.95
X6.325Y-3.85
X6.325Y-3.95
X6.425Y-3.85
X6.425Y-3.95
X6.525Y-3.85
X6.525Y-3.95
X6.625Y-3.85
X6.625Y-3.95
X6.725Y-3.85
X6.725Y-3.95
X6.825Y-3.85
X6.825Y-3.95
X6.925Y-3.85
X6.925Y-3.95
X7.025Y-3.85
X7.025Y-3.95
X7.125Y-3.85
X7.125Y-3.95
X7.225Y-3.85
X7.225Y-3.95
X7.325Y-3.85
X7.325Y-3.95
X7.425Y-3.85
X7.425Y-3.95
X7.525Y-3.85
X7.525Y-3.95
X7.625Y-3.85
X7.625Y-3.95
X7.725Y-3.85
X7.725Y-3.95
X7.825Y-3.85
X7.825Y-3.95
T5
X1.575Y-2.8
X1.575Y-5.175
X7.975Y-2.8
X7.975Y-5.175
T4
G00X1.8494Y-5.7049
M15
G01X1.9006Y-5.7049
M16
G05
G00X1.8494Y-5.89
M15
G01X1.9006Y-5.89
M16
G05
G00X1.8494Y-6.075
M15
G01X1.9006Y-6.075
M16
G05
G00X2.5744Y-5.7049
M15
G01X2.6256Y-5.7049
M16
G05
G00X2.5744Y-5.89
M15
G01X2.6256Y-5.89
M16
G05
G00X2.5744Y-6.075
M15
G01X2.6256Y-6.075
M16
G05
G00X3.2994Y-5.7049
M15
G01X3.3506Y-5.7049
M16
G05
G00X3.2994Y-5.89
M15
G01X3.3506Y-5.89
M16
G05
G00X3.2994Y-6.075
M15
G01X3.3506Y-6.075
M16
G05
G00X4.0244Y-5.7049
M15
G01X4.0756Y-5.7049
M16
G05
G00X4.0244Y-5.89
M15
G01X4.0756Y-5.89
M16
G05
G00X4.0244Y-6.075
M15
G01X4.0756Y-6.075
M16
G05
G00X4.7494Y-5.7049
M15
G01X4.8006Y-5.7049
M16
G05
G00X4.7494Y-5.89
M15
G01X4.8006Y-5.89
M16
G05
G00X4.7494Y-6.075
M15
G01X4.8006Y-6.075
M16
G05
G00X5.4744Y-5.7049
M15
G01X5.5256Y-5.7049
M16
G05
G00X5.4744Y-5.89
M15
G01X5.5256Y-5.89
M16
G05
G00X5.4744Y-6.075
M15
G01X5.5256Y-6.075
M16
G05
G00X6.1994Y-5.7049
M15
G01X6.2506Y-5.7049
M16
G05
G00X6.1994Y-5.89
M15
G01X6.2506Y-5.89
M16
G05
G00X6.1994Y-6.075
M15
G01X6.2506Y-6.075
M16
G05
G00X6.9244Y-5.7049
M15
G01X6.9756Y-5.7049
M16
G05
G00X6.9244Y-5.89
M15
G01X6.9756Y-5.89
M16
G05
G00X6.9244Y-6.075
M15
G01X6.9756Y-6.075
M16
G05
G00X7.6494Y-5.7049
M15
G01X7.7006Y-5.7049
M16
G05
G00X7.6494Y-5.89
M15
G01X7.7006Y-5.89
M16
G05
G00X7.6494Y-6.075
M15
G01X7.7006Y-6.075
M16
G05
T0
M30
