%TF.GenerationSoftware,KiCad,Pcbnew,7.0.7*%
%TF.CreationDate,2026-08-17T21:23:32-05:00*%
%TF.ProjectId,Front Panel Address,46726f6e-7420-4506-916e-656c20416464,rev?*%
%TF.SameCoordinates,Original*%
%TF.FileFunction,Drillmap*%
%TF.FilePolarity,Positive*%
%FSLAX45Y45*%
G04 Gerber Fmt 4.5, Leading zero omitted, Abs format (unit mm)*
G04 Created by KiCad (PCBNEW 7.0.7) date 2026-08-17 21:23:32*
%MOMM*%
%LPD*%
G01*
G04 APERTURE LIST*
%ADD10C,0.100000*%
%ADD11C,0.200000*%
%ADD12C,0.040000*%
%ADD13C,0.080000*%
%ADD14C,0.090000*%
%ADD15C,0.220000*%
G04 APERTURE END LIST*
D10*
X3619500Y-5016500D02*
X20637500Y-5016500D01*
X20637500Y-15748000D01*
X3619500Y-15748000D01*
X3619500Y-5016500D01*
D11*
D12*
X4905610Y-10328700D02*
X4945610Y-10368700D01*
X4945610Y-10328700D02*
X4905610Y-10368700D01*
X7121870Y-7100130D02*
X7161870Y-7140130D01*
X7161870Y-7100130D02*
X7121870Y-7140130D01*
X7447970Y-7019540D02*
X7487970Y-7059540D01*
X7487970Y-7019540D02*
X7447970Y-7059540D01*
X7546320Y-8900710D02*
X7586320Y-8940710D01*
X7586320Y-8900710D02*
X7546320Y-8940710D01*
X8168320Y-8083090D02*
X8208320Y-8123090D01*
X8208320Y-8083090D02*
X8168320Y-8123090D01*
X9275290Y-9495440D02*
X9315290Y-9535440D01*
X9315290Y-9495440D02*
X9275290Y-9535440D01*
X10387750Y-14260240D02*
X10427750Y-14300240D01*
X10427750Y-14260240D02*
X10387750Y-14300240D01*
X10410790Y-10298380D02*
X10450790Y-10338380D01*
X10450790Y-10298380D02*
X10410790Y-10338380D01*
X10913260Y-8577120D02*
X10953260Y-8617120D01*
X10953260Y-8577120D02*
X10913260Y-8617120D01*
X12722300Y-6926690D02*
X12762300Y-6966690D01*
X12762300Y-6926690D02*
X12722300Y-6966690D01*
X12882230Y-7798030D02*
X12922230Y-7838030D01*
X12922230Y-7798030D02*
X12882230Y-7838030D01*
X13646250Y-7729210D02*
X13686250Y-7769210D01*
X13686250Y-7729210D02*
X13646250Y-7769210D01*
X13908900Y-8183410D02*
X13948900Y-8223410D01*
X13948900Y-8183410D02*
X13908900Y-8223410D01*
X14097320Y-9425490D02*
X14137320Y-9465490D01*
X14137320Y-9425490D02*
X14097320Y-9465490D01*
X14460080Y-10387400D02*
X14500080Y-10427400D01*
X14500080Y-10387400D02*
X14460080Y-10427400D01*
X14583060Y-10429640D02*
X14623060Y-10469640D01*
X14623060Y-10429640D02*
X14583060Y-10469640D01*
X15218840Y-8535890D02*
X15258840Y-8575890D01*
X15258840Y-8535890D02*
X15218840Y-8575890D01*
X15925040Y-12012900D02*
X15965040Y-12052900D01*
X15965040Y-12012900D02*
X15925040Y-12052900D01*
X16074240Y-10494870D02*
X16114240Y-10534870D01*
X16114240Y-10494870D02*
X16074240Y-10534870D01*
X16258600Y-8709110D02*
X16298600Y-8749110D01*
X16298600Y-8709110D02*
X16258600Y-8749110D01*
X16308930Y-11439900D02*
X16348930Y-11479900D01*
X16348930Y-11439900D02*
X16308930Y-11479900D01*
X16318250Y-8439410D02*
X16358250Y-8479410D01*
X16358250Y-8439410D02*
X16318250Y-8479410D01*
X17318540Y-10165350D02*
X17358540Y-10205350D01*
X17358540Y-10165350D02*
X17318540Y-10205350D01*
X17617410Y-7065820D02*
X17657410Y-7105820D01*
X17657410Y-7065820D02*
X17617410Y-7105820D01*
X18099460Y-6397330D02*
X18139460Y-6437330D01*
X18139460Y-6397330D02*
X18099460Y-6437330D01*
X18486310Y-8268360D02*
X18526310Y-8308360D01*
X18526310Y-8268360D02*
X18486310Y-8308360D01*
D13*
X4421500Y-13906500D02*
G75*
G03*
X4421500Y-13906500I-40000J0D01*
G01*
X4485000Y-12831000D02*
G75*
G03*
X4485000Y-12831000I-40000J0D01*
G01*
X4485000Y-13331000D02*
G75*
G03*
X4485000Y-13331000I-40000J0D01*
G01*
X4675500Y-10037000D02*
G75*
G03*
X4675500Y-10037000I-40000J0D01*
G01*
X4675500Y-10537000D02*
G75*
G03*
X4675500Y-10537000I-40000J0D01*
G01*
X4803500Y-12699000D02*
G75*
G03*
X4803500Y-12699000I-40000J0D01*
G01*
X4803500Y-13461000D02*
G75*
G03*
X4803500Y-13461000I-40000J0D01*
G01*
X4993000Y-9906000D02*
G75*
G03*
X4993000Y-9906000I-40000J0D01*
G01*
X4993000Y-10668000D02*
G75*
G03*
X4993000Y-10668000I-40000J0D01*
G01*
X5057500Y-12699000D02*
G75*
G03*
X5057500Y-12699000I-40000J0D01*
G01*
X5057500Y-13461000D02*
G75*
G03*
X5057500Y-13461000I-40000J0D01*
G01*
X5183500Y-13906500D02*
G75*
G03*
X5183500Y-13906500I-40000J0D01*
G01*
X5247000Y-9906000D02*
G75*
G03*
X5247000Y-9906000I-40000J0D01*
G01*
X5247000Y-10668000D02*
G75*
G03*
X5247000Y-10668000I-40000J0D01*
G01*
X5310500Y-6223000D02*
G75*
G03*
X5310500Y-6223000I-40000J0D01*
G01*
X5310500Y-8064500D02*
G75*
G03*
X5310500Y-8064500I-40000J0D01*
G01*
X5311500Y-12699000D02*
G75*
G03*
X5311500Y-12699000I-40000J0D01*
G01*
X5311500Y-13461000D02*
G75*
G03*
X5311500Y-13461000I-40000J0D01*
G01*
X5501000Y-9906000D02*
G75*
G03*
X5501000Y-9906000I-40000J0D01*
G01*
X5501000Y-10668000D02*
G75*
G03*
X5501000Y-10668000I-40000J0D01*
G01*
X5564500Y-6223000D02*
G75*
G03*
X5564500Y-6223000I-40000J0D01*
G01*
X5564500Y-8064500D02*
G75*
G03*
X5564500Y-8064500I-40000J0D01*
G01*
X5565500Y-12699000D02*
G75*
G03*
X5565500Y-12699000I-40000J0D01*
G01*
X5565500Y-13461000D02*
G75*
G03*
X5565500Y-13461000I-40000J0D01*
G01*
X5755000Y-9906000D02*
G75*
G03*
X5755000Y-9906000I-40000J0D01*
G01*
X5755000Y-10668000D02*
G75*
G03*
X5755000Y-10668000I-40000J0D01*
G01*
X5818500Y-6223000D02*
G75*
G03*
X5818500Y-6223000I-40000J0D01*
G01*
X5818500Y-8064500D02*
G75*
G03*
X5818500Y-8064500I-40000J0D01*
G01*
X5882000Y-12831000D02*
G75*
G03*
X5882000Y-12831000I-40000J0D01*
G01*
X5882000Y-13331000D02*
G75*
G03*
X5882000Y-13331000I-40000J0D01*
G01*
X6009000Y-9906000D02*
G75*
G03*
X6009000Y-9906000I-40000J0D01*
G01*
X6009000Y-10668000D02*
G75*
G03*
X6009000Y-10668000I-40000J0D01*
G01*
X6072500Y-6223000D02*
G75*
G03*
X6072500Y-6223000I-40000J0D01*
G01*
X6072500Y-8064500D02*
G75*
G03*
X6072500Y-8064500I-40000J0D01*
G01*
X6199500Y-6921500D02*
G75*
G03*
X6199500Y-6921500I-40000J0D01*
G01*
X6199500Y-7421500D02*
G75*
G03*
X6199500Y-7421500I-40000J0D01*
G01*
X6199500Y-12827000D02*
G75*
G03*
X6199500Y-12827000I-40000J0D01*
G01*
X6199500Y-13327000D02*
G75*
G03*
X6199500Y-13327000I-40000J0D01*
G01*
X6263000Y-9906000D02*
G75*
G03*
X6263000Y-9906000I-40000J0D01*
G01*
X6263000Y-10668000D02*
G75*
G03*
X6263000Y-10668000I-40000J0D01*
G01*
X6263000Y-13906500D02*
G75*
G03*
X6263000Y-13906500I-40000J0D01*
G01*
X6326500Y-6223000D02*
G75*
G03*
X6326500Y-6223000I-40000J0D01*
G01*
X6326500Y-8064500D02*
G75*
G03*
X6326500Y-8064500I-40000J0D01*
G01*
X6517000Y-6794500D02*
G75*
G03*
X6517000Y-6794500I-40000J0D01*
G01*
X6517000Y-7556500D02*
G75*
G03*
X6517000Y-7556500I-40000J0D01*
G01*
X6517000Y-9906000D02*
G75*
G03*
X6517000Y-9906000I-40000J0D01*
G01*
X6517000Y-10668000D02*
G75*
G03*
X6517000Y-10668000I-40000J0D01*
G01*
X6580500Y-6223000D02*
G75*
G03*
X6580500Y-6223000I-40000J0D01*
G01*
X6580500Y-8064500D02*
G75*
G03*
X6580500Y-8064500I-40000J0D01*
G01*
X6771000Y-6794500D02*
G75*
G03*
X6771000Y-6794500I-40000J0D01*
G01*
X6771000Y-7556500D02*
G75*
G03*
X6771000Y-7556500I-40000J0D01*
G01*
X6771000Y-12763500D02*
G75*
G03*
X6771000Y-12763500I-40000J0D01*
G01*
X6771000Y-13081000D02*
G75*
G03*
X6771000Y-13081000I-40000J0D01*
G01*
X6771000Y-13398500D02*
G75*
G03*
X6771000Y-13398500I-40000J0D01*
G01*
X6898000Y-11239500D02*
G75*
G03*
X6898000Y-11239500I-40000J0D01*
G01*
X7025000Y-6794500D02*
G75*
G03*
X7025000Y-6794500I-40000J0D01*
G01*
X7025000Y-7556500D02*
G75*
G03*
X7025000Y-7556500I-40000J0D01*
G01*
X7025000Y-13906500D02*
G75*
G03*
X7025000Y-13906500I-40000J0D01*
G01*
X7088500Y-10033000D02*
G75*
G03*
X7088500Y-10033000I-40000J0D01*
G01*
X7088500Y-10533000D02*
G75*
G03*
X7088500Y-10533000I-40000J0D01*
G01*
X7152000Y-11239500D02*
G75*
G03*
X7152000Y-11239500I-40000J0D01*
G01*
X7279000Y-6794500D02*
G75*
G03*
X7279000Y-6794500I-40000J0D01*
G01*
X7279000Y-7556500D02*
G75*
G03*
X7279000Y-7556500I-40000J0D01*
G01*
X7406000Y-9906000D02*
G75*
G03*
X7406000Y-9906000I-40000J0D01*
G01*
X7406000Y-10668000D02*
G75*
G03*
X7406000Y-10668000I-40000J0D01*
G01*
X7406000Y-11239500D02*
G75*
G03*
X7406000Y-11239500I-40000J0D01*
G01*
X7533000Y-6794500D02*
G75*
G03*
X7533000Y-6794500I-40000J0D01*
G01*
X7533000Y-7556500D02*
G75*
G03*
X7533000Y-7556500I-40000J0D01*
G01*
X7533000Y-12763500D02*
G75*
G03*
X7533000Y-12763500I-40000J0D01*
G01*
X7533000Y-13081000D02*
G75*
G03*
X7533000Y-13081000I-40000J0D01*
G01*
X7533000Y-13398500D02*
G75*
G03*
X7533000Y-13398500I-40000J0D01*
G01*
X7660000Y-9906000D02*
G75*
G03*
X7660000Y-9906000I-40000J0D01*
G01*
X7660000Y-10668000D02*
G75*
G03*
X7660000Y-10668000I-40000J0D01*
G01*
X7660000Y-11239500D02*
G75*
G03*
X7660000Y-11239500I-40000J0D01*
G01*
X7787000Y-6794500D02*
G75*
G03*
X7787000Y-6794500I-40000J0D01*
G01*
X7787000Y-7556500D02*
G75*
G03*
X7787000Y-7556500I-40000J0D01*
G01*
X7914000Y-9906000D02*
G75*
G03*
X7914000Y-9906000I-40000J0D01*
G01*
X7914000Y-10668000D02*
G75*
G03*
X7914000Y-10668000I-40000J0D01*
G01*
X7914000Y-11239500D02*
G75*
G03*
X7914000Y-11239500I-40000J0D01*
G01*
X8041000Y-6794500D02*
G75*
G03*
X8041000Y-6794500I-40000J0D01*
G01*
X8041000Y-7556500D02*
G75*
G03*
X8041000Y-7556500I-40000J0D01*
G01*
X8104500Y-13906500D02*
G75*
G03*
X8104500Y-13906500I-40000J0D01*
G01*
X8168000Y-9906000D02*
G75*
G03*
X8168000Y-9906000I-40000J0D01*
G01*
X8168000Y-10668000D02*
G75*
G03*
X8168000Y-10668000I-40000J0D01*
G01*
X8168000Y-11239500D02*
G75*
G03*
X8168000Y-11239500I-40000J0D01*
G01*
X8295000Y-6794500D02*
G75*
G03*
X8295000Y-6794500I-40000J0D01*
G01*
X8295000Y-7556500D02*
G75*
G03*
X8295000Y-7556500I-40000J0D01*
G01*
X8422000Y-9906000D02*
G75*
G03*
X8422000Y-9906000I-40000J0D01*
G01*
X8422000Y-10668000D02*
G75*
G03*
X8422000Y-10668000I-40000J0D01*
G01*
X8549000Y-6794500D02*
G75*
G03*
X8549000Y-6794500I-40000J0D01*
G01*
X8549000Y-7556500D02*
G75*
G03*
X8549000Y-7556500I-40000J0D01*
G01*
X8676000Y-9906000D02*
G75*
G03*
X8676000Y-9906000I-40000J0D01*
G01*
X8676000Y-10668000D02*
G75*
G03*
X8676000Y-10668000I-40000J0D01*
G01*
X8676000Y-12827000D02*
G75*
G03*
X8676000Y-12827000I-40000J0D01*
G01*
X8676000Y-13327000D02*
G75*
G03*
X8676000Y-13327000I-40000J0D01*
G01*
X8803000Y-6794500D02*
G75*
G03*
X8803000Y-6794500I-40000J0D01*
G01*
X8803000Y-7556500D02*
G75*
G03*
X8803000Y-7556500I-40000J0D01*
G01*
X8866500Y-6223000D02*
G75*
G03*
X8866500Y-6223000I-40000J0D01*
G01*
X8866500Y-13906500D02*
G75*
G03*
X8866500Y-13906500I-40000J0D01*
G01*
X8930000Y-9906000D02*
G75*
G03*
X8930000Y-9906000I-40000J0D01*
G01*
X8930000Y-10668000D02*
G75*
G03*
X8930000Y-10668000I-40000J0D01*
G01*
X8993500Y-12700000D02*
G75*
G03*
X8993500Y-12700000I-40000J0D01*
G01*
X8993500Y-13462000D02*
G75*
G03*
X8993500Y-13462000I-40000J0D01*
G01*
X9120500Y-6223000D02*
G75*
G03*
X9120500Y-6223000I-40000J0D01*
G01*
X9184000Y-9906000D02*
G75*
G03*
X9184000Y-9906000I-40000J0D01*
G01*
X9184000Y-10668000D02*
G75*
G03*
X9184000Y-10668000I-40000J0D01*
G01*
X9247500Y-12700000D02*
G75*
G03*
X9247500Y-12700000I-40000J0D01*
G01*
X9247500Y-13462000D02*
G75*
G03*
X9247500Y-13462000I-40000J0D01*
G01*
X9374500Y-6223000D02*
G75*
G03*
X9374500Y-6223000I-40000J0D01*
G01*
X9438000Y-9906000D02*
G75*
G03*
X9438000Y-9906000I-40000J0D01*
G01*
X9438000Y-10668000D02*
G75*
G03*
X9438000Y-10668000I-40000J0D01*
G01*
X9501500Y-12700000D02*
G75*
G03*
X9501500Y-12700000I-40000J0D01*
G01*
X9501500Y-13462000D02*
G75*
G03*
X9501500Y-13462000I-40000J0D01*
G01*
X9565000Y-6925500D02*
G75*
G03*
X9565000Y-6925500I-40000J0D01*
G01*
X9565000Y-7425500D02*
G75*
G03*
X9565000Y-7425500I-40000J0D01*
G01*
X9628500Y-6223000D02*
G75*
G03*
X9628500Y-6223000I-40000J0D01*
G01*
X9692000Y-9906000D02*
G75*
G03*
X9692000Y-9906000I-40000J0D01*
G01*
X9692000Y-10668000D02*
G75*
G03*
X9692000Y-10668000I-40000J0D01*
G01*
X9755500Y-12700000D02*
G75*
G03*
X9755500Y-12700000I-40000J0D01*
G01*
X9755500Y-13462000D02*
G75*
G03*
X9755500Y-13462000I-40000J0D01*
G01*
X9882500Y-6223000D02*
G75*
G03*
X9882500Y-6223000I-40000J0D01*
G01*
X9882500Y-6794500D02*
G75*
G03*
X9882500Y-6794500I-40000J0D01*
G01*
X9882500Y-7556500D02*
G75*
G03*
X9882500Y-7556500I-40000J0D01*
G01*
X9946000Y-13906500D02*
G75*
G03*
X9946000Y-13906500I-40000J0D01*
G01*
X10009500Y-12700000D02*
G75*
G03*
X10009500Y-12700000I-40000J0D01*
G01*
X10009500Y-13462000D02*
G75*
G03*
X10009500Y-13462000I-40000J0D01*
G01*
X10136500Y-6223000D02*
G75*
G03*
X10136500Y-6223000I-40000J0D01*
G01*
X10136500Y-6794500D02*
G75*
G03*
X10136500Y-6794500I-40000J0D01*
G01*
X10136500Y-7556500D02*
G75*
G03*
X10136500Y-7556500I-40000J0D01*
G01*
X10263500Y-10037000D02*
G75*
G03*
X10263500Y-10037000I-40000J0D01*
G01*
X10263500Y-10537000D02*
G75*
G03*
X10263500Y-10537000I-40000J0D01*
G01*
X10263500Y-12700000D02*
G75*
G03*
X10263500Y-12700000I-40000J0D01*
G01*
X10263500Y-13462000D02*
G75*
G03*
X10263500Y-13462000I-40000J0D01*
G01*
X10390500Y-6794500D02*
G75*
G03*
X10390500Y-6794500I-40000J0D01*
G01*
X10390500Y-7556500D02*
G75*
G03*
X10390500Y-7556500I-40000J0D01*
G01*
X10517500Y-12700000D02*
G75*
G03*
X10517500Y-12700000I-40000J0D01*
G01*
X10517500Y-13462000D02*
G75*
G03*
X10517500Y-13462000I-40000J0D01*
G01*
X10581000Y-9906000D02*
G75*
G03*
X10581000Y-9906000I-40000J0D01*
G01*
X10581000Y-10668000D02*
G75*
G03*
X10581000Y-10668000I-40000J0D01*
G01*
X10644500Y-6794500D02*
G75*
G03*
X10644500Y-6794500I-40000J0D01*
G01*
X10644500Y-7556500D02*
G75*
G03*
X10644500Y-7556500I-40000J0D01*
G01*
X10708000Y-13906500D02*
G75*
G03*
X10708000Y-13906500I-40000J0D01*
G01*
X10835000Y-9906000D02*
G75*
G03*
X10835000Y-9906000I-40000J0D01*
G01*
X10835000Y-10668000D02*
G75*
G03*
X10835000Y-10668000I-40000J0D01*
G01*
X10898500Y-6794500D02*
G75*
G03*
X10898500Y-6794500I-40000J0D01*
G01*
X10898500Y-7556500D02*
G75*
G03*
X10898500Y-7556500I-40000J0D01*
G01*
X11025500Y-12763500D02*
G75*
G03*
X11025500Y-12763500I-40000J0D01*
G01*
X11025500Y-13081000D02*
G75*
G03*
X11025500Y-13081000I-40000J0D01*
G01*
X11025500Y-13398500D02*
G75*
G03*
X11025500Y-13398500I-40000J0D01*
G01*
X11089000Y-9906000D02*
G75*
G03*
X11089000Y-9906000I-40000J0D01*
G01*
X11089000Y-10668000D02*
G75*
G03*
X11089000Y-10668000I-40000J0D01*
G01*
X11152500Y-6794500D02*
G75*
G03*
X11152500Y-6794500I-40000J0D01*
G01*
X11152500Y-7556500D02*
G75*
G03*
X11152500Y-7556500I-40000J0D01*
G01*
X11343000Y-9906000D02*
G75*
G03*
X11343000Y-9906000I-40000J0D01*
G01*
X11343000Y-10668000D02*
G75*
G03*
X11343000Y-10668000I-40000J0D01*
G01*
X11406500Y-6794500D02*
G75*
G03*
X11406500Y-6794500I-40000J0D01*
G01*
X11406500Y-7556500D02*
G75*
G03*
X11406500Y-7556500I-40000J0D01*
G01*
X11597000Y-9906000D02*
G75*
G03*
X11597000Y-9906000I-40000J0D01*
G01*
X11597000Y-10668000D02*
G75*
G03*
X11597000Y-10668000I-40000J0D01*
G01*
X11660500Y-6794500D02*
G75*
G03*
X11660500Y-6794500I-40000J0D01*
G01*
X11660500Y-7556500D02*
G75*
G03*
X11660500Y-7556500I-40000J0D01*
G01*
X11787500Y-12763500D02*
G75*
G03*
X11787500Y-12763500I-40000J0D01*
G01*
X11787500Y-13081000D02*
G75*
G03*
X11787500Y-13081000I-40000J0D01*
G01*
X11787500Y-13398500D02*
G75*
G03*
X11787500Y-13398500I-40000J0D01*
G01*
X11787500Y-13906500D02*
G75*
G03*
X11787500Y-13906500I-40000J0D01*
G01*
X11851000Y-9906000D02*
G75*
G03*
X11851000Y-9906000I-40000J0D01*
G01*
X11851000Y-10668000D02*
G75*
G03*
X11851000Y-10668000I-40000J0D01*
G01*
X11914500Y-6794500D02*
G75*
G03*
X11914500Y-6794500I-40000J0D01*
G01*
X11914500Y-7556500D02*
G75*
G03*
X11914500Y-7556500I-40000J0D01*
G01*
X11978000Y-11239500D02*
G75*
G03*
X11978000Y-11239500I-40000J0D01*
G01*
X12105000Y-9906000D02*
G75*
G03*
X12105000Y-9906000I-40000J0D01*
G01*
X12105000Y-10668000D02*
G75*
G03*
X12105000Y-10668000I-40000J0D01*
G01*
X12168500Y-6794500D02*
G75*
G03*
X12168500Y-6794500I-40000J0D01*
G01*
X12168500Y-7556500D02*
G75*
G03*
X12168500Y-7556500I-40000J0D01*
G01*
X12232000Y-11239500D02*
G75*
G03*
X12232000Y-11239500I-40000J0D01*
G01*
X12359000Y-9906000D02*
G75*
G03*
X12359000Y-9906000I-40000J0D01*
G01*
X12359000Y-10668000D02*
G75*
G03*
X12359000Y-10668000I-40000J0D01*
G01*
X12486000Y-11239500D02*
G75*
G03*
X12486000Y-11239500I-40000J0D01*
G01*
X12549500Y-8064500D02*
G75*
G03*
X12549500Y-8064500I-40000J0D01*
G01*
X12549500Y-13906500D02*
G75*
G03*
X12549500Y-13906500I-40000J0D01*
G01*
X12613000Y-9906000D02*
G75*
G03*
X12613000Y-9906000I-40000J0D01*
G01*
X12613000Y-10668000D02*
G75*
G03*
X12613000Y-10668000I-40000J0D01*
G01*
X12740000Y-11239500D02*
G75*
G03*
X12740000Y-11239500I-40000J0D01*
G01*
X12803500Y-8064500D02*
G75*
G03*
X12803500Y-8064500I-40000J0D01*
G01*
X12803500Y-12831000D02*
G75*
G03*
X12803500Y-12831000I-40000J0D01*
G01*
X12803500Y-13331000D02*
G75*
G03*
X12803500Y-13331000I-40000J0D01*
G01*
X12867000Y-9906000D02*
G75*
G03*
X12867000Y-9906000I-40000J0D01*
G01*
X12867000Y-10668000D02*
G75*
G03*
X12867000Y-10668000I-40000J0D01*
G01*
X12930500Y-6925500D02*
G75*
G03*
X12930500Y-6925500I-40000J0D01*
G01*
X12930500Y-7425500D02*
G75*
G03*
X12930500Y-7425500I-40000J0D01*
G01*
X12994000Y-11239500D02*
G75*
G03*
X12994000Y-11239500I-40000J0D01*
G01*
X13057500Y-8064500D02*
G75*
G03*
X13057500Y-8064500I-40000J0D01*
G01*
X13121000Y-12700000D02*
G75*
G03*
X13121000Y-12700000I-40000J0D01*
G01*
X13121000Y-13462000D02*
G75*
G03*
X13121000Y-13462000I-40000J0D01*
G01*
X13248000Y-6794500D02*
G75*
G03*
X13248000Y-6794500I-40000J0D01*
G01*
X13248000Y-7556500D02*
G75*
G03*
X13248000Y-7556500I-40000J0D01*
G01*
X13248000Y-11239500D02*
G75*
G03*
X13248000Y-11239500I-40000J0D01*
G01*
X13311500Y-8064500D02*
G75*
G03*
X13311500Y-8064500I-40000J0D01*
G01*
X13375000Y-12700000D02*
G75*
G03*
X13375000Y-12700000I-40000J0D01*
G01*
X13375000Y-13462000D02*
G75*
G03*
X13375000Y-13462000I-40000J0D01*
G01*
X13502000Y-6794500D02*
G75*
G03*
X13502000Y-6794500I-40000J0D01*
G01*
X13502000Y-7556500D02*
G75*
G03*
X13502000Y-7556500I-40000J0D01*
G01*
X13565500Y-8064500D02*
G75*
G03*
X13565500Y-8064500I-40000J0D01*
G01*
X13629000Y-12700000D02*
G75*
G03*
X13629000Y-12700000I-40000J0D01*
G01*
X13629000Y-13462000D02*
G75*
G03*
X13629000Y-13462000I-40000J0D01*
G01*
X13629000Y-13906500D02*
G75*
G03*
X13629000Y-13906500I-40000J0D01*
G01*
X13756000Y-6794500D02*
G75*
G03*
X13756000Y-6794500I-40000J0D01*
G01*
X13756000Y-7556500D02*
G75*
G03*
X13756000Y-7556500I-40000J0D01*
G01*
X13819500Y-8064500D02*
G75*
G03*
X13819500Y-8064500I-40000J0D01*
G01*
X13883000Y-12700000D02*
G75*
G03*
X13883000Y-12700000I-40000J0D01*
G01*
X13883000Y-13462000D02*
G75*
G03*
X13883000Y-13462000I-40000J0D01*
G01*
X14010000Y-6794500D02*
G75*
G03*
X14010000Y-6794500I-40000J0D01*
G01*
X14010000Y-7556500D02*
G75*
G03*
X14010000Y-7556500I-40000J0D01*
G01*
X14137000Y-12700000D02*
G75*
G03*
X14137000Y-12700000I-40000J0D01*
G01*
X14137000Y-13462000D02*
G75*
G03*
X14137000Y-13462000I-40000J0D01*
G01*
X14264000Y-6794500D02*
G75*
G03*
X14264000Y-6794500I-40000J0D01*
G01*
X14264000Y-7556500D02*
G75*
G03*
X14264000Y-7556500I-40000J0D01*
G01*
X14391000Y-12700000D02*
G75*
G03*
X14391000Y-12700000I-40000J0D01*
G01*
X14391000Y-13462000D02*
G75*
G03*
X14391000Y-13462000I-40000J0D01*
G01*
X14391000Y-13906500D02*
G75*
G03*
X14391000Y-13906500I-40000J0D01*
G01*
X14518000Y-6794500D02*
G75*
G03*
X14518000Y-6794500I-40000J0D01*
G01*
X14518000Y-7556500D02*
G75*
G03*
X14518000Y-7556500I-40000J0D01*
G01*
X14645000Y-12700000D02*
G75*
G03*
X14645000Y-12700000I-40000J0D01*
G01*
X14645000Y-13462000D02*
G75*
G03*
X14645000Y-13462000I-40000J0D01*
G01*
X14772000Y-6794500D02*
G75*
G03*
X14772000Y-6794500I-40000J0D01*
G01*
X14772000Y-7556500D02*
G75*
G03*
X14772000Y-7556500I-40000J0D01*
G01*
X14899000Y-12700000D02*
G75*
G03*
X14899000Y-12700000I-40000J0D01*
G01*
X14899000Y-13462000D02*
G75*
G03*
X14899000Y-13462000I-40000J0D01*
G01*
X15026000Y-6794500D02*
G75*
G03*
X15026000Y-6794500I-40000J0D01*
G01*
X15026000Y-7556500D02*
G75*
G03*
X15026000Y-7556500I-40000J0D01*
G01*
X15153000Y-12700000D02*
G75*
G03*
X15153000Y-12700000I-40000J0D01*
G01*
X15153000Y-13462000D02*
G75*
G03*
X15153000Y-13462000I-40000J0D01*
G01*
X15280000Y-6794500D02*
G75*
G03*
X15280000Y-6794500I-40000J0D01*
G01*
X15280000Y-7556500D02*
G75*
G03*
X15280000Y-7556500I-40000J0D01*
G01*
X15407000Y-12700000D02*
G75*
G03*
X15407000Y-12700000I-40000J0D01*
G01*
X15407000Y-13462000D02*
G75*
G03*
X15407000Y-13462000I-40000J0D01*
G01*
X15470500Y-13906500D02*
G75*
G03*
X15470500Y-13906500I-40000J0D01*
G01*
X15534000Y-6794500D02*
G75*
G03*
X15534000Y-6794500I-40000J0D01*
G01*
X15534000Y-7556500D02*
G75*
G03*
X15534000Y-7556500I-40000J0D01*
G01*
X16232500Y-13906500D02*
G75*
G03*
X16232500Y-13906500I-40000J0D01*
G01*
X16296000Y-6925500D02*
G75*
G03*
X16296000Y-6925500I-40000J0D01*
G01*
X16296000Y-7425500D02*
G75*
G03*
X16296000Y-7425500I-40000J0D01*
G01*
X16613500Y-6794500D02*
G75*
G03*
X16613500Y-6794500I-40000J0D01*
G01*
X16613500Y-7556500D02*
G75*
G03*
X16613500Y-7556500I-40000J0D01*
G01*
X16740500Y-10985500D02*
G75*
G03*
X16740500Y-10985500I-40000J0D01*
G01*
X16867500Y-6794500D02*
G75*
G03*
X16867500Y-6794500I-40000J0D01*
G01*
X16867500Y-7556500D02*
G75*
G03*
X16867500Y-7556500I-40000J0D01*
G01*
X16990500Y-10985500D02*
G75*
G03*
X16990500Y-10985500I-40000J0D01*
G01*
X17058000Y-12831000D02*
G75*
G03*
X17058000Y-12831000I-40000J0D01*
G01*
X17058000Y-13331000D02*
G75*
G03*
X17058000Y-13331000I-40000J0D01*
G01*
X17121500Y-6794500D02*
G75*
G03*
X17121500Y-6794500I-40000J0D01*
G01*
X17121500Y-7556500D02*
G75*
G03*
X17121500Y-7556500I-40000J0D01*
G01*
X17312000Y-13906500D02*
G75*
G03*
X17312000Y-13906500I-40000J0D01*
G01*
X17375500Y-6794500D02*
G75*
G03*
X17375500Y-6794500I-40000J0D01*
G01*
X17375500Y-7556500D02*
G75*
G03*
X17375500Y-7556500I-40000J0D01*
G01*
X17375500Y-12699000D02*
G75*
G03*
X17375500Y-12699000I-40000J0D01*
G01*
X17375500Y-13461000D02*
G75*
G03*
X17375500Y-13461000I-40000J0D01*
G01*
X17629500Y-6794500D02*
G75*
G03*
X17629500Y-6794500I-40000J0D01*
G01*
X17629500Y-7556500D02*
G75*
G03*
X17629500Y-7556500I-40000J0D01*
G01*
X17629500Y-12699000D02*
G75*
G03*
X17629500Y-12699000I-40000J0D01*
G01*
X17629500Y-13461000D02*
G75*
G03*
X17629500Y-13461000I-40000J0D01*
G01*
X17883500Y-6794500D02*
G75*
G03*
X17883500Y-6794500I-40000J0D01*
G01*
X17883500Y-7556500D02*
G75*
G03*
X17883500Y-7556500I-40000J0D01*
G01*
X17883500Y-12699000D02*
G75*
G03*
X17883500Y-12699000I-40000J0D01*
G01*
X17883500Y-13461000D02*
G75*
G03*
X17883500Y-13461000I-40000J0D01*
G01*
X18074000Y-13906500D02*
G75*
G03*
X18074000Y-13906500I-40000J0D01*
G01*
X18137500Y-6794500D02*
G75*
G03*
X18137500Y-6794500I-40000J0D01*
G01*
X18137500Y-7556500D02*
G75*
G03*
X18137500Y-7556500I-40000J0D01*
G01*
X18137500Y-12699000D02*
G75*
G03*
X18137500Y-12699000I-40000J0D01*
G01*
X18137500Y-13461000D02*
G75*
G03*
X18137500Y-13461000I-40000J0D01*
G01*
X18391500Y-6794500D02*
G75*
G03*
X18391500Y-6794500I-40000J0D01*
G01*
X18391500Y-7556500D02*
G75*
G03*
X18391500Y-7556500I-40000J0D01*
G01*
X18391500Y-12699000D02*
G75*
G03*
X18391500Y-12699000I-40000J0D01*
G01*
X18391500Y-13461000D02*
G75*
G03*
X18391500Y-13461000I-40000J0D01*
G01*
X18645500Y-6794500D02*
G75*
G03*
X18645500Y-6794500I-40000J0D01*
G01*
X18645500Y-7556500D02*
G75*
G03*
X18645500Y-7556500I-40000J0D01*
G01*
X18645500Y-12699000D02*
G75*
G03*
X18645500Y-12699000I-40000J0D01*
G01*
X18645500Y-13461000D02*
G75*
G03*
X18645500Y-13461000I-40000J0D01*
G01*
X18899500Y-6794500D02*
G75*
G03*
X18899500Y-6794500I-40000J0D01*
G01*
X18899500Y-7556500D02*
G75*
G03*
X18899500Y-7556500I-40000J0D01*
G01*
X18899500Y-12699000D02*
G75*
G03*
X18899500Y-12699000I-40000J0D01*
G01*
X18899500Y-13461000D02*
G75*
G03*
X18899500Y-13461000I-40000J0D01*
G01*
X19026500Y-6223000D02*
G75*
G03*
X19026500Y-6223000I-40000J0D01*
G01*
X19026500Y-8064500D02*
G75*
G03*
X19026500Y-8064500I-40000J0D01*
G01*
X19026500Y-11239500D02*
G75*
G03*
X19026500Y-11239500I-40000J0D01*
G01*
X19153500Y-12699000D02*
G75*
G03*
X19153500Y-12699000I-40000J0D01*
G01*
X19153500Y-13461000D02*
G75*
G03*
X19153500Y-13461000I-40000J0D01*
G01*
X19153500Y-13906500D02*
G75*
G03*
X19153500Y-13906500I-40000J0D01*
G01*
X19280500Y-6223000D02*
G75*
G03*
X19280500Y-6223000I-40000J0D01*
G01*
X19280500Y-8064500D02*
G75*
G03*
X19280500Y-8064500I-40000J0D01*
G01*
X19280500Y-11239500D02*
G75*
G03*
X19280500Y-11239500I-40000J0D01*
G01*
X19534500Y-6223000D02*
G75*
G03*
X19534500Y-6223000I-40000J0D01*
G01*
X19534500Y-8064500D02*
G75*
G03*
X19534500Y-8064500I-40000J0D01*
G01*
X19534500Y-11239500D02*
G75*
G03*
X19534500Y-11239500I-40000J0D01*
G01*
X19788500Y-6223000D02*
G75*
G03*
X19788500Y-6223000I-40000J0D01*
G01*
X19788500Y-8064500D02*
G75*
G03*
X19788500Y-8064500I-40000J0D01*
G01*
X19788500Y-11239500D02*
G75*
G03*
X19788500Y-11239500I-40000J0D01*
G01*
X19915500Y-13906500D02*
G75*
G03*
X19915500Y-13906500I-40000J0D01*
G01*
X20042500Y-6223000D02*
G75*
G03*
X20042500Y-6223000I-40000J0D01*
G01*
X20042500Y-8064500D02*
G75*
G03*
X20042500Y-8064500I-40000J0D01*
G01*
X20042500Y-11239500D02*
G75*
G03*
X20042500Y-11239500I-40000J0D01*
G01*
X20296500Y-6223000D02*
G75*
G03*
X20296500Y-6223000I-40000J0D01*
G01*
X20296500Y-8064500D02*
G75*
G03*
X20296500Y-8064500I-40000J0D01*
G01*
X20296500Y-11239500D02*
G75*
G03*
X20296500Y-11239500I-40000J0D01*
G01*
D14*
X4063500Y-5479500D02*
X4063500Y-5569500D01*
X4018500Y-5524500D02*
X4108500Y-5524500D01*
X4063500Y-8718000D02*
X4063500Y-8808000D01*
X4018500Y-8763000D02*
X4108500Y-8763000D01*
X4063500Y-11955000D02*
X4063500Y-12045000D01*
X4018500Y-12000000D02*
X4108500Y-12000000D01*
X4317500Y-5479500D02*
X4317500Y-5569500D01*
X4272500Y-5524500D02*
X4362500Y-5524500D01*
X4317500Y-8718000D02*
X4317500Y-8808000D01*
X4272500Y-8763000D02*
X4362500Y-8763000D01*
X4317500Y-11955000D02*
X4317500Y-12045000D01*
X4272500Y-12000000D02*
X4362500Y-12000000D01*
X5143000Y-11956500D02*
X5143000Y-12046500D01*
X5098000Y-12001500D02*
X5188000Y-12001500D01*
X5143500Y-5479500D02*
X5143500Y-5569500D01*
X5098500Y-5524500D02*
X5188500Y-5524500D01*
X5143500Y-8718000D02*
X5143500Y-8808000D01*
X5098500Y-8763000D02*
X5188500Y-8763000D01*
X5397000Y-11956500D02*
X5397000Y-12046500D01*
X5352000Y-12001500D02*
X5442000Y-12001500D01*
X5397500Y-5479500D02*
X5397500Y-5569500D01*
X5352500Y-5524500D02*
X5442500Y-5524500D01*
X5397500Y-8718000D02*
X5397500Y-8808000D01*
X5352500Y-8763000D02*
X5442500Y-8763000D01*
X6222500Y-5479500D02*
X6222500Y-5569500D01*
X6177500Y-5524500D02*
X6267500Y-5524500D01*
X6222500Y-8718000D02*
X6222500Y-8808000D01*
X6177500Y-8763000D02*
X6267500Y-8763000D01*
X6222500Y-11956500D02*
X6222500Y-12046500D01*
X6177500Y-12001500D02*
X6267500Y-12001500D01*
X6476500Y-5479500D02*
X6476500Y-5569500D01*
X6431500Y-5524500D02*
X6521500Y-5524500D01*
X6476500Y-8718000D02*
X6476500Y-8808000D01*
X6431500Y-8763000D02*
X6521500Y-8763000D01*
X6476500Y-11956500D02*
X6476500Y-12046500D01*
X6431500Y-12001500D02*
X6521500Y-12001500D01*
X7302000Y-5479500D02*
X7302000Y-5569500D01*
X7257000Y-5524500D02*
X7347000Y-5524500D01*
X7492500Y-11956500D02*
X7492500Y-12046500D01*
X7447500Y-12001500D02*
X7537500Y-12001500D01*
X7493000Y-8718000D02*
X7493000Y-8808000D01*
X7448000Y-8763000D02*
X7538000Y-8763000D01*
X7556000Y-5479500D02*
X7556000Y-5569500D01*
X7511000Y-5524500D02*
X7601000Y-5524500D01*
X7746500Y-11956500D02*
X7746500Y-12046500D01*
X7701500Y-12001500D02*
X7791500Y-12001500D01*
X7747000Y-8718000D02*
X7747000Y-8808000D01*
X7702000Y-8763000D02*
X7792000Y-8763000D01*
X8572000Y-11956500D02*
X8572000Y-12046500D01*
X8527000Y-12001500D02*
X8617000Y-12001500D01*
X8572500Y-8718000D02*
X8572500Y-8808000D01*
X8527500Y-8763000D02*
X8617500Y-8763000D01*
X8763000Y-5479500D02*
X8763000Y-5569500D01*
X8718000Y-5524500D02*
X8808000Y-5524500D01*
X8826000Y-11956500D02*
X8826000Y-12046500D01*
X8781000Y-12001500D02*
X8871000Y-12001500D01*
X8826500Y-8718000D02*
X8826500Y-8808000D01*
X8781500Y-8763000D02*
X8871500Y-8763000D01*
X9017000Y-5479500D02*
X9017000Y-5569500D01*
X8972000Y-5524500D02*
X9062000Y-5524500D01*
X9651500Y-8718000D02*
X9651500Y-8808000D01*
X9606500Y-8763000D02*
X9696500Y-8763000D01*
X9652000Y-11956500D02*
X9652000Y-12046500D01*
X9607000Y-12001500D02*
X9697000Y-12001500D01*
X9843000Y-5479500D02*
X9843000Y-5569500D01*
X9798000Y-5524500D02*
X9888000Y-5524500D01*
X9905500Y-8718000D02*
X9905500Y-8808000D01*
X9860500Y-8763000D02*
X9950500Y-8763000D01*
X9906000Y-11956500D02*
X9906000Y-12046500D01*
X9861000Y-12001500D02*
X9951000Y-12001500D01*
X10097000Y-5479500D02*
X10097000Y-5569500D01*
X10052000Y-5524500D02*
X10142000Y-5524500D01*
X10922000Y-5479500D02*
X10922000Y-5569500D01*
X10877000Y-5524500D02*
X10967000Y-5524500D01*
X10922000Y-8718000D02*
X10922000Y-8808000D01*
X10877000Y-8763000D02*
X10967000Y-8763000D01*
X10922000Y-11956500D02*
X10922000Y-12046500D01*
X10877000Y-12001500D02*
X10967000Y-12001500D01*
X11176000Y-5479500D02*
X11176000Y-5569500D01*
X11131000Y-5524500D02*
X11221000Y-5524500D01*
X11176000Y-8718000D02*
X11176000Y-8808000D01*
X11131000Y-8763000D02*
X11221000Y-8763000D01*
X11176000Y-11956500D02*
X11176000Y-12046500D01*
X11131000Y-12001500D02*
X11221000Y-12001500D01*
X12001500Y-8718000D02*
X12001500Y-8808000D01*
X11956500Y-8763000D02*
X12046500Y-8763000D01*
X12001500Y-11956500D02*
X12001500Y-12046500D01*
X11956500Y-12001500D02*
X12046500Y-12001500D01*
X12002000Y-5479500D02*
X12002000Y-5569500D01*
X11957000Y-5524500D02*
X12047000Y-5524500D01*
X12255500Y-8718000D02*
X12255500Y-8808000D01*
X12210500Y-8763000D02*
X12300500Y-8763000D01*
X12255500Y-11956500D02*
X12255500Y-12046500D01*
X12210500Y-12001500D02*
X12300500Y-12001500D01*
X12256000Y-5479500D02*
X12256000Y-5569500D01*
X12211000Y-5524500D02*
X12301000Y-5524500D01*
X13080500Y-8718000D02*
X13080500Y-8808000D01*
X13035500Y-8763000D02*
X13125500Y-8763000D01*
X13081000Y-5479500D02*
X13081000Y-5569500D01*
X13036000Y-5524500D02*
X13126000Y-5524500D01*
X13081000Y-11956500D02*
X13081000Y-12046500D01*
X13036000Y-12001500D02*
X13126000Y-12001500D01*
X13334500Y-8718000D02*
X13334500Y-8808000D01*
X13289500Y-8763000D02*
X13379500Y-8763000D01*
X13335000Y-5479500D02*
X13335000Y-5569500D01*
X13290000Y-5524500D02*
X13380000Y-5524500D01*
X13335000Y-11956500D02*
X13335000Y-12046500D01*
X13290000Y-12001500D02*
X13380000Y-12001500D01*
X14160500Y-5479500D02*
X14160500Y-5569500D01*
X14115500Y-5524500D02*
X14205500Y-5524500D01*
X14350500Y-8718000D02*
X14350500Y-8808000D01*
X14305500Y-8763000D02*
X14395500Y-8763000D01*
X14351000Y-11956500D02*
X14351000Y-12046500D01*
X14306000Y-12001500D02*
X14396000Y-12001500D01*
X14414500Y-5479500D02*
X14414500Y-5569500D01*
X14369500Y-5524500D02*
X14459500Y-5524500D01*
X14604500Y-8718000D02*
X14604500Y-8808000D01*
X14559500Y-8763000D02*
X14649500Y-8763000D01*
X14605000Y-11956500D02*
X14605000Y-12046500D01*
X14560000Y-12001500D02*
X14650000Y-12001500D01*
X15430000Y-11956500D02*
X15430000Y-12046500D01*
X15385000Y-12001500D02*
X15475000Y-12001500D01*
X15430500Y-8718000D02*
X15430500Y-8808000D01*
X15385500Y-8763000D02*
X15475500Y-8763000D01*
X15620500Y-5479500D02*
X15620500Y-5569500D01*
X15575500Y-5524500D02*
X15665500Y-5524500D01*
X15684000Y-11956500D02*
X15684000Y-12046500D01*
X15639000Y-12001500D02*
X15729000Y-12001500D01*
X15684500Y-8718000D02*
X15684500Y-8808000D01*
X15639500Y-8763000D02*
X15729500Y-8763000D01*
X15874500Y-5479500D02*
X15874500Y-5569500D01*
X15829500Y-5524500D02*
X15919500Y-5524500D01*
X16510000Y-8718000D02*
X16510000Y-8808000D01*
X16465000Y-8763000D02*
X16555000Y-8763000D01*
X16510000Y-11956500D02*
X16510000Y-12046500D01*
X16465000Y-12001500D02*
X16555000Y-12001500D01*
X16700500Y-5479500D02*
X16700500Y-5569500D01*
X16655500Y-5524500D02*
X16745500Y-5524500D01*
X16764000Y-8718000D02*
X16764000Y-8808000D01*
X16719000Y-8763000D02*
X16809000Y-8763000D01*
X16764000Y-11956500D02*
X16764000Y-12046500D01*
X16719000Y-12001500D02*
X16809000Y-12001500D01*
X16954500Y-5479500D02*
X16954500Y-5569500D01*
X16909500Y-5524500D02*
X16999500Y-5524500D01*
X17779500Y-5479500D02*
X17779500Y-5569500D01*
X17734500Y-5524500D02*
X17824500Y-5524500D01*
X17780000Y-8718000D02*
X17780000Y-8808000D01*
X17735000Y-8763000D02*
X17825000Y-8763000D01*
X17780000Y-11956500D02*
X17780000Y-12046500D01*
X17735000Y-12001500D02*
X17825000Y-12001500D01*
X18033500Y-5479500D02*
X18033500Y-5569500D01*
X17988500Y-5524500D02*
X18078500Y-5524500D01*
X18034000Y-8718000D02*
X18034000Y-8808000D01*
X17989000Y-8763000D02*
X18079000Y-8763000D01*
X18034000Y-11956500D02*
X18034000Y-12046500D01*
X17989000Y-12001500D02*
X18079000Y-12001500D01*
X18859000Y-11956500D02*
X18859000Y-12046500D01*
X18814000Y-12001500D02*
X18904000Y-12001500D01*
X18859500Y-5479500D02*
X18859500Y-5569500D01*
X18814500Y-5524500D02*
X18904500Y-5524500D01*
X18859500Y-8718000D02*
X18859500Y-8808000D01*
X18814500Y-8763000D02*
X18904500Y-8763000D01*
X19113000Y-11956500D02*
X19113000Y-12046500D01*
X19068000Y-12001500D02*
X19158000Y-12001500D01*
X19113500Y-5479500D02*
X19113500Y-5569500D01*
X19068500Y-5524500D02*
X19158500Y-5524500D01*
X19113500Y-8718000D02*
X19113500Y-8808000D01*
X19068500Y-8763000D02*
X19158500Y-8763000D01*
X19938500Y-5479500D02*
X19938500Y-5569500D01*
X19893500Y-5524500D02*
X19983500Y-5524500D01*
X19939000Y-8718000D02*
X19939000Y-8808000D01*
X19894000Y-8763000D02*
X19984000Y-8763000D01*
X19939000Y-11956500D02*
X19939000Y-12046500D01*
X19894000Y-12001500D02*
X19984000Y-12001500D01*
X20192500Y-5479500D02*
X20192500Y-5569500D01*
X20147500Y-5524500D02*
X20237500Y-5524500D01*
X20193000Y-8718000D02*
X20193000Y-8808000D01*
X20148000Y-8763000D02*
X20238000Y-8763000D01*
X20193000Y-11956500D02*
X20193000Y-12046500D01*
X20148000Y-12001500D02*
X20238000Y-12001500D01*
D10*
X4797856Y-14525856D02*
X4797856Y-14455144D01*
X4727144Y-14455144D01*
X4727144Y-14525856D01*
X4797856Y-14525856D01*
D11*
X4697500Y-14540500D02*
X4827500Y-14540500D01*
X4827500Y-14540500D02*
G75*
G03*
X4827500Y-14440500I0J50000D01*
G01*
X4827500Y-14440500D02*
X4697500Y-14440500D01*
X4697500Y-14440500D02*
G75*
G03*
X4697500Y-14540500I0J-50000D01*
G01*
D10*
X4797856Y-14995856D02*
X4797856Y-14925144D01*
X4727144Y-14925144D01*
X4727144Y-14995856D01*
X4797856Y-14995856D01*
D11*
X4697500Y-15010500D02*
X4827500Y-15010500D01*
X4827500Y-15010500D02*
G75*
G03*
X4827500Y-14910500I0J50000D01*
G01*
X4827500Y-14910500D02*
X4697500Y-14910500D01*
X4697500Y-14910500D02*
G75*
G03*
X4697500Y-15010500I0J-50000D01*
G01*
D10*
X4797856Y-15465856D02*
X4797856Y-15395144D01*
X4727144Y-15395144D01*
X4727144Y-15465856D01*
X4797856Y-15465856D01*
D11*
X4697500Y-15480500D02*
X4827500Y-15480500D01*
X4827500Y-15480500D02*
G75*
G03*
X4827500Y-15380500I0J50000D01*
G01*
X4827500Y-15380500D02*
X4697500Y-15380500D01*
X4697500Y-15380500D02*
G75*
G03*
X4697500Y-15480500I0J-50000D01*
G01*
D10*
X6639356Y-14525856D02*
X6639356Y-14455144D01*
X6568644Y-14455144D01*
X6568644Y-14525856D01*
X6639356Y-14525856D01*
D11*
X6539000Y-14540500D02*
X6669000Y-14540500D01*
X6669000Y-14540500D02*
G75*
G03*
X6669000Y-14440500I0J50000D01*
G01*
X6669000Y-14440500D02*
X6539000Y-14440500D01*
X6539000Y-14440500D02*
G75*
G03*
X6539000Y-14540500I0J-50000D01*
G01*
D10*
X6639356Y-14995856D02*
X6639356Y-14925144D01*
X6568644Y-14925144D01*
X6568644Y-14995856D01*
X6639356Y-14995856D01*
D11*
X6539000Y-15010500D02*
X6669000Y-15010500D01*
X6669000Y-15010500D02*
G75*
G03*
X6669000Y-14910500I0J50000D01*
G01*
X6669000Y-14910500D02*
X6539000Y-14910500D01*
X6539000Y-14910500D02*
G75*
G03*
X6539000Y-15010500I0J-50000D01*
G01*
D10*
X6639356Y-15465856D02*
X6639356Y-15395144D01*
X6568644Y-15395144D01*
X6568644Y-15465856D01*
X6639356Y-15465856D01*
D11*
X6539000Y-15480500D02*
X6669000Y-15480500D01*
X6669000Y-15480500D02*
G75*
G03*
X6669000Y-15380500I0J50000D01*
G01*
X6669000Y-15380500D02*
X6539000Y-15380500D01*
X6539000Y-15380500D02*
G75*
G03*
X6539000Y-15480500I0J-50000D01*
G01*
D10*
X8480856Y-14525856D02*
X8480856Y-14455144D01*
X8410144Y-14455144D01*
X8410144Y-14525856D01*
X8480856Y-14525856D01*
D11*
X8380500Y-14540500D02*
X8510500Y-14540500D01*
X8510500Y-14540500D02*
G75*
G03*
X8510500Y-14440500I0J50000D01*
G01*
X8510500Y-14440500D02*
X8380500Y-14440500D01*
X8380500Y-14440500D02*
G75*
G03*
X8380500Y-14540500I0J-50000D01*
G01*
D10*
X8480856Y-14995856D02*
X8480856Y-14925144D01*
X8410144Y-14925144D01*
X8410144Y-14995856D01*
X8480856Y-14995856D01*
D11*
X8380500Y-15010500D02*
X8510500Y-15010500D01*
X8510500Y-15010500D02*
G75*
G03*
X8510500Y-14910500I0J50000D01*
G01*
X8510500Y-14910500D02*
X8380500Y-14910500D01*
X8380500Y-14910500D02*
G75*
G03*
X8380500Y-15010500I0J-50000D01*
G01*
D10*
X8480856Y-15465856D02*
X8480856Y-15395144D01*
X8410144Y-15395144D01*
X8410144Y-15465856D01*
X8480856Y-15465856D01*
D11*
X8380500Y-15480500D02*
X8510500Y-15480500D01*
X8510500Y-15480500D02*
G75*
G03*
X8510500Y-15380500I0J50000D01*
G01*
X8510500Y-15380500D02*
X8380500Y-15380500D01*
X8380500Y-15380500D02*
G75*
G03*
X8380500Y-15480500I0J-50000D01*
G01*
D10*
X10322356Y-14525856D02*
X10322356Y-14455144D01*
X10251644Y-14455144D01*
X10251644Y-14525856D01*
X10322356Y-14525856D01*
D11*
X10222000Y-14540500D02*
X10352000Y-14540500D01*
X10352000Y-14540500D02*
G75*
G03*
X10352000Y-14440500I0J50000D01*
G01*
X10352000Y-14440500D02*
X10222000Y-14440500D01*
X10222000Y-14440500D02*
G75*
G03*
X10222000Y-14540500I0J-50000D01*
G01*
D10*
X10322356Y-14995856D02*
X10322356Y-14925144D01*
X10251644Y-14925144D01*
X10251644Y-14995856D01*
X10322356Y-14995856D01*
D11*
X10222000Y-15010500D02*
X10352000Y-15010500D01*
X10352000Y-15010500D02*
G75*
G03*
X10352000Y-14910500I0J50000D01*
G01*
X10352000Y-14910500D02*
X10222000Y-14910500D01*
X10222000Y-14910500D02*
G75*
G03*
X10222000Y-15010500I0J-50000D01*
G01*
D10*
X10322356Y-15465856D02*
X10322356Y-15395144D01*
X10251644Y-15395144D01*
X10251644Y-15465856D01*
X10322356Y-15465856D01*
D11*
X10222000Y-15480500D02*
X10352000Y-15480500D01*
X10352000Y-15480500D02*
G75*
G03*
X10352000Y-15380500I0J50000D01*
G01*
X10352000Y-15380500D02*
X10222000Y-15380500D01*
X10222000Y-15380500D02*
G75*
G03*
X10222000Y-15480500I0J-50000D01*
G01*
D10*
X12163856Y-14525856D02*
X12163856Y-14455144D01*
X12093144Y-14455144D01*
X12093144Y-14525856D01*
X12163856Y-14525856D01*
D11*
X12063500Y-14540500D02*
X12193500Y-14540500D01*
X12193500Y-14540500D02*
G75*
G03*
X12193500Y-14440500I0J50000D01*
G01*
X12193500Y-14440500D02*
X12063500Y-14440500D01*
X12063500Y-14440500D02*
G75*
G03*
X12063500Y-14540500I0J-50000D01*
G01*
D10*
X12163856Y-14995856D02*
X12163856Y-14925144D01*
X12093144Y-14925144D01*
X12093144Y-14995856D01*
X12163856Y-14995856D01*
D11*
X12063500Y-15010500D02*
X12193500Y-15010500D01*
X12193500Y-15010500D02*
G75*
G03*
X12193500Y-14910500I0J50000D01*
G01*
X12193500Y-14910500D02*
X12063500Y-14910500D01*
X12063500Y-14910500D02*
G75*
G03*
X12063500Y-15010500I0J-50000D01*
G01*
D10*
X12163856Y-15465856D02*
X12163856Y-15395144D01*
X12093144Y-15395144D01*
X12093144Y-15465856D01*
X12163856Y-15465856D01*
D11*
X12063500Y-15480500D02*
X12193500Y-15480500D01*
X12193500Y-15480500D02*
G75*
G03*
X12193500Y-15380500I0J50000D01*
G01*
X12193500Y-15380500D02*
X12063500Y-15380500D01*
X12063500Y-15380500D02*
G75*
G03*
X12063500Y-15480500I0J-50000D01*
G01*
D10*
X13814856Y-9814356D02*
X13814856Y-9743644D01*
X13744144Y-9743644D01*
X13744144Y-9814356D01*
X13814856Y-9814356D01*
X13814856Y-10068356D02*
X13814856Y-9997644D01*
X13744144Y-9997644D01*
X13744144Y-10068356D01*
X13814856Y-10068356D01*
X14005356Y-14525856D02*
X14005356Y-14455144D01*
X13934644Y-14455144D01*
X13934644Y-14525856D01*
X14005356Y-14525856D01*
D11*
X13905000Y-14540500D02*
X14035000Y-14540500D01*
X14035000Y-14540500D02*
G75*
G03*
X14035000Y-14440500I0J50000D01*
G01*
X14035000Y-14440500D02*
X13905000Y-14440500D01*
X13905000Y-14440500D02*
G75*
G03*
X13905000Y-14540500I0J-50000D01*
G01*
D10*
X14005356Y-14995856D02*
X14005356Y-14925144D01*
X13934644Y-14925144D01*
X13934644Y-14995856D01*
X14005356Y-14995856D01*
D11*
X13905000Y-15010500D02*
X14035000Y-15010500D01*
X14035000Y-15010500D02*
G75*
G03*
X14035000Y-14910500I0J50000D01*
G01*
X14035000Y-14910500D02*
X13905000Y-14910500D01*
X13905000Y-14910500D02*
G75*
G03*
X13905000Y-15010500I0J-50000D01*
G01*
D10*
X14005356Y-15465856D02*
X14005356Y-15395144D01*
X13934644Y-15395144D01*
X13934644Y-15465856D01*
X14005356Y-15465856D01*
D11*
X13905000Y-15480500D02*
X14035000Y-15480500D01*
X14035000Y-15480500D02*
G75*
G03*
X14035000Y-15380500I0J50000D01*
G01*
X14035000Y-15380500D02*
X13905000Y-15380500D01*
X13905000Y-15380500D02*
G75*
G03*
X13905000Y-15480500I0J-50000D01*
G01*
D10*
X14068856Y-9814356D02*
X14068856Y-9743644D01*
X13998144Y-9743644D01*
X13998144Y-9814356D01*
X14068856Y-9814356D01*
X14068856Y-10068356D02*
X14068856Y-9997644D01*
X13998144Y-9997644D01*
X13998144Y-10068356D01*
X14068856Y-10068356D01*
X14322856Y-9814356D02*
X14322856Y-9743644D01*
X14252144Y-9743644D01*
X14252144Y-9814356D01*
X14322856Y-9814356D01*
X14322856Y-10068356D02*
X14322856Y-9997644D01*
X14252144Y-9997644D01*
X14252144Y-10068356D01*
X14322856Y-10068356D01*
X14576856Y-9814356D02*
X14576856Y-9743644D01*
X14506144Y-9743644D01*
X14506144Y-9814356D01*
X14576856Y-9814356D01*
X14576856Y-10068356D02*
X14576856Y-9997644D01*
X14506144Y-9997644D01*
X14506144Y-10068356D01*
X14576856Y-10068356D01*
X14830856Y-9814356D02*
X14830856Y-9743644D01*
X14760144Y-9743644D01*
X14760144Y-9814356D01*
X14830856Y-9814356D01*
X14830856Y-10068356D02*
X14830856Y-9997644D01*
X14760144Y-9997644D01*
X14760144Y-10068356D01*
X14830856Y-10068356D01*
X15084856Y-9814356D02*
X15084856Y-9743644D01*
X15014144Y-9743644D01*
X15014144Y-9814356D01*
X15084856Y-9814356D01*
X15084856Y-10068356D02*
X15084856Y-9997644D01*
X15014144Y-9997644D01*
X15014144Y-10068356D01*
X15084856Y-10068356D01*
X15338856Y-9814356D02*
X15338856Y-9743644D01*
X15268144Y-9743644D01*
X15268144Y-9814356D01*
X15338856Y-9814356D01*
X15338856Y-10068356D02*
X15338856Y-9997644D01*
X15268144Y-9997644D01*
X15268144Y-10068356D01*
X15338856Y-10068356D01*
X15592856Y-9814356D02*
X15592856Y-9743644D01*
X15522144Y-9743644D01*
X15522144Y-9814356D01*
X15592856Y-9814356D01*
X15592856Y-10068356D02*
X15592856Y-9997644D01*
X15522144Y-9997644D01*
X15522144Y-10068356D01*
X15592856Y-10068356D01*
X15846856Y-9814356D02*
X15846856Y-9743644D01*
X15776144Y-9743644D01*
X15776144Y-9814356D01*
X15846856Y-9814356D01*
X15846856Y-10068356D02*
X15846856Y-9997644D01*
X15776144Y-9997644D01*
X15776144Y-10068356D01*
X15846856Y-10068356D01*
X15846856Y-14525856D02*
X15846856Y-14455144D01*
X15776144Y-14455144D01*
X15776144Y-14525856D01*
X15846856Y-14525856D01*
D11*
X15746500Y-14540500D02*
X15876500Y-14540500D01*
X15876500Y-14540500D02*
G75*
G03*
X15876500Y-14440500I0J50000D01*
G01*
X15876500Y-14440500D02*
X15746500Y-14440500D01*
X15746500Y-14440500D02*
G75*
G03*
X15746500Y-14540500I0J-50000D01*
G01*
D10*
X15846856Y-14995856D02*
X15846856Y-14925144D01*
X15776144Y-14925144D01*
X15776144Y-14995856D01*
X15846856Y-14995856D01*
D11*
X15746500Y-15010500D02*
X15876500Y-15010500D01*
X15876500Y-15010500D02*
G75*
G03*
X15876500Y-14910500I0J50000D01*
G01*
X15876500Y-14910500D02*
X15746500Y-14910500D01*
X15746500Y-14910500D02*
G75*
G03*
X15746500Y-15010500I0J-50000D01*
G01*
D10*
X15846856Y-15465856D02*
X15846856Y-15395144D01*
X15776144Y-15395144D01*
X15776144Y-15465856D01*
X15846856Y-15465856D01*
D11*
X15746500Y-15480500D02*
X15876500Y-15480500D01*
X15876500Y-15480500D02*
G75*
G03*
X15876500Y-15380500I0J50000D01*
G01*
X15876500Y-15380500D02*
X15746500Y-15380500D01*
X15746500Y-15380500D02*
G75*
G03*
X15746500Y-15480500I0J-50000D01*
G01*
D10*
X16100856Y-9814356D02*
X16100856Y-9743644D01*
X16030144Y-9743644D01*
X16030144Y-9814356D01*
X16100856Y-9814356D01*
X16100856Y-10068356D02*
X16100856Y-9997644D01*
X16030144Y-9997644D01*
X16030144Y-10068356D01*
X16100856Y-10068356D01*
X16354856Y-9814356D02*
X16354856Y-9743644D01*
X16284144Y-9743644D01*
X16284144Y-9814356D01*
X16354856Y-9814356D01*
X16354856Y-10068356D02*
X16354856Y-9997644D01*
X16284144Y-9997644D01*
X16284144Y-10068356D01*
X16354856Y-10068356D01*
X16608856Y-9814356D02*
X16608856Y-9743644D01*
X16538144Y-9743644D01*
X16538144Y-9814356D01*
X16608856Y-9814356D01*
X16608856Y-10068356D02*
X16608856Y-9997644D01*
X16538144Y-9997644D01*
X16538144Y-10068356D01*
X16608856Y-10068356D01*
X16862856Y-9814356D02*
X16862856Y-9743644D01*
X16792144Y-9743644D01*
X16792144Y-9814356D01*
X16862856Y-9814356D01*
X16862856Y-10068356D02*
X16862856Y-9997644D01*
X16792144Y-9997644D01*
X16792144Y-10068356D01*
X16862856Y-10068356D01*
X17116856Y-9814356D02*
X17116856Y-9743644D01*
X17046144Y-9743644D01*
X17046144Y-9814356D01*
X17116856Y-9814356D01*
X17116856Y-10068356D02*
X17116856Y-9997644D01*
X17046144Y-9997644D01*
X17046144Y-10068356D01*
X17116856Y-10068356D01*
X17370856Y-9814356D02*
X17370856Y-9743644D01*
X17300144Y-9743644D01*
X17300144Y-9814356D01*
X17370856Y-9814356D01*
X17370856Y-10068356D02*
X17370856Y-9997644D01*
X17300144Y-9997644D01*
X17300144Y-10068356D01*
X17370856Y-10068356D01*
X17624856Y-9814356D02*
X17624856Y-9743644D01*
X17554144Y-9743644D01*
X17554144Y-9814356D01*
X17624856Y-9814356D01*
X17624856Y-10068356D02*
X17624856Y-9997644D01*
X17554144Y-9997644D01*
X17554144Y-10068356D01*
X17624856Y-10068356D01*
X17688356Y-14525856D02*
X17688356Y-14455144D01*
X17617644Y-14455144D01*
X17617644Y-14525856D01*
X17688356Y-14525856D01*
D11*
X17588000Y-14540500D02*
X17718000Y-14540500D01*
X17718000Y-14540500D02*
G75*
G03*
X17718000Y-14440500I0J50000D01*
G01*
X17718000Y-14440500D02*
X17588000Y-14440500D01*
X17588000Y-14440500D02*
G75*
G03*
X17588000Y-14540500I0J-50000D01*
G01*
D10*
X17688356Y-14995856D02*
X17688356Y-14925144D01*
X17617644Y-14925144D01*
X17617644Y-14995856D01*
X17688356Y-14995856D01*
D11*
X17588000Y-15010500D02*
X17718000Y-15010500D01*
X17718000Y-15010500D02*
G75*
G03*
X17718000Y-14910500I0J50000D01*
G01*
X17718000Y-14910500D02*
X17588000Y-14910500D01*
X17588000Y-14910500D02*
G75*
G03*
X17588000Y-15010500I0J-50000D01*
G01*
D10*
X17688356Y-15465856D02*
X17688356Y-15395144D01*
X17617644Y-15395144D01*
X17617644Y-15465856D01*
X17688356Y-15465856D01*
D11*
X17588000Y-15480500D02*
X17718000Y-15480500D01*
X17718000Y-15480500D02*
G75*
G03*
X17718000Y-15380500I0J50000D01*
G01*
X17718000Y-15380500D02*
X17588000Y-15380500D01*
X17588000Y-15380500D02*
G75*
G03*
X17588000Y-15480500I0J-50000D01*
G01*
D10*
X17878856Y-9814356D02*
X17878856Y-9743644D01*
X17808144Y-9743644D01*
X17808144Y-9814356D01*
X17878856Y-9814356D01*
X17878856Y-10068356D02*
X17878856Y-9997644D01*
X17808144Y-9997644D01*
X17808144Y-10068356D01*
X17878856Y-10068356D01*
X18132856Y-9814356D02*
X18132856Y-9743644D01*
X18062144Y-9743644D01*
X18062144Y-9814356D01*
X18132856Y-9814356D01*
X18132856Y-10068356D02*
X18132856Y-9997644D01*
X18062144Y-9997644D01*
X18062144Y-10068356D01*
X18132856Y-10068356D01*
X18386856Y-9814356D02*
X18386856Y-9743644D01*
X18316144Y-9743644D01*
X18316144Y-9814356D01*
X18386856Y-9814356D01*
X18386856Y-10068356D02*
X18386856Y-9997644D01*
X18316144Y-9997644D01*
X18316144Y-10068356D01*
X18386856Y-10068356D01*
X18640856Y-9814356D02*
X18640856Y-9743644D01*
X18570144Y-9743644D01*
X18570144Y-9814356D01*
X18640856Y-9814356D01*
X18640856Y-10068356D02*
X18640856Y-9997644D01*
X18570144Y-9997644D01*
X18570144Y-10068356D01*
X18640856Y-10068356D01*
X18894856Y-9814356D02*
X18894856Y-9743644D01*
X18824144Y-9743644D01*
X18824144Y-9814356D01*
X18894856Y-9814356D01*
X18894856Y-10068356D02*
X18894856Y-9997644D01*
X18824144Y-9997644D01*
X18824144Y-10068356D01*
X18894856Y-10068356D01*
X19148856Y-9814356D02*
X19148856Y-9743644D01*
X19078144Y-9743644D01*
X19078144Y-9814356D01*
X19148856Y-9814356D01*
X19148856Y-10068356D02*
X19148856Y-9997644D01*
X19078144Y-9997644D01*
X19078144Y-10068356D01*
X19148856Y-10068356D01*
X19402856Y-9814356D02*
X19402856Y-9743644D01*
X19332144Y-9743644D01*
X19332144Y-9814356D01*
X19402856Y-9814356D01*
X19402856Y-10068356D02*
X19402856Y-9997644D01*
X19332144Y-9997644D01*
X19332144Y-10068356D01*
X19402856Y-10068356D01*
X19529856Y-14525856D02*
X19529856Y-14455144D01*
X19459144Y-14455144D01*
X19459144Y-14525856D01*
X19529856Y-14525856D01*
D11*
X19429500Y-14540500D02*
X19559500Y-14540500D01*
X19559500Y-14540500D02*
G75*
G03*
X19559500Y-14440500I0J50000D01*
G01*
X19559500Y-14440500D02*
X19429500Y-14440500D01*
X19429500Y-14440500D02*
G75*
G03*
X19429500Y-14540500I0J-50000D01*
G01*
D10*
X19529856Y-14995856D02*
X19529856Y-14925144D01*
X19459144Y-14925144D01*
X19459144Y-14995856D01*
X19529856Y-14995856D01*
D11*
X19429500Y-15010500D02*
X19559500Y-15010500D01*
X19559500Y-15010500D02*
G75*
G03*
X19559500Y-14910500I0J50000D01*
G01*
X19559500Y-14910500D02*
X19429500Y-14910500D01*
X19429500Y-14910500D02*
G75*
G03*
X19429500Y-15010500I0J-50000D01*
G01*
D10*
X19529856Y-15465856D02*
X19529856Y-15395144D01*
X19459144Y-15395144D01*
X19459144Y-15465856D01*
X19529856Y-15465856D01*
D11*
X19429500Y-15480500D02*
X19559500Y-15480500D01*
X19559500Y-15480500D02*
G75*
G03*
X19559500Y-15380500I0J50000D01*
G01*
X19559500Y-15380500D02*
X19429500Y-15380500D01*
X19429500Y-15380500D02*
G75*
G03*
X19429500Y-15480500I0J-50000D01*
G01*
D10*
X19656856Y-9814356D02*
X19656856Y-9743644D01*
X19586144Y-9743644D01*
X19586144Y-9814356D01*
X19656856Y-9814356D01*
X19656856Y-10068356D02*
X19656856Y-9997644D01*
X19586144Y-9997644D01*
X19586144Y-10068356D01*
X19656856Y-10068356D01*
X19910856Y-9814356D02*
X19910856Y-9743644D01*
X19840144Y-9743644D01*
X19840144Y-9814356D01*
X19910856Y-9814356D01*
X19910856Y-10068356D02*
X19910856Y-9997644D01*
X19840144Y-9997644D01*
X19840144Y-10068356D01*
X19910856Y-10068356D01*
D15*
X4000500Y-7222000D02*
X4110500Y-7112000D01*
X4000500Y-7002000D01*
X3890500Y-7112000D01*
X4000500Y-7222000D01*
X4000500Y-13254500D02*
X4110500Y-13144500D01*
X4000500Y-13034500D01*
X3890500Y-13144500D01*
X4000500Y-13254500D01*
X20256500Y-7222000D02*
X20366500Y-7112000D01*
X20256500Y-7002000D01*
X20146500Y-7112000D01*
X20256500Y-7222000D01*
X20256500Y-13254500D02*
X20366500Y-13144500D01*
X20256500Y-13034500D01*
X20146500Y-13144500D01*
X20256500Y-13254500D01*
D11*
X3875277Y-16064484D02*
X3875277Y-15864484D01*
X3875277Y-15864484D02*
X3922896Y-15864484D01*
X3922896Y-15864484D02*
X3951467Y-15874008D01*
X3951467Y-15874008D02*
X3970515Y-15893055D01*
X3970515Y-15893055D02*
X3980039Y-15912103D01*
X3980039Y-15912103D02*
X3989562Y-15950198D01*
X3989562Y-15950198D02*
X3989562Y-15978769D01*
X3989562Y-15978769D02*
X3980039Y-16016865D01*
X3980039Y-16016865D02*
X3970515Y-16035912D01*
X3970515Y-16035912D02*
X3951467Y-16054960D01*
X3951467Y-16054960D02*
X3922896Y-16064484D01*
X3922896Y-16064484D02*
X3875277Y-16064484D01*
X4075277Y-16064484D02*
X4075277Y-15931150D01*
X4075277Y-15969246D02*
X4084801Y-15950198D01*
X4084801Y-15950198D02*
X4094324Y-15940674D01*
X4094324Y-15940674D02*
X4113372Y-15931150D01*
X4113372Y-15931150D02*
X4132420Y-15931150D01*
X4199086Y-16064484D02*
X4199086Y-15931150D01*
X4199086Y-15864484D02*
X4189562Y-15874008D01*
X4189562Y-15874008D02*
X4199086Y-15883531D01*
X4199086Y-15883531D02*
X4208610Y-15874008D01*
X4208610Y-15874008D02*
X4199086Y-15864484D01*
X4199086Y-15864484D02*
X4199086Y-15883531D01*
X4322896Y-16064484D02*
X4303848Y-16054960D01*
X4303848Y-16054960D02*
X4294324Y-16035912D01*
X4294324Y-16035912D02*
X4294324Y-15864484D01*
X4427658Y-16064484D02*
X4408610Y-16054960D01*
X4408610Y-16054960D02*
X4399086Y-16035912D01*
X4399086Y-16035912D02*
X4399086Y-15864484D01*
X4656229Y-16064484D02*
X4656229Y-15864484D01*
X4656229Y-15864484D02*
X4722896Y-16007341D01*
X4722896Y-16007341D02*
X4789563Y-15864484D01*
X4789563Y-15864484D02*
X4789563Y-16064484D01*
X4970515Y-16064484D02*
X4970515Y-15959722D01*
X4970515Y-15959722D02*
X4960991Y-15940674D01*
X4960991Y-15940674D02*
X4941944Y-15931150D01*
X4941944Y-15931150D02*
X4903848Y-15931150D01*
X4903848Y-15931150D02*
X4884801Y-15940674D01*
X4970515Y-16054960D02*
X4951467Y-16064484D01*
X4951467Y-16064484D02*
X4903848Y-16064484D01*
X4903848Y-16064484D02*
X4884801Y-16054960D01*
X4884801Y-16054960D02*
X4875277Y-16035912D01*
X4875277Y-16035912D02*
X4875277Y-16016865D01*
X4875277Y-16016865D02*
X4884801Y-15997817D01*
X4884801Y-15997817D02*
X4903848Y-15988293D01*
X4903848Y-15988293D02*
X4951467Y-15988293D01*
X4951467Y-15988293D02*
X4970515Y-15978769D01*
X5065753Y-15931150D02*
X5065753Y-16131150D01*
X5065753Y-15940674D02*
X5084801Y-15931150D01*
X5084801Y-15931150D02*
X5122896Y-15931150D01*
X5122896Y-15931150D02*
X5141944Y-15940674D01*
X5141944Y-15940674D02*
X5151467Y-15950198D01*
X5151467Y-15950198D02*
X5160991Y-15969246D01*
X5160991Y-15969246D02*
X5160991Y-16026388D01*
X5160991Y-16026388D02*
X5151467Y-16045436D01*
X5151467Y-16045436D02*
X5141944Y-16054960D01*
X5141944Y-16054960D02*
X5122896Y-16064484D01*
X5122896Y-16064484D02*
X5084801Y-16064484D01*
X5084801Y-16064484D02*
X5065753Y-16054960D01*
X5246705Y-16045436D02*
X5256229Y-16054960D01*
X5256229Y-16054960D02*
X5246705Y-16064484D01*
X5246705Y-16064484D02*
X5237182Y-16054960D01*
X5237182Y-16054960D02*
X5246705Y-16045436D01*
X5246705Y-16045436D02*
X5246705Y-16064484D01*
X5246705Y-15940674D02*
X5256229Y-15950198D01*
X5256229Y-15950198D02*
X5246705Y-15959722D01*
X5246705Y-15959722D02*
X5237182Y-15950198D01*
X5237182Y-15950198D02*
X5246705Y-15940674D01*
X5246705Y-15940674D02*
X5246705Y-15959722D01*
D12*
X3574500Y-16373000D02*
X3614500Y-16413000D01*
X3614500Y-16373000D02*
X3574500Y-16413000D01*
D11*
X3913372Y-16284484D02*
X3932420Y-16284484D01*
X3932420Y-16284484D02*
X3951467Y-16294008D01*
X3951467Y-16294008D02*
X3960991Y-16303531D01*
X3960991Y-16303531D02*
X3970515Y-16322579D01*
X3970515Y-16322579D02*
X3980039Y-16360674D01*
X3980039Y-16360674D02*
X3980039Y-16408293D01*
X3980039Y-16408293D02*
X3970515Y-16446388D01*
X3970515Y-16446388D02*
X3960991Y-16465436D01*
X3960991Y-16465436D02*
X3951467Y-16474960D01*
X3951467Y-16474960D02*
X3932420Y-16484484D01*
X3932420Y-16484484D02*
X3913372Y-16484484D01*
X3913372Y-16484484D02*
X3894324Y-16474960D01*
X3894324Y-16474960D02*
X3884801Y-16465436D01*
X3884801Y-16465436D02*
X3875277Y-16446388D01*
X3875277Y-16446388D02*
X3865753Y-16408293D01*
X3865753Y-16408293D02*
X3865753Y-16360674D01*
X3865753Y-16360674D02*
X3875277Y-16322579D01*
X3875277Y-16322579D02*
X3884801Y-16303531D01*
X3884801Y-16303531D02*
X3894324Y-16294008D01*
X3894324Y-16294008D02*
X3913372Y-16284484D01*
X4065753Y-16465436D02*
X4075277Y-16474960D01*
X4075277Y-16474960D02*
X4065753Y-16484484D01*
X4065753Y-16484484D02*
X4056229Y-16474960D01*
X4056229Y-16474960D02*
X4065753Y-16465436D01*
X4065753Y-16465436D02*
X4065753Y-16484484D01*
X4246705Y-16351150D02*
X4246705Y-16484484D01*
X4199086Y-16274960D02*
X4151467Y-16417817D01*
X4151467Y-16417817D02*
X4275277Y-16417817D01*
X4389563Y-16284484D02*
X4408610Y-16284484D01*
X4408610Y-16284484D02*
X4427658Y-16294008D01*
X4427658Y-16294008D02*
X4437182Y-16303531D01*
X4437182Y-16303531D02*
X4446705Y-16322579D01*
X4446705Y-16322579D02*
X4456229Y-16360674D01*
X4456229Y-16360674D02*
X4456229Y-16408293D01*
X4456229Y-16408293D02*
X4446705Y-16446388D01*
X4446705Y-16446388D02*
X4437182Y-16465436D01*
X4437182Y-16465436D02*
X4427658Y-16474960D01*
X4427658Y-16474960D02*
X4408610Y-16484484D01*
X4408610Y-16484484D02*
X4389563Y-16484484D01*
X4389563Y-16484484D02*
X4370515Y-16474960D01*
X4370515Y-16474960D02*
X4360991Y-16465436D01*
X4360991Y-16465436D02*
X4351467Y-16446388D01*
X4351467Y-16446388D02*
X4341944Y-16408293D01*
X4341944Y-16408293D02*
X4341944Y-16360674D01*
X4341944Y-16360674D02*
X4351467Y-16322579D01*
X4351467Y-16322579D02*
X4360991Y-16303531D01*
X4360991Y-16303531D02*
X4370515Y-16294008D01*
X4370515Y-16294008D02*
X4389563Y-16284484D01*
X4580039Y-16284484D02*
X4599086Y-16284484D01*
X4599086Y-16284484D02*
X4618134Y-16294008D01*
X4618134Y-16294008D02*
X4627658Y-16303531D01*
X4627658Y-16303531D02*
X4637182Y-16322579D01*
X4637182Y-16322579D02*
X4646705Y-16360674D01*
X4646705Y-16360674D02*
X4646705Y-16408293D01*
X4646705Y-16408293D02*
X4637182Y-16446388D01*
X4637182Y-16446388D02*
X4627658Y-16465436D01*
X4627658Y-16465436D02*
X4618134Y-16474960D01*
X4618134Y-16474960D02*
X4599086Y-16484484D01*
X4599086Y-16484484D02*
X4580039Y-16484484D01*
X4580039Y-16484484D02*
X4560991Y-16474960D01*
X4560991Y-16474960D02*
X4551467Y-16465436D01*
X4551467Y-16465436D02*
X4541944Y-16446388D01*
X4541944Y-16446388D02*
X4532420Y-16408293D01*
X4532420Y-16408293D02*
X4532420Y-16360674D01*
X4532420Y-16360674D02*
X4541944Y-16322579D01*
X4541944Y-16322579D02*
X4551467Y-16303531D01*
X4551467Y-16303531D02*
X4560991Y-16294008D01*
X4560991Y-16294008D02*
X4580039Y-16284484D01*
X4732420Y-16484484D02*
X4732420Y-16351150D01*
X4732420Y-16370198D02*
X4741944Y-16360674D01*
X4741944Y-16360674D02*
X4760991Y-16351150D01*
X4760991Y-16351150D02*
X4789563Y-16351150D01*
X4789563Y-16351150D02*
X4808610Y-16360674D01*
X4808610Y-16360674D02*
X4818134Y-16379722D01*
X4818134Y-16379722D02*
X4818134Y-16484484D01*
X4818134Y-16379722D02*
X4827658Y-16360674D01*
X4827658Y-16360674D02*
X4846705Y-16351150D01*
X4846705Y-16351150D02*
X4875277Y-16351150D01*
X4875277Y-16351150D02*
X4894325Y-16360674D01*
X4894325Y-16360674D02*
X4903848Y-16379722D01*
X4903848Y-16379722D02*
X4903848Y-16484484D01*
X4999086Y-16484484D02*
X4999086Y-16351150D01*
X4999086Y-16370198D02*
X5008610Y-16360674D01*
X5008610Y-16360674D02*
X5027658Y-16351150D01*
X5027658Y-16351150D02*
X5056229Y-16351150D01*
X5056229Y-16351150D02*
X5075277Y-16360674D01*
X5075277Y-16360674D02*
X5084801Y-16379722D01*
X5084801Y-16379722D02*
X5084801Y-16484484D01*
X5084801Y-16379722D02*
X5094325Y-16360674D01*
X5094325Y-16360674D02*
X5113372Y-16351150D01*
X5113372Y-16351150D02*
X5141944Y-16351150D01*
X5141944Y-16351150D02*
X5160991Y-16360674D01*
X5160991Y-16360674D02*
X5170515Y-16379722D01*
X5170515Y-16379722D02*
X5170515Y-16484484D01*
X5560991Y-16274960D02*
X5389563Y-16532103D01*
X5818134Y-16284484D02*
X5837182Y-16284484D01*
X5837182Y-16284484D02*
X5856229Y-16294008D01*
X5856229Y-16294008D02*
X5865753Y-16303531D01*
X5865753Y-16303531D02*
X5875277Y-16322579D01*
X5875277Y-16322579D02*
X5884801Y-16360674D01*
X5884801Y-16360674D02*
X5884801Y-16408293D01*
X5884801Y-16408293D02*
X5875277Y-16446388D01*
X5875277Y-16446388D02*
X5865753Y-16465436D01*
X5865753Y-16465436D02*
X5856229Y-16474960D01*
X5856229Y-16474960D02*
X5837182Y-16484484D01*
X5837182Y-16484484D02*
X5818134Y-16484484D01*
X5818134Y-16484484D02*
X5799086Y-16474960D01*
X5799086Y-16474960D02*
X5789563Y-16465436D01*
X5789563Y-16465436D02*
X5780039Y-16446388D01*
X5780039Y-16446388D02*
X5770515Y-16408293D01*
X5770515Y-16408293D02*
X5770515Y-16360674D01*
X5770515Y-16360674D02*
X5780039Y-16322579D01*
X5780039Y-16322579D02*
X5789563Y-16303531D01*
X5789563Y-16303531D02*
X5799086Y-16294008D01*
X5799086Y-16294008D02*
X5818134Y-16284484D01*
X5970515Y-16465436D02*
X5980039Y-16474960D01*
X5980039Y-16474960D02*
X5970515Y-16484484D01*
X5970515Y-16484484D02*
X5960991Y-16474960D01*
X5960991Y-16474960D02*
X5970515Y-16465436D01*
X5970515Y-16465436D02*
X5970515Y-16484484D01*
X6103848Y-16284484D02*
X6122896Y-16284484D01*
X6122896Y-16284484D02*
X6141944Y-16294008D01*
X6141944Y-16294008D02*
X6151467Y-16303531D01*
X6151467Y-16303531D02*
X6160991Y-16322579D01*
X6160991Y-16322579D02*
X6170515Y-16360674D01*
X6170515Y-16360674D02*
X6170515Y-16408293D01*
X6170515Y-16408293D02*
X6160991Y-16446388D01*
X6160991Y-16446388D02*
X6151467Y-16465436D01*
X6151467Y-16465436D02*
X6141944Y-16474960D01*
X6141944Y-16474960D02*
X6122896Y-16484484D01*
X6122896Y-16484484D02*
X6103848Y-16484484D01*
X6103848Y-16484484D02*
X6084801Y-16474960D01*
X6084801Y-16474960D02*
X6075277Y-16465436D01*
X6075277Y-16465436D02*
X6065753Y-16446388D01*
X6065753Y-16446388D02*
X6056229Y-16408293D01*
X6056229Y-16408293D02*
X6056229Y-16360674D01*
X6056229Y-16360674D02*
X6065753Y-16322579D01*
X6065753Y-16322579D02*
X6075277Y-16303531D01*
X6075277Y-16303531D02*
X6084801Y-16294008D01*
X6084801Y-16294008D02*
X6103848Y-16284484D01*
X6360991Y-16484484D02*
X6246706Y-16484484D01*
X6303848Y-16484484D02*
X6303848Y-16284484D01*
X6303848Y-16284484D02*
X6284801Y-16313055D01*
X6284801Y-16313055D02*
X6265753Y-16332103D01*
X6265753Y-16332103D02*
X6246706Y-16341627D01*
X6541944Y-16284484D02*
X6446706Y-16284484D01*
X6446706Y-16284484D02*
X6437182Y-16379722D01*
X6437182Y-16379722D02*
X6446706Y-16370198D01*
X6446706Y-16370198D02*
X6465753Y-16360674D01*
X6465753Y-16360674D02*
X6513372Y-16360674D01*
X6513372Y-16360674D02*
X6532420Y-16370198D01*
X6532420Y-16370198D02*
X6541944Y-16379722D01*
X6541944Y-16379722D02*
X6551467Y-16398769D01*
X6551467Y-16398769D02*
X6551467Y-16446388D01*
X6551467Y-16446388D02*
X6541944Y-16465436D01*
X6541944Y-16465436D02*
X6532420Y-16474960D01*
X6532420Y-16474960D02*
X6513372Y-16484484D01*
X6513372Y-16484484D02*
X6465753Y-16484484D01*
X6465753Y-16484484D02*
X6446706Y-16474960D01*
X6446706Y-16474960D02*
X6437182Y-16465436D01*
X6618134Y-16284484D02*
X6751467Y-16284484D01*
X6751467Y-16284484D02*
X6665753Y-16484484D01*
X6818134Y-16284484D02*
X6818134Y-16322579D01*
X6894325Y-16284484D02*
X6894325Y-16322579D01*
X7189563Y-16560674D02*
X7180039Y-16551150D01*
X7180039Y-16551150D02*
X7160991Y-16522579D01*
X7160991Y-16522579D02*
X7151468Y-16503531D01*
X7151468Y-16503531D02*
X7141944Y-16474960D01*
X7141944Y-16474960D02*
X7132420Y-16427341D01*
X7132420Y-16427341D02*
X7132420Y-16389246D01*
X7132420Y-16389246D02*
X7141944Y-16341627D01*
X7141944Y-16341627D02*
X7151468Y-16313055D01*
X7151468Y-16313055D02*
X7160991Y-16294008D01*
X7160991Y-16294008D02*
X7180039Y-16265436D01*
X7180039Y-16265436D02*
X7189563Y-16255912D01*
X7256229Y-16303531D02*
X7265753Y-16294008D01*
X7265753Y-16294008D02*
X7284801Y-16284484D01*
X7284801Y-16284484D02*
X7332420Y-16284484D01*
X7332420Y-16284484D02*
X7351468Y-16294008D01*
X7351468Y-16294008D02*
X7360991Y-16303531D01*
X7360991Y-16303531D02*
X7370515Y-16322579D01*
X7370515Y-16322579D02*
X7370515Y-16341627D01*
X7370515Y-16341627D02*
X7360991Y-16370198D01*
X7360991Y-16370198D02*
X7246706Y-16484484D01*
X7246706Y-16484484D02*
X7370515Y-16484484D01*
X7541944Y-16284484D02*
X7503848Y-16284484D01*
X7503848Y-16284484D02*
X7484801Y-16294008D01*
X7484801Y-16294008D02*
X7475277Y-16303531D01*
X7475277Y-16303531D02*
X7456229Y-16332103D01*
X7456229Y-16332103D02*
X7446706Y-16370198D01*
X7446706Y-16370198D02*
X7446706Y-16446388D01*
X7446706Y-16446388D02*
X7456229Y-16465436D01*
X7456229Y-16465436D02*
X7465753Y-16474960D01*
X7465753Y-16474960D02*
X7484801Y-16484484D01*
X7484801Y-16484484D02*
X7522896Y-16484484D01*
X7522896Y-16484484D02*
X7541944Y-16474960D01*
X7541944Y-16474960D02*
X7551468Y-16465436D01*
X7551468Y-16465436D02*
X7560991Y-16446388D01*
X7560991Y-16446388D02*
X7560991Y-16398769D01*
X7560991Y-16398769D02*
X7551468Y-16379722D01*
X7551468Y-16379722D02*
X7541944Y-16370198D01*
X7541944Y-16370198D02*
X7522896Y-16360674D01*
X7522896Y-16360674D02*
X7484801Y-16360674D01*
X7484801Y-16360674D02*
X7465753Y-16370198D01*
X7465753Y-16370198D02*
X7456229Y-16379722D01*
X7456229Y-16379722D02*
X7446706Y-16398769D01*
X7799087Y-16484484D02*
X7799087Y-16284484D01*
X7884801Y-16484484D02*
X7884801Y-16379722D01*
X7884801Y-16379722D02*
X7875277Y-16360674D01*
X7875277Y-16360674D02*
X7856230Y-16351150D01*
X7856230Y-16351150D02*
X7827658Y-16351150D01*
X7827658Y-16351150D02*
X7808610Y-16360674D01*
X7808610Y-16360674D02*
X7799087Y-16370198D01*
X8008610Y-16484484D02*
X7989563Y-16474960D01*
X7989563Y-16474960D02*
X7980039Y-16465436D01*
X7980039Y-16465436D02*
X7970515Y-16446388D01*
X7970515Y-16446388D02*
X7970515Y-16389246D01*
X7970515Y-16389246D02*
X7980039Y-16370198D01*
X7980039Y-16370198D02*
X7989563Y-16360674D01*
X7989563Y-16360674D02*
X8008610Y-16351150D01*
X8008610Y-16351150D02*
X8037182Y-16351150D01*
X8037182Y-16351150D02*
X8056230Y-16360674D01*
X8056230Y-16360674D02*
X8065753Y-16370198D01*
X8065753Y-16370198D02*
X8075277Y-16389246D01*
X8075277Y-16389246D02*
X8075277Y-16446388D01*
X8075277Y-16446388D02*
X8065753Y-16465436D01*
X8065753Y-16465436D02*
X8056230Y-16474960D01*
X8056230Y-16474960D02*
X8037182Y-16484484D01*
X8037182Y-16484484D02*
X8008610Y-16484484D01*
X8189563Y-16484484D02*
X8170515Y-16474960D01*
X8170515Y-16474960D02*
X8160991Y-16455912D01*
X8160991Y-16455912D02*
X8160991Y-16284484D01*
X8341944Y-16474960D02*
X8322896Y-16484484D01*
X8322896Y-16484484D02*
X8284801Y-16484484D01*
X8284801Y-16484484D02*
X8265753Y-16474960D01*
X8265753Y-16474960D02*
X8256230Y-16455912D01*
X8256230Y-16455912D02*
X8256230Y-16379722D01*
X8256230Y-16379722D02*
X8265753Y-16360674D01*
X8265753Y-16360674D02*
X8284801Y-16351150D01*
X8284801Y-16351150D02*
X8322896Y-16351150D01*
X8322896Y-16351150D02*
X8341944Y-16360674D01*
X8341944Y-16360674D02*
X8351468Y-16379722D01*
X8351468Y-16379722D02*
X8351468Y-16398769D01*
X8351468Y-16398769D02*
X8256230Y-16417817D01*
X8427658Y-16474960D02*
X8446706Y-16484484D01*
X8446706Y-16484484D02*
X8484801Y-16484484D01*
X8484801Y-16484484D02*
X8503849Y-16474960D01*
X8503849Y-16474960D02*
X8513373Y-16455912D01*
X8513373Y-16455912D02*
X8513373Y-16446388D01*
X8513373Y-16446388D02*
X8503849Y-16427341D01*
X8503849Y-16427341D02*
X8484801Y-16417817D01*
X8484801Y-16417817D02*
X8456230Y-16417817D01*
X8456230Y-16417817D02*
X8437182Y-16408293D01*
X8437182Y-16408293D02*
X8427658Y-16389246D01*
X8427658Y-16389246D02*
X8427658Y-16379722D01*
X8427658Y-16379722D02*
X8437182Y-16360674D01*
X8437182Y-16360674D02*
X8456230Y-16351150D01*
X8456230Y-16351150D02*
X8484801Y-16351150D01*
X8484801Y-16351150D02*
X8503849Y-16360674D01*
X8580039Y-16560674D02*
X8589563Y-16551150D01*
X8589563Y-16551150D02*
X8608611Y-16522579D01*
X8608611Y-16522579D02*
X8618134Y-16503531D01*
X8618134Y-16503531D02*
X8627658Y-16474960D01*
X8627658Y-16474960D02*
X8637182Y-16427341D01*
X8637182Y-16427341D02*
X8637182Y-16389246D01*
X8637182Y-16389246D02*
X8627658Y-16341627D01*
X8627658Y-16341627D02*
X8618134Y-16313055D01*
X8618134Y-16313055D02*
X8608611Y-16294008D01*
X8608611Y-16294008D02*
X8589563Y-16265436D01*
X8589563Y-16265436D02*
X8580039Y-16255912D01*
D13*
X3614500Y-16657000D02*
G75*
G03*
X3614500Y-16657000I-40000J0D01*
G01*
D11*
X3913372Y-16548484D02*
X3932420Y-16548484D01*
X3932420Y-16548484D02*
X3951467Y-16558008D01*
X3951467Y-16558008D02*
X3960991Y-16567531D01*
X3960991Y-16567531D02*
X3970515Y-16586579D01*
X3970515Y-16586579D02*
X3980039Y-16624674D01*
X3980039Y-16624674D02*
X3980039Y-16672293D01*
X3980039Y-16672293D02*
X3970515Y-16710388D01*
X3970515Y-16710388D02*
X3960991Y-16729436D01*
X3960991Y-16729436D02*
X3951467Y-16738960D01*
X3951467Y-16738960D02*
X3932420Y-16748484D01*
X3932420Y-16748484D02*
X3913372Y-16748484D01*
X3913372Y-16748484D02*
X3894324Y-16738960D01*
X3894324Y-16738960D02*
X3884801Y-16729436D01*
X3884801Y-16729436D02*
X3875277Y-16710388D01*
X3875277Y-16710388D02*
X3865753Y-16672293D01*
X3865753Y-16672293D02*
X3865753Y-16624674D01*
X3865753Y-16624674D02*
X3875277Y-16586579D01*
X3875277Y-16586579D02*
X3884801Y-16567531D01*
X3884801Y-16567531D02*
X3894324Y-16558008D01*
X3894324Y-16558008D02*
X3913372Y-16548484D01*
X4065753Y-16729436D02*
X4075277Y-16738960D01*
X4075277Y-16738960D02*
X4065753Y-16748484D01*
X4065753Y-16748484D02*
X4056229Y-16738960D01*
X4056229Y-16738960D02*
X4065753Y-16729436D01*
X4065753Y-16729436D02*
X4065753Y-16748484D01*
X4189562Y-16634198D02*
X4170515Y-16624674D01*
X4170515Y-16624674D02*
X4160991Y-16615150D01*
X4160991Y-16615150D02*
X4151467Y-16596103D01*
X4151467Y-16596103D02*
X4151467Y-16586579D01*
X4151467Y-16586579D02*
X4160991Y-16567531D01*
X4160991Y-16567531D02*
X4170515Y-16558008D01*
X4170515Y-16558008D02*
X4189562Y-16548484D01*
X4189562Y-16548484D02*
X4227658Y-16548484D01*
X4227658Y-16548484D02*
X4246705Y-16558008D01*
X4246705Y-16558008D02*
X4256229Y-16567531D01*
X4256229Y-16567531D02*
X4265753Y-16586579D01*
X4265753Y-16586579D02*
X4265753Y-16596103D01*
X4265753Y-16596103D02*
X4256229Y-16615150D01*
X4256229Y-16615150D02*
X4246705Y-16624674D01*
X4246705Y-16624674D02*
X4227658Y-16634198D01*
X4227658Y-16634198D02*
X4189562Y-16634198D01*
X4189562Y-16634198D02*
X4170515Y-16643722D01*
X4170515Y-16643722D02*
X4160991Y-16653246D01*
X4160991Y-16653246D02*
X4151467Y-16672293D01*
X4151467Y-16672293D02*
X4151467Y-16710388D01*
X4151467Y-16710388D02*
X4160991Y-16729436D01*
X4160991Y-16729436D02*
X4170515Y-16738960D01*
X4170515Y-16738960D02*
X4189562Y-16748484D01*
X4189562Y-16748484D02*
X4227658Y-16748484D01*
X4227658Y-16748484D02*
X4246705Y-16738960D01*
X4246705Y-16738960D02*
X4256229Y-16729436D01*
X4256229Y-16729436D02*
X4265753Y-16710388D01*
X4265753Y-16710388D02*
X4265753Y-16672293D01*
X4265753Y-16672293D02*
X4256229Y-16653246D01*
X4256229Y-16653246D02*
X4246705Y-16643722D01*
X4246705Y-16643722D02*
X4227658Y-16634198D01*
X4389563Y-16548484D02*
X4408610Y-16548484D01*
X4408610Y-16548484D02*
X4427658Y-16558008D01*
X4427658Y-16558008D02*
X4437182Y-16567531D01*
X4437182Y-16567531D02*
X4446705Y-16586579D01*
X4446705Y-16586579D02*
X4456229Y-16624674D01*
X4456229Y-16624674D02*
X4456229Y-16672293D01*
X4456229Y-16672293D02*
X4446705Y-16710388D01*
X4446705Y-16710388D02*
X4437182Y-16729436D01*
X4437182Y-16729436D02*
X4427658Y-16738960D01*
X4427658Y-16738960D02*
X4408610Y-16748484D01*
X4408610Y-16748484D02*
X4389563Y-16748484D01*
X4389563Y-16748484D02*
X4370515Y-16738960D01*
X4370515Y-16738960D02*
X4360991Y-16729436D01*
X4360991Y-16729436D02*
X4351467Y-16710388D01*
X4351467Y-16710388D02*
X4341944Y-16672293D01*
X4341944Y-16672293D02*
X4341944Y-16624674D01*
X4341944Y-16624674D02*
X4351467Y-16586579D01*
X4351467Y-16586579D02*
X4360991Y-16567531D01*
X4360991Y-16567531D02*
X4370515Y-16558008D01*
X4370515Y-16558008D02*
X4389563Y-16548484D01*
X4580039Y-16548484D02*
X4599086Y-16548484D01*
X4599086Y-16548484D02*
X4618134Y-16558008D01*
X4618134Y-16558008D02*
X4627658Y-16567531D01*
X4627658Y-16567531D02*
X4637182Y-16586579D01*
X4637182Y-16586579D02*
X4646705Y-16624674D01*
X4646705Y-16624674D02*
X4646705Y-16672293D01*
X4646705Y-16672293D02*
X4637182Y-16710388D01*
X4637182Y-16710388D02*
X4627658Y-16729436D01*
X4627658Y-16729436D02*
X4618134Y-16738960D01*
X4618134Y-16738960D02*
X4599086Y-16748484D01*
X4599086Y-16748484D02*
X4580039Y-16748484D01*
X4580039Y-16748484D02*
X4560991Y-16738960D01*
X4560991Y-16738960D02*
X4551467Y-16729436D01*
X4551467Y-16729436D02*
X4541944Y-16710388D01*
X4541944Y-16710388D02*
X4532420Y-16672293D01*
X4532420Y-16672293D02*
X4532420Y-16624674D01*
X4532420Y-16624674D02*
X4541944Y-16586579D01*
X4541944Y-16586579D02*
X4551467Y-16567531D01*
X4551467Y-16567531D02*
X4560991Y-16558008D01*
X4560991Y-16558008D02*
X4580039Y-16548484D01*
X4732420Y-16748484D02*
X4732420Y-16615150D01*
X4732420Y-16634198D02*
X4741944Y-16624674D01*
X4741944Y-16624674D02*
X4760991Y-16615150D01*
X4760991Y-16615150D02*
X4789563Y-16615150D01*
X4789563Y-16615150D02*
X4808610Y-16624674D01*
X4808610Y-16624674D02*
X4818134Y-16643722D01*
X4818134Y-16643722D02*
X4818134Y-16748484D01*
X4818134Y-16643722D02*
X4827658Y-16624674D01*
X4827658Y-16624674D02*
X4846705Y-16615150D01*
X4846705Y-16615150D02*
X4875277Y-16615150D01*
X4875277Y-16615150D02*
X4894325Y-16624674D01*
X4894325Y-16624674D02*
X4903848Y-16643722D01*
X4903848Y-16643722D02*
X4903848Y-16748484D01*
X4999086Y-16748484D02*
X4999086Y-16615150D01*
X4999086Y-16634198D02*
X5008610Y-16624674D01*
X5008610Y-16624674D02*
X5027658Y-16615150D01*
X5027658Y-16615150D02*
X5056229Y-16615150D01*
X5056229Y-16615150D02*
X5075277Y-16624674D01*
X5075277Y-16624674D02*
X5084801Y-16643722D01*
X5084801Y-16643722D02*
X5084801Y-16748484D01*
X5084801Y-16643722D02*
X5094325Y-16624674D01*
X5094325Y-16624674D02*
X5113372Y-16615150D01*
X5113372Y-16615150D02*
X5141944Y-16615150D01*
X5141944Y-16615150D02*
X5160991Y-16624674D01*
X5160991Y-16624674D02*
X5170515Y-16643722D01*
X5170515Y-16643722D02*
X5170515Y-16748484D01*
X5560991Y-16538960D02*
X5389563Y-16796103D01*
X5818134Y-16548484D02*
X5837182Y-16548484D01*
X5837182Y-16548484D02*
X5856229Y-16558008D01*
X5856229Y-16558008D02*
X5865753Y-16567531D01*
X5865753Y-16567531D02*
X5875277Y-16586579D01*
X5875277Y-16586579D02*
X5884801Y-16624674D01*
X5884801Y-16624674D02*
X5884801Y-16672293D01*
X5884801Y-16672293D02*
X5875277Y-16710388D01*
X5875277Y-16710388D02*
X5865753Y-16729436D01*
X5865753Y-16729436D02*
X5856229Y-16738960D01*
X5856229Y-16738960D02*
X5837182Y-16748484D01*
X5837182Y-16748484D02*
X5818134Y-16748484D01*
X5818134Y-16748484D02*
X5799086Y-16738960D01*
X5799086Y-16738960D02*
X5789563Y-16729436D01*
X5789563Y-16729436D02*
X5780039Y-16710388D01*
X5780039Y-16710388D02*
X5770515Y-16672293D01*
X5770515Y-16672293D02*
X5770515Y-16624674D01*
X5770515Y-16624674D02*
X5780039Y-16586579D01*
X5780039Y-16586579D02*
X5789563Y-16567531D01*
X5789563Y-16567531D02*
X5799086Y-16558008D01*
X5799086Y-16558008D02*
X5818134Y-16548484D01*
X5970515Y-16729436D02*
X5980039Y-16738960D01*
X5980039Y-16738960D02*
X5970515Y-16748484D01*
X5970515Y-16748484D02*
X5960991Y-16738960D01*
X5960991Y-16738960D02*
X5970515Y-16729436D01*
X5970515Y-16729436D02*
X5970515Y-16748484D01*
X6103848Y-16548484D02*
X6122896Y-16548484D01*
X6122896Y-16548484D02*
X6141944Y-16558008D01*
X6141944Y-16558008D02*
X6151467Y-16567531D01*
X6151467Y-16567531D02*
X6160991Y-16586579D01*
X6160991Y-16586579D02*
X6170515Y-16624674D01*
X6170515Y-16624674D02*
X6170515Y-16672293D01*
X6170515Y-16672293D02*
X6160991Y-16710388D01*
X6160991Y-16710388D02*
X6151467Y-16729436D01*
X6151467Y-16729436D02*
X6141944Y-16738960D01*
X6141944Y-16738960D02*
X6122896Y-16748484D01*
X6122896Y-16748484D02*
X6103848Y-16748484D01*
X6103848Y-16748484D02*
X6084801Y-16738960D01*
X6084801Y-16738960D02*
X6075277Y-16729436D01*
X6075277Y-16729436D02*
X6065753Y-16710388D01*
X6065753Y-16710388D02*
X6056229Y-16672293D01*
X6056229Y-16672293D02*
X6056229Y-16624674D01*
X6056229Y-16624674D02*
X6065753Y-16586579D01*
X6065753Y-16586579D02*
X6075277Y-16567531D01*
X6075277Y-16567531D02*
X6084801Y-16558008D01*
X6084801Y-16558008D02*
X6103848Y-16548484D01*
X6237182Y-16548484D02*
X6360991Y-16548484D01*
X6360991Y-16548484D02*
X6294325Y-16624674D01*
X6294325Y-16624674D02*
X6322896Y-16624674D01*
X6322896Y-16624674D02*
X6341944Y-16634198D01*
X6341944Y-16634198D02*
X6351467Y-16643722D01*
X6351467Y-16643722D02*
X6360991Y-16662769D01*
X6360991Y-16662769D02*
X6360991Y-16710388D01*
X6360991Y-16710388D02*
X6351467Y-16729436D01*
X6351467Y-16729436D02*
X6341944Y-16738960D01*
X6341944Y-16738960D02*
X6322896Y-16748484D01*
X6322896Y-16748484D02*
X6265753Y-16748484D01*
X6265753Y-16748484D02*
X6246706Y-16738960D01*
X6246706Y-16738960D02*
X6237182Y-16729436D01*
X6551467Y-16748484D02*
X6437182Y-16748484D01*
X6494325Y-16748484D02*
X6494325Y-16548484D01*
X6494325Y-16548484D02*
X6475277Y-16577055D01*
X6475277Y-16577055D02*
X6456229Y-16596103D01*
X6456229Y-16596103D02*
X6437182Y-16605627D01*
X6732420Y-16548484D02*
X6637182Y-16548484D01*
X6637182Y-16548484D02*
X6627658Y-16643722D01*
X6627658Y-16643722D02*
X6637182Y-16634198D01*
X6637182Y-16634198D02*
X6656229Y-16624674D01*
X6656229Y-16624674D02*
X6703848Y-16624674D01*
X6703848Y-16624674D02*
X6722896Y-16634198D01*
X6722896Y-16634198D02*
X6732420Y-16643722D01*
X6732420Y-16643722D02*
X6741944Y-16662769D01*
X6741944Y-16662769D02*
X6741944Y-16710388D01*
X6741944Y-16710388D02*
X6732420Y-16729436D01*
X6732420Y-16729436D02*
X6722896Y-16738960D01*
X6722896Y-16738960D02*
X6703848Y-16748484D01*
X6703848Y-16748484D02*
X6656229Y-16748484D01*
X6656229Y-16748484D02*
X6637182Y-16738960D01*
X6637182Y-16738960D02*
X6627658Y-16729436D01*
X6818134Y-16548484D02*
X6818134Y-16586579D01*
X6894325Y-16548484D02*
X6894325Y-16586579D01*
X7189563Y-16824674D02*
X7180039Y-16815150D01*
X7180039Y-16815150D02*
X7160991Y-16786579D01*
X7160991Y-16786579D02*
X7151468Y-16767531D01*
X7151468Y-16767531D02*
X7141944Y-16738960D01*
X7141944Y-16738960D02*
X7132420Y-16691341D01*
X7132420Y-16691341D02*
X7132420Y-16653246D01*
X7132420Y-16653246D02*
X7141944Y-16605627D01*
X7141944Y-16605627D02*
X7151468Y-16577055D01*
X7151468Y-16577055D02*
X7160991Y-16558008D01*
X7160991Y-16558008D02*
X7180039Y-16529436D01*
X7180039Y-16529436D02*
X7189563Y-16519912D01*
X7246706Y-16548484D02*
X7370515Y-16548484D01*
X7370515Y-16548484D02*
X7303848Y-16624674D01*
X7303848Y-16624674D02*
X7332420Y-16624674D01*
X7332420Y-16624674D02*
X7351468Y-16634198D01*
X7351468Y-16634198D02*
X7360991Y-16643722D01*
X7360991Y-16643722D02*
X7370515Y-16662769D01*
X7370515Y-16662769D02*
X7370515Y-16710388D01*
X7370515Y-16710388D02*
X7360991Y-16729436D01*
X7360991Y-16729436D02*
X7351468Y-16738960D01*
X7351468Y-16738960D02*
X7332420Y-16748484D01*
X7332420Y-16748484D02*
X7275277Y-16748484D01*
X7275277Y-16748484D02*
X7256229Y-16738960D01*
X7256229Y-16738960D02*
X7246706Y-16729436D01*
X7494325Y-16548484D02*
X7513372Y-16548484D01*
X7513372Y-16548484D02*
X7532420Y-16558008D01*
X7532420Y-16558008D02*
X7541944Y-16567531D01*
X7541944Y-16567531D02*
X7551468Y-16586579D01*
X7551468Y-16586579D02*
X7560991Y-16624674D01*
X7560991Y-16624674D02*
X7560991Y-16672293D01*
X7560991Y-16672293D02*
X7551468Y-16710388D01*
X7551468Y-16710388D02*
X7541944Y-16729436D01*
X7541944Y-16729436D02*
X7532420Y-16738960D01*
X7532420Y-16738960D02*
X7513372Y-16748484D01*
X7513372Y-16748484D02*
X7494325Y-16748484D01*
X7494325Y-16748484D02*
X7475277Y-16738960D01*
X7475277Y-16738960D02*
X7465753Y-16729436D01*
X7465753Y-16729436D02*
X7456229Y-16710388D01*
X7456229Y-16710388D02*
X7446706Y-16672293D01*
X7446706Y-16672293D02*
X7446706Y-16624674D01*
X7446706Y-16624674D02*
X7456229Y-16586579D01*
X7456229Y-16586579D02*
X7465753Y-16567531D01*
X7465753Y-16567531D02*
X7475277Y-16558008D01*
X7475277Y-16558008D02*
X7494325Y-16548484D01*
X7732420Y-16615150D02*
X7732420Y-16748484D01*
X7684801Y-16538960D02*
X7637182Y-16681817D01*
X7637182Y-16681817D02*
X7760991Y-16681817D01*
X7989563Y-16748484D02*
X7989563Y-16548484D01*
X8075277Y-16748484D02*
X8075277Y-16643722D01*
X8075277Y-16643722D02*
X8065753Y-16624674D01*
X8065753Y-16624674D02*
X8046706Y-16615150D01*
X8046706Y-16615150D02*
X8018134Y-16615150D01*
X8018134Y-16615150D02*
X7999087Y-16624674D01*
X7999087Y-16624674D02*
X7989563Y-16634198D01*
X8199087Y-16748484D02*
X8180039Y-16738960D01*
X8180039Y-16738960D02*
X8170515Y-16729436D01*
X8170515Y-16729436D02*
X8160991Y-16710388D01*
X8160991Y-16710388D02*
X8160991Y-16653246D01*
X8160991Y-16653246D02*
X8170515Y-16634198D01*
X8170515Y-16634198D02*
X8180039Y-16624674D01*
X8180039Y-16624674D02*
X8199087Y-16615150D01*
X8199087Y-16615150D02*
X8227658Y-16615150D01*
X8227658Y-16615150D02*
X8246706Y-16624674D01*
X8246706Y-16624674D02*
X8256230Y-16634198D01*
X8256230Y-16634198D02*
X8265753Y-16653246D01*
X8265753Y-16653246D02*
X8265753Y-16710388D01*
X8265753Y-16710388D02*
X8256230Y-16729436D01*
X8256230Y-16729436D02*
X8246706Y-16738960D01*
X8246706Y-16738960D02*
X8227658Y-16748484D01*
X8227658Y-16748484D02*
X8199087Y-16748484D01*
X8380039Y-16748484D02*
X8360991Y-16738960D01*
X8360991Y-16738960D02*
X8351468Y-16719912D01*
X8351468Y-16719912D02*
X8351468Y-16548484D01*
X8532420Y-16738960D02*
X8513373Y-16748484D01*
X8513373Y-16748484D02*
X8475277Y-16748484D01*
X8475277Y-16748484D02*
X8456230Y-16738960D01*
X8456230Y-16738960D02*
X8446706Y-16719912D01*
X8446706Y-16719912D02*
X8446706Y-16643722D01*
X8446706Y-16643722D02*
X8456230Y-16624674D01*
X8456230Y-16624674D02*
X8475277Y-16615150D01*
X8475277Y-16615150D02*
X8513373Y-16615150D01*
X8513373Y-16615150D02*
X8532420Y-16624674D01*
X8532420Y-16624674D02*
X8541944Y-16643722D01*
X8541944Y-16643722D02*
X8541944Y-16662769D01*
X8541944Y-16662769D02*
X8446706Y-16681817D01*
X8618134Y-16738960D02*
X8637182Y-16748484D01*
X8637182Y-16748484D02*
X8675277Y-16748484D01*
X8675277Y-16748484D02*
X8694325Y-16738960D01*
X8694325Y-16738960D02*
X8703849Y-16719912D01*
X8703849Y-16719912D02*
X8703849Y-16710388D01*
X8703849Y-16710388D02*
X8694325Y-16691341D01*
X8694325Y-16691341D02*
X8675277Y-16681817D01*
X8675277Y-16681817D02*
X8646706Y-16681817D01*
X8646706Y-16681817D02*
X8627658Y-16672293D01*
X8627658Y-16672293D02*
X8618134Y-16653246D01*
X8618134Y-16653246D02*
X8618134Y-16643722D01*
X8618134Y-16643722D02*
X8627658Y-16624674D01*
X8627658Y-16624674D02*
X8646706Y-16615150D01*
X8646706Y-16615150D02*
X8675277Y-16615150D01*
X8675277Y-16615150D02*
X8694325Y-16624674D01*
X8770515Y-16824674D02*
X8780039Y-16815150D01*
X8780039Y-16815150D02*
X8799087Y-16786579D01*
X8799087Y-16786579D02*
X8808611Y-16767531D01*
X8808611Y-16767531D02*
X8818134Y-16738960D01*
X8818134Y-16738960D02*
X8827658Y-16691341D01*
X8827658Y-16691341D02*
X8827658Y-16653246D01*
X8827658Y-16653246D02*
X8818134Y-16605627D01*
X8818134Y-16605627D02*
X8808611Y-16577055D01*
X8808611Y-16577055D02*
X8799087Y-16558008D01*
X8799087Y-16558008D02*
X8780039Y-16529436D01*
X8780039Y-16529436D02*
X8770515Y-16519912D01*
D14*
X3569500Y-16876000D02*
X3569500Y-16966000D01*
X3524500Y-16921000D02*
X3614500Y-16921000D01*
D11*
X3913372Y-16812484D02*
X3932420Y-16812484D01*
X3932420Y-16812484D02*
X3951467Y-16822008D01*
X3951467Y-16822008D02*
X3960991Y-16831531D01*
X3960991Y-16831531D02*
X3970515Y-16850579D01*
X3970515Y-16850579D02*
X3980039Y-16888674D01*
X3980039Y-16888674D02*
X3980039Y-16936293D01*
X3980039Y-16936293D02*
X3970515Y-16974389D01*
X3970515Y-16974389D02*
X3960991Y-16993436D01*
X3960991Y-16993436D02*
X3951467Y-17002960D01*
X3951467Y-17002960D02*
X3932420Y-17012484D01*
X3932420Y-17012484D02*
X3913372Y-17012484D01*
X3913372Y-17012484D02*
X3894324Y-17002960D01*
X3894324Y-17002960D02*
X3884801Y-16993436D01*
X3884801Y-16993436D02*
X3875277Y-16974389D01*
X3875277Y-16974389D02*
X3865753Y-16936293D01*
X3865753Y-16936293D02*
X3865753Y-16888674D01*
X3865753Y-16888674D02*
X3875277Y-16850579D01*
X3875277Y-16850579D02*
X3884801Y-16831531D01*
X3884801Y-16831531D02*
X3894324Y-16822008D01*
X3894324Y-16822008D02*
X3913372Y-16812484D01*
X4065753Y-16993436D02*
X4075277Y-17002960D01*
X4075277Y-17002960D02*
X4065753Y-17012484D01*
X4065753Y-17012484D02*
X4056229Y-17002960D01*
X4056229Y-17002960D02*
X4065753Y-16993436D01*
X4065753Y-16993436D02*
X4065753Y-17012484D01*
X4170515Y-17012484D02*
X4208610Y-17012484D01*
X4208610Y-17012484D02*
X4227658Y-17002960D01*
X4227658Y-17002960D02*
X4237182Y-16993436D01*
X4237182Y-16993436D02*
X4256229Y-16964865D01*
X4256229Y-16964865D02*
X4265753Y-16926770D01*
X4265753Y-16926770D02*
X4265753Y-16850579D01*
X4265753Y-16850579D02*
X4256229Y-16831531D01*
X4256229Y-16831531D02*
X4246705Y-16822008D01*
X4246705Y-16822008D02*
X4227658Y-16812484D01*
X4227658Y-16812484D02*
X4189562Y-16812484D01*
X4189562Y-16812484D02*
X4170515Y-16822008D01*
X4170515Y-16822008D02*
X4160991Y-16831531D01*
X4160991Y-16831531D02*
X4151467Y-16850579D01*
X4151467Y-16850579D02*
X4151467Y-16898198D01*
X4151467Y-16898198D02*
X4160991Y-16917246D01*
X4160991Y-16917246D02*
X4170515Y-16926770D01*
X4170515Y-16926770D02*
X4189562Y-16936293D01*
X4189562Y-16936293D02*
X4227658Y-16936293D01*
X4227658Y-16936293D02*
X4246705Y-16926770D01*
X4246705Y-16926770D02*
X4256229Y-16917246D01*
X4256229Y-16917246D02*
X4265753Y-16898198D01*
X4389563Y-16812484D02*
X4408610Y-16812484D01*
X4408610Y-16812484D02*
X4427658Y-16822008D01*
X4427658Y-16822008D02*
X4437182Y-16831531D01*
X4437182Y-16831531D02*
X4446705Y-16850579D01*
X4446705Y-16850579D02*
X4456229Y-16888674D01*
X4456229Y-16888674D02*
X4456229Y-16936293D01*
X4456229Y-16936293D02*
X4446705Y-16974389D01*
X4446705Y-16974389D02*
X4437182Y-16993436D01*
X4437182Y-16993436D02*
X4427658Y-17002960D01*
X4427658Y-17002960D02*
X4408610Y-17012484D01*
X4408610Y-17012484D02*
X4389563Y-17012484D01*
X4389563Y-17012484D02*
X4370515Y-17002960D01*
X4370515Y-17002960D02*
X4360991Y-16993436D01*
X4360991Y-16993436D02*
X4351467Y-16974389D01*
X4351467Y-16974389D02*
X4341944Y-16936293D01*
X4341944Y-16936293D02*
X4341944Y-16888674D01*
X4341944Y-16888674D02*
X4351467Y-16850579D01*
X4351467Y-16850579D02*
X4360991Y-16831531D01*
X4360991Y-16831531D02*
X4370515Y-16822008D01*
X4370515Y-16822008D02*
X4389563Y-16812484D01*
X4580039Y-16812484D02*
X4599086Y-16812484D01*
X4599086Y-16812484D02*
X4618134Y-16822008D01*
X4618134Y-16822008D02*
X4627658Y-16831531D01*
X4627658Y-16831531D02*
X4637182Y-16850579D01*
X4637182Y-16850579D02*
X4646705Y-16888674D01*
X4646705Y-16888674D02*
X4646705Y-16936293D01*
X4646705Y-16936293D02*
X4637182Y-16974389D01*
X4637182Y-16974389D02*
X4627658Y-16993436D01*
X4627658Y-16993436D02*
X4618134Y-17002960D01*
X4618134Y-17002960D02*
X4599086Y-17012484D01*
X4599086Y-17012484D02*
X4580039Y-17012484D01*
X4580039Y-17012484D02*
X4560991Y-17002960D01*
X4560991Y-17002960D02*
X4551467Y-16993436D01*
X4551467Y-16993436D02*
X4541944Y-16974389D01*
X4541944Y-16974389D02*
X4532420Y-16936293D01*
X4532420Y-16936293D02*
X4532420Y-16888674D01*
X4532420Y-16888674D02*
X4541944Y-16850579D01*
X4541944Y-16850579D02*
X4551467Y-16831531D01*
X4551467Y-16831531D02*
X4560991Y-16822008D01*
X4560991Y-16822008D02*
X4580039Y-16812484D01*
X4732420Y-17012484D02*
X4732420Y-16879150D01*
X4732420Y-16898198D02*
X4741944Y-16888674D01*
X4741944Y-16888674D02*
X4760991Y-16879150D01*
X4760991Y-16879150D02*
X4789563Y-16879150D01*
X4789563Y-16879150D02*
X4808610Y-16888674D01*
X4808610Y-16888674D02*
X4818134Y-16907722D01*
X4818134Y-16907722D02*
X4818134Y-17012484D01*
X4818134Y-16907722D02*
X4827658Y-16888674D01*
X4827658Y-16888674D02*
X4846705Y-16879150D01*
X4846705Y-16879150D02*
X4875277Y-16879150D01*
X4875277Y-16879150D02*
X4894325Y-16888674D01*
X4894325Y-16888674D02*
X4903848Y-16907722D01*
X4903848Y-16907722D02*
X4903848Y-17012484D01*
X4999086Y-17012484D02*
X4999086Y-16879150D01*
X4999086Y-16898198D02*
X5008610Y-16888674D01*
X5008610Y-16888674D02*
X5027658Y-16879150D01*
X5027658Y-16879150D02*
X5056229Y-16879150D01*
X5056229Y-16879150D02*
X5075277Y-16888674D01*
X5075277Y-16888674D02*
X5084801Y-16907722D01*
X5084801Y-16907722D02*
X5084801Y-17012484D01*
X5084801Y-16907722D02*
X5094325Y-16888674D01*
X5094325Y-16888674D02*
X5113372Y-16879150D01*
X5113372Y-16879150D02*
X5141944Y-16879150D01*
X5141944Y-16879150D02*
X5160991Y-16888674D01*
X5160991Y-16888674D02*
X5170515Y-16907722D01*
X5170515Y-16907722D02*
X5170515Y-17012484D01*
X5560991Y-16802960D02*
X5389563Y-17060103D01*
X5818134Y-16812484D02*
X5837182Y-16812484D01*
X5837182Y-16812484D02*
X5856229Y-16822008D01*
X5856229Y-16822008D02*
X5865753Y-16831531D01*
X5865753Y-16831531D02*
X5875277Y-16850579D01*
X5875277Y-16850579D02*
X5884801Y-16888674D01*
X5884801Y-16888674D02*
X5884801Y-16936293D01*
X5884801Y-16936293D02*
X5875277Y-16974389D01*
X5875277Y-16974389D02*
X5865753Y-16993436D01*
X5865753Y-16993436D02*
X5856229Y-17002960D01*
X5856229Y-17002960D02*
X5837182Y-17012484D01*
X5837182Y-17012484D02*
X5818134Y-17012484D01*
X5818134Y-17012484D02*
X5799086Y-17002960D01*
X5799086Y-17002960D02*
X5789563Y-16993436D01*
X5789563Y-16993436D02*
X5780039Y-16974389D01*
X5780039Y-16974389D02*
X5770515Y-16936293D01*
X5770515Y-16936293D02*
X5770515Y-16888674D01*
X5770515Y-16888674D02*
X5780039Y-16850579D01*
X5780039Y-16850579D02*
X5789563Y-16831531D01*
X5789563Y-16831531D02*
X5799086Y-16822008D01*
X5799086Y-16822008D02*
X5818134Y-16812484D01*
X5970515Y-16993436D02*
X5980039Y-17002960D01*
X5980039Y-17002960D02*
X5970515Y-17012484D01*
X5970515Y-17012484D02*
X5960991Y-17002960D01*
X5960991Y-17002960D02*
X5970515Y-16993436D01*
X5970515Y-16993436D02*
X5970515Y-17012484D01*
X6103848Y-16812484D02*
X6122896Y-16812484D01*
X6122896Y-16812484D02*
X6141944Y-16822008D01*
X6141944Y-16822008D02*
X6151467Y-16831531D01*
X6151467Y-16831531D02*
X6160991Y-16850579D01*
X6160991Y-16850579D02*
X6170515Y-16888674D01*
X6170515Y-16888674D02*
X6170515Y-16936293D01*
X6170515Y-16936293D02*
X6160991Y-16974389D01*
X6160991Y-16974389D02*
X6151467Y-16993436D01*
X6151467Y-16993436D02*
X6141944Y-17002960D01*
X6141944Y-17002960D02*
X6122896Y-17012484D01*
X6122896Y-17012484D02*
X6103848Y-17012484D01*
X6103848Y-17012484D02*
X6084801Y-17002960D01*
X6084801Y-17002960D02*
X6075277Y-16993436D01*
X6075277Y-16993436D02*
X6065753Y-16974389D01*
X6065753Y-16974389D02*
X6056229Y-16936293D01*
X6056229Y-16936293D02*
X6056229Y-16888674D01*
X6056229Y-16888674D02*
X6065753Y-16850579D01*
X6065753Y-16850579D02*
X6075277Y-16831531D01*
X6075277Y-16831531D02*
X6084801Y-16822008D01*
X6084801Y-16822008D02*
X6103848Y-16812484D01*
X6237182Y-16812484D02*
X6360991Y-16812484D01*
X6360991Y-16812484D02*
X6294325Y-16888674D01*
X6294325Y-16888674D02*
X6322896Y-16888674D01*
X6322896Y-16888674D02*
X6341944Y-16898198D01*
X6341944Y-16898198D02*
X6351467Y-16907722D01*
X6351467Y-16907722D02*
X6360991Y-16926770D01*
X6360991Y-16926770D02*
X6360991Y-16974389D01*
X6360991Y-16974389D02*
X6351467Y-16993436D01*
X6351467Y-16993436D02*
X6341944Y-17002960D01*
X6341944Y-17002960D02*
X6322896Y-17012484D01*
X6322896Y-17012484D02*
X6265753Y-17012484D01*
X6265753Y-17012484D02*
X6246706Y-17002960D01*
X6246706Y-17002960D02*
X6237182Y-16993436D01*
X6541944Y-16812484D02*
X6446706Y-16812484D01*
X6446706Y-16812484D02*
X6437182Y-16907722D01*
X6437182Y-16907722D02*
X6446706Y-16898198D01*
X6446706Y-16898198D02*
X6465753Y-16888674D01*
X6465753Y-16888674D02*
X6513372Y-16888674D01*
X6513372Y-16888674D02*
X6532420Y-16898198D01*
X6532420Y-16898198D02*
X6541944Y-16907722D01*
X6541944Y-16907722D02*
X6551467Y-16926770D01*
X6551467Y-16926770D02*
X6551467Y-16974389D01*
X6551467Y-16974389D02*
X6541944Y-16993436D01*
X6541944Y-16993436D02*
X6532420Y-17002960D01*
X6532420Y-17002960D02*
X6513372Y-17012484D01*
X6513372Y-17012484D02*
X6465753Y-17012484D01*
X6465753Y-17012484D02*
X6446706Y-17002960D01*
X6446706Y-17002960D02*
X6437182Y-16993436D01*
X6722896Y-16879150D02*
X6722896Y-17012484D01*
X6675277Y-16802960D02*
X6627658Y-16945817D01*
X6627658Y-16945817D02*
X6751467Y-16945817D01*
X6818134Y-16812484D02*
X6818134Y-16850579D01*
X6894325Y-16812484D02*
X6894325Y-16850579D01*
X7189563Y-17088674D02*
X7180039Y-17079150D01*
X7180039Y-17079150D02*
X7160991Y-17050579D01*
X7160991Y-17050579D02*
X7151468Y-17031531D01*
X7151468Y-17031531D02*
X7141944Y-17002960D01*
X7141944Y-17002960D02*
X7132420Y-16955341D01*
X7132420Y-16955341D02*
X7132420Y-16917246D01*
X7132420Y-16917246D02*
X7141944Y-16869627D01*
X7141944Y-16869627D02*
X7151468Y-16841055D01*
X7151468Y-16841055D02*
X7160991Y-16822008D01*
X7160991Y-16822008D02*
X7180039Y-16793436D01*
X7180039Y-16793436D02*
X7189563Y-16783912D01*
X7275277Y-17012484D02*
X7313372Y-17012484D01*
X7313372Y-17012484D02*
X7332420Y-17002960D01*
X7332420Y-17002960D02*
X7341944Y-16993436D01*
X7341944Y-16993436D02*
X7360991Y-16964865D01*
X7360991Y-16964865D02*
X7370515Y-16926770D01*
X7370515Y-16926770D02*
X7370515Y-16850579D01*
X7370515Y-16850579D02*
X7360991Y-16831531D01*
X7360991Y-16831531D02*
X7351468Y-16822008D01*
X7351468Y-16822008D02*
X7332420Y-16812484D01*
X7332420Y-16812484D02*
X7294325Y-16812484D01*
X7294325Y-16812484D02*
X7275277Y-16822008D01*
X7275277Y-16822008D02*
X7265753Y-16831531D01*
X7265753Y-16831531D02*
X7256229Y-16850579D01*
X7256229Y-16850579D02*
X7256229Y-16898198D01*
X7256229Y-16898198D02*
X7265753Y-16917246D01*
X7265753Y-16917246D02*
X7275277Y-16926770D01*
X7275277Y-16926770D02*
X7294325Y-16936293D01*
X7294325Y-16936293D02*
X7332420Y-16936293D01*
X7332420Y-16936293D02*
X7351468Y-16926770D01*
X7351468Y-16926770D02*
X7360991Y-16917246D01*
X7360991Y-16917246D02*
X7370515Y-16898198D01*
X7494325Y-16812484D02*
X7513372Y-16812484D01*
X7513372Y-16812484D02*
X7532420Y-16822008D01*
X7532420Y-16822008D02*
X7541944Y-16831531D01*
X7541944Y-16831531D02*
X7551468Y-16850579D01*
X7551468Y-16850579D02*
X7560991Y-16888674D01*
X7560991Y-16888674D02*
X7560991Y-16936293D01*
X7560991Y-16936293D02*
X7551468Y-16974389D01*
X7551468Y-16974389D02*
X7541944Y-16993436D01*
X7541944Y-16993436D02*
X7532420Y-17002960D01*
X7532420Y-17002960D02*
X7513372Y-17012484D01*
X7513372Y-17012484D02*
X7494325Y-17012484D01*
X7494325Y-17012484D02*
X7475277Y-17002960D01*
X7475277Y-17002960D02*
X7465753Y-16993436D01*
X7465753Y-16993436D02*
X7456229Y-16974389D01*
X7456229Y-16974389D02*
X7446706Y-16936293D01*
X7446706Y-16936293D02*
X7446706Y-16888674D01*
X7446706Y-16888674D02*
X7456229Y-16850579D01*
X7456229Y-16850579D02*
X7465753Y-16831531D01*
X7465753Y-16831531D02*
X7475277Y-16822008D01*
X7475277Y-16822008D02*
X7494325Y-16812484D01*
X7799087Y-17012484D02*
X7799087Y-16812484D01*
X7884801Y-17012484D02*
X7884801Y-16907722D01*
X7884801Y-16907722D02*
X7875277Y-16888674D01*
X7875277Y-16888674D02*
X7856230Y-16879150D01*
X7856230Y-16879150D02*
X7827658Y-16879150D01*
X7827658Y-16879150D02*
X7808610Y-16888674D01*
X7808610Y-16888674D02*
X7799087Y-16898198D01*
X8008610Y-17012484D02*
X7989563Y-17002960D01*
X7989563Y-17002960D02*
X7980039Y-16993436D01*
X7980039Y-16993436D02*
X7970515Y-16974389D01*
X7970515Y-16974389D02*
X7970515Y-16917246D01*
X7970515Y-16917246D02*
X7980039Y-16898198D01*
X7980039Y-16898198D02*
X7989563Y-16888674D01*
X7989563Y-16888674D02*
X8008610Y-16879150D01*
X8008610Y-16879150D02*
X8037182Y-16879150D01*
X8037182Y-16879150D02*
X8056230Y-16888674D01*
X8056230Y-16888674D02*
X8065753Y-16898198D01*
X8065753Y-16898198D02*
X8075277Y-16917246D01*
X8075277Y-16917246D02*
X8075277Y-16974389D01*
X8075277Y-16974389D02*
X8065753Y-16993436D01*
X8065753Y-16993436D02*
X8056230Y-17002960D01*
X8056230Y-17002960D02*
X8037182Y-17012484D01*
X8037182Y-17012484D02*
X8008610Y-17012484D01*
X8189563Y-17012484D02*
X8170515Y-17002960D01*
X8170515Y-17002960D02*
X8160991Y-16983912D01*
X8160991Y-16983912D02*
X8160991Y-16812484D01*
X8341944Y-17002960D02*
X8322896Y-17012484D01*
X8322896Y-17012484D02*
X8284801Y-17012484D01*
X8284801Y-17012484D02*
X8265753Y-17002960D01*
X8265753Y-17002960D02*
X8256230Y-16983912D01*
X8256230Y-16983912D02*
X8256230Y-16907722D01*
X8256230Y-16907722D02*
X8265753Y-16888674D01*
X8265753Y-16888674D02*
X8284801Y-16879150D01*
X8284801Y-16879150D02*
X8322896Y-16879150D01*
X8322896Y-16879150D02*
X8341944Y-16888674D01*
X8341944Y-16888674D02*
X8351468Y-16907722D01*
X8351468Y-16907722D02*
X8351468Y-16926770D01*
X8351468Y-16926770D02*
X8256230Y-16945817D01*
X8427658Y-17002960D02*
X8446706Y-17012484D01*
X8446706Y-17012484D02*
X8484801Y-17012484D01*
X8484801Y-17012484D02*
X8503849Y-17002960D01*
X8503849Y-17002960D02*
X8513373Y-16983912D01*
X8513373Y-16983912D02*
X8513373Y-16974389D01*
X8513373Y-16974389D02*
X8503849Y-16955341D01*
X8503849Y-16955341D02*
X8484801Y-16945817D01*
X8484801Y-16945817D02*
X8456230Y-16945817D01*
X8456230Y-16945817D02*
X8437182Y-16936293D01*
X8437182Y-16936293D02*
X8427658Y-16917246D01*
X8427658Y-16917246D02*
X8427658Y-16907722D01*
X8427658Y-16907722D02*
X8437182Y-16888674D01*
X8437182Y-16888674D02*
X8456230Y-16879150D01*
X8456230Y-16879150D02*
X8484801Y-16879150D01*
X8484801Y-16879150D02*
X8503849Y-16888674D01*
X8580039Y-17088674D02*
X8589563Y-17079150D01*
X8589563Y-17079150D02*
X8608611Y-17050579D01*
X8608611Y-17050579D02*
X8618134Y-17031531D01*
X8618134Y-17031531D02*
X8627658Y-17002960D01*
X8627658Y-17002960D02*
X8637182Y-16955341D01*
X8637182Y-16955341D02*
X8637182Y-16917246D01*
X8637182Y-16917246D02*
X8627658Y-16869627D01*
X8627658Y-16869627D02*
X8618134Y-16841055D01*
X8618134Y-16841055D02*
X8608611Y-16822008D01*
X8608611Y-16822008D02*
X8589563Y-16793436D01*
X8589563Y-16793436D02*
X8580039Y-16783912D01*
D10*
X3599856Y-17220356D02*
X3599856Y-17149644D01*
X3529144Y-17149644D01*
X3529144Y-17220356D01*
X3599856Y-17220356D01*
D11*
X3980039Y-17276484D02*
X3865753Y-17276484D01*
X3922896Y-17276484D02*
X3922896Y-17076484D01*
X3922896Y-17076484D02*
X3903848Y-17105055D01*
X3903848Y-17105055D02*
X3884801Y-17124103D01*
X3884801Y-17124103D02*
X3865753Y-17133627D01*
X4065753Y-17257436D02*
X4075277Y-17266960D01*
X4075277Y-17266960D02*
X4065753Y-17276484D01*
X4065753Y-17276484D02*
X4056229Y-17266960D01*
X4056229Y-17266960D02*
X4065753Y-17257436D01*
X4065753Y-17257436D02*
X4065753Y-17276484D01*
X4199086Y-17076484D02*
X4218134Y-17076484D01*
X4218134Y-17076484D02*
X4237182Y-17086008D01*
X4237182Y-17086008D02*
X4246705Y-17095531D01*
X4246705Y-17095531D02*
X4256229Y-17114579D01*
X4256229Y-17114579D02*
X4265753Y-17152674D01*
X4265753Y-17152674D02*
X4265753Y-17200293D01*
X4265753Y-17200293D02*
X4256229Y-17238389D01*
X4256229Y-17238389D02*
X4246705Y-17257436D01*
X4246705Y-17257436D02*
X4237182Y-17266960D01*
X4237182Y-17266960D02*
X4218134Y-17276484D01*
X4218134Y-17276484D02*
X4199086Y-17276484D01*
X4199086Y-17276484D02*
X4180039Y-17266960D01*
X4180039Y-17266960D02*
X4170515Y-17257436D01*
X4170515Y-17257436D02*
X4160991Y-17238389D01*
X4160991Y-17238389D02*
X4151467Y-17200293D01*
X4151467Y-17200293D02*
X4151467Y-17152674D01*
X4151467Y-17152674D02*
X4160991Y-17114579D01*
X4160991Y-17114579D02*
X4170515Y-17095531D01*
X4170515Y-17095531D02*
X4180039Y-17086008D01*
X4180039Y-17086008D02*
X4199086Y-17076484D01*
X4389563Y-17076484D02*
X4408610Y-17076484D01*
X4408610Y-17076484D02*
X4427658Y-17086008D01*
X4427658Y-17086008D02*
X4437182Y-17095531D01*
X4437182Y-17095531D02*
X4446705Y-17114579D01*
X4446705Y-17114579D02*
X4456229Y-17152674D01*
X4456229Y-17152674D02*
X4456229Y-17200293D01*
X4456229Y-17200293D02*
X4446705Y-17238389D01*
X4446705Y-17238389D02*
X4437182Y-17257436D01*
X4437182Y-17257436D02*
X4427658Y-17266960D01*
X4427658Y-17266960D02*
X4408610Y-17276484D01*
X4408610Y-17276484D02*
X4389563Y-17276484D01*
X4389563Y-17276484D02*
X4370515Y-17266960D01*
X4370515Y-17266960D02*
X4360991Y-17257436D01*
X4360991Y-17257436D02*
X4351467Y-17238389D01*
X4351467Y-17238389D02*
X4341944Y-17200293D01*
X4341944Y-17200293D02*
X4341944Y-17152674D01*
X4341944Y-17152674D02*
X4351467Y-17114579D01*
X4351467Y-17114579D02*
X4360991Y-17095531D01*
X4360991Y-17095531D02*
X4370515Y-17086008D01*
X4370515Y-17086008D02*
X4389563Y-17076484D01*
X4580039Y-17076484D02*
X4599086Y-17076484D01*
X4599086Y-17076484D02*
X4618134Y-17086008D01*
X4618134Y-17086008D02*
X4627658Y-17095531D01*
X4627658Y-17095531D02*
X4637182Y-17114579D01*
X4637182Y-17114579D02*
X4646705Y-17152674D01*
X4646705Y-17152674D02*
X4646705Y-17200293D01*
X4646705Y-17200293D02*
X4637182Y-17238389D01*
X4637182Y-17238389D02*
X4627658Y-17257436D01*
X4627658Y-17257436D02*
X4618134Y-17266960D01*
X4618134Y-17266960D02*
X4599086Y-17276484D01*
X4599086Y-17276484D02*
X4580039Y-17276484D01*
X4580039Y-17276484D02*
X4560991Y-17266960D01*
X4560991Y-17266960D02*
X4551467Y-17257436D01*
X4551467Y-17257436D02*
X4541944Y-17238389D01*
X4541944Y-17238389D02*
X4532420Y-17200293D01*
X4532420Y-17200293D02*
X4532420Y-17152674D01*
X4532420Y-17152674D02*
X4541944Y-17114579D01*
X4541944Y-17114579D02*
X4551467Y-17095531D01*
X4551467Y-17095531D02*
X4560991Y-17086008D01*
X4560991Y-17086008D02*
X4580039Y-17076484D01*
X4732420Y-17276484D02*
X4732420Y-17143150D01*
X4732420Y-17162198D02*
X4741944Y-17152674D01*
X4741944Y-17152674D02*
X4760991Y-17143150D01*
X4760991Y-17143150D02*
X4789563Y-17143150D01*
X4789563Y-17143150D02*
X4808610Y-17152674D01*
X4808610Y-17152674D02*
X4818134Y-17171722D01*
X4818134Y-17171722D02*
X4818134Y-17276484D01*
X4818134Y-17171722D02*
X4827658Y-17152674D01*
X4827658Y-17152674D02*
X4846705Y-17143150D01*
X4846705Y-17143150D02*
X4875277Y-17143150D01*
X4875277Y-17143150D02*
X4894325Y-17152674D01*
X4894325Y-17152674D02*
X4903848Y-17171722D01*
X4903848Y-17171722D02*
X4903848Y-17276484D01*
X4999086Y-17276484D02*
X4999086Y-17143150D01*
X4999086Y-17162198D02*
X5008610Y-17152674D01*
X5008610Y-17152674D02*
X5027658Y-17143150D01*
X5027658Y-17143150D02*
X5056229Y-17143150D01*
X5056229Y-17143150D02*
X5075277Y-17152674D01*
X5075277Y-17152674D02*
X5084801Y-17171722D01*
X5084801Y-17171722D02*
X5084801Y-17276484D01*
X5084801Y-17171722D02*
X5094325Y-17152674D01*
X5094325Y-17152674D02*
X5113372Y-17143150D01*
X5113372Y-17143150D02*
X5141944Y-17143150D01*
X5141944Y-17143150D02*
X5160991Y-17152674D01*
X5160991Y-17152674D02*
X5170515Y-17171722D01*
X5170515Y-17171722D02*
X5170515Y-17276484D01*
X5560991Y-17066960D02*
X5389563Y-17324103D01*
X5818134Y-17076484D02*
X5837182Y-17076484D01*
X5837182Y-17076484D02*
X5856229Y-17086008D01*
X5856229Y-17086008D02*
X5865753Y-17095531D01*
X5865753Y-17095531D02*
X5875277Y-17114579D01*
X5875277Y-17114579D02*
X5884801Y-17152674D01*
X5884801Y-17152674D02*
X5884801Y-17200293D01*
X5884801Y-17200293D02*
X5875277Y-17238389D01*
X5875277Y-17238389D02*
X5865753Y-17257436D01*
X5865753Y-17257436D02*
X5856229Y-17266960D01*
X5856229Y-17266960D02*
X5837182Y-17276484D01*
X5837182Y-17276484D02*
X5818134Y-17276484D01*
X5818134Y-17276484D02*
X5799086Y-17266960D01*
X5799086Y-17266960D02*
X5789563Y-17257436D01*
X5789563Y-17257436D02*
X5780039Y-17238389D01*
X5780039Y-17238389D02*
X5770515Y-17200293D01*
X5770515Y-17200293D02*
X5770515Y-17152674D01*
X5770515Y-17152674D02*
X5780039Y-17114579D01*
X5780039Y-17114579D02*
X5789563Y-17095531D01*
X5789563Y-17095531D02*
X5799086Y-17086008D01*
X5799086Y-17086008D02*
X5818134Y-17076484D01*
X5970515Y-17257436D02*
X5980039Y-17266960D01*
X5980039Y-17266960D02*
X5970515Y-17276484D01*
X5970515Y-17276484D02*
X5960991Y-17266960D01*
X5960991Y-17266960D02*
X5970515Y-17257436D01*
X5970515Y-17257436D02*
X5970515Y-17276484D01*
X6103848Y-17076484D02*
X6122896Y-17076484D01*
X6122896Y-17076484D02*
X6141944Y-17086008D01*
X6141944Y-17086008D02*
X6151467Y-17095531D01*
X6151467Y-17095531D02*
X6160991Y-17114579D01*
X6160991Y-17114579D02*
X6170515Y-17152674D01*
X6170515Y-17152674D02*
X6170515Y-17200293D01*
X6170515Y-17200293D02*
X6160991Y-17238389D01*
X6160991Y-17238389D02*
X6151467Y-17257436D01*
X6151467Y-17257436D02*
X6141944Y-17266960D01*
X6141944Y-17266960D02*
X6122896Y-17276484D01*
X6122896Y-17276484D02*
X6103848Y-17276484D01*
X6103848Y-17276484D02*
X6084801Y-17266960D01*
X6084801Y-17266960D02*
X6075277Y-17257436D01*
X6075277Y-17257436D02*
X6065753Y-17238389D01*
X6065753Y-17238389D02*
X6056229Y-17200293D01*
X6056229Y-17200293D02*
X6056229Y-17152674D01*
X6056229Y-17152674D02*
X6065753Y-17114579D01*
X6065753Y-17114579D02*
X6075277Y-17095531D01*
X6075277Y-17095531D02*
X6084801Y-17086008D01*
X6084801Y-17086008D02*
X6103848Y-17076484D01*
X6237182Y-17076484D02*
X6360991Y-17076484D01*
X6360991Y-17076484D02*
X6294325Y-17152674D01*
X6294325Y-17152674D02*
X6322896Y-17152674D01*
X6322896Y-17152674D02*
X6341944Y-17162198D01*
X6341944Y-17162198D02*
X6351467Y-17171722D01*
X6351467Y-17171722D02*
X6360991Y-17190770D01*
X6360991Y-17190770D02*
X6360991Y-17238389D01*
X6360991Y-17238389D02*
X6351467Y-17257436D01*
X6351467Y-17257436D02*
X6341944Y-17266960D01*
X6341944Y-17266960D02*
X6322896Y-17276484D01*
X6322896Y-17276484D02*
X6265753Y-17276484D01*
X6265753Y-17276484D02*
X6246706Y-17266960D01*
X6246706Y-17266960D02*
X6237182Y-17257436D01*
X6456229Y-17276484D02*
X6494325Y-17276484D01*
X6494325Y-17276484D02*
X6513372Y-17266960D01*
X6513372Y-17266960D02*
X6522896Y-17257436D01*
X6522896Y-17257436D02*
X6541944Y-17228865D01*
X6541944Y-17228865D02*
X6551467Y-17190770D01*
X6551467Y-17190770D02*
X6551467Y-17114579D01*
X6551467Y-17114579D02*
X6541944Y-17095531D01*
X6541944Y-17095531D02*
X6532420Y-17086008D01*
X6532420Y-17086008D02*
X6513372Y-17076484D01*
X6513372Y-17076484D02*
X6475277Y-17076484D01*
X6475277Y-17076484D02*
X6456229Y-17086008D01*
X6456229Y-17086008D02*
X6446706Y-17095531D01*
X6446706Y-17095531D02*
X6437182Y-17114579D01*
X6437182Y-17114579D02*
X6437182Y-17162198D01*
X6437182Y-17162198D02*
X6446706Y-17181246D01*
X6446706Y-17181246D02*
X6456229Y-17190770D01*
X6456229Y-17190770D02*
X6475277Y-17200293D01*
X6475277Y-17200293D02*
X6513372Y-17200293D01*
X6513372Y-17200293D02*
X6532420Y-17190770D01*
X6532420Y-17190770D02*
X6541944Y-17181246D01*
X6541944Y-17181246D02*
X6551467Y-17162198D01*
X6722896Y-17143150D02*
X6722896Y-17276484D01*
X6675277Y-17066960D02*
X6627658Y-17209817D01*
X6627658Y-17209817D02*
X6751467Y-17209817D01*
X6818134Y-17076484D02*
X6818134Y-17114579D01*
X6894325Y-17076484D02*
X6894325Y-17114579D01*
X7189563Y-17352674D02*
X7180039Y-17343150D01*
X7180039Y-17343150D02*
X7160991Y-17314579D01*
X7160991Y-17314579D02*
X7151468Y-17295531D01*
X7151468Y-17295531D02*
X7141944Y-17266960D01*
X7141944Y-17266960D02*
X7132420Y-17219341D01*
X7132420Y-17219341D02*
X7132420Y-17181246D01*
X7132420Y-17181246D02*
X7141944Y-17133627D01*
X7141944Y-17133627D02*
X7151468Y-17105055D01*
X7151468Y-17105055D02*
X7160991Y-17086008D01*
X7160991Y-17086008D02*
X7180039Y-17057436D01*
X7180039Y-17057436D02*
X7189563Y-17047912D01*
X7360991Y-17076484D02*
X7265753Y-17076484D01*
X7265753Y-17076484D02*
X7256229Y-17171722D01*
X7256229Y-17171722D02*
X7265753Y-17162198D01*
X7265753Y-17162198D02*
X7284801Y-17152674D01*
X7284801Y-17152674D02*
X7332420Y-17152674D01*
X7332420Y-17152674D02*
X7351468Y-17162198D01*
X7351468Y-17162198D02*
X7360991Y-17171722D01*
X7360991Y-17171722D02*
X7370515Y-17190770D01*
X7370515Y-17190770D02*
X7370515Y-17238389D01*
X7370515Y-17238389D02*
X7360991Y-17257436D01*
X7360991Y-17257436D02*
X7351468Y-17266960D01*
X7351468Y-17266960D02*
X7332420Y-17276484D01*
X7332420Y-17276484D02*
X7284801Y-17276484D01*
X7284801Y-17276484D02*
X7265753Y-17266960D01*
X7265753Y-17266960D02*
X7256229Y-17257436D01*
X7494325Y-17076484D02*
X7513372Y-17076484D01*
X7513372Y-17076484D02*
X7532420Y-17086008D01*
X7532420Y-17086008D02*
X7541944Y-17095531D01*
X7541944Y-17095531D02*
X7551468Y-17114579D01*
X7551468Y-17114579D02*
X7560991Y-17152674D01*
X7560991Y-17152674D02*
X7560991Y-17200293D01*
X7560991Y-17200293D02*
X7551468Y-17238389D01*
X7551468Y-17238389D02*
X7541944Y-17257436D01*
X7541944Y-17257436D02*
X7532420Y-17266960D01*
X7532420Y-17266960D02*
X7513372Y-17276484D01*
X7513372Y-17276484D02*
X7494325Y-17276484D01*
X7494325Y-17276484D02*
X7475277Y-17266960D01*
X7475277Y-17266960D02*
X7465753Y-17257436D01*
X7465753Y-17257436D02*
X7456229Y-17238389D01*
X7456229Y-17238389D02*
X7446706Y-17200293D01*
X7446706Y-17200293D02*
X7446706Y-17152674D01*
X7446706Y-17152674D02*
X7456229Y-17114579D01*
X7456229Y-17114579D02*
X7465753Y-17095531D01*
X7465753Y-17095531D02*
X7475277Y-17086008D01*
X7475277Y-17086008D02*
X7494325Y-17076484D01*
X7799087Y-17276484D02*
X7799087Y-17076484D01*
X7884801Y-17276484D02*
X7884801Y-17171722D01*
X7884801Y-17171722D02*
X7875277Y-17152674D01*
X7875277Y-17152674D02*
X7856230Y-17143150D01*
X7856230Y-17143150D02*
X7827658Y-17143150D01*
X7827658Y-17143150D02*
X7808610Y-17152674D01*
X7808610Y-17152674D02*
X7799087Y-17162198D01*
X8008610Y-17276484D02*
X7989563Y-17266960D01*
X7989563Y-17266960D02*
X7980039Y-17257436D01*
X7980039Y-17257436D02*
X7970515Y-17238389D01*
X7970515Y-17238389D02*
X7970515Y-17181246D01*
X7970515Y-17181246D02*
X7980039Y-17162198D01*
X7980039Y-17162198D02*
X7989563Y-17152674D01*
X7989563Y-17152674D02*
X8008610Y-17143150D01*
X8008610Y-17143150D02*
X8037182Y-17143150D01*
X8037182Y-17143150D02*
X8056230Y-17152674D01*
X8056230Y-17152674D02*
X8065753Y-17162198D01*
X8065753Y-17162198D02*
X8075277Y-17181246D01*
X8075277Y-17181246D02*
X8075277Y-17238389D01*
X8075277Y-17238389D02*
X8065753Y-17257436D01*
X8065753Y-17257436D02*
X8056230Y-17266960D01*
X8056230Y-17266960D02*
X8037182Y-17276484D01*
X8037182Y-17276484D02*
X8008610Y-17276484D01*
X8189563Y-17276484D02*
X8170515Y-17266960D01*
X8170515Y-17266960D02*
X8160991Y-17247912D01*
X8160991Y-17247912D02*
X8160991Y-17076484D01*
X8341944Y-17266960D02*
X8322896Y-17276484D01*
X8322896Y-17276484D02*
X8284801Y-17276484D01*
X8284801Y-17276484D02*
X8265753Y-17266960D01*
X8265753Y-17266960D02*
X8256230Y-17247912D01*
X8256230Y-17247912D02*
X8256230Y-17171722D01*
X8256230Y-17171722D02*
X8265753Y-17152674D01*
X8265753Y-17152674D02*
X8284801Y-17143150D01*
X8284801Y-17143150D02*
X8322896Y-17143150D01*
X8322896Y-17143150D02*
X8341944Y-17152674D01*
X8341944Y-17152674D02*
X8351468Y-17171722D01*
X8351468Y-17171722D02*
X8351468Y-17190770D01*
X8351468Y-17190770D02*
X8256230Y-17209817D01*
X8427658Y-17266960D02*
X8446706Y-17276484D01*
X8446706Y-17276484D02*
X8484801Y-17276484D01*
X8484801Y-17276484D02*
X8503849Y-17266960D01*
X8503849Y-17266960D02*
X8513373Y-17247912D01*
X8513373Y-17247912D02*
X8513373Y-17238389D01*
X8513373Y-17238389D02*
X8503849Y-17219341D01*
X8503849Y-17219341D02*
X8484801Y-17209817D01*
X8484801Y-17209817D02*
X8456230Y-17209817D01*
X8456230Y-17209817D02*
X8437182Y-17200293D01*
X8437182Y-17200293D02*
X8427658Y-17181246D01*
X8427658Y-17181246D02*
X8427658Y-17171722D01*
X8427658Y-17171722D02*
X8437182Y-17152674D01*
X8437182Y-17152674D02*
X8456230Y-17143150D01*
X8456230Y-17143150D02*
X8484801Y-17143150D01*
X8484801Y-17143150D02*
X8503849Y-17152674D01*
X8751468Y-17200293D02*
X8903849Y-17200293D01*
X8827658Y-17276484D02*
X8827658Y-17124103D01*
X9141944Y-17095531D02*
X9151468Y-17086008D01*
X9151468Y-17086008D02*
X9170515Y-17076484D01*
X9170515Y-17076484D02*
X9218135Y-17076484D01*
X9218135Y-17076484D02*
X9237182Y-17086008D01*
X9237182Y-17086008D02*
X9246706Y-17095531D01*
X9246706Y-17095531D02*
X9256230Y-17114579D01*
X9256230Y-17114579D02*
X9256230Y-17133627D01*
X9256230Y-17133627D02*
X9246706Y-17162198D01*
X9246706Y-17162198D02*
X9132420Y-17276484D01*
X9132420Y-17276484D02*
X9256230Y-17276484D01*
X9322896Y-17076484D02*
X9456230Y-17076484D01*
X9456230Y-17076484D02*
X9370515Y-17276484D01*
X9675277Y-17266960D02*
X9694325Y-17276484D01*
X9694325Y-17276484D02*
X9732420Y-17276484D01*
X9732420Y-17276484D02*
X9751468Y-17266960D01*
X9751468Y-17266960D02*
X9760992Y-17247912D01*
X9760992Y-17247912D02*
X9760992Y-17238389D01*
X9760992Y-17238389D02*
X9751468Y-17219341D01*
X9751468Y-17219341D02*
X9732420Y-17209817D01*
X9732420Y-17209817D02*
X9703849Y-17209817D01*
X9703849Y-17209817D02*
X9684801Y-17200293D01*
X9684801Y-17200293D02*
X9675277Y-17181246D01*
X9675277Y-17181246D02*
X9675277Y-17171722D01*
X9675277Y-17171722D02*
X9684801Y-17152674D01*
X9684801Y-17152674D02*
X9703849Y-17143150D01*
X9703849Y-17143150D02*
X9732420Y-17143150D01*
X9732420Y-17143150D02*
X9751468Y-17152674D01*
X9875277Y-17276484D02*
X9856230Y-17266960D01*
X9856230Y-17266960D02*
X9846706Y-17247912D01*
X9846706Y-17247912D02*
X9846706Y-17076484D01*
X9980039Y-17276484D02*
X9960992Y-17266960D01*
X9960992Y-17266960D02*
X9951468Y-17257436D01*
X9951468Y-17257436D02*
X9941944Y-17238389D01*
X9941944Y-17238389D02*
X9941944Y-17181246D01*
X9941944Y-17181246D02*
X9951468Y-17162198D01*
X9951468Y-17162198D02*
X9960992Y-17152674D01*
X9960992Y-17152674D02*
X9980039Y-17143150D01*
X9980039Y-17143150D02*
X10008611Y-17143150D01*
X10008611Y-17143150D02*
X10027658Y-17152674D01*
X10027658Y-17152674D02*
X10037182Y-17162198D01*
X10037182Y-17162198D02*
X10046706Y-17181246D01*
X10046706Y-17181246D02*
X10046706Y-17238389D01*
X10046706Y-17238389D02*
X10037182Y-17257436D01*
X10037182Y-17257436D02*
X10027658Y-17266960D01*
X10027658Y-17266960D02*
X10008611Y-17276484D01*
X10008611Y-17276484D02*
X9980039Y-17276484D01*
X10103849Y-17143150D02*
X10180039Y-17143150D01*
X10132420Y-17076484D02*
X10132420Y-17247912D01*
X10132420Y-17247912D02*
X10141944Y-17266960D01*
X10141944Y-17266960D02*
X10160992Y-17276484D01*
X10160992Y-17276484D02*
X10180039Y-17276484D01*
X10237182Y-17266960D02*
X10256230Y-17276484D01*
X10256230Y-17276484D02*
X10294325Y-17276484D01*
X10294325Y-17276484D02*
X10313373Y-17266960D01*
X10313373Y-17266960D02*
X10322897Y-17247912D01*
X10322897Y-17247912D02*
X10322897Y-17238389D01*
X10322897Y-17238389D02*
X10313373Y-17219341D01*
X10313373Y-17219341D02*
X10294325Y-17209817D01*
X10294325Y-17209817D02*
X10265754Y-17209817D01*
X10265754Y-17209817D02*
X10246706Y-17200293D01*
X10246706Y-17200293D02*
X10237182Y-17181246D01*
X10237182Y-17181246D02*
X10237182Y-17171722D01*
X10237182Y-17171722D02*
X10246706Y-17152674D01*
X10246706Y-17152674D02*
X10265754Y-17143150D01*
X10265754Y-17143150D02*
X10294325Y-17143150D01*
X10294325Y-17143150D02*
X10313373Y-17152674D01*
X10389563Y-17352674D02*
X10399087Y-17343150D01*
X10399087Y-17343150D02*
X10418135Y-17314579D01*
X10418135Y-17314579D02*
X10427658Y-17295531D01*
X10427658Y-17295531D02*
X10437182Y-17266960D01*
X10437182Y-17266960D02*
X10446706Y-17219341D01*
X10446706Y-17219341D02*
X10446706Y-17181246D01*
X10446706Y-17181246D02*
X10437182Y-17133627D01*
X10437182Y-17133627D02*
X10427658Y-17105055D01*
X10427658Y-17105055D02*
X10418135Y-17086008D01*
X10418135Y-17086008D02*
X10399087Y-17057436D01*
X10399087Y-17057436D02*
X10389563Y-17047912D01*
X3514500Y-17549000D02*
X3614500Y-17449000D01*
X3514500Y-17349000D01*
X3414500Y-17449000D01*
X3514500Y-17549000D01*
X3865753Y-17359531D02*
X3875277Y-17350008D01*
X3875277Y-17350008D02*
X3894324Y-17340484D01*
X3894324Y-17340484D02*
X3941943Y-17340484D01*
X3941943Y-17340484D02*
X3960991Y-17350008D01*
X3960991Y-17350008D02*
X3970515Y-17359531D01*
X3970515Y-17359531D02*
X3980039Y-17378579D01*
X3980039Y-17378579D02*
X3980039Y-17397627D01*
X3980039Y-17397627D02*
X3970515Y-17426198D01*
X3970515Y-17426198D02*
X3856229Y-17540484D01*
X3856229Y-17540484D02*
X3980039Y-17540484D01*
X4065753Y-17521436D02*
X4075277Y-17530960D01*
X4075277Y-17530960D02*
X4065753Y-17540484D01*
X4065753Y-17540484D02*
X4056229Y-17530960D01*
X4056229Y-17530960D02*
X4065753Y-17521436D01*
X4065753Y-17521436D02*
X4065753Y-17540484D01*
X4151467Y-17359531D02*
X4160991Y-17350008D01*
X4160991Y-17350008D02*
X4180039Y-17340484D01*
X4180039Y-17340484D02*
X4227658Y-17340484D01*
X4227658Y-17340484D02*
X4246705Y-17350008D01*
X4246705Y-17350008D02*
X4256229Y-17359531D01*
X4256229Y-17359531D02*
X4265753Y-17378579D01*
X4265753Y-17378579D02*
X4265753Y-17397627D01*
X4265753Y-17397627D02*
X4256229Y-17426198D01*
X4256229Y-17426198D02*
X4141943Y-17540484D01*
X4141943Y-17540484D02*
X4265753Y-17540484D01*
X4389563Y-17340484D02*
X4408610Y-17340484D01*
X4408610Y-17340484D02*
X4427658Y-17350008D01*
X4427658Y-17350008D02*
X4437182Y-17359531D01*
X4437182Y-17359531D02*
X4446705Y-17378579D01*
X4446705Y-17378579D02*
X4456229Y-17416674D01*
X4456229Y-17416674D02*
X4456229Y-17464293D01*
X4456229Y-17464293D02*
X4446705Y-17502389D01*
X4446705Y-17502389D02*
X4437182Y-17521436D01*
X4437182Y-17521436D02*
X4427658Y-17530960D01*
X4427658Y-17530960D02*
X4408610Y-17540484D01*
X4408610Y-17540484D02*
X4389563Y-17540484D01*
X4389563Y-17540484D02*
X4370515Y-17530960D01*
X4370515Y-17530960D02*
X4360991Y-17521436D01*
X4360991Y-17521436D02*
X4351467Y-17502389D01*
X4351467Y-17502389D02*
X4341944Y-17464293D01*
X4341944Y-17464293D02*
X4341944Y-17416674D01*
X4341944Y-17416674D02*
X4351467Y-17378579D01*
X4351467Y-17378579D02*
X4360991Y-17359531D01*
X4360991Y-17359531D02*
X4370515Y-17350008D01*
X4370515Y-17350008D02*
X4389563Y-17340484D01*
X4580039Y-17340484D02*
X4599086Y-17340484D01*
X4599086Y-17340484D02*
X4618134Y-17350008D01*
X4618134Y-17350008D02*
X4627658Y-17359531D01*
X4627658Y-17359531D02*
X4637182Y-17378579D01*
X4637182Y-17378579D02*
X4646705Y-17416674D01*
X4646705Y-17416674D02*
X4646705Y-17464293D01*
X4646705Y-17464293D02*
X4637182Y-17502389D01*
X4637182Y-17502389D02*
X4627658Y-17521436D01*
X4627658Y-17521436D02*
X4618134Y-17530960D01*
X4618134Y-17530960D02*
X4599086Y-17540484D01*
X4599086Y-17540484D02*
X4580039Y-17540484D01*
X4580039Y-17540484D02*
X4560991Y-17530960D01*
X4560991Y-17530960D02*
X4551467Y-17521436D01*
X4551467Y-17521436D02*
X4541944Y-17502389D01*
X4541944Y-17502389D02*
X4532420Y-17464293D01*
X4532420Y-17464293D02*
X4532420Y-17416674D01*
X4532420Y-17416674D02*
X4541944Y-17378579D01*
X4541944Y-17378579D02*
X4551467Y-17359531D01*
X4551467Y-17359531D02*
X4560991Y-17350008D01*
X4560991Y-17350008D02*
X4580039Y-17340484D01*
X4732420Y-17540484D02*
X4732420Y-17407150D01*
X4732420Y-17426198D02*
X4741944Y-17416674D01*
X4741944Y-17416674D02*
X4760991Y-17407150D01*
X4760991Y-17407150D02*
X4789563Y-17407150D01*
X4789563Y-17407150D02*
X4808610Y-17416674D01*
X4808610Y-17416674D02*
X4818134Y-17435722D01*
X4818134Y-17435722D02*
X4818134Y-17540484D01*
X4818134Y-17435722D02*
X4827658Y-17416674D01*
X4827658Y-17416674D02*
X4846705Y-17407150D01*
X4846705Y-17407150D02*
X4875277Y-17407150D01*
X4875277Y-17407150D02*
X4894325Y-17416674D01*
X4894325Y-17416674D02*
X4903848Y-17435722D01*
X4903848Y-17435722D02*
X4903848Y-17540484D01*
X4999086Y-17540484D02*
X4999086Y-17407150D01*
X4999086Y-17426198D02*
X5008610Y-17416674D01*
X5008610Y-17416674D02*
X5027658Y-17407150D01*
X5027658Y-17407150D02*
X5056229Y-17407150D01*
X5056229Y-17407150D02*
X5075277Y-17416674D01*
X5075277Y-17416674D02*
X5084801Y-17435722D01*
X5084801Y-17435722D02*
X5084801Y-17540484D01*
X5084801Y-17435722D02*
X5094325Y-17416674D01*
X5094325Y-17416674D02*
X5113372Y-17407150D01*
X5113372Y-17407150D02*
X5141944Y-17407150D01*
X5141944Y-17407150D02*
X5160991Y-17416674D01*
X5160991Y-17416674D02*
X5170515Y-17435722D01*
X5170515Y-17435722D02*
X5170515Y-17540484D01*
X5560991Y-17330960D02*
X5389563Y-17588103D01*
X5818134Y-17340484D02*
X5837182Y-17340484D01*
X5837182Y-17340484D02*
X5856229Y-17350008D01*
X5856229Y-17350008D02*
X5865753Y-17359531D01*
X5865753Y-17359531D02*
X5875277Y-17378579D01*
X5875277Y-17378579D02*
X5884801Y-17416674D01*
X5884801Y-17416674D02*
X5884801Y-17464293D01*
X5884801Y-17464293D02*
X5875277Y-17502389D01*
X5875277Y-17502389D02*
X5865753Y-17521436D01*
X5865753Y-17521436D02*
X5856229Y-17530960D01*
X5856229Y-17530960D02*
X5837182Y-17540484D01*
X5837182Y-17540484D02*
X5818134Y-17540484D01*
X5818134Y-17540484D02*
X5799086Y-17530960D01*
X5799086Y-17530960D02*
X5789563Y-17521436D01*
X5789563Y-17521436D02*
X5780039Y-17502389D01*
X5780039Y-17502389D02*
X5770515Y-17464293D01*
X5770515Y-17464293D02*
X5770515Y-17416674D01*
X5770515Y-17416674D02*
X5780039Y-17378579D01*
X5780039Y-17378579D02*
X5789563Y-17359531D01*
X5789563Y-17359531D02*
X5799086Y-17350008D01*
X5799086Y-17350008D02*
X5818134Y-17340484D01*
X5970515Y-17521436D02*
X5980039Y-17530960D01*
X5980039Y-17530960D02*
X5970515Y-17540484D01*
X5970515Y-17540484D02*
X5960991Y-17530960D01*
X5960991Y-17530960D02*
X5970515Y-17521436D01*
X5970515Y-17521436D02*
X5970515Y-17540484D01*
X6103848Y-17340484D02*
X6122896Y-17340484D01*
X6122896Y-17340484D02*
X6141944Y-17350008D01*
X6141944Y-17350008D02*
X6151467Y-17359531D01*
X6151467Y-17359531D02*
X6160991Y-17378579D01*
X6160991Y-17378579D02*
X6170515Y-17416674D01*
X6170515Y-17416674D02*
X6170515Y-17464293D01*
X6170515Y-17464293D02*
X6160991Y-17502389D01*
X6160991Y-17502389D02*
X6151467Y-17521436D01*
X6151467Y-17521436D02*
X6141944Y-17530960D01*
X6141944Y-17530960D02*
X6122896Y-17540484D01*
X6122896Y-17540484D02*
X6103848Y-17540484D01*
X6103848Y-17540484D02*
X6084801Y-17530960D01*
X6084801Y-17530960D02*
X6075277Y-17521436D01*
X6075277Y-17521436D02*
X6065753Y-17502389D01*
X6065753Y-17502389D02*
X6056229Y-17464293D01*
X6056229Y-17464293D02*
X6056229Y-17416674D01*
X6056229Y-17416674D02*
X6065753Y-17378579D01*
X6065753Y-17378579D02*
X6075277Y-17359531D01*
X6075277Y-17359531D02*
X6084801Y-17350008D01*
X6084801Y-17350008D02*
X6103848Y-17340484D01*
X6284801Y-17426198D02*
X6265753Y-17416674D01*
X6265753Y-17416674D02*
X6256229Y-17407150D01*
X6256229Y-17407150D02*
X6246706Y-17388103D01*
X6246706Y-17388103D02*
X6246706Y-17378579D01*
X6246706Y-17378579D02*
X6256229Y-17359531D01*
X6256229Y-17359531D02*
X6265753Y-17350008D01*
X6265753Y-17350008D02*
X6284801Y-17340484D01*
X6284801Y-17340484D02*
X6322896Y-17340484D01*
X6322896Y-17340484D02*
X6341944Y-17350008D01*
X6341944Y-17350008D02*
X6351467Y-17359531D01*
X6351467Y-17359531D02*
X6360991Y-17378579D01*
X6360991Y-17378579D02*
X6360991Y-17388103D01*
X6360991Y-17388103D02*
X6351467Y-17407150D01*
X6351467Y-17407150D02*
X6341944Y-17416674D01*
X6341944Y-17416674D02*
X6322896Y-17426198D01*
X6322896Y-17426198D02*
X6284801Y-17426198D01*
X6284801Y-17426198D02*
X6265753Y-17435722D01*
X6265753Y-17435722D02*
X6256229Y-17445246D01*
X6256229Y-17445246D02*
X6246706Y-17464293D01*
X6246706Y-17464293D02*
X6246706Y-17502389D01*
X6246706Y-17502389D02*
X6256229Y-17521436D01*
X6256229Y-17521436D02*
X6265753Y-17530960D01*
X6265753Y-17530960D02*
X6284801Y-17540484D01*
X6284801Y-17540484D02*
X6322896Y-17540484D01*
X6322896Y-17540484D02*
X6341944Y-17530960D01*
X6341944Y-17530960D02*
X6351467Y-17521436D01*
X6351467Y-17521436D02*
X6360991Y-17502389D01*
X6360991Y-17502389D02*
X6360991Y-17464293D01*
X6360991Y-17464293D02*
X6351467Y-17445246D01*
X6351467Y-17445246D02*
X6341944Y-17435722D01*
X6341944Y-17435722D02*
X6322896Y-17426198D01*
X6532420Y-17340484D02*
X6494325Y-17340484D01*
X6494325Y-17340484D02*
X6475277Y-17350008D01*
X6475277Y-17350008D02*
X6465753Y-17359531D01*
X6465753Y-17359531D02*
X6446706Y-17388103D01*
X6446706Y-17388103D02*
X6437182Y-17426198D01*
X6437182Y-17426198D02*
X6437182Y-17502389D01*
X6437182Y-17502389D02*
X6446706Y-17521436D01*
X6446706Y-17521436D02*
X6456229Y-17530960D01*
X6456229Y-17530960D02*
X6475277Y-17540484D01*
X6475277Y-17540484D02*
X6513372Y-17540484D01*
X6513372Y-17540484D02*
X6532420Y-17530960D01*
X6532420Y-17530960D02*
X6541944Y-17521436D01*
X6541944Y-17521436D02*
X6551467Y-17502389D01*
X6551467Y-17502389D02*
X6551467Y-17454770D01*
X6551467Y-17454770D02*
X6541944Y-17435722D01*
X6541944Y-17435722D02*
X6532420Y-17426198D01*
X6532420Y-17426198D02*
X6513372Y-17416674D01*
X6513372Y-17416674D02*
X6475277Y-17416674D01*
X6475277Y-17416674D02*
X6456229Y-17426198D01*
X6456229Y-17426198D02*
X6446706Y-17435722D01*
X6446706Y-17435722D02*
X6437182Y-17454770D01*
X6722896Y-17340484D02*
X6684801Y-17340484D01*
X6684801Y-17340484D02*
X6665753Y-17350008D01*
X6665753Y-17350008D02*
X6656229Y-17359531D01*
X6656229Y-17359531D02*
X6637182Y-17388103D01*
X6637182Y-17388103D02*
X6627658Y-17426198D01*
X6627658Y-17426198D02*
X6627658Y-17502389D01*
X6627658Y-17502389D02*
X6637182Y-17521436D01*
X6637182Y-17521436D02*
X6646706Y-17530960D01*
X6646706Y-17530960D02*
X6665753Y-17540484D01*
X6665753Y-17540484D02*
X6703848Y-17540484D01*
X6703848Y-17540484D02*
X6722896Y-17530960D01*
X6722896Y-17530960D02*
X6732420Y-17521436D01*
X6732420Y-17521436D02*
X6741944Y-17502389D01*
X6741944Y-17502389D02*
X6741944Y-17454770D01*
X6741944Y-17454770D02*
X6732420Y-17435722D01*
X6732420Y-17435722D02*
X6722896Y-17426198D01*
X6722896Y-17426198D02*
X6703848Y-17416674D01*
X6703848Y-17416674D02*
X6665753Y-17416674D01*
X6665753Y-17416674D02*
X6646706Y-17426198D01*
X6646706Y-17426198D02*
X6637182Y-17435722D01*
X6637182Y-17435722D02*
X6627658Y-17454770D01*
X6818134Y-17340484D02*
X6818134Y-17378579D01*
X6894325Y-17340484D02*
X6894325Y-17378579D01*
X7189563Y-17616674D02*
X7180039Y-17607150D01*
X7180039Y-17607150D02*
X7160991Y-17578579D01*
X7160991Y-17578579D02*
X7151468Y-17559531D01*
X7151468Y-17559531D02*
X7141944Y-17530960D01*
X7141944Y-17530960D02*
X7132420Y-17483341D01*
X7132420Y-17483341D02*
X7132420Y-17445246D01*
X7132420Y-17445246D02*
X7141944Y-17397627D01*
X7141944Y-17397627D02*
X7151468Y-17369055D01*
X7151468Y-17369055D02*
X7160991Y-17350008D01*
X7160991Y-17350008D02*
X7180039Y-17321436D01*
X7180039Y-17321436D02*
X7189563Y-17311912D01*
X7351468Y-17407150D02*
X7351468Y-17540484D01*
X7303848Y-17330960D02*
X7256229Y-17473817D01*
X7256229Y-17473817D02*
X7380039Y-17473817D01*
X7608610Y-17540484D02*
X7608610Y-17340484D01*
X7694325Y-17540484D02*
X7694325Y-17435722D01*
X7694325Y-17435722D02*
X7684801Y-17416674D01*
X7684801Y-17416674D02*
X7665753Y-17407150D01*
X7665753Y-17407150D02*
X7637182Y-17407150D01*
X7637182Y-17407150D02*
X7618134Y-17416674D01*
X7618134Y-17416674D02*
X7608610Y-17426198D01*
X7818134Y-17540484D02*
X7799087Y-17530960D01*
X7799087Y-17530960D02*
X7789563Y-17521436D01*
X7789563Y-17521436D02*
X7780039Y-17502389D01*
X7780039Y-17502389D02*
X7780039Y-17445246D01*
X7780039Y-17445246D02*
X7789563Y-17426198D01*
X7789563Y-17426198D02*
X7799087Y-17416674D01*
X7799087Y-17416674D02*
X7818134Y-17407150D01*
X7818134Y-17407150D02*
X7846706Y-17407150D01*
X7846706Y-17407150D02*
X7865753Y-17416674D01*
X7865753Y-17416674D02*
X7875277Y-17426198D01*
X7875277Y-17426198D02*
X7884801Y-17445246D01*
X7884801Y-17445246D02*
X7884801Y-17502389D01*
X7884801Y-17502389D02*
X7875277Y-17521436D01*
X7875277Y-17521436D02*
X7865753Y-17530960D01*
X7865753Y-17530960D02*
X7846706Y-17540484D01*
X7846706Y-17540484D02*
X7818134Y-17540484D01*
X7999087Y-17540484D02*
X7980039Y-17530960D01*
X7980039Y-17530960D02*
X7970515Y-17511912D01*
X7970515Y-17511912D02*
X7970515Y-17340484D01*
X8151468Y-17530960D02*
X8132420Y-17540484D01*
X8132420Y-17540484D02*
X8094325Y-17540484D01*
X8094325Y-17540484D02*
X8075277Y-17530960D01*
X8075277Y-17530960D02*
X8065753Y-17511912D01*
X8065753Y-17511912D02*
X8065753Y-17435722D01*
X8065753Y-17435722D02*
X8075277Y-17416674D01*
X8075277Y-17416674D02*
X8094325Y-17407150D01*
X8094325Y-17407150D02*
X8132420Y-17407150D01*
X8132420Y-17407150D02*
X8151468Y-17416674D01*
X8151468Y-17416674D02*
X8160991Y-17435722D01*
X8160991Y-17435722D02*
X8160991Y-17454770D01*
X8160991Y-17454770D02*
X8065753Y-17473817D01*
X8237182Y-17530960D02*
X8256230Y-17540484D01*
X8256230Y-17540484D02*
X8294325Y-17540484D01*
X8294325Y-17540484D02*
X8313372Y-17530960D01*
X8313372Y-17530960D02*
X8322896Y-17511912D01*
X8322896Y-17511912D02*
X8322896Y-17502389D01*
X8322896Y-17502389D02*
X8313372Y-17483341D01*
X8313372Y-17483341D02*
X8294325Y-17473817D01*
X8294325Y-17473817D02*
X8265753Y-17473817D01*
X8265753Y-17473817D02*
X8246706Y-17464293D01*
X8246706Y-17464293D02*
X8237182Y-17445246D01*
X8237182Y-17445246D02*
X8237182Y-17435722D01*
X8237182Y-17435722D02*
X8246706Y-17416674D01*
X8246706Y-17416674D02*
X8265753Y-17407150D01*
X8265753Y-17407150D02*
X8294325Y-17407150D01*
X8294325Y-17407150D02*
X8313372Y-17416674D01*
X8389563Y-17616674D02*
X8399087Y-17607150D01*
X8399087Y-17607150D02*
X8418134Y-17578579D01*
X8418134Y-17578579D02*
X8427658Y-17559531D01*
X8427658Y-17559531D02*
X8437182Y-17530960D01*
X8437182Y-17530960D02*
X8446706Y-17483341D01*
X8446706Y-17483341D02*
X8446706Y-17445246D01*
X8446706Y-17445246D02*
X8437182Y-17397627D01*
X8437182Y-17397627D02*
X8427658Y-17369055D01*
X8427658Y-17369055D02*
X8418134Y-17350008D01*
X8418134Y-17350008D02*
X8399087Y-17321436D01*
X8399087Y-17321436D02*
X8389563Y-17311912D01*
M02*
