%TF.GenerationSoftware,KiCad,Pcbnew,7.0.7*%
%TF.CreationDate,2026-08-17T21:27:45-05:00*%
%TF.ProjectId,Backplane,4261636b-706c-4616-9e65-2e6b69636164,rev?*%
%TF.SameCoordinates,Original*%
%TF.FileFunction,Legend,Bot*%
%TF.FilePolarity,Positive*%
%FSLAX46Y46*%
G04 Gerber Fmt 4.6, Leading zero omitted, Abs format (unit mm)*
G04 Created by KiCad (PCBNEW 7.0.7) date 2026-08-17 21:27:45*
%MOMM*%
%LPD*%
G01*
G04 APERTURE LIST*
%ADD10C,0.150000*%
G04 APERTURE END LIST*
D10*
X244662438Y-38960588D02*
X244614819Y-38865350D01*
X244614819Y-38865350D02*
X244614819Y-38722493D01*
X244614819Y-38722493D02*
X244662438Y-38579636D01*
X244662438Y-38579636D02*
X244757676Y-38484398D01*
X244757676Y-38484398D02*
X244852914Y-38436779D01*
X244852914Y-38436779D02*
X245043390Y-38389160D01*
X245043390Y-38389160D02*
X245186247Y-38389160D01*
X245186247Y-38389160D02*
X245376723Y-38436779D01*
X245376723Y-38436779D02*
X245471961Y-38484398D01*
X245471961Y-38484398D02*
X245567200Y-38579636D01*
X245567200Y-38579636D02*
X245614819Y-38722493D01*
X245614819Y-38722493D02*
X245614819Y-38817731D01*
X245614819Y-38817731D02*
X245567200Y-38960588D01*
X245567200Y-38960588D02*
X245519580Y-39008207D01*
X245519580Y-39008207D02*
X245186247Y-39008207D01*
X245186247Y-39008207D02*
X245186247Y-38817731D01*
X245614819Y-39865350D02*
X245091009Y-39865350D01*
X245091009Y-39865350D02*
X244995771Y-39817731D01*
X244995771Y-39817731D02*
X244948152Y-39722493D01*
X244948152Y-39722493D02*
X244948152Y-39532017D01*
X244948152Y-39532017D02*
X244995771Y-39436779D01*
X245567200Y-39865350D02*
X245614819Y-39770112D01*
X245614819Y-39770112D02*
X245614819Y-39532017D01*
X245614819Y-39532017D02*
X245567200Y-39436779D01*
X245567200Y-39436779D02*
X245471961Y-39389160D01*
X245471961Y-39389160D02*
X245376723Y-39389160D01*
X245376723Y-39389160D02*
X245281485Y-39436779D01*
X245281485Y-39436779D02*
X245233866Y-39532017D01*
X245233866Y-39532017D02*
X245233866Y-39770112D01*
X245233866Y-39770112D02*
X245186247Y-39865350D01*
X244948152Y-40246303D02*
X245614819Y-40484398D01*
X245614819Y-40484398D02*
X244948152Y-40722493D01*
X245614819Y-41103446D02*
X244948152Y-41103446D01*
X244614819Y-41103446D02*
X244662438Y-41055827D01*
X244662438Y-41055827D02*
X244710057Y-41103446D01*
X244710057Y-41103446D02*
X244662438Y-41151065D01*
X244662438Y-41151065D02*
X244614819Y-41103446D01*
X244614819Y-41103446D02*
X244710057Y-41103446D01*
X244948152Y-41579636D02*
X245614819Y-41579636D01*
X245043390Y-41579636D02*
X244995771Y-41627255D01*
X244995771Y-41627255D02*
X244948152Y-41722493D01*
X244948152Y-41722493D02*
X244948152Y-41865350D01*
X244948152Y-41865350D02*
X244995771Y-41960588D01*
X244995771Y-41960588D02*
X245091009Y-42008207D01*
X245091009Y-42008207D02*
X245614819Y-42008207D01*
X244614819Y-43103446D02*
X244614819Y-43674874D01*
X245614819Y-43389160D02*
X244614819Y-43389160D01*
X245567200Y-44389160D02*
X245614819Y-44293922D01*
X245614819Y-44293922D02*
X245614819Y-44103446D01*
X245614819Y-44103446D02*
X245567200Y-44008208D01*
X245567200Y-44008208D02*
X245471961Y-43960589D01*
X245471961Y-43960589D02*
X245091009Y-43960589D01*
X245091009Y-43960589D02*
X244995771Y-44008208D01*
X244995771Y-44008208D02*
X244948152Y-44103446D01*
X244948152Y-44103446D02*
X244948152Y-44293922D01*
X244948152Y-44293922D02*
X244995771Y-44389160D01*
X244995771Y-44389160D02*
X245091009Y-44436779D01*
X245091009Y-44436779D02*
X245186247Y-44436779D01*
X245186247Y-44436779D02*
X245281485Y-43960589D01*
X245614819Y-44865351D02*
X244948152Y-44865351D01*
X245138628Y-44865351D02*
X245043390Y-44912970D01*
X245043390Y-44912970D02*
X244995771Y-44960589D01*
X244995771Y-44960589D02*
X244948152Y-45055827D01*
X244948152Y-45055827D02*
X244948152Y-45151065D01*
X245567200Y-45436780D02*
X245614819Y-45532018D01*
X245614819Y-45532018D02*
X245614819Y-45722494D01*
X245614819Y-45722494D02*
X245567200Y-45817732D01*
X245567200Y-45817732D02*
X245471961Y-45865351D01*
X245471961Y-45865351D02*
X245424342Y-45865351D01*
X245424342Y-45865351D02*
X245329104Y-45817732D01*
X245329104Y-45817732D02*
X245281485Y-45722494D01*
X245281485Y-45722494D02*
X245281485Y-45579637D01*
X245281485Y-45579637D02*
X245233866Y-45484399D01*
X245233866Y-45484399D02*
X245138628Y-45436780D01*
X245138628Y-45436780D02*
X245091009Y-45436780D01*
X245091009Y-45436780D02*
X244995771Y-45484399D01*
X244995771Y-45484399D02*
X244948152Y-45579637D01*
X244948152Y-45579637D02*
X244948152Y-45722494D01*
X244948152Y-45722494D02*
X244995771Y-45817732D01*
X244948152Y-46151066D02*
X244948152Y-46532018D01*
X244614819Y-46293923D02*
X245471961Y-46293923D01*
X245471961Y-46293923D02*
X245567200Y-46341542D01*
X245567200Y-46341542D02*
X245614819Y-46436780D01*
X245614819Y-46436780D02*
X245614819Y-46532018D01*
X245567200Y-47246304D02*
X245614819Y-47151066D01*
X245614819Y-47151066D02*
X245614819Y-46960590D01*
X245614819Y-46960590D02*
X245567200Y-46865352D01*
X245567200Y-46865352D02*
X245471961Y-46817733D01*
X245471961Y-46817733D02*
X245091009Y-46817733D01*
X245091009Y-46817733D02*
X244995771Y-46865352D01*
X244995771Y-46865352D02*
X244948152Y-46960590D01*
X244948152Y-46960590D02*
X244948152Y-47151066D01*
X244948152Y-47151066D02*
X244995771Y-47246304D01*
X244995771Y-47246304D02*
X245091009Y-47293923D01*
X245091009Y-47293923D02*
X245186247Y-47293923D01*
X245186247Y-47293923D02*
X245281485Y-46817733D01*
X245567200Y-48103447D02*
X245614819Y-48008209D01*
X245614819Y-48008209D02*
X245614819Y-47817733D01*
X245614819Y-47817733D02*
X245567200Y-47722495D01*
X245567200Y-47722495D02*
X245471961Y-47674876D01*
X245471961Y-47674876D02*
X245091009Y-47674876D01*
X245091009Y-47674876D02*
X244995771Y-47722495D01*
X244995771Y-47722495D02*
X244948152Y-47817733D01*
X244948152Y-47817733D02*
X244948152Y-48008209D01*
X244948152Y-48008209D02*
X244995771Y-48103447D01*
X244995771Y-48103447D02*
X245091009Y-48151066D01*
X245091009Y-48151066D02*
X245186247Y-48151066D01*
X245186247Y-48151066D02*
X245281485Y-47674876D01*
X244948152Y-49008209D02*
X245757676Y-49008209D01*
X245757676Y-49008209D02*
X245852914Y-48960590D01*
X245852914Y-48960590D02*
X245900533Y-48912971D01*
X245900533Y-48912971D02*
X245948152Y-48817733D01*
X245948152Y-48817733D02*
X245948152Y-48674876D01*
X245948152Y-48674876D02*
X245900533Y-48579638D01*
X245567200Y-49008209D02*
X245614819Y-48912971D01*
X245614819Y-48912971D02*
X245614819Y-48722495D01*
X245614819Y-48722495D02*
X245567200Y-48627257D01*
X245567200Y-48627257D02*
X245519580Y-48579638D01*
X245519580Y-48579638D02*
X245424342Y-48532019D01*
X245424342Y-48532019D02*
X245138628Y-48532019D01*
X245138628Y-48532019D02*
X245043390Y-48579638D01*
X245043390Y-48579638D02*
X244995771Y-48627257D01*
X244995771Y-48627257D02*
X244948152Y-48722495D01*
X244948152Y-48722495D02*
X244948152Y-48912971D01*
X244948152Y-48912971D02*
X244995771Y-49008209D01*
X245567200Y-49532019D02*
X245614819Y-49532019D01*
X245614819Y-49532019D02*
X245710057Y-49484400D01*
X245710057Y-49484400D02*
X245757676Y-49436781D01*
X244710057Y-50674876D02*
X244662438Y-50722495D01*
X244662438Y-50722495D02*
X244614819Y-50817733D01*
X244614819Y-50817733D02*
X244614819Y-51055828D01*
X244614819Y-51055828D02*
X244662438Y-51151066D01*
X244662438Y-51151066D02*
X244710057Y-51198685D01*
X244710057Y-51198685D02*
X244805295Y-51246304D01*
X244805295Y-51246304D02*
X244900533Y-51246304D01*
X244900533Y-51246304D02*
X245043390Y-51198685D01*
X245043390Y-51198685D02*
X245614819Y-50627257D01*
X245614819Y-50627257D02*
X245614819Y-51246304D01*
X244614819Y-51865352D02*
X244614819Y-51960590D01*
X244614819Y-51960590D02*
X244662438Y-52055828D01*
X244662438Y-52055828D02*
X244710057Y-52103447D01*
X244710057Y-52103447D02*
X244805295Y-52151066D01*
X244805295Y-52151066D02*
X244995771Y-52198685D01*
X244995771Y-52198685D02*
X245233866Y-52198685D01*
X245233866Y-52198685D02*
X245424342Y-52151066D01*
X245424342Y-52151066D02*
X245519580Y-52103447D01*
X245519580Y-52103447D02*
X245567200Y-52055828D01*
X245567200Y-52055828D02*
X245614819Y-51960590D01*
X245614819Y-51960590D02*
X245614819Y-51865352D01*
X245614819Y-51865352D02*
X245567200Y-51770114D01*
X245567200Y-51770114D02*
X245519580Y-51722495D01*
X245519580Y-51722495D02*
X245424342Y-51674876D01*
X245424342Y-51674876D02*
X245233866Y-51627257D01*
X245233866Y-51627257D02*
X244995771Y-51627257D01*
X244995771Y-51627257D02*
X244805295Y-51674876D01*
X244805295Y-51674876D02*
X244710057Y-51722495D01*
X244710057Y-51722495D02*
X244662438Y-51770114D01*
X244662438Y-51770114D02*
X244614819Y-51865352D01*
X244710057Y-52579638D02*
X244662438Y-52627257D01*
X244662438Y-52627257D02*
X244614819Y-52722495D01*
X244614819Y-52722495D02*
X244614819Y-52960590D01*
X244614819Y-52960590D02*
X244662438Y-53055828D01*
X244662438Y-53055828D02*
X244710057Y-53103447D01*
X244710057Y-53103447D02*
X244805295Y-53151066D01*
X244805295Y-53151066D02*
X244900533Y-53151066D01*
X244900533Y-53151066D02*
X245043390Y-53103447D01*
X245043390Y-53103447D02*
X245614819Y-52532019D01*
X245614819Y-52532019D02*
X245614819Y-53151066D01*
X244614819Y-54008209D02*
X244614819Y-53817733D01*
X244614819Y-53817733D02*
X244662438Y-53722495D01*
X244662438Y-53722495D02*
X244710057Y-53674876D01*
X244710057Y-53674876D02*
X244852914Y-53579638D01*
X244852914Y-53579638D02*
X245043390Y-53532019D01*
X245043390Y-53532019D02*
X245424342Y-53532019D01*
X245424342Y-53532019D02*
X245519580Y-53579638D01*
X245519580Y-53579638D02*
X245567200Y-53627257D01*
X245567200Y-53627257D02*
X245614819Y-53722495D01*
X245614819Y-53722495D02*
X245614819Y-53912971D01*
X245614819Y-53912971D02*
X245567200Y-54008209D01*
X245567200Y-54008209D02*
X245519580Y-54055828D01*
X245519580Y-54055828D02*
X245424342Y-54103447D01*
X245424342Y-54103447D02*
X245186247Y-54103447D01*
X245186247Y-54103447D02*
X245091009Y-54055828D01*
X245091009Y-54055828D02*
X245043390Y-54008209D01*
X245043390Y-54008209D02*
X244995771Y-53912971D01*
X244995771Y-53912971D02*
X244995771Y-53722495D01*
X244995771Y-53722495D02*
X245043390Y-53627257D01*
X245043390Y-53627257D02*
X245091009Y-53579638D01*
X245091009Y-53579638D02*
X245186247Y-53532019D01*
M02*
