M48
; DRILL file {KiCad 7.0.7} date Mon Aug 17 21:27:53 2026
; FORMAT={-:-/ absolute / inch / decimal}
; #@! TF.CreationDate,2026-08-17T21:27:53-05:00
; #@! TF.GenerationSoftware,Kicad,Pcbnew,7.0.7
; #@! TF.FileFunction,NonPlated,1,2,NPTH
FMAT,2
INCH
; #@! TA.AperFunction,NonPlated,NPTH,ComponentDrill
T1C0.1122
%
G90
G05
T1
X2.2209Y-1.1317
X2.2209Y-4.675
X2.2209Y-5.6811
X2.2209Y-9.2244
X2.2209Y-9.7561
X2.2209Y-13.2994
X3.5959Y-1.1283
X3.5959Y-4.6717
X3.5959Y-5.6811
X3.5959Y-9.2244
X3.5959Y-9.7561
X3.5959Y-13.2994
X4.9709Y-1.1317
X4.9709Y-4.675
X4.9709Y-5.6811
X4.9709Y-9.2244
X4.9709Y-9.7561
X4.9709Y-13.2994
X6.3459Y-1.1317
X6.3459Y-4.675
X6.3459Y-5.6811
X6.3459Y-9.2244
X6.3459Y-9.7561
X6.3459Y-13.2994
X7.7209Y-1.1317
X7.7209Y-4.675
X9.0959Y-1.1317
X9.0959Y-4.675
T0
M30
