M48
; DRILL file {KiCad 7.0.7} date Mon Aug 17 21:27:53 2026
; FORMAT={-:-/ absolute / inch / decimal}
; #@! TF.CreationDate,2026-08-17T21:27:53-05:00
; #@! TF.GenerationSoftware,Kicad,Pcbnew,7.0.7
; #@! TF.FileFunction,Plated,1,2,PTH
FMAT,2
INCH
; #@! TA.AperFunction,Plated,PTH,ViaDrill
T1C0.0157
; #@! TA.AperFunction,Plated,PTH,ViaDrill
T2C0.0315
; #@! TA.AperFunction,Plated,PTH,ComponentDrill
T3C0.0315
; #@! TA.AperFunction,Plated,PTH,ComponentDrill
T4C0.0394
; #@! TA.AperFunction,Plated,PTH,ComponentDrill
T5C0.0701
; #@! TA.AperFunction,Plated,PTH,ComponentDrill
T6C0.0866
%
G90
G05
T1
X2.2903Y-3.9258
X3.3385Y-4.5597
X3.3385Y-8.9115
X3.3698Y-9.0469
X3.6578Y-4.1779
X4.6052Y-4.5323
X4.6731Y-9.1466
X4.738Y-4.5807
X4.7403Y-4.8609
X5.1259Y-9.9927
X5.5092Y-4.3353
X5.7785Y-4.5684
X5.8516Y-12.9829
X5.9103Y-7.6777
X5.9766Y-4.8605
X6.0127Y-9.005
X6.0412Y-7.9746
X6.0765Y-6.0306
X6.1015Y-4.8783
X6.1053Y-9.7383
X6.1096Y-5.8052
X6.1282Y-9.771
X6.1309Y-9.8104
X6.2562Y-13.1628
X6.4097Y-4.3266
X6.4123Y-11.9845
X6.4126Y-12.0866
X6.4234Y-11.8613
X6.4317Y-11.7233
X6.4356Y-7.5801
X6.4843Y-7.6057
X6.492Y-11.735
X6.4925Y-7.2597
X6.4972Y-10.0605
X6.5295Y-11.0772
X6.5334Y-11.3395
X6.562Y-7.5789
X6.5844Y-4.7224
X6.5858Y-10.3514
X6.6063Y-9.8139
X6.6429Y-8.1952
X6.6461Y-5.7409
X6.67Y-7.6434
X6.6719Y-8.3847
X6.6833Y-11.4754
X6.6971Y-9.7351
X6.713Y-11.4485
X6.7158Y-12.225
X6.722Y-7.743
X6.7453Y-7.7106
X6.8183Y-11.677
X6.8369Y-12.4744
X6.8476Y-7.2669
X6.8669Y-10.6071
X6.8788Y-5.4442
X6.8968Y-11.8354
X6.8972Y-10.7384
X6.9073Y-7.4077
X6.9234Y-7.3434
X6.9439Y-6.3796
X6.9575Y-11.8542
X6.9582Y-8.1053
X6.9642Y-6.8644
X6.986Y-6.9769
X6.9918Y-8.5399
X7.018Y-7.5231
X7.0227Y-12.1811
X7.0332Y-12.2755
X7.1205Y-6.0098
X7.1436Y-8.1681
X7.1904Y-6.1043
X7.1954Y-6.3604
X7.2011Y-5.5667
X7.2052Y-6.4007
X7.2096Y-5.4043
X7.2426Y-3.6245
X7.243Y-9.9393
X7.2715Y-4.2384
X7.2931Y-8.3609
X7.2939Y-9.9635
X7.2975Y-6.0383
X7.313Y-8.5357
X7.3191Y-7.5122
X7.326Y-5.8474
X7.3663Y-7.618
X7.3893Y-9.9038
X7.4012Y-2.7348
X7.487Y-8.4409
X7.5012Y-9.452
X7.5119Y-9.7238
X7.5264Y-8.4522
X7.5566Y-9.6641
X7.5608Y-8.8715
X7.5859Y-12.4579
X7.5962Y-12.4973
X7.5977Y-6.7248
X7.6036Y-7.0647
X7.6069Y-9.6297
X7.6248Y-7.1855
X7.6252Y-8.0545
X7.6521Y-7.5612
X7.7899Y-4.3256
X7.8215Y-3.6814
X7.8281Y-5.0944
X7.8512Y-13.271
X7.8559Y-8.1098
X7.8703Y-7.9869
X7.8777Y-4.9798
X7.8847Y-3.6998
X7.9143Y-7.1522
X7.9313Y-9.8545
X7.948Y-8.8162
X7.9554Y-10.5352
X7.9576Y-7.2384
X7.9929Y-10.5741
X8.0017Y-9.3017
X8.0079Y-9.0082
X8.0913Y-4.8717
X8.2064Y-12.4879
X8.2189Y-10.6168
X8.2274Y-12.1634
X8.2353Y-7.0435
X8.2363Y-10.2651
X8.2687Y-10.4361
X8.2988Y-12.0829
X8.3093Y-9.5348
X8.3171Y-6.1268
X8.3205Y-9.3254
X8.3307Y-12.1766
X8.3492Y-11.5842
X8.3662Y-12.0994
X8.4182Y-4.262
X8.4324Y-11.362
X8.4331Y-3.9969
X8.4464Y-11.8412
X8.4735Y-11.2679
X8.4784Y-1.7533
X8.5052Y-8.0958
X8.5075Y-2.0252
X8.5243Y-1.9613
X8.5348Y-1.8253
X8.5365Y-7.7106
X8.5406Y-9.9654
X8.5442Y-8.728
X8.5454Y-6.3374
X8.5721Y-8.0764
X8.5748Y-9.3029
X8.6043Y-7.2034
X8.6103Y-8.5696
X8.6237Y-9.3726
X8.6565Y-2.7408
X8.6812Y-4.5414
X8.6894Y-9.057
X8.7086Y-2.5331
X8.7347Y-4.7351
X8.7932Y-10.1965
X8.8127Y-10.235
X8.8266Y-7.5857
X8.8423Y-9.0386
X8.8727Y-9.9903
X8.8734Y-12.1772
X8.9413Y-8.1755
X8.9475Y-4.9784
X8.9663Y-7.8581
X8.9766Y-8.9686
X9.1293Y-9.1193
X9.1358Y-4.9265
X9.1471Y-7.8
X9.2071Y-5.1093
X9.2072Y-4.635
X9.2249Y-4.9874
X9.2915Y-5.2646
T2
X2.3417Y-4.5073
X2.949Y-4.45
X5.9971Y-4.4169
T3
X2.475Y-3.85
X2.475Y-4.0
X2.775Y-3.85
X2.775Y-4.0
X3.85Y-3.85
X3.85Y-4.0
X4.15Y-3.85
X4.15Y-4.0
X5.225Y-3.85
X5.225Y-4.0
X5.525Y-3.85
X5.525Y-4.0
X6.6Y-3.85
X6.6Y-4.0
X6.625Y-11.075
X6.625Y-11.375
X6.625Y-11.475
X6.625Y-11.775
X6.625Y-11.875
X6.625Y-12.175
X6.625Y-12.275
X6.625Y-12.575
X6.625Y-12.675
X6.625Y-12.975
X6.625Y-13.075
X6.625Y-13.375
X6.775Y-5.3752
X6.775Y-5.4752
X6.775Y-5.5752
X6.775Y-5.6752
X6.775Y-5.7752
X6.775Y-5.8752
X6.775Y-5.9752
X6.775Y-6.0752
X6.775Y-6.1752
X6.775Y-6.2752
X6.775Y-6.65
X6.775Y-6.75
X6.775Y-6.85
X6.775Y-6.95
X6.775Y-7.05
X6.775Y-7.15
X6.775Y-7.25
X6.775Y-7.35
X6.775Y-7.45
X6.775Y-7.55
X6.775Y-7.925
X6.775Y-8.025
X6.775Y-8.125
X6.775Y-8.225
X6.775Y-8.325
X6.775Y-8.425
X6.775Y-8.525
X6.775Y-8.625
X6.775Y-8.725
X6.775Y-8.825
X6.775Y-10.15
X6.775Y-10.25
X6.775Y-10.35
X6.775Y-10.45
X6.775Y-10.55
X6.775Y-10.65
X6.775Y-10.75
X6.775Y-10.85
X6.775Y-10.95
X6.775Y-11.05
X6.775Y-12.475
X6.775Y-12.575
X6.775Y-12.675
X6.775Y-12.775
X6.775Y-12.875
X6.775Y-12.975
X6.775Y-13.075
X6.825Y-6.525
X6.825Y-10.025
X6.8266Y-5.25
X6.8266Y-12.35
X6.8281Y-7.8
X6.85Y-9.2
X6.85Y-9.8
X6.9Y-3.85
X6.9Y-4.0
X7.0219Y-6.525
X7.0219Y-10.025
X7.0234Y-5.25
X7.0234Y-12.35
X7.025Y-7.8
X7.075Y-5.3752
X7.075Y-5.4752
X7.075Y-5.5752
X7.075Y-5.6752
X7.075Y-5.7752
X7.075Y-5.8752
X7.075Y-5.9752
X7.075Y-6.0752
X7.075Y-6.1752
X7.075Y-6.2752
X7.075Y-6.65
X7.075Y-6.75
X7.075Y-6.85
X7.075Y-6.95
X7.075Y-7.05
X7.075Y-7.15
X7.075Y-7.25
X7.075Y-7.35
X7.075Y-7.45
X7.075Y-7.55
X7.075Y-7.925
X7.075Y-8.025
X7.075Y-8.125
X7.075Y-8.225
X7.075Y-8.325
X7.075Y-8.425
X7.075Y-8.525
X7.075Y-8.625
X7.075Y-8.725
X7.075Y-8.825
X7.075Y-10.15
X7.075Y-10.25
X7.075Y-10.35
X7.075Y-10.45
X7.075Y-10.55
X7.075Y-10.65
X7.075Y-10.75
X7.075Y-10.85
X7.075Y-10.95
X7.075Y-11.05
X7.075Y-12.475
X7.075Y-12.575
X7.075Y-12.675
X7.075Y-12.775
X7.075Y-12.875
X7.075Y-12.975
X7.075Y-13.075
X7.15Y-9.2
X7.15Y-9.8
X7.25Y-12.425
X7.25Y-12.725
X7.25Y-12.825
X7.25Y-13.125
X7.425Y-5.375
X7.425Y-5.475
X7.425Y-5.575
X7.425Y-5.675
X7.425Y-5.775
X7.425Y-5.875
X7.425Y-5.975
X7.425Y-6.075
X7.425Y-6.175
X7.425Y-6.275
X7.425Y-6.65
X7.425Y-6.75
X7.425Y-6.85
X7.425Y-6.95
X7.425Y-7.05
X7.425Y-7.15
X7.425Y-7.25
X7.425Y-7.35
X7.425Y-7.45
X7.425Y-7.55
X7.425Y-7.925
X7.425Y-8.025
X7.425Y-8.125
X7.425Y-8.225
X7.425Y-8.325
X7.425Y-8.425
X7.425Y-8.525
X7.425Y-8.625
X7.425Y-8.725
X7.425Y-8.825
X7.425Y-9.175
X7.425Y-9.275
X7.425Y-9.375
X7.425Y-9.475
X7.425Y-9.575
X7.425Y-9.675
X7.425Y-9.775
X7.425Y-10.15
X7.425Y-10.25
X7.425Y-10.35
X7.425Y-10.45
X7.425Y-10.55
X7.425Y-10.65
X7.425Y-10.75
X7.425Y-10.85
X7.425Y-10.95
X7.425Y-11.05
X7.4254Y-12.4748
X7.4254Y-12.5748
X7.4254Y-12.6748
X7.4254Y-12.7748
X7.4254Y-12.8748
X7.4254Y-12.9748
X7.4254Y-13.0748
X7.475Y-7.8
X7.475Y-10.025
X7.475Y-12.35
X7.4766Y-5.25
X7.4766Y-6.525
X7.4766Y-9.05
X7.6719Y-7.8
X7.6719Y-10.025
X7.6719Y-12.35
X7.6734Y-5.25
X7.6734Y-6.525
X7.6734Y-9.05
X7.725Y-5.375
X7.725Y-5.475
X7.725Y-5.575
X7.725Y-5.675
X7.725Y-5.775
X7.725Y-5.875
X7.725Y-5.975
X7.725Y-6.075
X7.725Y-6.175
X7.725Y-6.275
X7.725Y-6.65
X7.725Y-6.75
X7.725Y-6.85
X7.725Y-6.95
X7.725Y-7.05
X7.725Y-7.15
X7.725Y-7.25
X7.725Y-7.35
X7.725Y-7.45
X7.725Y-7.55
X7.725Y-7.925
X7.725Y-8.025
X7.725Y-8.125
X7.725Y-8.225
X7.725Y-8.325
X7.725Y-8.425
X7.725Y-8.525
X7.725Y-8.625
X7.725Y-8.725
X7.725Y-8.825
X7.725Y-9.175
X7.725Y-9.275
X7.725Y-9.375
X7.725Y-9.475
X7.725Y-9.575
X7.725Y-9.675
X7.725Y-9.775
X7.725Y-10.15
X7.725Y-10.25
X7.725Y-10.35
X7.725Y-10.45
X7.725Y-10.55
X7.725Y-10.65
X7.725Y-10.75
X7.725Y-10.85
X7.725Y-10.95
X7.725Y-11.05
X7.7254Y-12.4748
X7.7254Y-12.5748
X7.7254Y-12.6748
X7.7254Y-12.7748
X7.7254Y-12.8748
X7.7254Y-12.9748
X7.7254Y-13.0748
X7.9Y-12.425
X7.9Y-12.725
X7.9Y-12.825
X7.9Y-13.125
X8.075Y-5.375
X8.075Y-5.475
X8.075Y-5.575
X8.075Y-5.675
X8.075Y-5.775
X8.075Y-5.875
X8.075Y-5.975
X8.075Y-6.075
X8.075Y-6.175
X8.075Y-6.275
X8.075Y-6.65
X8.075Y-6.75
X8.075Y-6.85
X8.075Y-6.95
X8.075Y-7.05
X8.075Y-7.15
X8.075Y-7.25
X8.075Y-7.35
X8.075Y-7.45
X8.075Y-7.55
X8.075Y-7.925
X8.075Y-8.025
X8.075Y-8.125
X8.075Y-8.225
X8.075Y-8.325
X8.075Y-8.425
X8.075Y-8.525
X8.075Y-8.625
X8.075Y-8.725
X8.075Y-8.825
X8.075Y-10.15
X8.075Y-10.25
X8.075Y-10.35
X8.075Y-10.45
X8.075Y-10.55
X8.075Y-10.65
X8.075Y-10.75
X8.075Y-10.85
X8.075Y-10.95
X8.075Y-11.05
X8.075Y-12.475
X8.075Y-12.575
X8.075Y-12.675
X8.075Y-12.775
X8.075Y-12.875
X8.075Y-12.975
X8.075Y-13.075
X8.0754Y-9.1756
X8.0754Y-9.2756
X8.0754Y-9.3756
X8.0754Y-9.4756
X8.0754Y-9.5756
X8.0754Y-9.6756
X8.0754Y-9.7756
X8.0754Y-9.8756
X8.125Y-6.525
X8.125Y-7.8
X8.125Y-10.025
X8.1266Y-5.25
X8.1266Y-9.05
X8.1266Y-12.35
X8.3Y-1.5
X8.3Y-1.7
X8.3Y-1.9
X8.3Y-2.1
X8.3Y-2.3
X8.3Y-2.5
X8.3Y-2.7
X8.3Y-2.9
X8.3Y-3.1
X8.3Y-3.3
X8.3Y-3.525
X8.3Y-3.725
X8.3Y-3.925
X8.3Y-4.125
X8.3Y-4.325
X8.3Y-4.525
X8.3Y-4.725
X8.3219Y-6.525
X8.3219Y-7.8
X8.3219Y-10.025
X8.3234Y-5.25
X8.3234Y-9.05
X8.3234Y-12.35
X8.375Y-5.375
X8.375Y-5.475
X8.375Y-5.575
X8.375Y-5.675
X8.375Y-5.775
X8.375Y-5.875
X8.375Y-5.975
X8.375Y-6.075
X8.375Y-6.175
X8.375Y-6.275
X8.375Y-6.65
X8.375Y-6.75
X8.375Y-6.85
X8.375Y-6.95
X8.375Y-7.05
X8.375Y-7.15
X8.375Y-7.25
X8.375Y-7.35
X8.375Y-7.45
X8.375Y-7.55
X8.375Y-7.925
X8.375Y-8.025
X8.375Y-8.125
X8.375Y-8.225
X8.375Y-8.325
X8.375Y-8.425
X8.375Y-8.525
X8.375Y-8.625
X8.375Y-8.725
X8.375Y-8.825
X8.375Y-10.15
X8.375Y-10.25
X8.375Y-10.35
X8.375Y-10.45
X8.375Y-10.55
X8.375Y-10.65
X8.375Y-10.75
X8.375Y-10.85
X8.375Y-10.95
X8.375Y-11.05
X8.375Y-12.475
X8.375Y-12.575
X8.375Y-12.675
X8.375Y-12.775
X8.375Y-12.875
X8.375Y-12.975
X8.375Y-13.075
X8.3754Y-9.1756
X8.3754Y-9.2756
X8.3754Y-9.3756
X8.3754Y-9.4756
X8.3754Y-9.5756
X8.3754Y-9.6756
X8.3754Y-9.7756
X8.3754Y-9.8756
X8.55Y-9.6
X8.55Y-9.9
X8.55Y-12.425
X8.55Y-12.725
X8.55Y-12.825
X8.55Y-13.125
X8.6Y-1.5
X8.6Y-1.7
X8.6Y-1.9
X8.6Y-2.1
X8.6Y-2.3
X8.6Y-2.5
X8.6Y-2.7
X8.6Y-2.9
X8.6Y-3.1
X8.6Y-3.3
X8.6Y-3.525
X8.6Y-3.725
X8.6Y-3.925
X8.6Y-4.125
X8.6Y-4.325
X8.6Y-4.525
X8.6Y-4.725
X8.725Y-6.65
X8.725Y-6.75
X8.725Y-6.85
X8.725Y-6.95
X8.725Y-7.05
X8.725Y-7.15
X8.725Y-7.25
X8.725Y-7.35
X8.725Y-7.45
X8.725Y-7.55
X8.725Y-7.925
X8.725Y-8.025
X8.725Y-8.125
X8.725Y-8.225
X8.725Y-8.325
X8.725Y-8.425
X8.725Y-8.525
X8.725Y-8.625
X8.725Y-8.725
X8.725Y-8.825
X8.725Y-9.175
X8.725Y-9.275
X8.725Y-9.375
X8.725Y-9.475
X8.725Y-9.575
X8.725Y-9.675
X8.725Y-9.775
X8.725Y-9.875
X8.725Y-10.15
X8.725Y-10.25
X8.725Y-10.35
X8.725Y-10.45
X8.725Y-10.55
X8.725Y-10.65
X8.725Y-10.75
X8.725Y-10.85
X8.725Y-10.95
X8.725Y-11.05
X8.725Y-12.475
X8.725Y-12.575
X8.725Y-12.675
X8.725Y-12.775
X8.725Y-12.875
X8.725Y-12.975
X8.725Y-13.075
X8.775Y-6.525
X8.775Y-10.025
X8.775Y-12.35
X8.7766Y-7.8
X8.7766Y-9.05
X8.9719Y-6.525
X8.9719Y-10.025
X8.9719Y-12.35
X8.9734Y-7.8
X8.9734Y-9.05
X9.025Y-6.65
X9.025Y-6.75
X9.025Y-6.85
X9.025Y-6.95
X9.025Y-7.05
X9.025Y-7.15
X9.025Y-7.25
X9.025Y-7.35
X9.025Y-7.45
X9.025Y-7.55
X9.025Y-7.925
X9.025Y-8.025
X9.025Y-8.125
X9.025Y-8.225
X9.025Y-8.325
X9.025Y-8.425
X9.025Y-8.525
X9.025Y-8.625
X9.025Y-8.725
X9.025Y-8.825
X9.025Y-9.175
X9.025Y-9.275
X9.025Y-9.375
X9.025Y-9.475
X9.025Y-9.575
X9.025Y-9.675
X9.025Y-9.775
X9.025Y-9.875
X9.025Y-10.15
X9.025Y-10.25
X9.025Y-10.35
X9.025Y-10.45
X9.025Y-10.55
X9.025Y-10.65
X9.025Y-10.75
X9.025Y-10.85
X9.025Y-10.95
X9.025Y-11.05
X9.025Y-12.475
X9.025Y-12.575
X9.025Y-12.675
X9.025Y-12.775
X9.025Y-12.875
X9.025Y-12.975
X9.025Y-13.075
X9.2Y-9.6
X9.2Y-9.9
X9.2Y-12.425
X9.2Y-12.725
X9.2Y-12.825
X9.2Y-13.125
X9.375Y-6.475
X9.375Y-7.175
X9.375Y-7.325
X9.375Y-7.475
X9.375Y-7.625
X9.375Y-7.775
X9.375Y-7.925
X9.375Y-8.075
X9.375Y-8.225
X9.375Y-8.375
X9.375Y-8.525
X9.375Y-8.675
X9.375Y-8.825
X9.375Y-9.175
X9.375Y-9.275
X9.375Y-9.375
X9.375Y-9.475
X9.375Y-9.575
X9.375Y-9.675
X9.375Y-9.775
X9.375Y-9.875
X9.375Y-10.15
X9.375Y-10.25
X9.375Y-10.35
X9.375Y-10.45
X9.375Y-10.55
X9.375Y-10.65
X9.375Y-10.75
X9.375Y-10.85
X9.375Y-10.95
X9.375Y-11.05
X9.375Y-12.475
X9.375Y-12.575
X9.375Y-12.675
X9.375Y-12.775
X9.375Y-12.875
X9.375Y-12.975
X9.375Y-13.075
X9.425Y-9.05
X9.425Y-10.025
X9.425Y-12.35
X9.4766Y-6.8
X9.575Y-6.8
X9.6219Y-9.05
X9.6219Y-10.025
X9.6219Y-12.35
X9.675Y-6.475
X9.675Y-7.175
X9.675Y-7.325
X9.675Y-7.475
X9.675Y-7.625
X9.675Y-7.775
X9.675Y-7.925
X9.675Y-8.075
X9.675Y-8.225
X9.675Y-8.375
X9.675Y-8.525
X9.675Y-8.675
X9.675Y-8.825
X9.675Y-9.175
X9.675Y-9.275
X9.675Y-9.375
X9.675Y-9.475
X9.675Y-9.575
X9.675Y-9.675
X9.675Y-9.775
X9.675Y-9.875
X9.675Y-10.15
X9.675Y-10.25
X9.675Y-10.35
X9.675Y-10.45
X9.675Y-10.55
X9.675Y-10.65
X9.675Y-10.75
X9.675Y-10.85
X9.675Y-10.95
X9.675Y-11.05
X9.675Y-12.475
X9.675Y-12.575
X9.675Y-12.675
X9.675Y-12.775
X9.675Y-12.875
X9.675Y-12.975
X9.675Y-13.075
T4
X2.1327Y-1.3533
X2.1327Y-1.4533
X2.1327Y-1.5533
X2.1327Y-1.6533
X2.1327Y-1.7533
X2.1327Y-1.8533
X2.1327Y-1.9533
X2.1327Y-2.0533
X2.1327Y-2.1533
X2.1327Y-2.2533
X2.1327Y-2.3533
X2.1327Y-2.4533
X2.1327Y-2.5533
X2.1327Y-2.6533
X2.1327Y-2.7533
X2.1327Y-2.8533
X2.1327Y-2.9533
X2.1327Y-3.0533
X2.1327Y-3.1533
X2.1327Y-3.2533
X2.1327Y-3.3533
X2.1327Y-3.4533
X2.1327Y-3.5533
X2.1327Y-3.6533
X2.1327Y-3.7533
X2.1327Y-3.8533
X2.1327Y-3.9533
X2.1327Y-4.0533
X2.1327Y-4.1533
X2.1327Y-4.2533
X2.1327Y-4.3533
X2.1327Y-4.4533
X2.1327Y-5.9028
X2.1327Y-6.0028
X2.1327Y-6.1028
X2.1327Y-6.2028
X2.1327Y-6.3028
X2.1327Y-6.4028
X2.1327Y-6.5028
X2.1327Y-6.6028
X2.1327Y-6.7028
X2.1327Y-6.8028
X2.1327Y-6.9028
X2.1327Y-7.0028
X2.1327Y-7.1028
X2.1327Y-7.2028
X2.1327Y-7.3028
X2.1327Y-7.4028
X2.1327Y-7.5028
X2.1327Y-7.6028
X2.1327Y-7.7028
X2.1327Y-7.8028
X2.1327Y-7.9028
X2.1327Y-8.0028
X2.1327Y-8.1028
X2.1327Y-8.2028
X2.1327Y-8.3028
X2.1327Y-8.4028
X2.1327Y-8.5028
X2.1327Y-8.6028
X2.1327Y-8.7028
X2.1327Y-8.8028
X2.1327Y-8.9028
X2.1327Y-9.0028
X2.1327Y-9.9778
X2.1327Y-10.0778
X2.1327Y-10.1778
X2.1327Y-10.2778
X2.1327Y-10.3778
X2.1327Y-10.4778
X2.1327Y-10.5778
X2.1327Y-10.6778
X2.1327Y-10.7778
X2.1327Y-10.8778
X2.1327Y-10.9778
X2.1327Y-11.0778
X2.1327Y-11.1778
X2.1327Y-11.2778
X2.1327Y-11.3778
X2.1327Y-11.4778
X2.1327Y-11.5778
X2.1327Y-11.6778
X2.1327Y-11.7778
X2.1327Y-11.8778
X2.1327Y-11.9778
X2.1327Y-12.0778
X2.1327Y-12.1778
X2.1327Y-12.2778
X2.1327Y-12.3778
X2.1327Y-12.4778
X2.1327Y-12.5778
X2.1327Y-12.6778
X2.1327Y-12.7778
X2.1327Y-12.8778
X2.1327Y-12.9778
X2.1327Y-13.0778
X2.2327Y-1.3533
X2.2327Y-1.4533
X2.2327Y-1.5533
X2.2327Y-1.6533
X2.2327Y-1.7533
X2.2327Y-1.8533
X2.2327Y-1.9533
X2.2327Y-2.0533
X2.2327Y-2.1533
X2.2327Y-2.2533
X2.2327Y-2.3533
X2.2327Y-2.4533
X2.2327Y-2.5533
X2.2327Y-2.6533
X2.2327Y-2.7533
X2.2327Y-2.8533
X2.2327Y-2.9533
X2.2327Y-3.0533
X2.2327Y-3.1533
X2.2327Y-3.2533
X2.2327Y-3.3533
X2.2327Y-3.4533
X2.2327Y-3.5533
X2.2327Y-3.6533
X2.2327Y-3.7533
X2.2327Y-3.8533
X2.2327Y-3.9533
X2.2327Y-4.0533
X2.2327Y-4.1533
X2.2327Y-4.2533
X2.2327Y-4.3533
X2.2327Y-4.4533
X2.2327Y-5.9028
X2.2327Y-6.0028
X2.2327Y-6.1028
X2.2327Y-6.2028
X2.2327Y-6.3028
X2.2327Y-6.4028
X2.2327Y-6.5028
X2.2327Y-6.6028
X2.2327Y-6.7028
X2.2327Y-6.8028
X2.2327Y-6.9028
X2.2327Y-7.0028
X2.2327Y-7.1028
X2.2327Y-7.2028
X2.2327Y-7.3028
X2.2327Y-7.4028
X2.2327Y-7.5028
X2.2327Y-7.6028
X2.2327Y-7.7028
X2.2327Y-7.8028
X2.2327Y-7.9028
X2.2327Y-8.0028
X2.2327Y-8.1028
X2.2327Y-8.2028
X2.2327Y-8.3028
X2.2327Y-8.4028
X2.2327Y-8.5028
X2.2327Y-8.6028
X2.2327Y-8.7028
X2.2327Y-8.8028
X2.2327Y-8.9028
X2.2327Y-9.0028
X2.2327Y-9.9778
X2.2327Y-10.0778
X2.2327Y-10.1778
X2.2327Y-10.2778
X2.2327Y-10.3778
X2.2327Y-10.4778
X2.2327Y-10.5778
X2.2327Y-10.6778
X2.2327Y-10.7778
X2.2327Y-10.8778
X2.2327Y-10.9778
X2.2327Y-11.0778
X2.2327Y-11.1778
X2.2327Y-11.2778
X2.2327Y-11.3778
X2.2327Y-11.4778
X2.2327Y-11.5778
X2.2327Y-11.6778
X2.2327Y-11.7778
X2.2327Y-11.8778
X2.2327Y-11.9778
X2.2327Y-12.0778
X2.2327Y-12.1778
X2.2327Y-12.2778
X2.2327Y-12.3778
X2.2327Y-12.4778
X2.2327Y-12.5778
X2.2327Y-12.6778
X2.2327Y-12.7778
X2.2327Y-12.8778
X2.2327Y-12.9778
X2.2327Y-13.0778
X3.5077Y-1.35
X3.5077Y-1.45
X3.5077Y-1.55
X3.5077Y-1.65
X3.5077Y-1.75
X3.5077Y-1.85
X3.5077Y-1.95
X3.5077Y-2.05
X3.5077Y-2.15
X3.5077Y-2.25
X3.5077Y-2.35
X3.5077Y-2.45
X3.5077Y-2.55
X3.5077Y-2.65
X3.5077Y-2.75
X3.5077Y-2.85
X3.5077Y-2.95
X3.5077Y-3.05
X3.5077Y-3.15
X3.5077Y-3.25
X3.5077Y-3.35
X3.5077Y-3.45
X3.5077Y-3.55
X3.5077Y-3.65
X3.5077Y-3.75
X3.5077Y-3.85
X3.5077Y-3.95
X3.5077Y-4.05
X3.5077Y-4.15
X3.5077Y-4.25
X3.5077Y-4.35
X3.5077Y-4.45
X3.5077Y-5.9028
X3.5077Y-6.0028
X3.5077Y-6.1028
X3.5077Y-6.2028
X3.5077Y-6.3028
X3.5077Y-6.4028
X3.5077Y-6.5028
X3.5077Y-6.6028
X3.5077Y-6.7028
X3.5077Y-6.8028
X3.5077Y-6.9028
X3.5077Y-7.0028
X3.5077Y-7.1028
X3.5077Y-7.2028
X3.5077Y-7.3028
X3.5077Y-7.4028
X3.5077Y-7.5028
X3.5077Y-7.6028
X3.5077Y-7.7028
X3.5077Y-7.8028
X3.5077Y-7.9028
X3.5077Y-8.0028
X3.5077Y-8.1028
X3.5077Y-8.2028
X3.5077Y-8.3028
X3.5077Y-8.4028
X3.5077Y-8.5028
X3.5077Y-8.6028
X3.5077Y-8.7028
X3.5077Y-8.8028
X3.5077Y-8.9028
X3.5077Y-9.0028
X3.5077Y-9.9778
X3.5077Y-10.0778
X3.5077Y-10.1778
X3.5077Y-10.2778
X3.5077Y-10.3778
X3.5077Y-10.4778
X3.5077Y-10.5778
X3.5077Y-10.6778
X3.5077Y-10.7778
X3.5077Y-10.8778
X3.5077Y-10.9778
X3.5077Y-11.0778
X3.5077Y-11.1778
X3.5077Y-11.2778
X3.5077Y-11.3778
X3.5077Y-11.4778
X3.5077Y-11.5778
X3.5077Y-11.6778
X3.5077Y-11.7778
X3.5077Y-11.8778
X3.5077Y-11.9778
X3.5077Y-12.0778
X3.5077Y-12.1778
X3.5077Y-12.2778
X3.5077Y-12.3778
X3.5077Y-12.4778
X3.5077Y-12.5778
X3.5077Y-12.6778
X3.5077Y-12.7778
X3.5077Y-12.8778
X3.5077Y-12.9778
X3.5077Y-13.0778
X3.6077Y-1.35
X3.6077Y-1.45
X3.6077Y-1.55
X3.6077Y-1.65
X3.6077Y-1.75
X3.6077Y-1.85
X3.6077Y-1.95
X3.6077Y-2.05
X3.6077Y-2.15
X3.6077Y-2.25
X3.6077Y-2.35
X3.6077Y-2.45
X3.6077Y-2.55
X3.6077Y-2.65
X3.6077Y-2.75
X3.6077Y-2.85
X3.6077Y-2.95
X3.6077Y-3.05
X3.6077Y-3.15
X3.6077Y-3.25
X3.6077Y-3.35
X3.6077Y-3.45
X3.6077Y-3.55
X3.6077Y-3.65
X3.6077Y-3.75
X3.6077Y-3.85
X3.6077Y-3.95
X3.6077Y-4.05
X3.6077Y-4.15
X3.6077Y-4.25
X3.6077Y-4.35
X3.6077Y-4.45
X3.6077Y-5.9028
X3.6077Y-6.0028
X3.6077Y-6.1028
X3.6077Y-6.2028
X3.6077Y-6.3028
X3.6077Y-6.4028
X3.6077Y-6.5028
X3.6077Y-6.6028
X3.6077Y-6.7028
X3.6077Y-6.8028
X3.6077Y-6.9028
X3.6077Y-7.0028
X3.6077Y-7.1028
X3.6077Y-7.2028
X3.6077Y-7.3028
X3.6077Y-7.4028
X3.6077Y-7.5028
X3.6077Y-7.6028
X3.6077Y-7.7028
X3.6077Y-7.8028
X3.6077Y-7.9028
X3.6077Y-8.0028
X3.6077Y-8.1028
X3.6077Y-8.2028
X3.6077Y-8.3028
X3.6077Y-8.4028
X3.6077Y-8.5028
X3.6077Y-8.6028
X3.6077Y-8.7028
X3.6077Y-8.8028
X3.6077Y-8.9028
X3.6077Y-9.0028
X3.6077Y-9.9778
X3.6077Y-10.0778
X3.6077Y-10.1778
X3.6077Y-10.2778
X3.6077Y-10.3778
X3.6077Y-10.4778
X3.6077Y-10.5778
X3.6077Y-10.6778
X3.6077Y-10.7778
X3.6077Y-10.8778
X3.6077Y-10.9778
X3.6077Y-11.0778
X3.6077Y-11.1778
X3.6077Y-11.2778
X3.6077Y-11.3778
X3.6077Y-11.4778
X3.6077Y-11.5778
X3.6077Y-11.6778
X3.6077Y-11.7778
X3.6077Y-11.8778
X3.6077Y-11.9778
X3.6077Y-12.0778
X3.6077Y-12.1778
X3.6077Y-12.2778
X3.6077Y-12.3778
X3.6077Y-12.4778
X3.6077Y-12.5778
X3.6077Y-12.6778
X3.6077Y-12.7778
X3.6077Y-12.8778
X3.6077Y-12.9778
X3.6077Y-13.0778
X4.8827Y-1.3533
X4.8827Y-1.4533
X4.8827Y-1.5533
X4.8827Y-1.6533
X4.8827Y-1.7533
X4.8827Y-1.8533
X4.8827Y-1.9533
X4.8827Y-2.0533
X4.8827Y-2.1533
X4.8827Y-2.2533
X4.8827Y-2.3533
X4.8827Y-2.4533
X4.8827Y-2.5533
X4.8827Y-2.6533
X4.8827Y-2.7533
X4.8827Y-2.8533
X4.8827Y-2.9533
X4.8827Y-3.0533
X4.8827Y-3.1533
X4.8827Y-3.2533
X4.8827Y-3.3533
X4.8827Y-3.4533
X4.8827Y-3.5533
X4.8827Y-3.6533
X4.8827Y-3.7533
X4.8827Y-3.8533
X4.8827Y-3.9533
X4.8827Y-4.0533
X4.8827Y-4.1533
X4.8827Y-4.2533
X4.8827Y-4.3533
X4.8827Y-4.4533
X4.8827Y-5.9028
X4.8827Y-6.0028
X4.8827Y-6.1028
X4.8827Y-6.2028
X4.8827Y-6.3028
X4.8827Y-6.4028
X4.8827Y-6.5028
X4.8827Y-6.6028
X4.8827Y-6.7028
X4.8827Y-6.8028
X4.8827Y-6.9028
X4.8827Y-7.0028
X4.8827Y-7.1028
X4.8827Y-7.2028
X4.8827Y-7.3028
X4.8827Y-7.4028
X4.8827Y-7.5028
X4.8827Y-7.6028
X4.8827Y-7.7028
X4.8827Y-7.8028
X4.8827Y-7.9028
X4.8827Y-8.0028
X4.8827Y-8.1028
X4.8827Y-8.2028
X4.8827Y-8.3028
X4.8827Y-8.4028
X4.8827Y-8.5028
X4.8827Y-8.6028
X4.8827Y-8.7028
X4.8827Y-8.8028
X4.8827Y-8.9028
X4.8827Y-9.0028
X4.8827Y-9.9778
X4.8827Y-10.0778
X4.8827Y-10.1778
X4.8827Y-10.2778
X4.8827Y-10.3778
X4.8827Y-10.4778
X4.8827Y-10.5778
X4.8827Y-10.6778
X4.8827Y-10.7778
X4.8827Y-10.8778
X4.8827Y-10.9778
X4.8827Y-11.0778
X4.8827Y-11.1778
X4.8827Y-11.2778
X4.8827Y-11.3778
X4.8827Y-11.4778
X4.8827Y-11.5778
X4.8827Y-11.6778
X4.8827Y-11.7778
X4.8827Y-11.8778
X4.8827Y-11.9778
X4.8827Y-12.0778
X4.8827Y-12.1778
X4.8827Y-12.2778
X4.8827Y-12.3778
X4.8827Y-12.4778
X4.8827Y-12.5778
X4.8827Y-12.6778
X4.8827Y-12.7778
X4.8827Y-12.8778
X4.8827Y-12.9778
X4.8827Y-13.0778
X4.9827Y-1.3533
X4.9827Y-1.4533
X4.9827Y-1.5533
X4.9827Y-1.6533
X4.9827Y-1.7533
X4.9827Y-1.8533
X4.9827Y-1.9533
X4.9827Y-2.0533
X4.9827Y-2.1533
X4.9827Y-2.2533
X4.9827Y-2.3533
X4.9827Y-2.4533
X4.9827Y-2.5533
X4.9827Y-2.6533
X4.9827Y-2.7533
X4.9827Y-2.8533
X4.9827Y-2.9533
X4.9827Y-3.0533
X4.9827Y-3.1533
X4.9827Y-3.2533
X4.9827Y-3.3533
X4.9827Y-3.4533
X4.9827Y-3.5533
X4.9827Y-3.6533
X4.9827Y-3.7533
X4.9827Y-3.8533
X4.9827Y-3.9533
X4.9827Y-4.0533
X4.9827Y-4.1533
X4.9827Y-4.2533
X4.9827Y-4.3533
X4.9827Y-4.4533
X4.9827Y-5.9028
X4.9827Y-6.0028
X4.9827Y-6.1028
X4.9827Y-6.2028
X4.9827Y-6.3028
X4.9827Y-6.4028
X4.9827Y-6.5028
X4.9827Y-6.6028
X4.9827Y-6.7028
X4.9827Y-6.8028
X4.9827Y-6.9028
X4.9827Y-7.0028
X4.9827Y-7.1028
X4.9827Y-7.2028
X4.9827Y-7.3028
X4.9827Y-7.4028
X4.9827Y-7.5028
X4.9827Y-7.6028
X4.9827Y-7.7028
X4.9827Y-7.8028
X4.9827Y-7.9028
X4.9827Y-8.0028
X4.9827Y-8.1028
X4.9827Y-8.2028
X4.9827Y-8.3028
X4.9827Y-8.4028
X4.9827Y-8.5028
X4.9827Y-8.6028
X4.9827Y-8.7028
X4.9827Y-8.8028
X4.9827Y-8.9028
X4.9827Y-9.0028
X4.9827Y-9.9778
X4.9827Y-10.0778
X4.9827Y-10.1778
X4.9827Y-10.2778
X4.9827Y-10.3778
X4.9827Y-10.4778
X4.9827Y-10.5778
X4.9827Y-10.6778
X4.9827Y-10.7778
X4.9827Y-10.8778
X4.9827Y-10.9778
X4.9827Y-11.0778
X4.9827Y-11.1778
X4.9827Y-11.2778
X4.9827Y-11.3778
X4.9827Y-11.4778
X4.9827Y-11.5778
X4.9827Y-11.6778
X4.9827Y-11.7778
X4.9827Y-11.8778
X4.9827Y-11.9778
X4.9827Y-12.0778
X4.9827Y-12.1778
X4.9827Y-12.2778
X4.9827Y-12.3778
X4.9827Y-12.4778
X4.9827Y-12.5778
X4.9827Y-12.6778
X4.9827Y-12.7778
X4.9827Y-12.8778
X4.9827Y-12.9778
X4.9827Y-13.0778
X6.2577Y-1.3533
X6.2577Y-1.4533
X6.2577Y-1.5533
X6.2577Y-1.6533
X6.2577Y-1.7533
X6.2577Y-1.8533
X6.2577Y-1.9533
X6.2577Y-2.0533
X6.2577Y-2.1533
X6.2577Y-2.2533
X6.2577Y-2.3533
X6.2577Y-2.4533
X6.2577Y-2.5533
X6.2577Y-2.6533
X6.2577Y-2.7533
X6.2577Y-2.8533
X6.2577Y-2.9533
X6.2577Y-3.0533
X6.2577Y-3.1533
X6.2577Y-3.2533
X6.2577Y-3.3533
X6.2577Y-3.4533
X6.2577Y-3.5533
X6.2577Y-3.6533
X6.2577Y-3.7533
X6.2577Y-3.8533
X6.2577Y-3.9533
X6.2577Y-4.0533
X6.2577Y-4.1533
X6.2577Y-4.2533
X6.2577Y-4.3533
X6.2577Y-4.4533
X6.2577Y-5.9028
X6.2577Y-6.0028
X6.2577Y-6.1028
X6.2577Y-6.2028
X6.2577Y-6.3028
X6.2577Y-6.4028
X6.2577Y-6.5028
X6.2577Y-6.6028
X6.2577Y-6.7028
X6.2577Y-6.8028
X6.2577Y-6.9028
X6.2577Y-7.0028
X6.2577Y-7.1028
X6.2577Y-7.2028
X6.2577Y-7.3028
X6.2577Y-7.4028
X6.2577Y-7.5028
X6.2577Y-7.6028
X6.2577Y-7.7028
X6.2577Y-7.8028
X6.2577Y-7.9028
X6.2577Y-8.0028
X6.2577Y-8.1028
X6.2577Y-8.2028
X6.2577Y-8.3028
X6.2577Y-8.4028
X6.2577Y-8.5028
X6.2577Y-8.6028
X6.2577Y-8.7028
X6.2577Y-8.8028
X6.2577Y-8.9028
X6.2577Y-9.0028
X6.2577Y-9.9778
X6.2577Y-10.0778
X6.2577Y-10.1778
X6.2577Y-10.2778
X6.2577Y-10.3778
X6.2577Y-10.4778
X6.2577Y-10.5778
X6.2577Y-10.6778
X6.2577Y-10.7778
X6.2577Y-10.8778
X6.2577Y-10.9778
X6.2577Y-11.0778
X6.2577Y-11.1778
X6.2577Y-11.2778
X6.2577Y-11.3778
X6.2577Y-11.4778
X6.2577Y-11.5778
X6.2577Y-11.6778
X6.2577Y-11.7778
X6.2577Y-11.8778
X6.2577Y-11.9778
X6.2577Y-12.0778
X6.2577Y-12.1778
X6.2577Y-12.2778
X6.2577Y-12.3778
X6.2577Y-12.4778
X6.2577Y-12.5778
X6.2577Y-12.6778
X6.2577Y-12.7778
X6.2577Y-12.8778
X6.2577Y-12.9778
X6.2577Y-13.0778
X6.3577Y-1.3533
X6.3577Y-1.4533
X6.3577Y-1.5533
X6.3577Y-1.6533
X6.3577Y-1.7533
X6.3577Y-1.8533
X6.3577Y-1.9533
X6.3577Y-2.0533
X6.3577Y-2.1533
X6.3577Y-2.2533
X6.3577Y-2.3533
X6.3577Y-2.4533
X6.3577Y-2.5533
X6.3577Y-2.6533
X6.3577Y-2.7533
X6.3577Y-2.8533
X6.3577Y-2.9533
X6.3577Y-3.0533
X6.3577Y-3.1533
X6.3577Y-3.2533
X6.3577Y-3.3533
X6.3577Y-3.4533
X6.3577Y-3.5533
X6.3577Y-3.6533
X6.3577Y-3.7533
X6.3577Y-3.8533
X6.3577Y-3.9533
X6.3577Y-4.0533
X6.3577Y-4.1533
X6.3577Y-4.2533
X6.3577Y-4.3533
X6.3577Y-4.4533
X6.3577Y-5.9028
X6.3577Y-6.0028
X6.3577Y-6.1028
X6.3577Y-6.2028
X6.3577Y-6.3028
X6.3577Y-6.4028
X6.3577Y-6.5028
X6.3577Y-6.6028
X6.3577Y-6.7028
X6.3577Y-6.8028
X6.3577Y-6.9028
X6.3577Y-7.0028
X6.3577Y-7.1028
X6.3577Y-7.2028
X6.3577Y-7.3028
X6.3577Y-7.4028
X6.3577Y-7.5028
X6.3577Y-7.6028
X6.3577Y-7.7028
X6.3577Y-7.8028
X6.3577Y-7.9028
X6.3577Y-8.0028
X6.3577Y-8.1028
X6.3577Y-8.2028
X6.3577Y-8.3028
X6.3577Y-8.4028
X6.3577Y-8.5028
X6.3577Y-8.6028
X6.3577Y-8.7028
X6.3577Y-8.8028
X6.3577Y-8.9028
X6.3577Y-9.0028
X6.3577Y-9.9778
X6.3577Y-10.0778
X6.3577Y-10.1778
X6.3577Y-10.2778
X6.3577Y-10.3778
X6.3577Y-10.4778
X6.3577Y-10.5778
X6.3577Y-10.6778
X6.3577Y-10.7778
X6.3577Y-10.8778
X6.3577Y-10.9778
X6.3577Y-11.0778
X6.3577Y-11.1778
X6.3577Y-11.2778
X6.3577Y-11.3778
X6.3577Y-11.4778
X6.3577Y-11.5778
X6.3577Y-11.6778
X6.3577Y-11.7778
X6.3577Y-11.8778
X6.3577Y-11.9778
X6.3577Y-12.0778
X6.3577Y-12.1778
X6.3577Y-12.2778
X6.3577Y-12.3778
X6.3577Y-12.4778
X6.3577Y-12.5778
X6.3577Y-12.6778
X6.3577Y-12.7778
X6.3577Y-12.8778
X6.3577Y-12.9778
X6.3577Y-13.0778
X6.875Y-13.35
X6.975Y-13.35
X7.0242Y-11.4281
X7.0242Y-11.5281
X7.0242Y-11.925
X7.0242Y-12.025
X7.1242Y-11.4281
X7.1242Y-11.5281
X7.1242Y-11.925
X7.1242Y-12.025
X7.2242Y-11.4281
X7.2242Y-11.5281
X7.2242Y-11.925
X7.2242Y-12.025
X7.3242Y-11.4281
X7.3242Y-11.5281
X7.3242Y-11.925
X7.3242Y-12.025
X7.3502Y-13.35
X7.4242Y-11.4281
X7.4242Y-11.5281
X7.4242Y-11.925
X7.4242Y-12.025
X7.4502Y-13.35
X7.5242Y-11.4281
X7.5242Y-11.5281
X7.5242Y-11.925
X7.5242Y-12.025
X7.6242Y-11.4281
X7.6242Y-11.5281
X7.6242Y-11.925
X7.6242Y-12.025
X7.6327Y-1.3533
X7.6327Y-1.4533
X7.6327Y-1.5533
X7.6327Y-1.6533
X7.6327Y-1.7533
X7.6327Y-1.8533
X7.6327Y-1.9533
X7.6327Y-2.0533
X7.6327Y-2.1533
X7.6327Y-2.2533
X7.6327Y-2.3533
X7.6327Y-2.4533
X7.6327Y-2.5533
X7.6327Y-2.6533
X7.6327Y-2.7533
X7.6327Y-2.8533
X7.6327Y-2.9533
X7.6327Y-3.0533
X7.6327Y-3.1533
X7.6327Y-3.2533
X7.6327Y-3.3533
X7.6327Y-3.4533
X7.6327Y-3.5533
X7.6327Y-3.6533
X7.6327Y-3.7533
X7.6327Y-3.8533
X7.6327Y-3.9533
X7.6327Y-4.0533
X7.6327Y-4.1533
X7.6327Y-4.2533
X7.6327Y-4.3533
X7.6327Y-4.4533
X7.7242Y-11.4281
X7.7242Y-11.5281
X7.7242Y-11.925
X7.7242Y-12.025
X7.7327Y-1.3533
X7.7327Y-1.4533
X7.7327Y-1.5533
X7.7327Y-1.6533
X7.7327Y-1.7533
X7.7327Y-1.8533
X7.7327Y-1.9533
X7.7327Y-2.0533
X7.7327Y-2.1533
X7.7327Y-2.2533
X7.7327Y-2.3533
X7.7327Y-2.4533
X7.7327Y-2.5533
X7.7327Y-2.6533
X7.7327Y-2.7533
X7.7327Y-2.8533
X7.7327Y-2.9533
X7.7327Y-3.0533
X7.7327Y-3.1533
X7.7327Y-3.2533
X7.7327Y-3.3533
X7.7327Y-3.4533
X7.7327Y-3.5533
X7.7327Y-3.6533
X7.7327Y-3.7533
X7.7327Y-3.8533
X7.7327Y-3.9533
X7.7327Y-4.0533
X7.7327Y-4.1533
X7.7327Y-4.2533
X7.7327Y-4.3533
X7.7327Y-4.4533
X7.8242Y-11.4281
X7.8242Y-11.5281
X7.8242Y-11.925
X7.8242Y-12.025
X7.8252Y-13.35
X7.9242Y-11.4281
X7.9242Y-11.5281
X7.9242Y-11.925
X7.9242Y-12.025
X7.9252Y-13.35
X8.0242Y-11.4281
X8.0242Y-11.5281
X8.0242Y-11.925
X8.0242Y-12.025
X8.1242Y-11.4281
X8.1242Y-11.5281
X8.1242Y-11.925
X8.1242Y-12.025
X8.2242Y-11.4281
X8.2242Y-11.5281
X8.2242Y-11.925
X8.2242Y-12.025
X8.3Y-13.35
X8.3242Y-11.4281
X8.3242Y-11.5281
X8.3242Y-11.925
X8.3242Y-12.025
X8.4Y-13.35
X8.4242Y-11.4281
X8.4242Y-11.5281
X8.4242Y-11.925
X8.4242Y-12.025
X8.5242Y-11.4281
X8.5242Y-11.5281
X8.5242Y-11.925
X8.5242Y-12.025
X8.6242Y-11.4281
X8.6242Y-11.5281
X8.6242Y-11.925
X8.6242Y-12.025
X8.7242Y-11.4281
X8.7242Y-11.5281
X8.7242Y-11.925
X8.7242Y-12.025
X8.775Y-13.35
X8.8242Y-11.4281
X8.8242Y-11.5281
X8.8242Y-11.925
X8.8242Y-12.025
X8.875Y-13.35
X8.9242Y-11.4281
X8.9242Y-11.5281
X8.9242Y-11.925
X8.9242Y-12.025
X9.0077Y-1.3533
X9.0077Y-1.4533
X9.0077Y-1.5533
X9.0077Y-1.6533
X9.0077Y-1.7533
X9.0077Y-1.8533
X9.0077Y-1.9533
X9.0077Y-2.0533
X9.0077Y-2.1533
X9.0077Y-2.2533
X9.0077Y-2.3533
X9.0077Y-2.4533
X9.0077Y-2.5533
X9.0077Y-2.6533
X9.0077Y-2.7533
X9.0077Y-2.8533
X9.0077Y-2.9533
X9.0077Y-3.0533
X9.0077Y-3.1533
X9.0077Y-3.2533
X9.0077Y-3.3533
X9.0077Y-3.4533
X9.0077Y-3.5533
X9.0077Y-3.6533
X9.0077Y-3.7533
X9.0077Y-3.8533
X9.0077Y-3.9533
X9.0077Y-4.0533
X9.0077Y-4.1533
X9.0077Y-4.2533
X9.0077Y-4.3533
X9.0077Y-4.4533
X9.0242Y-11.4281
X9.0242Y-11.5281
X9.0242Y-11.925
X9.0242Y-12.025
X9.1077Y-1.3533
X9.1077Y-1.4533
X9.1077Y-1.5533
X9.1077Y-1.6533
X9.1077Y-1.7533
X9.1077Y-1.8533
X9.1077Y-1.9533
X9.1077Y-2.0533
X9.1077Y-2.1533
X9.1077Y-2.2533
X9.1077Y-2.3533
X9.1077Y-2.4533
X9.1077Y-2.5533
X9.1077Y-2.6533
X9.1077Y-2.7533
X9.1077Y-2.8533
X9.1077Y-2.9533
X9.1077Y-3.0533
X9.1077Y-3.1533
X9.1077Y-3.2533
X9.1077Y-3.3533
X9.1077Y-3.4533
X9.1077Y-3.5533
X9.1077Y-3.6533
X9.1077Y-3.7533
X9.1077Y-3.8533
X9.1077Y-3.9533
X9.1077Y-4.0533
X9.1077Y-4.1533
X9.1077Y-4.2533
X9.1077Y-4.3533
X9.1077Y-4.4533
X9.1242Y-11.4281
X9.1242Y-11.5281
X9.1242Y-11.925
X9.1242Y-12.025
X9.2242Y-11.4281
X9.2242Y-11.5281
X9.2242Y-11.925
X9.2242Y-12.025
X9.25Y-13.35
X9.3242Y-11.4281
X9.3242Y-11.5281
X9.3242Y-11.925
X9.3242Y-12.025
X9.35Y-13.35
X9.4242Y-11.4281
X9.4242Y-11.5281
X9.4242Y-11.925
X9.4242Y-12.025
T5
X9.5274Y-5.425
X9.5274Y-5.625
X9.5274Y-5.825
X9.5274Y-6.025
T6
X2.525Y-1.0
X2.525Y-13.35
X4.6Y-1.0
X4.6Y-13.35
X5.975Y-13.35
X6.65Y-1.0
X9.65Y-1.0
X9.65Y-13.35
T0
M30
