%TF.GenerationSoftware,KiCad,Pcbnew,7.0.7*%
%TF.CreationDate,2026-08-17T21:35:36-05:00*%
%TF.ProjectId,Control,436f6e74-726f-46c2-9e6b-696361645f70,rev?*%
%TF.SameCoordinates,Original*%
%TF.FileFunction,Legend,Top*%
%TF.FilePolarity,Positive*%
%FSLAX46Y46*%
G04 Gerber Fmt 4.6, Leading zero omitted, Abs format (unit mm)*
G04 Created by KiCad (PCBNEW 7.0.7) date 2026-08-17 21:35:36*
%MOMM*%
%LPD*%
G01*
G04 APERTURE LIST*
%ADD10C,0.400000*%
%ADD11C,0.150000*%
%ADD12C,0.120000*%
G04 APERTURE END LIST*
D10*
X38077204Y-20689438D02*
X37410537Y-19737057D01*
X36934347Y-20689438D02*
X36934347Y-18689438D01*
X36934347Y-18689438D02*
X37696252Y-18689438D01*
X37696252Y-18689438D02*
X37886728Y-18784676D01*
X37886728Y-18784676D02*
X37981966Y-18879914D01*
X37981966Y-18879914D02*
X38077204Y-19070390D01*
X38077204Y-19070390D02*
X38077204Y-19356104D01*
X38077204Y-19356104D02*
X37981966Y-19546580D01*
X37981966Y-19546580D02*
X37886728Y-19641819D01*
X37886728Y-19641819D02*
X37696252Y-19737057D01*
X37696252Y-19737057D02*
X36934347Y-19737057D01*
X38934347Y-20689438D02*
X38934347Y-18689438D01*
X38934347Y-18689438D02*
X39410537Y-18689438D01*
X39410537Y-18689438D02*
X39696252Y-18784676D01*
X39696252Y-18784676D02*
X39886728Y-18975152D01*
X39886728Y-18975152D02*
X39981966Y-19165628D01*
X39981966Y-19165628D02*
X40077204Y-19546580D01*
X40077204Y-19546580D02*
X40077204Y-19832295D01*
X40077204Y-19832295D02*
X39981966Y-20213247D01*
X39981966Y-20213247D02*
X39886728Y-20403723D01*
X39886728Y-20403723D02*
X39696252Y-20594200D01*
X39696252Y-20594200D02*
X39410537Y-20689438D01*
X39410537Y-20689438D02*
X38934347Y-20689438D01*
X40934347Y-20689438D02*
X40934347Y-18689438D01*
X40934347Y-18689438D02*
X41696252Y-18689438D01*
X41696252Y-18689438D02*
X41886728Y-18784676D01*
X41886728Y-18784676D02*
X41981966Y-18879914D01*
X41981966Y-18879914D02*
X42077204Y-19070390D01*
X42077204Y-19070390D02*
X42077204Y-19356104D01*
X42077204Y-19356104D02*
X41981966Y-19546580D01*
X41981966Y-19546580D02*
X41886728Y-19641819D01*
X41886728Y-19641819D02*
X41696252Y-19737057D01*
X41696252Y-19737057D02*
X40934347Y-19737057D01*
X42934347Y-19927533D02*
X44458157Y-19927533D01*
X45505775Y-20689438D02*
X45886727Y-20689438D01*
X45886727Y-20689438D02*
X46077204Y-20594200D01*
X46077204Y-20594200D02*
X46172442Y-20498961D01*
X46172442Y-20498961D02*
X46362918Y-20213247D01*
X46362918Y-20213247D02*
X46458156Y-19832295D01*
X46458156Y-19832295D02*
X46458156Y-19070390D01*
X46458156Y-19070390D02*
X46362918Y-18879914D01*
X46362918Y-18879914D02*
X46267680Y-18784676D01*
X46267680Y-18784676D02*
X46077204Y-18689438D01*
X46077204Y-18689438D02*
X45696251Y-18689438D01*
X45696251Y-18689438D02*
X45505775Y-18784676D01*
X45505775Y-18784676D02*
X45410537Y-18879914D01*
X45410537Y-18879914D02*
X45315299Y-19070390D01*
X45315299Y-19070390D02*
X45315299Y-19546580D01*
X45315299Y-19546580D02*
X45410537Y-19737057D01*
X45410537Y-19737057D02*
X45505775Y-19832295D01*
X45505775Y-19832295D02*
X45696251Y-19927533D01*
X45696251Y-19927533D02*
X46077204Y-19927533D01*
X46077204Y-19927533D02*
X46267680Y-19832295D01*
X46267680Y-19832295D02*
X46362918Y-19737057D01*
X46362918Y-19737057D02*
X46458156Y-19546580D01*
X47220061Y-20118009D02*
X48172442Y-20118009D01*
X47029585Y-20689438D02*
X47696251Y-18689438D01*
X47696251Y-18689438D02*
X48362918Y-20689438D01*
X49029585Y-19927533D02*
X50553395Y-19927533D01*
X52648632Y-20498961D02*
X52553394Y-20594200D01*
X52553394Y-20594200D02*
X52267680Y-20689438D01*
X52267680Y-20689438D02*
X52077204Y-20689438D01*
X52077204Y-20689438D02*
X51791489Y-20594200D01*
X51791489Y-20594200D02*
X51601013Y-20403723D01*
X51601013Y-20403723D02*
X51505775Y-20213247D01*
X51505775Y-20213247D02*
X51410537Y-19832295D01*
X51410537Y-19832295D02*
X51410537Y-19546580D01*
X51410537Y-19546580D02*
X51505775Y-19165628D01*
X51505775Y-19165628D02*
X51601013Y-18975152D01*
X51601013Y-18975152D02*
X51791489Y-18784676D01*
X51791489Y-18784676D02*
X52077204Y-18689438D01*
X52077204Y-18689438D02*
X52267680Y-18689438D01*
X52267680Y-18689438D02*
X52553394Y-18784676D01*
X52553394Y-18784676D02*
X52648632Y-18879914D01*
X53220061Y-18689438D02*
X54362918Y-18689438D01*
X53791489Y-20689438D02*
X53791489Y-18689438D01*
X55981966Y-20689438D02*
X55029585Y-20689438D01*
X55029585Y-20689438D02*
X55029585Y-18689438D01*
X56648633Y-19927533D02*
X58172443Y-19927533D01*
X59505775Y-18689438D02*
X59696252Y-18689438D01*
X59696252Y-18689438D02*
X59886728Y-18784676D01*
X59886728Y-18784676D02*
X59981966Y-18879914D01*
X59981966Y-18879914D02*
X60077204Y-19070390D01*
X60077204Y-19070390D02*
X60172442Y-19451342D01*
X60172442Y-19451342D02*
X60172442Y-19927533D01*
X60172442Y-19927533D02*
X60077204Y-20308485D01*
X60077204Y-20308485D02*
X59981966Y-20498961D01*
X59981966Y-20498961D02*
X59886728Y-20594200D01*
X59886728Y-20594200D02*
X59696252Y-20689438D01*
X59696252Y-20689438D02*
X59505775Y-20689438D01*
X59505775Y-20689438D02*
X59315299Y-20594200D01*
X59315299Y-20594200D02*
X59220061Y-20498961D01*
X59220061Y-20498961D02*
X59124823Y-20308485D01*
X59124823Y-20308485D02*
X59029585Y-19927533D01*
X59029585Y-19927533D02*
X59029585Y-19451342D01*
X59029585Y-19451342D02*
X59124823Y-19070390D01*
X59124823Y-19070390D02*
X59220061Y-18879914D01*
X59220061Y-18879914D02*
X59315299Y-18784676D01*
X59315299Y-18784676D02*
X59505775Y-18689438D01*
D11*
X222916905Y-111424819D02*
X222916905Y-112234342D01*
X222916905Y-112234342D02*
X222964524Y-112329580D01*
X222964524Y-112329580D02*
X223012143Y-112377200D01*
X223012143Y-112377200D02*
X223107381Y-112424819D01*
X223107381Y-112424819D02*
X223297857Y-112424819D01*
X223297857Y-112424819D02*
X223393095Y-112377200D01*
X223393095Y-112377200D02*
X223440714Y-112329580D01*
X223440714Y-112329580D02*
X223488333Y-112234342D01*
X223488333Y-112234342D02*
X223488333Y-111424819D01*
X224488333Y-112424819D02*
X223916905Y-112424819D01*
X224202619Y-112424819D02*
X224202619Y-111424819D01*
X224202619Y-111424819D02*
X224107381Y-111567676D01*
X224107381Y-111567676D02*
X224012143Y-111662914D01*
X224012143Y-111662914D02*
X223916905Y-111710533D01*
X224964524Y-112424819D02*
X225155000Y-112424819D01*
X225155000Y-112424819D02*
X225250238Y-112377200D01*
X225250238Y-112377200D02*
X225297857Y-112329580D01*
X225297857Y-112329580D02*
X225393095Y-112186723D01*
X225393095Y-112186723D02*
X225440714Y-111996247D01*
X225440714Y-111996247D02*
X225440714Y-111615295D01*
X225440714Y-111615295D02*
X225393095Y-111520057D01*
X225393095Y-111520057D02*
X225345476Y-111472438D01*
X225345476Y-111472438D02*
X225250238Y-111424819D01*
X225250238Y-111424819D02*
X225059762Y-111424819D01*
X225059762Y-111424819D02*
X224964524Y-111472438D01*
X224964524Y-111472438D02*
X224916905Y-111520057D01*
X224916905Y-111520057D02*
X224869286Y-111615295D01*
X224869286Y-111615295D02*
X224869286Y-111853390D01*
X224869286Y-111853390D02*
X224916905Y-111948628D01*
X224916905Y-111948628D02*
X224964524Y-111996247D01*
X224964524Y-111996247D02*
X225059762Y-112043866D01*
X225059762Y-112043866D02*
X225250238Y-112043866D01*
X225250238Y-112043866D02*
X225345476Y-111996247D01*
X225345476Y-111996247D02*
X225393095Y-111948628D01*
X225393095Y-111948628D02*
X225440714Y-111853390D01*
X191087142Y-74019580D02*
X191039523Y-74067200D01*
X191039523Y-74067200D02*
X190896666Y-74114819D01*
X190896666Y-74114819D02*
X190801428Y-74114819D01*
X190801428Y-74114819D02*
X190658571Y-74067200D01*
X190658571Y-74067200D02*
X190563333Y-73971961D01*
X190563333Y-73971961D02*
X190515714Y-73876723D01*
X190515714Y-73876723D02*
X190468095Y-73686247D01*
X190468095Y-73686247D02*
X190468095Y-73543390D01*
X190468095Y-73543390D02*
X190515714Y-73352914D01*
X190515714Y-73352914D02*
X190563333Y-73257676D01*
X190563333Y-73257676D02*
X190658571Y-73162438D01*
X190658571Y-73162438D02*
X190801428Y-73114819D01*
X190801428Y-73114819D02*
X190896666Y-73114819D01*
X190896666Y-73114819D02*
X191039523Y-73162438D01*
X191039523Y-73162438D02*
X191087142Y-73210057D01*
X192039523Y-74114819D02*
X191468095Y-74114819D01*
X191753809Y-74114819D02*
X191753809Y-73114819D01*
X191753809Y-73114819D02*
X191658571Y-73257676D01*
X191658571Y-73257676D02*
X191563333Y-73352914D01*
X191563333Y-73352914D02*
X191468095Y-73400533D01*
X192658571Y-73114819D02*
X192753809Y-73114819D01*
X192753809Y-73114819D02*
X192849047Y-73162438D01*
X192849047Y-73162438D02*
X192896666Y-73210057D01*
X192896666Y-73210057D02*
X192944285Y-73305295D01*
X192944285Y-73305295D02*
X192991904Y-73495771D01*
X192991904Y-73495771D02*
X192991904Y-73733866D01*
X192991904Y-73733866D02*
X192944285Y-73924342D01*
X192944285Y-73924342D02*
X192896666Y-74019580D01*
X192896666Y-74019580D02*
X192849047Y-74067200D01*
X192849047Y-74067200D02*
X192753809Y-74114819D01*
X192753809Y-74114819D02*
X192658571Y-74114819D01*
X192658571Y-74114819D02*
X192563333Y-74067200D01*
X192563333Y-74067200D02*
X192515714Y-74019580D01*
X192515714Y-74019580D02*
X192468095Y-73924342D01*
X192468095Y-73924342D02*
X192420476Y-73733866D01*
X192420476Y-73733866D02*
X192420476Y-73495771D01*
X192420476Y-73495771D02*
X192468095Y-73305295D01*
X192468095Y-73305295D02*
X192515714Y-73210057D01*
X192515714Y-73210057D02*
X192563333Y-73162438D01*
X192563333Y-73162438D02*
X192658571Y-73114819D01*
X209502142Y-74019580D02*
X209454523Y-74067200D01*
X209454523Y-74067200D02*
X209311666Y-74114819D01*
X209311666Y-74114819D02*
X209216428Y-74114819D01*
X209216428Y-74114819D02*
X209073571Y-74067200D01*
X209073571Y-74067200D02*
X208978333Y-73971961D01*
X208978333Y-73971961D02*
X208930714Y-73876723D01*
X208930714Y-73876723D02*
X208883095Y-73686247D01*
X208883095Y-73686247D02*
X208883095Y-73543390D01*
X208883095Y-73543390D02*
X208930714Y-73352914D01*
X208930714Y-73352914D02*
X208978333Y-73257676D01*
X208978333Y-73257676D02*
X209073571Y-73162438D01*
X209073571Y-73162438D02*
X209216428Y-73114819D01*
X209216428Y-73114819D02*
X209311666Y-73114819D01*
X209311666Y-73114819D02*
X209454523Y-73162438D01*
X209454523Y-73162438D02*
X209502142Y-73210057D01*
X210454523Y-74114819D02*
X209883095Y-74114819D01*
X210168809Y-74114819D02*
X210168809Y-73114819D01*
X210168809Y-73114819D02*
X210073571Y-73257676D01*
X210073571Y-73257676D02*
X209978333Y-73352914D01*
X209978333Y-73352914D02*
X209883095Y-73400533D01*
X211359285Y-73114819D02*
X210883095Y-73114819D01*
X210883095Y-73114819D02*
X210835476Y-73591009D01*
X210835476Y-73591009D02*
X210883095Y-73543390D01*
X210883095Y-73543390D02*
X210978333Y-73495771D01*
X210978333Y-73495771D02*
X211216428Y-73495771D01*
X211216428Y-73495771D02*
X211311666Y-73543390D01*
X211311666Y-73543390D02*
X211359285Y-73591009D01*
X211359285Y-73591009D02*
X211406904Y-73686247D01*
X211406904Y-73686247D02*
X211406904Y-73924342D01*
X211406904Y-73924342D02*
X211359285Y-74019580D01*
X211359285Y-74019580D02*
X211311666Y-74067200D01*
X211311666Y-74067200D02*
X211216428Y-74114819D01*
X211216428Y-74114819D02*
X210978333Y-74114819D01*
X210978333Y-74114819D02*
X210883095Y-74067200D01*
X210883095Y-74067200D02*
X210835476Y-74019580D01*
X75438095Y-73749819D02*
X75438095Y-74559342D01*
X75438095Y-74559342D02*
X75485714Y-74654580D01*
X75485714Y-74654580D02*
X75533333Y-74702200D01*
X75533333Y-74702200D02*
X75628571Y-74749819D01*
X75628571Y-74749819D02*
X75819047Y-74749819D01*
X75819047Y-74749819D02*
X75914285Y-74702200D01*
X75914285Y-74702200D02*
X75961904Y-74654580D01*
X75961904Y-74654580D02*
X76009523Y-74559342D01*
X76009523Y-74559342D02*
X76009523Y-73749819D01*
X76390476Y-73749819D02*
X77057142Y-73749819D01*
X77057142Y-73749819D02*
X76628571Y-74749819D01*
X74961905Y-111214819D02*
X74961905Y-112024342D01*
X74961905Y-112024342D02*
X75009524Y-112119580D01*
X75009524Y-112119580D02*
X75057143Y-112167200D01*
X75057143Y-112167200D02*
X75152381Y-112214819D01*
X75152381Y-112214819D02*
X75342857Y-112214819D01*
X75342857Y-112214819D02*
X75438095Y-112167200D01*
X75438095Y-112167200D02*
X75485714Y-112119580D01*
X75485714Y-112119580D02*
X75533333Y-112024342D01*
X75533333Y-112024342D02*
X75533333Y-111214819D01*
X75961905Y-111310057D02*
X76009524Y-111262438D01*
X76009524Y-111262438D02*
X76104762Y-111214819D01*
X76104762Y-111214819D02*
X76342857Y-111214819D01*
X76342857Y-111214819D02*
X76438095Y-111262438D01*
X76438095Y-111262438D02*
X76485714Y-111310057D01*
X76485714Y-111310057D02*
X76533333Y-111405295D01*
X76533333Y-111405295D02*
X76533333Y-111500533D01*
X76533333Y-111500533D02*
X76485714Y-111643390D01*
X76485714Y-111643390D02*
X75914286Y-112214819D01*
X75914286Y-112214819D02*
X76533333Y-112214819D01*
X76914286Y-111310057D02*
X76961905Y-111262438D01*
X76961905Y-111262438D02*
X77057143Y-111214819D01*
X77057143Y-111214819D02*
X77295238Y-111214819D01*
X77295238Y-111214819D02*
X77390476Y-111262438D01*
X77390476Y-111262438D02*
X77438095Y-111310057D01*
X77438095Y-111310057D02*
X77485714Y-111405295D01*
X77485714Y-111405295D02*
X77485714Y-111500533D01*
X77485714Y-111500533D02*
X77438095Y-111643390D01*
X77438095Y-111643390D02*
X76866667Y-112214819D01*
X76866667Y-112214819D02*
X77485714Y-112214819D01*
X113538095Y-26334819D02*
X113538095Y-27144342D01*
X113538095Y-27144342D02*
X113585714Y-27239580D01*
X113585714Y-27239580D02*
X113633333Y-27287200D01*
X113633333Y-27287200D02*
X113728571Y-27334819D01*
X113728571Y-27334819D02*
X113919047Y-27334819D01*
X113919047Y-27334819D02*
X114014285Y-27287200D01*
X114014285Y-27287200D02*
X114061904Y-27239580D01*
X114061904Y-27239580D02*
X114109523Y-27144342D01*
X114109523Y-27144342D02*
X114109523Y-26334819D01*
X114490476Y-26334819D02*
X115109523Y-26334819D01*
X115109523Y-26334819D02*
X114776190Y-26715771D01*
X114776190Y-26715771D02*
X114919047Y-26715771D01*
X114919047Y-26715771D02*
X115014285Y-26763390D01*
X115014285Y-26763390D02*
X115061904Y-26811009D01*
X115061904Y-26811009D02*
X115109523Y-26906247D01*
X115109523Y-26906247D02*
X115109523Y-27144342D01*
X115109523Y-27144342D02*
X115061904Y-27239580D01*
X115061904Y-27239580D02*
X115014285Y-27287200D01*
X115014285Y-27287200D02*
X114919047Y-27334819D01*
X114919047Y-27334819D02*
X114633333Y-27334819D01*
X114633333Y-27334819D02*
X114538095Y-27287200D01*
X114538095Y-27287200D02*
X114490476Y-27239580D01*
X76708095Y-26334819D02*
X76708095Y-27144342D01*
X76708095Y-27144342D02*
X76755714Y-27239580D01*
X76755714Y-27239580D02*
X76803333Y-27287200D01*
X76803333Y-27287200D02*
X76898571Y-27334819D01*
X76898571Y-27334819D02*
X77089047Y-27334819D01*
X77089047Y-27334819D02*
X77184285Y-27287200D01*
X77184285Y-27287200D02*
X77231904Y-27239580D01*
X77231904Y-27239580D02*
X77279523Y-27144342D01*
X77279523Y-27144342D02*
X77279523Y-26334819D01*
X77708095Y-26430057D02*
X77755714Y-26382438D01*
X77755714Y-26382438D02*
X77850952Y-26334819D01*
X77850952Y-26334819D02*
X78089047Y-26334819D01*
X78089047Y-26334819D02*
X78184285Y-26382438D01*
X78184285Y-26382438D02*
X78231904Y-26430057D01*
X78231904Y-26430057D02*
X78279523Y-26525295D01*
X78279523Y-26525295D02*
X78279523Y-26620533D01*
X78279523Y-26620533D02*
X78231904Y-26763390D01*
X78231904Y-26763390D02*
X77660476Y-27334819D01*
X77660476Y-27334819D02*
X78279523Y-27334819D01*
X93376905Y-73749819D02*
X93376905Y-74559342D01*
X93376905Y-74559342D02*
X93424524Y-74654580D01*
X93424524Y-74654580D02*
X93472143Y-74702200D01*
X93472143Y-74702200D02*
X93567381Y-74749819D01*
X93567381Y-74749819D02*
X93757857Y-74749819D01*
X93757857Y-74749819D02*
X93853095Y-74702200D01*
X93853095Y-74702200D02*
X93900714Y-74654580D01*
X93900714Y-74654580D02*
X93948333Y-74559342D01*
X93948333Y-74559342D02*
X93948333Y-73749819D01*
X94948333Y-74749819D02*
X94376905Y-74749819D01*
X94662619Y-74749819D02*
X94662619Y-73749819D01*
X94662619Y-73749819D02*
X94567381Y-73892676D01*
X94567381Y-73892676D02*
X94472143Y-73987914D01*
X94472143Y-73987914D02*
X94376905Y-74035533D01*
X95329286Y-73845057D02*
X95376905Y-73797438D01*
X95376905Y-73797438D02*
X95472143Y-73749819D01*
X95472143Y-73749819D02*
X95710238Y-73749819D01*
X95710238Y-73749819D02*
X95805476Y-73797438D01*
X95805476Y-73797438D02*
X95853095Y-73845057D01*
X95853095Y-73845057D02*
X95900714Y-73940295D01*
X95900714Y-73940295D02*
X95900714Y-74035533D01*
X95900714Y-74035533D02*
X95853095Y-74178390D01*
X95853095Y-74178390D02*
X95281667Y-74749819D01*
X95281667Y-74749819D02*
X95900714Y-74749819D01*
X135842142Y-74019580D02*
X135794523Y-74067200D01*
X135794523Y-74067200D02*
X135651666Y-74114819D01*
X135651666Y-74114819D02*
X135556428Y-74114819D01*
X135556428Y-74114819D02*
X135413571Y-74067200D01*
X135413571Y-74067200D02*
X135318333Y-73971961D01*
X135318333Y-73971961D02*
X135270714Y-73876723D01*
X135270714Y-73876723D02*
X135223095Y-73686247D01*
X135223095Y-73686247D02*
X135223095Y-73543390D01*
X135223095Y-73543390D02*
X135270714Y-73352914D01*
X135270714Y-73352914D02*
X135318333Y-73257676D01*
X135318333Y-73257676D02*
X135413571Y-73162438D01*
X135413571Y-73162438D02*
X135556428Y-73114819D01*
X135556428Y-73114819D02*
X135651666Y-73114819D01*
X135651666Y-73114819D02*
X135794523Y-73162438D01*
X135794523Y-73162438D02*
X135842142Y-73210057D01*
X136794523Y-74114819D02*
X136223095Y-74114819D01*
X136508809Y-74114819D02*
X136508809Y-73114819D01*
X136508809Y-73114819D02*
X136413571Y-73257676D01*
X136413571Y-73257676D02*
X136318333Y-73352914D01*
X136318333Y-73352914D02*
X136223095Y-73400533D01*
X137127857Y-73114819D02*
X137746904Y-73114819D01*
X137746904Y-73114819D02*
X137413571Y-73495771D01*
X137413571Y-73495771D02*
X137556428Y-73495771D01*
X137556428Y-73495771D02*
X137651666Y-73543390D01*
X137651666Y-73543390D02*
X137699285Y-73591009D01*
X137699285Y-73591009D02*
X137746904Y-73686247D01*
X137746904Y-73686247D02*
X137746904Y-73924342D01*
X137746904Y-73924342D02*
X137699285Y-74019580D01*
X137699285Y-74019580D02*
X137651666Y-74067200D01*
X137651666Y-74067200D02*
X137556428Y-74114819D01*
X137556428Y-74114819D02*
X137270714Y-74114819D01*
X137270714Y-74114819D02*
X137175476Y-74067200D01*
X137175476Y-74067200D02*
X137127857Y-74019580D01*
X172672142Y-74019580D02*
X172624523Y-74067200D01*
X172624523Y-74067200D02*
X172481666Y-74114819D01*
X172481666Y-74114819D02*
X172386428Y-74114819D01*
X172386428Y-74114819D02*
X172243571Y-74067200D01*
X172243571Y-74067200D02*
X172148333Y-73971961D01*
X172148333Y-73971961D02*
X172100714Y-73876723D01*
X172100714Y-73876723D02*
X172053095Y-73686247D01*
X172053095Y-73686247D02*
X172053095Y-73543390D01*
X172053095Y-73543390D02*
X172100714Y-73352914D01*
X172100714Y-73352914D02*
X172148333Y-73257676D01*
X172148333Y-73257676D02*
X172243571Y-73162438D01*
X172243571Y-73162438D02*
X172386428Y-73114819D01*
X172386428Y-73114819D02*
X172481666Y-73114819D01*
X172481666Y-73114819D02*
X172624523Y-73162438D01*
X172624523Y-73162438D02*
X172672142Y-73210057D01*
X173624523Y-74114819D02*
X173053095Y-74114819D01*
X173338809Y-74114819D02*
X173338809Y-73114819D01*
X173338809Y-73114819D02*
X173243571Y-73257676D01*
X173243571Y-73257676D02*
X173148333Y-73352914D01*
X173148333Y-73352914D02*
X173053095Y-73400533D01*
X174481666Y-73448152D02*
X174481666Y-74114819D01*
X174243571Y-73067200D02*
X174005476Y-73781485D01*
X174005476Y-73781485D02*
X174624523Y-73781485D01*
X211923333Y-30934819D02*
X211590000Y-30458628D01*
X211351905Y-30934819D02*
X211351905Y-29934819D01*
X211351905Y-29934819D02*
X211732857Y-29934819D01*
X211732857Y-29934819D02*
X211828095Y-29982438D01*
X211828095Y-29982438D02*
X211875714Y-30030057D01*
X211875714Y-30030057D02*
X211923333Y-30125295D01*
X211923333Y-30125295D02*
X211923333Y-30268152D01*
X211923333Y-30268152D02*
X211875714Y-30363390D01*
X211875714Y-30363390D02*
X211828095Y-30411009D01*
X211828095Y-30411009D02*
X211732857Y-30458628D01*
X211732857Y-30458628D02*
X211351905Y-30458628D01*
X212828095Y-29934819D02*
X212351905Y-29934819D01*
X212351905Y-29934819D02*
X212304286Y-30411009D01*
X212304286Y-30411009D02*
X212351905Y-30363390D01*
X212351905Y-30363390D02*
X212447143Y-30315771D01*
X212447143Y-30315771D02*
X212685238Y-30315771D01*
X212685238Y-30315771D02*
X212780476Y-30363390D01*
X212780476Y-30363390D02*
X212828095Y-30411009D01*
X212828095Y-30411009D02*
X212875714Y-30506247D01*
X212875714Y-30506247D02*
X212875714Y-30744342D01*
X212875714Y-30744342D02*
X212828095Y-30839580D01*
X212828095Y-30839580D02*
X212780476Y-30887200D01*
X212780476Y-30887200D02*
X212685238Y-30934819D01*
X212685238Y-30934819D02*
X212447143Y-30934819D01*
X212447143Y-30934819D02*
X212351905Y-30887200D01*
X212351905Y-30887200D02*
X212304286Y-30839580D01*
X214418152Y-34043809D02*
X215084819Y-34043809D01*
X214037200Y-34281904D02*
X214751485Y-34519999D01*
X214751485Y-34519999D02*
X214751485Y-33900952D01*
X214989580Y-33519999D02*
X215037200Y-33472380D01*
X215037200Y-33472380D02*
X215084819Y-33519999D01*
X215084819Y-33519999D02*
X215037200Y-33567618D01*
X215037200Y-33567618D02*
X214989580Y-33519999D01*
X214989580Y-33519999D02*
X215084819Y-33519999D01*
X214084819Y-33139047D02*
X214084819Y-32472381D01*
X214084819Y-32472381D02*
X215084819Y-32900952D01*
X215084819Y-32091428D02*
X214084819Y-32091428D01*
X215084819Y-31520000D02*
X214513390Y-31948571D01*
X214084819Y-31520000D02*
X214656247Y-32091428D01*
X44323333Y-74019580D02*
X44275714Y-74067200D01*
X44275714Y-74067200D02*
X44132857Y-74114819D01*
X44132857Y-74114819D02*
X44037619Y-74114819D01*
X44037619Y-74114819D02*
X43894762Y-74067200D01*
X43894762Y-74067200D02*
X43799524Y-73971961D01*
X43799524Y-73971961D02*
X43751905Y-73876723D01*
X43751905Y-73876723D02*
X43704286Y-73686247D01*
X43704286Y-73686247D02*
X43704286Y-73543390D01*
X43704286Y-73543390D02*
X43751905Y-73352914D01*
X43751905Y-73352914D02*
X43799524Y-73257676D01*
X43799524Y-73257676D02*
X43894762Y-73162438D01*
X43894762Y-73162438D02*
X44037619Y-73114819D01*
X44037619Y-73114819D02*
X44132857Y-73114819D01*
X44132857Y-73114819D02*
X44275714Y-73162438D01*
X44275714Y-73162438D02*
X44323333Y-73210057D01*
X45180476Y-73114819D02*
X44990000Y-73114819D01*
X44990000Y-73114819D02*
X44894762Y-73162438D01*
X44894762Y-73162438D02*
X44847143Y-73210057D01*
X44847143Y-73210057D02*
X44751905Y-73352914D01*
X44751905Y-73352914D02*
X44704286Y-73543390D01*
X44704286Y-73543390D02*
X44704286Y-73924342D01*
X44704286Y-73924342D02*
X44751905Y-74019580D01*
X44751905Y-74019580D02*
X44799524Y-74067200D01*
X44799524Y-74067200D02*
X44894762Y-74114819D01*
X44894762Y-74114819D02*
X45085238Y-74114819D01*
X45085238Y-74114819D02*
X45180476Y-74067200D01*
X45180476Y-74067200D02*
X45228095Y-74019580D01*
X45228095Y-74019580D02*
X45275714Y-73924342D01*
X45275714Y-73924342D02*
X45275714Y-73686247D01*
X45275714Y-73686247D02*
X45228095Y-73591009D01*
X45228095Y-73591009D02*
X45180476Y-73543390D01*
X45180476Y-73543390D02*
X45085238Y-73495771D01*
X45085238Y-73495771D02*
X44894762Y-73495771D01*
X44894762Y-73495771D02*
X44799524Y-73543390D01*
X44799524Y-73543390D02*
X44751905Y-73591009D01*
X44751905Y-73591009D02*
X44704286Y-73686247D01*
X56546905Y-111214819D02*
X56546905Y-112024342D01*
X56546905Y-112024342D02*
X56594524Y-112119580D01*
X56594524Y-112119580D02*
X56642143Y-112167200D01*
X56642143Y-112167200D02*
X56737381Y-112214819D01*
X56737381Y-112214819D02*
X56927857Y-112214819D01*
X56927857Y-112214819D02*
X57023095Y-112167200D01*
X57023095Y-112167200D02*
X57070714Y-112119580D01*
X57070714Y-112119580D02*
X57118333Y-112024342D01*
X57118333Y-112024342D02*
X57118333Y-111214819D01*
X57546905Y-111310057D02*
X57594524Y-111262438D01*
X57594524Y-111262438D02*
X57689762Y-111214819D01*
X57689762Y-111214819D02*
X57927857Y-111214819D01*
X57927857Y-111214819D02*
X58023095Y-111262438D01*
X58023095Y-111262438D02*
X58070714Y-111310057D01*
X58070714Y-111310057D02*
X58118333Y-111405295D01*
X58118333Y-111405295D02*
X58118333Y-111500533D01*
X58118333Y-111500533D02*
X58070714Y-111643390D01*
X58070714Y-111643390D02*
X57499286Y-112214819D01*
X57499286Y-112214819D02*
X58118333Y-112214819D01*
X58975476Y-111548152D02*
X58975476Y-112214819D01*
X58737381Y-111167200D02*
X58499286Y-111881485D01*
X58499286Y-111881485D02*
X59118333Y-111881485D01*
X149098095Y-73749819D02*
X149098095Y-74559342D01*
X149098095Y-74559342D02*
X149145714Y-74654580D01*
X149145714Y-74654580D02*
X149193333Y-74702200D01*
X149193333Y-74702200D02*
X149288571Y-74749819D01*
X149288571Y-74749819D02*
X149479047Y-74749819D01*
X149479047Y-74749819D02*
X149574285Y-74702200D01*
X149574285Y-74702200D02*
X149621904Y-74654580D01*
X149621904Y-74654580D02*
X149669523Y-74559342D01*
X149669523Y-74559342D02*
X149669523Y-73749819D01*
X150193333Y-74749819D02*
X150383809Y-74749819D01*
X150383809Y-74749819D02*
X150479047Y-74702200D01*
X150479047Y-74702200D02*
X150526666Y-74654580D01*
X150526666Y-74654580D02*
X150621904Y-74511723D01*
X150621904Y-74511723D02*
X150669523Y-74321247D01*
X150669523Y-74321247D02*
X150669523Y-73940295D01*
X150669523Y-73940295D02*
X150621904Y-73845057D01*
X150621904Y-73845057D02*
X150574285Y-73797438D01*
X150574285Y-73797438D02*
X150479047Y-73749819D01*
X150479047Y-73749819D02*
X150288571Y-73749819D01*
X150288571Y-73749819D02*
X150193333Y-73797438D01*
X150193333Y-73797438D02*
X150145714Y-73845057D01*
X150145714Y-73845057D02*
X150098095Y-73940295D01*
X150098095Y-73940295D02*
X150098095Y-74178390D01*
X150098095Y-74178390D02*
X150145714Y-74273628D01*
X150145714Y-74273628D02*
X150193333Y-74321247D01*
X150193333Y-74321247D02*
X150288571Y-74368866D01*
X150288571Y-74368866D02*
X150479047Y-74368866D01*
X150479047Y-74368866D02*
X150574285Y-74321247D01*
X150574285Y-74321247D02*
X150621904Y-74273628D01*
X150621904Y-74273628D02*
X150669523Y-74178390D01*
X229536666Y-33744819D02*
X229536666Y-34459104D01*
X229536666Y-34459104D02*
X229489047Y-34601961D01*
X229489047Y-34601961D02*
X229393809Y-34697200D01*
X229393809Y-34697200D02*
X229250952Y-34744819D01*
X229250952Y-34744819D02*
X229155714Y-34744819D01*
X229917619Y-33744819D02*
X230536666Y-33744819D01*
X230536666Y-33744819D02*
X230203333Y-34125771D01*
X230203333Y-34125771D02*
X230346190Y-34125771D01*
X230346190Y-34125771D02*
X230441428Y-34173390D01*
X230441428Y-34173390D02*
X230489047Y-34221009D01*
X230489047Y-34221009D02*
X230536666Y-34316247D01*
X230536666Y-34316247D02*
X230536666Y-34554342D01*
X230536666Y-34554342D02*
X230489047Y-34649580D01*
X230489047Y-34649580D02*
X230441428Y-34697200D01*
X230441428Y-34697200D02*
X230346190Y-34744819D01*
X230346190Y-34744819D02*
X230060476Y-34744819D01*
X230060476Y-34744819D02*
X229965238Y-34697200D01*
X229965238Y-34697200D02*
X229917619Y-34649580D01*
X225465237Y-36602200D02*
X225608094Y-36649819D01*
X225608094Y-36649819D02*
X225846189Y-36649819D01*
X225846189Y-36649819D02*
X225941427Y-36602200D01*
X225941427Y-36602200D02*
X225989046Y-36554580D01*
X225989046Y-36554580D02*
X226036665Y-36459342D01*
X226036665Y-36459342D02*
X226036665Y-36364104D01*
X226036665Y-36364104D02*
X225989046Y-36268866D01*
X225989046Y-36268866D02*
X225941427Y-36221247D01*
X225941427Y-36221247D02*
X225846189Y-36173628D01*
X225846189Y-36173628D02*
X225655713Y-36126009D01*
X225655713Y-36126009D02*
X225560475Y-36078390D01*
X225560475Y-36078390D02*
X225512856Y-36030771D01*
X225512856Y-36030771D02*
X225465237Y-35935533D01*
X225465237Y-35935533D02*
X225465237Y-35840295D01*
X225465237Y-35840295D02*
X225512856Y-35745057D01*
X225512856Y-35745057D02*
X225560475Y-35697438D01*
X225560475Y-35697438D02*
X225655713Y-35649819D01*
X225655713Y-35649819D02*
X225893808Y-35649819D01*
X225893808Y-35649819D02*
X226036665Y-35697438D01*
X226322380Y-35983152D02*
X226703332Y-35983152D01*
X226465237Y-35649819D02*
X226465237Y-36506961D01*
X226465237Y-36506961D02*
X226512856Y-36602200D01*
X226512856Y-36602200D02*
X226608094Y-36649819D01*
X226608094Y-36649819D02*
X226703332Y-36649819D01*
X227465237Y-36649819D02*
X227465237Y-36126009D01*
X227465237Y-36126009D02*
X227417618Y-36030771D01*
X227417618Y-36030771D02*
X227322380Y-35983152D01*
X227322380Y-35983152D02*
X227131904Y-35983152D01*
X227131904Y-35983152D02*
X227036666Y-36030771D01*
X227465237Y-36602200D02*
X227369999Y-36649819D01*
X227369999Y-36649819D02*
X227131904Y-36649819D01*
X227131904Y-36649819D02*
X227036666Y-36602200D01*
X227036666Y-36602200D02*
X226989047Y-36506961D01*
X226989047Y-36506961D02*
X226989047Y-36411723D01*
X226989047Y-36411723D02*
X227036666Y-36316485D01*
X227036666Y-36316485D02*
X227131904Y-36268866D01*
X227131904Y-36268866D02*
X227369999Y-36268866D01*
X227369999Y-36268866D02*
X227465237Y-36221247D01*
X227798571Y-35983152D02*
X228179523Y-35983152D01*
X227941428Y-35649819D02*
X227941428Y-36506961D01*
X227941428Y-36506961D02*
X227989047Y-36602200D01*
X227989047Y-36602200D02*
X228084285Y-36649819D01*
X228084285Y-36649819D02*
X228179523Y-36649819D01*
X228893809Y-36602200D02*
X228798571Y-36649819D01*
X228798571Y-36649819D02*
X228608095Y-36649819D01*
X228608095Y-36649819D02*
X228512857Y-36602200D01*
X228512857Y-36602200D02*
X228465238Y-36506961D01*
X228465238Y-36506961D02*
X228465238Y-36126009D01*
X228465238Y-36126009D02*
X228512857Y-36030771D01*
X228512857Y-36030771D02*
X228608095Y-35983152D01*
X228608095Y-35983152D02*
X228798571Y-35983152D01*
X228798571Y-35983152D02*
X228893809Y-36030771D01*
X228893809Y-36030771D02*
X228941428Y-36126009D01*
X228941428Y-36126009D02*
X228941428Y-36221247D01*
X228941428Y-36221247D02*
X228465238Y-36316485D01*
X230131905Y-36649819D02*
X230131905Y-35649819D01*
X230131905Y-35649819D02*
X230370000Y-35649819D01*
X230370000Y-35649819D02*
X230512857Y-35697438D01*
X230512857Y-35697438D02*
X230608095Y-35792676D01*
X230608095Y-35792676D02*
X230655714Y-35887914D01*
X230655714Y-35887914D02*
X230703333Y-36078390D01*
X230703333Y-36078390D02*
X230703333Y-36221247D01*
X230703333Y-36221247D02*
X230655714Y-36411723D01*
X230655714Y-36411723D02*
X230608095Y-36506961D01*
X230608095Y-36506961D02*
X230512857Y-36602200D01*
X230512857Y-36602200D02*
X230370000Y-36649819D01*
X230370000Y-36649819D02*
X230131905Y-36649819D01*
X231512857Y-36602200D02*
X231417619Y-36649819D01*
X231417619Y-36649819D02*
X231227143Y-36649819D01*
X231227143Y-36649819D02*
X231131905Y-36602200D01*
X231131905Y-36602200D02*
X231084286Y-36506961D01*
X231084286Y-36506961D02*
X231084286Y-36126009D01*
X231084286Y-36126009D02*
X231131905Y-36030771D01*
X231131905Y-36030771D02*
X231227143Y-35983152D01*
X231227143Y-35983152D02*
X231417619Y-35983152D01*
X231417619Y-35983152D02*
X231512857Y-36030771D01*
X231512857Y-36030771D02*
X231560476Y-36126009D01*
X231560476Y-36126009D02*
X231560476Y-36221247D01*
X231560476Y-36221247D02*
X231084286Y-36316485D01*
X231989048Y-36649819D02*
X231989048Y-35649819D01*
X231989048Y-36030771D02*
X232084286Y-35983152D01*
X232084286Y-35983152D02*
X232274762Y-35983152D01*
X232274762Y-35983152D02*
X232370000Y-36030771D01*
X232370000Y-36030771D02*
X232417619Y-36078390D01*
X232417619Y-36078390D02*
X232465238Y-36173628D01*
X232465238Y-36173628D02*
X232465238Y-36459342D01*
X232465238Y-36459342D02*
X232417619Y-36554580D01*
X232417619Y-36554580D02*
X232370000Y-36602200D01*
X232370000Y-36602200D02*
X232274762Y-36649819D01*
X232274762Y-36649819D02*
X232084286Y-36649819D01*
X232084286Y-36649819D02*
X231989048Y-36602200D01*
X233322381Y-35983152D02*
X233322381Y-36649819D01*
X232893810Y-35983152D02*
X232893810Y-36506961D01*
X232893810Y-36506961D02*
X232941429Y-36602200D01*
X232941429Y-36602200D02*
X233036667Y-36649819D01*
X233036667Y-36649819D02*
X233179524Y-36649819D01*
X233179524Y-36649819D02*
X233274762Y-36602200D01*
X233274762Y-36602200D02*
X233322381Y-36554580D01*
X234227143Y-35983152D02*
X234227143Y-36792676D01*
X234227143Y-36792676D02*
X234179524Y-36887914D01*
X234179524Y-36887914D02*
X234131905Y-36935533D01*
X234131905Y-36935533D02*
X234036667Y-36983152D01*
X234036667Y-36983152D02*
X233893810Y-36983152D01*
X233893810Y-36983152D02*
X233798572Y-36935533D01*
X234227143Y-36602200D02*
X234131905Y-36649819D01*
X234131905Y-36649819D02*
X233941429Y-36649819D01*
X233941429Y-36649819D02*
X233846191Y-36602200D01*
X233846191Y-36602200D02*
X233798572Y-36554580D01*
X233798572Y-36554580D02*
X233750953Y-36459342D01*
X233750953Y-36459342D02*
X233750953Y-36173628D01*
X233750953Y-36173628D02*
X233798572Y-36078390D01*
X233798572Y-36078390D02*
X233846191Y-36030771D01*
X233846191Y-36030771D02*
X233941429Y-35983152D01*
X233941429Y-35983152D02*
X234131905Y-35983152D01*
X234131905Y-35983152D02*
X234227143Y-36030771D01*
X183546905Y-76289819D02*
X183546905Y-77099342D01*
X183546905Y-77099342D02*
X183594524Y-77194580D01*
X183594524Y-77194580D02*
X183642143Y-77242200D01*
X183642143Y-77242200D02*
X183737381Y-77289819D01*
X183737381Y-77289819D02*
X183927857Y-77289819D01*
X183927857Y-77289819D02*
X184023095Y-77242200D01*
X184023095Y-77242200D02*
X184070714Y-77194580D01*
X184070714Y-77194580D02*
X184118333Y-77099342D01*
X184118333Y-77099342D02*
X184118333Y-76289819D01*
X185118333Y-77289819D02*
X184546905Y-77289819D01*
X184832619Y-77289819D02*
X184832619Y-76289819D01*
X184832619Y-76289819D02*
X184737381Y-76432676D01*
X184737381Y-76432676D02*
X184642143Y-76527914D01*
X184642143Y-76527914D02*
X184546905Y-76575533D01*
X185737381Y-76289819D02*
X185832619Y-76289819D01*
X185832619Y-76289819D02*
X185927857Y-76337438D01*
X185927857Y-76337438D02*
X185975476Y-76385057D01*
X185975476Y-76385057D02*
X186023095Y-76480295D01*
X186023095Y-76480295D02*
X186070714Y-76670771D01*
X186070714Y-76670771D02*
X186070714Y-76908866D01*
X186070714Y-76908866D02*
X186023095Y-77099342D01*
X186023095Y-77099342D02*
X185975476Y-77194580D01*
X185975476Y-77194580D02*
X185927857Y-77242200D01*
X185927857Y-77242200D02*
X185832619Y-77289819D01*
X185832619Y-77289819D02*
X185737381Y-77289819D01*
X185737381Y-77289819D02*
X185642143Y-77242200D01*
X185642143Y-77242200D02*
X185594524Y-77194580D01*
X185594524Y-77194580D02*
X185546905Y-77099342D01*
X185546905Y-77099342D02*
X185499286Y-76908866D01*
X185499286Y-76908866D02*
X185499286Y-76670771D01*
X185499286Y-76670771D02*
X185546905Y-76480295D01*
X185546905Y-76480295D02*
X185594524Y-76385057D01*
X185594524Y-76385057D02*
X185642143Y-76337438D01*
X185642143Y-76337438D02*
X185737381Y-76289819D01*
X106513333Y-30934819D02*
X106180000Y-30458628D01*
X105941905Y-30934819D02*
X105941905Y-29934819D01*
X105941905Y-29934819D02*
X106322857Y-29934819D01*
X106322857Y-29934819D02*
X106418095Y-29982438D01*
X106418095Y-29982438D02*
X106465714Y-30030057D01*
X106465714Y-30030057D02*
X106513333Y-30125295D01*
X106513333Y-30125295D02*
X106513333Y-30268152D01*
X106513333Y-30268152D02*
X106465714Y-30363390D01*
X106465714Y-30363390D02*
X106418095Y-30411009D01*
X106418095Y-30411009D02*
X106322857Y-30458628D01*
X106322857Y-30458628D02*
X105941905Y-30458628D01*
X106894286Y-30030057D02*
X106941905Y-29982438D01*
X106941905Y-29982438D02*
X107037143Y-29934819D01*
X107037143Y-29934819D02*
X107275238Y-29934819D01*
X107275238Y-29934819D02*
X107370476Y-29982438D01*
X107370476Y-29982438D02*
X107418095Y-30030057D01*
X107418095Y-30030057D02*
X107465714Y-30125295D01*
X107465714Y-30125295D02*
X107465714Y-30220533D01*
X107465714Y-30220533D02*
X107418095Y-30363390D01*
X107418095Y-30363390D02*
X106846667Y-30934819D01*
X106846667Y-30934819D02*
X107465714Y-30934819D01*
X103928152Y-34043809D02*
X104594819Y-34043809D01*
X103547200Y-34281904D02*
X104261485Y-34519999D01*
X104261485Y-34519999D02*
X104261485Y-33900952D01*
X104499580Y-33519999D02*
X104547200Y-33472380D01*
X104547200Y-33472380D02*
X104594819Y-33519999D01*
X104594819Y-33519999D02*
X104547200Y-33567618D01*
X104547200Y-33567618D02*
X104499580Y-33519999D01*
X104499580Y-33519999D02*
X104594819Y-33519999D01*
X103594819Y-33139047D02*
X103594819Y-32472381D01*
X103594819Y-32472381D02*
X104594819Y-32900952D01*
X104594819Y-32091428D02*
X103594819Y-32091428D01*
X104594819Y-31520000D02*
X104023390Y-31948571D01*
X103594819Y-31520000D02*
X104166247Y-32091428D01*
X154297142Y-111484580D02*
X154249523Y-111532200D01*
X154249523Y-111532200D02*
X154106666Y-111579819D01*
X154106666Y-111579819D02*
X154011428Y-111579819D01*
X154011428Y-111579819D02*
X153868571Y-111532200D01*
X153868571Y-111532200D02*
X153773333Y-111436961D01*
X153773333Y-111436961D02*
X153725714Y-111341723D01*
X153725714Y-111341723D02*
X153678095Y-111151247D01*
X153678095Y-111151247D02*
X153678095Y-111008390D01*
X153678095Y-111008390D02*
X153725714Y-110817914D01*
X153725714Y-110817914D02*
X153773333Y-110722676D01*
X153773333Y-110722676D02*
X153868571Y-110627438D01*
X153868571Y-110627438D02*
X154011428Y-110579819D01*
X154011428Y-110579819D02*
X154106666Y-110579819D01*
X154106666Y-110579819D02*
X154249523Y-110627438D01*
X154249523Y-110627438D02*
X154297142Y-110675057D01*
X154678095Y-110675057D02*
X154725714Y-110627438D01*
X154725714Y-110627438D02*
X154820952Y-110579819D01*
X154820952Y-110579819D02*
X155059047Y-110579819D01*
X155059047Y-110579819D02*
X155154285Y-110627438D01*
X155154285Y-110627438D02*
X155201904Y-110675057D01*
X155201904Y-110675057D02*
X155249523Y-110770295D01*
X155249523Y-110770295D02*
X155249523Y-110865533D01*
X155249523Y-110865533D02*
X155201904Y-111008390D01*
X155201904Y-111008390D02*
X154630476Y-111579819D01*
X154630476Y-111579819D02*
X155249523Y-111579819D01*
X156154285Y-110579819D02*
X155678095Y-110579819D01*
X155678095Y-110579819D02*
X155630476Y-111056009D01*
X155630476Y-111056009D02*
X155678095Y-111008390D01*
X155678095Y-111008390D02*
X155773333Y-110960771D01*
X155773333Y-110960771D02*
X156011428Y-110960771D01*
X156011428Y-110960771D02*
X156106666Y-111008390D01*
X156106666Y-111008390D02*
X156154285Y-111056009D01*
X156154285Y-111056009D02*
X156201904Y-111151247D01*
X156201904Y-111151247D02*
X156201904Y-111389342D01*
X156201904Y-111389342D02*
X156154285Y-111484580D01*
X156154285Y-111484580D02*
X156106666Y-111532200D01*
X156106666Y-111532200D02*
X156011428Y-111579819D01*
X156011428Y-111579819D02*
X155773333Y-111579819D01*
X155773333Y-111579819D02*
X155678095Y-111532200D01*
X155678095Y-111532200D02*
X155630476Y-111484580D01*
X99012142Y-74019580D02*
X98964523Y-74067200D01*
X98964523Y-74067200D02*
X98821666Y-74114819D01*
X98821666Y-74114819D02*
X98726428Y-74114819D01*
X98726428Y-74114819D02*
X98583571Y-74067200D01*
X98583571Y-74067200D02*
X98488333Y-73971961D01*
X98488333Y-73971961D02*
X98440714Y-73876723D01*
X98440714Y-73876723D02*
X98393095Y-73686247D01*
X98393095Y-73686247D02*
X98393095Y-73543390D01*
X98393095Y-73543390D02*
X98440714Y-73352914D01*
X98440714Y-73352914D02*
X98488333Y-73257676D01*
X98488333Y-73257676D02*
X98583571Y-73162438D01*
X98583571Y-73162438D02*
X98726428Y-73114819D01*
X98726428Y-73114819D02*
X98821666Y-73114819D01*
X98821666Y-73114819D02*
X98964523Y-73162438D01*
X98964523Y-73162438D02*
X99012142Y-73210057D01*
X99964523Y-74114819D02*
X99393095Y-74114819D01*
X99678809Y-74114819D02*
X99678809Y-73114819D01*
X99678809Y-73114819D02*
X99583571Y-73257676D01*
X99583571Y-73257676D02*
X99488333Y-73352914D01*
X99488333Y-73352914D02*
X99393095Y-73400533D01*
X100345476Y-73210057D02*
X100393095Y-73162438D01*
X100393095Y-73162438D02*
X100488333Y-73114819D01*
X100488333Y-73114819D02*
X100726428Y-73114819D01*
X100726428Y-73114819D02*
X100821666Y-73162438D01*
X100821666Y-73162438D02*
X100869285Y-73210057D01*
X100869285Y-73210057D02*
X100916904Y-73305295D01*
X100916904Y-73305295D02*
X100916904Y-73400533D01*
X100916904Y-73400533D02*
X100869285Y-73543390D01*
X100869285Y-73543390D02*
X100297857Y-74114819D01*
X100297857Y-74114819D02*
X100916904Y-74114819D01*
X148621905Y-111424819D02*
X148621905Y-112234342D01*
X148621905Y-112234342D02*
X148669524Y-112329580D01*
X148669524Y-112329580D02*
X148717143Y-112377200D01*
X148717143Y-112377200D02*
X148812381Y-112424819D01*
X148812381Y-112424819D02*
X149002857Y-112424819D01*
X149002857Y-112424819D02*
X149098095Y-112377200D01*
X149098095Y-112377200D02*
X149145714Y-112329580D01*
X149145714Y-112329580D02*
X149193333Y-112234342D01*
X149193333Y-112234342D02*
X149193333Y-111424819D01*
X149621905Y-111520057D02*
X149669524Y-111472438D01*
X149669524Y-111472438D02*
X149764762Y-111424819D01*
X149764762Y-111424819D02*
X150002857Y-111424819D01*
X150002857Y-111424819D02*
X150098095Y-111472438D01*
X150098095Y-111472438D02*
X150145714Y-111520057D01*
X150145714Y-111520057D02*
X150193333Y-111615295D01*
X150193333Y-111615295D02*
X150193333Y-111710533D01*
X150193333Y-111710533D02*
X150145714Y-111853390D01*
X150145714Y-111853390D02*
X149574286Y-112424819D01*
X149574286Y-112424819D02*
X150193333Y-112424819D01*
X151098095Y-111424819D02*
X150621905Y-111424819D01*
X150621905Y-111424819D02*
X150574286Y-111901009D01*
X150574286Y-111901009D02*
X150621905Y-111853390D01*
X150621905Y-111853390D02*
X150717143Y-111805771D01*
X150717143Y-111805771D02*
X150955238Y-111805771D01*
X150955238Y-111805771D02*
X151050476Y-111853390D01*
X151050476Y-111853390D02*
X151098095Y-111901009D01*
X151098095Y-111901009D02*
X151145714Y-111996247D01*
X151145714Y-111996247D02*
X151145714Y-112234342D01*
X151145714Y-112234342D02*
X151098095Y-112329580D01*
X151098095Y-112329580D02*
X151050476Y-112377200D01*
X151050476Y-112377200D02*
X150955238Y-112424819D01*
X150955238Y-112424819D02*
X150717143Y-112424819D01*
X150717143Y-112424819D02*
X150621905Y-112377200D01*
X150621905Y-112377200D02*
X150574286Y-112329580D01*
X117943333Y-74019580D02*
X117895714Y-74067200D01*
X117895714Y-74067200D02*
X117752857Y-74114819D01*
X117752857Y-74114819D02*
X117657619Y-74114819D01*
X117657619Y-74114819D02*
X117514762Y-74067200D01*
X117514762Y-74067200D02*
X117419524Y-73971961D01*
X117419524Y-73971961D02*
X117371905Y-73876723D01*
X117371905Y-73876723D02*
X117324286Y-73686247D01*
X117324286Y-73686247D02*
X117324286Y-73543390D01*
X117324286Y-73543390D02*
X117371905Y-73352914D01*
X117371905Y-73352914D02*
X117419524Y-73257676D01*
X117419524Y-73257676D02*
X117514762Y-73162438D01*
X117514762Y-73162438D02*
X117657619Y-73114819D01*
X117657619Y-73114819D02*
X117752857Y-73114819D01*
X117752857Y-73114819D02*
X117895714Y-73162438D01*
X117895714Y-73162438D02*
X117943333Y-73210057D01*
X118514762Y-73543390D02*
X118419524Y-73495771D01*
X118419524Y-73495771D02*
X118371905Y-73448152D01*
X118371905Y-73448152D02*
X118324286Y-73352914D01*
X118324286Y-73352914D02*
X118324286Y-73305295D01*
X118324286Y-73305295D02*
X118371905Y-73210057D01*
X118371905Y-73210057D02*
X118419524Y-73162438D01*
X118419524Y-73162438D02*
X118514762Y-73114819D01*
X118514762Y-73114819D02*
X118705238Y-73114819D01*
X118705238Y-73114819D02*
X118800476Y-73162438D01*
X118800476Y-73162438D02*
X118848095Y-73210057D01*
X118848095Y-73210057D02*
X118895714Y-73305295D01*
X118895714Y-73305295D02*
X118895714Y-73352914D01*
X118895714Y-73352914D02*
X118848095Y-73448152D01*
X118848095Y-73448152D02*
X118800476Y-73495771D01*
X118800476Y-73495771D02*
X118705238Y-73543390D01*
X118705238Y-73543390D02*
X118514762Y-73543390D01*
X118514762Y-73543390D02*
X118419524Y-73591009D01*
X118419524Y-73591009D02*
X118371905Y-73638628D01*
X118371905Y-73638628D02*
X118324286Y-73733866D01*
X118324286Y-73733866D02*
X118324286Y-73924342D01*
X118324286Y-73924342D02*
X118371905Y-74019580D01*
X118371905Y-74019580D02*
X118419524Y-74067200D01*
X118419524Y-74067200D02*
X118514762Y-74114819D01*
X118514762Y-74114819D02*
X118705238Y-74114819D01*
X118705238Y-74114819D02*
X118800476Y-74067200D01*
X118800476Y-74067200D02*
X118848095Y-74019580D01*
X118848095Y-74019580D02*
X118895714Y-73924342D01*
X118895714Y-73924342D02*
X118895714Y-73733866D01*
X118895714Y-73733866D02*
X118848095Y-73638628D01*
X118848095Y-73638628D02*
X118800476Y-73591009D01*
X118800476Y-73591009D02*
X118705238Y-73543390D01*
X72223333Y-116024819D02*
X71890000Y-115548628D01*
X71651905Y-116024819D02*
X71651905Y-115024819D01*
X71651905Y-115024819D02*
X72032857Y-115024819D01*
X72032857Y-115024819D02*
X72128095Y-115072438D01*
X72128095Y-115072438D02*
X72175714Y-115120057D01*
X72175714Y-115120057D02*
X72223333Y-115215295D01*
X72223333Y-115215295D02*
X72223333Y-115358152D01*
X72223333Y-115358152D02*
X72175714Y-115453390D01*
X72175714Y-115453390D02*
X72128095Y-115501009D01*
X72128095Y-115501009D02*
X72032857Y-115548628D01*
X72032857Y-115548628D02*
X71651905Y-115548628D01*
X73080476Y-115024819D02*
X72890000Y-115024819D01*
X72890000Y-115024819D02*
X72794762Y-115072438D01*
X72794762Y-115072438D02*
X72747143Y-115120057D01*
X72747143Y-115120057D02*
X72651905Y-115262914D01*
X72651905Y-115262914D02*
X72604286Y-115453390D01*
X72604286Y-115453390D02*
X72604286Y-115834342D01*
X72604286Y-115834342D02*
X72651905Y-115929580D01*
X72651905Y-115929580D02*
X72699524Y-115977200D01*
X72699524Y-115977200D02*
X72794762Y-116024819D01*
X72794762Y-116024819D02*
X72985238Y-116024819D01*
X72985238Y-116024819D02*
X73080476Y-115977200D01*
X73080476Y-115977200D02*
X73128095Y-115929580D01*
X73128095Y-115929580D02*
X73175714Y-115834342D01*
X73175714Y-115834342D02*
X73175714Y-115596247D01*
X73175714Y-115596247D02*
X73128095Y-115501009D01*
X73128095Y-115501009D02*
X73080476Y-115453390D01*
X73080476Y-115453390D02*
X72985238Y-115405771D01*
X72985238Y-115405771D02*
X72794762Y-115405771D01*
X72794762Y-115405771D02*
X72699524Y-115453390D01*
X72699524Y-115453390D02*
X72651905Y-115501009D01*
X72651905Y-115501009D02*
X72604286Y-115596247D01*
X69638152Y-119133809D02*
X70304819Y-119133809D01*
X69257200Y-119371904D02*
X69971485Y-119609999D01*
X69971485Y-119609999D02*
X69971485Y-118990952D01*
X70209580Y-118609999D02*
X70257200Y-118562380D01*
X70257200Y-118562380D02*
X70304819Y-118609999D01*
X70304819Y-118609999D02*
X70257200Y-118657618D01*
X70257200Y-118657618D02*
X70209580Y-118609999D01*
X70209580Y-118609999D02*
X70304819Y-118609999D01*
X69304819Y-118229047D02*
X69304819Y-117562381D01*
X69304819Y-117562381D02*
X70304819Y-117990952D01*
X70304819Y-117181428D02*
X69304819Y-117181428D01*
X70304819Y-116610000D02*
X69733390Y-117038571D01*
X69304819Y-116610000D02*
X69876247Y-117181428D01*
X158623333Y-26394580D02*
X158575714Y-26442200D01*
X158575714Y-26442200D02*
X158432857Y-26489819D01*
X158432857Y-26489819D02*
X158337619Y-26489819D01*
X158337619Y-26489819D02*
X158194762Y-26442200D01*
X158194762Y-26442200D02*
X158099524Y-26346961D01*
X158099524Y-26346961D02*
X158051905Y-26251723D01*
X158051905Y-26251723D02*
X158004286Y-26061247D01*
X158004286Y-26061247D02*
X158004286Y-25918390D01*
X158004286Y-25918390D02*
X158051905Y-25727914D01*
X158051905Y-25727914D02*
X158099524Y-25632676D01*
X158099524Y-25632676D02*
X158194762Y-25537438D01*
X158194762Y-25537438D02*
X158337619Y-25489819D01*
X158337619Y-25489819D02*
X158432857Y-25489819D01*
X158432857Y-25489819D02*
X158575714Y-25537438D01*
X158575714Y-25537438D02*
X158623333Y-25585057D01*
X159480476Y-25823152D02*
X159480476Y-26489819D01*
X159242381Y-25442200D02*
X159004286Y-26156485D01*
X159004286Y-26156485D02*
X159623333Y-26156485D01*
X111791905Y-111424819D02*
X111791905Y-112234342D01*
X111791905Y-112234342D02*
X111839524Y-112329580D01*
X111839524Y-112329580D02*
X111887143Y-112377200D01*
X111887143Y-112377200D02*
X111982381Y-112424819D01*
X111982381Y-112424819D02*
X112172857Y-112424819D01*
X112172857Y-112424819D02*
X112268095Y-112377200D01*
X112268095Y-112377200D02*
X112315714Y-112329580D01*
X112315714Y-112329580D02*
X112363333Y-112234342D01*
X112363333Y-112234342D02*
X112363333Y-111424819D01*
X113363333Y-112424819D02*
X112791905Y-112424819D01*
X113077619Y-112424819D02*
X113077619Y-111424819D01*
X113077619Y-111424819D02*
X112982381Y-111567676D01*
X112982381Y-111567676D02*
X112887143Y-111662914D01*
X112887143Y-111662914D02*
X112791905Y-111710533D01*
X113696667Y-111424819D02*
X114363333Y-111424819D01*
X114363333Y-111424819D02*
X113934762Y-112424819D01*
X99012142Y-111484580D02*
X98964523Y-111532200D01*
X98964523Y-111532200D02*
X98821666Y-111579819D01*
X98821666Y-111579819D02*
X98726428Y-111579819D01*
X98726428Y-111579819D02*
X98583571Y-111532200D01*
X98583571Y-111532200D02*
X98488333Y-111436961D01*
X98488333Y-111436961D02*
X98440714Y-111341723D01*
X98440714Y-111341723D02*
X98393095Y-111151247D01*
X98393095Y-111151247D02*
X98393095Y-111008390D01*
X98393095Y-111008390D02*
X98440714Y-110817914D01*
X98440714Y-110817914D02*
X98488333Y-110722676D01*
X98488333Y-110722676D02*
X98583571Y-110627438D01*
X98583571Y-110627438D02*
X98726428Y-110579819D01*
X98726428Y-110579819D02*
X98821666Y-110579819D01*
X98821666Y-110579819D02*
X98964523Y-110627438D01*
X98964523Y-110627438D02*
X99012142Y-110675057D01*
X99964523Y-111579819D02*
X99393095Y-111579819D01*
X99678809Y-111579819D02*
X99678809Y-110579819D01*
X99678809Y-110579819D02*
X99583571Y-110722676D01*
X99583571Y-110722676D02*
X99488333Y-110817914D01*
X99488333Y-110817914D02*
X99393095Y-110865533D01*
X100821666Y-110579819D02*
X100631190Y-110579819D01*
X100631190Y-110579819D02*
X100535952Y-110627438D01*
X100535952Y-110627438D02*
X100488333Y-110675057D01*
X100488333Y-110675057D02*
X100393095Y-110817914D01*
X100393095Y-110817914D02*
X100345476Y-111008390D01*
X100345476Y-111008390D02*
X100345476Y-111389342D01*
X100345476Y-111389342D02*
X100393095Y-111484580D01*
X100393095Y-111484580D02*
X100440714Y-111532200D01*
X100440714Y-111532200D02*
X100535952Y-111579819D01*
X100535952Y-111579819D02*
X100726428Y-111579819D01*
X100726428Y-111579819D02*
X100821666Y-111532200D01*
X100821666Y-111532200D02*
X100869285Y-111484580D01*
X100869285Y-111484580D02*
X100916904Y-111389342D01*
X100916904Y-111389342D02*
X100916904Y-111151247D01*
X100916904Y-111151247D02*
X100869285Y-111056009D01*
X100869285Y-111056009D02*
X100821666Y-111008390D01*
X100821666Y-111008390D02*
X100726428Y-110960771D01*
X100726428Y-110960771D02*
X100535952Y-110960771D01*
X100535952Y-110960771D02*
X100440714Y-111008390D01*
X100440714Y-111008390D02*
X100393095Y-111056009D01*
X100393095Y-111056009D02*
X100345476Y-111151247D01*
X38131905Y-111214819D02*
X38131905Y-112024342D01*
X38131905Y-112024342D02*
X38179524Y-112119580D01*
X38179524Y-112119580D02*
X38227143Y-112167200D01*
X38227143Y-112167200D02*
X38322381Y-112214819D01*
X38322381Y-112214819D02*
X38512857Y-112214819D01*
X38512857Y-112214819D02*
X38608095Y-112167200D01*
X38608095Y-112167200D02*
X38655714Y-112119580D01*
X38655714Y-112119580D02*
X38703333Y-112024342D01*
X38703333Y-112024342D02*
X38703333Y-111214819D01*
X39131905Y-111310057D02*
X39179524Y-111262438D01*
X39179524Y-111262438D02*
X39274762Y-111214819D01*
X39274762Y-111214819D02*
X39512857Y-111214819D01*
X39512857Y-111214819D02*
X39608095Y-111262438D01*
X39608095Y-111262438D02*
X39655714Y-111310057D01*
X39655714Y-111310057D02*
X39703333Y-111405295D01*
X39703333Y-111405295D02*
X39703333Y-111500533D01*
X39703333Y-111500533D02*
X39655714Y-111643390D01*
X39655714Y-111643390D02*
X39084286Y-112214819D01*
X39084286Y-112214819D02*
X39703333Y-112214819D01*
X40036667Y-111214819D02*
X40655714Y-111214819D01*
X40655714Y-111214819D02*
X40322381Y-111595771D01*
X40322381Y-111595771D02*
X40465238Y-111595771D01*
X40465238Y-111595771D02*
X40560476Y-111643390D01*
X40560476Y-111643390D02*
X40608095Y-111691009D01*
X40608095Y-111691009D02*
X40655714Y-111786247D01*
X40655714Y-111786247D02*
X40655714Y-112024342D01*
X40655714Y-112024342D02*
X40608095Y-112119580D01*
X40608095Y-112119580D02*
X40560476Y-112167200D01*
X40560476Y-112167200D02*
X40465238Y-112214819D01*
X40465238Y-112214819D02*
X40179524Y-112214819D01*
X40179524Y-112214819D02*
X40084286Y-112167200D01*
X40084286Y-112167200D02*
X40036667Y-112119580D01*
X182713333Y-125549819D02*
X182380000Y-125073628D01*
X182141905Y-125549819D02*
X182141905Y-124549819D01*
X182141905Y-124549819D02*
X182522857Y-124549819D01*
X182522857Y-124549819D02*
X182618095Y-124597438D01*
X182618095Y-124597438D02*
X182665714Y-124645057D01*
X182665714Y-124645057D02*
X182713333Y-124740295D01*
X182713333Y-124740295D02*
X182713333Y-124883152D01*
X182713333Y-124883152D02*
X182665714Y-124978390D01*
X182665714Y-124978390D02*
X182618095Y-125026009D01*
X182618095Y-125026009D02*
X182522857Y-125073628D01*
X182522857Y-125073628D02*
X182141905Y-125073628D01*
X183189524Y-125549819D02*
X183380000Y-125549819D01*
X183380000Y-125549819D02*
X183475238Y-125502200D01*
X183475238Y-125502200D02*
X183522857Y-125454580D01*
X183522857Y-125454580D02*
X183618095Y-125311723D01*
X183618095Y-125311723D02*
X183665714Y-125121247D01*
X183665714Y-125121247D02*
X183665714Y-124740295D01*
X183665714Y-124740295D02*
X183618095Y-124645057D01*
X183618095Y-124645057D02*
X183570476Y-124597438D01*
X183570476Y-124597438D02*
X183475238Y-124549819D01*
X183475238Y-124549819D02*
X183284762Y-124549819D01*
X183284762Y-124549819D02*
X183189524Y-124597438D01*
X183189524Y-124597438D02*
X183141905Y-124645057D01*
X183141905Y-124645057D02*
X183094286Y-124740295D01*
X183094286Y-124740295D02*
X183094286Y-124978390D01*
X183094286Y-124978390D02*
X183141905Y-125073628D01*
X183141905Y-125073628D02*
X183189524Y-125121247D01*
X183189524Y-125121247D02*
X183284762Y-125168866D01*
X183284762Y-125168866D02*
X183475238Y-125168866D01*
X183475238Y-125168866D02*
X183570476Y-125121247D01*
X183570476Y-125121247D02*
X183618095Y-125073628D01*
X183618095Y-125073628D02*
X183665714Y-124978390D01*
X180128152Y-128658809D02*
X180794819Y-128658809D01*
X179747200Y-128896904D02*
X180461485Y-129134999D01*
X180461485Y-129134999D02*
X180461485Y-128515952D01*
X180699580Y-128134999D02*
X180747200Y-128087380D01*
X180747200Y-128087380D02*
X180794819Y-128134999D01*
X180794819Y-128134999D02*
X180747200Y-128182618D01*
X180747200Y-128182618D02*
X180699580Y-128134999D01*
X180699580Y-128134999D02*
X180794819Y-128134999D01*
X179794819Y-127754047D02*
X179794819Y-127087381D01*
X179794819Y-127087381D02*
X180794819Y-127515952D01*
X180794819Y-126706428D02*
X179794819Y-126706428D01*
X180794819Y-126135000D02*
X180223390Y-126563571D01*
X179794819Y-126135000D02*
X180366247Y-126706428D01*
X81113333Y-74019580D02*
X81065714Y-74067200D01*
X81065714Y-74067200D02*
X80922857Y-74114819D01*
X80922857Y-74114819D02*
X80827619Y-74114819D01*
X80827619Y-74114819D02*
X80684762Y-74067200D01*
X80684762Y-74067200D02*
X80589524Y-73971961D01*
X80589524Y-73971961D02*
X80541905Y-73876723D01*
X80541905Y-73876723D02*
X80494286Y-73686247D01*
X80494286Y-73686247D02*
X80494286Y-73543390D01*
X80494286Y-73543390D02*
X80541905Y-73352914D01*
X80541905Y-73352914D02*
X80589524Y-73257676D01*
X80589524Y-73257676D02*
X80684762Y-73162438D01*
X80684762Y-73162438D02*
X80827619Y-73114819D01*
X80827619Y-73114819D02*
X80922857Y-73114819D01*
X80922857Y-73114819D02*
X81065714Y-73162438D01*
X81065714Y-73162438D02*
X81113333Y-73210057D01*
X81446667Y-73114819D02*
X82113333Y-73114819D01*
X82113333Y-73114819D02*
X81684762Y-74114819D01*
X130206905Y-73749819D02*
X130206905Y-74559342D01*
X130206905Y-74559342D02*
X130254524Y-74654580D01*
X130254524Y-74654580D02*
X130302143Y-74702200D01*
X130302143Y-74702200D02*
X130397381Y-74749819D01*
X130397381Y-74749819D02*
X130587857Y-74749819D01*
X130587857Y-74749819D02*
X130683095Y-74702200D01*
X130683095Y-74702200D02*
X130730714Y-74654580D01*
X130730714Y-74654580D02*
X130778333Y-74559342D01*
X130778333Y-74559342D02*
X130778333Y-73749819D01*
X131778333Y-74749819D02*
X131206905Y-74749819D01*
X131492619Y-74749819D02*
X131492619Y-73749819D01*
X131492619Y-73749819D02*
X131397381Y-73892676D01*
X131397381Y-73892676D02*
X131302143Y-73987914D01*
X131302143Y-73987914D02*
X131206905Y-74035533D01*
X132111667Y-73749819D02*
X132730714Y-73749819D01*
X132730714Y-73749819D02*
X132397381Y-74130771D01*
X132397381Y-74130771D02*
X132540238Y-74130771D01*
X132540238Y-74130771D02*
X132635476Y-74178390D01*
X132635476Y-74178390D02*
X132683095Y-74226009D01*
X132683095Y-74226009D02*
X132730714Y-74321247D01*
X132730714Y-74321247D02*
X132730714Y-74559342D01*
X132730714Y-74559342D02*
X132683095Y-74654580D01*
X132683095Y-74654580D02*
X132635476Y-74702200D01*
X132635476Y-74702200D02*
X132540238Y-74749819D01*
X132540238Y-74749819D02*
X132254524Y-74749819D01*
X132254524Y-74749819D02*
X132159286Y-74702200D01*
X132159286Y-74702200D02*
X132111667Y-74654580D01*
X228552142Y-111484580D02*
X228504523Y-111532200D01*
X228504523Y-111532200D02*
X228361666Y-111579819D01*
X228361666Y-111579819D02*
X228266428Y-111579819D01*
X228266428Y-111579819D02*
X228123571Y-111532200D01*
X228123571Y-111532200D02*
X228028333Y-111436961D01*
X228028333Y-111436961D02*
X227980714Y-111341723D01*
X227980714Y-111341723D02*
X227933095Y-111151247D01*
X227933095Y-111151247D02*
X227933095Y-111008390D01*
X227933095Y-111008390D02*
X227980714Y-110817914D01*
X227980714Y-110817914D02*
X228028333Y-110722676D01*
X228028333Y-110722676D02*
X228123571Y-110627438D01*
X228123571Y-110627438D02*
X228266428Y-110579819D01*
X228266428Y-110579819D02*
X228361666Y-110579819D01*
X228361666Y-110579819D02*
X228504523Y-110627438D01*
X228504523Y-110627438D02*
X228552142Y-110675057D01*
X229504523Y-111579819D02*
X228933095Y-111579819D01*
X229218809Y-111579819D02*
X229218809Y-110579819D01*
X229218809Y-110579819D02*
X229123571Y-110722676D01*
X229123571Y-110722676D02*
X229028333Y-110817914D01*
X229028333Y-110817914D02*
X228933095Y-110865533D01*
X229980714Y-111579819D02*
X230171190Y-111579819D01*
X230171190Y-111579819D02*
X230266428Y-111532200D01*
X230266428Y-111532200D02*
X230314047Y-111484580D01*
X230314047Y-111484580D02*
X230409285Y-111341723D01*
X230409285Y-111341723D02*
X230456904Y-111151247D01*
X230456904Y-111151247D02*
X230456904Y-110770295D01*
X230456904Y-110770295D02*
X230409285Y-110675057D01*
X230409285Y-110675057D02*
X230361666Y-110627438D01*
X230361666Y-110627438D02*
X230266428Y-110579819D01*
X230266428Y-110579819D02*
X230075952Y-110579819D01*
X230075952Y-110579819D02*
X229980714Y-110627438D01*
X229980714Y-110627438D02*
X229933095Y-110675057D01*
X229933095Y-110675057D02*
X229885476Y-110770295D01*
X229885476Y-110770295D02*
X229885476Y-111008390D01*
X229885476Y-111008390D02*
X229933095Y-111103628D01*
X229933095Y-111103628D02*
X229980714Y-111151247D01*
X229980714Y-111151247D02*
X230075952Y-111198866D01*
X230075952Y-111198866D02*
X230266428Y-111198866D01*
X230266428Y-111198866D02*
X230361666Y-111151247D01*
X230361666Y-111151247D02*
X230409285Y-111103628D01*
X230409285Y-111103628D02*
X230456904Y-111008390D01*
X62222142Y-111484580D02*
X62174523Y-111532200D01*
X62174523Y-111532200D02*
X62031666Y-111579819D01*
X62031666Y-111579819D02*
X61936428Y-111579819D01*
X61936428Y-111579819D02*
X61793571Y-111532200D01*
X61793571Y-111532200D02*
X61698333Y-111436961D01*
X61698333Y-111436961D02*
X61650714Y-111341723D01*
X61650714Y-111341723D02*
X61603095Y-111151247D01*
X61603095Y-111151247D02*
X61603095Y-111008390D01*
X61603095Y-111008390D02*
X61650714Y-110817914D01*
X61650714Y-110817914D02*
X61698333Y-110722676D01*
X61698333Y-110722676D02*
X61793571Y-110627438D01*
X61793571Y-110627438D02*
X61936428Y-110579819D01*
X61936428Y-110579819D02*
X62031666Y-110579819D01*
X62031666Y-110579819D02*
X62174523Y-110627438D01*
X62174523Y-110627438D02*
X62222142Y-110675057D01*
X62603095Y-110675057D02*
X62650714Y-110627438D01*
X62650714Y-110627438D02*
X62745952Y-110579819D01*
X62745952Y-110579819D02*
X62984047Y-110579819D01*
X62984047Y-110579819D02*
X63079285Y-110627438D01*
X63079285Y-110627438D02*
X63126904Y-110675057D01*
X63126904Y-110675057D02*
X63174523Y-110770295D01*
X63174523Y-110770295D02*
X63174523Y-110865533D01*
X63174523Y-110865533D02*
X63126904Y-111008390D01*
X63126904Y-111008390D02*
X62555476Y-111579819D01*
X62555476Y-111579819D02*
X63174523Y-111579819D01*
X64031666Y-110913152D02*
X64031666Y-111579819D01*
X63793571Y-110532200D02*
X63555476Y-111246485D01*
X63555476Y-111246485D02*
X64174523Y-111246485D01*
X84923333Y-26394580D02*
X84875714Y-26442200D01*
X84875714Y-26442200D02*
X84732857Y-26489819D01*
X84732857Y-26489819D02*
X84637619Y-26489819D01*
X84637619Y-26489819D02*
X84494762Y-26442200D01*
X84494762Y-26442200D02*
X84399524Y-26346961D01*
X84399524Y-26346961D02*
X84351905Y-26251723D01*
X84351905Y-26251723D02*
X84304286Y-26061247D01*
X84304286Y-26061247D02*
X84304286Y-25918390D01*
X84304286Y-25918390D02*
X84351905Y-25727914D01*
X84351905Y-25727914D02*
X84399524Y-25632676D01*
X84399524Y-25632676D02*
X84494762Y-25537438D01*
X84494762Y-25537438D02*
X84637619Y-25489819D01*
X84637619Y-25489819D02*
X84732857Y-25489819D01*
X84732857Y-25489819D02*
X84875714Y-25537438D01*
X84875714Y-25537438D02*
X84923333Y-25585057D01*
X85304286Y-25585057D02*
X85351905Y-25537438D01*
X85351905Y-25537438D02*
X85447143Y-25489819D01*
X85447143Y-25489819D02*
X85685238Y-25489819D01*
X85685238Y-25489819D02*
X85780476Y-25537438D01*
X85780476Y-25537438D02*
X85828095Y-25585057D01*
X85828095Y-25585057D02*
X85875714Y-25680295D01*
X85875714Y-25680295D02*
X85875714Y-25775533D01*
X85875714Y-25775533D02*
X85828095Y-25918390D01*
X85828095Y-25918390D02*
X85256667Y-26489819D01*
X85256667Y-26489819D02*
X85875714Y-26489819D01*
X172752142Y-111484580D02*
X172704523Y-111532200D01*
X172704523Y-111532200D02*
X172561666Y-111579819D01*
X172561666Y-111579819D02*
X172466428Y-111579819D01*
X172466428Y-111579819D02*
X172323571Y-111532200D01*
X172323571Y-111532200D02*
X172228333Y-111436961D01*
X172228333Y-111436961D02*
X172180714Y-111341723D01*
X172180714Y-111341723D02*
X172133095Y-111151247D01*
X172133095Y-111151247D02*
X172133095Y-111008390D01*
X172133095Y-111008390D02*
X172180714Y-110817914D01*
X172180714Y-110817914D02*
X172228333Y-110722676D01*
X172228333Y-110722676D02*
X172323571Y-110627438D01*
X172323571Y-110627438D02*
X172466428Y-110579819D01*
X172466428Y-110579819D02*
X172561666Y-110579819D01*
X172561666Y-110579819D02*
X172704523Y-110627438D01*
X172704523Y-110627438D02*
X172752142Y-110675057D01*
X173133095Y-110675057D02*
X173180714Y-110627438D01*
X173180714Y-110627438D02*
X173275952Y-110579819D01*
X173275952Y-110579819D02*
X173514047Y-110579819D01*
X173514047Y-110579819D02*
X173609285Y-110627438D01*
X173609285Y-110627438D02*
X173656904Y-110675057D01*
X173656904Y-110675057D02*
X173704523Y-110770295D01*
X173704523Y-110770295D02*
X173704523Y-110865533D01*
X173704523Y-110865533D02*
X173656904Y-111008390D01*
X173656904Y-111008390D02*
X173085476Y-111579819D01*
X173085476Y-111579819D02*
X173704523Y-111579819D01*
X174561666Y-110579819D02*
X174371190Y-110579819D01*
X174371190Y-110579819D02*
X174275952Y-110627438D01*
X174275952Y-110627438D02*
X174228333Y-110675057D01*
X174228333Y-110675057D02*
X174133095Y-110817914D01*
X174133095Y-110817914D02*
X174085476Y-111008390D01*
X174085476Y-111008390D02*
X174085476Y-111389342D01*
X174085476Y-111389342D02*
X174133095Y-111484580D01*
X174133095Y-111484580D02*
X174180714Y-111532200D01*
X174180714Y-111532200D02*
X174275952Y-111579819D01*
X174275952Y-111579819D02*
X174466428Y-111579819D01*
X174466428Y-111579819D02*
X174561666Y-111532200D01*
X174561666Y-111532200D02*
X174609285Y-111484580D01*
X174609285Y-111484580D02*
X174656904Y-111389342D01*
X174656904Y-111389342D02*
X174656904Y-111151247D01*
X174656904Y-111151247D02*
X174609285Y-111056009D01*
X174609285Y-111056009D02*
X174561666Y-111008390D01*
X174561666Y-111008390D02*
X174466428Y-110960771D01*
X174466428Y-110960771D02*
X174275952Y-110960771D01*
X174275952Y-110960771D02*
X174180714Y-111008390D01*
X174180714Y-111008390D02*
X174133095Y-111056009D01*
X174133095Y-111056009D02*
X174085476Y-111151247D01*
X167036905Y-73749819D02*
X167036905Y-74559342D01*
X167036905Y-74559342D02*
X167084524Y-74654580D01*
X167084524Y-74654580D02*
X167132143Y-74702200D01*
X167132143Y-74702200D02*
X167227381Y-74749819D01*
X167227381Y-74749819D02*
X167417857Y-74749819D01*
X167417857Y-74749819D02*
X167513095Y-74702200D01*
X167513095Y-74702200D02*
X167560714Y-74654580D01*
X167560714Y-74654580D02*
X167608333Y-74559342D01*
X167608333Y-74559342D02*
X167608333Y-73749819D01*
X168608333Y-74749819D02*
X168036905Y-74749819D01*
X168322619Y-74749819D02*
X168322619Y-73749819D01*
X168322619Y-73749819D02*
X168227381Y-73892676D01*
X168227381Y-73892676D02*
X168132143Y-73987914D01*
X168132143Y-73987914D02*
X168036905Y-74035533D01*
X169465476Y-74083152D02*
X169465476Y-74749819D01*
X169227381Y-73702200D02*
X168989286Y-74416485D01*
X168989286Y-74416485D02*
X169608333Y-74416485D01*
X163663333Y-125549819D02*
X163330000Y-125073628D01*
X163091905Y-125549819D02*
X163091905Y-124549819D01*
X163091905Y-124549819D02*
X163472857Y-124549819D01*
X163472857Y-124549819D02*
X163568095Y-124597438D01*
X163568095Y-124597438D02*
X163615714Y-124645057D01*
X163615714Y-124645057D02*
X163663333Y-124740295D01*
X163663333Y-124740295D02*
X163663333Y-124883152D01*
X163663333Y-124883152D02*
X163615714Y-124978390D01*
X163615714Y-124978390D02*
X163568095Y-125026009D01*
X163568095Y-125026009D02*
X163472857Y-125073628D01*
X163472857Y-125073628D02*
X163091905Y-125073628D01*
X163996667Y-124549819D02*
X164663333Y-124549819D01*
X164663333Y-124549819D02*
X164234762Y-125549819D01*
X166158152Y-128658809D02*
X166824819Y-128658809D01*
X165777200Y-128896904D02*
X166491485Y-129134999D01*
X166491485Y-129134999D02*
X166491485Y-128515952D01*
X166729580Y-128134999D02*
X166777200Y-128087380D01*
X166777200Y-128087380D02*
X166824819Y-128134999D01*
X166824819Y-128134999D02*
X166777200Y-128182618D01*
X166777200Y-128182618D02*
X166729580Y-128134999D01*
X166729580Y-128134999D02*
X166824819Y-128134999D01*
X165824819Y-127754047D02*
X165824819Y-127087381D01*
X165824819Y-127087381D02*
X166824819Y-127515952D01*
X166824819Y-126706428D02*
X165824819Y-126706428D01*
X166824819Y-126135000D02*
X166253390Y-126563571D01*
X165824819Y-126135000D02*
X166396247Y-126706428D01*
X131111666Y-148314819D02*
X131111666Y-149029104D01*
X131111666Y-149029104D02*
X131064047Y-149171961D01*
X131064047Y-149171961D02*
X130968809Y-149267200D01*
X130968809Y-149267200D02*
X130825952Y-149314819D01*
X130825952Y-149314819D02*
X130730714Y-149314819D01*
X132111666Y-149314819D02*
X131540238Y-149314819D01*
X131825952Y-149314819D02*
X131825952Y-148314819D01*
X131825952Y-148314819D02*
X131730714Y-148457676D01*
X131730714Y-148457676D02*
X131635476Y-148552914D01*
X131635476Y-148552914D02*
X131540238Y-148600533D01*
X163663333Y-115389819D02*
X163330000Y-114913628D01*
X163091905Y-115389819D02*
X163091905Y-114389819D01*
X163091905Y-114389819D02*
X163472857Y-114389819D01*
X163472857Y-114389819D02*
X163568095Y-114437438D01*
X163568095Y-114437438D02*
X163615714Y-114485057D01*
X163615714Y-114485057D02*
X163663333Y-114580295D01*
X163663333Y-114580295D02*
X163663333Y-114723152D01*
X163663333Y-114723152D02*
X163615714Y-114818390D01*
X163615714Y-114818390D02*
X163568095Y-114866009D01*
X163568095Y-114866009D02*
X163472857Y-114913628D01*
X163472857Y-114913628D02*
X163091905Y-114913628D01*
X164234762Y-114818390D02*
X164139524Y-114770771D01*
X164139524Y-114770771D02*
X164091905Y-114723152D01*
X164091905Y-114723152D02*
X164044286Y-114627914D01*
X164044286Y-114627914D02*
X164044286Y-114580295D01*
X164044286Y-114580295D02*
X164091905Y-114485057D01*
X164091905Y-114485057D02*
X164139524Y-114437438D01*
X164139524Y-114437438D02*
X164234762Y-114389819D01*
X164234762Y-114389819D02*
X164425238Y-114389819D01*
X164425238Y-114389819D02*
X164520476Y-114437438D01*
X164520476Y-114437438D02*
X164568095Y-114485057D01*
X164568095Y-114485057D02*
X164615714Y-114580295D01*
X164615714Y-114580295D02*
X164615714Y-114627914D01*
X164615714Y-114627914D02*
X164568095Y-114723152D01*
X164568095Y-114723152D02*
X164520476Y-114770771D01*
X164520476Y-114770771D02*
X164425238Y-114818390D01*
X164425238Y-114818390D02*
X164234762Y-114818390D01*
X164234762Y-114818390D02*
X164139524Y-114866009D01*
X164139524Y-114866009D02*
X164091905Y-114913628D01*
X164091905Y-114913628D02*
X164044286Y-115008866D01*
X164044286Y-115008866D02*
X164044286Y-115199342D01*
X164044286Y-115199342D02*
X164091905Y-115294580D01*
X164091905Y-115294580D02*
X164139524Y-115342200D01*
X164139524Y-115342200D02*
X164234762Y-115389819D01*
X164234762Y-115389819D02*
X164425238Y-115389819D01*
X164425238Y-115389819D02*
X164520476Y-115342200D01*
X164520476Y-115342200D02*
X164568095Y-115294580D01*
X164568095Y-115294580D02*
X164615714Y-115199342D01*
X164615714Y-115199342D02*
X164615714Y-115008866D01*
X164615714Y-115008866D02*
X164568095Y-114913628D01*
X164568095Y-114913628D02*
X164520476Y-114866009D01*
X164520476Y-114866009D02*
X164425238Y-114818390D01*
X166158152Y-118498809D02*
X166824819Y-118498809D01*
X165777200Y-118736904D02*
X166491485Y-118974999D01*
X166491485Y-118974999D02*
X166491485Y-118355952D01*
X166729580Y-117974999D02*
X166777200Y-117927380D01*
X166777200Y-117927380D02*
X166824819Y-117974999D01*
X166824819Y-117974999D02*
X166777200Y-118022618D01*
X166777200Y-118022618D02*
X166729580Y-117974999D01*
X166729580Y-117974999D02*
X166824819Y-117974999D01*
X165824819Y-117594047D02*
X165824819Y-116927381D01*
X165824819Y-116927381D02*
X166824819Y-117355952D01*
X166824819Y-116546428D02*
X165824819Y-116546428D01*
X166824819Y-115975000D02*
X166253390Y-116403571D01*
X165824819Y-115975000D02*
X166396247Y-116546428D01*
X191127142Y-111484580D02*
X191079523Y-111532200D01*
X191079523Y-111532200D02*
X190936666Y-111579819D01*
X190936666Y-111579819D02*
X190841428Y-111579819D01*
X190841428Y-111579819D02*
X190698571Y-111532200D01*
X190698571Y-111532200D02*
X190603333Y-111436961D01*
X190603333Y-111436961D02*
X190555714Y-111341723D01*
X190555714Y-111341723D02*
X190508095Y-111151247D01*
X190508095Y-111151247D02*
X190508095Y-111008390D01*
X190508095Y-111008390D02*
X190555714Y-110817914D01*
X190555714Y-110817914D02*
X190603333Y-110722676D01*
X190603333Y-110722676D02*
X190698571Y-110627438D01*
X190698571Y-110627438D02*
X190841428Y-110579819D01*
X190841428Y-110579819D02*
X190936666Y-110579819D01*
X190936666Y-110579819D02*
X191079523Y-110627438D01*
X191079523Y-110627438D02*
X191127142Y-110675057D01*
X191508095Y-110675057D02*
X191555714Y-110627438D01*
X191555714Y-110627438D02*
X191650952Y-110579819D01*
X191650952Y-110579819D02*
X191889047Y-110579819D01*
X191889047Y-110579819D02*
X191984285Y-110627438D01*
X191984285Y-110627438D02*
X192031904Y-110675057D01*
X192031904Y-110675057D02*
X192079523Y-110770295D01*
X192079523Y-110770295D02*
X192079523Y-110865533D01*
X192079523Y-110865533D02*
X192031904Y-111008390D01*
X192031904Y-111008390D02*
X191460476Y-111579819D01*
X191460476Y-111579819D02*
X192079523Y-111579819D01*
X193031904Y-111579819D02*
X192460476Y-111579819D01*
X192746190Y-111579819D02*
X192746190Y-110579819D01*
X192746190Y-110579819D02*
X192650952Y-110722676D01*
X192650952Y-110722676D02*
X192555714Y-110817914D01*
X192555714Y-110817914D02*
X192460476Y-110865533D01*
X130206905Y-111424819D02*
X130206905Y-112234342D01*
X130206905Y-112234342D02*
X130254524Y-112329580D01*
X130254524Y-112329580D02*
X130302143Y-112377200D01*
X130302143Y-112377200D02*
X130397381Y-112424819D01*
X130397381Y-112424819D02*
X130587857Y-112424819D01*
X130587857Y-112424819D02*
X130683095Y-112377200D01*
X130683095Y-112377200D02*
X130730714Y-112329580D01*
X130730714Y-112329580D02*
X130778333Y-112234342D01*
X130778333Y-112234342D02*
X130778333Y-111424819D01*
X131778333Y-112424819D02*
X131206905Y-112424819D01*
X131492619Y-112424819D02*
X131492619Y-111424819D01*
X131492619Y-111424819D02*
X131397381Y-111567676D01*
X131397381Y-111567676D02*
X131302143Y-111662914D01*
X131302143Y-111662914D02*
X131206905Y-111710533D01*
X132349762Y-111853390D02*
X132254524Y-111805771D01*
X132254524Y-111805771D02*
X132206905Y-111758152D01*
X132206905Y-111758152D02*
X132159286Y-111662914D01*
X132159286Y-111662914D02*
X132159286Y-111615295D01*
X132159286Y-111615295D02*
X132206905Y-111520057D01*
X132206905Y-111520057D02*
X132254524Y-111472438D01*
X132254524Y-111472438D02*
X132349762Y-111424819D01*
X132349762Y-111424819D02*
X132540238Y-111424819D01*
X132540238Y-111424819D02*
X132635476Y-111472438D01*
X132635476Y-111472438D02*
X132683095Y-111520057D01*
X132683095Y-111520057D02*
X132730714Y-111615295D01*
X132730714Y-111615295D02*
X132730714Y-111662914D01*
X132730714Y-111662914D02*
X132683095Y-111758152D01*
X132683095Y-111758152D02*
X132635476Y-111805771D01*
X132635476Y-111805771D02*
X132540238Y-111853390D01*
X132540238Y-111853390D02*
X132349762Y-111853390D01*
X132349762Y-111853390D02*
X132254524Y-111901009D01*
X132254524Y-111901009D02*
X132206905Y-111948628D01*
X132206905Y-111948628D02*
X132159286Y-112043866D01*
X132159286Y-112043866D02*
X132159286Y-112234342D01*
X132159286Y-112234342D02*
X132206905Y-112329580D01*
X132206905Y-112329580D02*
X132254524Y-112377200D01*
X132254524Y-112377200D02*
X132349762Y-112424819D01*
X132349762Y-112424819D02*
X132540238Y-112424819D01*
X132540238Y-112424819D02*
X132635476Y-112377200D01*
X132635476Y-112377200D02*
X132683095Y-112329580D01*
X132683095Y-112329580D02*
X132730714Y-112234342D01*
X132730714Y-112234342D02*
X132730714Y-112043866D01*
X132730714Y-112043866D02*
X132683095Y-111948628D01*
X132683095Y-111948628D02*
X132635476Y-111901009D01*
X132635476Y-111901009D02*
X132540238Y-111853390D01*
X195453333Y-26394580D02*
X195405714Y-26442200D01*
X195405714Y-26442200D02*
X195262857Y-26489819D01*
X195262857Y-26489819D02*
X195167619Y-26489819D01*
X195167619Y-26489819D02*
X195024762Y-26442200D01*
X195024762Y-26442200D02*
X194929524Y-26346961D01*
X194929524Y-26346961D02*
X194881905Y-26251723D01*
X194881905Y-26251723D02*
X194834286Y-26061247D01*
X194834286Y-26061247D02*
X194834286Y-25918390D01*
X194834286Y-25918390D02*
X194881905Y-25727914D01*
X194881905Y-25727914D02*
X194929524Y-25632676D01*
X194929524Y-25632676D02*
X195024762Y-25537438D01*
X195024762Y-25537438D02*
X195167619Y-25489819D01*
X195167619Y-25489819D02*
X195262857Y-25489819D01*
X195262857Y-25489819D02*
X195405714Y-25537438D01*
X195405714Y-25537438D02*
X195453333Y-25585057D01*
X196358095Y-25489819D02*
X195881905Y-25489819D01*
X195881905Y-25489819D02*
X195834286Y-25966009D01*
X195834286Y-25966009D02*
X195881905Y-25918390D01*
X195881905Y-25918390D02*
X195977143Y-25870771D01*
X195977143Y-25870771D02*
X196215238Y-25870771D01*
X196215238Y-25870771D02*
X196310476Y-25918390D01*
X196310476Y-25918390D02*
X196358095Y-25966009D01*
X196358095Y-25966009D02*
X196405714Y-26061247D01*
X196405714Y-26061247D02*
X196405714Y-26299342D01*
X196405714Y-26299342D02*
X196358095Y-26394580D01*
X196358095Y-26394580D02*
X196310476Y-26442200D01*
X196310476Y-26442200D02*
X196215238Y-26489819D01*
X196215238Y-26489819D02*
X195977143Y-26489819D01*
X195977143Y-26489819D02*
X195881905Y-26442200D01*
X195881905Y-26442200D02*
X195834286Y-26394580D01*
X69683333Y-30934819D02*
X69350000Y-30458628D01*
X69111905Y-30934819D02*
X69111905Y-29934819D01*
X69111905Y-29934819D02*
X69492857Y-29934819D01*
X69492857Y-29934819D02*
X69588095Y-29982438D01*
X69588095Y-29982438D02*
X69635714Y-30030057D01*
X69635714Y-30030057D02*
X69683333Y-30125295D01*
X69683333Y-30125295D02*
X69683333Y-30268152D01*
X69683333Y-30268152D02*
X69635714Y-30363390D01*
X69635714Y-30363390D02*
X69588095Y-30411009D01*
X69588095Y-30411009D02*
X69492857Y-30458628D01*
X69492857Y-30458628D02*
X69111905Y-30458628D01*
X70635714Y-30934819D02*
X70064286Y-30934819D01*
X70350000Y-30934819D02*
X70350000Y-29934819D01*
X70350000Y-29934819D02*
X70254762Y-30077676D01*
X70254762Y-30077676D02*
X70159524Y-30172914D01*
X70159524Y-30172914D02*
X70064286Y-30220533D01*
X67098152Y-34043809D02*
X67764819Y-34043809D01*
X66717200Y-34281904D02*
X67431485Y-34519999D01*
X67431485Y-34519999D02*
X67431485Y-33900952D01*
X67669580Y-33519999D02*
X67717200Y-33472380D01*
X67717200Y-33472380D02*
X67764819Y-33519999D01*
X67764819Y-33519999D02*
X67717200Y-33567618D01*
X67717200Y-33567618D02*
X67669580Y-33519999D01*
X67669580Y-33519999D02*
X67764819Y-33519999D01*
X66764819Y-33139047D02*
X66764819Y-32472381D01*
X66764819Y-32472381D02*
X67764819Y-32900952D01*
X67764819Y-32091428D02*
X66764819Y-32091428D01*
X67764819Y-31520000D02*
X67193390Y-31948571D01*
X66764819Y-31520000D02*
X67336247Y-32091428D01*
X144137142Y-118564819D02*
X143803809Y-118088628D01*
X143565714Y-118564819D02*
X143565714Y-117564819D01*
X143565714Y-117564819D02*
X143946666Y-117564819D01*
X143946666Y-117564819D02*
X144041904Y-117612438D01*
X144041904Y-117612438D02*
X144089523Y-117660057D01*
X144089523Y-117660057D02*
X144137142Y-117755295D01*
X144137142Y-117755295D02*
X144137142Y-117898152D01*
X144137142Y-117898152D02*
X144089523Y-117993390D01*
X144089523Y-117993390D02*
X144041904Y-118041009D01*
X144041904Y-118041009D02*
X143946666Y-118088628D01*
X143946666Y-118088628D02*
X143565714Y-118088628D01*
X145089523Y-118564819D02*
X144518095Y-118564819D01*
X144803809Y-118564819D02*
X144803809Y-117564819D01*
X144803809Y-117564819D02*
X144708571Y-117707676D01*
X144708571Y-117707676D02*
X144613333Y-117802914D01*
X144613333Y-117802914D02*
X144518095Y-117850533D01*
X146041904Y-118564819D02*
X145470476Y-118564819D01*
X145756190Y-118564819D02*
X145756190Y-117564819D01*
X145756190Y-117564819D02*
X145660952Y-117707676D01*
X145660952Y-117707676D02*
X145565714Y-117802914D01*
X145565714Y-117802914D02*
X145470476Y-117850533D01*
X147743152Y-121673809D02*
X148409819Y-121673809D01*
X147362200Y-121911904D02*
X148076485Y-122149999D01*
X148076485Y-122149999D02*
X148076485Y-121530952D01*
X148314580Y-121149999D02*
X148362200Y-121102380D01*
X148362200Y-121102380D02*
X148409819Y-121149999D01*
X148409819Y-121149999D02*
X148362200Y-121197618D01*
X148362200Y-121197618D02*
X148314580Y-121149999D01*
X148314580Y-121149999D02*
X148409819Y-121149999D01*
X147409819Y-120769047D02*
X147409819Y-120102381D01*
X147409819Y-120102381D02*
X148409819Y-120530952D01*
X148409819Y-119721428D02*
X147409819Y-119721428D01*
X148409819Y-119150000D02*
X147838390Y-119578571D01*
X147409819Y-119150000D02*
X147981247Y-119721428D01*
X135882142Y-111484580D02*
X135834523Y-111532200D01*
X135834523Y-111532200D02*
X135691666Y-111579819D01*
X135691666Y-111579819D02*
X135596428Y-111579819D01*
X135596428Y-111579819D02*
X135453571Y-111532200D01*
X135453571Y-111532200D02*
X135358333Y-111436961D01*
X135358333Y-111436961D02*
X135310714Y-111341723D01*
X135310714Y-111341723D02*
X135263095Y-111151247D01*
X135263095Y-111151247D02*
X135263095Y-111008390D01*
X135263095Y-111008390D02*
X135310714Y-110817914D01*
X135310714Y-110817914D02*
X135358333Y-110722676D01*
X135358333Y-110722676D02*
X135453571Y-110627438D01*
X135453571Y-110627438D02*
X135596428Y-110579819D01*
X135596428Y-110579819D02*
X135691666Y-110579819D01*
X135691666Y-110579819D02*
X135834523Y-110627438D01*
X135834523Y-110627438D02*
X135882142Y-110675057D01*
X136834523Y-111579819D02*
X136263095Y-111579819D01*
X136548809Y-111579819D02*
X136548809Y-110579819D01*
X136548809Y-110579819D02*
X136453571Y-110722676D01*
X136453571Y-110722676D02*
X136358333Y-110817914D01*
X136358333Y-110817914D02*
X136263095Y-110865533D01*
X137405952Y-111008390D02*
X137310714Y-110960771D01*
X137310714Y-110960771D02*
X137263095Y-110913152D01*
X137263095Y-110913152D02*
X137215476Y-110817914D01*
X137215476Y-110817914D02*
X137215476Y-110770295D01*
X137215476Y-110770295D02*
X137263095Y-110675057D01*
X137263095Y-110675057D02*
X137310714Y-110627438D01*
X137310714Y-110627438D02*
X137405952Y-110579819D01*
X137405952Y-110579819D02*
X137596428Y-110579819D01*
X137596428Y-110579819D02*
X137691666Y-110627438D01*
X137691666Y-110627438D02*
X137739285Y-110675057D01*
X137739285Y-110675057D02*
X137786904Y-110770295D01*
X137786904Y-110770295D02*
X137786904Y-110817914D01*
X137786904Y-110817914D02*
X137739285Y-110913152D01*
X137739285Y-110913152D02*
X137691666Y-110960771D01*
X137691666Y-110960771D02*
X137596428Y-111008390D01*
X137596428Y-111008390D02*
X137405952Y-111008390D01*
X137405952Y-111008390D02*
X137310714Y-111056009D01*
X137310714Y-111056009D02*
X137263095Y-111103628D01*
X137263095Y-111103628D02*
X137215476Y-111198866D01*
X137215476Y-111198866D02*
X137215476Y-111389342D01*
X137215476Y-111389342D02*
X137263095Y-111484580D01*
X137263095Y-111484580D02*
X137310714Y-111532200D01*
X137310714Y-111532200D02*
X137405952Y-111579819D01*
X137405952Y-111579819D02*
X137596428Y-111579819D01*
X137596428Y-111579819D02*
X137691666Y-111532200D01*
X137691666Y-111532200D02*
X137739285Y-111484580D01*
X137739285Y-111484580D02*
X137786904Y-111389342D01*
X137786904Y-111389342D02*
X137786904Y-111198866D01*
X137786904Y-111198866D02*
X137739285Y-111103628D01*
X137739285Y-111103628D02*
X137691666Y-111056009D01*
X137691666Y-111056009D02*
X137596428Y-111008390D01*
X187198095Y-26334819D02*
X187198095Y-27144342D01*
X187198095Y-27144342D02*
X187245714Y-27239580D01*
X187245714Y-27239580D02*
X187293333Y-27287200D01*
X187293333Y-27287200D02*
X187388571Y-27334819D01*
X187388571Y-27334819D02*
X187579047Y-27334819D01*
X187579047Y-27334819D02*
X187674285Y-27287200D01*
X187674285Y-27287200D02*
X187721904Y-27239580D01*
X187721904Y-27239580D02*
X187769523Y-27144342D01*
X187769523Y-27144342D02*
X187769523Y-26334819D01*
X188721904Y-26334819D02*
X188245714Y-26334819D01*
X188245714Y-26334819D02*
X188198095Y-26811009D01*
X188198095Y-26811009D02*
X188245714Y-26763390D01*
X188245714Y-26763390D02*
X188340952Y-26715771D01*
X188340952Y-26715771D02*
X188579047Y-26715771D01*
X188579047Y-26715771D02*
X188674285Y-26763390D01*
X188674285Y-26763390D02*
X188721904Y-26811009D01*
X188721904Y-26811009D02*
X188769523Y-26906247D01*
X188769523Y-26906247D02*
X188769523Y-27144342D01*
X188769523Y-27144342D02*
X188721904Y-27239580D01*
X188721904Y-27239580D02*
X188674285Y-27287200D01*
X188674285Y-27287200D02*
X188579047Y-27334819D01*
X188579047Y-27334819D02*
X188340952Y-27334819D01*
X188340952Y-27334819D02*
X188245714Y-27287200D01*
X188245714Y-27287200D02*
X188198095Y-27239580D01*
X201961905Y-76289819D02*
X201961905Y-77099342D01*
X201961905Y-77099342D02*
X202009524Y-77194580D01*
X202009524Y-77194580D02*
X202057143Y-77242200D01*
X202057143Y-77242200D02*
X202152381Y-77289819D01*
X202152381Y-77289819D02*
X202342857Y-77289819D01*
X202342857Y-77289819D02*
X202438095Y-77242200D01*
X202438095Y-77242200D02*
X202485714Y-77194580D01*
X202485714Y-77194580D02*
X202533333Y-77099342D01*
X202533333Y-77099342D02*
X202533333Y-76289819D01*
X203533333Y-77289819D02*
X202961905Y-77289819D01*
X203247619Y-77289819D02*
X203247619Y-76289819D01*
X203247619Y-76289819D02*
X203152381Y-76432676D01*
X203152381Y-76432676D02*
X203057143Y-76527914D01*
X203057143Y-76527914D02*
X202961905Y-76575533D01*
X204438095Y-76289819D02*
X203961905Y-76289819D01*
X203961905Y-76289819D02*
X203914286Y-76766009D01*
X203914286Y-76766009D02*
X203961905Y-76718390D01*
X203961905Y-76718390D02*
X204057143Y-76670771D01*
X204057143Y-76670771D02*
X204295238Y-76670771D01*
X204295238Y-76670771D02*
X204390476Y-76718390D01*
X204390476Y-76718390D02*
X204438095Y-76766009D01*
X204438095Y-76766009D02*
X204485714Y-76861247D01*
X204485714Y-76861247D02*
X204485714Y-77099342D01*
X204485714Y-77099342D02*
X204438095Y-77194580D01*
X204438095Y-77194580D02*
X204390476Y-77242200D01*
X204390476Y-77242200D02*
X204295238Y-77289819D01*
X204295238Y-77289819D02*
X204057143Y-77289819D01*
X204057143Y-77289819D02*
X203961905Y-77242200D01*
X203961905Y-77242200D02*
X203914286Y-77194580D01*
X38608095Y-73749819D02*
X38608095Y-74559342D01*
X38608095Y-74559342D02*
X38655714Y-74654580D01*
X38655714Y-74654580D02*
X38703333Y-74702200D01*
X38703333Y-74702200D02*
X38798571Y-74749819D01*
X38798571Y-74749819D02*
X38989047Y-74749819D01*
X38989047Y-74749819D02*
X39084285Y-74702200D01*
X39084285Y-74702200D02*
X39131904Y-74654580D01*
X39131904Y-74654580D02*
X39179523Y-74559342D01*
X39179523Y-74559342D02*
X39179523Y-73749819D01*
X40084285Y-73749819D02*
X39893809Y-73749819D01*
X39893809Y-73749819D02*
X39798571Y-73797438D01*
X39798571Y-73797438D02*
X39750952Y-73845057D01*
X39750952Y-73845057D02*
X39655714Y-73987914D01*
X39655714Y-73987914D02*
X39608095Y-74178390D01*
X39608095Y-74178390D02*
X39608095Y-74559342D01*
X39608095Y-74559342D02*
X39655714Y-74654580D01*
X39655714Y-74654580D02*
X39703333Y-74702200D01*
X39703333Y-74702200D02*
X39798571Y-74749819D01*
X39798571Y-74749819D02*
X39989047Y-74749819D01*
X39989047Y-74749819D02*
X40084285Y-74702200D01*
X40084285Y-74702200D02*
X40131904Y-74654580D01*
X40131904Y-74654580D02*
X40179523Y-74559342D01*
X40179523Y-74559342D02*
X40179523Y-74321247D01*
X40179523Y-74321247D02*
X40131904Y-74226009D01*
X40131904Y-74226009D02*
X40084285Y-74178390D01*
X40084285Y-74178390D02*
X39989047Y-74130771D01*
X39989047Y-74130771D02*
X39798571Y-74130771D01*
X39798571Y-74130771D02*
X39703333Y-74178390D01*
X39703333Y-74178390D02*
X39655714Y-74226009D01*
X39655714Y-74226009D02*
X39608095Y-74321247D01*
X203866905Y-111424819D02*
X203866905Y-112234342D01*
X203866905Y-112234342D02*
X203914524Y-112329580D01*
X203914524Y-112329580D02*
X203962143Y-112377200D01*
X203962143Y-112377200D02*
X204057381Y-112424819D01*
X204057381Y-112424819D02*
X204247857Y-112424819D01*
X204247857Y-112424819D02*
X204343095Y-112377200D01*
X204343095Y-112377200D02*
X204390714Y-112329580D01*
X204390714Y-112329580D02*
X204438333Y-112234342D01*
X204438333Y-112234342D02*
X204438333Y-111424819D01*
X204866905Y-111520057D02*
X204914524Y-111472438D01*
X204914524Y-111472438D02*
X205009762Y-111424819D01*
X205009762Y-111424819D02*
X205247857Y-111424819D01*
X205247857Y-111424819D02*
X205343095Y-111472438D01*
X205343095Y-111472438D02*
X205390714Y-111520057D01*
X205390714Y-111520057D02*
X205438333Y-111615295D01*
X205438333Y-111615295D02*
X205438333Y-111710533D01*
X205438333Y-111710533D02*
X205390714Y-111853390D01*
X205390714Y-111853390D02*
X204819286Y-112424819D01*
X204819286Y-112424819D02*
X205438333Y-112424819D01*
X206057381Y-111424819D02*
X206152619Y-111424819D01*
X206152619Y-111424819D02*
X206247857Y-111472438D01*
X206247857Y-111472438D02*
X206295476Y-111520057D01*
X206295476Y-111520057D02*
X206343095Y-111615295D01*
X206343095Y-111615295D02*
X206390714Y-111805771D01*
X206390714Y-111805771D02*
X206390714Y-112043866D01*
X206390714Y-112043866D02*
X206343095Y-112234342D01*
X206343095Y-112234342D02*
X206295476Y-112329580D01*
X206295476Y-112329580D02*
X206247857Y-112377200D01*
X206247857Y-112377200D02*
X206152619Y-112424819D01*
X206152619Y-112424819D02*
X206057381Y-112424819D01*
X206057381Y-112424819D02*
X205962143Y-112377200D01*
X205962143Y-112377200D02*
X205914524Y-112329580D01*
X205914524Y-112329580D02*
X205866905Y-112234342D01*
X205866905Y-112234342D02*
X205819286Y-112043866D01*
X205819286Y-112043866D02*
X205819286Y-111805771D01*
X205819286Y-111805771D02*
X205866905Y-111615295D01*
X205866905Y-111615295D02*
X205914524Y-111520057D01*
X205914524Y-111520057D02*
X205962143Y-111472438D01*
X205962143Y-111472438D02*
X206057381Y-111424819D01*
X43767142Y-111484580D02*
X43719523Y-111532200D01*
X43719523Y-111532200D02*
X43576666Y-111579819D01*
X43576666Y-111579819D02*
X43481428Y-111579819D01*
X43481428Y-111579819D02*
X43338571Y-111532200D01*
X43338571Y-111532200D02*
X43243333Y-111436961D01*
X43243333Y-111436961D02*
X43195714Y-111341723D01*
X43195714Y-111341723D02*
X43148095Y-111151247D01*
X43148095Y-111151247D02*
X43148095Y-111008390D01*
X43148095Y-111008390D02*
X43195714Y-110817914D01*
X43195714Y-110817914D02*
X43243333Y-110722676D01*
X43243333Y-110722676D02*
X43338571Y-110627438D01*
X43338571Y-110627438D02*
X43481428Y-110579819D01*
X43481428Y-110579819D02*
X43576666Y-110579819D01*
X43576666Y-110579819D02*
X43719523Y-110627438D01*
X43719523Y-110627438D02*
X43767142Y-110675057D01*
X44148095Y-110675057D02*
X44195714Y-110627438D01*
X44195714Y-110627438D02*
X44290952Y-110579819D01*
X44290952Y-110579819D02*
X44529047Y-110579819D01*
X44529047Y-110579819D02*
X44624285Y-110627438D01*
X44624285Y-110627438D02*
X44671904Y-110675057D01*
X44671904Y-110675057D02*
X44719523Y-110770295D01*
X44719523Y-110770295D02*
X44719523Y-110865533D01*
X44719523Y-110865533D02*
X44671904Y-111008390D01*
X44671904Y-111008390D02*
X44100476Y-111579819D01*
X44100476Y-111579819D02*
X44719523Y-111579819D01*
X45052857Y-110579819D02*
X45671904Y-110579819D01*
X45671904Y-110579819D02*
X45338571Y-110960771D01*
X45338571Y-110960771D02*
X45481428Y-110960771D01*
X45481428Y-110960771D02*
X45576666Y-111008390D01*
X45576666Y-111008390D02*
X45624285Y-111056009D01*
X45624285Y-111056009D02*
X45671904Y-111151247D01*
X45671904Y-111151247D02*
X45671904Y-111389342D01*
X45671904Y-111389342D02*
X45624285Y-111484580D01*
X45624285Y-111484580D02*
X45576666Y-111532200D01*
X45576666Y-111532200D02*
X45481428Y-111579819D01*
X45481428Y-111579819D02*
X45195714Y-111579819D01*
X45195714Y-111579819D02*
X45100476Y-111532200D01*
X45100476Y-111532200D02*
X45052857Y-111484580D01*
X182872142Y-115389819D02*
X182538809Y-114913628D01*
X182300714Y-115389819D02*
X182300714Y-114389819D01*
X182300714Y-114389819D02*
X182681666Y-114389819D01*
X182681666Y-114389819D02*
X182776904Y-114437438D01*
X182776904Y-114437438D02*
X182824523Y-114485057D01*
X182824523Y-114485057D02*
X182872142Y-114580295D01*
X182872142Y-114580295D02*
X182872142Y-114723152D01*
X182872142Y-114723152D02*
X182824523Y-114818390D01*
X182824523Y-114818390D02*
X182776904Y-114866009D01*
X182776904Y-114866009D02*
X182681666Y-114913628D01*
X182681666Y-114913628D02*
X182300714Y-114913628D01*
X183824523Y-115389819D02*
X183253095Y-115389819D01*
X183538809Y-115389819D02*
X183538809Y-114389819D01*
X183538809Y-114389819D02*
X183443571Y-114532676D01*
X183443571Y-114532676D02*
X183348333Y-114627914D01*
X183348333Y-114627914D02*
X183253095Y-114675533D01*
X184443571Y-114389819D02*
X184538809Y-114389819D01*
X184538809Y-114389819D02*
X184634047Y-114437438D01*
X184634047Y-114437438D02*
X184681666Y-114485057D01*
X184681666Y-114485057D02*
X184729285Y-114580295D01*
X184729285Y-114580295D02*
X184776904Y-114770771D01*
X184776904Y-114770771D02*
X184776904Y-115008866D01*
X184776904Y-115008866D02*
X184729285Y-115199342D01*
X184729285Y-115199342D02*
X184681666Y-115294580D01*
X184681666Y-115294580D02*
X184634047Y-115342200D01*
X184634047Y-115342200D02*
X184538809Y-115389819D01*
X184538809Y-115389819D02*
X184443571Y-115389819D01*
X184443571Y-115389819D02*
X184348333Y-115342200D01*
X184348333Y-115342200D02*
X184300714Y-115294580D01*
X184300714Y-115294580D02*
X184253095Y-115199342D01*
X184253095Y-115199342D02*
X184205476Y-115008866D01*
X184205476Y-115008866D02*
X184205476Y-114770771D01*
X184205476Y-114770771D02*
X184253095Y-114580295D01*
X184253095Y-114580295D02*
X184300714Y-114485057D01*
X184300714Y-114485057D02*
X184348333Y-114437438D01*
X184348333Y-114437438D02*
X184443571Y-114389819D01*
X180128152Y-118498809D02*
X180794819Y-118498809D01*
X179747200Y-118736904D02*
X180461485Y-118974999D01*
X180461485Y-118974999D02*
X180461485Y-118355952D01*
X180699580Y-117974999D02*
X180747200Y-117927380D01*
X180747200Y-117927380D02*
X180794819Y-117974999D01*
X180794819Y-117974999D02*
X180747200Y-118022618D01*
X180747200Y-118022618D02*
X180699580Y-117974999D01*
X180699580Y-117974999D02*
X180794819Y-117974999D01*
X179794819Y-117594047D02*
X179794819Y-116927381D01*
X179794819Y-116927381D02*
X180794819Y-117355952D01*
X180794819Y-116546428D02*
X179794819Y-116546428D01*
X180794819Y-115975000D02*
X180223390Y-116403571D01*
X179794819Y-115975000D02*
X180366247Y-116546428D01*
X80597142Y-111484580D02*
X80549523Y-111532200D01*
X80549523Y-111532200D02*
X80406666Y-111579819D01*
X80406666Y-111579819D02*
X80311428Y-111579819D01*
X80311428Y-111579819D02*
X80168571Y-111532200D01*
X80168571Y-111532200D02*
X80073333Y-111436961D01*
X80073333Y-111436961D02*
X80025714Y-111341723D01*
X80025714Y-111341723D02*
X79978095Y-111151247D01*
X79978095Y-111151247D02*
X79978095Y-111008390D01*
X79978095Y-111008390D02*
X80025714Y-110817914D01*
X80025714Y-110817914D02*
X80073333Y-110722676D01*
X80073333Y-110722676D02*
X80168571Y-110627438D01*
X80168571Y-110627438D02*
X80311428Y-110579819D01*
X80311428Y-110579819D02*
X80406666Y-110579819D01*
X80406666Y-110579819D02*
X80549523Y-110627438D01*
X80549523Y-110627438D02*
X80597142Y-110675057D01*
X80978095Y-110675057D02*
X81025714Y-110627438D01*
X81025714Y-110627438D02*
X81120952Y-110579819D01*
X81120952Y-110579819D02*
X81359047Y-110579819D01*
X81359047Y-110579819D02*
X81454285Y-110627438D01*
X81454285Y-110627438D02*
X81501904Y-110675057D01*
X81501904Y-110675057D02*
X81549523Y-110770295D01*
X81549523Y-110770295D02*
X81549523Y-110865533D01*
X81549523Y-110865533D02*
X81501904Y-111008390D01*
X81501904Y-111008390D02*
X80930476Y-111579819D01*
X80930476Y-111579819D02*
X81549523Y-111579819D01*
X81930476Y-110675057D02*
X81978095Y-110627438D01*
X81978095Y-110627438D02*
X82073333Y-110579819D01*
X82073333Y-110579819D02*
X82311428Y-110579819D01*
X82311428Y-110579819D02*
X82406666Y-110627438D01*
X82406666Y-110627438D02*
X82454285Y-110675057D01*
X82454285Y-110675057D02*
X82501904Y-110770295D01*
X82501904Y-110770295D02*
X82501904Y-110865533D01*
X82501904Y-110865533D02*
X82454285Y-111008390D01*
X82454285Y-111008390D02*
X81882857Y-111579819D01*
X81882857Y-111579819D02*
X82501904Y-111579819D01*
X56546905Y-73749819D02*
X56546905Y-74559342D01*
X56546905Y-74559342D02*
X56594524Y-74654580D01*
X56594524Y-74654580D02*
X56642143Y-74702200D01*
X56642143Y-74702200D02*
X56737381Y-74749819D01*
X56737381Y-74749819D02*
X56927857Y-74749819D01*
X56927857Y-74749819D02*
X57023095Y-74702200D01*
X57023095Y-74702200D02*
X57070714Y-74654580D01*
X57070714Y-74654580D02*
X57118333Y-74559342D01*
X57118333Y-74559342D02*
X57118333Y-73749819D01*
X58118333Y-74749819D02*
X57546905Y-74749819D01*
X57832619Y-74749819D02*
X57832619Y-73749819D01*
X57832619Y-73749819D02*
X57737381Y-73892676D01*
X57737381Y-73892676D02*
X57642143Y-73987914D01*
X57642143Y-73987914D02*
X57546905Y-74035533D01*
X59070714Y-74749819D02*
X58499286Y-74749819D01*
X58785000Y-74749819D02*
X58785000Y-73749819D01*
X58785000Y-73749819D02*
X58689762Y-73892676D01*
X58689762Y-73892676D02*
X58594524Y-73987914D01*
X58594524Y-73987914D02*
X58499286Y-74035533D01*
X234616666Y-148314819D02*
X234616666Y-149029104D01*
X234616666Y-149029104D02*
X234569047Y-149171961D01*
X234569047Y-149171961D02*
X234473809Y-149267200D01*
X234473809Y-149267200D02*
X234330952Y-149314819D01*
X234330952Y-149314819D02*
X234235714Y-149314819D01*
X235045238Y-148410057D02*
X235092857Y-148362438D01*
X235092857Y-148362438D02*
X235188095Y-148314819D01*
X235188095Y-148314819D02*
X235426190Y-148314819D01*
X235426190Y-148314819D02*
X235521428Y-148362438D01*
X235521428Y-148362438D02*
X235569047Y-148410057D01*
X235569047Y-148410057D02*
X235616666Y-148505295D01*
X235616666Y-148505295D02*
X235616666Y-148600533D01*
X235616666Y-148600533D02*
X235569047Y-148743390D01*
X235569047Y-148743390D02*
X234997619Y-149314819D01*
X234997619Y-149314819D02*
X235616666Y-149314819D01*
X48093333Y-26394580D02*
X48045714Y-26442200D01*
X48045714Y-26442200D02*
X47902857Y-26489819D01*
X47902857Y-26489819D02*
X47807619Y-26489819D01*
X47807619Y-26489819D02*
X47664762Y-26442200D01*
X47664762Y-26442200D02*
X47569524Y-26346961D01*
X47569524Y-26346961D02*
X47521905Y-26251723D01*
X47521905Y-26251723D02*
X47474286Y-26061247D01*
X47474286Y-26061247D02*
X47474286Y-25918390D01*
X47474286Y-25918390D02*
X47521905Y-25727914D01*
X47521905Y-25727914D02*
X47569524Y-25632676D01*
X47569524Y-25632676D02*
X47664762Y-25537438D01*
X47664762Y-25537438D02*
X47807619Y-25489819D01*
X47807619Y-25489819D02*
X47902857Y-25489819D01*
X47902857Y-25489819D02*
X48045714Y-25537438D01*
X48045714Y-25537438D02*
X48093333Y-25585057D01*
X49045714Y-26489819D02*
X48474286Y-26489819D01*
X48760000Y-26489819D02*
X48760000Y-25489819D01*
X48760000Y-25489819D02*
X48664762Y-25632676D01*
X48664762Y-25632676D02*
X48569524Y-25727914D01*
X48569524Y-25727914D02*
X48474286Y-25775533D01*
X117427142Y-111484580D02*
X117379523Y-111532200D01*
X117379523Y-111532200D02*
X117236666Y-111579819D01*
X117236666Y-111579819D02*
X117141428Y-111579819D01*
X117141428Y-111579819D02*
X116998571Y-111532200D01*
X116998571Y-111532200D02*
X116903333Y-111436961D01*
X116903333Y-111436961D02*
X116855714Y-111341723D01*
X116855714Y-111341723D02*
X116808095Y-111151247D01*
X116808095Y-111151247D02*
X116808095Y-111008390D01*
X116808095Y-111008390D02*
X116855714Y-110817914D01*
X116855714Y-110817914D02*
X116903333Y-110722676D01*
X116903333Y-110722676D02*
X116998571Y-110627438D01*
X116998571Y-110627438D02*
X117141428Y-110579819D01*
X117141428Y-110579819D02*
X117236666Y-110579819D01*
X117236666Y-110579819D02*
X117379523Y-110627438D01*
X117379523Y-110627438D02*
X117427142Y-110675057D01*
X118379523Y-111579819D02*
X117808095Y-111579819D01*
X118093809Y-111579819D02*
X118093809Y-110579819D01*
X118093809Y-110579819D02*
X117998571Y-110722676D01*
X117998571Y-110722676D02*
X117903333Y-110817914D01*
X117903333Y-110817914D02*
X117808095Y-110865533D01*
X118712857Y-110579819D02*
X119379523Y-110579819D01*
X119379523Y-110579819D02*
X118950952Y-111579819D01*
X39878095Y-26334819D02*
X39878095Y-27144342D01*
X39878095Y-27144342D02*
X39925714Y-27239580D01*
X39925714Y-27239580D02*
X39973333Y-27287200D01*
X39973333Y-27287200D02*
X40068571Y-27334819D01*
X40068571Y-27334819D02*
X40259047Y-27334819D01*
X40259047Y-27334819D02*
X40354285Y-27287200D01*
X40354285Y-27287200D02*
X40401904Y-27239580D01*
X40401904Y-27239580D02*
X40449523Y-27144342D01*
X40449523Y-27144342D02*
X40449523Y-26334819D01*
X41449523Y-27334819D02*
X40878095Y-27334819D01*
X41163809Y-27334819D02*
X41163809Y-26334819D01*
X41163809Y-26334819D02*
X41068571Y-26477676D01*
X41068571Y-26477676D02*
X40973333Y-26572914D01*
X40973333Y-26572914D02*
X40878095Y-26620533D01*
X43874742Y-135024580D02*
X43827123Y-135072200D01*
X43827123Y-135072200D02*
X43684266Y-135119819D01*
X43684266Y-135119819D02*
X43589028Y-135119819D01*
X43589028Y-135119819D02*
X43446171Y-135072200D01*
X43446171Y-135072200D02*
X43350933Y-134976961D01*
X43350933Y-134976961D02*
X43303314Y-134881723D01*
X43303314Y-134881723D02*
X43255695Y-134691247D01*
X43255695Y-134691247D02*
X43255695Y-134548390D01*
X43255695Y-134548390D02*
X43303314Y-134357914D01*
X43303314Y-134357914D02*
X43350933Y-134262676D01*
X43350933Y-134262676D02*
X43446171Y-134167438D01*
X43446171Y-134167438D02*
X43589028Y-134119819D01*
X43589028Y-134119819D02*
X43684266Y-134119819D01*
X43684266Y-134119819D02*
X43827123Y-134167438D01*
X43827123Y-134167438D02*
X43874742Y-134215057D01*
X44255695Y-134215057D02*
X44303314Y-134167438D01*
X44303314Y-134167438D02*
X44398552Y-134119819D01*
X44398552Y-134119819D02*
X44636647Y-134119819D01*
X44636647Y-134119819D02*
X44731885Y-134167438D01*
X44731885Y-134167438D02*
X44779504Y-134215057D01*
X44779504Y-134215057D02*
X44827123Y-134310295D01*
X44827123Y-134310295D02*
X44827123Y-134405533D01*
X44827123Y-134405533D02*
X44779504Y-134548390D01*
X44779504Y-134548390D02*
X44208076Y-135119819D01*
X44208076Y-135119819D02*
X44827123Y-135119819D01*
X45160457Y-134119819D02*
X45827123Y-134119819D01*
X45827123Y-134119819D02*
X45398552Y-135119819D01*
X121753333Y-26394580D02*
X121705714Y-26442200D01*
X121705714Y-26442200D02*
X121562857Y-26489819D01*
X121562857Y-26489819D02*
X121467619Y-26489819D01*
X121467619Y-26489819D02*
X121324762Y-26442200D01*
X121324762Y-26442200D02*
X121229524Y-26346961D01*
X121229524Y-26346961D02*
X121181905Y-26251723D01*
X121181905Y-26251723D02*
X121134286Y-26061247D01*
X121134286Y-26061247D02*
X121134286Y-25918390D01*
X121134286Y-25918390D02*
X121181905Y-25727914D01*
X121181905Y-25727914D02*
X121229524Y-25632676D01*
X121229524Y-25632676D02*
X121324762Y-25537438D01*
X121324762Y-25537438D02*
X121467619Y-25489819D01*
X121467619Y-25489819D02*
X121562857Y-25489819D01*
X121562857Y-25489819D02*
X121705714Y-25537438D01*
X121705714Y-25537438D02*
X121753333Y-25585057D01*
X122086667Y-25489819D02*
X122705714Y-25489819D01*
X122705714Y-25489819D02*
X122372381Y-25870771D01*
X122372381Y-25870771D02*
X122515238Y-25870771D01*
X122515238Y-25870771D02*
X122610476Y-25918390D01*
X122610476Y-25918390D02*
X122658095Y-25966009D01*
X122658095Y-25966009D02*
X122705714Y-26061247D01*
X122705714Y-26061247D02*
X122705714Y-26299342D01*
X122705714Y-26299342D02*
X122658095Y-26394580D01*
X122658095Y-26394580D02*
X122610476Y-26442200D01*
X122610476Y-26442200D02*
X122515238Y-26489819D01*
X122515238Y-26489819D02*
X122229524Y-26489819D01*
X122229524Y-26489819D02*
X122134286Y-26442200D01*
X122134286Y-26442200D02*
X122086667Y-26394580D01*
X185451905Y-111424819D02*
X185451905Y-112234342D01*
X185451905Y-112234342D02*
X185499524Y-112329580D01*
X185499524Y-112329580D02*
X185547143Y-112377200D01*
X185547143Y-112377200D02*
X185642381Y-112424819D01*
X185642381Y-112424819D02*
X185832857Y-112424819D01*
X185832857Y-112424819D02*
X185928095Y-112377200D01*
X185928095Y-112377200D02*
X185975714Y-112329580D01*
X185975714Y-112329580D02*
X186023333Y-112234342D01*
X186023333Y-112234342D02*
X186023333Y-111424819D01*
X186451905Y-111520057D02*
X186499524Y-111472438D01*
X186499524Y-111472438D02*
X186594762Y-111424819D01*
X186594762Y-111424819D02*
X186832857Y-111424819D01*
X186832857Y-111424819D02*
X186928095Y-111472438D01*
X186928095Y-111472438D02*
X186975714Y-111520057D01*
X186975714Y-111520057D02*
X187023333Y-111615295D01*
X187023333Y-111615295D02*
X187023333Y-111710533D01*
X187023333Y-111710533D02*
X186975714Y-111853390D01*
X186975714Y-111853390D02*
X186404286Y-112424819D01*
X186404286Y-112424819D02*
X187023333Y-112424819D01*
X187975714Y-112424819D02*
X187404286Y-112424819D01*
X187690000Y-112424819D02*
X187690000Y-111424819D01*
X187690000Y-111424819D02*
X187594762Y-111567676D01*
X187594762Y-111567676D02*
X187499524Y-111662914D01*
X187499524Y-111662914D02*
X187404286Y-111710533D01*
X93376905Y-111424819D02*
X93376905Y-112234342D01*
X93376905Y-112234342D02*
X93424524Y-112329580D01*
X93424524Y-112329580D02*
X93472143Y-112377200D01*
X93472143Y-112377200D02*
X93567381Y-112424819D01*
X93567381Y-112424819D02*
X93757857Y-112424819D01*
X93757857Y-112424819D02*
X93853095Y-112377200D01*
X93853095Y-112377200D02*
X93900714Y-112329580D01*
X93900714Y-112329580D02*
X93948333Y-112234342D01*
X93948333Y-112234342D02*
X93948333Y-111424819D01*
X94948333Y-112424819D02*
X94376905Y-112424819D01*
X94662619Y-112424819D02*
X94662619Y-111424819D01*
X94662619Y-111424819D02*
X94567381Y-111567676D01*
X94567381Y-111567676D02*
X94472143Y-111662914D01*
X94472143Y-111662914D02*
X94376905Y-111710533D01*
X95805476Y-111424819D02*
X95615000Y-111424819D01*
X95615000Y-111424819D02*
X95519762Y-111472438D01*
X95519762Y-111472438D02*
X95472143Y-111520057D01*
X95472143Y-111520057D02*
X95376905Y-111662914D01*
X95376905Y-111662914D02*
X95329286Y-111853390D01*
X95329286Y-111853390D02*
X95329286Y-112234342D01*
X95329286Y-112234342D02*
X95376905Y-112329580D01*
X95376905Y-112329580D02*
X95424524Y-112377200D01*
X95424524Y-112377200D02*
X95519762Y-112424819D01*
X95519762Y-112424819D02*
X95710238Y-112424819D01*
X95710238Y-112424819D02*
X95805476Y-112377200D01*
X95805476Y-112377200D02*
X95853095Y-112329580D01*
X95853095Y-112329580D02*
X95900714Y-112234342D01*
X95900714Y-112234342D02*
X95900714Y-111996247D01*
X95900714Y-111996247D02*
X95853095Y-111901009D01*
X95853095Y-111901009D02*
X95805476Y-111853390D01*
X95805476Y-111853390D02*
X95710238Y-111805771D01*
X95710238Y-111805771D02*
X95519762Y-111805771D01*
X95519762Y-111805771D02*
X95424524Y-111853390D01*
X95424524Y-111853390D02*
X95376905Y-111901009D01*
X95376905Y-111901009D02*
X95329286Y-111996247D01*
X154733333Y-74019580D02*
X154685714Y-74067200D01*
X154685714Y-74067200D02*
X154542857Y-74114819D01*
X154542857Y-74114819D02*
X154447619Y-74114819D01*
X154447619Y-74114819D02*
X154304762Y-74067200D01*
X154304762Y-74067200D02*
X154209524Y-73971961D01*
X154209524Y-73971961D02*
X154161905Y-73876723D01*
X154161905Y-73876723D02*
X154114286Y-73686247D01*
X154114286Y-73686247D02*
X154114286Y-73543390D01*
X154114286Y-73543390D02*
X154161905Y-73352914D01*
X154161905Y-73352914D02*
X154209524Y-73257676D01*
X154209524Y-73257676D02*
X154304762Y-73162438D01*
X154304762Y-73162438D02*
X154447619Y-73114819D01*
X154447619Y-73114819D02*
X154542857Y-73114819D01*
X154542857Y-73114819D02*
X154685714Y-73162438D01*
X154685714Y-73162438D02*
X154733333Y-73210057D01*
X155209524Y-74114819D02*
X155400000Y-74114819D01*
X155400000Y-74114819D02*
X155495238Y-74067200D01*
X155495238Y-74067200D02*
X155542857Y-74019580D01*
X155542857Y-74019580D02*
X155638095Y-73876723D01*
X155638095Y-73876723D02*
X155685714Y-73686247D01*
X155685714Y-73686247D02*
X155685714Y-73305295D01*
X155685714Y-73305295D02*
X155638095Y-73210057D01*
X155638095Y-73210057D02*
X155590476Y-73162438D01*
X155590476Y-73162438D02*
X155495238Y-73114819D01*
X155495238Y-73114819D02*
X155304762Y-73114819D01*
X155304762Y-73114819D02*
X155209524Y-73162438D01*
X155209524Y-73162438D02*
X155161905Y-73210057D01*
X155161905Y-73210057D02*
X155114286Y-73305295D01*
X155114286Y-73305295D02*
X155114286Y-73543390D01*
X155114286Y-73543390D02*
X155161905Y-73638628D01*
X155161905Y-73638628D02*
X155209524Y-73686247D01*
X155209524Y-73686247D02*
X155304762Y-73733866D01*
X155304762Y-73733866D02*
X155495238Y-73733866D01*
X155495238Y-73733866D02*
X155590476Y-73686247D01*
X155590476Y-73686247D02*
X155638095Y-73638628D01*
X155638095Y-73638628D02*
X155685714Y-73543390D01*
X150368095Y-26344819D02*
X150368095Y-27154342D01*
X150368095Y-27154342D02*
X150415714Y-27249580D01*
X150415714Y-27249580D02*
X150463333Y-27297200D01*
X150463333Y-27297200D02*
X150558571Y-27344819D01*
X150558571Y-27344819D02*
X150749047Y-27344819D01*
X150749047Y-27344819D02*
X150844285Y-27297200D01*
X150844285Y-27297200D02*
X150891904Y-27249580D01*
X150891904Y-27249580D02*
X150939523Y-27154342D01*
X150939523Y-27154342D02*
X150939523Y-26344819D01*
X151844285Y-26678152D02*
X151844285Y-27344819D01*
X151606190Y-26297200D02*
X151368095Y-27011485D01*
X151368095Y-27011485D02*
X151987142Y-27011485D01*
X143343333Y-30934819D02*
X143010000Y-30458628D01*
X142771905Y-30934819D02*
X142771905Y-29934819D01*
X142771905Y-29934819D02*
X143152857Y-29934819D01*
X143152857Y-29934819D02*
X143248095Y-29982438D01*
X143248095Y-29982438D02*
X143295714Y-30030057D01*
X143295714Y-30030057D02*
X143343333Y-30125295D01*
X143343333Y-30125295D02*
X143343333Y-30268152D01*
X143343333Y-30268152D02*
X143295714Y-30363390D01*
X143295714Y-30363390D02*
X143248095Y-30411009D01*
X143248095Y-30411009D02*
X143152857Y-30458628D01*
X143152857Y-30458628D02*
X142771905Y-30458628D01*
X143676667Y-29934819D02*
X144295714Y-29934819D01*
X144295714Y-29934819D02*
X143962381Y-30315771D01*
X143962381Y-30315771D02*
X144105238Y-30315771D01*
X144105238Y-30315771D02*
X144200476Y-30363390D01*
X144200476Y-30363390D02*
X144248095Y-30411009D01*
X144248095Y-30411009D02*
X144295714Y-30506247D01*
X144295714Y-30506247D02*
X144295714Y-30744342D01*
X144295714Y-30744342D02*
X144248095Y-30839580D01*
X144248095Y-30839580D02*
X144200476Y-30887200D01*
X144200476Y-30887200D02*
X144105238Y-30934819D01*
X144105238Y-30934819D02*
X143819524Y-30934819D01*
X143819524Y-30934819D02*
X143724286Y-30887200D01*
X143724286Y-30887200D02*
X143676667Y-30839580D01*
X140758152Y-34043809D02*
X141424819Y-34043809D01*
X140377200Y-34281904D02*
X141091485Y-34519999D01*
X141091485Y-34519999D02*
X141091485Y-33900952D01*
X141329580Y-33519999D02*
X141377200Y-33472380D01*
X141377200Y-33472380D02*
X141424819Y-33519999D01*
X141424819Y-33519999D02*
X141377200Y-33567618D01*
X141377200Y-33567618D02*
X141329580Y-33519999D01*
X141329580Y-33519999D02*
X141424819Y-33519999D01*
X140424819Y-33139047D02*
X140424819Y-32472381D01*
X140424819Y-32472381D02*
X141424819Y-32900952D01*
X141424819Y-32091428D02*
X140424819Y-32091428D01*
X141424819Y-31520000D02*
X140853390Y-31948571D01*
X140424819Y-31520000D02*
X140996247Y-32091428D01*
X167036905Y-111424819D02*
X167036905Y-112234342D01*
X167036905Y-112234342D02*
X167084524Y-112329580D01*
X167084524Y-112329580D02*
X167132143Y-112377200D01*
X167132143Y-112377200D02*
X167227381Y-112424819D01*
X167227381Y-112424819D02*
X167417857Y-112424819D01*
X167417857Y-112424819D02*
X167513095Y-112377200D01*
X167513095Y-112377200D02*
X167560714Y-112329580D01*
X167560714Y-112329580D02*
X167608333Y-112234342D01*
X167608333Y-112234342D02*
X167608333Y-111424819D01*
X168036905Y-111520057D02*
X168084524Y-111472438D01*
X168084524Y-111472438D02*
X168179762Y-111424819D01*
X168179762Y-111424819D02*
X168417857Y-111424819D01*
X168417857Y-111424819D02*
X168513095Y-111472438D01*
X168513095Y-111472438D02*
X168560714Y-111520057D01*
X168560714Y-111520057D02*
X168608333Y-111615295D01*
X168608333Y-111615295D02*
X168608333Y-111710533D01*
X168608333Y-111710533D02*
X168560714Y-111853390D01*
X168560714Y-111853390D02*
X167989286Y-112424819D01*
X167989286Y-112424819D02*
X168608333Y-112424819D01*
X169465476Y-111424819D02*
X169275000Y-111424819D01*
X169275000Y-111424819D02*
X169179762Y-111472438D01*
X169179762Y-111472438D02*
X169132143Y-111520057D01*
X169132143Y-111520057D02*
X169036905Y-111662914D01*
X169036905Y-111662914D02*
X168989286Y-111853390D01*
X168989286Y-111853390D02*
X168989286Y-112234342D01*
X168989286Y-112234342D02*
X169036905Y-112329580D01*
X169036905Y-112329580D02*
X169084524Y-112377200D01*
X169084524Y-112377200D02*
X169179762Y-112424819D01*
X169179762Y-112424819D02*
X169370238Y-112424819D01*
X169370238Y-112424819D02*
X169465476Y-112377200D01*
X169465476Y-112377200D02*
X169513095Y-112329580D01*
X169513095Y-112329580D02*
X169560714Y-112234342D01*
X169560714Y-112234342D02*
X169560714Y-111996247D01*
X169560714Y-111996247D02*
X169513095Y-111901009D01*
X169513095Y-111901009D02*
X169465476Y-111853390D01*
X169465476Y-111853390D02*
X169370238Y-111805771D01*
X169370238Y-111805771D02*
X169179762Y-111805771D01*
X169179762Y-111805771D02*
X169084524Y-111853390D01*
X169084524Y-111853390D02*
X169036905Y-111901009D01*
X169036905Y-111901009D02*
X168989286Y-111996247D01*
X180173333Y-30934819D02*
X179840000Y-30458628D01*
X179601905Y-30934819D02*
X179601905Y-29934819D01*
X179601905Y-29934819D02*
X179982857Y-29934819D01*
X179982857Y-29934819D02*
X180078095Y-29982438D01*
X180078095Y-29982438D02*
X180125714Y-30030057D01*
X180125714Y-30030057D02*
X180173333Y-30125295D01*
X180173333Y-30125295D02*
X180173333Y-30268152D01*
X180173333Y-30268152D02*
X180125714Y-30363390D01*
X180125714Y-30363390D02*
X180078095Y-30411009D01*
X180078095Y-30411009D02*
X179982857Y-30458628D01*
X179982857Y-30458628D02*
X179601905Y-30458628D01*
X181030476Y-30268152D02*
X181030476Y-30934819D01*
X180792381Y-29887200D02*
X180554286Y-30601485D01*
X180554286Y-30601485D02*
X181173333Y-30601485D01*
X177588152Y-34043809D02*
X178254819Y-34043809D01*
X177207200Y-34281904D02*
X177921485Y-34519999D01*
X177921485Y-34519999D02*
X177921485Y-33900952D01*
X178159580Y-33519999D02*
X178207200Y-33472380D01*
X178207200Y-33472380D02*
X178254819Y-33519999D01*
X178254819Y-33519999D02*
X178207200Y-33567618D01*
X178207200Y-33567618D02*
X178159580Y-33519999D01*
X178159580Y-33519999D02*
X178254819Y-33519999D01*
X177254819Y-33139047D02*
X177254819Y-32472381D01*
X177254819Y-32472381D02*
X178254819Y-32900952D01*
X178254819Y-32091428D02*
X177254819Y-32091428D01*
X178254819Y-31520000D02*
X177683390Y-31948571D01*
X177254819Y-31520000D02*
X177826247Y-32091428D01*
X209542142Y-111484580D02*
X209494523Y-111532200D01*
X209494523Y-111532200D02*
X209351666Y-111579819D01*
X209351666Y-111579819D02*
X209256428Y-111579819D01*
X209256428Y-111579819D02*
X209113571Y-111532200D01*
X209113571Y-111532200D02*
X209018333Y-111436961D01*
X209018333Y-111436961D02*
X208970714Y-111341723D01*
X208970714Y-111341723D02*
X208923095Y-111151247D01*
X208923095Y-111151247D02*
X208923095Y-111008390D01*
X208923095Y-111008390D02*
X208970714Y-110817914D01*
X208970714Y-110817914D02*
X209018333Y-110722676D01*
X209018333Y-110722676D02*
X209113571Y-110627438D01*
X209113571Y-110627438D02*
X209256428Y-110579819D01*
X209256428Y-110579819D02*
X209351666Y-110579819D01*
X209351666Y-110579819D02*
X209494523Y-110627438D01*
X209494523Y-110627438D02*
X209542142Y-110675057D01*
X209923095Y-110675057D02*
X209970714Y-110627438D01*
X209970714Y-110627438D02*
X210065952Y-110579819D01*
X210065952Y-110579819D02*
X210304047Y-110579819D01*
X210304047Y-110579819D02*
X210399285Y-110627438D01*
X210399285Y-110627438D02*
X210446904Y-110675057D01*
X210446904Y-110675057D02*
X210494523Y-110770295D01*
X210494523Y-110770295D02*
X210494523Y-110865533D01*
X210494523Y-110865533D02*
X210446904Y-111008390D01*
X210446904Y-111008390D02*
X209875476Y-111579819D01*
X209875476Y-111579819D02*
X210494523Y-111579819D01*
X211113571Y-110579819D02*
X211208809Y-110579819D01*
X211208809Y-110579819D02*
X211304047Y-110627438D01*
X211304047Y-110627438D02*
X211351666Y-110675057D01*
X211351666Y-110675057D02*
X211399285Y-110770295D01*
X211399285Y-110770295D02*
X211446904Y-110960771D01*
X211446904Y-110960771D02*
X211446904Y-111198866D01*
X211446904Y-111198866D02*
X211399285Y-111389342D01*
X211399285Y-111389342D02*
X211351666Y-111484580D01*
X211351666Y-111484580D02*
X211304047Y-111532200D01*
X211304047Y-111532200D02*
X211208809Y-111579819D01*
X211208809Y-111579819D02*
X211113571Y-111579819D01*
X211113571Y-111579819D02*
X211018333Y-111532200D01*
X211018333Y-111532200D02*
X210970714Y-111484580D01*
X210970714Y-111484580D02*
X210923095Y-111389342D01*
X210923095Y-111389342D02*
X210875476Y-111198866D01*
X210875476Y-111198866D02*
X210875476Y-110960771D01*
X210875476Y-110960771D02*
X210923095Y-110770295D01*
X210923095Y-110770295D02*
X210970714Y-110675057D01*
X210970714Y-110675057D02*
X211018333Y-110627438D01*
X211018333Y-110627438D02*
X211113571Y-110579819D01*
X112268095Y-73749819D02*
X112268095Y-74559342D01*
X112268095Y-74559342D02*
X112315714Y-74654580D01*
X112315714Y-74654580D02*
X112363333Y-74702200D01*
X112363333Y-74702200D02*
X112458571Y-74749819D01*
X112458571Y-74749819D02*
X112649047Y-74749819D01*
X112649047Y-74749819D02*
X112744285Y-74702200D01*
X112744285Y-74702200D02*
X112791904Y-74654580D01*
X112791904Y-74654580D02*
X112839523Y-74559342D01*
X112839523Y-74559342D02*
X112839523Y-73749819D01*
X113458571Y-74178390D02*
X113363333Y-74130771D01*
X113363333Y-74130771D02*
X113315714Y-74083152D01*
X113315714Y-74083152D02*
X113268095Y-73987914D01*
X113268095Y-73987914D02*
X113268095Y-73940295D01*
X113268095Y-73940295D02*
X113315714Y-73845057D01*
X113315714Y-73845057D02*
X113363333Y-73797438D01*
X113363333Y-73797438D02*
X113458571Y-73749819D01*
X113458571Y-73749819D02*
X113649047Y-73749819D01*
X113649047Y-73749819D02*
X113744285Y-73797438D01*
X113744285Y-73797438D02*
X113791904Y-73845057D01*
X113791904Y-73845057D02*
X113839523Y-73940295D01*
X113839523Y-73940295D02*
X113839523Y-73987914D01*
X113839523Y-73987914D02*
X113791904Y-74083152D01*
X113791904Y-74083152D02*
X113744285Y-74130771D01*
X113744285Y-74130771D02*
X113649047Y-74178390D01*
X113649047Y-74178390D02*
X113458571Y-74178390D01*
X113458571Y-74178390D02*
X113363333Y-74226009D01*
X113363333Y-74226009D02*
X113315714Y-74273628D01*
X113315714Y-74273628D02*
X113268095Y-74368866D01*
X113268095Y-74368866D02*
X113268095Y-74559342D01*
X113268095Y-74559342D02*
X113315714Y-74654580D01*
X113315714Y-74654580D02*
X113363333Y-74702200D01*
X113363333Y-74702200D02*
X113458571Y-74749819D01*
X113458571Y-74749819D02*
X113649047Y-74749819D01*
X113649047Y-74749819D02*
X113744285Y-74702200D01*
X113744285Y-74702200D02*
X113791904Y-74654580D01*
X113791904Y-74654580D02*
X113839523Y-74559342D01*
X113839523Y-74559342D02*
X113839523Y-74368866D01*
X113839523Y-74368866D02*
X113791904Y-74273628D01*
X113791904Y-74273628D02*
X113744285Y-74226009D01*
X113744285Y-74226009D02*
X113649047Y-74178390D01*
X62222142Y-74019580D02*
X62174523Y-74067200D01*
X62174523Y-74067200D02*
X62031666Y-74114819D01*
X62031666Y-74114819D02*
X61936428Y-74114819D01*
X61936428Y-74114819D02*
X61793571Y-74067200D01*
X61793571Y-74067200D02*
X61698333Y-73971961D01*
X61698333Y-73971961D02*
X61650714Y-73876723D01*
X61650714Y-73876723D02*
X61603095Y-73686247D01*
X61603095Y-73686247D02*
X61603095Y-73543390D01*
X61603095Y-73543390D02*
X61650714Y-73352914D01*
X61650714Y-73352914D02*
X61698333Y-73257676D01*
X61698333Y-73257676D02*
X61793571Y-73162438D01*
X61793571Y-73162438D02*
X61936428Y-73114819D01*
X61936428Y-73114819D02*
X62031666Y-73114819D01*
X62031666Y-73114819D02*
X62174523Y-73162438D01*
X62174523Y-73162438D02*
X62222142Y-73210057D01*
X63174523Y-74114819D02*
X62603095Y-74114819D01*
X62888809Y-74114819D02*
X62888809Y-73114819D01*
X62888809Y-73114819D02*
X62793571Y-73257676D01*
X62793571Y-73257676D02*
X62698333Y-73352914D01*
X62698333Y-73352914D02*
X62603095Y-73400533D01*
X64126904Y-74114819D02*
X63555476Y-74114819D01*
X63841190Y-74114819D02*
X63841190Y-73114819D01*
X63841190Y-73114819D02*
X63745952Y-73257676D01*
X63745952Y-73257676D02*
X63650714Y-73352914D01*
X63650714Y-73352914D02*
X63555476Y-73400533D01*
D12*
%TO.C,U19*%
X225950000Y-112970000D02*
X225950000Y-138490000D01*
X225950000Y-138490000D02*
X231250000Y-138490000D01*
X227600000Y-112970000D02*
X225950000Y-112970000D01*
X231250000Y-112970000D02*
X229600000Y-112970000D01*
X231250000Y-138490000D02*
X231250000Y-112970000D01*
X227600000Y-112970000D02*
G75*
G03*
X229600000Y-112970000I1000000J0D01*
G01*
%TO.C,C10*%
X194350000Y-75030000D02*
X194350000Y-74715000D01*
X194350000Y-75030000D02*
X189110000Y-75030000D01*
X194350000Y-72605000D02*
X194350000Y-72290000D01*
X194350000Y-72290000D02*
X189110000Y-72290000D01*
X189110000Y-75030000D02*
X189110000Y-74715000D01*
X189110000Y-72605000D02*
X189110000Y-72290000D01*
%TO.C,C15*%
X212765000Y-75030000D02*
X212765000Y-74715000D01*
X212765000Y-75030000D02*
X207525000Y-75030000D01*
X212765000Y-72605000D02*
X212765000Y-72290000D01*
X212765000Y-72290000D02*
X207525000Y-72290000D01*
X207525000Y-75030000D02*
X207525000Y-74715000D01*
X207525000Y-72605000D02*
X207525000Y-72290000D01*
%TO.C,U7*%
X78630000Y-75505000D02*
X78630000Y-101025000D01*
X78630000Y-101025000D02*
X83930000Y-101025000D01*
X80280000Y-75505000D02*
X78630000Y-75505000D01*
X83930000Y-75505000D02*
X82280000Y-75505000D01*
X83930000Y-101025000D02*
X83930000Y-75505000D01*
X80280000Y-75505000D02*
G75*
G03*
X82280000Y-75505000I1000000J0D01*
G01*
%TO.C,U22*%
X78630000Y-112970000D02*
X78630000Y-133410000D01*
X78630000Y-133410000D02*
X83930000Y-133410000D01*
X80280000Y-112970000D02*
X78630000Y-112970000D01*
X83930000Y-112970000D02*
X82280000Y-112970000D01*
X83930000Y-133410000D02*
X83930000Y-112970000D01*
X80280000Y-112970000D02*
G75*
G03*
X82280000Y-112970000I1000000J0D01*
G01*
%TO.C,U3*%
X115455000Y-27880000D02*
X115455000Y-63560000D01*
X115455000Y-63560000D02*
X128375000Y-63560000D01*
X120915000Y-27880000D02*
X115455000Y-27880000D01*
X128375000Y-27880000D02*
X122915000Y-27880000D01*
X128375000Y-63560000D02*
X128375000Y-27880000D01*
X120915000Y-27880000D02*
G75*
G03*
X122915000Y-27880000I1000000J0D01*
G01*
%TO.C,U2*%
X78630000Y-27880000D02*
X78630000Y-63560000D01*
X78630000Y-63560000D02*
X91550000Y-63560000D01*
X84090000Y-27880000D02*
X78630000Y-27880000D01*
X91550000Y-27880000D02*
X86090000Y-27880000D01*
X91550000Y-63560000D02*
X91550000Y-27880000D01*
X84090000Y-27880000D02*
G75*
G03*
X86090000Y-27880000I1000000J0D01*
G01*
%TO.C,U12*%
X97045000Y-75505000D02*
X97045000Y-95945000D01*
X97045000Y-95945000D02*
X102345000Y-95945000D01*
X98695000Y-75505000D02*
X97045000Y-75505000D01*
X102345000Y-75505000D02*
X100695000Y-75505000D01*
X102345000Y-95945000D02*
X102345000Y-75505000D01*
X98695000Y-75505000D02*
G75*
G03*
X100695000Y-75505000I1000000J0D01*
G01*
%TO.C,C13*%
X139105000Y-75030000D02*
X139105000Y-74715000D01*
X139105000Y-75030000D02*
X133865000Y-75030000D01*
X139105000Y-72605000D02*
X139105000Y-72290000D01*
X139105000Y-72290000D02*
X133865000Y-72290000D01*
X133865000Y-75030000D02*
X133865000Y-74715000D01*
X133865000Y-72605000D02*
X133865000Y-72290000D01*
%TO.C,C14*%
X175935000Y-75030000D02*
X175935000Y-74715000D01*
X175935000Y-75030000D02*
X170695000Y-75030000D01*
X175935000Y-72605000D02*
X175935000Y-72290000D01*
X175935000Y-72290000D02*
X170695000Y-72290000D01*
X170695000Y-75030000D02*
X170695000Y-74715000D01*
X170695000Y-72605000D02*
X170695000Y-72290000D01*
%TO.C,R5*%
X216000000Y-29750000D02*
X216000000Y-36290000D01*
X215670000Y-29750000D02*
X216000000Y-29750000D01*
X213590000Y-29750000D02*
X213260000Y-29750000D01*
X213260000Y-29750000D02*
X213260000Y-36290000D01*
X216000000Y-36290000D02*
X215670000Y-36290000D01*
X213260000Y-36290000D02*
X213590000Y-36290000D01*
%TO.C,C6*%
X47110000Y-75030000D02*
X47110000Y-74715000D01*
X47110000Y-75030000D02*
X41870000Y-75030000D01*
X47110000Y-72605000D02*
X47110000Y-72290000D01*
X47110000Y-72290000D02*
X41870000Y-72290000D01*
X41870000Y-75030000D02*
X41870000Y-74715000D01*
X41870000Y-72605000D02*
X41870000Y-72290000D01*
%TO.C,U24*%
X60215000Y-112970000D02*
X60215000Y-130870000D01*
X60215000Y-130870000D02*
X65515000Y-130870000D01*
X61865000Y-112970000D02*
X60215000Y-112970000D01*
X65515000Y-112970000D02*
X63865000Y-112970000D01*
X65515000Y-130870000D02*
X65515000Y-112970000D01*
X61865000Y-112970000D02*
G75*
G03*
X63865000Y-112970000I1000000J0D01*
G01*
%TO.C,U9*%
X152290000Y-75505000D02*
X152290000Y-101025000D01*
X152290000Y-101025000D02*
X157590000Y-101025000D01*
X153940000Y-75505000D02*
X152290000Y-75505000D01*
X157590000Y-75505000D02*
X155940000Y-75505000D01*
X157590000Y-101025000D02*
X157590000Y-75505000D01*
X153940000Y-75505000D02*
G75*
G03*
X155940000Y-75505000I1000000J0D01*
G01*
%TO.C,J3*%
X223020000Y-34100000D02*
X224020000Y-34100000D01*
X224020000Y-34100000D02*
X223520000Y-33100000D01*
X223520000Y-33100000D02*
X223020000Y-34100000D01*
X218310000Y-27480000D02*
X218310000Y-18360000D01*
X227820000Y-27480000D02*
X227820000Y-18360000D01*
X231920000Y-27480000D02*
X231920000Y-18360000D01*
X241430000Y-27480000D02*
X218310000Y-27480000D01*
X218310000Y-18360000D02*
X241430000Y-18360000D01*
X241430000Y-18360000D02*
X241430000Y-27480000D01*
%TO.C,U10*%
X189120000Y-75505000D02*
X189120000Y-101025000D01*
X189120000Y-101025000D02*
X194420000Y-101025000D01*
X190770000Y-75505000D02*
X189120000Y-75505000D01*
X194420000Y-75505000D02*
X192770000Y-75505000D01*
X194420000Y-101025000D02*
X194420000Y-75505000D01*
X190770000Y-75505000D02*
G75*
G03*
X192770000Y-75505000I1000000J0D01*
G01*
%TO.C,R2*%
X105510000Y-29750000D02*
X105510000Y-36290000D01*
X105180000Y-29750000D02*
X105510000Y-29750000D01*
X103100000Y-29750000D02*
X102770000Y-29750000D01*
X102770000Y-29750000D02*
X102770000Y-36290000D01*
X105510000Y-36290000D02*
X105180000Y-36290000D01*
X102770000Y-36290000D02*
X103100000Y-36290000D01*
%TO.C,C25*%
X157560000Y-112495000D02*
X157560000Y-112180000D01*
X157560000Y-112495000D02*
X152320000Y-112495000D01*
X157560000Y-110070000D02*
X157560000Y-109755000D01*
X157560000Y-109755000D02*
X152320000Y-109755000D01*
X152320000Y-112495000D02*
X152320000Y-112180000D01*
X152320000Y-110070000D02*
X152320000Y-109755000D01*
%TO.C,C12*%
X102275000Y-75030000D02*
X102275000Y-74715000D01*
X102275000Y-75030000D02*
X97035000Y-75030000D01*
X102275000Y-72605000D02*
X102275000Y-72290000D01*
X102275000Y-72290000D02*
X97035000Y-72290000D01*
X97035000Y-75030000D02*
X97035000Y-74715000D01*
X97035000Y-72605000D02*
X97035000Y-72290000D01*
%TO.C,U25*%
X152290000Y-112970000D02*
X152290000Y-130870000D01*
X152290000Y-130870000D02*
X157590000Y-130870000D01*
X153940000Y-112970000D02*
X152290000Y-112970000D01*
X157590000Y-112970000D02*
X155940000Y-112970000D01*
X157590000Y-130870000D02*
X157590000Y-112970000D01*
X153940000Y-112970000D02*
G75*
G03*
X155940000Y-112970000I1000000J0D01*
G01*
%TO.C,C8*%
X120730000Y-75030000D02*
X120730000Y-74715000D01*
X120730000Y-75030000D02*
X115490000Y-75030000D01*
X120730000Y-72605000D02*
X120730000Y-72290000D01*
X120730000Y-72290000D02*
X115490000Y-72290000D01*
X115490000Y-75030000D02*
X115490000Y-74715000D01*
X115490000Y-72605000D02*
X115490000Y-72290000D01*
%TO.C,R6*%
X68480000Y-121380000D02*
X68480000Y-114840000D01*
X68810000Y-121380000D02*
X68480000Y-121380000D01*
X70890000Y-121380000D02*
X71220000Y-121380000D01*
X71220000Y-121380000D02*
X71220000Y-114840000D01*
X68480000Y-114840000D02*
X68810000Y-114840000D01*
X71220000Y-114840000D02*
X70890000Y-114840000D01*
%TO.C,C4*%
X156170000Y-24665000D02*
X156170000Y-24980000D01*
X156170000Y-24665000D02*
X161410000Y-24665000D01*
X156170000Y-27090000D02*
X156170000Y-27405000D01*
X156170000Y-27405000D02*
X161410000Y-27405000D01*
X161410000Y-24665000D02*
X161410000Y-24980000D01*
X161410000Y-27090000D02*
X161410000Y-27405000D01*
%TO.C,U17*%
X115460000Y-112970000D02*
X115460000Y-133410000D01*
X115460000Y-133410000D02*
X120760000Y-133410000D01*
X117110000Y-112970000D02*
X115460000Y-112970000D01*
X120760000Y-112970000D02*
X119110000Y-112970000D01*
X120760000Y-133410000D02*
X120760000Y-112970000D01*
X117110000Y-112970000D02*
G75*
G03*
X119110000Y-112970000I1000000J0D01*
G01*
%TO.C,C16*%
X102275000Y-112495000D02*
X102275000Y-112180000D01*
X102275000Y-112495000D02*
X97035000Y-112495000D01*
X102275000Y-110070000D02*
X102275000Y-109755000D01*
X102275000Y-109755000D02*
X97035000Y-109755000D01*
X97035000Y-112495000D02*
X97035000Y-112180000D01*
X97035000Y-110070000D02*
X97035000Y-109755000D01*
%TO.C,U23*%
X41800000Y-112970000D02*
X41800000Y-130870000D01*
X41800000Y-130870000D02*
X47100000Y-130870000D01*
X43450000Y-112970000D02*
X41800000Y-112970000D01*
X47100000Y-112970000D02*
X45450000Y-112970000D01*
X47100000Y-130870000D02*
X47100000Y-112970000D01*
X43450000Y-112970000D02*
G75*
G03*
X45450000Y-112970000I1000000J0D01*
G01*
%TO.C,R9*%
X181710000Y-124365000D02*
X181710000Y-130905000D01*
X181380000Y-124365000D02*
X181710000Y-124365000D01*
X179300000Y-124365000D02*
X178970000Y-124365000D01*
X178970000Y-124365000D02*
X178970000Y-130905000D01*
X181710000Y-130905000D02*
X181380000Y-130905000D01*
X178970000Y-130905000D02*
X179300000Y-130905000D01*
%TO.C,C7*%
X83900000Y-75030000D02*
X83900000Y-74715000D01*
X83900000Y-75030000D02*
X78660000Y-75030000D01*
X83900000Y-72605000D02*
X83900000Y-72290000D01*
X83900000Y-72290000D02*
X78660000Y-72290000D01*
X78660000Y-75030000D02*
X78660000Y-74715000D01*
X78660000Y-72605000D02*
X78660000Y-72290000D01*
%TO.C,U13*%
X133875000Y-75505000D02*
X133875000Y-95945000D01*
X133875000Y-95945000D02*
X139175000Y-95945000D01*
X135525000Y-75505000D02*
X133875000Y-75505000D01*
X139175000Y-75505000D02*
X137525000Y-75505000D01*
X139175000Y-95945000D02*
X139175000Y-75505000D01*
X135525000Y-75505000D02*
G75*
G03*
X137525000Y-75505000I1000000J0D01*
G01*
%TO.C,C19*%
X231815000Y-112495000D02*
X231815000Y-112180000D01*
X231815000Y-112495000D02*
X226575000Y-112495000D01*
X231815000Y-110070000D02*
X231815000Y-109755000D01*
X231815000Y-109755000D02*
X226575000Y-109755000D01*
X226575000Y-112495000D02*
X226575000Y-112180000D01*
X226575000Y-110070000D02*
X226575000Y-109755000D01*
%TO.C,C24*%
X65485000Y-112495000D02*
X65485000Y-112180000D01*
X65485000Y-112495000D02*
X60245000Y-112495000D01*
X65485000Y-110070000D02*
X65485000Y-109755000D01*
X65485000Y-109755000D02*
X60245000Y-109755000D01*
X60245000Y-112495000D02*
X60245000Y-112180000D01*
X60245000Y-110070000D02*
X60245000Y-109755000D01*
%TO.C,C2*%
X82470000Y-24665000D02*
X82470000Y-24980000D01*
X82470000Y-24665000D02*
X87710000Y-24665000D01*
X82470000Y-27090000D02*
X82470000Y-27405000D01*
X82470000Y-27405000D02*
X87710000Y-27405000D01*
X87710000Y-24665000D02*
X87710000Y-24980000D01*
X87710000Y-27090000D02*
X87710000Y-27405000D01*
%TO.C,C26*%
X176015000Y-112495000D02*
X176015000Y-112180000D01*
X176015000Y-112495000D02*
X170775000Y-112495000D01*
X176015000Y-110070000D02*
X176015000Y-109755000D01*
X176015000Y-109755000D02*
X170775000Y-109755000D01*
X170775000Y-112495000D02*
X170775000Y-112180000D01*
X170775000Y-110070000D02*
X170775000Y-109755000D01*
%TO.C,U14*%
X170705000Y-75505000D02*
X170705000Y-95945000D01*
X170705000Y-95945000D02*
X176005000Y-95945000D01*
X172355000Y-75505000D02*
X170705000Y-75505000D01*
X176005000Y-75505000D02*
X174355000Y-75505000D01*
X176005000Y-95945000D02*
X176005000Y-75505000D01*
X172355000Y-75505000D02*
G75*
G03*
X174355000Y-75505000I1000000J0D01*
G01*
%TO.C,R7*%
X167740000Y-124365000D02*
X167740000Y-130905000D01*
X167410000Y-124365000D02*
X167740000Y-124365000D01*
X165330000Y-124365000D02*
X165000000Y-124365000D01*
X165000000Y-124365000D02*
X165000000Y-130905000D01*
X167740000Y-130905000D02*
X167410000Y-130905000D01*
X165000000Y-130905000D02*
X165330000Y-130905000D01*
%TO.C,J1*%
X134255000Y-155160000D02*
X134255000Y-149600000D01*
X134255000Y-149600000D02*
X128735000Y-149600000D01*
X128736000Y-150600000D02*
X127460000Y-150600000D01*
X128735000Y-149600000D02*
X128735000Y-150600000D01*
X128060000Y-150160000D02*
X128060000Y-149560000D01*
X128060000Y-149560000D02*
X127460000Y-149860000D01*
X127460000Y-149860000D02*
X128060000Y-150160000D01*
X125270000Y-150600000D02*
X124694000Y-150600000D01*
X122955000Y-150600000D02*
X122154000Y-150600000D01*
X120415000Y-150600000D02*
X119614000Y-150600000D01*
X117875000Y-150600000D02*
X117074000Y-150600000D01*
X115335000Y-150600000D02*
X114534000Y-150600000D01*
X112795000Y-150600000D02*
X111994000Y-150600000D01*
X110255000Y-150600000D02*
X109454000Y-150600000D01*
X107715000Y-150600000D02*
X106914000Y-150600000D01*
X105175000Y-150600000D02*
X104374000Y-150600000D01*
X102635000Y-150600000D02*
X101834000Y-150600000D01*
X100095000Y-150600000D02*
X99294000Y-150600000D01*
X97555000Y-150600000D02*
X96754000Y-150600000D01*
X95015000Y-150600000D02*
X94214000Y-150600000D01*
X92475000Y-150600000D02*
X91674000Y-150600000D01*
X89935000Y-150600000D02*
X89134000Y-150600000D01*
X87395000Y-150600000D02*
X86594000Y-150600000D01*
X84855000Y-150600000D02*
X84054000Y-150600000D01*
X82315000Y-150600000D02*
X81514000Y-150600000D01*
X79775000Y-150600000D02*
X78974000Y-150600000D01*
X77235000Y-150600000D02*
X76434000Y-150600000D01*
X74695000Y-150600000D02*
X73894000Y-150600000D01*
X72155000Y-150600000D02*
X71354000Y-150600000D01*
X69615000Y-150600000D02*
X68814000Y-150600000D01*
X67075000Y-150600000D02*
X66274000Y-150600000D01*
X64535000Y-150600000D02*
X63734000Y-150600000D01*
X61995000Y-150600000D02*
X61194000Y-150600000D01*
X59455000Y-150600000D02*
X58654000Y-150600000D01*
X56915000Y-150600000D02*
X56114000Y-150600000D01*
X54375000Y-150600000D02*
X53574000Y-150600000D01*
X51835000Y-150600000D02*
X51034000Y-150600000D01*
X49295000Y-150600000D02*
X48494000Y-150600000D01*
X46755000Y-150600000D02*
X45255000Y-150600000D01*
X45255000Y-149600000D02*
X45255000Y-150600000D01*
X39735000Y-155160000D02*
X39735000Y-149600000D01*
X39735000Y-149600000D02*
X45255000Y-149600000D01*
%TO.C,R8*%
X167740000Y-114205000D02*
X167740000Y-120745000D01*
X167410000Y-114205000D02*
X167740000Y-114205000D01*
X165330000Y-114205000D02*
X165000000Y-114205000D01*
X165000000Y-114205000D02*
X165000000Y-120745000D01*
X167740000Y-120745000D02*
X167410000Y-120745000D01*
X165000000Y-120745000D02*
X165330000Y-120745000D01*
%TO.C,C21*%
X194390000Y-112495000D02*
X194390000Y-112180000D01*
X194390000Y-112495000D02*
X189150000Y-112495000D01*
X194390000Y-110070000D02*
X194390000Y-109755000D01*
X194390000Y-109755000D02*
X189150000Y-109755000D01*
X189150000Y-112495000D02*
X189150000Y-112180000D01*
X189150000Y-110070000D02*
X189150000Y-109755000D01*
%TO.C,U18*%
X133875000Y-112970000D02*
X133875000Y-133410000D01*
X133875000Y-133410000D02*
X139175000Y-133410000D01*
X135525000Y-112970000D02*
X133875000Y-112970000D01*
X139175000Y-112970000D02*
X137525000Y-112970000D01*
X139175000Y-133410000D02*
X139175000Y-112970000D01*
X135525000Y-112970000D02*
G75*
G03*
X137525000Y-112970000I1000000J0D01*
G01*
%TO.C,C5*%
X193000000Y-24665000D02*
X193000000Y-24980000D01*
X193000000Y-24665000D02*
X198240000Y-24665000D01*
X193000000Y-27090000D02*
X193000000Y-27405000D01*
X193000000Y-27405000D02*
X198240000Y-27405000D01*
X198240000Y-24665000D02*
X198240000Y-24980000D01*
X198240000Y-27090000D02*
X198240000Y-27405000D01*
%TO.C,R1*%
X68680000Y-29750000D02*
X68680000Y-36290000D01*
X68350000Y-29750000D02*
X68680000Y-29750000D01*
X66270000Y-29750000D02*
X65940000Y-29750000D01*
X65940000Y-29750000D02*
X65940000Y-36290000D01*
X68680000Y-36290000D02*
X68350000Y-36290000D01*
X65940000Y-36290000D02*
X66270000Y-36290000D01*
%TO.C,R11*%
X146585000Y-123920000D02*
X146585000Y-117380000D01*
X146915000Y-123920000D02*
X146585000Y-123920000D01*
X148995000Y-123920000D02*
X149325000Y-123920000D01*
X149325000Y-123920000D02*
X149325000Y-117380000D01*
X146585000Y-117380000D02*
X146915000Y-117380000D01*
X149325000Y-117380000D02*
X148995000Y-117380000D01*
%TO.C,C18*%
X139145000Y-112495000D02*
X139145000Y-112180000D01*
X139145000Y-112495000D02*
X133905000Y-112495000D01*
X139145000Y-110070000D02*
X139145000Y-109755000D01*
X139145000Y-109755000D02*
X133905000Y-109755000D01*
X133905000Y-112495000D02*
X133905000Y-112180000D01*
X133905000Y-110070000D02*
X133905000Y-109755000D01*
%TO.C,U5*%
X189120000Y-27880000D02*
X189120000Y-63560000D01*
X189120000Y-63560000D02*
X202040000Y-63560000D01*
X194580000Y-27880000D02*
X189120000Y-27880000D01*
X202040000Y-27880000D02*
X196580000Y-27880000D01*
X202040000Y-63560000D02*
X202040000Y-27880000D01*
X194580000Y-27880000D02*
G75*
G03*
X196580000Y-27880000I1000000J0D01*
G01*
%TO.C,U15*%
X207535000Y-75505000D02*
X207535000Y-95945000D01*
X207535000Y-95945000D02*
X212835000Y-95945000D01*
X209185000Y-75505000D02*
X207535000Y-75505000D01*
X212835000Y-75505000D02*
X211185000Y-75505000D01*
X212835000Y-95945000D02*
X212835000Y-75505000D01*
X209185000Y-75505000D02*
G75*
G03*
X211185000Y-75505000I1000000J0D01*
G01*
%TO.C,U6*%
X41810000Y-75510000D02*
X41810000Y-101030000D01*
X41810000Y-101030000D02*
X47110000Y-101030000D01*
X43460000Y-75510000D02*
X41810000Y-75510000D01*
X47110000Y-75510000D02*
X45460000Y-75510000D01*
X47110000Y-101030000D02*
X47110000Y-75510000D01*
X43460000Y-75510000D02*
G75*
G03*
X45460000Y-75510000I1000000J0D01*
G01*
%TO.C,U20*%
X207535000Y-112970000D02*
X207535000Y-138490000D01*
X207535000Y-138490000D02*
X212835000Y-138490000D01*
X209185000Y-112970000D02*
X207535000Y-112970000D01*
X212835000Y-112970000D02*
X211185000Y-112970000D01*
X212835000Y-138490000D02*
X212835000Y-112970000D01*
X209185000Y-112970000D02*
G75*
G03*
X211185000Y-112970000I1000000J0D01*
G01*
%TO.C,C23*%
X47030000Y-112495000D02*
X47030000Y-112180000D01*
X47030000Y-112495000D02*
X41790000Y-112495000D01*
X47030000Y-110070000D02*
X47030000Y-109755000D01*
X47030000Y-109755000D02*
X41790000Y-109755000D01*
X41790000Y-112495000D02*
X41790000Y-112180000D01*
X41790000Y-110070000D02*
X41790000Y-109755000D01*
%TO.C,R10*%
X181710000Y-114205000D02*
X181710000Y-120745000D01*
X181380000Y-114205000D02*
X181710000Y-114205000D01*
X179300000Y-114205000D02*
X178970000Y-114205000D01*
X178970000Y-114205000D02*
X178970000Y-120745000D01*
X181710000Y-120745000D02*
X181380000Y-120745000D01*
X178970000Y-120745000D02*
X179300000Y-120745000D01*
%TO.C,C22*%
X83860000Y-112495000D02*
X83860000Y-112180000D01*
X83860000Y-112495000D02*
X78620000Y-112495000D01*
X83860000Y-110070000D02*
X83860000Y-109755000D01*
X83860000Y-109755000D02*
X78620000Y-109755000D01*
X78620000Y-112495000D02*
X78620000Y-112180000D01*
X78620000Y-110070000D02*
X78620000Y-109755000D01*
%TO.C,U11*%
X60215000Y-75505000D02*
X60215000Y-95945000D01*
X60215000Y-95945000D02*
X65515000Y-95945000D01*
X61865000Y-75505000D02*
X60215000Y-75505000D01*
X65515000Y-75505000D02*
X63865000Y-75505000D01*
X65515000Y-95945000D02*
X65515000Y-75505000D01*
X61865000Y-75505000D02*
G75*
G03*
X63865000Y-75505000I1000000J0D01*
G01*
%TO.C,J2*%
X237760000Y-155160000D02*
X237760000Y-149600000D01*
X237760000Y-149600000D02*
X232240000Y-149600000D01*
X232241000Y-150600000D02*
X230965000Y-150600000D01*
X232240000Y-149600000D02*
X232240000Y-150600000D01*
X231565000Y-150160000D02*
X231565000Y-149560000D01*
X231565000Y-149560000D02*
X230965000Y-149860000D01*
X230965000Y-149860000D02*
X231565000Y-150160000D01*
X228775000Y-150600000D02*
X228199000Y-150600000D01*
X226460000Y-150600000D02*
X225659000Y-150600000D01*
X223920000Y-150600000D02*
X223119000Y-150600000D01*
X221380000Y-150600000D02*
X220579000Y-150600000D01*
X218840000Y-150600000D02*
X218039000Y-150600000D01*
X216300000Y-150600000D02*
X215499000Y-150600000D01*
X213760000Y-150600000D02*
X212959000Y-150600000D01*
X211220000Y-150600000D02*
X210419000Y-150600000D01*
X208680000Y-150600000D02*
X207879000Y-150600000D01*
X206140000Y-150600000D02*
X205339000Y-150600000D01*
X203600000Y-150600000D02*
X202799000Y-150600000D01*
X201060000Y-150600000D02*
X200259000Y-150600000D01*
X198520000Y-150600000D02*
X197719000Y-150600000D01*
X195980000Y-150600000D02*
X195179000Y-150600000D01*
X193440000Y-150600000D02*
X192639000Y-150600000D01*
X190900000Y-150600000D02*
X190099000Y-150600000D01*
X188360000Y-150600000D02*
X187559000Y-150600000D01*
X185820000Y-150600000D02*
X185019000Y-150600000D01*
X183280000Y-150600000D02*
X182479000Y-150600000D01*
X180740000Y-150600000D02*
X179939000Y-150600000D01*
X178200000Y-150600000D02*
X177399000Y-150600000D01*
X175660000Y-150600000D02*
X174859000Y-150600000D01*
X173120000Y-150600000D02*
X172319000Y-150600000D01*
X170580000Y-150600000D02*
X169779000Y-150600000D01*
X168040000Y-150600000D02*
X167239000Y-150600000D01*
X165500000Y-150600000D02*
X164699000Y-150600000D01*
X162960000Y-150600000D02*
X162159000Y-150600000D01*
X160420000Y-150600000D02*
X159619000Y-150600000D01*
X157880000Y-150600000D02*
X157079000Y-150600000D01*
X155340000Y-150600000D02*
X154539000Y-150600000D01*
X152800000Y-150600000D02*
X151999000Y-150600000D01*
X150260000Y-150600000D02*
X148760000Y-150600000D01*
X148760000Y-149600000D02*
X148760000Y-150600000D01*
X143240000Y-155160000D02*
X143240000Y-149600000D01*
X143240000Y-149600000D02*
X148760000Y-149600000D01*
%TO.C,C1*%
X45640000Y-24665000D02*
X45640000Y-24980000D01*
X45640000Y-24665000D02*
X50880000Y-24665000D01*
X45640000Y-27090000D02*
X45640000Y-27405000D01*
X45640000Y-27405000D02*
X50880000Y-27405000D01*
X50880000Y-24665000D02*
X50880000Y-24980000D01*
X50880000Y-27090000D02*
X50880000Y-27405000D01*
%TO.C,C17*%
X120690000Y-112495000D02*
X120690000Y-112180000D01*
X120690000Y-112495000D02*
X115450000Y-112495000D01*
X120690000Y-110070000D02*
X120690000Y-109755000D01*
X120690000Y-109755000D02*
X115450000Y-109755000D01*
X115450000Y-112495000D02*
X115450000Y-112180000D01*
X115450000Y-110070000D02*
X115450000Y-109755000D01*
%TO.C,U1*%
X41800000Y-27880000D02*
X41800000Y-63560000D01*
X41800000Y-63560000D02*
X54720000Y-63560000D01*
X47260000Y-27880000D02*
X41800000Y-27880000D01*
X54720000Y-27880000D02*
X49260000Y-27880000D01*
X54720000Y-63560000D02*
X54720000Y-27880000D01*
X47260000Y-27880000D02*
G75*
G03*
X49260000Y-27880000I1000000J0D01*
G01*
%TO.C,C27*%
X41017359Y-137226000D02*
X41647359Y-137226000D01*
X41332359Y-136911000D02*
X41332359Y-137541000D01*
X44517600Y-135835000D02*
X44517600Y-142295000D01*
X44557600Y-135835000D02*
X44557600Y-142295000D01*
X44597600Y-135835000D02*
X44597600Y-142295000D01*
X44637600Y-135837000D02*
X44637600Y-142293000D01*
X44677600Y-135838000D02*
X44677600Y-142292000D01*
X44717600Y-135841000D02*
X44717600Y-142289000D01*
X44757600Y-135843000D02*
X44757600Y-138025000D01*
X44757600Y-140105000D02*
X44757600Y-142287000D01*
X44797600Y-135847000D02*
X44797600Y-138025000D01*
X44797600Y-140105000D02*
X44797600Y-142283000D01*
X44837600Y-135850000D02*
X44837600Y-138025000D01*
X44837600Y-140105000D02*
X44837600Y-142280000D01*
X44877600Y-135854000D02*
X44877600Y-138025000D01*
X44877600Y-140105000D02*
X44877600Y-142276000D01*
X44917600Y-135859000D02*
X44917600Y-138025000D01*
X44917600Y-140105000D02*
X44917600Y-142271000D01*
X44957600Y-135864000D02*
X44957600Y-138025000D01*
X44957600Y-140105000D02*
X44957600Y-142266000D01*
X44997600Y-135870000D02*
X44997600Y-138025000D01*
X44997600Y-140105000D02*
X44997600Y-142260000D01*
X45037600Y-135876000D02*
X45037600Y-138025000D01*
X45037600Y-140105000D02*
X45037600Y-142254000D01*
X45077600Y-135883000D02*
X45077600Y-138025000D01*
X45077600Y-140105000D02*
X45077600Y-142247000D01*
X45117600Y-135890000D02*
X45117600Y-138025000D01*
X45117600Y-140105000D02*
X45117600Y-142240000D01*
X45157600Y-135898000D02*
X45157600Y-138025000D01*
X45157600Y-140105000D02*
X45157600Y-142232000D01*
X45197600Y-135906000D02*
X45197600Y-138025000D01*
X45197600Y-140105000D02*
X45197600Y-142224000D01*
X45238600Y-135915000D02*
X45238600Y-138025000D01*
X45238600Y-140105000D02*
X45238600Y-142215000D01*
X45278600Y-135924000D02*
X45278600Y-138025000D01*
X45278600Y-140105000D02*
X45278600Y-142206000D01*
X45318600Y-135934000D02*
X45318600Y-138025000D01*
X45318600Y-140105000D02*
X45318600Y-142196000D01*
X45358600Y-135944000D02*
X45358600Y-138025000D01*
X45358600Y-140105000D02*
X45358600Y-142186000D01*
X45398600Y-135955000D02*
X45398600Y-138025000D01*
X45398600Y-140105000D02*
X45398600Y-142175000D01*
X45438600Y-135967000D02*
X45438600Y-138025000D01*
X45438600Y-140105000D02*
X45438600Y-142163000D01*
X45478600Y-135979000D02*
X45478600Y-138025000D01*
X45478600Y-140105000D02*
X45478600Y-142151000D01*
X45518600Y-135991000D02*
X45518600Y-138025000D01*
X45518600Y-140105000D02*
X45518600Y-142139000D01*
X45558600Y-136004000D02*
X45558600Y-138025000D01*
X45558600Y-140105000D02*
X45558600Y-142126000D01*
X45598600Y-136018000D02*
X45598600Y-138025000D01*
X45598600Y-140105000D02*
X45598600Y-142112000D01*
X45638600Y-136032000D02*
X45638600Y-138025000D01*
X45638600Y-140105000D02*
X45638600Y-142098000D01*
X45678600Y-136047000D02*
X45678600Y-138025000D01*
X45678600Y-140105000D02*
X45678600Y-142083000D01*
X45718600Y-136063000D02*
X45718600Y-138025000D01*
X45718600Y-140105000D02*
X45718600Y-142067000D01*
X45758600Y-136079000D02*
X45758600Y-138025000D01*
X45758600Y-140105000D02*
X45758600Y-142051000D01*
X45798600Y-136095000D02*
X45798600Y-138025000D01*
X45798600Y-140105000D02*
X45798600Y-142035000D01*
X45838600Y-136113000D02*
X45838600Y-138025000D01*
X45838600Y-140105000D02*
X45838600Y-142017000D01*
X45878600Y-136131000D02*
X45878600Y-138025000D01*
X45878600Y-140105000D02*
X45878600Y-141999000D01*
X45918600Y-136149000D02*
X45918600Y-138025000D01*
X45918600Y-140105000D02*
X45918600Y-141981000D01*
X45958600Y-136169000D02*
X45958600Y-138025000D01*
X45958600Y-140105000D02*
X45958600Y-141961000D01*
X45998600Y-136189000D02*
X45998600Y-138025000D01*
X45998600Y-140105000D02*
X45998600Y-141941000D01*
X46038600Y-136209000D02*
X46038600Y-138025000D01*
X46038600Y-140105000D02*
X46038600Y-141921000D01*
X46078600Y-136231000D02*
X46078600Y-138025000D01*
X46078600Y-140105000D02*
X46078600Y-141899000D01*
X46118600Y-136253000D02*
X46118600Y-138025000D01*
X46118600Y-140105000D02*
X46118600Y-141877000D01*
X46158600Y-136275000D02*
X46158600Y-138025000D01*
X46158600Y-140105000D02*
X46158600Y-141855000D01*
X46198600Y-136299000D02*
X46198600Y-138025000D01*
X46198600Y-140105000D02*
X46198600Y-141831000D01*
X46238600Y-136323000D02*
X46238600Y-138025000D01*
X46238600Y-140105000D02*
X46238600Y-141807000D01*
X46278600Y-136349000D02*
X46278600Y-138025000D01*
X46278600Y-140105000D02*
X46278600Y-141781000D01*
X46318600Y-136375000D02*
X46318600Y-138025000D01*
X46318600Y-140105000D02*
X46318600Y-141755000D01*
X46358600Y-136401000D02*
X46358600Y-138025000D01*
X46358600Y-140105000D02*
X46358600Y-141729000D01*
X46398600Y-136429000D02*
X46398600Y-138025000D01*
X46398600Y-140105000D02*
X46398600Y-141701000D01*
X46438600Y-136458000D02*
X46438600Y-138025000D01*
X46438600Y-140105000D02*
X46438600Y-141672000D01*
X46478600Y-136487000D02*
X46478600Y-138025000D01*
X46478600Y-140105000D02*
X46478600Y-141643000D01*
X46518600Y-136517000D02*
X46518600Y-138025000D01*
X46518600Y-140105000D02*
X46518600Y-141613000D01*
X46558600Y-136549000D02*
X46558600Y-138025000D01*
X46558600Y-140105000D02*
X46558600Y-141581000D01*
X46598600Y-136581000D02*
X46598600Y-138025000D01*
X46598600Y-140105000D02*
X46598600Y-141549000D01*
X46638600Y-136615000D02*
X46638600Y-138025000D01*
X46638600Y-140105000D02*
X46638600Y-141515000D01*
X46678600Y-136649000D02*
X46678600Y-138025000D01*
X46678600Y-140105000D02*
X46678600Y-141481000D01*
X46718600Y-136685000D02*
X46718600Y-138025000D01*
X46718600Y-140105000D02*
X46718600Y-141445000D01*
X46758600Y-136722000D02*
X46758600Y-138025000D01*
X46758600Y-140105000D02*
X46758600Y-141408000D01*
X46798600Y-136760000D02*
X46798600Y-138025000D01*
X46798600Y-140105000D02*
X46798600Y-141370000D01*
X46838600Y-136800000D02*
X46838600Y-141330000D01*
X46878600Y-136841000D02*
X46878600Y-141289000D01*
X46918600Y-136883000D02*
X46918600Y-141247000D01*
X46958600Y-136928000D02*
X46958600Y-141202000D01*
X46998600Y-136973000D02*
X46998600Y-141157000D01*
X47038600Y-137021000D02*
X47038600Y-141109000D01*
X47078600Y-137070000D02*
X47078600Y-141060000D01*
X47118600Y-137121000D02*
X47118600Y-141009000D01*
X47158600Y-137175000D02*
X47158600Y-140955000D01*
X47198600Y-137231000D02*
X47198600Y-140899000D01*
X47238600Y-137289000D02*
X47238600Y-140841000D01*
X47278600Y-137351000D02*
X47278600Y-140779000D01*
X47318600Y-137415000D02*
X47318600Y-140715000D01*
X47358600Y-137484000D02*
X47358600Y-140646000D01*
X47398600Y-137556000D02*
X47398600Y-140574000D01*
X47438600Y-137633000D02*
X47438600Y-140497000D01*
X47478600Y-137715000D02*
X47478600Y-140415000D01*
X47518600Y-137803000D02*
X47518600Y-140327000D01*
X47558600Y-137900000D02*
X47558600Y-140230000D01*
X47598600Y-138006000D02*
X47598600Y-140124000D01*
X47638600Y-138125000D02*
X47638600Y-140005000D01*
X47678600Y-138263000D02*
X47678600Y-139867000D01*
X47718600Y-138432000D02*
X47718600Y-139698000D01*
X47758600Y-138663000D02*
X47758600Y-139467000D01*
X47787600Y-139065000D02*
G75*
G03*
X47787600Y-139065000I-3270000J0D01*
G01*
%TO.C,C3*%
X119300000Y-24665000D02*
X119300000Y-24980000D01*
X119300000Y-24665000D02*
X124540000Y-24665000D01*
X119300000Y-27090000D02*
X119300000Y-27405000D01*
X119300000Y-27405000D02*
X124540000Y-27405000D01*
X124540000Y-24665000D02*
X124540000Y-24980000D01*
X124540000Y-27090000D02*
X124540000Y-27405000D01*
%TO.C,U21*%
X189120000Y-112970000D02*
X189120000Y-138490000D01*
X189120000Y-138490000D02*
X194420000Y-138490000D01*
X190770000Y-112970000D02*
X189120000Y-112970000D01*
X194420000Y-112970000D02*
X192770000Y-112970000D01*
X194420000Y-138490000D02*
X194420000Y-112970000D01*
X190770000Y-112970000D02*
G75*
G03*
X192770000Y-112970000I1000000J0D01*
G01*
%TO.C,U16*%
X97045000Y-112970000D02*
X97045000Y-133410000D01*
X97045000Y-133410000D02*
X102345000Y-133410000D01*
X98695000Y-112970000D02*
X97045000Y-112970000D01*
X102345000Y-112970000D02*
X100695000Y-112970000D01*
X102345000Y-133410000D02*
X102345000Y-112970000D01*
X98695000Y-112970000D02*
G75*
G03*
X100695000Y-112970000I1000000J0D01*
G01*
%TO.C,C9*%
X157520000Y-75030000D02*
X157520000Y-74715000D01*
X157520000Y-75030000D02*
X152280000Y-75030000D01*
X157520000Y-72605000D02*
X157520000Y-72290000D01*
X157520000Y-72290000D02*
X152280000Y-72290000D01*
X152280000Y-75030000D02*
X152280000Y-74715000D01*
X152280000Y-72605000D02*
X152280000Y-72290000D01*
%TO.C,U4*%
X152285000Y-27890000D02*
X152285000Y-63570000D01*
X152285000Y-63570000D02*
X165205000Y-63570000D01*
X157745000Y-27890000D02*
X152285000Y-27890000D01*
X165205000Y-27890000D02*
X159745000Y-27890000D01*
X165205000Y-63570000D02*
X165205000Y-27890000D01*
X157745000Y-27890000D02*
G75*
G03*
X159745000Y-27890000I1000000J0D01*
G01*
%TO.C,R3*%
X142340000Y-29750000D02*
X142340000Y-36290000D01*
X142010000Y-29750000D02*
X142340000Y-29750000D01*
X139930000Y-29750000D02*
X139600000Y-29750000D01*
X139600000Y-29750000D02*
X139600000Y-36290000D01*
X142340000Y-36290000D02*
X142010000Y-36290000D01*
X139600000Y-36290000D02*
X139930000Y-36290000D01*
%TO.C,U26*%
X170705000Y-112970000D02*
X170705000Y-130870000D01*
X170705000Y-130870000D02*
X176005000Y-130870000D01*
X172355000Y-112970000D02*
X170705000Y-112970000D01*
X176005000Y-112970000D02*
X174355000Y-112970000D01*
X176005000Y-130870000D02*
X176005000Y-112970000D01*
X172355000Y-112970000D02*
G75*
G03*
X174355000Y-112970000I1000000J0D01*
G01*
%TO.C,R4*%
X179170000Y-29750000D02*
X179170000Y-36290000D01*
X178840000Y-29750000D02*
X179170000Y-29750000D01*
X176760000Y-29750000D02*
X176430000Y-29750000D01*
X176430000Y-29750000D02*
X176430000Y-36290000D01*
X179170000Y-36290000D02*
X178840000Y-36290000D01*
X176430000Y-36290000D02*
X176760000Y-36290000D01*
%TO.C,C20*%
X212805000Y-112495000D02*
X212805000Y-112180000D01*
X212805000Y-112495000D02*
X207565000Y-112495000D01*
X212805000Y-110070000D02*
X212805000Y-109755000D01*
X212805000Y-109755000D02*
X207565000Y-109755000D01*
X207565000Y-112495000D02*
X207565000Y-112180000D01*
X207565000Y-110070000D02*
X207565000Y-109755000D01*
%TO.C,U8*%
X115460000Y-75505000D02*
X115460000Y-101025000D01*
X115460000Y-101025000D02*
X120760000Y-101025000D01*
X117110000Y-75505000D02*
X115460000Y-75505000D01*
X120760000Y-75505000D02*
X119110000Y-75505000D01*
X120760000Y-101025000D02*
X120760000Y-75505000D01*
X117110000Y-75505000D02*
G75*
G03*
X119110000Y-75505000I1000000J0D01*
G01*
%TO.C,C11*%
X65485000Y-75030000D02*
X65485000Y-74715000D01*
X65485000Y-75030000D02*
X60245000Y-75030000D01*
X65485000Y-72605000D02*
X65485000Y-72290000D01*
X65485000Y-72290000D02*
X60245000Y-72290000D01*
X60245000Y-75030000D02*
X60245000Y-74715000D01*
X60245000Y-72605000D02*
X60245000Y-72290000D01*
%TD*%
M02*
