%TF.GenerationSoftware,KiCad,Pcbnew,7.0.7*%
%TF.CreationDate,2026-08-17T21:35:39-05:00*%
%TF.ProjectId,Control,436f6e74-726f-46c2-9e6b-696361645f70,rev?*%
%TF.SameCoordinates,Original*%
%TF.FileFunction,Drillmap*%
%TF.FilePolarity,Positive*%
%FSLAX45Y45*%
G04 Gerber Fmt 4.5, Leading zero omitted, Abs format (unit mm)*
G04 Created by KiCad (PCBNEW 7.0.7) date 2026-08-17 21:35:39*
%MOMM*%
%LPD*%
G01*
G04 APERTURE LIST*
%ADD10C,0.100000*%
%ADD11C,0.200000*%
%ADD12C,0.040000*%
%ADD13C,0.080000*%
G04 APERTURE END LIST*
D10*
X3556000Y-1778000D02*
X24193500Y-1778000D01*
X24193500Y-15532100D01*
X3556000Y-15532100D01*
X3556000Y-1778000D01*
D11*
D12*
X5564420Y-10567010D02*
X5604420Y-10607010D01*
X5604420Y-10567010D02*
X5564420Y-10607010D01*
X5642100Y-10814800D02*
X5682100Y-10854800D01*
X5682100Y-10814800D02*
X5642100Y-10854800D01*
X5695150Y-7560230D02*
X5735150Y-7600230D01*
X5735150Y-7560230D02*
X5695150Y-7600230D01*
X5962720Y-10735980D02*
X6002720Y-10775980D01*
X6002720Y-10735980D02*
X5962720Y-10775980D01*
X5966160Y-10480230D02*
X6006160Y-10520230D01*
X6006160Y-10480230D02*
X5966160Y-10520230D01*
X6237200Y-5183210D02*
X6277200Y-5223210D01*
X6277200Y-5183210D02*
X6237200Y-5223210D01*
X6764690Y-12788200D02*
X6804690Y-12828200D01*
X6804690Y-12788200D02*
X6764690Y-12828200D01*
X6876240Y-10464970D02*
X6916240Y-10504970D01*
X6916240Y-10464970D02*
X6876240Y-10504970D01*
X7267810Y-13307480D02*
X7307810Y-13347480D01*
X7307810Y-13307480D02*
X7267810Y-13347480D01*
X7286570Y-10413880D02*
X7326570Y-10453880D01*
X7326570Y-10413880D02*
X7286570Y-10453880D01*
X7442410Y-10575270D02*
X7482410Y-10615270D01*
X7482410Y-10575270D02*
X7442410Y-10615270D01*
X7542820Y-7998420D02*
X7582820Y-8038420D01*
X7582820Y-7998420D02*
X7542820Y-8038420D01*
X7779730Y-10570930D02*
X7819730Y-10610930D01*
X7819730Y-10570930D02*
X7779730Y-10610930D01*
X8091640Y-10033240D02*
X8131640Y-10073240D01*
X8131640Y-10033240D02*
X8091640Y-10073240D01*
X8193220Y-10414790D02*
X8233220Y-10454790D01*
X8233220Y-10414790D02*
X8193220Y-10454790D01*
X8455540Y-7039980D02*
X8495540Y-7079980D01*
X8495540Y-7039980D02*
X8455540Y-7079980D01*
X8702190Y-2769750D02*
X8742190Y-2809750D01*
X8742190Y-2769750D02*
X8702190Y-2809750D01*
X9169800Y-9964390D02*
X9209800Y-10004390D01*
X9209800Y-9964390D02*
X9169800Y-10004390D01*
X9191050Y-8538030D02*
X9231050Y-8578030D01*
X9231050Y-8538030D02*
X9191050Y-8578030D01*
X9237130Y-9890250D02*
X9277130Y-9930250D01*
X9277130Y-9890250D02*
X9237130Y-9930250D01*
X9266050Y-9019080D02*
X9306050Y-9059080D01*
X9306050Y-9019080D02*
X9266050Y-9059080D01*
X9286270Y-8158090D02*
X9326270Y-8198090D01*
X9326270Y-8158090D02*
X9286270Y-8198090D01*
X9393600Y-12592930D02*
X9433600Y-12632930D01*
X9433600Y-12592930D02*
X9393600Y-12632930D01*
X9423780Y-10900770D02*
X9463780Y-10940770D01*
X9463780Y-10900770D02*
X9423780Y-10940770D01*
X9785060Y-8990470D02*
X9825060Y-9030470D01*
X9825060Y-8990470D02*
X9785060Y-9030470D01*
X9965120Y-7340330D02*
X10005120Y-7380330D01*
X10005120Y-7340330D02*
X9965120Y-7380330D01*
X10175310Y-10453540D02*
X10215310Y-10493540D01*
X10215310Y-10453540D02*
X10175310Y-10493540D01*
X10403630Y-14186990D02*
X10443630Y-14226990D01*
X10443630Y-14186990D02*
X10403630Y-14226990D01*
X10487940Y-10505680D02*
X10527940Y-10545680D01*
X10527940Y-10505680D02*
X10487940Y-10545680D01*
X10704490Y-14578470D02*
X10744490Y-14618470D01*
X10744490Y-14578470D02*
X10704490Y-14618470D01*
X11144520Y-13030050D02*
X11184520Y-13070050D01*
X11184520Y-13030050D02*
X11144520Y-13070050D01*
X11156350Y-7029980D02*
X11196350Y-7069980D01*
X11196350Y-7029980D02*
X11156350Y-7069980D01*
X11238400Y-10934150D02*
X11278400Y-10974150D01*
X11278400Y-10934150D02*
X11238400Y-10974150D01*
X11746680Y-12660800D02*
X11786680Y-12700800D01*
X11786680Y-12660800D02*
X11746680Y-12700800D01*
X11990030Y-9626800D02*
X12030030Y-9666800D01*
X12030030Y-9626800D02*
X11990030Y-9666800D01*
X12218540Y-14879580D02*
X12258540Y-14919580D01*
X12258540Y-14879580D02*
X12218540Y-14919580D01*
X12692180Y-13260490D02*
X12732180Y-13300490D01*
X12732180Y-13260490D02*
X12692180Y-13300490D01*
X12808900Y-10784450D02*
X12848900Y-10824450D01*
X12848900Y-10784450D02*
X12808900Y-10824450D01*
X12868400Y-12981310D02*
X12908400Y-13021310D01*
X12908400Y-12981310D02*
X12868400Y-13021310D01*
X12899270Y-15034980D02*
X12939270Y-15074980D01*
X12939270Y-15034980D02*
X12899270Y-15074980D01*
X13011770Y-10594910D02*
X13051770Y-10634910D01*
X13051770Y-10594910D02*
X13011770Y-10634910D01*
X13050520Y-14863840D02*
X13090520Y-14903840D01*
X13090520Y-14863840D02*
X13050520Y-14903840D01*
X13077770Y-9982000D02*
X13117770Y-10022000D01*
X13117770Y-9982000D02*
X13077770Y-10022000D01*
X13080980Y-10668400D02*
X13120980Y-10708400D01*
X13120980Y-10668400D02*
X13080980Y-10708400D01*
X13365240Y-14995040D02*
X13405240Y-15035040D01*
X13405240Y-14995040D02*
X13365240Y-15035040D01*
X13390620Y-8810890D02*
X13430620Y-8850890D01*
X13430620Y-8810890D02*
X13390620Y-8850890D01*
X13525600Y-14306230D02*
X13565600Y-14346230D01*
X13565600Y-14306230D02*
X13525600Y-14346230D01*
X13601250Y-10185170D02*
X13641250Y-10225170D01*
X13641250Y-10185170D02*
X13601250Y-10225170D01*
X13650990Y-15006630D02*
X13690990Y-15046630D01*
X13690990Y-15006630D02*
X13650990Y-15046630D01*
X13742830Y-10839810D02*
X13782830Y-10879810D01*
X13782830Y-10839810D02*
X13742830Y-10879810D01*
X13875700Y-10497020D02*
X13915700Y-10537020D01*
X13915700Y-10497020D02*
X13875700Y-10537020D01*
X13880040Y-10642090D02*
X13920040Y-10682090D01*
X13920040Y-10642090D02*
X13880040Y-10682090D01*
X14198740Y-8472800D02*
X14238740Y-8512800D01*
X14238740Y-8472800D02*
X14198740Y-8512800D01*
X14267400Y-10962340D02*
X14307400Y-11002340D01*
X14307400Y-10962340D02*
X14267400Y-11002340D01*
X14454500Y-10102900D02*
X14494500Y-10142900D01*
X14494500Y-10102900D02*
X14454500Y-10142900D01*
X14800580Y-10519270D02*
X14840580Y-10559270D01*
X14840580Y-10519270D02*
X14800580Y-10559270D01*
X14810260Y-10131520D02*
X14850260Y-10171520D01*
X14850260Y-10131520D02*
X14810260Y-10171520D01*
X15239310Y-8809300D02*
X15279310Y-8849300D01*
X15279310Y-8809300D02*
X15239310Y-8849300D01*
X16465850Y-11262280D02*
X16505850Y-11302280D01*
X16505850Y-11262280D02*
X16465850Y-11302280D01*
X17099590Y-12328960D02*
X17139590Y-12368960D01*
X17139590Y-12328960D02*
X17099590Y-12368960D01*
X17205960Y-9860830D02*
X17245960Y-9900830D01*
X17245960Y-9860830D02*
X17205960Y-9900830D01*
X17355070Y-8054400D02*
X17395070Y-8094400D01*
X17395070Y-8054400D02*
X17355070Y-8094400D01*
X17625340Y-14465450D02*
X17665340Y-14505450D01*
X17665340Y-14465450D02*
X17625340Y-14505450D01*
X18006110Y-10527070D02*
X18046110Y-10567070D01*
X18046110Y-10527070D02*
X18006110Y-10567070D01*
X18035110Y-9437480D02*
X18075110Y-9477480D01*
X18075110Y-9437480D02*
X18035110Y-9477480D01*
X18124810Y-10370700D02*
X18164810Y-10410700D01*
X18164810Y-10370700D02*
X18124810Y-10410700D01*
X18513570Y-3833660D02*
X18553570Y-3873660D01*
X18553570Y-3833660D02*
X18513570Y-3873660D01*
X19215670Y-9881870D02*
X19255670Y-9921870D01*
X19255670Y-9881870D02*
X19215670Y-9921870D01*
X19312190Y-9977930D02*
X19352190Y-10017930D01*
X19352190Y-9977930D02*
X19312190Y-10017930D01*
X19770070Y-11227320D02*
X19810070Y-11267320D01*
X19810070Y-11227320D02*
X19770070Y-11267320D01*
X19894840Y-10453600D02*
X19934840Y-10493600D01*
X19934840Y-10453600D02*
X19894840Y-10493600D01*
X19979840Y-13374790D02*
X20019840Y-13414790D01*
X20019840Y-13374790D02*
X19979840Y-13414790D01*
X19987010Y-10950760D02*
X20027010Y-10990760D01*
X20027010Y-10950760D02*
X19987010Y-10990760D01*
X20482610Y-10747890D02*
X20522610Y-10787890D01*
X20522610Y-10747890D02*
X20482610Y-10787890D01*
X20608210Y-14284280D02*
X20648210Y-14324280D01*
X20648210Y-14284280D02*
X20608210Y-14324280D01*
X20791110Y-14175900D02*
X20831110Y-14215900D01*
X20831110Y-14175900D02*
X20791110Y-14215900D01*
X20879930Y-13979170D02*
X20919930Y-14019170D01*
X20919930Y-13979170D02*
X20879930Y-14019170D01*
X21125720Y-8679030D02*
X21165720Y-8719030D01*
X21165720Y-8679030D02*
X21125720Y-8719030D01*
X21385230Y-10702760D02*
X21425230Y-10742760D01*
X21425230Y-10702760D02*
X21385230Y-10742760D01*
D13*
X4104000Y-2921000D02*
G75*
G03*
X4104000Y-2921000I-40000J0D01*
G01*
X4104000Y-3175000D02*
G75*
G03*
X4104000Y-3175000I-40000J0D01*
G01*
X4104000Y-3429000D02*
G75*
G03*
X4104000Y-3429000I-40000J0D01*
G01*
X4104000Y-3683000D02*
G75*
G03*
X4104000Y-3683000I-40000J0D01*
G01*
X4104000Y-3937000D02*
G75*
G03*
X4104000Y-3937000I-40000J0D01*
G01*
X4104000Y-4191000D02*
G75*
G03*
X4104000Y-4191000I-40000J0D01*
G01*
X4104000Y-4445000D02*
G75*
G03*
X4104000Y-4445000I-40000J0D01*
G01*
X4104000Y-4699000D02*
G75*
G03*
X4104000Y-4699000I-40000J0D01*
G01*
X4104000Y-4953000D02*
G75*
G03*
X4104000Y-4953000I-40000J0D01*
G01*
X4104000Y-5207000D02*
G75*
G03*
X4104000Y-5207000I-40000J0D01*
G01*
X4104000Y-5461000D02*
G75*
G03*
X4104000Y-5461000I-40000J0D01*
G01*
X4104000Y-5715000D02*
G75*
G03*
X4104000Y-5715000I-40000J0D01*
G01*
X4104000Y-5969000D02*
G75*
G03*
X4104000Y-5969000I-40000J0D01*
G01*
X4104000Y-6223000D02*
G75*
G03*
X4104000Y-6223000I-40000J0D01*
G01*
X4104000Y-11430000D02*
G75*
G03*
X4104000Y-11430000I-40000J0D01*
G01*
X4104000Y-11684000D02*
G75*
G03*
X4104000Y-11684000I-40000J0D01*
G01*
X4104000Y-11938000D02*
G75*
G03*
X4104000Y-11938000I-40000J0D01*
G01*
X4104000Y-12192000D02*
G75*
G03*
X4104000Y-12192000I-40000J0D01*
G01*
X4104000Y-12446000D02*
G75*
G03*
X4104000Y-12446000I-40000J0D01*
G01*
X4104000Y-12700000D02*
G75*
G03*
X4104000Y-12700000I-40000J0D01*
G01*
X4104000Y-12954000D02*
G75*
G03*
X4104000Y-12954000I-40000J0D01*
G01*
X4105000Y-7684000D02*
G75*
G03*
X4105000Y-7684000I-40000J0D01*
G01*
X4105000Y-7938000D02*
G75*
G03*
X4105000Y-7938000I-40000J0D01*
G01*
X4105000Y-8192000D02*
G75*
G03*
X4105000Y-8192000I-40000J0D01*
G01*
X4105000Y-8446000D02*
G75*
G03*
X4105000Y-8446000I-40000J0D01*
G01*
X4105000Y-8700000D02*
G75*
G03*
X4105000Y-8700000I-40000J0D01*
G01*
X4105000Y-8954000D02*
G75*
G03*
X4105000Y-8954000I-40000J0D01*
G01*
X4105000Y-9208000D02*
G75*
G03*
X4105000Y-9208000I-40000J0D01*
G01*
X4105000Y-9462000D02*
G75*
G03*
X4105000Y-9462000I-40000J0D01*
G01*
X4105000Y-9716000D02*
G75*
G03*
X4105000Y-9716000I-40000J0D01*
G01*
X4105000Y-9970000D02*
G75*
G03*
X4105000Y-9970000I-40000J0D01*
G01*
X4231000Y-11112500D02*
G75*
G03*
X4231000Y-11112500I-40000J0D01*
G01*
X4239000Y-7366000D02*
G75*
G03*
X4239000Y-7366000I-40000J0D01*
G01*
X4366760Y-13906500D02*
G75*
G03*
X4366760Y-13906500I-40000J0D01*
G01*
X4616000Y-2603500D02*
G75*
G03*
X4616000Y-2603500I-40000J0D01*
G01*
X4616760Y-13906500D02*
G75*
G03*
X4616760Y-13906500I-40000J0D01*
G01*
X4731000Y-11112500D02*
G75*
G03*
X4731000Y-11112500I-40000J0D01*
G01*
X4739000Y-7366000D02*
G75*
G03*
X4739000Y-7366000I-40000J0D01*
G01*
X4866000Y-11430000D02*
G75*
G03*
X4866000Y-11430000I-40000J0D01*
G01*
X4866000Y-11684000D02*
G75*
G03*
X4866000Y-11684000I-40000J0D01*
G01*
X4866000Y-11938000D02*
G75*
G03*
X4866000Y-11938000I-40000J0D01*
G01*
X4866000Y-12192000D02*
G75*
G03*
X4866000Y-12192000I-40000J0D01*
G01*
X4866000Y-12446000D02*
G75*
G03*
X4866000Y-12446000I-40000J0D01*
G01*
X4866000Y-12700000D02*
G75*
G03*
X4866000Y-12700000I-40000J0D01*
G01*
X4866000Y-12954000D02*
G75*
G03*
X4866000Y-12954000I-40000J0D01*
G01*
X4867000Y-7684000D02*
G75*
G03*
X4867000Y-7684000I-40000J0D01*
G01*
X4867000Y-7938000D02*
G75*
G03*
X4867000Y-7938000I-40000J0D01*
G01*
X4867000Y-8192000D02*
G75*
G03*
X4867000Y-8192000I-40000J0D01*
G01*
X4867000Y-8446000D02*
G75*
G03*
X4867000Y-8446000I-40000J0D01*
G01*
X4867000Y-8700000D02*
G75*
G03*
X4867000Y-8700000I-40000J0D01*
G01*
X4867000Y-8954000D02*
G75*
G03*
X4867000Y-8954000I-40000J0D01*
G01*
X4867000Y-9208000D02*
G75*
G03*
X4867000Y-9208000I-40000J0D01*
G01*
X4867000Y-9462000D02*
G75*
G03*
X4867000Y-9462000I-40000J0D01*
G01*
X4867000Y-9716000D02*
G75*
G03*
X4867000Y-9716000I-40000J0D01*
G01*
X4867000Y-9970000D02*
G75*
G03*
X4867000Y-9970000I-40000J0D01*
G01*
X5116000Y-2603500D02*
G75*
G03*
X5116000Y-2603500I-40000J0D01*
G01*
X5628000Y-2921000D02*
G75*
G03*
X5628000Y-2921000I-40000J0D01*
G01*
X5628000Y-3175000D02*
G75*
G03*
X5628000Y-3175000I-40000J0D01*
G01*
X5628000Y-3429000D02*
G75*
G03*
X5628000Y-3429000I-40000J0D01*
G01*
X5628000Y-3683000D02*
G75*
G03*
X5628000Y-3683000I-40000J0D01*
G01*
X5628000Y-3937000D02*
G75*
G03*
X5628000Y-3937000I-40000J0D01*
G01*
X5628000Y-4191000D02*
G75*
G03*
X5628000Y-4191000I-40000J0D01*
G01*
X5628000Y-4445000D02*
G75*
G03*
X5628000Y-4445000I-40000J0D01*
G01*
X5628000Y-4699000D02*
G75*
G03*
X5628000Y-4699000I-40000J0D01*
G01*
X5628000Y-4953000D02*
G75*
G03*
X5628000Y-4953000I-40000J0D01*
G01*
X5628000Y-5207000D02*
G75*
G03*
X5628000Y-5207000I-40000J0D01*
G01*
X5628000Y-5461000D02*
G75*
G03*
X5628000Y-5461000I-40000J0D01*
G01*
X5628000Y-5715000D02*
G75*
G03*
X5628000Y-5715000I-40000J0D01*
G01*
X5628000Y-5969000D02*
G75*
G03*
X5628000Y-5969000I-40000J0D01*
G01*
X5628000Y-6223000D02*
G75*
G03*
X5628000Y-6223000I-40000J0D01*
G01*
X5945500Y-7683500D02*
G75*
G03*
X5945500Y-7683500I-40000J0D01*
G01*
X5945500Y-7937500D02*
G75*
G03*
X5945500Y-7937500I-40000J0D01*
G01*
X5945500Y-8191500D02*
G75*
G03*
X5945500Y-8191500I-40000J0D01*
G01*
X5945500Y-8445500D02*
G75*
G03*
X5945500Y-8445500I-40000J0D01*
G01*
X5945500Y-8699500D02*
G75*
G03*
X5945500Y-8699500I-40000J0D01*
G01*
X5945500Y-8953500D02*
G75*
G03*
X5945500Y-8953500I-40000J0D01*
G01*
X5945500Y-9207500D02*
G75*
G03*
X5945500Y-9207500I-40000J0D01*
G01*
X5945500Y-9461500D02*
G75*
G03*
X5945500Y-9461500I-40000J0D01*
G01*
X5945500Y-11430000D02*
G75*
G03*
X5945500Y-11430000I-40000J0D01*
G01*
X5945500Y-11684000D02*
G75*
G03*
X5945500Y-11684000I-40000J0D01*
G01*
X5945500Y-11938000D02*
G75*
G03*
X5945500Y-11938000I-40000J0D01*
G01*
X5945500Y-12192000D02*
G75*
G03*
X5945500Y-12192000I-40000J0D01*
G01*
X5945500Y-12446000D02*
G75*
G03*
X5945500Y-12446000I-40000J0D01*
G01*
X5945500Y-12700000D02*
G75*
G03*
X5945500Y-12700000I-40000J0D01*
G01*
X5945500Y-12954000D02*
G75*
G03*
X5945500Y-12954000I-40000J0D01*
G01*
X6076500Y-7366000D02*
G75*
G03*
X6076500Y-7366000I-40000J0D01*
G01*
X6076500Y-11112500D02*
G75*
G03*
X6076500Y-11112500I-40000J0D01*
G01*
X6576500Y-7366000D02*
G75*
G03*
X6576500Y-7366000I-40000J0D01*
G01*
X6576500Y-11112500D02*
G75*
G03*
X6576500Y-11112500I-40000J0D01*
G01*
X6707500Y-7683500D02*
G75*
G03*
X6707500Y-7683500I-40000J0D01*
G01*
X6707500Y-7937500D02*
G75*
G03*
X6707500Y-7937500I-40000J0D01*
G01*
X6707500Y-8191500D02*
G75*
G03*
X6707500Y-8191500I-40000J0D01*
G01*
X6707500Y-8445500D02*
G75*
G03*
X6707500Y-8445500I-40000J0D01*
G01*
X6707500Y-8699500D02*
G75*
G03*
X6707500Y-8699500I-40000J0D01*
G01*
X6707500Y-8953500D02*
G75*
G03*
X6707500Y-8953500I-40000J0D01*
G01*
X6707500Y-9207500D02*
G75*
G03*
X6707500Y-9207500I-40000J0D01*
G01*
X6707500Y-9461500D02*
G75*
G03*
X6707500Y-9461500I-40000J0D01*
G01*
X6707500Y-11430000D02*
G75*
G03*
X6707500Y-11430000I-40000J0D01*
G01*
X6707500Y-11684000D02*
G75*
G03*
X6707500Y-11684000I-40000J0D01*
G01*
X6707500Y-11938000D02*
G75*
G03*
X6707500Y-11938000I-40000J0D01*
G01*
X6707500Y-12192000D02*
G75*
G03*
X6707500Y-12192000I-40000J0D01*
G01*
X6707500Y-12446000D02*
G75*
G03*
X6707500Y-12446000I-40000J0D01*
G01*
X6707500Y-12700000D02*
G75*
G03*
X6707500Y-12700000I-40000J0D01*
G01*
X6707500Y-12954000D02*
G75*
G03*
X6707500Y-12954000I-40000J0D01*
G01*
X6771000Y-2921000D02*
G75*
G03*
X6771000Y-2921000I-40000J0D01*
G01*
X6771000Y-3683000D02*
G75*
G03*
X6771000Y-3683000I-40000J0D01*
G01*
X7025000Y-11430000D02*
G75*
G03*
X7025000Y-11430000I-40000J0D01*
G01*
X7025000Y-12192000D02*
G75*
G03*
X7025000Y-12192000I-40000J0D01*
G01*
X7787000Y-2921000D02*
G75*
G03*
X7787000Y-2921000I-40000J0D01*
G01*
X7787000Y-3175000D02*
G75*
G03*
X7787000Y-3175000I-40000J0D01*
G01*
X7787000Y-3429000D02*
G75*
G03*
X7787000Y-3429000I-40000J0D01*
G01*
X7787000Y-3683000D02*
G75*
G03*
X7787000Y-3683000I-40000J0D01*
G01*
X7787000Y-3937000D02*
G75*
G03*
X7787000Y-3937000I-40000J0D01*
G01*
X7787000Y-4191000D02*
G75*
G03*
X7787000Y-4191000I-40000J0D01*
G01*
X7787000Y-4445000D02*
G75*
G03*
X7787000Y-4445000I-40000J0D01*
G01*
X7787000Y-4699000D02*
G75*
G03*
X7787000Y-4699000I-40000J0D01*
G01*
X7787000Y-4953000D02*
G75*
G03*
X7787000Y-4953000I-40000J0D01*
G01*
X7787000Y-5207000D02*
G75*
G03*
X7787000Y-5207000I-40000J0D01*
G01*
X7787000Y-5461000D02*
G75*
G03*
X7787000Y-5461000I-40000J0D01*
G01*
X7787000Y-5715000D02*
G75*
G03*
X7787000Y-5715000I-40000J0D01*
G01*
X7787000Y-5969000D02*
G75*
G03*
X7787000Y-5969000I-40000J0D01*
G01*
X7787000Y-6223000D02*
G75*
G03*
X7787000Y-6223000I-40000J0D01*
G01*
X7787000Y-7683500D02*
G75*
G03*
X7787000Y-7683500I-40000J0D01*
G01*
X7787000Y-7937500D02*
G75*
G03*
X7787000Y-7937500I-40000J0D01*
G01*
X7787000Y-8191500D02*
G75*
G03*
X7787000Y-8191500I-40000J0D01*
G01*
X7787000Y-8445500D02*
G75*
G03*
X7787000Y-8445500I-40000J0D01*
G01*
X7787000Y-8699500D02*
G75*
G03*
X7787000Y-8699500I-40000J0D01*
G01*
X7787000Y-8953500D02*
G75*
G03*
X7787000Y-8953500I-40000J0D01*
G01*
X7787000Y-9207500D02*
G75*
G03*
X7787000Y-9207500I-40000J0D01*
G01*
X7787000Y-9461500D02*
G75*
G03*
X7787000Y-9461500I-40000J0D01*
G01*
X7787000Y-9715500D02*
G75*
G03*
X7787000Y-9715500I-40000J0D01*
G01*
X7787000Y-9969500D02*
G75*
G03*
X7787000Y-9969500I-40000J0D01*
G01*
X7787000Y-11430000D02*
G75*
G03*
X7787000Y-11430000I-40000J0D01*
G01*
X7787000Y-11684000D02*
G75*
G03*
X7787000Y-11684000I-40000J0D01*
G01*
X7787000Y-11938000D02*
G75*
G03*
X7787000Y-11938000I-40000J0D01*
G01*
X7787000Y-12192000D02*
G75*
G03*
X7787000Y-12192000I-40000J0D01*
G01*
X7787000Y-12446000D02*
G75*
G03*
X7787000Y-12446000I-40000J0D01*
G01*
X7787000Y-12700000D02*
G75*
G03*
X7787000Y-12700000I-40000J0D01*
G01*
X7787000Y-12954000D02*
G75*
G03*
X7787000Y-12954000I-40000J0D01*
G01*
X7787000Y-13208000D02*
G75*
G03*
X7787000Y-13208000I-40000J0D01*
G01*
X7914000Y-11112500D02*
G75*
G03*
X7914000Y-11112500I-40000J0D01*
G01*
X7918000Y-7366000D02*
G75*
G03*
X7918000Y-7366000I-40000J0D01*
G01*
X8299000Y-2603500D02*
G75*
G03*
X8299000Y-2603500I-40000J0D01*
G01*
X8414000Y-11112500D02*
G75*
G03*
X8414000Y-11112500I-40000J0D01*
G01*
X8418000Y-7366000D02*
G75*
G03*
X8418000Y-7366000I-40000J0D01*
G01*
X8549000Y-7683500D02*
G75*
G03*
X8549000Y-7683500I-40000J0D01*
G01*
X8549000Y-7937500D02*
G75*
G03*
X8549000Y-7937500I-40000J0D01*
G01*
X8549000Y-8191500D02*
G75*
G03*
X8549000Y-8191500I-40000J0D01*
G01*
X8549000Y-8445500D02*
G75*
G03*
X8549000Y-8445500I-40000J0D01*
G01*
X8549000Y-8699500D02*
G75*
G03*
X8549000Y-8699500I-40000J0D01*
G01*
X8549000Y-8953500D02*
G75*
G03*
X8549000Y-8953500I-40000J0D01*
G01*
X8549000Y-9207500D02*
G75*
G03*
X8549000Y-9207500I-40000J0D01*
G01*
X8549000Y-9461500D02*
G75*
G03*
X8549000Y-9461500I-40000J0D01*
G01*
X8549000Y-9715500D02*
G75*
G03*
X8549000Y-9715500I-40000J0D01*
G01*
X8549000Y-9969500D02*
G75*
G03*
X8549000Y-9969500I-40000J0D01*
G01*
X8549000Y-11430000D02*
G75*
G03*
X8549000Y-11430000I-40000J0D01*
G01*
X8549000Y-11684000D02*
G75*
G03*
X8549000Y-11684000I-40000J0D01*
G01*
X8549000Y-11938000D02*
G75*
G03*
X8549000Y-11938000I-40000J0D01*
G01*
X8549000Y-12192000D02*
G75*
G03*
X8549000Y-12192000I-40000J0D01*
G01*
X8549000Y-12446000D02*
G75*
G03*
X8549000Y-12446000I-40000J0D01*
G01*
X8549000Y-12700000D02*
G75*
G03*
X8549000Y-12700000I-40000J0D01*
G01*
X8549000Y-12954000D02*
G75*
G03*
X8549000Y-12954000I-40000J0D01*
G01*
X8549000Y-13208000D02*
G75*
G03*
X8549000Y-13208000I-40000J0D01*
G01*
X8799000Y-2603500D02*
G75*
G03*
X8799000Y-2603500I-40000J0D01*
G01*
X9311000Y-2921000D02*
G75*
G03*
X9311000Y-2921000I-40000J0D01*
G01*
X9311000Y-3175000D02*
G75*
G03*
X9311000Y-3175000I-40000J0D01*
G01*
X9311000Y-3429000D02*
G75*
G03*
X9311000Y-3429000I-40000J0D01*
G01*
X9311000Y-3683000D02*
G75*
G03*
X9311000Y-3683000I-40000J0D01*
G01*
X9311000Y-3937000D02*
G75*
G03*
X9311000Y-3937000I-40000J0D01*
G01*
X9311000Y-4191000D02*
G75*
G03*
X9311000Y-4191000I-40000J0D01*
G01*
X9311000Y-4445000D02*
G75*
G03*
X9311000Y-4445000I-40000J0D01*
G01*
X9311000Y-4699000D02*
G75*
G03*
X9311000Y-4699000I-40000J0D01*
G01*
X9311000Y-4953000D02*
G75*
G03*
X9311000Y-4953000I-40000J0D01*
G01*
X9311000Y-5207000D02*
G75*
G03*
X9311000Y-5207000I-40000J0D01*
G01*
X9311000Y-5461000D02*
G75*
G03*
X9311000Y-5461000I-40000J0D01*
G01*
X9311000Y-5715000D02*
G75*
G03*
X9311000Y-5715000I-40000J0D01*
G01*
X9311000Y-5969000D02*
G75*
G03*
X9311000Y-5969000I-40000J0D01*
G01*
X9311000Y-6223000D02*
G75*
G03*
X9311000Y-6223000I-40000J0D01*
G01*
X9628500Y-7683500D02*
G75*
G03*
X9628500Y-7683500I-40000J0D01*
G01*
X9628500Y-7937500D02*
G75*
G03*
X9628500Y-7937500I-40000J0D01*
G01*
X9628500Y-8191500D02*
G75*
G03*
X9628500Y-8191500I-40000J0D01*
G01*
X9628500Y-8445500D02*
G75*
G03*
X9628500Y-8445500I-40000J0D01*
G01*
X9628500Y-8699500D02*
G75*
G03*
X9628500Y-8699500I-40000J0D01*
G01*
X9628500Y-8953500D02*
G75*
G03*
X9628500Y-8953500I-40000J0D01*
G01*
X9628500Y-9207500D02*
G75*
G03*
X9628500Y-9207500I-40000J0D01*
G01*
X9628500Y-9461500D02*
G75*
G03*
X9628500Y-9461500I-40000J0D01*
G01*
X9628500Y-11430000D02*
G75*
G03*
X9628500Y-11430000I-40000J0D01*
G01*
X9628500Y-11684000D02*
G75*
G03*
X9628500Y-11684000I-40000J0D01*
G01*
X9628500Y-11938000D02*
G75*
G03*
X9628500Y-11938000I-40000J0D01*
G01*
X9628500Y-12192000D02*
G75*
G03*
X9628500Y-12192000I-40000J0D01*
G01*
X9628500Y-12446000D02*
G75*
G03*
X9628500Y-12446000I-40000J0D01*
G01*
X9628500Y-12700000D02*
G75*
G03*
X9628500Y-12700000I-40000J0D01*
G01*
X9628500Y-12954000D02*
G75*
G03*
X9628500Y-12954000I-40000J0D01*
G01*
X9628500Y-13208000D02*
G75*
G03*
X9628500Y-13208000I-40000J0D01*
G01*
X9755500Y-7366000D02*
G75*
G03*
X9755500Y-7366000I-40000J0D01*
G01*
X9755500Y-11112500D02*
G75*
G03*
X9755500Y-11112500I-40000J0D01*
G01*
X10255500Y-7366000D02*
G75*
G03*
X10255500Y-7366000I-40000J0D01*
G01*
X10255500Y-11112500D02*
G75*
G03*
X10255500Y-11112500I-40000J0D01*
G01*
X10390500Y-7683500D02*
G75*
G03*
X10390500Y-7683500I-40000J0D01*
G01*
X10390500Y-7937500D02*
G75*
G03*
X10390500Y-7937500I-40000J0D01*
G01*
X10390500Y-8191500D02*
G75*
G03*
X10390500Y-8191500I-40000J0D01*
G01*
X10390500Y-8445500D02*
G75*
G03*
X10390500Y-8445500I-40000J0D01*
G01*
X10390500Y-8699500D02*
G75*
G03*
X10390500Y-8699500I-40000J0D01*
G01*
X10390500Y-8953500D02*
G75*
G03*
X10390500Y-8953500I-40000J0D01*
G01*
X10390500Y-9207500D02*
G75*
G03*
X10390500Y-9207500I-40000J0D01*
G01*
X10390500Y-9461500D02*
G75*
G03*
X10390500Y-9461500I-40000J0D01*
G01*
X10390500Y-11430000D02*
G75*
G03*
X10390500Y-11430000I-40000J0D01*
G01*
X10390500Y-11684000D02*
G75*
G03*
X10390500Y-11684000I-40000J0D01*
G01*
X10390500Y-11938000D02*
G75*
G03*
X10390500Y-11938000I-40000J0D01*
G01*
X10390500Y-12192000D02*
G75*
G03*
X10390500Y-12192000I-40000J0D01*
G01*
X10390500Y-12446000D02*
G75*
G03*
X10390500Y-12446000I-40000J0D01*
G01*
X10390500Y-12700000D02*
G75*
G03*
X10390500Y-12700000I-40000J0D01*
G01*
X10390500Y-12954000D02*
G75*
G03*
X10390500Y-12954000I-40000J0D01*
G01*
X10390500Y-13208000D02*
G75*
G03*
X10390500Y-13208000I-40000J0D01*
G01*
X10454000Y-2921000D02*
G75*
G03*
X10454000Y-2921000I-40000J0D01*
G01*
X10454000Y-3683000D02*
G75*
G03*
X10454000Y-3683000I-40000J0D01*
G01*
X11469500Y-2921000D02*
G75*
G03*
X11469500Y-2921000I-40000J0D01*
G01*
X11469500Y-3175000D02*
G75*
G03*
X11469500Y-3175000I-40000J0D01*
G01*
X11469500Y-3429000D02*
G75*
G03*
X11469500Y-3429000I-40000J0D01*
G01*
X11469500Y-3683000D02*
G75*
G03*
X11469500Y-3683000I-40000J0D01*
G01*
X11469500Y-3937000D02*
G75*
G03*
X11469500Y-3937000I-40000J0D01*
G01*
X11469500Y-4191000D02*
G75*
G03*
X11469500Y-4191000I-40000J0D01*
G01*
X11469500Y-4445000D02*
G75*
G03*
X11469500Y-4445000I-40000J0D01*
G01*
X11469500Y-4699000D02*
G75*
G03*
X11469500Y-4699000I-40000J0D01*
G01*
X11469500Y-4953000D02*
G75*
G03*
X11469500Y-4953000I-40000J0D01*
G01*
X11469500Y-5207000D02*
G75*
G03*
X11469500Y-5207000I-40000J0D01*
G01*
X11469500Y-5461000D02*
G75*
G03*
X11469500Y-5461000I-40000J0D01*
G01*
X11469500Y-5715000D02*
G75*
G03*
X11469500Y-5715000I-40000J0D01*
G01*
X11469500Y-5969000D02*
G75*
G03*
X11469500Y-5969000I-40000J0D01*
G01*
X11469500Y-6223000D02*
G75*
G03*
X11469500Y-6223000I-40000J0D01*
G01*
X11470000Y-7683500D02*
G75*
G03*
X11470000Y-7683500I-40000J0D01*
G01*
X11470000Y-7937500D02*
G75*
G03*
X11470000Y-7937500I-40000J0D01*
G01*
X11470000Y-8191500D02*
G75*
G03*
X11470000Y-8191500I-40000J0D01*
G01*
X11470000Y-8445500D02*
G75*
G03*
X11470000Y-8445500I-40000J0D01*
G01*
X11470000Y-8699500D02*
G75*
G03*
X11470000Y-8699500I-40000J0D01*
G01*
X11470000Y-8953500D02*
G75*
G03*
X11470000Y-8953500I-40000J0D01*
G01*
X11470000Y-9207500D02*
G75*
G03*
X11470000Y-9207500I-40000J0D01*
G01*
X11470000Y-9461500D02*
G75*
G03*
X11470000Y-9461500I-40000J0D01*
G01*
X11470000Y-9715500D02*
G75*
G03*
X11470000Y-9715500I-40000J0D01*
G01*
X11470000Y-9969500D02*
G75*
G03*
X11470000Y-9969500I-40000J0D01*
G01*
X11470000Y-11430000D02*
G75*
G03*
X11470000Y-11430000I-40000J0D01*
G01*
X11470000Y-11684000D02*
G75*
G03*
X11470000Y-11684000I-40000J0D01*
G01*
X11470000Y-11938000D02*
G75*
G03*
X11470000Y-11938000I-40000J0D01*
G01*
X11470000Y-12192000D02*
G75*
G03*
X11470000Y-12192000I-40000J0D01*
G01*
X11470000Y-12446000D02*
G75*
G03*
X11470000Y-12446000I-40000J0D01*
G01*
X11470000Y-12700000D02*
G75*
G03*
X11470000Y-12700000I-40000J0D01*
G01*
X11470000Y-12954000D02*
G75*
G03*
X11470000Y-12954000I-40000J0D01*
G01*
X11470000Y-13208000D02*
G75*
G03*
X11470000Y-13208000I-40000J0D01*
G01*
X11597000Y-11112500D02*
G75*
G03*
X11597000Y-11112500I-40000J0D01*
G01*
X11601000Y-7366000D02*
G75*
G03*
X11601000Y-7366000I-40000J0D01*
G01*
X11982000Y-2603500D02*
G75*
G03*
X11982000Y-2603500I-40000J0D01*
G01*
X12097000Y-11112500D02*
G75*
G03*
X12097000Y-11112500I-40000J0D01*
G01*
X12101000Y-7366000D02*
G75*
G03*
X12101000Y-7366000I-40000J0D01*
G01*
X12232000Y-7683500D02*
G75*
G03*
X12232000Y-7683500I-40000J0D01*
G01*
X12232000Y-7937500D02*
G75*
G03*
X12232000Y-7937500I-40000J0D01*
G01*
X12232000Y-8191500D02*
G75*
G03*
X12232000Y-8191500I-40000J0D01*
G01*
X12232000Y-8445500D02*
G75*
G03*
X12232000Y-8445500I-40000J0D01*
G01*
X12232000Y-8699500D02*
G75*
G03*
X12232000Y-8699500I-40000J0D01*
G01*
X12232000Y-8953500D02*
G75*
G03*
X12232000Y-8953500I-40000J0D01*
G01*
X12232000Y-9207500D02*
G75*
G03*
X12232000Y-9207500I-40000J0D01*
G01*
X12232000Y-9461500D02*
G75*
G03*
X12232000Y-9461500I-40000J0D01*
G01*
X12232000Y-9715500D02*
G75*
G03*
X12232000Y-9715500I-40000J0D01*
G01*
X12232000Y-9969500D02*
G75*
G03*
X12232000Y-9969500I-40000J0D01*
G01*
X12232000Y-11430000D02*
G75*
G03*
X12232000Y-11430000I-40000J0D01*
G01*
X12232000Y-11684000D02*
G75*
G03*
X12232000Y-11684000I-40000J0D01*
G01*
X12232000Y-11938000D02*
G75*
G03*
X12232000Y-11938000I-40000J0D01*
G01*
X12232000Y-12192000D02*
G75*
G03*
X12232000Y-12192000I-40000J0D01*
G01*
X12232000Y-12446000D02*
G75*
G03*
X12232000Y-12446000I-40000J0D01*
G01*
X12232000Y-12700000D02*
G75*
G03*
X12232000Y-12700000I-40000J0D01*
G01*
X12232000Y-12954000D02*
G75*
G03*
X12232000Y-12954000I-40000J0D01*
G01*
X12232000Y-13208000D02*
G75*
G03*
X12232000Y-13208000I-40000J0D01*
G01*
X12482000Y-2603500D02*
G75*
G03*
X12482000Y-2603500I-40000J0D01*
G01*
X12993500Y-2921000D02*
G75*
G03*
X12993500Y-2921000I-40000J0D01*
G01*
X12993500Y-3175000D02*
G75*
G03*
X12993500Y-3175000I-40000J0D01*
G01*
X12993500Y-3429000D02*
G75*
G03*
X12993500Y-3429000I-40000J0D01*
G01*
X12993500Y-3683000D02*
G75*
G03*
X12993500Y-3683000I-40000J0D01*
G01*
X12993500Y-3937000D02*
G75*
G03*
X12993500Y-3937000I-40000J0D01*
G01*
X12993500Y-4191000D02*
G75*
G03*
X12993500Y-4191000I-40000J0D01*
G01*
X12993500Y-4445000D02*
G75*
G03*
X12993500Y-4445000I-40000J0D01*
G01*
X12993500Y-4699000D02*
G75*
G03*
X12993500Y-4699000I-40000J0D01*
G01*
X12993500Y-4953000D02*
G75*
G03*
X12993500Y-4953000I-40000J0D01*
G01*
X12993500Y-5207000D02*
G75*
G03*
X12993500Y-5207000I-40000J0D01*
G01*
X12993500Y-5461000D02*
G75*
G03*
X12993500Y-5461000I-40000J0D01*
G01*
X12993500Y-5715000D02*
G75*
G03*
X12993500Y-5715000I-40000J0D01*
G01*
X12993500Y-5969000D02*
G75*
G03*
X12993500Y-5969000I-40000J0D01*
G01*
X12993500Y-6223000D02*
G75*
G03*
X12993500Y-6223000I-40000J0D01*
G01*
X13311500Y-7683500D02*
G75*
G03*
X13311500Y-7683500I-40000J0D01*
G01*
X13311500Y-7937500D02*
G75*
G03*
X13311500Y-7937500I-40000J0D01*
G01*
X13311500Y-8191500D02*
G75*
G03*
X13311500Y-8191500I-40000J0D01*
G01*
X13311500Y-8445500D02*
G75*
G03*
X13311500Y-8445500I-40000J0D01*
G01*
X13311500Y-8699500D02*
G75*
G03*
X13311500Y-8699500I-40000J0D01*
G01*
X13311500Y-8953500D02*
G75*
G03*
X13311500Y-8953500I-40000J0D01*
G01*
X13311500Y-9207500D02*
G75*
G03*
X13311500Y-9207500I-40000J0D01*
G01*
X13311500Y-9461500D02*
G75*
G03*
X13311500Y-9461500I-40000J0D01*
G01*
X13311500Y-11430000D02*
G75*
G03*
X13311500Y-11430000I-40000J0D01*
G01*
X13311500Y-11684000D02*
G75*
G03*
X13311500Y-11684000I-40000J0D01*
G01*
X13311500Y-11938000D02*
G75*
G03*
X13311500Y-11938000I-40000J0D01*
G01*
X13311500Y-12192000D02*
G75*
G03*
X13311500Y-12192000I-40000J0D01*
G01*
X13311500Y-12446000D02*
G75*
G03*
X13311500Y-12446000I-40000J0D01*
G01*
X13311500Y-12700000D02*
G75*
G03*
X13311500Y-12700000I-40000J0D01*
G01*
X13311500Y-12954000D02*
G75*
G03*
X13311500Y-12954000I-40000J0D01*
G01*
X13311500Y-13208000D02*
G75*
G03*
X13311500Y-13208000I-40000J0D01*
G01*
X13438500Y-7366000D02*
G75*
G03*
X13438500Y-7366000I-40000J0D01*
G01*
X13442500Y-11112500D02*
G75*
G03*
X13442500Y-11112500I-40000J0D01*
G01*
X13938500Y-7366000D02*
G75*
G03*
X13938500Y-7366000I-40000J0D01*
G01*
X13942500Y-11112500D02*
G75*
G03*
X13942500Y-11112500I-40000J0D01*
G01*
X14073500Y-7683500D02*
G75*
G03*
X14073500Y-7683500I-40000J0D01*
G01*
X14073500Y-7937500D02*
G75*
G03*
X14073500Y-7937500I-40000J0D01*
G01*
X14073500Y-8191500D02*
G75*
G03*
X14073500Y-8191500I-40000J0D01*
G01*
X14073500Y-8445500D02*
G75*
G03*
X14073500Y-8445500I-40000J0D01*
G01*
X14073500Y-8699500D02*
G75*
G03*
X14073500Y-8699500I-40000J0D01*
G01*
X14073500Y-8953500D02*
G75*
G03*
X14073500Y-8953500I-40000J0D01*
G01*
X14073500Y-9207500D02*
G75*
G03*
X14073500Y-9207500I-40000J0D01*
G01*
X14073500Y-9461500D02*
G75*
G03*
X14073500Y-9461500I-40000J0D01*
G01*
X14073500Y-11430000D02*
G75*
G03*
X14073500Y-11430000I-40000J0D01*
G01*
X14073500Y-11684000D02*
G75*
G03*
X14073500Y-11684000I-40000J0D01*
G01*
X14073500Y-11938000D02*
G75*
G03*
X14073500Y-11938000I-40000J0D01*
G01*
X14073500Y-12192000D02*
G75*
G03*
X14073500Y-12192000I-40000J0D01*
G01*
X14073500Y-12446000D02*
G75*
G03*
X14073500Y-12446000I-40000J0D01*
G01*
X14073500Y-12700000D02*
G75*
G03*
X14073500Y-12700000I-40000J0D01*
G01*
X14073500Y-12954000D02*
G75*
G03*
X14073500Y-12954000I-40000J0D01*
G01*
X14073500Y-13208000D02*
G75*
G03*
X14073500Y-13208000I-40000J0D01*
G01*
X14137000Y-2921000D02*
G75*
G03*
X14137000Y-2921000I-40000J0D01*
G01*
X14137000Y-3683000D02*
G75*
G03*
X14137000Y-3683000I-40000J0D01*
G01*
X14835500Y-11684000D02*
G75*
G03*
X14835500Y-11684000I-40000J0D01*
G01*
X14835500Y-12446000D02*
G75*
G03*
X14835500Y-12446000I-40000J0D01*
G01*
X15152500Y-2922000D02*
G75*
G03*
X15152500Y-2922000I-40000J0D01*
G01*
X15152500Y-3176000D02*
G75*
G03*
X15152500Y-3176000I-40000J0D01*
G01*
X15152500Y-3430000D02*
G75*
G03*
X15152500Y-3430000I-40000J0D01*
G01*
X15152500Y-3684000D02*
G75*
G03*
X15152500Y-3684000I-40000J0D01*
G01*
X15152500Y-3938000D02*
G75*
G03*
X15152500Y-3938000I-40000J0D01*
G01*
X15152500Y-4192000D02*
G75*
G03*
X15152500Y-4192000I-40000J0D01*
G01*
X15152500Y-4446000D02*
G75*
G03*
X15152500Y-4446000I-40000J0D01*
G01*
X15152500Y-4700000D02*
G75*
G03*
X15152500Y-4700000I-40000J0D01*
G01*
X15152500Y-4954000D02*
G75*
G03*
X15152500Y-4954000I-40000J0D01*
G01*
X15152500Y-5208000D02*
G75*
G03*
X15152500Y-5208000I-40000J0D01*
G01*
X15152500Y-5462000D02*
G75*
G03*
X15152500Y-5462000I-40000J0D01*
G01*
X15152500Y-5716000D02*
G75*
G03*
X15152500Y-5716000I-40000J0D01*
G01*
X15152500Y-5970000D02*
G75*
G03*
X15152500Y-5970000I-40000J0D01*
G01*
X15152500Y-6224000D02*
G75*
G03*
X15152500Y-6224000I-40000J0D01*
G01*
X15153000Y-7683500D02*
G75*
G03*
X15153000Y-7683500I-40000J0D01*
G01*
X15153000Y-7937500D02*
G75*
G03*
X15153000Y-7937500I-40000J0D01*
G01*
X15153000Y-8191500D02*
G75*
G03*
X15153000Y-8191500I-40000J0D01*
G01*
X15153000Y-8445500D02*
G75*
G03*
X15153000Y-8445500I-40000J0D01*
G01*
X15153000Y-8699500D02*
G75*
G03*
X15153000Y-8699500I-40000J0D01*
G01*
X15153000Y-8953500D02*
G75*
G03*
X15153000Y-8953500I-40000J0D01*
G01*
X15153000Y-9207500D02*
G75*
G03*
X15153000Y-9207500I-40000J0D01*
G01*
X15153000Y-9461500D02*
G75*
G03*
X15153000Y-9461500I-40000J0D01*
G01*
X15153000Y-9715500D02*
G75*
G03*
X15153000Y-9715500I-40000J0D01*
G01*
X15153000Y-9969500D02*
G75*
G03*
X15153000Y-9969500I-40000J0D01*
G01*
X15153000Y-11430000D02*
G75*
G03*
X15153000Y-11430000I-40000J0D01*
G01*
X15153000Y-11684000D02*
G75*
G03*
X15153000Y-11684000I-40000J0D01*
G01*
X15153000Y-11938000D02*
G75*
G03*
X15153000Y-11938000I-40000J0D01*
G01*
X15153000Y-12192000D02*
G75*
G03*
X15153000Y-12192000I-40000J0D01*
G01*
X15153000Y-12446000D02*
G75*
G03*
X15153000Y-12446000I-40000J0D01*
G01*
X15153000Y-12700000D02*
G75*
G03*
X15153000Y-12700000I-40000J0D01*
G01*
X15153000Y-12954000D02*
G75*
G03*
X15153000Y-12954000I-40000J0D01*
G01*
X15280000Y-7366000D02*
G75*
G03*
X15280000Y-7366000I-40000J0D01*
G01*
X15284000Y-11112500D02*
G75*
G03*
X15284000Y-11112500I-40000J0D01*
G01*
X15669000Y-2603500D02*
G75*
G03*
X15669000Y-2603500I-40000J0D01*
G01*
X15780000Y-7366000D02*
G75*
G03*
X15780000Y-7366000I-40000J0D01*
G01*
X15784000Y-11112500D02*
G75*
G03*
X15784000Y-11112500I-40000J0D01*
G01*
X15915000Y-7683500D02*
G75*
G03*
X15915000Y-7683500I-40000J0D01*
G01*
X15915000Y-7937500D02*
G75*
G03*
X15915000Y-7937500I-40000J0D01*
G01*
X15915000Y-8191500D02*
G75*
G03*
X15915000Y-8191500I-40000J0D01*
G01*
X15915000Y-8445500D02*
G75*
G03*
X15915000Y-8445500I-40000J0D01*
G01*
X15915000Y-8699500D02*
G75*
G03*
X15915000Y-8699500I-40000J0D01*
G01*
X15915000Y-8953500D02*
G75*
G03*
X15915000Y-8953500I-40000J0D01*
G01*
X15915000Y-9207500D02*
G75*
G03*
X15915000Y-9207500I-40000J0D01*
G01*
X15915000Y-9461500D02*
G75*
G03*
X15915000Y-9461500I-40000J0D01*
G01*
X15915000Y-9715500D02*
G75*
G03*
X15915000Y-9715500I-40000J0D01*
G01*
X15915000Y-9969500D02*
G75*
G03*
X15915000Y-9969500I-40000J0D01*
G01*
X15915000Y-11430000D02*
G75*
G03*
X15915000Y-11430000I-40000J0D01*
G01*
X15915000Y-11684000D02*
G75*
G03*
X15915000Y-11684000I-40000J0D01*
G01*
X15915000Y-11938000D02*
G75*
G03*
X15915000Y-11938000I-40000J0D01*
G01*
X15915000Y-12192000D02*
G75*
G03*
X15915000Y-12192000I-40000J0D01*
G01*
X15915000Y-12446000D02*
G75*
G03*
X15915000Y-12446000I-40000J0D01*
G01*
X15915000Y-12700000D02*
G75*
G03*
X15915000Y-12700000I-40000J0D01*
G01*
X15915000Y-12954000D02*
G75*
G03*
X15915000Y-12954000I-40000J0D01*
G01*
X16169000Y-2603500D02*
G75*
G03*
X16169000Y-2603500I-40000J0D01*
G01*
X16676500Y-2922000D02*
G75*
G03*
X16676500Y-2922000I-40000J0D01*
G01*
X16676500Y-3176000D02*
G75*
G03*
X16676500Y-3176000I-40000J0D01*
G01*
X16676500Y-3430000D02*
G75*
G03*
X16676500Y-3430000I-40000J0D01*
G01*
X16676500Y-3684000D02*
G75*
G03*
X16676500Y-3684000I-40000J0D01*
G01*
X16676500Y-3938000D02*
G75*
G03*
X16676500Y-3938000I-40000J0D01*
G01*
X16676500Y-4192000D02*
G75*
G03*
X16676500Y-4192000I-40000J0D01*
G01*
X16676500Y-4446000D02*
G75*
G03*
X16676500Y-4446000I-40000J0D01*
G01*
X16676500Y-4700000D02*
G75*
G03*
X16676500Y-4700000I-40000J0D01*
G01*
X16676500Y-4954000D02*
G75*
G03*
X16676500Y-4954000I-40000J0D01*
G01*
X16676500Y-5208000D02*
G75*
G03*
X16676500Y-5208000I-40000J0D01*
G01*
X16676500Y-5462000D02*
G75*
G03*
X16676500Y-5462000I-40000J0D01*
G01*
X16676500Y-5716000D02*
G75*
G03*
X16676500Y-5716000I-40000J0D01*
G01*
X16676500Y-5970000D02*
G75*
G03*
X16676500Y-5970000I-40000J0D01*
G01*
X16676500Y-6224000D02*
G75*
G03*
X16676500Y-6224000I-40000J0D01*
G01*
X16677000Y-11366500D02*
G75*
G03*
X16677000Y-11366500I-40000J0D01*
G01*
X16677000Y-12128500D02*
G75*
G03*
X16677000Y-12128500I-40000J0D01*
G01*
X16677000Y-12382500D02*
G75*
G03*
X16677000Y-12382500I-40000J0D01*
G01*
X16677000Y-13144500D02*
G75*
G03*
X16677000Y-13144500I-40000J0D01*
G01*
X16994500Y-7683500D02*
G75*
G03*
X16994500Y-7683500I-40000J0D01*
G01*
X16994500Y-7937500D02*
G75*
G03*
X16994500Y-7937500I-40000J0D01*
G01*
X16994500Y-8191500D02*
G75*
G03*
X16994500Y-8191500I-40000J0D01*
G01*
X16994500Y-8445500D02*
G75*
G03*
X16994500Y-8445500I-40000J0D01*
G01*
X16994500Y-8699500D02*
G75*
G03*
X16994500Y-8699500I-40000J0D01*
G01*
X16994500Y-8953500D02*
G75*
G03*
X16994500Y-8953500I-40000J0D01*
G01*
X16994500Y-9207500D02*
G75*
G03*
X16994500Y-9207500I-40000J0D01*
G01*
X16994500Y-9461500D02*
G75*
G03*
X16994500Y-9461500I-40000J0D01*
G01*
X16994500Y-11430000D02*
G75*
G03*
X16994500Y-11430000I-40000J0D01*
G01*
X16994500Y-11684000D02*
G75*
G03*
X16994500Y-11684000I-40000J0D01*
G01*
X16994500Y-11938000D02*
G75*
G03*
X16994500Y-11938000I-40000J0D01*
G01*
X16994500Y-12192000D02*
G75*
G03*
X16994500Y-12192000I-40000J0D01*
G01*
X16994500Y-12446000D02*
G75*
G03*
X16994500Y-12446000I-40000J0D01*
G01*
X16994500Y-12700000D02*
G75*
G03*
X16994500Y-12700000I-40000J0D01*
G01*
X16994500Y-12954000D02*
G75*
G03*
X16994500Y-12954000I-40000J0D01*
G01*
X17121500Y-7366000D02*
G75*
G03*
X17121500Y-7366000I-40000J0D01*
G01*
X17129500Y-11112500D02*
G75*
G03*
X17129500Y-11112500I-40000J0D01*
G01*
X17621500Y-7366000D02*
G75*
G03*
X17621500Y-7366000I-40000J0D01*
G01*
X17629500Y-11112500D02*
G75*
G03*
X17629500Y-11112500I-40000J0D01*
G01*
X17756500Y-7683500D02*
G75*
G03*
X17756500Y-7683500I-40000J0D01*
G01*
X17756500Y-7937500D02*
G75*
G03*
X17756500Y-7937500I-40000J0D01*
G01*
X17756500Y-8191500D02*
G75*
G03*
X17756500Y-8191500I-40000J0D01*
G01*
X17756500Y-8445500D02*
G75*
G03*
X17756500Y-8445500I-40000J0D01*
G01*
X17756500Y-8699500D02*
G75*
G03*
X17756500Y-8699500I-40000J0D01*
G01*
X17756500Y-8953500D02*
G75*
G03*
X17756500Y-8953500I-40000J0D01*
G01*
X17756500Y-9207500D02*
G75*
G03*
X17756500Y-9207500I-40000J0D01*
G01*
X17756500Y-9461500D02*
G75*
G03*
X17756500Y-9461500I-40000J0D01*
G01*
X17756500Y-11430000D02*
G75*
G03*
X17756500Y-11430000I-40000J0D01*
G01*
X17756500Y-11684000D02*
G75*
G03*
X17756500Y-11684000I-40000J0D01*
G01*
X17756500Y-11938000D02*
G75*
G03*
X17756500Y-11938000I-40000J0D01*
G01*
X17756500Y-12192000D02*
G75*
G03*
X17756500Y-12192000I-40000J0D01*
G01*
X17756500Y-12446000D02*
G75*
G03*
X17756500Y-12446000I-40000J0D01*
G01*
X17756500Y-12700000D02*
G75*
G03*
X17756500Y-12700000I-40000J0D01*
G01*
X17756500Y-12954000D02*
G75*
G03*
X17756500Y-12954000I-40000J0D01*
G01*
X17820000Y-2921000D02*
G75*
G03*
X17820000Y-2921000I-40000J0D01*
G01*
X17820000Y-3683000D02*
G75*
G03*
X17820000Y-3683000I-40000J0D01*
G01*
X18074000Y-11366500D02*
G75*
G03*
X18074000Y-11366500I-40000J0D01*
G01*
X18074000Y-12128500D02*
G75*
G03*
X18074000Y-12128500I-40000J0D01*
G01*
X18074000Y-12382500D02*
G75*
G03*
X18074000Y-12382500I-40000J0D01*
G01*
X18074000Y-13144500D02*
G75*
G03*
X18074000Y-13144500I-40000J0D01*
G01*
X18836000Y-2921000D02*
G75*
G03*
X18836000Y-2921000I-40000J0D01*
G01*
X18836000Y-3175000D02*
G75*
G03*
X18836000Y-3175000I-40000J0D01*
G01*
X18836000Y-3429000D02*
G75*
G03*
X18836000Y-3429000I-40000J0D01*
G01*
X18836000Y-3683000D02*
G75*
G03*
X18836000Y-3683000I-40000J0D01*
G01*
X18836000Y-3937000D02*
G75*
G03*
X18836000Y-3937000I-40000J0D01*
G01*
X18836000Y-4191000D02*
G75*
G03*
X18836000Y-4191000I-40000J0D01*
G01*
X18836000Y-4445000D02*
G75*
G03*
X18836000Y-4445000I-40000J0D01*
G01*
X18836000Y-4699000D02*
G75*
G03*
X18836000Y-4699000I-40000J0D01*
G01*
X18836000Y-4953000D02*
G75*
G03*
X18836000Y-4953000I-40000J0D01*
G01*
X18836000Y-5207000D02*
G75*
G03*
X18836000Y-5207000I-40000J0D01*
G01*
X18836000Y-5461000D02*
G75*
G03*
X18836000Y-5461000I-40000J0D01*
G01*
X18836000Y-5715000D02*
G75*
G03*
X18836000Y-5715000I-40000J0D01*
G01*
X18836000Y-5969000D02*
G75*
G03*
X18836000Y-5969000I-40000J0D01*
G01*
X18836000Y-6223000D02*
G75*
G03*
X18836000Y-6223000I-40000J0D01*
G01*
X18836000Y-7683500D02*
G75*
G03*
X18836000Y-7683500I-40000J0D01*
G01*
X18836000Y-7937500D02*
G75*
G03*
X18836000Y-7937500I-40000J0D01*
G01*
X18836000Y-8191500D02*
G75*
G03*
X18836000Y-8191500I-40000J0D01*
G01*
X18836000Y-8445500D02*
G75*
G03*
X18836000Y-8445500I-40000J0D01*
G01*
X18836000Y-8699500D02*
G75*
G03*
X18836000Y-8699500I-40000J0D01*
G01*
X18836000Y-8953500D02*
G75*
G03*
X18836000Y-8953500I-40000J0D01*
G01*
X18836000Y-9207500D02*
G75*
G03*
X18836000Y-9207500I-40000J0D01*
G01*
X18836000Y-9461500D02*
G75*
G03*
X18836000Y-9461500I-40000J0D01*
G01*
X18836000Y-9715500D02*
G75*
G03*
X18836000Y-9715500I-40000J0D01*
G01*
X18836000Y-9969500D02*
G75*
G03*
X18836000Y-9969500I-40000J0D01*
G01*
X18836000Y-11430000D02*
G75*
G03*
X18836000Y-11430000I-40000J0D01*
G01*
X18836000Y-11684000D02*
G75*
G03*
X18836000Y-11684000I-40000J0D01*
G01*
X18836000Y-11938000D02*
G75*
G03*
X18836000Y-11938000I-40000J0D01*
G01*
X18836000Y-12192000D02*
G75*
G03*
X18836000Y-12192000I-40000J0D01*
G01*
X18836000Y-12446000D02*
G75*
G03*
X18836000Y-12446000I-40000J0D01*
G01*
X18836000Y-12700000D02*
G75*
G03*
X18836000Y-12700000I-40000J0D01*
G01*
X18836000Y-12954000D02*
G75*
G03*
X18836000Y-12954000I-40000J0D01*
G01*
X18836000Y-13208000D02*
G75*
G03*
X18836000Y-13208000I-40000J0D01*
G01*
X18836000Y-13462000D02*
G75*
G03*
X18836000Y-13462000I-40000J0D01*
G01*
X18836000Y-13716000D02*
G75*
G03*
X18836000Y-13716000I-40000J0D01*
G01*
X18963000Y-7366000D02*
G75*
G03*
X18963000Y-7366000I-40000J0D01*
G01*
X18967000Y-11112500D02*
G75*
G03*
X18967000Y-11112500I-40000J0D01*
G01*
X19352000Y-2603500D02*
G75*
G03*
X19352000Y-2603500I-40000J0D01*
G01*
X19463000Y-7366000D02*
G75*
G03*
X19463000Y-7366000I-40000J0D01*
G01*
X19467000Y-11112500D02*
G75*
G03*
X19467000Y-11112500I-40000J0D01*
G01*
X19598000Y-7683500D02*
G75*
G03*
X19598000Y-7683500I-40000J0D01*
G01*
X19598000Y-7937500D02*
G75*
G03*
X19598000Y-7937500I-40000J0D01*
G01*
X19598000Y-8191500D02*
G75*
G03*
X19598000Y-8191500I-40000J0D01*
G01*
X19598000Y-8445500D02*
G75*
G03*
X19598000Y-8445500I-40000J0D01*
G01*
X19598000Y-8699500D02*
G75*
G03*
X19598000Y-8699500I-40000J0D01*
G01*
X19598000Y-8953500D02*
G75*
G03*
X19598000Y-8953500I-40000J0D01*
G01*
X19598000Y-9207500D02*
G75*
G03*
X19598000Y-9207500I-40000J0D01*
G01*
X19598000Y-9461500D02*
G75*
G03*
X19598000Y-9461500I-40000J0D01*
G01*
X19598000Y-9715500D02*
G75*
G03*
X19598000Y-9715500I-40000J0D01*
G01*
X19598000Y-9969500D02*
G75*
G03*
X19598000Y-9969500I-40000J0D01*
G01*
X19598000Y-11430000D02*
G75*
G03*
X19598000Y-11430000I-40000J0D01*
G01*
X19598000Y-11684000D02*
G75*
G03*
X19598000Y-11684000I-40000J0D01*
G01*
X19598000Y-11938000D02*
G75*
G03*
X19598000Y-11938000I-40000J0D01*
G01*
X19598000Y-12192000D02*
G75*
G03*
X19598000Y-12192000I-40000J0D01*
G01*
X19598000Y-12446000D02*
G75*
G03*
X19598000Y-12446000I-40000J0D01*
G01*
X19598000Y-12700000D02*
G75*
G03*
X19598000Y-12700000I-40000J0D01*
G01*
X19598000Y-12954000D02*
G75*
G03*
X19598000Y-12954000I-40000J0D01*
G01*
X19598000Y-13208000D02*
G75*
G03*
X19598000Y-13208000I-40000J0D01*
G01*
X19598000Y-13462000D02*
G75*
G03*
X19598000Y-13462000I-40000J0D01*
G01*
X19598000Y-13716000D02*
G75*
G03*
X19598000Y-13716000I-40000J0D01*
G01*
X19852000Y-2603500D02*
G75*
G03*
X19852000Y-2603500I-40000J0D01*
G01*
X20360000Y-2921000D02*
G75*
G03*
X20360000Y-2921000I-40000J0D01*
G01*
X20360000Y-3175000D02*
G75*
G03*
X20360000Y-3175000I-40000J0D01*
G01*
X20360000Y-3429000D02*
G75*
G03*
X20360000Y-3429000I-40000J0D01*
G01*
X20360000Y-3683000D02*
G75*
G03*
X20360000Y-3683000I-40000J0D01*
G01*
X20360000Y-3937000D02*
G75*
G03*
X20360000Y-3937000I-40000J0D01*
G01*
X20360000Y-4191000D02*
G75*
G03*
X20360000Y-4191000I-40000J0D01*
G01*
X20360000Y-4445000D02*
G75*
G03*
X20360000Y-4445000I-40000J0D01*
G01*
X20360000Y-4699000D02*
G75*
G03*
X20360000Y-4699000I-40000J0D01*
G01*
X20360000Y-4953000D02*
G75*
G03*
X20360000Y-4953000I-40000J0D01*
G01*
X20360000Y-5207000D02*
G75*
G03*
X20360000Y-5207000I-40000J0D01*
G01*
X20360000Y-5461000D02*
G75*
G03*
X20360000Y-5461000I-40000J0D01*
G01*
X20360000Y-5715000D02*
G75*
G03*
X20360000Y-5715000I-40000J0D01*
G01*
X20360000Y-5969000D02*
G75*
G03*
X20360000Y-5969000I-40000J0D01*
G01*
X20360000Y-6223000D02*
G75*
G03*
X20360000Y-6223000I-40000J0D01*
G01*
X20677500Y-7683500D02*
G75*
G03*
X20677500Y-7683500I-40000J0D01*
G01*
X20677500Y-7937500D02*
G75*
G03*
X20677500Y-7937500I-40000J0D01*
G01*
X20677500Y-8191500D02*
G75*
G03*
X20677500Y-8191500I-40000J0D01*
G01*
X20677500Y-8445500D02*
G75*
G03*
X20677500Y-8445500I-40000J0D01*
G01*
X20677500Y-8699500D02*
G75*
G03*
X20677500Y-8699500I-40000J0D01*
G01*
X20677500Y-8953500D02*
G75*
G03*
X20677500Y-8953500I-40000J0D01*
G01*
X20677500Y-9207500D02*
G75*
G03*
X20677500Y-9207500I-40000J0D01*
G01*
X20677500Y-9461500D02*
G75*
G03*
X20677500Y-9461500I-40000J0D01*
G01*
X20677500Y-11430000D02*
G75*
G03*
X20677500Y-11430000I-40000J0D01*
G01*
X20677500Y-11684000D02*
G75*
G03*
X20677500Y-11684000I-40000J0D01*
G01*
X20677500Y-11938000D02*
G75*
G03*
X20677500Y-11938000I-40000J0D01*
G01*
X20677500Y-12192000D02*
G75*
G03*
X20677500Y-12192000I-40000J0D01*
G01*
X20677500Y-12446000D02*
G75*
G03*
X20677500Y-12446000I-40000J0D01*
G01*
X20677500Y-12700000D02*
G75*
G03*
X20677500Y-12700000I-40000J0D01*
G01*
X20677500Y-12954000D02*
G75*
G03*
X20677500Y-12954000I-40000J0D01*
G01*
X20677500Y-13208000D02*
G75*
G03*
X20677500Y-13208000I-40000J0D01*
G01*
X20677500Y-13462000D02*
G75*
G03*
X20677500Y-13462000I-40000J0D01*
G01*
X20677500Y-13716000D02*
G75*
G03*
X20677500Y-13716000I-40000J0D01*
G01*
X20804500Y-7366000D02*
G75*
G03*
X20804500Y-7366000I-40000J0D01*
G01*
X20808500Y-11112500D02*
G75*
G03*
X20808500Y-11112500I-40000J0D01*
G01*
X21304500Y-7366000D02*
G75*
G03*
X21304500Y-7366000I-40000J0D01*
G01*
X21308500Y-11112500D02*
G75*
G03*
X21308500Y-11112500I-40000J0D01*
G01*
X21439500Y-7683500D02*
G75*
G03*
X21439500Y-7683500I-40000J0D01*
G01*
X21439500Y-7937500D02*
G75*
G03*
X21439500Y-7937500I-40000J0D01*
G01*
X21439500Y-8191500D02*
G75*
G03*
X21439500Y-8191500I-40000J0D01*
G01*
X21439500Y-8445500D02*
G75*
G03*
X21439500Y-8445500I-40000J0D01*
G01*
X21439500Y-8699500D02*
G75*
G03*
X21439500Y-8699500I-40000J0D01*
G01*
X21439500Y-8953500D02*
G75*
G03*
X21439500Y-8953500I-40000J0D01*
G01*
X21439500Y-9207500D02*
G75*
G03*
X21439500Y-9207500I-40000J0D01*
G01*
X21439500Y-9461500D02*
G75*
G03*
X21439500Y-9461500I-40000J0D01*
G01*
X21439500Y-11430000D02*
G75*
G03*
X21439500Y-11430000I-40000J0D01*
G01*
X21439500Y-11684000D02*
G75*
G03*
X21439500Y-11684000I-40000J0D01*
G01*
X21439500Y-11938000D02*
G75*
G03*
X21439500Y-11938000I-40000J0D01*
G01*
X21439500Y-12192000D02*
G75*
G03*
X21439500Y-12192000I-40000J0D01*
G01*
X21439500Y-12446000D02*
G75*
G03*
X21439500Y-12446000I-40000J0D01*
G01*
X21439500Y-12700000D02*
G75*
G03*
X21439500Y-12700000I-40000J0D01*
G01*
X21439500Y-12954000D02*
G75*
G03*
X21439500Y-12954000I-40000J0D01*
G01*
X21439500Y-13208000D02*
G75*
G03*
X21439500Y-13208000I-40000J0D01*
G01*
X21439500Y-13462000D02*
G75*
G03*
X21439500Y-13462000I-40000J0D01*
G01*
X21439500Y-13716000D02*
G75*
G03*
X21439500Y-13716000I-40000J0D01*
G01*
X21503000Y-2921000D02*
G75*
G03*
X21503000Y-2921000I-40000J0D01*
G01*
X21503000Y-3683000D02*
G75*
G03*
X21503000Y-3683000I-40000J0D01*
G01*
X22519000Y-11430000D02*
G75*
G03*
X22519000Y-11430000I-40000J0D01*
G01*
X22519000Y-11684000D02*
G75*
G03*
X22519000Y-11684000I-40000J0D01*
G01*
X22519000Y-11938000D02*
G75*
G03*
X22519000Y-11938000I-40000J0D01*
G01*
X22519000Y-12192000D02*
G75*
G03*
X22519000Y-12192000I-40000J0D01*
G01*
X22519000Y-12446000D02*
G75*
G03*
X22519000Y-12446000I-40000J0D01*
G01*
X22519000Y-12700000D02*
G75*
G03*
X22519000Y-12700000I-40000J0D01*
G01*
X22519000Y-12954000D02*
G75*
G03*
X22519000Y-12954000I-40000J0D01*
G01*
X22519000Y-13208000D02*
G75*
G03*
X22519000Y-13208000I-40000J0D01*
G01*
X22519000Y-13462000D02*
G75*
G03*
X22519000Y-13462000I-40000J0D01*
G01*
X22519000Y-13716000D02*
G75*
G03*
X22519000Y-13716000I-40000J0D01*
G01*
X22709500Y-11112500D02*
G75*
G03*
X22709500Y-11112500I-40000J0D01*
G01*
X23209500Y-11112500D02*
G75*
G03*
X23209500Y-11112500I-40000J0D01*
G01*
X23281000Y-11430000D02*
G75*
G03*
X23281000Y-11430000I-40000J0D01*
G01*
X23281000Y-11684000D02*
G75*
G03*
X23281000Y-11684000I-40000J0D01*
G01*
X23281000Y-11938000D02*
G75*
G03*
X23281000Y-11938000I-40000J0D01*
G01*
X23281000Y-12192000D02*
G75*
G03*
X23281000Y-12192000I-40000J0D01*
G01*
X23281000Y-12446000D02*
G75*
G03*
X23281000Y-12446000I-40000J0D01*
G01*
X23281000Y-12700000D02*
G75*
G03*
X23281000Y-12700000I-40000J0D01*
G01*
X23281000Y-12954000D02*
G75*
G03*
X23281000Y-12954000I-40000J0D01*
G01*
X23281000Y-13208000D02*
G75*
G03*
X23281000Y-13208000I-40000J0D01*
G01*
X23281000Y-13462000D02*
G75*
G03*
X23281000Y-13462000I-40000J0D01*
G01*
X23281000Y-13716000D02*
G75*
G03*
X23281000Y-13716000I-40000J0D01*
G01*
D10*
X4762500Y-14682000D02*
X4762500Y-14782000D01*
X4712500Y-14732000D02*
X4812500Y-14732000D01*
X4762500Y-14936000D02*
X4762500Y-15036000D01*
X4712500Y-14986000D02*
X4812500Y-14986000D01*
X5016500Y-14682000D02*
X5016500Y-14782000D01*
X4966500Y-14732000D02*
X5066500Y-14732000D01*
X5016500Y-14936000D02*
X5016500Y-15036000D01*
X4966500Y-14986000D02*
X5066500Y-14986000D01*
X5270500Y-14682000D02*
X5270500Y-14782000D01*
X5220500Y-14732000D02*
X5320500Y-14732000D01*
X5270500Y-14936000D02*
X5270500Y-15036000D01*
X5220500Y-14986000D02*
X5320500Y-14986000D01*
X5524500Y-14682000D02*
X5524500Y-14782000D01*
X5474500Y-14732000D02*
X5574500Y-14732000D01*
X5524500Y-14936000D02*
X5524500Y-15036000D01*
X5474500Y-14986000D02*
X5574500Y-14986000D01*
X5778500Y-14682000D02*
X5778500Y-14782000D01*
X5728500Y-14732000D02*
X5828500Y-14732000D01*
X5778500Y-14936000D02*
X5778500Y-15036000D01*
X5728500Y-14986000D02*
X5828500Y-14986000D01*
X6032500Y-14682000D02*
X6032500Y-14782000D01*
X5982500Y-14732000D02*
X6082500Y-14732000D01*
X6032500Y-14936000D02*
X6032500Y-15036000D01*
X5982500Y-14986000D02*
X6082500Y-14986000D01*
X6286500Y-14682000D02*
X6286500Y-14782000D01*
X6236500Y-14732000D02*
X6336500Y-14732000D01*
X6286500Y-14936000D02*
X6286500Y-15036000D01*
X6236500Y-14986000D02*
X6336500Y-14986000D01*
X6540500Y-14682000D02*
X6540500Y-14782000D01*
X6490500Y-14732000D02*
X6590500Y-14732000D01*
X6540500Y-14936000D02*
X6540500Y-15036000D01*
X6490500Y-14986000D02*
X6590500Y-14986000D01*
X6794500Y-14682000D02*
X6794500Y-14782000D01*
X6744500Y-14732000D02*
X6844500Y-14732000D01*
X6794500Y-14936000D02*
X6794500Y-15036000D01*
X6744500Y-14986000D02*
X6844500Y-14986000D01*
X7048500Y-14682000D02*
X7048500Y-14782000D01*
X6998500Y-14732000D02*
X7098500Y-14732000D01*
X7048500Y-14936000D02*
X7048500Y-15036000D01*
X6998500Y-14986000D02*
X7098500Y-14986000D01*
X7302500Y-14682000D02*
X7302500Y-14782000D01*
X7252500Y-14732000D02*
X7352500Y-14732000D01*
X7302500Y-14936000D02*
X7302500Y-15036000D01*
X7252500Y-14986000D02*
X7352500Y-14986000D01*
X7556500Y-14682000D02*
X7556500Y-14782000D01*
X7506500Y-14732000D02*
X7606500Y-14732000D01*
X7556500Y-14936000D02*
X7556500Y-15036000D01*
X7506500Y-14986000D02*
X7606500Y-14986000D01*
X7810500Y-14682000D02*
X7810500Y-14782000D01*
X7760500Y-14732000D02*
X7860500Y-14732000D01*
X7810500Y-14936000D02*
X7810500Y-15036000D01*
X7760500Y-14986000D02*
X7860500Y-14986000D01*
X8064500Y-14682000D02*
X8064500Y-14782000D01*
X8014500Y-14732000D02*
X8114500Y-14732000D01*
X8064500Y-14936000D02*
X8064500Y-15036000D01*
X8014500Y-14986000D02*
X8114500Y-14986000D01*
X8318500Y-14682000D02*
X8318500Y-14782000D01*
X8268500Y-14732000D02*
X8368500Y-14732000D01*
X8318500Y-14936000D02*
X8318500Y-15036000D01*
X8268500Y-14986000D02*
X8368500Y-14986000D01*
X8572500Y-14682000D02*
X8572500Y-14782000D01*
X8522500Y-14732000D02*
X8622500Y-14732000D01*
X8572500Y-14936000D02*
X8572500Y-15036000D01*
X8522500Y-14986000D02*
X8622500Y-14986000D01*
X8826500Y-14682000D02*
X8826500Y-14782000D01*
X8776500Y-14732000D02*
X8876500Y-14732000D01*
X8826500Y-14936000D02*
X8826500Y-15036000D01*
X8776500Y-14986000D02*
X8876500Y-14986000D01*
X9080500Y-14682000D02*
X9080500Y-14782000D01*
X9030500Y-14732000D02*
X9130500Y-14732000D01*
X9080500Y-14936000D02*
X9080500Y-15036000D01*
X9030500Y-14986000D02*
X9130500Y-14986000D01*
X9334500Y-14682000D02*
X9334500Y-14782000D01*
X9284500Y-14732000D02*
X9384500Y-14732000D01*
X9334500Y-14936000D02*
X9334500Y-15036000D01*
X9284500Y-14986000D02*
X9384500Y-14986000D01*
X9588500Y-14682000D02*
X9588500Y-14782000D01*
X9538500Y-14732000D02*
X9638500Y-14732000D01*
X9588500Y-14936000D02*
X9588500Y-15036000D01*
X9538500Y-14986000D02*
X9638500Y-14986000D01*
X9842500Y-14682000D02*
X9842500Y-14782000D01*
X9792500Y-14732000D02*
X9892500Y-14732000D01*
X9842500Y-14936000D02*
X9842500Y-15036000D01*
X9792500Y-14986000D02*
X9892500Y-14986000D01*
X10096500Y-14682000D02*
X10096500Y-14782000D01*
X10046500Y-14732000D02*
X10146500Y-14732000D01*
X10096500Y-14936000D02*
X10096500Y-15036000D01*
X10046500Y-14986000D02*
X10146500Y-14986000D01*
X10350500Y-14682000D02*
X10350500Y-14782000D01*
X10300500Y-14732000D02*
X10400500Y-14732000D01*
X10350500Y-14936000D02*
X10350500Y-15036000D01*
X10300500Y-14986000D02*
X10400500Y-14986000D01*
X10604500Y-14682000D02*
X10604500Y-14782000D01*
X10554500Y-14732000D02*
X10654500Y-14732000D01*
X10604500Y-14936000D02*
X10604500Y-15036000D01*
X10554500Y-14986000D02*
X10654500Y-14986000D01*
X10858500Y-14682000D02*
X10858500Y-14782000D01*
X10808500Y-14732000D02*
X10908500Y-14732000D01*
X10858500Y-14936000D02*
X10858500Y-15036000D01*
X10808500Y-14986000D02*
X10908500Y-14986000D01*
X11112500Y-14682000D02*
X11112500Y-14782000D01*
X11062500Y-14732000D02*
X11162500Y-14732000D01*
X11112500Y-14936000D02*
X11112500Y-15036000D01*
X11062500Y-14986000D02*
X11162500Y-14986000D01*
X11366500Y-14682000D02*
X11366500Y-14782000D01*
X11316500Y-14732000D02*
X11416500Y-14732000D01*
X11366500Y-14936000D02*
X11366500Y-15036000D01*
X11316500Y-14986000D02*
X11416500Y-14986000D01*
X11620500Y-14682000D02*
X11620500Y-14782000D01*
X11570500Y-14732000D02*
X11670500Y-14732000D01*
X11620500Y-14936000D02*
X11620500Y-15036000D01*
X11570500Y-14986000D02*
X11670500Y-14986000D01*
X11874500Y-14682000D02*
X11874500Y-14782000D01*
X11824500Y-14732000D02*
X11924500Y-14732000D01*
X11874500Y-14936000D02*
X11874500Y-15036000D01*
X11824500Y-14986000D02*
X11924500Y-14986000D01*
X12128500Y-14682000D02*
X12128500Y-14782000D01*
X12078500Y-14732000D02*
X12178500Y-14732000D01*
X12128500Y-14936000D02*
X12128500Y-15036000D01*
X12078500Y-14986000D02*
X12178500Y-14986000D01*
X12382500Y-14682000D02*
X12382500Y-14782000D01*
X12332500Y-14732000D02*
X12432500Y-14732000D01*
X12382500Y-14936000D02*
X12382500Y-15036000D01*
X12332500Y-14986000D02*
X12432500Y-14986000D01*
X12636500Y-14682000D02*
X12636500Y-14782000D01*
X12586500Y-14732000D02*
X12686500Y-14732000D01*
X12636500Y-14936000D02*
X12636500Y-15036000D01*
X12586500Y-14986000D02*
X12686500Y-14986000D01*
X15113000Y-14682000D02*
X15113000Y-14782000D01*
X15063000Y-14732000D02*
X15163000Y-14732000D01*
X15113000Y-14936000D02*
X15113000Y-15036000D01*
X15063000Y-14986000D02*
X15163000Y-14986000D01*
X15367000Y-14682000D02*
X15367000Y-14782000D01*
X15317000Y-14732000D02*
X15417000Y-14732000D01*
X15367000Y-14936000D02*
X15367000Y-15036000D01*
X15317000Y-14986000D02*
X15417000Y-14986000D01*
X15621000Y-14682000D02*
X15621000Y-14782000D01*
X15571000Y-14732000D02*
X15671000Y-14732000D01*
X15621000Y-14936000D02*
X15621000Y-15036000D01*
X15571000Y-14986000D02*
X15671000Y-14986000D01*
X15875000Y-14682000D02*
X15875000Y-14782000D01*
X15825000Y-14732000D02*
X15925000Y-14732000D01*
X15875000Y-14936000D02*
X15875000Y-15036000D01*
X15825000Y-14986000D02*
X15925000Y-14986000D01*
X16129000Y-14682000D02*
X16129000Y-14782000D01*
X16079000Y-14732000D02*
X16179000Y-14732000D01*
X16129000Y-14936000D02*
X16129000Y-15036000D01*
X16079000Y-14986000D02*
X16179000Y-14986000D01*
X16383000Y-14682000D02*
X16383000Y-14782000D01*
X16333000Y-14732000D02*
X16433000Y-14732000D01*
X16383000Y-14936000D02*
X16383000Y-15036000D01*
X16333000Y-14986000D02*
X16433000Y-14986000D01*
X16637000Y-14682000D02*
X16637000Y-14782000D01*
X16587000Y-14732000D02*
X16687000Y-14732000D01*
X16637000Y-14936000D02*
X16637000Y-15036000D01*
X16587000Y-14986000D02*
X16687000Y-14986000D01*
X16891000Y-14682000D02*
X16891000Y-14782000D01*
X16841000Y-14732000D02*
X16941000Y-14732000D01*
X16891000Y-14936000D02*
X16891000Y-15036000D01*
X16841000Y-14986000D02*
X16941000Y-14986000D01*
X17145000Y-14682000D02*
X17145000Y-14782000D01*
X17095000Y-14732000D02*
X17195000Y-14732000D01*
X17145000Y-14936000D02*
X17145000Y-15036000D01*
X17095000Y-14986000D02*
X17195000Y-14986000D01*
X17399000Y-14682000D02*
X17399000Y-14782000D01*
X17349000Y-14732000D02*
X17449000Y-14732000D01*
X17399000Y-14936000D02*
X17399000Y-15036000D01*
X17349000Y-14986000D02*
X17449000Y-14986000D01*
X17653000Y-14682000D02*
X17653000Y-14782000D01*
X17603000Y-14732000D02*
X17703000Y-14732000D01*
X17653000Y-14936000D02*
X17653000Y-15036000D01*
X17603000Y-14986000D02*
X17703000Y-14986000D01*
X17907000Y-14682000D02*
X17907000Y-14782000D01*
X17857000Y-14732000D02*
X17957000Y-14732000D01*
X17907000Y-14936000D02*
X17907000Y-15036000D01*
X17857000Y-14986000D02*
X17957000Y-14986000D01*
X18161000Y-14682000D02*
X18161000Y-14782000D01*
X18111000Y-14732000D02*
X18211000Y-14732000D01*
X18161000Y-14936000D02*
X18161000Y-15036000D01*
X18111000Y-14986000D02*
X18211000Y-14986000D01*
X18415000Y-14682000D02*
X18415000Y-14782000D01*
X18365000Y-14732000D02*
X18465000Y-14732000D01*
X18415000Y-14936000D02*
X18415000Y-15036000D01*
X18365000Y-14986000D02*
X18465000Y-14986000D01*
X18669000Y-14682000D02*
X18669000Y-14782000D01*
X18619000Y-14732000D02*
X18719000Y-14732000D01*
X18669000Y-14936000D02*
X18669000Y-15036000D01*
X18619000Y-14986000D02*
X18719000Y-14986000D01*
X18923000Y-14682000D02*
X18923000Y-14782000D01*
X18873000Y-14732000D02*
X18973000Y-14732000D01*
X18923000Y-14936000D02*
X18923000Y-15036000D01*
X18873000Y-14986000D02*
X18973000Y-14986000D01*
X19177000Y-14682000D02*
X19177000Y-14782000D01*
X19127000Y-14732000D02*
X19227000Y-14732000D01*
X19177000Y-14936000D02*
X19177000Y-15036000D01*
X19127000Y-14986000D02*
X19227000Y-14986000D01*
X19431000Y-14682000D02*
X19431000Y-14782000D01*
X19381000Y-14732000D02*
X19481000Y-14732000D01*
X19431000Y-14936000D02*
X19431000Y-15036000D01*
X19381000Y-14986000D02*
X19481000Y-14986000D01*
X19685000Y-14682000D02*
X19685000Y-14782000D01*
X19635000Y-14732000D02*
X19735000Y-14732000D01*
X19685000Y-14936000D02*
X19685000Y-15036000D01*
X19635000Y-14986000D02*
X19735000Y-14986000D01*
X19939000Y-14682000D02*
X19939000Y-14782000D01*
X19889000Y-14732000D02*
X19989000Y-14732000D01*
X19939000Y-14936000D02*
X19939000Y-15036000D01*
X19889000Y-14986000D02*
X19989000Y-14986000D01*
X20193000Y-14682000D02*
X20193000Y-14782000D01*
X20143000Y-14732000D02*
X20243000Y-14732000D01*
X20193000Y-14936000D02*
X20193000Y-15036000D01*
X20143000Y-14986000D02*
X20243000Y-14986000D01*
X20447000Y-14682000D02*
X20447000Y-14782000D01*
X20397000Y-14732000D02*
X20497000Y-14732000D01*
X20447000Y-14936000D02*
X20447000Y-15036000D01*
X20397000Y-14986000D02*
X20497000Y-14986000D01*
X20701000Y-14682000D02*
X20701000Y-14782000D01*
X20651000Y-14732000D02*
X20751000Y-14732000D01*
X20701000Y-14936000D02*
X20701000Y-15036000D01*
X20651000Y-14986000D02*
X20751000Y-14986000D01*
X20955000Y-14682000D02*
X20955000Y-14782000D01*
X20905000Y-14732000D02*
X21005000Y-14732000D01*
X20955000Y-14936000D02*
X20955000Y-15036000D01*
X20905000Y-14986000D02*
X21005000Y-14986000D01*
X21209000Y-14682000D02*
X21209000Y-14782000D01*
X21159000Y-14732000D02*
X21259000Y-14732000D01*
X21209000Y-14936000D02*
X21209000Y-15036000D01*
X21159000Y-14986000D02*
X21259000Y-14986000D01*
X21463000Y-14682000D02*
X21463000Y-14782000D01*
X21413000Y-14732000D02*
X21513000Y-14732000D01*
X21463000Y-14936000D02*
X21463000Y-15036000D01*
X21413000Y-14986000D02*
X21513000Y-14986000D01*
X21717000Y-14682000D02*
X21717000Y-14782000D01*
X21667000Y-14732000D02*
X21767000Y-14732000D01*
X21717000Y-14936000D02*
X21717000Y-15036000D01*
X21667000Y-14986000D02*
X21767000Y-14986000D01*
X21971000Y-14682000D02*
X21971000Y-14782000D01*
X21921000Y-14732000D02*
X22021000Y-14732000D01*
X21971000Y-14936000D02*
X21971000Y-15036000D01*
X21921000Y-14986000D02*
X22021000Y-14986000D01*
X22225000Y-14682000D02*
X22225000Y-14782000D01*
X22175000Y-14732000D02*
X22275000Y-14732000D01*
X22225000Y-14936000D02*
X22225000Y-15036000D01*
X22175000Y-14986000D02*
X22275000Y-14986000D01*
X22352000Y-2871000D02*
X22352000Y-2971000D01*
X22302000Y-2921000D02*
X22402000Y-2921000D01*
X22352000Y-3125000D02*
X22352000Y-3225000D01*
X22302000Y-3175000D02*
X22402000Y-3175000D01*
X22479000Y-14682000D02*
X22479000Y-14782000D01*
X22429000Y-14732000D02*
X22529000Y-14732000D01*
X22479000Y-14936000D02*
X22479000Y-15036000D01*
X22429000Y-14986000D02*
X22529000Y-14986000D01*
X22606000Y-2871000D02*
X22606000Y-2971000D01*
X22556000Y-2921000D02*
X22656000Y-2921000D01*
X22606000Y-3125000D02*
X22606000Y-3225000D01*
X22556000Y-3175000D02*
X22656000Y-3175000D01*
X22733000Y-14682000D02*
X22733000Y-14782000D01*
X22683000Y-14732000D02*
X22783000Y-14732000D01*
X22733000Y-14936000D02*
X22733000Y-15036000D01*
X22683000Y-14986000D02*
X22783000Y-14986000D01*
X22860000Y-2871000D02*
X22860000Y-2971000D01*
X22810000Y-2921000D02*
X22910000Y-2921000D01*
X22860000Y-3125000D02*
X22860000Y-3225000D01*
X22810000Y-3175000D02*
X22910000Y-3175000D01*
X22987000Y-14682000D02*
X22987000Y-14782000D01*
X22937000Y-14732000D02*
X23037000Y-14732000D01*
X22987000Y-14936000D02*
X22987000Y-15036000D01*
X22937000Y-14986000D02*
X23037000Y-14986000D01*
X23114000Y-2871000D02*
X23114000Y-2971000D01*
X23064000Y-2921000D02*
X23164000Y-2921000D01*
X23114000Y-3125000D02*
X23114000Y-3225000D01*
X23064000Y-3175000D02*
X23164000Y-3175000D01*
X23368000Y-2871000D02*
X23368000Y-2971000D01*
X23318000Y-2921000D02*
X23418000Y-2921000D01*
X23368000Y-3125000D02*
X23368000Y-3225000D01*
X23318000Y-3175000D02*
X23418000Y-3175000D01*
X23622000Y-2871000D02*
X23622000Y-2971000D01*
X23572000Y-2921000D02*
X23672000Y-2921000D01*
X23622000Y-3125000D02*
X23622000Y-3225000D01*
X23572000Y-3175000D02*
X23672000Y-3175000D01*
D11*
X3811777Y-15848584D02*
X3811777Y-15648584D01*
X3811777Y-15648584D02*
X3859396Y-15648584D01*
X3859396Y-15648584D02*
X3887967Y-15658108D01*
X3887967Y-15658108D02*
X3907015Y-15677155D01*
X3907015Y-15677155D02*
X3916539Y-15696203D01*
X3916539Y-15696203D02*
X3926062Y-15734298D01*
X3926062Y-15734298D02*
X3926062Y-15762869D01*
X3926062Y-15762869D02*
X3916539Y-15800965D01*
X3916539Y-15800965D02*
X3907015Y-15820012D01*
X3907015Y-15820012D02*
X3887967Y-15839060D01*
X3887967Y-15839060D02*
X3859396Y-15848584D01*
X3859396Y-15848584D02*
X3811777Y-15848584D01*
X4011777Y-15848584D02*
X4011777Y-15715250D01*
X4011777Y-15753346D02*
X4021301Y-15734298D01*
X4021301Y-15734298D02*
X4030824Y-15724774D01*
X4030824Y-15724774D02*
X4049872Y-15715250D01*
X4049872Y-15715250D02*
X4068920Y-15715250D01*
X4135586Y-15848584D02*
X4135586Y-15715250D01*
X4135586Y-15648584D02*
X4126062Y-15658108D01*
X4126062Y-15658108D02*
X4135586Y-15667631D01*
X4135586Y-15667631D02*
X4145110Y-15658108D01*
X4145110Y-15658108D02*
X4135586Y-15648584D01*
X4135586Y-15648584D02*
X4135586Y-15667631D01*
X4259396Y-15848584D02*
X4240348Y-15839060D01*
X4240348Y-15839060D02*
X4230824Y-15820012D01*
X4230824Y-15820012D02*
X4230824Y-15648584D01*
X4364158Y-15848584D02*
X4345110Y-15839060D01*
X4345110Y-15839060D02*
X4335586Y-15820012D01*
X4335586Y-15820012D02*
X4335586Y-15648584D01*
X4592729Y-15848584D02*
X4592729Y-15648584D01*
X4592729Y-15648584D02*
X4659396Y-15791441D01*
X4659396Y-15791441D02*
X4726063Y-15648584D01*
X4726063Y-15648584D02*
X4726063Y-15848584D01*
X4907015Y-15848584D02*
X4907015Y-15743822D01*
X4907015Y-15743822D02*
X4897491Y-15724774D01*
X4897491Y-15724774D02*
X4878444Y-15715250D01*
X4878444Y-15715250D02*
X4840348Y-15715250D01*
X4840348Y-15715250D02*
X4821301Y-15724774D01*
X4907015Y-15839060D02*
X4887967Y-15848584D01*
X4887967Y-15848584D02*
X4840348Y-15848584D01*
X4840348Y-15848584D02*
X4821301Y-15839060D01*
X4821301Y-15839060D02*
X4811777Y-15820012D01*
X4811777Y-15820012D02*
X4811777Y-15800965D01*
X4811777Y-15800965D02*
X4821301Y-15781917D01*
X4821301Y-15781917D02*
X4840348Y-15772393D01*
X4840348Y-15772393D02*
X4887967Y-15772393D01*
X4887967Y-15772393D02*
X4907015Y-15762869D01*
X5002253Y-15715250D02*
X5002253Y-15915250D01*
X5002253Y-15724774D02*
X5021301Y-15715250D01*
X5021301Y-15715250D02*
X5059396Y-15715250D01*
X5059396Y-15715250D02*
X5078444Y-15724774D01*
X5078444Y-15724774D02*
X5087967Y-15734298D01*
X5087967Y-15734298D02*
X5097491Y-15753346D01*
X5097491Y-15753346D02*
X5097491Y-15810488D01*
X5097491Y-15810488D02*
X5087967Y-15829536D01*
X5087967Y-15829536D02*
X5078444Y-15839060D01*
X5078444Y-15839060D02*
X5059396Y-15848584D01*
X5059396Y-15848584D02*
X5021301Y-15848584D01*
X5021301Y-15848584D02*
X5002253Y-15839060D01*
X5183205Y-15829536D02*
X5192729Y-15839060D01*
X5192729Y-15839060D02*
X5183205Y-15848584D01*
X5183205Y-15848584D02*
X5173682Y-15839060D01*
X5173682Y-15839060D02*
X5183205Y-15829536D01*
X5183205Y-15829536D02*
X5183205Y-15848584D01*
X5183205Y-15724774D02*
X5192729Y-15734298D01*
X5192729Y-15734298D02*
X5183205Y-15743822D01*
X5183205Y-15743822D02*
X5173682Y-15734298D01*
X5173682Y-15734298D02*
X5183205Y-15724774D01*
X5183205Y-15724774D02*
X5183205Y-15743822D01*
D12*
X3511000Y-16157100D02*
X3551000Y-16197100D01*
X3551000Y-16157100D02*
X3511000Y-16197100D01*
D11*
X3849872Y-16068584D02*
X3868920Y-16068584D01*
X3868920Y-16068584D02*
X3887967Y-16078108D01*
X3887967Y-16078108D02*
X3897491Y-16087631D01*
X3897491Y-16087631D02*
X3907015Y-16106679D01*
X3907015Y-16106679D02*
X3916539Y-16144774D01*
X3916539Y-16144774D02*
X3916539Y-16192393D01*
X3916539Y-16192393D02*
X3907015Y-16230488D01*
X3907015Y-16230488D02*
X3897491Y-16249536D01*
X3897491Y-16249536D02*
X3887967Y-16259060D01*
X3887967Y-16259060D02*
X3868920Y-16268584D01*
X3868920Y-16268584D02*
X3849872Y-16268584D01*
X3849872Y-16268584D02*
X3830824Y-16259060D01*
X3830824Y-16259060D02*
X3821301Y-16249536D01*
X3821301Y-16249536D02*
X3811777Y-16230488D01*
X3811777Y-16230488D02*
X3802253Y-16192393D01*
X3802253Y-16192393D02*
X3802253Y-16144774D01*
X3802253Y-16144774D02*
X3811777Y-16106679D01*
X3811777Y-16106679D02*
X3821301Y-16087631D01*
X3821301Y-16087631D02*
X3830824Y-16078108D01*
X3830824Y-16078108D02*
X3849872Y-16068584D01*
X4002253Y-16249536D02*
X4011777Y-16259060D01*
X4011777Y-16259060D02*
X4002253Y-16268584D01*
X4002253Y-16268584D02*
X3992729Y-16259060D01*
X3992729Y-16259060D02*
X4002253Y-16249536D01*
X4002253Y-16249536D02*
X4002253Y-16268584D01*
X4183205Y-16135250D02*
X4183205Y-16268584D01*
X4135586Y-16059060D02*
X4087967Y-16201917D01*
X4087967Y-16201917D02*
X4211777Y-16201917D01*
X4326063Y-16068584D02*
X4345110Y-16068584D01*
X4345110Y-16068584D02*
X4364158Y-16078108D01*
X4364158Y-16078108D02*
X4373682Y-16087631D01*
X4373682Y-16087631D02*
X4383205Y-16106679D01*
X4383205Y-16106679D02*
X4392729Y-16144774D01*
X4392729Y-16144774D02*
X4392729Y-16192393D01*
X4392729Y-16192393D02*
X4383205Y-16230488D01*
X4383205Y-16230488D02*
X4373682Y-16249536D01*
X4373682Y-16249536D02*
X4364158Y-16259060D01*
X4364158Y-16259060D02*
X4345110Y-16268584D01*
X4345110Y-16268584D02*
X4326063Y-16268584D01*
X4326063Y-16268584D02*
X4307015Y-16259060D01*
X4307015Y-16259060D02*
X4297491Y-16249536D01*
X4297491Y-16249536D02*
X4287967Y-16230488D01*
X4287967Y-16230488D02*
X4278444Y-16192393D01*
X4278444Y-16192393D02*
X4278444Y-16144774D01*
X4278444Y-16144774D02*
X4287967Y-16106679D01*
X4287967Y-16106679D02*
X4297491Y-16087631D01*
X4297491Y-16087631D02*
X4307015Y-16078108D01*
X4307015Y-16078108D02*
X4326063Y-16068584D01*
X4516539Y-16068584D02*
X4535586Y-16068584D01*
X4535586Y-16068584D02*
X4554634Y-16078108D01*
X4554634Y-16078108D02*
X4564158Y-16087631D01*
X4564158Y-16087631D02*
X4573682Y-16106679D01*
X4573682Y-16106679D02*
X4583205Y-16144774D01*
X4583205Y-16144774D02*
X4583205Y-16192393D01*
X4583205Y-16192393D02*
X4573682Y-16230488D01*
X4573682Y-16230488D02*
X4564158Y-16249536D01*
X4564158Y-16249536D02*
X4554634Y-16259060D01*
X4554634Y-16259060D02*
X4535586Y-16268584D01*
X4535586Y-16268584D02*
X4516539Y-16268584D01*
X4516539Y-16268584D02*
X4497491Y-16259060D01*
X4497491Y-16259060D02*
X4487967Y-16249536D01*
X4487967Y-16249536D02*
X4478444Y-16230488D01*
X4478444Y-16230488D02*
X4468920Y-16192393D01*
X4468920Y-16192393D02*
X4468920Y-16144774D01*
X4468920Y-16144774D02*
X4478444Y-16106679D01*
X4478444Y-16106679D02*
X4487967Y-16087631D01*
X4487967Y-16087631D02*
X4497491Y-16078108D01*
X4497491Y-16078108D02*
X4516539Y-16068584D01*
X4668920Y-16268584D02*
X4668920Y-16135250D01*
X4668920Y-16154298D02*
X4678444Y-16144774D01*
X4678444Y-16144774D02*
X4697491Y-16135250D01*
X4697491Y-16135250D02*
X4726063Y-16135250D01*
X4726063Y-16135250D02*
X4745110Y-16144774D01*
X4745110Y-16144774D02*
X4754634Y-16163822D01*
X4754634Y-16163822D02*
X4754634Y-16268584D01*
X4754634Y-16163822D02*
X4764158Y-16144774D01*
X4764158Y-16144774D02*
X4783205Y-16135250D01*
X4783205Y-16135250D02*
X4811777Y-16135250D01*
X4811777Y-16135250D02*
X4830825Y-16144774D01*
X4830825Y-16144774D02*
X4840348Y-16163822D01*
X4840348Y-16163822D02*
X4840348Y-16268584D01*
X4935586Y-16268584D02*
X4935586Y-16135250D01*
X4935586Y-16154298D02*
X4945110Y-16144774D01*
X4945110Y-16144774D02*
X4964158Y-16135250D01*
X4964158Y-16135250D02*
X4992729Y-16135250D01*
X4992729Y-16135250D02*
X5011777Y-16144774D01*
X5011777Y-16144774D02*
X5021301Y-16163822D01*
X5021301Y-16163822D02*
X5021301Y-16268584D01*
X5021301Y-16163822D02*
X5030825Y-16144774D01*
X5030825Y-16144774D02*
X5049872Y-16135250D01*
X5049872Y-16135250D02*
X5078444Y-16135250D01*
X5078444Y-16135250D02*
X5097491Y-16144774D01*
X5097491Y-16144774D02*
X5107015Y-16163822D01*
X5107015Y-16163822D02*
X5107015Y-16268584D01*
X5497491Y-16059060D02*
X5326063Y-16316203D01*
X5754634Y-16068584D02*
X5773682Y-16068584D01*
X5773682Y-16068584D02*
X5792729Y-16078108D01*
X5792729Y-16078108D02*
X5802253Y-16087631D01*
X5802253Y-16087631D02*
X5811777Y-16106679D01*
X5811777Y-16106679D02*
X5821301Y-16144774D01*
X5821301Y-16144774D02*
X5821301Y-16192393D01*
X5821301Y-16192393D02*
X5811777Y-16230488D01*
X5811777Y-16230488D02*
X5802253Y-16249536D01*
X5802253Y-16249536D02*
X5792729Y-16259060D01*
X5792729Y-16259060D02*
X5773682Y-16268584D01*
X5773682Y-16268584D02*
X5754634Y-16268584D01*
X5754634Y-16268584D02*
X5735586Y-16259060D01*
X5735586Y-16259060D02*
X5726063Y-16249536D01*
X5726063Y-16249536D02*
X5716539Y-16230488D01*
X5716539Y-16230488D02*
X5707015Y-16192393D01*
X5707015Y-16192393D02*
X5707015Y-16144774D01*
X5707015Y-16144774D02*
X5716539Y-16106679D01*
X5716539Y-16106679D02*
X5726063Y-16087631D01*
X5726063Y-16087631D02*
X5735586Y-16078108D01*
X5735586Y-16078108D02*
X5754634Y-16068584D01*
X5907015Y-16249536D02*
X5916539Y-16259060D01*
X5916539Y-16259060D02*
X5907015Y-16268584D01*
X5907015Y-16268584D02*
X5897491Y-16259060D01*
X5897491Y-16259060D02*
X5907015Y-16249536D01*
X5907015Y-16249536D02*
X5907015Y-16268584D01*
X6040348Y-16068584D02*
X6059396Y-16068584D01*
X6059396Y-16068584D02*
X6078444Y-16078108D01*
X6078444Y-16078108D02*
X6087967Y-16087631D01*
X6087967Y-16087631D02*
X6097491Y-16106679D01*
X6097491Y-16106679D02*
X6107015Y-16144774D01*
X6107015Y-16144774D02*
X6107015Y-16192393D01*
X6107015Y-16192393D02*
X6097491Y-16230488D01*
X6097491Y-16230488D02*
X6087967Y-16249536D01*
X6087967Y-16249536D02*
X6078444Y-16259060D01*
X6078444Y-16259060D02*
X6059396Y-16268584D01*
X6059396Y-16268584D02*
X6040348Y-16268584D01*
X6040348Y-16268584D02*
X6021301Y-16259060D01*
X6021301Y-16259060D02*
X6011777Y-16249536D01*
X6011777Y-16249536D02*
X6002253Y-16230488D01*
X6002253Y-16230488D02*
X5992729Y-16192393D01*
X5992729Y-16192393D02*
X5992729Y-16144774D01*
X5992729Y-16144774D02*
X6002253Y-16106679D01*
X6002253Y-16106679D02*
X6011777Y-16087631D01*
X6011777Y-16087631D02*
X6021301Y-16078108D01*
X6021301Y-16078108D02*
X6040348Y-16068584D01*
X6297491Y-16268584D02*
X6183206Y-16268584D01*
X6240348Y-16268584D02*
X6240348Y-16068584D01*
X6240348Y-16068584D02*
X6221301Y-16097155D01*
X6221301Y-16097155D02*
X6202253Y-16116203D01*
X6202253Y-16116203D02*
X6183206Y-16125727D01*
X6478444Y-16068584D02*
X6383206Y-16068584D01*
X6383206Y-16068584D02*
X6373682Y-16163822D01*
X6373682Y-16163822D02*
X6383206Y-16154298D01*
X6383206Y-16154298D02*
X6402253Y-16144774D01*
X6402253Y-16144774D02*
X6449872Y-16144774D01*
X6449872Y-16144774D02*
X6468920Y-16154298D01*
X6468920Y-16154298D02*
X6478444Y-16163822D01*
X6478444Y-16163822D02*
X6487967Y-16182869D01*
X6487967Y-16182869D02*
X6487967Y-16230488D01*
X6487967Y-16230488D02*
X6478444Y-16249536D01*
X6478444Y-16249536D02*
X6468920Y-16259060D01*
X6468920Y-16259060D02*
X6449872Y-16268584D01*
X6449872Y-16268584D02*
X6402253Y-16268584D01*
X6402253Y-16268584D02*
X6383206Y-16259060D01*
X6383206Y-16259060D02*
X6373682Y-16249536D01*
X6554634Y-16068584D02*
X6687967Y-16068584D01*
X6687967Y-16068584D02*
X6602253Y-16268584D01*
X6754634Y-16068584D02*
X6754634Y-16106679D01*
X6830825Y-16068584D02*
X6830825Y-16106679D01*
X7126063Y-16344774D02*
X7116539Y-16335250D01*
X7116539Y-16335250D02*
X7097491Y-16306679D01*
X7097491Y-16306679D02*
X7087968Y-16287631D01*
X7087968Y-16287631D02*
X7078444Y-16259060D01*
X7078444Y-16259060D02*
X7068920Y-16211441D01*
X7068920Y-16211441D02*
X7068920Y-16173346D01*
X7068920Y-16173346D02*
X7078444Y-16125727D01*
X7078444Y-16125727D02*
X7087968Y-16097155D01*
X7087968Y-16097155D02*
X7097491Y-16078108D01*
X7097491Y-16078108D02*
X7116539Y-16049536D01*
X7116539Y-16049536D02*
X7126063Y-16040012D01*
X7183206Y-16068584D02*
X7316539Y-16068584D01*
X7316539Y-16068584D02*
X7230825Y-16268584D01*
X7402253Y-16268584D02*
X7440348Y-16268584D01*
X7440348Y-16268584D02*
X7459396Y-16259060D01*
X7459396Y-16259060D02*
X7468920Y-16249536D01*
X7468920Y-16249536D02*
X7487968Y-16220965D01*
X7487968Y-16220965D02*
X7497491Y-16182869D01*
X7497491Y-16182869D02*
X7497491Y-16106679D01*
X7497491Y-16106679D02*
X7487968Y-16087631D01*
X7487968Y-16087631D02*
X7478444Y-16078108D01*
X7478444Y-16078108D02*
X7459396Y-16068584D01*
X7459396Y-16068584D02*
X7421301Y-16068584D01*
X7421301Y-16068584D02*
X7402253Y-16078108D01*
X7402253Y-16078108D02*
X7392729Y-16087631D01*
X7392729Y-16087631D02*
X7383206Y-16106679D01*
X7383206Y-16106679D02*
X7383206Y-16154298D01*
X7383206Y-16154298D02*
X7392729Y-16173346D01*
X7392729Y-16173346D02*
X7402253Y-16182869D01*
X7402253Y-16182869D02*
X7421301Y-16192393D01*
X7421301Y-16192393D02*
X7459396Y-16192393D01*
X7459396Y-16192393D02*
X7478444Y-16182869D01*
X7478444Y-16182869D02*
X7487968Y-16173346D01*
X7487968Y-16173346D02*
X7497491Y-16154298D01*
X7735587Y-16268584D02*
X7735587Y-16068584D01*
X7821301Y-16268584D02*
X7821301Y-16163822D01*
X7821301Y-16163822D02*
X7811777Y-16144774D01*
X7811777Y-16144774D02*
X7792730Y-16135250D01*
X7792730Y-16135250D02*
X7764158Y-16135250D01*
X7764158Y-16135250D02*
X7745110Y-16144774D01*
X7745110Y-16144774D02*
X7735587Y-16154298D01*
X7945110Y-16268584D02*
X7926063Y-16259060D01*
X7926063Y-16259060D02*
X7916539Y-16249536D01*
X7916539Y-16249536D02*
X7907015Y-16230488D01*
X7907015Y-16230488D02*
X7907015Y-16173346D01*
X7907015Y-16173346D02*
X7916539Y-16154298D01*
X7916539Y-16154298D02*
X7926063Y-16144774D01*
X7926063Y-16144774D02*
X7945110Y-16135250D01*
X7945110Y-16135250D02*
X7973682Y-16135250D01*
X7973682Y-16135250D02*
X7992730Y-16144774D01*
X7992730Y-16144774D02*
X8002253Y-16154298D01*
X8002253Y-16154298D02*
X8011777Y-16173346D01*
X8011777Y-16173346D02*
X8011777Y-16230488D01*
X8011777Y-16230488D02*
X8002253Y-16249536D01*
X8002253Y-16249536D02*
X7992730Y-16259060D01*
X7992730Y-16259060D02*
X7973682Y-16268584D01*
X7973682Y-16268584D02*
X7945110Y-16268584D01*
X8126063Y-16268584D02*
X8107015Y-16259060D01*
X8107015Y-16259060D02*
X8097491Y-16240012D01*
X8097491Y-16240012D02*
X8097491Y-16068584D01*
X8278444Y-16259060D02*
X8259396Y-16268584D01*
X8259396Y-16268584D02*
X8221301Y-16268584D01*
X8221301Y-16268584D02*
X8202253Y-16259060D01*
X8202253Y-16259060D02*
X8192730Y-16240012D01*
X8192730Y-16240012D02*
X8192730Y-16163822D01*
X8192730Y-16163822D02*
X8202253Y-16144774D01*
X8202253Y-16144774D02*
X8221301Y-16135250D01*
X8221301Y-16135250D02*
X8259396Y-16135250D01*
X8259396Y-16135250D02*
X8278444Y-16144774D01*
X8278444Y-16144774D02*
X8287968Y-16163822D01*
X8287968Y-16163822D02*
X8287968Y-16182869D01*
X8287968Y-16182869D02*
X8192730Y-16201917D01*
X8364158Y-16259060D02*
X8383206Y-16268584D01*
X8383206Y-16268584D02*
X8421301Y-16268584D01*
X8421301Y-16268584D02*
X8440349Y-16259060D01*
X8440349Y-16259060D02*
X8449873Y-16240012D01*
X8449873Y-16240012D02*
X8449873Y-16230488D01*
X8449873Y-16230488D02*
X8440349Y-16211441D01*
X8440349Y-16211441D02*
X8421301Y-16201917D01*
X8421301Y-16201917D02*
X8392730Y-16201917D01*
X8392730Y-16201917D02*
X8373682Y-16192393D01*
X8373682Y-16192393D02*
X8364158Y-16173346D01*
X8364158Y-16173346D02*
X8364158Y-16163822D01*
X8364158Y-16163822D02*
X8373682Y-16144774D01*
X8373682Y-16144774D02*
X8392730Y-16135250D01*
X8392730Y-16135250D02*
X8421301Y-16135250D01*
X8421301Y-16135250D02*
X8440349Y-16144774D01*
X8516539Y-16344774D02*
X8526063Y-16335250D01*
X8526063Y-16335250D02*
X8545111Y-16306679D01*
X8545111Y-16306679D02*
X8554634Y-16287631D01*
X8554634Y-16287631D02*
X8564158Y-16259060D01*
X8564158Y-16259060D02*
X8573682Y-16211441D01*
X8573682Y-16211441D02*
X8573682Y-16173346D01*
X8573682Y-16173346D02*
X8564158Y-16125727D01*
X8564158Y-16125727D02*
X8554634Y-16097155D01*
X8554634Y-16097155D02*
X8545111Y-16078108D01*
X8545111Y-16078108D02*
X8526063Y-16049536D01*
X8526063Y-16049536D02*
X8516539Y-16040012D01*
D13*
X3551000Y-16441100D02*
G75*
G03*
X3551000Y-16441100I-40000J0D01*
G01*
D11*
X3849872Y-16332584D02*
X3868920Y-16332584D01*
X3868920Y-16332584D02*
X3887967Y-16342108D01*
X3887967Y-16342108D02*
X3897491Y-16351631D01*
X3897491Y-16351631D02*
X3907015Y-16370679D01*
X3907015Y-16370679D02*
X3916539Y-16408774D01*
X3916539Y-16408774D02*
X3916539Y-16456393D01*
X3916539Y-16456393D02*
X3907015Y-16494488D01*
X3907015Y-16494488D02*
X3897491Y-16513536D01*
X3897491Y-16513536D02*
X3887967Y-16523060D01*
X3887967Y-16523060D02*
X3868920Y-16532584D01*
X3868920Y-16532584D02*
X3849872Y-16532584D01*
X3849872Y-16532584D02*
X3830824Y-16523060D01*
X3830824Y-16523060D02*
X3821301Y-16513536D01*
X3821301Y-16513536D02*
X3811777Y-16494488D01*
X3811777Y-16494488D02*
X3802253Y-16456393D01*
X3802253Y-16456393D02*
X3802253Y-16408774D01*
X3802253Y-16408774D02*
X3811777Y-16370679D01*
X3811777Y-16370679D02*
X3821301Y-16351631D01*
X3821301Y-16351631D02*
X3830824Y-16342108D01*
X3830824Y-16342108D02*
X3849872Y-16332584D01*
X4002253Y-16513536D02*
X4011777Y-16523060D01*
X4011777Y-16523060D02*
X4002253Y-16532584D01*
X4002253Y-16532584D02*
X3992729Y-16523060D01*
X3992729Y-16523060D02*
X4002253Y-16513536D01*
X4002253Y-16513536D02*
X4002253Y-16532584D01*
X4126062Y-16418298D02*
X4107015Y-16408774D01*
X4107015Y-16408774D02*
X4097491Y-16399250D01*
X4097491Y-16399250D02*
X4087967Y-16380203D01*
X4087967Y-16380203D02*
X4087967Y-16370679D01*
X4087967Y-16370679D02*
X4097491Y-16351631D01*
X4097491Y-16351631D02*
X4107015Y-16342108D01*
X4107015Y-16342108D02*
X4126062Y-16332584D01*
X4126062Y-16332584D02*
X4164158Y-16332584D01*
X4164158Y-16332584D02*
X4183205Y-16342108D01*
X4183205Y-16342108D02*
X4192729Y-16351631D01*
X4192729Y-16351631D02*
X4202253Y-16370679D01*
X4202253Y-16370679D02*
X4202253Y-16380203D01*
X4202253Y-16380203D02*
X4192729Y-16399250D01*
X4192729Y-16399250D02*
X4183205Y-16408774D01*
X4183205Y-16408774D02*
X4164158Y-16418298D01*
X4164158Y-16418298D02*
X4126062Y-16418298D01*
X4126062Y-16418298D02*
X4107015Y-16427822D01*
X4107015Y-16427822D02*
X4097491Y-16437346D01*
X4097491Y-16437346D02*
X4087967Y-16456393D01*
X4087967Y-16456393D02*
X4087967Y-16494488D01*
X4087967Y-16494488D02*
X4097491Y-16513536D01*
X4097491Y-16513536D02*
X4107015Y-16523060D01*
X4107015Y-16523060D02*
X4126062Y-16532584D01*
X4126062Y-16532584D02*
X4164158Y-16532584D01*
X4164158Y-16532584D02*
X4183205Y-16523060D01*
X4183205Y-16523060D02*
X4192729Y-16513536D01*
X4192729Y-16513536D02*
X4202253Y-16494488D01*
X4202253Y-16494488D02*
X4202253Y-16456393D01*
X4202253Y-16456393D02*
X4192729Y-16437346D01*
X4192729Y-16437346D02*
X4183205Y-16427822D01*
X4183205Y-16427822D02*
X4164158Y-16418298D01*
X4326063Y-16332584D02*
X4345110Y-16332584D01*
X4345110Y-16332584D02*
X4364158Y-16342108D01*
X4364158Y-16342108D02*
X4373682Y-16351631D01*
X4373682Y-16351631D02*
X4383205Y-16370679D01*
X4383205Y-16370679D02*
X4392729Y-16408774D01*
X4392729Y-16408774D02*
X4392729Y-16456393D01*
X4392729Y-16456393D02*
X4383205Y-16494488D01*
X4383205Y-16494488D02*
X4373682Y-16513536D01*
X4373682Y-16513536D02*
X4364158Y-16523060D01*
X4364158Y-16523060D02*
X4345110Y-16532584D01*
X4345110Y-16532584D02*
X4326063Y-16532584D01*
X4326063Y-16532584D02*
X4307015Y-16523060D01*
X4307015Y-16523060D02*
X4297491Y-16513536D01*
X4297491Y-16513536D02*
X4287967Y-16494488D01*
X4287967Y-16494488D02*
X4278444Y-16456393D01*
X4278444Y-16456393D02*
X4278444Y-16408774D01*
X4278444Y-16408774D02*
X4287967Y-16370679D01*
X4287967Y-16370679D02*
X4297491Y-16351631D01*
X4297491Y-16351631D02*
X4307015Y-16342108D01*
X4307015Y-16342108D02*
X4326063Y-16332584D01*
X4516539Y-16332584D02*
X4535586Y-16332584D01*
X4535586Y-16332584D02*
X4554634Y-16342108D01*
X4554634Y-16342108D02*
X4564158Y-16351631D01*
X4564158Y-16351631D02*
X4573682Y-16370679D01*
X4573682Y-16370679D02*
X4583205Y-16408774D01*
X4583205Y-16408774D02*
X4583205Y-16456393D01*
X4583205Y-16456393D02*
X4573682Y-16494488D01*
X4573682Y-16494488D02*
X4564158Y-16513536D01*
X4564158Y-16513536D02*
X4554634Y-16523060D01*
X4554634Y-16523060D02*
X4535586Y-16532584D01*
X4535586Y-16532584D02*
X4516539Y-16532584D01*
X4516539Y-16532584D02*
X4497491Y-16523060D01*
X4497491Y-16523060D02*
X4487967Y-16513536D01*
X4487967Y-16513536D02*
X4478444Y-16494488D01*
X4478444Y-16494488D02*
X4468920Y-16456393D01*
X4468920Y-16456393D02*
X4468920Y-16408774D01*
X4468920Y-16408774D02*
X4478444Y-16370679D01*
X4478444Y-16370679D02*
X4487967Y-16351631D01*
X4487967Y-16351631D02*
X4497491Y-16342108D01*
X4497491Y-16342108D02*
X4516539Y-16332584D01*
X4668920Y-16532584D02*
X4668920Y-16399250D01*
X4668920Y-16418298D02*
X4678444Y-16408774D01*
X4678444Y-16408774D02*
X4697491Y-16399250D01*
X4697491Y-16399250D02*
X4726063Y-16399250D01*
X4726063Y-16399250D02*
X4745110Y-16408774D01*
X4745110Y-16408774D02*
X4754634Y-16427822D01*
X4754634Y-16427822D02*
X4754634Y-16532584D01*
X4754634Y-16427822D02*
X4764158Y-16408774D01*
X4764158Y-16408774D02*
X4783205Y-16399250D01*
X4783205Y-16399250D02*
X4811777Y-16399250D01*
X4811777Y-16399250D02*
X4830825Y-16408774D01*
X4830825Y-16408774D02*
X4840348Y-16427822D01*
X4840348Y-16427822D02*
X4840348Y-16532584D01*
X4935586Y-16532584D02*
X4935586Y-16399250D01*
X4935586Y-16418298D02*
X4945110Y-16408774D01*
X4945110Y-16408774D02*
X4964158Y-16399250D01*
X4964158Y-16399250D02*
X4992729Y-16399250D01*
X4992729Y-16399250D02*
X5011777Y-16408774D01*
X5011777Y-16408774D02*
X5021301Y-16427822D01*
X5021301Y-16427822D02*
X5021301Y-16532584D01*
X5021301Y-16427822D02*
X5030825Y-16408774D01*
X5030825Y-16408774D02*
X5049872Y-16399250D01*
X5049872Y-16399250D02*
X5078444Y-16399250D01*
X5078444Y-16399250D02*
X5097491Y-16408774D01*
X5097491Y-16408774D02*
X5107015Y-16427822D01*
X5107015Y-16427822D02*
X5107015Y-16532584D01*
X5497491Y-16323060D02*
X5326063Y-16580203D01*
X5754634Y-16332584D02*
X5773682Y-16332584D01*
X5773682Y-16332584D02*
X5792729Y-16342108D01*
X5792729Y-16342108D02*
X5802253Y-16351631D01*
X5802253Y-16351631D02*
X5811777Y-16370679D01*
X5811777Y-16370679D02*
X5821301Y-16408774D01*
X5821301Y-16408774D02*
X5821301Y-16456393D01*
X5821301Y-16456393D02*
X5811777Y-16494488D01*
X5811777Y-16494488D02*
X5802253Y-16513536D01*
X5802253Y-16513536D02*
X5792729Y-16523060D01*
X5792729Y-16523060D02*
X5773682Y-16532584D01*
X5773682Y-16532584D02*
X5754634Y-16532584D01*
X5754634Y-16532584D02*
X5735586Y-16523060D01*
X5735586Y-16523060D02*
X5726063Y-16513536D01*
X5726063Y-16513536D02*
X5716539Y-16494488D01*
X5716539Y-16494488D02*
X5707015Y-16456393D01*
X5707015Y-16456393D02*
X5707015Y-16408774D01*
X5707015Y-16408774D02*
X5716539Y-16370679D01*
X5716539Y-16370679D02*
X5726063Y-16351631D01*
X5726063Y-16351631D02*
X5735586Y-16342108D01*
X5735586Y-16342108D02*
X5754634Y-16332584D01*
X5907015Y-16513536D02*
X5916539Y-16523060D01*
X5916539Y-16523060D02*
X5907015Y-16532584D01*
X5907015Y-16532584D02*
X5897491Y-16523060D01*
X5897491Y-16523060D02*
X5907015Y-16513536D01*
X5907015Y-16513536D02*
X5907015Y-16532584D01*
X6040348Y-16332584D02*
X6059396Y-16332584D01*
X6059396Y-16332584D02*
X6078444Y-16342108D01*
X6078444Y-16342108D02*
X6087967Y-16351631D01*
X6087967Y-16351631D02*
X6097491Y-16370679D01*
X6097491Y-16370679D02*
X6107015Y-16408774D01*
X6107015Y-16408774D02*
X6107015Y-16456393D01*
X6107015Y-16456393D02*
X6097491Y-16494488D01*
X6097491Y-16494488D02*
X6087967Y-16513536D01*
X6087967Y-16513536D02*
X6078444Y-16523060D01*
X6078444Y-16523060D02*
X6059396Y-16532584D01*
X6059396Y-16532584D02*
X6040348Y-16532584D01*
X6040348Y-16532584D02*
X6021301Y-16523060D01*
X6021301Y-16523060D02*
X6011777Y-16513536D01*
X6011777Y-16513536D02*
X6002253Y-16494488D01*
X6002253Y-16494488D02*
X5992729Y-16456393D01*
X5992729Y-16456393D02*
X5992729Y-16408774D01*
X5992729Y-16408774D02*
X6002253Y-16370679D01*
X6002253Y-16370679D02*
X6011777Y-16351631D01*
X6011777Y-16351631D02*
X6021301Y-16342108D01*
X6021301Y-16342108D02*
X6040348Y-16332584D01*
X6173682Y-16332584D02*
X6297491Y-16332584D01*
X6297491Y-16332584D02*
X6230825Y-16408774D01*
X6230825Y-16408774D02*
X6259396Y-16408774D01*
X6259396Y-16408774D02*
X6278444Y-16418298D01*
X6278444Y-16418298D02*
X6287967Y-16427822D01*
X6287967Y-16427822D02*
X6297491Y-16446869D01*
X6297491Y-16446869D02*
X6297491Y-16494488D01*
X6297491Y-16494488D02*
X6287967Y-16513536D01*
X6287967Y-16513536D02*
X6278444Y-16523060D01*
X6278444Y-16523060D02*
X6259396Y-16532584D01*
X6259396Y-16532584D02*
X6202253Y-16532584D01*
X6202253Y-16532584D02*
X6183206Y-16523060D01*
X6183206Y-16523060D02*
X6173682Y-16513536D01*
X6487967Y-16532584D02*
X6373682Y-16532584D01*
X6430825Y-16532584D02*
X6430825Y-16332584D01*
X6430825Y-16332584D02*
X6411777Y-16361155D01*
X6411777Y-16361155D02*
X6392729Y-16380203D01*
X6392729Y-16380203D02*
X6373682Y-16389727D01*
X6668920Y-16332584D02*
X6573682Y-16332584D01*
X6573682Y-16332584D02*
X6564158Y-16427822D01*
X6564158Y-16427822D02*
X6573682Y-16418298D01*
X6573682Y-16418298D02*
X6592729Y-16408774D01*
X6592729Y-16408774D02*
X6640348Y-16408774D01*
X6640348Y-16408774D02*
X6659396Y-16418298D01*
X6659396Y-16418298D02*
X6668920Y-16427822D01*
X6668920Y-16427822D02*
X6678444Y-16446869D01*
X6678444Y-16446869D02*
X6678444Y-16494488D01*
X6678444Y-16494488D02*
X6668920Y-16513536D01*
X6668920Y-16513536D02*
X6659396Y-16523060D01*
X6659396Y-16523060D02*
X6640348Y-16532584D01*
X6640348Y-16532584D02*
X6592729Y-16532584D01*
X6592729Y-16532584D02*
X6573682Y-16523060D01*
X6573682Y-16523060D02*
X6564158Y-16513536D01*
X6754634Y-16332584D02*
X6754634Y-16370679D01*
X6830825Y-16332584D02*
X6830825Y-16370679D01*
X7126063Y-16608774D02*
X7116539Y-16599250D01*
X7116539Y-16599250D02*
X7097491Y-16570679D01*
X7097491Y-16570679D02*
X7087968Y-16551631D01*
X7087968Y-16551631D02*
X7078444Y-16523060D01*
X7078444Y-16523060D02*
X7068920Y-16475441D01*
X7068920Y-16475441D02*
X7068920Y-16437346D01*
X7068920Y-16437346D02*
X7078444Y-16389727D01*
X7078444Y-16389727D02*
X7087968Y-16361155D01*
X7087968Y-16361155D02*
X7097491Y-16342108D01*
X7097491Y-16342108D02*
X7116539Y-16313536D01*
X7116539Y-16313536D02*
X7126063Y-16304012D01*
X7297491Y-16332584D02*
X7202253Y-16332584D01*
X7202253Y-16332584D02*
X7192729Y-16427822D01*
X7192729Y-16427822D02*
X7202253Y-16418298D01*
X7202253Y-16418298D02*
X7221301Y-16408774D01*
X7221301Y-16408774D02*
X7268920Y-16408774D01*
X7268920Y-16408774D02*
X7287968Y-16418298D01*
X7287968Y-16418298D02*
X7297491Y-16427822D01*
X7297491Y-16427822D02*
X7307015Y-16446869D01*
X7307015Y-16446869D02*
X7307015Y-16494488D01*
X7307015Y-16494488D02*
X7297491Y-16513536D01*
X7297491Y-16513536D02*
X7287968Y-16523060D01*
X7287968Y-16523060D02*
X7268920Y-16532584D01*
X7268920Y-16532584D02*
X7221301Y-16532584D01*
X7221301Y-16532584D02*
X7202253Y-16523060D01*
X7202253Y-16523060D02*
X7192729Y-16513536D01*
X7373682Y-16332584D02*
X7507015Y-16332584D01*
X7507015Y-16332584D02*
X7421301Y-16532584D01*
X7668920Y-16332584D02*
X7630825Y-16332584D01*
X7630825Y-16332584D02*
X7611777Y-16342108D01*
X7611777Y-16342108D02*
X7602253Y-16351631D01*
X7602253Y-16351631D02*
X7583206Y-16380203D01*
X7583206Y-16380203D02*
X7573682Y-16418298D01*
X7573682Y-16418298D02*
X7573682Y-16494488D01*
X7573682Y-16494488D02*
X7583206Y-16513536D01*
X7583206Y-16513536D02*
X7592729Y-16523060D01*
X7592729Y-16523060D02*
X7611777Y-16532584D01*
X7611777Y-16532584D02*
X7649872Y-16532584D01*
X7649872Y-16532584D02*
X7668920Y-16523060D01*
X7668920Y-16523060D02*
X7678444Y-16513536D01*
X7678444Y-16513536D02*
X7687968Y-16494488D01*
X7687968Y-16494488D02*
X7687968Y-16446869D01*
X7687968Y-16446869D02*
X7678444Y-16427822D01*
X7678444Y-16427822D02*
X7668920Y-16418298D01*
X7668920Y-16418298D02*
X7649872Y-16408774D01*
X7649872Y-16408774D02*
X7611777Y-16408774D01*
X7611777Y-16408774D02*
X7592729Y-16418298D01*
X7592729Y-16418298D02*
X7583206Y-16427822D01*
X7583206Y-16427822D02*
X7573682Y-16446869D01*
X7926063Y-16532584D02*
X7926063Y-16332584D01*
X8011777Y-16532584D02*
X8011777Y-16427822D01*
X8011777Y-16427822D02*
X8002253Y-16408774D01*
X8002253Y-16408774D02*
X7983206Y-16399250D01*
X7983206Y-16399250D02*
X7954634Y-16399250D01*
X7954634Y-16399250D02*
X7935587Y-16408774D01*
X7935587Y-16408774D02*
X7926063Y-16418298D01*
X8135587Y-16532584D02*
X8116539Y-16523060D01*
X8116539Y-16523060D02*
X8107015Y-16513536D01*
X8107015Y-16513536D02*
X8097491Y-16494488D01*
X8097491Y-16494488D02*
X8097491Y-16437346D01*
X8097491Y-16437346D02*
X8107015Y-16418298D01*
X8107015Y-16418298D02*
X8116539Y-16408774D01*
X8116539Y-16408774D02*
X8135587Y-16399250D01*
X8135587Y-16399250D02*
X8164158Y-16399250D01*
X8164158Y-16399250D02*
X8183206Y-16408774D01*
X8183206Y-16408774D02*
X8192730Y-16418298D01*
X8192730Y-16418298D02*
X8202253Y-16437346D01*
X8202253Y-16437346D02*
X8202253Y-16494488D01*
X8202253Y-16494488D02*
X8192730Y-16513536D01*
X8192730Y-16513536D02*
X8183206Y-16523060D01*
X8183206Y-16523060D02*
X8164158Y-16532584D01*
X8164158Y-16532584D02*
X8135587Y-16532584D01*
X8316539Y-16532584D02*
X8297491Y-16523060D01*
X8297491Y-16523060D02*
X8287968Y-16504012D01*
X8287968Y-16504012D02*
X8287968Y-16332584D01*
X8468920Y-16523060D02*
X8449873Y-16532584D01*
X8449873Y-16532584D02*
X8411777Y-16532584D01*
X8411777Y-16532584D02*
X8392730Y-16523060D01*
X8392730Y-16523060D02*
X8383206Y-16504012D01*
X8383206Y-16504012D02*
X8383206Y-16427822D01*
X8383206Y-16427822D02*
X8392730Y-16408774D01*
X8392730Y-16408774D02*
X8411777Y-16399250D01*
X8411777Y-16399250D02*
X8449873Y-16399250D01*
X8449873Y-16399250D02*
X8468920Y-16408774D01*
X8468920Y-16408774D02*
X8478444Y-16427822D01*
X8478444Y-16427822D02*
X8478444Y-16446869D01*
X8478444Y-16446869D02*
X8383206Y-16465917D01*
X8554634Y-16523060D02*
X8573682Y-16532584D01*
X8573682Y-16532584D02*
X8611777Y-16532584D01*
X8611777Y-16532584D02*
X8630825Y-16523060D01*
X8630825Y-16523060D02*
X8640349Y-16504012D01*
X8640349Y-16504012D02*
X8640349Y-16494488D01*
X8640349Y-16494488D02*
X8630825Y-16475441D01*
X8630825Y-16475441D02*
X8611777Y-16465917D01*
X8611777Y-16465917D02*
X8583206Y-16465917D01*
X8583206Y-16465917D02*
X8564158Y-16456393D01*
X8564158Y-16456393D02*
X8554634Y-16437346D01*
X8554634Y-16437346D02*
X8554634Y-16427822D01*
X8554634Y-16427822D02*
X8564158Y-16408774D01*
X8564158Y-16408774D02*
X8583206Y-16399250D01*
X8583206Y-16399250D02*
X8611777Y-16399250D01*
X8611777Y-16399250D02*
X8630825Y-16408774D01*
X8707015Y-16608774D02*
X8716539Y-16599250D01*
X8716539Y-16599250D02*
X8735587Y-16570679D01*
X8735587Y-16570679D02*
X8745111Y-16551631D01*
X8745111Y-16551631D02*
X8754634Y-16523060D01*
X8754634Y-16523060D02*
X8764158Y-16475441D01*
X8764158Y-16475441D02*
X8764158Y-16437346D01*
X8764158Y-16437346D02*
X8754634Y-16389727D01*
X8754634Y-16389727D02*
X8745111Y-16361155D01*
X8745111Y-16361155D02*
X8735587Y-16342108D01*
X8735587Y-16342108D02*
X8716539Y-16313536D01*
X8716539Y-16313536D02*
X8707015Y-16304012D01*
D10*
X3501000Y-16655100D02*
X3501000Y-16755100D01*
X3451000Y-16705100D02*
X3551000Y-16705100D01*
D11*
X3916539Y-16796584D02*
X3802253Y-16796584D01*
X3859396Y-16796584D02*
X3859396Y-16596584D01*
X3859396Y-16596584D02*
X3840348Y-16625155D01*
X3840348Y-16625155D02*
X3821301Y-16644203D01*
X3821301Y-16644203D02*
X3802253Y-16653727D01*
X4002253Y-16777536D02*
X4011777Y-16787060D01*
X4011777Y-16787060D02*
X4002253Y-16796584D01*
X4002253Y-16796584D02*
X3992729Y-16787060D01*
X3992729Y-16787060D02*
X4002253Y-16777536D01*
X4002253Y-16777536D02*
X4002253Y-16796584D01*
X4135586Y-16596584D02*
X4154634Y-16596584D01*
X4154634Y-16596584D02*
X4173682Y-16606108D01*
X4173682Y-16606108D02*
X4183205Y-16615631D01*
X4183205Y-16615631D02*
X4192729Y-16634679D01*
X4192729Y-16634679D02*
X4202253Y-16672774D01*
X4202253Y-16672774D02*
X4202253Y-16720393D01*
X4202253Y-16720393D02*
X4192729Y-16758488D01*
X4192729Y-16758488D02*
X4183205Y-16777536D01*
X4183205Y-16777536D02*
X4173682Y-16787060D01*
X4173682Y-16787060D02*
X4154634Y-16796584D01*
X4154634Y-16796584D02*
X4135586Y-16796584D01*
X4135586Y-16796584D02*
X4116539Y-16787060D01*
X4116539Y-16787060D02*
X4107015Y-16777536D01*
X4107015Y-16777536D02*
X4097491Y-16758488D01*
X4097491Y-16758488D02*
X4087967Y-16720393D01*
X4087967Y-16720393D02*
X4087967Y-16672774D01*
X4087967Y-16672774D02*
X4097491Y-16634679D01*
X4097491Y-16634679D02*
X4107015Y-16615631D01*
X4107015Y-16615631D02*
X4116539Y-16606108D01*
X4116539Y-16606108D02*
X4135586Y-16596584D01*
X4326063Y-16596584D02*
X4345110Y-16596584D01*
X4345110Y-16596584D02*
X4364158Y-16606108D01*
X4364158Y-16606108D02*
X4373682Y-16615631D01*
X4373682Y-16615631D02*
X4383205Y-16634679D01*
X4383205Y-16634679D02*
X4392729Y-16672774D01*
X4392729Y-16672774D02*
X4392729Y-16720393D01*
X4392729Y-16720393D02*
X4383205Y-16758488D01*
X4383205Y-16758488D02*
X4373682Y-16777536D01*
X4373682Y-16777536D02*
X4364158Y-16787060D01*
X4364158Y-16787060D02*
X4345110Y-16796584D01*
X4345110Y-16796584D02*
X4326063Y-16796584D01*
X4326063Y-16796584D02*
X4307015Y-16787060D01*
X4307015Y-16787060D02*
X4297491Y-16777536D01*
X4297491Y-16777536D02*
X4287967Y-16758488D01*
X4287967Y-16758488D02*
X4278444Y-16720393D01*
X4278444Y-16720393D02*
X4278444Y-16672774D01*
X4278444Y-16672774D02*
X4287967Y-16634679D01*
X4287967Y-16634679D02*
X4297491Y-16615631D01*
X4297491Y-16615631D02*
X4307015Y-16606108D01*
X4307015Y-16606108D02*
X4326063Y-16596584D01*
X4516539Y-16596584D02*
X4535586Y-16596584D01*
X4535586Y-16596584D02*
X4554634Y-16606108D01*
X4554634Y-16606108D02*
X4564158Y-16615631D01*
X4564158Y-16615631D02*
X4573682Y-16634679D01*
X4573682Y-16634679D02*
X4583205Y-16672774D01*
X4583205Y-16672774D02*
X4583205Y-16720393D01*
X4583205Y-16720393D02*
X4573682Y-16758488D01*
X4573682Y-16758488D02*
X4564158Y-16777536D01*
X4564158Y-16777536D02*
X4554634Y-16787060D01*
X4554634Y-16787060D02*
X4535586Y-16796584D01*
X4535586Y-16796584D02*
X4516539Y-16796584D01*
X4516539Y-16796584D02*
X4497491Y-16787060D01*
X4497491Y-16787060D02*
X4487967Y-16777536D01*
X4487967Y-16777536D02*
X4478444Y-16758488D01*
X4478444Y-16758488D02*
X4468920Y-16720393D01*
X4468920Y-16720393D02*
X4468920Y-16672774D01*
X4468920Y-16672774D02*
X4478444Y-16634679D01*
X4478444Y-16634679D02*
X4487967Y-16615631D01*
X4487967Y-16615631D02*
X4497491Y-16606108D01*
X4497491Y-16606108D02*
X4516539Y-16596584D01*
X4668920Y-16796584D02*
X4668920Y-16663250D01*
X4668920Y-16682298D02*
X4678444Y-16672774D01*
X4678444Y-16672774D02*
X4697491Y-16663250D01*
X4697491Y-16663250D02*
X4726063Y-16663250D01*
X4726063Y-16663250D02*
X4745110Y-16672774D01*
X4745110Y-16672774D02*
X4754634Y-16691822D01*
X4754634Y-16691822D02*
X4754634Y-16796584D01*
X4754634Y-16691822D02*
X4764158Y-16672774D01*
X4764158Y-16672774D02*
X4783205Y-16663250D01*
X4783205Y-16663250D02*
X4811777Y-16663250D01*
X4811777Y-16663250D02*
X4830825Y-16672774D01*
X4830825Y-16672774D02*
X4840348Y-16691822D01*
X4840348Y-16691822D02*
X4840348Y-16796584D01*
X4935586Y-16796584D02*
X4935586Y-16663250D01*
X4935586Y-16682298D02*
X4945110Y-16672774D01*
X4945110Y-16672774D02*
X4964158Y-16663250D01*
X4964158Y-16663250D02*
X4992729Y-16663250D01*
X4992729Y-16663250D02*
X5011777Y-16672774D01*
X5011777Y-16672774D02*
X5021301Y-16691822D01*
X5021301Y-16691822D02*
X5021301Y-16796584D01*
X5021301Y-16691822D02*
X5030825Y-16672774D01*
X5030825Y-16672774D02*
X5049872Y-16663250D01*
X5049872Y-16663250D02*
X5078444Y-16663250D01*
X5078444Y-16663250D02*
X5097491Y-16672774D01*
X5097491Y-16672774D02*
X5107015Y-16691822D01*
X5107015Y-16691822D02*
X5107015Y-16796584D01*
X5497491Y-16587060D02*
X5326063Y-16844203D01*
X5754634Y-16596584D02*
X5773682Y-16596584D01*
X5773682Y-16596584D02*
X5792729Y-16606108D01*
X5792729Y-16606108D02*
X5802253Y-16615631D01*
X5802253Y-16615631D02*
X5811777Y-16634679D01*
X5811777Y-16634679D02*
X5821301Y-16672774D01*
X5821301Y-16672774D02*
X5821301Y-16720393D01*
X5821301Y-16720393D02*
X5811777Y-16758488D01*
X5811777Y-16758488D02*
X5802253Y-16777536D01*
X5802253Y-16777536D02*
X5792729Y-16787060D01*
X5792729Y-16787060D02*
X5773682Y-16796584D01*
X5773682Y-16796584D02*
X5754634Y-16796584D01*
X5754634Y-16796584D02*
X5735586Y-16787060D01*
X5735586Y-16787060D02*
X5726063Y-16777536D01*
X5726063Y-16777536D02*
X5716539Y-16758488D01*
X5716539Y-16758488D02*
X5707015Y-16720393D01*
X5707015Y-16720393D02*
X5707015Y-16672774D01*
X5707015Y-16672774D02*
X5716539Y-16634679D01*
X5716539Y-16634679D02*
X5726063Y-16615631D01*
X5726063Y-16615631D02*
X5735586Y-16606108D01*
X5735586Y-16606108D02*
X5754634Y-16596584D01*
X5907015Y-16777536D02*
X5916539Y-16787060D01*
X5916539Y-16787060D02*
X5907015Y-16796584D01*
X5907015Y-16796584D02*
X5897491Y-16787060D01*
X5897491Y-16787060D02*
X5907015Y-16777536D01*
X5907015Y-16777536D02*
X5907015Y-16796584D01*
X6040348Y-16596584D02*
X6059396Y-16596584D01*
X6059396Y-16596584D02*
X6078444Y-16606108D01*
X6078444Y-16606108D02*
X6087967Y-16615631D01*
X6087967Y-16615631D02*
X6097491Y-16634679D01*
X6097491Y-16634679D02*
X6107015Y-16672774D01*
X6107015Y-16672774D02*
X6107015Y-16720393D01*
X6107015Y-16720393D02*
X6097491Y-16758488D01*
X6097491Y-16758488D02*
X6087967Y-16777536D01*
X6087967Y-16777536D02*
X6078444Y-16787060D01*
X6078444Y-16787060D02*
X6059396Y-16796584D01*
X6059396Y-16796584D02*
X6040348Y-16796584D01*
X6040348Y-16796584D02*
X6021301Y-16787060D01*
X6021301Y-16787060D02*
X6011777Y-16777536D01*
X6011777Y-16777536D02*
X6002253Y-16758488D01*
X6002253Y-16758488D02*
X5992729Y-16720393D01*
X5992729Y-16720393D02*
X5992729Y-16672774D01*
X5992729Y-16672774D02*
X6002253Y-16634679D01*
X6002253Y-16634679D02*
X6011777Y-16615631D01*
X6011777Y-16615631D02*
X6021301Y-16606108D01*
X6021301Y-16606108D02*
X6040348Y-16596584D01*
X6173682Y-16596584D02*
X6297491Y-16596584D01*
X6297491Y-16596584D02*
X6230825Y-16672774D01*
X6230825Y-16672774D02*
X6259396Y-16672774D01*
X6259396Y-16672774D02*
X6278444Y-16682298D01*
X6278444Y-16682298D02*
X6287967Y-16691822D01*
X6287967Y-16691822D02*
X6297491Y-16710869D01*
X6297491Y-16710869D02*
X6297491Y-16758488D01*
X6297491Y-16758488D02*
X6287967Y-16777536D01*
X6287967Y-16777536D02*
X6278444Y-16787060D01*
X6278444Y-16787060D02*
X6259396Y-16796584D01*
X6259396Y-16796584D02*
X6202253Y-16796584D01*
X6202253Y-16796584D02*
X6183206Y-16787060D01*
X6183206Y-16787060D02*
X6173682Y-16777536D01*
X6392729Y-16796584D02*
X6430825Y-16796584D01*
X6430825Y-16796584D02*
X6449872Y-16787060D01*
X6449872Y-16787060D02*
X6459396Y-16777536D01*
X6459396Y-16777536D02*
X6478444Y-16748965D01*
X6478444Y-16748965D02*
X6487967Y-16710869D01*
X6487967Y-16710869D02*
X6487967Y-16634679D01*
X6487967Y-16634679D02*
X6478444Y-16615631D01*
X6478444Y-16615631D02*
X6468920Y-16606108D01*
X6468920Y-16606108D02*
X6449872Y-16596584D01*
X6449872Y-16596584D02*
X6411777Y-16596584D01*
X6411777Y-16596584D02*
X6392729Y-16606108D01*
X6392729Y-16606108D02*
X6383206Y-16615631D01*
X6383206Y-16615631D02*
X6373682Y-16634679D01*
X6373682Y-16634679D02*
X6373682Y-16682298D01*
X6373682Y-16682298D02*
X6383206Y-16701346D01*
X6383206Y-16701346D02*
X6392729Y-16710869D01*
X6392729Y-16710869D02*
X6411777Y-16720393D01*
X6411777Y-16720393D02*
X6449872Y-16720393D01*
X6449872Y-16720393D02*
X6468920Y-16710869D01*
X6468920Y-16710869D02*
X6478444Y-16701346D01*
X6478444Y-16701346D02*
X6487967Y-16682298D01*
X6659396Y-16663250D02*
X6659396Y-16796584D01*
X6611777Y-16587060D02*
X6564158Y-16729917D01*
X6564158Y-16729917D02*
X6687967Y-16729917D01*
X6754634Y-16596584D02*
X6754634Y-16634679D01*
X6830825Y-16596584D02*
X6830825Y-16634679D01*
X7126063Y-16872774D02*
X7116539Y-16863250D01*
X7116539Y-16863250D02*
X7097491Y-16834679D01*
X7097491Y-16834679D02*
X7087968Y-16815631D01*
X7087968Y-16815631D02*
X7078444Y-16787060D01*
X7078444Y-16787060D02*
X7068920Y-16739441D01*
X7068920Y-16739441D02*
X7068920Y-16701346D01*
X7068920Y-16701346D02*
X7078444Y-16653727D01*
X7078444Y-16653727D02*
X7087968Y-16625155D01*
X7087968Y-16625155D02*
X7097491Y-16606108D01*
X7097491Y-16606108D02*
X7116539Y-16577536D01*
X7116539Y-16577536D02*
X7126063Y-16568012D01*
X7307015Y-16796584D02*
X7192729Y-16796584D01*
X7249872Y-16796584D02*
X7249872Y-16596584D01*
X7249872Y-16596584D02*
X7230825Y-16625155D01*
X7230825Y-16625155D02*
X7211777Y-16644203D01*
X7211777Y-16644203D02*
X7192729Y-16653727D01*
X7478444Y-16663250D02*
X7478444Y-16796584D01*
X7430825Y-16587060D02*
X7383206Y-16729917D01*
X7383206Y-16729917D02*
X7507015Y-16729917D01*
X7621301Y-16596584D02*
X7640349Y-16596584D01*
X7640349Y-16596584D02*
X7659396Y-16606108D01*
X7659396Y-16606108D02*
X7668920Y-16615631D01*
X7668920Y-16615631D02*
X7678444Y-16634679D01*
X7678444Y-16634679D02*
X7687968Y-16672774D01*
X7687968Y-16672774D02*
X7687968Y-16720393D01*
X7687968Y-16720393D02*
X7678444Y-16758488D01*
X7678444Y-16758488D02*
X7668920Y-16777536D01*
X7668920Y-16777536D02*
X7659396Y-16787060D01*
X7659396Y-16787060D02*
X7640349Y-16796584D01*
X7640349Y-16796584D02*
X7621301Y-16796584D01*
X7621301Y-16796584D02*
X7602253Y-16787060D01*
X7602253Y-16787060D02*
X7592729Y-16777536D01*
X7592729Y-16777536D02*
X7583206Y-16758488D01*
X7583206Y-16758488D02*
X7573682Y-16720393D01*
X7573682Y-16720393D02*
X7573682Y-16672774D01*
X7573682Y-16672774D02*
X7583206Y-16634679D01*
X7583206Y-16634679D02*
X7592729Y-16615631D01*
X7592729Y-16615631D02*
X7602253Y-16606108D01*
X7602253Y-16606108D02*
X7621301Y-16596584D01*
X7926063Y-16796584D02*
X7926063Y-16596584D01*
X8011777Y-16796584D02*
X8011777Y-16691822D01*
X8011777Y-16691822D02*
X8002253Y-16672774D01*
X8002253Y-16672774D02*
X7983206Y-16663250D01*
X7983206Y-16663250D02*
X7954634Y-16663250D01*
X7954634Y-16663250D02*
X7935587Y-16672774D01*
X7935587Y-16672774D02*
X7926063Y-16682298D01*
X8135587Y-16796584D02*
X8116539Y-16787060D01*
X8116539Y-16787060D02*
X8107015Y-16777536D01*
X8107015Y-16777536D02*
X8097491Y-16758488D01*
X8097491Y-16758488D02*
X8097491Y-16701346D01*
X8097491Y-16701346D02*
X8107015Y-16682298D01*
X8107015Y-16682298D02*
X8116539Y-16672774D01*
X8116539Y-16672774D02*
X8135587Y-16663250D01*
X8135587Y-16663250D02*
X8164158Y-16663250D01*
X8164158Y-16663250D02*
X8183206Y-16672774D01*
X8183206Y-16672774D02*
X8192730Y-16682298D01*
X8192730Y-16682298D02*
X8202253Y-16701346D01*
X8202253Y-16701346D02*
X8202253Y-16758488D01*
X8202253Y-16758488D02*
X8192730Y-16777536D01*
X8192730Y-16777536D02*
X8183206Y-16787060D01*
X8183206Y-16787060D02*
X8164158Y-16796584D01*
X8164158Y-16796584D02*
X8135587Y-16796584D01*
X8316539Y-16796584D02*
X8297491Y-16787060D01*
X8297491Y-16787060D02*
X8287968Y-16768012D01*
X8287968Y-16768012D02*
X8287968Y-16596584D01*
X8468920Y-16787060D02*
X8449873Y-16796584D01*
X8449873Y-16796584D02*
X8411777Y-16796584D01*
X8411777Y-16796584D02*
X8392730Y-16787060D01*
X8392730Y-16787060D02*
X8383206Y-16768012D01*
X8383206Y-16768012D02*
X8383206Y-16691822D01*
X8383206Y-16691822D02*
X8392730Y-16672774D01*
X8392730Y-16672774D02*
X8411777Y-16663250D01*
X8411777Y-16663250D02*
X8449873Y-16663250D01*
X8449873Y-16663250D02*
X8468920Y-16672774D01*
X8468920Y-16672774D02*
X8478444Y-16691822D01*
X8478444Y-16691822D02*
X8478444Y-16710869D01*
X8478444Y-16710869D02*
X8383206Y-16729917D01*
X8554634Y-16787060D02*
X8573682Y-16796584D01*
X8573682Y-16796584D02*
X8611777Y-16796584D01*
X8611777Y-16796584D02*
X8630825Y-16787060D01*
X8630825Y-16787060D02*
X8640349Y-16768012D01*
X8640349Y-16768012D02*
X8640349Y-16758488D01*
X8640349Y-16758488D02*
X8630825Y-16739441D01*
X8630825Y-16739441D02*
X8611777Y-16729917D01*
X8611777Y-16729917D02*
X8583206Y-16729917D01*
X8583206Y-16729917D02*
X8564158Y-16720393D01*
X8564158Y-16720393D02*
X8554634Y-16701346D01*
X8554634Y-16701346D02*
X8554634Y-16691822D01*
X8554634Y-16691822D02*
X8564158Y-16672774D01*
X8564158Y-16672774D02*
X8583206Y-16663250D01*
X8583206Y-16663250D02*
X8611777Y-16663250D01*
X8611777Y-16663250D02*
X8630825Y-16672774D01*
X8707015Y-16872774D02*
X8716539Y-16863250D01*
X8716539Y-16863250D02*
X8735587Y-16834679D01*
X8735587Y-16834679D02*
X8745111Y-16815631D01*
X8745111Y-16815631D02*
X8754634Y-16787060D01*
X8754634Y-16787060D02*
X8764158Y-16739441D01*
X8764158Y-16739441D02*
X8764158Y-16701346D01*
X8764158Y-16701346D02*
X8754634Y-16653727D01*
X8754634Y-16653727D02*
X8745111Y-16625155D01*
X8745111Y-16625155D02*
X8735587Y-16606108D01*
X8735587Y-16606108D02*
X8716539Y-16577536D01*
X8716539Y-16577536D02*
X8707015Y-16568012D01*
M02*
