%TF.GenerationSoftware,KiCad,Pcbnew,7.0.7*%
%TF.CreationDate,2026-08-17T21:35:36-05:00*%
%TF.ProjectId,Control,436f6e74-726f-46c2-9e6b-696361645f70,rev?*%
%TF.SameCoordinates,Original*%
%TF.FileFunction,Legend,Bot*%
%TF.FilePolarity,Positive*%
%FSLAX46Y46*%
G04 Gerber Fmt 4.6, Leading zero omitted, Abs format (unit mm)*
G04 Created by KiCad (PCBNEW 7.0.7) date 2026-08-17 21:35:36*
%MOMM*%
%LPD*%
G01*
G04 APERTURE LIST*
%ADD10C,0.150000*%
G04 APERTURE END LIST*
D10*
X51844411Y-18602438D02*
X51939649Y-18554819D01*
X51939649Y-18554819D02*
X52082506Y-18554819D01*
X52082506Y-18554819D02*
X52225363Y-18602438D01*
X52225363Y-18602438D02*
X52320601Y-18697676D01*
X52320601Y-18697676D02*
X52368220Y-18792914D01*
X52368220Y-18792914D02*
X52415839Y-18983390D01*
X52415839Y-18983390D02*
X52415839Y-19126247D01*
X52415839Y-19126247D02*
X52368220Y-19316723D01*
X52368220Y-19316723D02*
X52320601Y-19411961D01*
X52320601Y-19411961D02*
X52225363Y-19507200D01*
X52225363Y-19507200D02*
X52082506Y-19554819D01*
X52082506Y-19554819D02*
X51987268Y-19554819D01*
X51987268Y-19554819D02*
X51844411Y-19507200D01*
X51844411Y-19507200D02*
X51796792Y-19459580D01*
X51796792Y-19459580D02*
X51796792Y-19126247D01*
X51796792Y-19126247D02*
X51987268Y-19126247D01*
X50939649Y-19554819D02*
X50939649Y-19031009D01*
X50939649Y-19031009D02*
X50987268Y-18935771D01*
X50987268Y-18935771D02*
X51082506Y-18888152D01*
X51082506Y-18888152D02*
X51272982Y-18888152D01*
X51272982Y-18888152D02*
X51368220Y-18935771D01*
X50939649Y-19507200D02*
X51034887Y-19554819D01*
X51034887Y-19554819D02*
X51272982Y-19554819D01*
X51272982Y-19554819D02*
X51368220Y-19507200D01*
X51368220Y-19507200D02*
X51415839Y-19411961D01*
X51415839Y-19411961D02*
X51415839Y-19316723D01*
X51415839Y-19316723D02*
X51368220Y-19221485D01*
X51368220Y-19221485D02*
X51272982Y-19173866D01*
X51272982Y-19173866D02*
X51034887Y-19173866D01*
X51034887Y-19173866D02*
X50939649Y-19126247D01*
X50558696Y-18888152D02*
X50320601Y-19554819D01*
X50320601Y-19554819D02*
X50082506Y-18888152D01*
X49701553Y-19554819D02*
X49701553Y-18888152D01*
X49701553Y-18554819D02*
X49749172Y-18602438D01*
X49749172Y-18602438D02*
X49701553Y-18650057D01*
X49701553Y-18650057D02*
X49653934Y-18602438D01*
X49653934Y-18602438D02*
X49701553Y-18554819D01*
X49701553Y-18554819D02*
X49701553Y-18650057D01*
X49225363Y-18888152D02*
X49225363Y-19554819D01*
X49225363Y-18983390D02*
X49177744Y-18935771D01*
X49177744Y-18935771D02*
X49082506Y-18888152D01*
X49082506Y-18888152D02*
X48939649Y-18888152D01*
X48939649Y-18888152D02*
X48844411Y-18935771D01*
X48844411Y-18935771D02*
X48796792Y-19031009D01*
X48796792Y-19031009D02*
X48796792Y-19554819D01*
X47701553Y-18554819D02*
X47130125Y-18554819D01*
X47415839Y-19554819D02*
X47415839Y-18554819D01*
X46415839Y-19507200D02*
X46511077Y-19554819D01*
X46511077Y-19554819D02*
X46701553Y-19554819D01*
X46701553Y-19554819D02*
X46796791Y-19507200D01*
X46796791Y-19507200D02*
X46844410Y-19411961D01*
X46844410Y-19411961D02*
X46844410Y-19031009D01*
X46844410Y-19031009D02*
X46796791Y-18935771D01*
X46796791Y-18935771D02*
X46701553Y-18888152D01*
X46701553Y-18888152D02*
X46511077Y-18888152D01*
X46511077Y-18888152D02*
X46415839Y-18935771D01*
X46415839Y-18935771D02*
X46368220Y-19031009D01*
X46368220Y-19031009D02*
X46368220Y-19126247D01*
X46368220Y-19126247D02*
X46844410Y-19221485D01*
X45939648Y-19554819D02*
X45939648Y-18888152D01*
X45939648Y-19078628D02*
X45892029Y-18983390D01*
X45892029Y-18983390D02*
X45844410Y-18935771D01*
X45844410Y-18935771D02*
X45749172Y-18888152D01*
X45749172Y-18888152D02*
X45653934Y-18888152D01*
X45368219Y-19507200D02*
X45272981Y-19554819D01*
X45272981Y-19554819D02*
X45082505Y-19554819D01*
X45082505Y-19554819D02*
X44987267Y-19507200D01*
X44987267Y-19507200D02*
X44939648Y-19411961D01*
X44939648Y-19411961D02*
X44939648Y-19364342D01*
X44939648Y-19364342D02*
X44987267Y-19269104D01*
X44987267Y-19269104D02*
X45082505Y-19221485D01*
X45082505Y-19221485D02*
X45225362Y-19221485D01*
X45225362Y-19221485D02*
X45320600Y-19173866D01*
X45320600Y-19173866D02*
X45368219Y-19078628D01*
X45368219Y-19078628D02*
X45368219Y-19031009D01*
X45368219Y-19031009D02*
X45320600Y-18935771D01*
X45320600Y-18935771D02*
X45225362Y-18888152D01*
X45225362Y-18888152D02*
X45082505Y-18888152D01*
X45082505Y-18888152D02*
X44987267Y-18935771D01*
X44653933Y-18888152D02*
X44272981Y-18888152D01*
X44511076Y-18554819D02*
X44511076Y-19411961D01*
X44511076Y-19411961D02*
X44463457Y-19507200D01*
X44463457Y-19507200D02*
X44368219Y-19554819D01*
X44368219Y-19554819D02*
X44272981Y-19554819D01*
X43558695Y-19507200D02*
X43653933Y-19554819D01*
X43653933Y-19554819D02*
X43844409Y-19554819D01*
X43844409Y-19554819D02*
X43939647Y-19507200D01*
X43939647Y-19507200D02*
X43987266Y-19411961D01*
X43987266Y-19411961D02*
X43987266Y-19031009D01*
X43987266Y-19031009D02*
X43939647Y-18935771D01*
X43939647Y-18935771D02*
X43844409Y-18888152D01*
X43844409Y-18888152D02*
X43653933Y-18888152D01*
X43653933Y-18888152D02*
X43558695Y-18935771D01*
X43558695Y-18935771D02*
X43511076Y-19031009D01*
X43511076Y-19031009D02*
X43511076Y-19126247D01*
X43511076Y-19126247D02*
X43987266Y-19221485D01*
X42701552Y-19507200D02*
X42796790Y-19554819D01*
X42796790Y-19554819D02*
X42987266Y-19554819D01*
X42987266Y-19554819D02*
X43082504Y-19507200D01*
X43082504Y-19507200D02*
X43130123Y-19411961D01*
X43130123Y-19411961D02*
X43130123Y-19031009D01*
X43130123Y-19031009D02*
X43082504Y-18935771D01*
X43082504Y-18935771D02*
X42987266Y-18888152D01*
X42987266Y-18888152D02*
X42796790Y-18888152D01*
X42796790Y-18888152D02*
X42701552Y-18935771D01*
X42701552Y-18935771D02*
X42653933Y-19031009D01*
X42653933Y-19031009D02*
X42653933Y-19126247D01*
X42653933Y-19126247D02*
X43130123Y-19221485D01*
X41796790Y-18888152D02*
X41796790Y-19697676D01*
X41796790Y-19697676D02*
X41844409Y-19792914D01*
X41844409Y-19792914D02*
X41892028Y-19840533D01*
X41892028Y-19840533D02*
X41987266Y-19888152D01*
X41987266Y-19888152D02*
X42130123Y-19888152D01*
X42130123Y-19888152D02*
X42225361Y-19840533D01*
X41796790Y-19507200D02*
X41892028Y-19554819D01*
X41892028Y-19554819D02*
X42082504Y-19554819D01*
X42082504Y-19554819D02*
X42177742Y-19507200D01*
X42177742Y-19507200D02*
X42225361Y-19459580D01*
X42225361Y-19459580D02*
X42272980Y-19364342D01*
X42272980Y-19364342D02*
X42272980Y-19078628D01*
X42272980Y-19078628D02*
X42225361Y-18983390D01*
X42225361Y-18983390D02*
X42177742Y-18935771D01*
X42177742Y-18935771D02*
X42082504Y-18888152D01*
X42082504Y-18888152D02*
X41892028Y-18888152D01*
X41892028Y-18888152D02*
X41796790Y-18935771D01*
X41272980Y-19507200D02*
X41272980Y-19554819D01*
X41272980Y-19554819D02*
X41320599Y-19650057D01*
X41320599Y-19650057D02*
X41368218Y-19697676D01*
X40130123Y-18650057D02*
X40082504Y-18602438D01*
X40082504Y-18602438D02*
X39987266Y-18554819D01*
X39987266Y-18554819D02*
X39749171Y-18554819D01*
X39749171Y-18554819D02*
X39653933Y-18602438D01*
X39653933Y-18602438D02*
X39606314Y-18650057D01*
X39606314Y-18650057D02*
X39558695Y-18745295D01*
X39558695Y-18745295D02*
X39558695Y-18840533D01*
X39558695Y-18840533D02*
X39606314Y-18983390D01*
X39606314Y-18983390D02*
X40177742Y-19554819D01*
X40177742Y-19554819D02*
X39558695Y-19554819D01*
X38939647Y-18554819D02*
X38844409Y-18554819D01*
X38844409Y-18554819D02*
X38749171Y-18602438D01*
X38749171Y-18602438D02*
X38701552Y-18650057D01*
X38701552Y-18650057D02*
X38653933Y-18745295D01*
X38653933Y-18745295D02*
X38606314Y-18935771D01*
X38606314Y-18935771D02*
X38606314Y-19173866D01*
X38606314Y-19173866D02*
X38653933Y-19364342D01*
X38653933Y-19364342D02*
X38701552Y-19459580D01*
X38701552Y-19459580D02*
X38749171Y-19507200D01*
X38749171Y-19507200D02*
X38844409Y-19554819D01*
X38844409Y-19554819D02*
X38939647Y-19554819D01*
X38939647Y-19554819D02*
X39034885Y-19507200D01*
X39034885Y-19507200D02*
X39082504Y-19459580D01*
X39082504Y-19459580D02*
X39130123Y-19364342D01*
X39130123Y-19364342D02*
X39177742Y-19173866D01*
X39177742Y-19173866D02*
X39177742Y-18935771D01*
X39177742Y-18935771D02*
X39130123Y-18745295D01*
X39130123Y-18745295D02*
X39082504Y-18650057D01*
X39082504Y-18650057D02*
X39034885Y-18602438D01*
X39034885Y-18602438D02*
X38939647Y-18554819D01*
X38225361Y-18650057D02*
X38177742Y-18602438D01*
X38177742Y-18602438D02*
X38082504Y-18554819D01*
X38082504Y-18554819D02*
X37844409Y-18554819D01*
X37844409Y-18554819D02*
X37749171Y-18602438D01*
X37749171Y-18602438D02*
X37701552Y-18650057D01*
X37701552Y-18650057D02*
X37653933Y-18745295D01*
X37653933Y-18745295D02*
X37653933Y-18840533D01*
X37653933Y-18840533D02*
X37701552Y-18983390D01*
X37701552Y-18983390D02*
X38272980Y-19554819D01*
X38272980Y-19554819D02*
X37653933Y-19554819D01*
X36796790Y-18554819D02*
X36987266Y-18554819D01*
X36987266Y-18554819D02*
X37082504Y-18602438D01*
X37082504Y-18602438D02*
X37130123Y-18650057D01*
X37130123Y-18650057D02*
X37225361Y-18792914D01*
X37225361Y-18792914D02*
X37272980Y-18983390D01*
X37272980Y-18983390D02*
X37272980Y-19364342D01*
X37272980Y-19364342D02*
X37225361Y-19459580D01*
X37225361Y-19459580D02*
X37177742Y-19507200D01*
X37177742Y-19507200D02*
X37082504Y-19554819D01*
X37082504Y-19554819D02*
X36892028Y-19554819D01*
X36892028Y-19554819D02*
X36796790Y-19507200D01*
X36796790Y-19507200D02*
X36749171Y-19459580D01*
X36749171Y-19459580D02*
X36701552Y-19364342D01*
X36701552Y-19364342D02*
X36701552Y-19126247D01*
X36701552Y-19126247D02*
X36749171Y-19031009D01*
X36749171Y-19031009D02*
X36796790Y-18983390D01*
X36796790Y-18983390D02*
X36892028Y-18935771D01*
X36892028Y-18935771D02*
X37082504Y-18935771D01*
X37082504Y-18935771D02*
X37177742Y-18983390D01*
X37177742Y-18983390D02*
X37225361Y-19031009D01*
X37225361Y-19031009D02*
X37272980Y-19126247D01*
M02*
