M48
; DRILL file {KiCad 7.0.7} date Mon Aug 17 21:35:39 2026
; FORMAT={-:-/ absolute / inch / decimal}
; #@! TF.CreationDate,2026-08-17T21:35:39-05:00
; #@! TF.GenerationSoftware,Kicad,Pcbnew,7.0.7
; #@! TF.FileFunction,Plated,1,2,PTH
FMAT,2
INCH
; #@! TA.AperFunction,Plated,PTH,ViaDrill
T1C0.0157
; #@! TA.AperFunction,Plated,PTH,ComponentDrill
T2C0.0315
; #@! TA.AperFunction,Plated,PTH,ComponentDrill
T3C0.0394
%
G90
G05
T1
X2.1986Y-4.1681
X2.2292Y-4.2657
X2.2501Y-2.9843
X2.3554Y-4.2346
X2.3568Y-4.1339
X2.4635Y-2.0485
X2.6711Y-5.0426
X2.7151Y-4.1279
X2.8692Y-5.247
X2.8766Y-4.1078
X2.938Y-4.1714
X2.9775Y-3.1569
X3.0708Y-4.1697
X3.1936Y-3.958
X3.2336Y-4.1082
X3.3368Y-2.7795
X3.4339Y-1.0983
X3.618Y-3.9309
X3.6264Y-3.3693
X3.6445Y-3.9017
X3.6559Y-3.5587
X3.6639Y-3.2197
X3.7061Y-4.9657
X3.718Y-4.2995
X3.8603Y-3.5474
X3.9311Y-2.8978
X4.0139Y-4.1234
X4.1038Y-5.5933
X4.137Y-4.144
X4.2222Y-5.7474
X4.3955Y-5.1378
X4.4001Y-2.7756
X4.4324Y-4.3127
X4.6326Y-4.9924
X4.7284Y-3.798
X4.8183Y-5.866
X5.0048Y-5.2285
X5.0507Y-4.2537
X5.0742Y-5.1186
X5.0863Y-5.9272
X5.1306Y-4.1791
X5.1459Y-5.8598
X5.1566Y-3.9378
X5.1579Y-4.208
X5.2698Y-5.9114
X5.2798Y-3.4767
X5.3329Y-5.6402
X5.3627Y-4.0178
X5.3823Y-5.916
X5.4184Y-4.2755
X5.4707Y-4.1406
X5.4725Y-4.1977
X5.5979Y-3.3436
X5.625Y-4.3238
X5.6986Y-3.9854
X5.8349Y-4.1493
X5.8387Y-3.9967
X6.0076Y-3.4761
X6.4905Y-4.4418
X6.74Y-4.8618
X6.7819Y-3.8901
X6.8406Y-3.1789
X6.947Y-5.7029
X7.0969Y-4.1524
X7.1083Y-3.7234
X7.1436Y-4.0908
X7.2967Y-1.5172
X7.5731Y-3.8984
X7.6111Y-3.9362
X7.7914Y-4.4281
X7.8405Y-4.1235
X7.874Y-5.2735
X7.8768Y-4.3192
X8.0719Y-4.2393
X8.1213Y-5.6316
X8.1934Y-5.5889
X8.2283Y-5.5115
X8.3251Y-3.4248
X8.4273Y-4.2216
T2
X1.6Y-1.15
X1.6Y-1.25
X1.6Y-1.35
X1.6Y-1.45
X1.6Y-1.55
X1.6Y-1.65
X1.6Y-1.75
X1.6Y-1.85
X1.6Y-1.95
X1.6Y-2.05
X1.6Y-2.15
X1.6Y-2.25
X1.6Y-2.35
X1.6Y-2.45
X1.6Y-4.5
X1.6Y-4.6
X1.6Y-4.7
X1.6Y-4.8
X1.6Y-4.9
X1.6Y-5.0
X1.6Y-5.1
X1.6004Y-3.0252
X1.6004Y-3.1252
X1.6004Y-3.2252
X1.6004Y-3.3252
X1.6004Y-3.4252
X1.6004Y-3.5252
X1.6004Y-3.6252
X1.6004Y-3.7252
X1.6004Y-3.8252
X1.6004Y-3.9252
X1.65Y-4.375
X1.6531Y-2.9
X1.7034Y-5.475
X1.8016Y-1.025
X1.8019Y-5.475
X1.8469Y-4.375
X1.85Y-2.9
X1.9Y-4.5
X1.9Y-4.6
X1.9Y-4.7
X1.9Y-4.8
X1.9Y-4.9
X1.9Y-5.0
X1.9Y-5.1
X1.9004Y-3.0252
X1.9004Y-3.1252
X1.9004Y-3.2252
X1.9004Y-3.3252
X1.9004Y-3.4252
X1.9004Y-3.5252
X1.9004Y-3.6252
X1.9004Y-3.7252
X1.9004Y-3.8252
X1.9004Y-3.9252
X1.9984Y-1.025
X2.2Y-1.15
X2.2Y-1.25
X2.2Y-1.35
X2.2Y-1.45
X2.2Y-1.55
X2.2Y-1.65
X2.2Y-1.75
X2.2Y-1.85
X2.2Y-1.95
X2.2Y-2.05
X2.2Y-2.15
X2.2Y-2.25
X2.2Y-2.35
X2.2Y-2.45
X2.325Y-3.025
X2.325Y-3.125
X2.325Y-3.225
X2.325Y-3.325
X2.325Y-3.425
X2.325Y-3.525
X2.325Y-3.625
X2.325Y-3.725
X2.325Y-4.5
X2.325Y-4.6
X2.325Y-4.7
X2.325Y-4.8
X2.325Y-4.9
X2.325Y-5.0
X2.325Y-5.1
X2.3766Y-2.9
X2.3766Y-4.375
X2.5734Y-2.9
X2.5734Y-4.375
X2.625Y-3.025
X2.625Y-3.125
X2.625Y-3.225
X2.625Y-3.325
X2.625Y-3.425
X2.625Y-3.525
X2.625Y-3.625
X2.625Y-3.725
X2.625Y-4.5
X2.625Y-4.6
X2.625Y-4.7
X2.625Y-4.8
X2.625Y-4.9
X2.625Y-5.0
X2.625Y-5.1
X2.65Y-1.15
X2.65Y-1.45
X2.75Y-4.5
X2.75Y-4.8
X3.05Y-1.15
X3.05Y-1.25
X3.05Y-1.35
X3.05Y-1.45
X3.05Y-1.55
X3.05Y-1.65
X3.05Y-1.75
X3.05Y-1.85
X3.05Y-1.95
X3.05Y-2.05
X3.05Y-2.15
X3.05Y-2.25
X3.05Y-2.35
X3.05Y-2.45
X3.05Y-3.025
X3.05Y-3.125
X3.05Y-3.225
X3.05Y-3.325
X3.05Y-3.425
X3.05Y-3.525
X3.05Y-3.625
X3.05Y-3.725
X3.05Y-3.825
X3.05Y-3.925
X3.05Y-4.5
X3.05Y-4.6
X3.05Y-4.7
X3.05Y-4.8
X3.05Y-4.9
X3.05Y-5.0
X3.05Y-5.1
X3.05Y-5.2
X3.1Y-4.375
X3.1016Y-2.9
X3.2516Y-1.025
X3.2969Y-4.375
X3.2984Y-2.9
X3.35Y-3.025
X3.35Y-3.125
X3.35Y-3.225
X3.35Y-3.325
X3.35Y-3.425
X3.35Y-3.525
X3.35Y-3.625
X3.35Y-3.725
X3.35Y-3.825
X3.35Y-3.925
X3.35Y-4.5
X3.35Y-4.6
X3.35Y-4.7
X3.35Y-4.8
X3.35Y-4.9
X3.35Y-5.0
X3.35Y-5.1
X3.35Y-5.2
X3.4484Y-1.025
X3.65Y-1.15
X3.65Y-1.25
X3.65Y-1.35
X3.65Y-1.45
X3.65Y-1.55
X3.65Y-1.65
X3.65Y-1.75
X3.65Y-1.85
X3.65Y-1.95
X3.65Y-2.05
X3.65Y-2.15
X3.65Y-2.25
X3.65Y-2.35
X3.65Y-2.45
X3.775Y-3.025
X3.775Y-3.125
X3.775Y-3.225
X3.775Y-3.325
X3.775Y-3.425
X3.775Y-3.525
X3.775Y-3.625
X3.775Y-3.725
X3.775Y-4.5
X3.775Y-4.6
X3.775Y-4.7
X3.775Y-4.8
X3.775Y-4.9
X3.775Y-5.0
X3.775Y-5.1
X3.775Y-5.2
X3.825Y-2.9
X3.825Y-4.375
X4.0219Y-2.9
X4.0219Y-4.375
X4.075Y-3.025
X4.075Y-3.125
X4.075Y-3.225
X4.075Y-3.325
X4.075Y-3.425
X4.075Y-3.525
X4.075Y-3.625
X4.075Y-3.725
X4.075Y-4.5
X4.075Y-4.6
X4.075Y-4.7
X4.075Y-4.8
X4.075Y-4.9
X4.075Y-5.0
X4.075Y-5.1
X4.075Y-5.2
X4.1Y-1.15
X4.1Y-1.45
X4.4998Y-1.15
X4.4998Y-1.25
X4.4998Y-1.35
X4.4998Y-1.45
X4.4998Y-1.55
X4.4998Y-1.65
X4.4998Y-1.75
X4.4998Y-1.85
X4.4998Y-1.95
X4.4998Y-2.05
X4.4998Y-2.15
X4.4998Y-2.25
X4.4998Y-2.35
X4.4998Y-2.45
X4.5Y-3.025
X4.5Y-3.125
X4.5Y-3.225
X4.5Y-3.325
X4.5Y-3.425
X4.5Y-3.525
X4.5Y-3.625
X4.5Y-3.725
X4.5Y-3.825
X4.5Y-3.925
X4.5Y-4.5
X4.5Y-4.6
X4.5Y-4.7
X4.5Y-4.8
X4.5Y-4.9
X4.5Y-5.0
X4.5Y-5.1
X4.5Y-5.2
X4.55Y-4.375
X4.5516Y-2.9
X4.7016Y-1.025
X4.7469Y-4.375
X4.7484Y-2.9
X4.8Y-3.025
X4.8Y-3.125
X4.8Y-3.225
X4.8Y-3.325
X4.8Y-3.425
X4.8Y-3.525
X4.8Y-3.625
X4.8Y-3.725
X4.8Y-3.825
X4.8Y-3.925
X4.8Y-4.5
X4.8Y-4.6
X4.8Y-4.7
X4.8Y-4.8
X4.8Y-4.9
X4.8Y-5.0
X4.8Y-5.1
X4.8Y-5.2
X4.8984Y-1.025
X5.0998Y-1.15
X5.0998Y-1.25
X5.0998Y-1.35
X5.0998Y-1.45
X5.0998Y-1.55
X5.0998Y-1.65
X5.0998Y-1.75
X5.0998Y-1.85
X5.0998Y-1.95
X5.0998Y-2.05
X5.0998Y-2.15
X5.0998Y-2.25
X5.0998Y-2.35
X5.0998Y-2.45
X5.225Y-3.025
X5.225Y-3.125
X5.225Y-3.225
X5.225Y-3.325
X5.225Y-3.425
X5.225Y-3.525
X5.225Y-3.625
X5.225Y-3.725
X5.225Y-4.5
X5.225Y-4.6
X5.225Y-4.7
X5.225Y-4.8
X5.225Y-4.9
X5.225Y-5.0
X5.225Y-5.1
X5.225Y-5.2
X5.275Y-2.9
X5.2766Y-4.375
X5.4719Y-2.9
X5.4734Y-4.375
X5.525Y-3.025
X5.525Y-3.125
X5.525Y-3.225
X5.525Y-3.325
X5.525Y-3.425
X5.525Y-3.525
X5.525Y-3.625
X5.525Y-3.725
X5.525Y-4.5
X5.525Y-4.6
X5.525Y-4.7
X5.525Y-4.8
X5.525Y-4.9
X5.525Y-5.0
X5.525Y-5.1
X5.525Y-5.2
X5.55Y-1.15
X5.55Y-1.45
X5.825Y-4.6
X5.825Y-4.9
X5.9498Y-1.1504
X5.9498Y-1.2504
X5.9498Y-1.3504
X5.9498Y-1.4504
X5.9498Y-1.5504
X5.9498Y-1.6504
X5.9498Y-1.7504
X5.9498Y-1.8504
X5.9498Y-1.9504
X5.9498Y-2.0504
X5.9498Y-2.1504
X5.9498Y-2.2504
X5.9498Y-2.3504
X5.9498Y-2.4504
X5.95Y-3.025
X5.95Y-3.125
X5.95Y-3.225
X5.95Y-3.325
X5.95Y-3.425
X5.95Y-3.525
X5.95Y-3.625
X5.95Y-3.725
X5.95Y-3.825
X5.95Y-3.925
X5.95Y-4.5
X5.95Y-4.6
X5.95Y-4.7
X5.95Y-4.8
X5.95Y-4.9
X5.95Y-5.0
X5.95Y-5.1
X6.0Y-2.9
X6.0016Y-4.375
X6.1531Y-1.025
X6.1969Y-2.9
X6.1984Y-4.375
X6.25Y-3.025
X6.25Y-3.125
X6.25Y-3.225
X6.25Y-3.325
X6.25Y-3.425
X6.25Y-3.525
X6.25Y-3.625
X6.25Y-3.725
X6.25Y-3.825
X6.25Y-3.925
X6.25Y-4.5
X6.25Y-4.6
X6.25Y-4.7
X6.25Y-4.8
X6.25Y-4.9
X6.25Y-5.0
X6.25Y-5.1
X6.35Y-1.025
X6.5498Y-1.1504
X6.5498Y-1.2504
X6.5498Y-1.3504
X6.5498Y-1.4504
X6.5498Y-1.5504
X6.5498Y-1.6504
X6.5498Y-1.7504
X6.5498Y-1.8504
X6.5498Y-1.9504
X6.5498Y-2.0504
X6.5498Y-2.1504
X6.5498Y-2.2504
X6.5498Y-2.3504
X6.5498Y-2.4504
X6.55Y-4.475
X6.55Y-4.775
X6.55Y-4.875
X6.55Y-5.175
X6.675Y-3.025
X6.675Y-3.125
X6.675Y-3.225
X6.675Y-3.325
X6.675Y-3.425
X6.675Y-3.525
X6.675Y-3.625
X6.675Y-3.725
X6.675Y-4.5
X6.675Y-4.6
X6.675Y-4.7
X6.675Y-4.8
X6.675Y-4.9
X6.675Y-5.0
X6.675Y-5.1
X6.725Y-2.9
X6.7281Y-4.375
X6.9219Y-2.9
X6.925Y-4.375
X6.975Y-3.025
X6.975Y-3.125
X6.975Y-3.225
X6.975Y-3.325
X6.975Y-3.425
X6.975Y-3.525
X6.975Y-3.625
X6.975Y-3.725
X6.975Y-4.5
X6.975Y-4.6
X6.975Y-4.7
X6.975Y-4.8
X6.975Y-4.9
X6.975Y-5.0
X6.975Y-5.1
X7.0Y-1.15
X7.0Y-1.45
X7.1Y-4.475
X7.1Y-4.775
X7.1Y-4.875
X7.1Y-5.175
X7.4Y-1.15
X7.4Y-1.25
X7.4Y-1.35
X7.4Y-1.45
X7.4Y-1.55
X7.4Y-1.65
X7.4Y-1.75
X7.4Y-1.85
X7.4Y-1.95
X7.4Y-2.05
X7.4Y-2.15
X7.4Y-2.25
X7.4Y-2.35
X7.4Y-2.45
X7.4Y-3.025
X7.4Y-3.125
X7.4Y-3.225
X7.4Y-3.325
X7.4Y-3.425
X7.4Y-3.525
X7.4Y-3.625
X7.4Y-3.725
X7.4Y-3.825
X7.4Y-3.925
X7.4Y-4.5
X7.4Y-4.6
X7.4Y-4.7
X7.4Y-4.8
X7.4Y-4.9
X7.4Y-5.0
X7.4Y-5.1
X7.4Y-5.2
X7.4Y-5.3
X7.4Y-5.4
X7.45Y-2.9
X7.4516Y-4.375
X7.6031Y-1.025
X7.6469Y-2.9
X7.6484Y-4.375
X7.7Y-3.025
X7.7Y-3.125
X7.7Y-3.225
X7.7Y-3.325
X7.7Y-3.425
X7.7Y-3.525
X7.7Y-3.625
X7.7Y-3.725
X7.7Y-3.825
X7.7Y-3.925
X7.7Y-4.5
X7.7Y-4.6
X7.7Y-4.7
X7.7Y-4.8
X7.7Y-4.9
X7.7Y-5.0
X7.7Y-5.1
X7.7Y-5.2
X7.7Y-5.3
X7.7Y-5.4
X7.8Y-1.025
X8.0Y-1.15
X8.0Y-1.25
X8.0Y-1.35
X8.0Y-1.45
X8.0Y-1.55
X8.0Y-1.65
X8.0Y-1.75
X8.0Y-1.85
X8.0Y-1.95
X8.0Y-2.05
X8.0Y-2.15
X8.0Y-2.25
X8.0Y-2.35
X8.0Y-2.45
X8.125Y-3.025
X8.125Y-3.125
X8.125Y-3.225
X8.125Y-3.325
X8.125Y-3.425
X8.125Y-3.525
X8.125Y-3.625
X8.125Y-3.725
X8.125Y-4.5
X8.125Y-4.6
X8.125Y-4.7
X8.125Y-4.8
X8.125Y-4.9
X8.125Y-5.0
X8.125Y-5.1
X8.125Y-5.2
X8.125Y-5.3
X8.125Y-5.4
X8.175Y-2.9
X8.1766Y-4.375
X8.3719Y-2.9
X8.3734Y-4.375
X8.425Y-3.025
X8.425Y-3.125
X8.425Y-3.225
X8.425Y-3.325
X8.425Y-3.425
X8.425Y-3.525
X8.425Y-3.625
X8.425Y-3.725
X8.425Y-4.5
X8.425Y-4.6
X8.425Y-4.7
X8.425Y-4.8
X8.425Y-4.9
X8.425Y-5.0
X8.425Y-5.1
X8.425Y-5.2
X8.425Y-5.3
X8.425Y-5.4
X8.45Y-1.15
X8.45Y-1.45
X8.85Y-4.5
X8.85Y-4.6
X8.85Y-4.7
X8.85Y-4.8
X8.85Y-4.9
X8.85Y-5.0
X8.85Y-5.1
X8.85Y-5.2
X8.85Y-5.3
X8.85Y-5.4
X8.925Y-4.375
X9.1219Y-4.375
X9.15Y-4.5
X9.15Y-4.6
X9.15Y-4.7
X9.15Y-4.8
X9.15Y-4.9
X9.15Y-5.0
X9.15Y-5.1
X9.15Y-5.2
X9.15Y-5.3
X9.15Y-5.4
T3
X1.875Y-5.8
X1.875Y-5.9
X1.975Y-5.8
X1.975Y-5.9
X2.075Y-5.8
X2.075Y-5.9
X2.175Y-5.8
X2.175Y-5.9
X2.275Y-5.8
X2.275Y-5.9
X2.375Y-5.8
X2.375Y-5.9
X2.475Y-5.8
X2.475Y-5.9
X2.575Y-5.8
X2.575Y-5.9
X2.675Y-5.8
X2.675Y-5.9
X2.775Y-5.8
X2.775Y-5.9
X2.875Y-5.8
X2.875Y-5.9
X2.975Y-5.8
X2.975Y-5.9
X3.075Y-5.8
X3.075Y-5.9
X3.175Y-5.8
X3.175Y-5.9
X3.275Y-5.8
X3.275Y-5.9
X3.375Y-5.8
X3.375Y-5.9
X3.475Y-5.8
X3.475Y-5.9
X3.575Y-5.8
X3.575Y-5.9
X3.675Y-5.8
X3.675Y-5.9
X3.775Y-5.8
X3.775Y-5.9
X3.875Y-5.8
X3.875Y-5.9
X3.975Y-5.8
X3.975Y-5.9
X4.075Y-5.8
X4.075Y-5.9
X4.175Y-5.8
X4.175Y-5.9
X4.275Y-5.8
X4.275Y-5.9
X4.375Y-5.8
X4.375Y-5.9
X4.475Y-5.8
X4.475Y-5.9
X4.575Y-5.8
X4.575Y-5.9
X4.675Y-5.8
X4.675Y-5.9
X4.775Y-5.8
X4.775Y-5.9
X4.875Y-5.8
X4.875Y-5.9
X4.975Y-5.8
X4.975Y-5.9
X5.95Y-5.8
X5.95Y-5.9
X6.05Y-5.8
X6.05Y-5.9
X6.15Y-5.8
X6.15Y-5.9
X6.25Y-5.8
X6.25Y-5.9
X6.35Y-5.8
X6.35Y-5.9
X6.45Y-5.8
X6.45Y-5.9
X6.55Y-5.8
X6.55Y-5.9
X6.65Y-5.8
X6.65Y-5.9
X6.75Y-5.8
X6.75Y-5.9
X6.85Y-5.8
X6.85Y-5.9
X6.95Y-5.8
X6.95Y-5.9
X7.05Y-5.8
X7.05Y-5.9
X7.15Y-5.8
X7.15Y-5.9
X7.25Y-5.8
X7.25Y-5.9
X7.35Y-5.8
X7.35Y-5.9
X7.45Y-5.8
X7.45Y-5.9
X7.55Y-5.8
X7.55Y-5.9
X7.65Y-5.8
X7.65Y-5.9
X7.75Y-5.8
X7.75Y-5.9
X7.85Y-5.8
X7.85Y-5.9
X7.95Y-5.8
X7.95Y-5.9
X8.05Y-5.8
X8.05Y-5.9
X8.15Y-5.8
X8.15Y-5.9
X8.25Y-5.8
X8.25Y-5.9
X8.35Y-5.8
X8.35Y-5.9
X8.45Y-5.8
X8.45Y-5.9
X8.55Y-5.8
X8.55Y-5.9
X8.65Y-5.8
X8.65Y-5.9
X8.75Y-5.8
X8.75Y-5.9
X8.8Y-1.15
X8.8Y-1.25
X8.85Y-5.8
X8.85Y-5.9
X8.9Y-1.15
X8.9Y-1.25
X8.95Y-5.8
X8.95Y-5.9
X9.0Y-1.15
X9.0Y-1.25
X9.05Y-5.8
X9.05Y-5.9
X9.1Y-1.15
X9.1Y-1.25
X9.2Y-1.15
X9.2Y-1.25
X9.3Y-1.15
X9.3Y-1.25
T0
M30
