%TF.GenerationSoftware,KiCad,Pcbnew,7.0.7*%
%TF.CreationDate,2026-08-17T21:35:36-05:00*%
%TF.ProjectId,Control,436f6e74-726f-46c2-9e6b-696361645f70,rev?*%
%TF.SameCoordinates,Original*%
%TF.FileFunction,Soldermask,Bot*%
%TF.FilePolarity,Negative*%
%FSLAX46Y46*%
G04 Gerber Fmt 4.6, Leading zero omitted, Abs format (unit mm)*
G04 Created by KiCad (PCBNEW 7.0.7) date 2026-08-17 21:35:36*
%MOMM*%
%LPD*%
G01*
G04 APERTURE LIST*
G04 Aperture macros list*
%AMRoundRect*
0 Rectangle with rounded corners*
0 $1 Rounding radius*
0 $2 $3 $4 $5 $6 $7 $8 $9 X,Y pos of 4 corners*
0 Add a 4 corners polygon primitive as box body*
4,1,4,$2,$3,$4,$5,$6,$7,$8,$9,$2,$3,0*
0 Add four circle primitives for the rounded corners*
1,1,$1+$1,$2,$3*
1,1,$1+$1,$4,$5*
1,1,$1+$1,$6,$7*
1,1,$1+$1,$8,$9*
0 Add four rect primitives between the rounded corners*
20,1,$1+$1,$2,$3,$4,$5,0*
20,1,$1+$1,$4,$5,$6,$7,0*
20,1,$1+$1,$6,$7,$8,$9,0*
20,1,$1+$1,$8,$9,$2,$3,0*%
G04 Aperture macros list end*
%ADD10R,1.600000X1.600000*%
%ADD11O,1.600000X1.600000*%
%ADD12C,1.600000*%
%ADD13RoundRect,0.250000X0.600000X-0.600000X0.600000X0.600000X-0.600000X0.600000X-0.600000X-0.600000X0*%
%ADD14C,1.700000*%
%ADD15C,2.850000*%
%ADD16RoundRect,0.249999X0.525001X0.525001X-0.525001X0.525001X-0.525001X-0.525001X0.525001X-0.525001X0*%
%ADD17C,1.550000*%
G04 APERTURE END LIST*
D10*
%TO.C,U19*%
X224790000Y-114300000D03*
D11*
X224790000Y-116840000D03*
X224790000Y-119380000D03*
X224790000Y-121920000D03*
X224790000Y-124460000D03*
X224790000Y-127000000D03*
X224790000Y-129540000D03*
X224790000Y-132080000D03*
X224790000Y-134620000D03*
X224790000Y-137160000D03*
X232410000Y-137160000D03*
X232410000Y-134620000D03*
X232410000Y-132080000D03*
X232410000Y-129540000D03*
X232410000Y-127000000D03*
X232410000Y-124460000D03*
X232410000Y-121920000D03*
X232410000Y-119380000D03*
X232410000Y-116840000D03*
X232410000Y-114300000D03*
%TD*%
D12*
%TO.C,C10*%
X194230000Y-73660000D03*
X189230000Y-73660000D03*
%TD*%
%TO.C,C15*%
X212645000Y-73660000D03*
X207645000Y-73660000D03*
%TD*%
D10*
%TO.C,U7*%
X77470000Y-76835000D03*
D11*
X77470000Y-79375000D03*
X77470000Y-81915000D03*
X77470000Y-84455000D03*
X77470000Y-86995000D03*
X77470000Y-89535000D03*
X77470000Y-92075000D03*
X77470000Y-94615000D03*
X77470000Y-97155000D03*
X77470000Y-99695000D03*
X85090000Y-99695000D03*
X85090000Y-97155000D03*
X85090000Y-94615000D03*
X85090000Y-92075000D03*
X85090000Y-89535000D03*
X85090000Y-86995000D03*
X85090000Y-84455000D03*
X85090000Y-81915000D03*
X85090000Y-79375000D03*
X85090000Y-76835000D03*
%TD*%
D10*
%TO.C,U22*%
X77470000Y-114300000D03*
D11*
X77470000Y-116840000D03*
X77470000Y-119380000D03*
X77470000Y-121920000D03*
X77470000Y-124460000D03*
X77470000Y-127000000D03*
X77470000Y-129540000D03*
X77470000Y-132080000D03*
X85090000Y-132080000D03*
X85090000Y-129540000D03*
X85090000Y-127000000D03*
X85090000Y-124460000D03*
X85090000Y-121920000D03*
X85090000Y-119380000D03*
X85090000Y-116840000D03*
X85090000Y-114300000D03*
%TD*%
D10*
%TO.C,U3*%
X114295000Y-29210000D03*
D11*
X114295000Y-31750000D03*
X114295000Y-34290000D03*
X114295000Y-36830000D03*
X114295000Y-39370000D03*
X114295000Y-41910000D03*
X114295000Y-44450000D03*
X114295000Y-46990000D03*
X114295000Y-49530000D03*
X114295000Y-52070000D03*
X114295000Y-54610000D03*
X114295000Y-57150000D03*
X114295000Y-59690000D03*
X114295000Y-62230000D03*
X129535000Y-62230000D03*
X129535000Y-59690000D03*
X129535000Y-57150000D03*
X129535000Y-54610000D03*
X129535000Y-52070000D03*
X129535000Y-49530000D03*
X129535000Y-46990000D03*
X129535000Y-44450000D03*
X129535000Y-41910000D03*
X129535000Y-39370000D03*
X129535000Y-36830000D03*
X129535000Y-34290000D03*
X129535000Y-31750000D03*
X129535000Y-29210000D03*
%TD*%
D10*
%TO.C,U2*%
X77470000Y-29210000D03*
D11*
X77470000Y-31750000D03*
X77470000Y-34290000D03*
X77470000Y-36830000D03*
X77470000Y-39370000D03*
X77470000Y-41910000D03*
X77470000Y-44450000D03*
X77470000Y-46990000D03*
X77470000Y-49530000D03*
X77470000Y-52070000D03*
X77470000Y-54610000D03*
X77470000Y-57150000D03*
X77470000Y-59690000D03*
X77470000Y-62230000D03*
X92710000Y-62230000D03*
X92710000Y-59690000D03*
X92710000Y-57150000D03*
X92710000Y-54610000D03*
X92710000Y-52070000D03*
X92710000Y-49530000D03*
X92710000Y-46990000D03*
X92710000Y-44450000D03*
X92710000Y-41910000D03*
X92710000Y-39370000D03*
X92710000Y-36830000D03*
X92710000Y-34290000D03*
X92710000Y-31750000D03*
X92710000Y-29210000D03*
%TD*%
D10*
%TO.C,U12*%
X95885000Y-76835000D03*
D11*
X95885000Y-79375000D03*
X95885000Y-81915000D03*
X95885000Y-84455000D03*
X95885000Y-86995000D03*
X95885000Y-89535000D03*
X95885000Y-92075000D03*
X95885000Y-94615000D03*
X103505000Y-94615000D03*
X103505000Y-92075000D03*
X103505000Y-89535000D03*
X103505000Y-86995000D03*
X103505000Y-84455000D03*
X103505000Y-81915000D03*
X103505000Y-79375000D03*
X103505000Y-76835000D03*
%TD*%
D12*
%TO.C,C13*%
X138985000Y-73660000D03*
X133985000Y-73660000D03*
%TD*%
%TO.C,C14*%
X175815000Y-73660000D03*
X170815000Y-73660000D03*
%TD*%
%TO.C,R5*%
X214630000Y-29210000D03*
D11*
X214630000Y-36830000D03*
%TD*%
D12*
%TO.C,C6*%
X46990000Y-73660000D03*
X41990000Y-73660000D03*
%TD*%
D10*
%TO.C,U24*%
X59055000Y-114300000D03*
D11*
X59055000Y-116840000D03*
X59055000Y-119380000D03*
X59055000Y-121920000D03*
X59055000Y-124460000D03*
X59055000Y-127000000D03*
X59055000Y-129540000D03*
X66675000Y-129540000D03*
X66675000Y-127000000D03*
X66675000Y-124460000D03*
X66675000Y-121920000D03*
X66675000Y-119380000D03*
X66675000Y-116840000D03*
X66675000Y-114300000D03*
%TD*%
D10*
%TO.C,U9*%
X151130000Y-76835000D03*
D11*
X151130000Y-79375000D03*
X151130000Y-81915000D03*
X151130000Y-84455000D03*
X151130000Y-86995000D03*
X151130000Y-89535000D03*
X151130000Y-92075000D03*
X151130000Y-94615000D03*
X151130000Y-97155000D03*
X151130000Y-99695000D03*
X158750000Y-99695000D03*
X158750000Y-97155000D03*
X158750000Y-94615000D03*
X158750000Y-92075000D03*
X158750000Y-89535000D03*
X158750000Y-86995000D03*
X158750000Y-84455000D03*
X158750000Y-81915000D03*
X158750000Y-79375000D03*
X158750000Y-76835000D03*
%TD*%
D13*
%TO.C,J3*%
X223520000Y-31750000D03*
D14*
X223520000Y-29210000D03*
X226060000Y-31750000D03*
X226060000Y-29210000D03*
X228600000Y-31750000D03*
X228600000Y-29210000D03*
X231140000Y-31750000D03*
X231140000Y-29210000D03*
X233680000Y-31750000D03*
X233680000Y-29210000D03*
X236220000Y-31750000D03*
X236220000Y-29210000D03*
%TD*%
D10*
%TO.C,U10*%
X187960000Y-76835000D03*
D11*
X187960000Y-79375000D03*
X187960000Y-81915000D03*
X187960000Y-84455000D03*
X187960000Y-86995000D03*
X187960000Y-89535000D03*
X187960000Y-92075000D03*
X187960000Y-94615000D03*
X187960000Y-97155000D03*
X187960000Y-99695000D03*
X195580000Y-99695000D03*
X195580000Y-97155000D03*
X195580000Y-94615000D03*
X195580000Y-92075000D03*
X195580000Y-89535000D03*
X195580000Y-86995000D03*
X195580000Y-84455000D03*
X195580000Y-81915000D03*
X195580000Y-79375000D03*
X195580000Y-76835000D03*
%TD*%
D12*
%TO.C,R2*%
X104140000Y-29210000D03*
D11*
X104140000Y-36830000D03*
%TD*%
D12*
%TO.C,C25*%
X157440000Y-111125000D03*
X152440000Y-111125000D03*
%TD*%
%TO.C,C12*%
X102155000Y-73660000D03*
X97155000Y-73660000D03*
%TD*%
D10*
%TO.C,U25*%
X151130000Y-114300000D03*
D11*
X151130000Y-116840000D03*
X151130000Y-119380000D03*
X151130000Y-121920000D03*
X151130000Y-124460000D03*
X151130000Y-127000000D03*
X151130000Y-129540000D03*
X158750000Y-129540000D03*
X158750000Y-127000000D03*
X158750000Y-124460000D03*
X158750000Y-121920000D03*
X158750000Y-119380000D03*
X158750000Y-116840000D03*
X158750000Y-114300000D03*
%TD*%
D12*
%TO.C,C8*%
X120610000Y-73660000D03*
X115610000Y-73660000D03*
%TD*%
%TO.C,R6*%
X69850000Y-121920000D03*
D11*
X69850000Y-114300000D03*
%TD*%
D12*
%TO.C,C4*%
X156290000Y-26035000D03*
X161290000Y-26035000D03*
%TD*%
D10*
%TO.C,U17*%
X114300000Y-114300000D03*
D11*
X114300000Y-116840000D03*
X114300000Y-119380000D03*
X114300000Y-121920000D03*
X114300000Y-124460000D03*
X114300000Y-127000000D03*
X114300000Y-129540000D03*
X114300000Y-132080000D03*
X121920000Y-132080000D03*
X121920000Y-129540000D03*
X121920000Y-127000000D03*
X121920000Y-124460000D03*
X121920000Y-121920000D03*
X121920000Y-119380000D03*
X121920000Y-116840000D03*
X121920000Y-114300000D03*
%TD*%
D12*
%TO.C,C16*%
X102155000Y-111125000D03*
X97155000Y-111125000D03*
%TD*%
D10*
%TO.C,U23*%
X40640000Y-114300000D03*
D11*
X40640000Y-116840000D03*
X40640000Y-119380000D03*
X40640000Y-121920000D03*
X40640000Y-124460000D03*
X40640000Y-127000000D03*
X40640000Y-129540000D03*
X48260000Y-129540000D03*
X48260000Y-127000000D03*
X48260000Y-124460000D03*
X48260000Y-121920000D03*
X48260000Y-119380000D03*
X48260000Y-116840000D03*
X48260000Y-114300000D03*
%TD*%
D12*
%TO.C,R9*%
X180340000Y-123825000D03*
D11*
X180340000Y-131445000D03*
%TD*%
D12*
%TO.C,C7*%
X83780000Y-73660000D03*
X78780000Y-73660000D03*
%TD*%
D10*
%TO.C,U13*%
X132715000Y-76835000D03*
D11*
X132715000Y-79375000D03*
X132715000Y-81915000D03*
X132715000Y-84455000D03*
X132715000Y-86995000D03*
X132715000Y-89535000D03*
X132715000Y-92075000D03*
X132715000Y-94615000D03*
X140335000Y-94615000D03*
X140335000Y-92075000D03*
X140335000Y-89535000D03*
X140335000Y-86995000D03*
X140335000Y-84455000D03*
X140335000Y-81915000D03*
X140335000Y-79375000D03*
X140335000Y-76835000D03*
%TD*%
D12*
%TO.C,C19*%
X231695000Y-111125000D03*
X226695000Y-111125000D03*
%TD*%
%TO.C,C24*%
X65365000Y-111125000D03*
X60365000Y-111125000D03*
%TD*%
%TO.C,C2*%
X82590000Y-26035000D03*
X87590000Y-26035000D03*
%TD*%
%TO.C,C26*%
X175895000Y-111125000D03*
X170895000Y-111125000D03*
%TD*%
D10*
%TO.C,U14*%
X169545000Y-76835000D03*
D11*
X169545000Y-79375000D03*
X169545000Y-81915000D03*
X169545000Y-84455000D03*
X169545000Y-86995000D03*
X169545000Y-89535000D03*
X169545000Y-92075000D03*
X169545000Y-94615000D03*
X177165000Y-94615000D03*
X177165000Y-92075000D03*
X177165000Y-89535000D03*
X177165000Y-86995000D03*
X177165000Y-84455000D03*
X177165000Y-81915000D03*
X177165000Y-79375000D03*
X177165000Y-76835000D03*
%TD*%
D12*
%TO.C,R7*%
X166370000Y-123825000D03*
D11*
X166370000Y-131445000D03*
%TD*%
D15*
%TO.C,J1*%
X131445000Y-152400000D03*
X42545000Y-152400000D03*
D16*
X126365000Y-149860000D03*
D17*
X123825000Y-149860000D03*
X121285000Y-149860000D03*
X118745000Y-149860000D03*
X116205000Y-149860000D03*
X113665000Y-149860000D03*
X111125000Y-149860000D03*
X108585000Y-149860000D03*
X106045000Y-149860000D03*
X103505000Y-149860000D03*
X100965000Y-149860000D03*
X98425000Y-149860000D03*
X95885000Y-149860000D03*
X93345000Y-149860000D03*
X90805000Y-149860000D03*
X88265000Y-149860000D03*
X85725000Y-149860000D03*
X83185000Y-149860000D03*
X80645000Y-149860000D03*
X78105000Y-149860000D03*
X75565000Y-149860000D03*
X73025000Y-149860000D03*
X70485000Y-149860000D03*
X67945000Y-149860000D03*
X65405000Y-149860000D03*
X62865000Y-149860000D03*
X60325000Y-149860000D03*
X57785000Y-149860000D03*
X55245000Y-149860000D03*
X52705000Y-149860000D03*
X50165000Y-149860000D03*
X47625000Y-149860000D03*
X126365000Y-147320000D03*
X123825000Y-147320000D03*
X121285000Y-147320000D03*
X118745000Y-147320000D03*
X116205000Y-147320000D03*
X113665000Y-147320000D03*
X111125000Y-147320000D03*
X108585000Y-147320000D03*
X106045000Y-147320000D03*
X103505000Y-147320000D03*
X100965000Y-147320000D03*
X98425000Y-147320000D03*
X95885000Y-147320000D03*
X93345000Y-147320000D03*
X90805000Y-147320000D03*
X88265000Y-147320000D03*
X85725000Y-147320000D03*
X83185000Y-147320000D03*
X80645000Y-147320000D03*
X78105000Y-147320000D03*
X75565000Y-147320000D03*
X73025000Y-147320000D03*
X70485000Y-147320000D03*
X67945000Y-147320000D03*
X65405000Y-147320000D03*
X62865000Y-147320000D03*
X60325000Y-147320000D03*
X57785000Y-147320000D03*
X55245000Y-147320000D03*
X52705000Y-147320000D03*
X50165000Y-147320000D03*
X47625000Y-147320000D03*
%TD*%
D12*
%TO.C,R8*%
X166370000Y-113665000D03*
D11*
X166370000Y-121285000D03*
%TD*%
D12*
%TO.C,C21*%
X194270000Y-111125000D03*
X189270000Y-111125000D03*
%TD*%
D10*
%TO.C,U18*%
X132715000Y-114300000D03*
D11*
X132715000Y-116840000D03*
X132715000Y-119380000D03*
X132715000Y-121920000D03*
X132715000Y-124460000D03*
X132715000Y-127000000D03*
X132715000Y-129540000D03*
X132715000Y-132080000D03*
X140335000Y-132080000D03*
X140335000Y-129540000D03*
X140335000Y-127000000D03*
X140335000Y-124460000D03*
X140335000Y-121920000D03*
X140335000Y-119380000D03*
X140335000Y-116840000D03*
X140335000Y-114300000D03*
%TD*%
D12*
%TO.C,C5*%
X193120000Y-26035000D03*
X198120000Y-26035000D03*
%TD*%
%TO.C,R1*%
X67310000Y-29210000D03*
D11*
X67310000Y-36830000D03*
%TD*%
D12*
%TO.C,R11*%
X147955000Y-124460000D03*
D11*
X147955000Y-116840000D03*
%TD*%
D12*
%TO.C,C18*%
X139025000Y-111125000D03*
X134025000Y-111125000D03*
%TD*%
D10*
%TO.C,U5*%
X187960000Y-29210000D03*
D11*
X187960000Y-31750000D03*
X187960000Y-34290000D03*
X187960000Y-36830000D03*
X187960000Y-39370000D03*
X187960000Y-41910000D03*
X187960000Y-44450000D03*
X187960000Y-46990000D03*
X187960000Y-49530000D03*
X187960000Y-52070000D03*
X187960000Y-54610000D03*
X187960000Y-57150000D03*
X187960000Y-59690000D03*
X187960000Y-62230000D03*
X203200000Y-62230000D03*
X203200000Y-59690000D03*
X203200000Y-57150000D03*
X203200000Y-54610000D03*
X203200000Y-52070000D03*
X203200000Y-49530000D03*
X203200000Y-46990000D03*
X203200000Y-44450000D03*
X203200000Y-41910000D03*
X203200000Y-39370000D03*
X203200000Y-36830000D03*
X203200000Y-34290000D03*
X203200000Y-31750000D03*
X203200000Y-29210000D03*
%TD*%
D10*
%TO.C,U15*%
X206375000Y-76835000D03*
D11*
X206375000Y-79375000D03*
X206375000Y-81915000D03*
X206375000Y-84455000D03*
X206375000Y-86995000D03*
X206375000Y-89535000D03*
X206375000Y-92075000D03*
X206375000Y-94615000D03*
X213995000Y-94615000D03*
X213995000Y-92075000D03*
X213995000Y-89535000D03*
X213995000Y-86995000D03*
X213995000Y-84455000D03*
X213995000Y-81915000D03*
X213995000Y-79375000D03*
X213995000Y-76835000D03*
%TD*%
D10*
%TO.C,U6*%
X40650000Y-76840000D03*
D11*
X40650000Y-79380000D03*
X40650000Y-81920000D03*
X40650000Y-84460000D03*
X40650000Y-87000000D03*
X40650000Y-89540000D03*
X40650000Y-92080000D03*
X40650000Y-94620000D03*
X40650000Y-97160000D03*
X40650000Y-99700000D03*
X48270000Y-99700000D03*
X48270000Y-97160000D03*
X48270000Y-94620000D03*
X48270000Y-92080000D03*
X48270000Y-89540000D03*
X48270000Y-87000000D03*
X48270000Y-84460000D03*
X48270000Y-81920000D03*
X48270000Y-79380000D03*
X48270000Y-76840000D03*
%TD*%
D10*
%TO.C,U20*%
X206375000Y-114300000D03*
D11*
X206375000Y-116840000D03*
X206375000Y-119380000D03*
X206375000Y-121920000D03*
X206375000Y-124460000D03*
X206375000Y-127000000D03*
X206375000Y-129540000D03*
X206375000Y-132080000D03*
X206375000Y-134620000D03*
X206375000Y-137160000D03*
X213995000Y-137160000D03*
X213995000Y-134620000D03*
X213995000Y-132080000D03*
X213995000Y-129540000D03*
X213995000Y-127000000D03*
X213995000Y-124460000D03*
X213995000Y-121920000D03*
X213995000Y-119380000D03*
X213995000Y-116840000D03*
X213995000Y-114300000D03*
%TD*%
D12*
%TO.C,C23*%
X46910000Y-111125000D03*
X41910000Y-111125000D03*
%TD*%
%TO.C,R10*%
X180340000Y-113665000D03*
D11*
X180340000Y-121285000D03*
%TD*%
D12*
%TO.C,C22*%
X83740000Y-111125000D03*
X78740000Y-111125000D03*
%TD*%
D10*
%TO.C,U11*%
X59055000Y-76835000D03*
D11*
X59055000Y-79375000D03*
X59055000Y-81915000D03*
X59055000Y-84455000D03*
X59055000Y-86995000D03*
X59055000Y-89535000D03*
X59055000Y-92075000D03*
X59055000Y-94615000D03*
X66675000Y-94615000D03*
X66675000Y-92075000D03*
X66675000Y-89535000D03*
X66675000Y-86995000D03*
X66675000Y-84455000D03*
X66675000Y-81915000D03*
X66675000Y-79375000D03*
X66675000Y-76835000D03*
%TD*%
D15*
%TO.C,J2*%
X234950000Y-152400000D03*
X146050000Y-152400000D03*
D16*
X229870000Y-149860000D03*
D17*
X227330000Y-149860000D03*
X224790000Y-149860000D03*
X222250000Y-149860000D03*
X219710000Y-149860000D03*
X217170000Y-149860000D03*
X214630000Y-149860000D03*
X212090000Y-149860000D03*
X209550000Y-149860000D03*
X207010000Y-149860000D03*
X204470000Y-149860000D03*
X201930000Y-149860000D03*
X199390000Y-149860000D03*
X196850000Y-149860000D03*
X194310000Y-149860000D03*
X191770000Y-149860000D03*
X189230000Y-149860000D03*
X186690000Y-149860000D03*
X184150000Y-149860000D03*
X181610000Y-149860000D03*
X179070000Y-149860000D03*
X176530000Y-149860000D03*
X173990000Y-149860000D03*
X171450000Y-149860000D03*
X168910000Y-149860000D03*
X166370000Y-149860000D03*
X163830000Y-149860000D03*
X161290000Y-149860000D03*
X158750000Y-149860000D03*
X156210000Y-149860000D03*
X153670000Y-149860000D03*
X151130000Y-149860000D03*
X229870000Y-147320000D03*
X227330000Y-147320000D03*
X224790000Y-147320000D03*
X222250000Y-147320000D03*
X219710000Y-147320000D03*
X217170000Y-147320000D03*
X214630000Y-147320000D03*
X212090000Y-147320000D03*
X209550000Y-147320000D03*
X207010000Y-147320000D03*
X204470000Y-147320000D03*
X201930000Y-147320000D03*
X199390000Y-147320000D03*
X196850000Y-147320000D03*
X194310000Y-147320000D03*
X191770000Y-147320000D03*
X189230000Y-147320000D03*
X186690000Y-147320000D03*
X184150000Y-147320000D03*
X181610000Y-147320000D03*
X179070000Y-147320000D03*
X176530000Y-147320000D03*
X173990000Y-147320000D03*
X171450000Y-147320000D03*
X168910000Y-147320000D03*
X166370000Y-147320000D03*
X163830000Y-147320000D03*
X161290000Y-147320000D03*
X158750000Y-147320000D03*
X156210000Y-147320000D03*
X153670000Y-147320000D03*
X151130000Y-147320000D03*
%TD*%
D12*
%TO.C,C1*%
X45760000Y-26035000D03*
X50760000Y-26035000D03*
%TD*%
%TO.C,C17*%
X120570000Y-111125000D03*
X115570000Y-111125000D03*
%TD*%
D10*
%TO.C,U1*%
X40640000Y-29210000D03*
D11*
X40640000Y-31750000D03*
X40640000Y-34290000D03*
X40640000Y-36830000D03*
X40640000Y-39370000D03*
X40640000Y-41910000D03*
X40640000Y-44450000D03*
X40640000Y-46990000D03*
X40640000Y-49530000D03*
X40640000Y-52070000D03*
X40640000Y-54610000D03*
X40640000Y-57150000D03*
X40640000Y-59690000D03*
X40640000Y-62230000D03*
X55880000Y-62230000D03*
X55880000Y-59690000D03*
X55880000Y-57150000D03*
X55880000Y-54610000D03*
X55880000Y-52070000D03*
X55880000Y-49530000D03*
X55880000Y-46990000D03*
X55880000Y-44450000D03*
X55880000Y-41910000D03*
X55880000Y-39370000D03*
X55880000Y-36830000D03*
X55880000Y-34290000D03*
X55880000Y-31750000D03*
X55880000Y-29210000D03*
%TD*%
D10*
%TO.C,C27*%
X43267600Y-139065000D03*
D12*
X45767600Y-139065000D03*
%TD*%
%TO.C,C3*%
X119420000Y-26035000D03*
X124420000Y-26035000D03*
%TD*%
D10*
%TO.C,U21*%
X187960000Y-114300000D03*
D11*
X187960000Y-116840000D03*
X187960000Y-119380000D03*
X187960000Y-121920000D03*
X187960000Y-124460000D03*
X187960000Y-127000000D03*
X187960000Y-129540000D03*
X187960000Y-132080000D03*
X187960000Y-134620000D03*
X187960000Y-137160000D03*
X195580000Y-137160000D03*
X195580000Y-134620000D03*
X195580000Y-132080000D03*
X195580000Y-129540000D03*
X195580000Y-127000000D03*
X195580000Y-124460000D03*
X195580000Y-121920000D03*
X195580000Y-119380000D03*
X195580000Y-116840000D03*
X195580000Y-114300000D03*
%TD*%
D10*
%TO.C,U16*%
X95885000Y-114300000D03*
D11*
X95885000Y-116840000D03*
X95885000Y-119380000D03*
X95885000Y-121920000D03*
X95885000Y-124460000D03*
X95885000Y-127000000D03*
X95885000Y-129540000D03*
X95885000Y-132080000D03*
X103505000Y-132080000D03*
X103505000Y-129540000D03*
X103505000Y-127000000D03*
X103505000Y-124460000D03*
X103505000Y-121920000D03*
X103505000Y-119380000D03*
X103505000Y-116840000D03*
X103505000Y-114300000D03*
%TD*%
D12*
%TO.C,C9*%
X157400000Y-73660000D03*
X152400000Y-73660000D03*
%TD*%
D10*
%TO.C,U4*%
X151125000Y-29220000D03*
D11*
X151125000Y-31760000D03*
X151125000Y-34300000D03*
X151125000Y-36840000D03*
X151125000Y-39380000D03*
X151125000Y-41920000D03*
X151125000Y-44460000D03*
X151125000Y-47000000D03*
X151125000Y-49540000D03*
X151125000Y-52080000D03*
X151125000Y-54620000D03*
X151125000Y-57160000D03*
X151125000Y-59700000D03*
X151125000Y-62240000D03*
X166365000Y-62240000D03*
X166365000Y-59700000D03*
X166365000Y-57160000D03*
X166365000Y-54620000D03*
X166365000Y-52080000D03*
X166365000Y-49540000D03*
X166365000Y-47000000D03*
X166365000Y-44460000D03*
X166365000Y-41920000D03*
X166365000Y-39380000D03*
X166365000Y-36840000D03*
X166365000Y-34300000D03*
X166365000Y-31760000D03*
X166365000Y-29220000D03*
%TD*%
D12*
%TO.C,R3*%
X140970000Y-29210000D03*
D11*
X140970000Y-36830000D03*
%TD*%
D10*
%TO.C,U26*%
X169545000Y-114300000D03*
D11*
X169545000Y-116840000D03*
X169545000Y-119380000D03*
X169545000Y-121920000D03*
X169545000Y-124460000D03*
X169545000Y-127000000D03*
X169545000Y-129540000D03*
X177165000Y-129540000D03*
X177165000Y-127000000D03*
X177165000Y-124460000D03*
X177165000Y-121920000D03*
X177165000Y-119380000D03*
X177165000Y-116840000D03*
X177165000Y-114300000D03*
%TD*%
D12*
%TO.C,R4*%
X177800000Y-29210000D03*
D11*
X177800000Y-36830000D03*
%TD*%
D12*
%TO.C,C20*%
X212685000Y-111125000D03*
X207685000Y-111125000D03*
%TD*%
D10*
%TO.C,U8*%
X114300000Y-76835000D03*
D11*
X114300000Y-79375000D03*
X114300000Y-81915000D03*
X114300000Y-84455000D03*
X114300000Y-86995000D03*
X114300000Y-89535000D03*
X114300000Y-92075000D03*
X114300000Y-94615000D03*
X114300000Y-97155000D03*
X114300000Y-99695000D03*
X121920000Y-99695000D03*
X121920000Y-97155000D03*
X121920000Y-94615000D03*
X121920000Y-92075000D03*
X121920000Y-89535000D03*
X121920000Y-86995000D03*
X121920000Y-84455000D03*
X121920000Y-81915000D03*
X121920000Y-79375000D03*
X121920000Y-76835000D03*
%TD*%
D12*
%TO.C,C11*%
X65365000Y-73660000D03*
X60365000Y-73660000D03*
%TD*%
M02*
