%TF.GenerationSoftware,KiCad,Pcbnew,7.0.7*%
%TF.CreationDate,2026-08-17T21:16:08-05:00*%
%TF.ProjectId,Front Panel Register,46726f6e-7420-4506-916e-656c20526567,rev?*%
%TF.SameCoordinates,Original*%
%TF.FileFunction,Soldermask,Top*%
%TF.FilePolarity,Negative*%
%FSLAX46Y46*%
G04 Gerber Fmt 4.6, Leading zero omitted, Abs format (unit mm)*
G04 Created by KiCad (PCBNEW 7.0.7) date 2026-08-17 21:16:08*
%MOMM*%
%LPD*%
G01*
G04 APERTURE LIST*
G04 Aperture macros list*
%AMRoundRect*
0 Rectangle with rounded corners*
0 $1 Rounding radius*
0 $2 $3 $4 $5 $6 $7 $8 $9 X,Y pos of 4 corners*
0 Add a 4 corners polygon primitive as box body*
4,1,4,$2,$3,$4,$5,$6,$7,$8,$9,$2,$3,0*
0 Add four circle primitives for the rounded corners*
1,1,$1+$1,$2,$3*
1,1,$1+$1,$4,$5*
1,1,$1+$1,$6,$7*
1,1,$1+$1,$8,$9*
0 Add four rect primitives between the rounded corners*
20,1,$1+$1,$2,$3,$4,$5,0*
20,1,$1+$1,$4,$5,$6,$7,0*
20,1,$1+$1,$6,$7,$8,$9,0*
20,1,$1+$1,$8,$9,$2,$3,0*%
G04 Aperture macros list end*
%ADD10R,1.800000X1.800000*%
%ADD11C,1.800000*%
%ADD12C,1.600000*%
%ADD13O,1.600000X1.600000*%
%ADD14R,1.600000X1.600000*%
%ADD15RoundRect,0.475000X-1.075000X-0.475000X1.075000X-0.475000X1.075000X0.475000X-1.075000X0.475000X0*%
%ADD16C,4.400000*%
%ADD17RoundRect,0.250000X0.600000X-0.600000X0.600000X0.600000X-0.600000X0.600000X-0.600000X-0.600000X0*%
%ADD18C,1.700000*%
G04 APERTURE END LIST*
D10*
%TO.C,D2*%
X222885000Y-55245000D03*
D11*
X225425000Y-55245000D03*
%TD*%
D12*
%TO.C,C4*%
X206375000Y-68580000D03*
X206375000Y-73580000D03*
%TD*%
D10*
%TO.C,D45*%
X143510000Y-120015000D03*
D11*
X146050000Y-120015000D03*
%TD*%
D12*
%TO.C,R4*%
X196850000Y-139065000D03*
D13*
X204470000Y-139065000D03*
%TD*%
D10*
%TO.C,D43*%
X165100000Y-120015000D03*
D11*
X167640000Y-120015000D03*
%TD*%
D10*
%TO.C,D21*%
X212085000Y-87630000D03*
D11*
X214625000Y-87630000D03*
%TD*%
D14*
%TO.C,RN1*%
X236855000Y-62230000D03*
D13*
X234315000Y-62230000D03*
X231775000Y-62230000D03*
X229235000Y-62230000D03*
X226695000Y-62230000D03*
X224155000Y-62230000D03*
%TD*%
D14*
%TO.C,U11*%
X106045000Y-106680000D03*
D13*
X108585000Y-106680000D03*
X111125000Y-106680000D03*
X113665000Y-106680000D03*
X116205000Y-106680000D03*
X118745000Y-106680000D03*
X121285000Y-106680000D03*
X123825000Y-106680000D03*
X126365000Y-106680000D03*
X128905000Y-106680000D03*
X128905000Y-99060000D03*
X126365000Y-99060000D03*
X123825000Y-99060000D03*
X121285000Y-99060000D03*
X118745000Y-99060000D03*
X116205000Y-99060000D03*
X113665000Y-99060000D03*
X111125000Y-99060000D03*
X108585000Y-99060000D03*
X106045000Y-99060000D03*
%TD*%
D10*
%TO.C,D12*%
X109215000Y-55245000D03*
D11*
X111755000Y-55245000D03*
%TD*%
D12*
%TO.C,C9*%
X76835000Y-68580000D03*
X76835000Y-73580000D03*
%TD*%
D10*
%TO.C,D38*%
X222885000Y-120015000D03*
D11*
X225425000Y-120015000D03*
%TD*%
D15*
%TO.C,SW5*%
X189865000Y-144905000D03*
X189865000Y-149605000D03*
X189865000Y-154305000D03*
%TD*%
D12*
%TO.C,C3*%
X59685000Y-128270000D03*
X59685000Y-133270000D03*
%TD*%
D14*
%TO.C,U3*%
X62860000Y-134620000D03*
D13*
X65400000Y-134620000D03*
X67940000Y-134620000D03*
X70480000Y-134620000D03*
X73020000Y-134620000D03*
X75560000Y-134620000D03*
X78100000Y-134620000D03*
X80640000Y-134620000D03*
X83180000Y-134620000D03*
X85720000Y-134620000D03*
X85720000Y-127000000D03*
X83180000Y-127000000D03*
X80640000Y-127000000D03*
X78100000Y-127000000D03*
X75560000Y-127000000D03*
X73020000Y-127000000D03*
X70480000Y-127000000D03*
X67940000Y-127000000D03*
X65400000Y-127000000D03*
X62860000Y-127000000D03*
%TD*%
D10*
%TO.C,D28*%
X130810000Y-87630000D03*
D11*
X133350000Y-87630000D03*
%TD*%
D10*
%TO.C,D35*%
X51430000Y-87630000D03*
D11*
X53970000Y-87630000D03*
%TD*%
D10*
%TO.C,D9*%
X154305000Y-55245000D03*
D11*
X156845000Y-55245000D03*
%TD*%
D14*
%TO.C,RN5*%
X236855000Y-80645000D03*
D13*
X234315000Y-80645000D03*
X231775000Y-80645000D03*
X229235000Y-80645000D03*
X226695000Y-80645000D03*
X224155000Y-80645000D03*
%TD*%
D10*
%TO.C,D52*%
X62225000Y-120015000D03*
D11*
X64765000Y-120015000D03*
%TD*%
D12*
%TO.C,C8*%
X141605000Y-68580000D03*
X141605000Y-73580000D03*
%TD*%
%TO.C,R6*%
X175260000Y-139065000D03*
D13*
X182880000Y-139065000D03*
%TD*%
D10*
%TO.C,D50*%
X85720000Y-120015000D03*
D11*
X88260000Y-120015000D03*
%TD*%
D15*
%TO.C,SW17*%
X52705000Y-144905000D03*
X52705000Y-149605000D03*
X52705000Y-154305000D03*
%TD*%
%TO.C,SW11*%
X121285000Y-144905000D03*
X121285000Y-149605000D03*
X121285000Y-154305000D03*
%TD*%
D12*
%TO.C,R2*%
X220345000Y-139065000D03*
D13*
X227965000Y-139065000D03*
%TD*%
D12*
%TO.C,R3*%
X209550000Y-139065000D03*
D13*
X217170000Y-139065000D03*
%TD*%
D10*
%TO.C,D33*%
X74925000Y-87630000D03*
D11*
X77465000Y-87630000D03*
%TD*%
D10*
%TO.C,D40*%
X199390000Y-120015000D03*
D11*
X201930000Y-120015000D03*
%TD*%
D10*
%TO.C,D42*%
X177800000Y-120015000D03*
D11*
X180340000Y-120015000D03*
%TD*%
D10*
%TO.C,D24*%
X177800000Y-87630000D03*
D11*
X180340000Y-87630000D03*
%TD*%
D14*
%TO.C,U6*%
X47625000Y-74930000D03*
D13*
X50165000Y-74930000D03*
X52705000Y-74930000D03*
X55245000Y-74930000D03*
X57785000Y-74930000D03*
X60325000Y-74930000D03*
X62865000Y-74930000D03*
X65405000Y-74930000D03*
X67945000Y-74930000D03*
X70485000Y-74930000D03*
X70485000Y-67310000D03*
X67945000Y-67310000D03*
X65405000Y-67310000D03*
X62865000Y-67310000D03*
X60325000Y-67310000D03*
X57785000Y-67310000D03*
X55245000Y-67310000D03*
X52705000Y-67310000D03*
X50165000Y-67310000D03*
X47625000Y-67310000D03*
%TD*%
D10*
%TO.C,D17*%
X51435000Y-55245000D03*
D11*
X53975000Y-55245000D03*
%TD*%
D15*
%TO.C,SW1*%
X234950000Y-144905000D03*
X234950000Y-149605000D03*
X234950000Y-154305000D03*
%TD*%
%TO.C,SW12*%
X110490000Y-144905000D03*
X110490000Y-149605000D03*
X110490000Y-154305000D03*
%TD*%
D14*
%TO.C,RN4*%
X65405000Y-62230000D03*
D13*
X62865000Y-62230000D03*
X60325000Y-62230000D03*
X57785000Y-62230000D03*
X55245000Y-62230000D03*
X52705000Y-62230000D03*
%TD*%
D15*
%TO.C,SW14*%
X86995000Y-144905000D03*
X86995000Y-149605000D03*
X86995000Y-154305000D03*
%TD*%
%TO.C,SW8*%
X155575000Y-144905000D03*
X155575000Y-149605000D03*
X155575000Y-154305000D03*
%TD*%
D10*
%TO.C,D34*%
X62225000Y-87630000D03*
D11*
X64765000Y-87630000D03*
%TD*%
D14*
%TO.C,U1*%
X190500000Y-134610000D03*
D13*
X193040000Y-134610000D03*
X195580000Y-134610000D03*
X198120000Y-134610000D03*
X200660000Y-134610000D03*
X203200000Y-134610000D03*
X205740000Y-134610000D03*
X208280000Y-134610000D03*
X210820000Y-134610000D03*
X213360000Y-134610000D03*
X213360000Y-126990000D03*
X210820000Y-126990000D03*
X208280000Y-126990000D03*
X205740000Y-126990000D03*
X203200000Y-126990000D03*
X200660000Y-126990000D03*
X198120000Y-126990000D03*
X195580000Y-126990000D03*
X193040000Y-126990000D03*
X190500000Y-126990000D03*
%TD*%
D10*
%TO.C,D4*%
X188595000Y-55245000D03*
D11*
X191135000Y-55245000D03*
%TD*%
D12*
%TO.C,R7*%
X162560000Y-139065000D03*
D13*
X170180000Y-139065000D03*
%TD*%
D15*
%TO.C,SW13*%
X97790000Y-144905000D03*
X97790000Y-149605000D03*
X97790000Y-154305000D03*
%TD*%
D14*
%TO.C,RN11*%
X133985000Y-112395000D03*
D13*
X131445000Y-112395000D03*
X128905000Y-112395000D03*
X126365000Y-112395000D03*
X123825000Y-112395000D03*
X121285000Y-112395000D03*
%TD*%
D14*
%TO.C,RN8*%
X65405000Y-80645000D03*
D13*
X62865000Y-80645000D03*
X60325000Y-80645000D03*
X57785000Y-80645000D03*
X55245000Y-80645000D03*
X52705000Y-80645000D03*
%TD*%
D12*
%TO.C,R12*%
X106680000Y-139065000D03*
D13*
X114300000Y-139065000D03*
%TD*%
D16*
%TO.C,H4*%
X236855000Y-131445000D03*
%TD*%
D10*
%TO.C,D18*%
X40635000Y-55245000D03*
D11*
X43175000Y-55245000D03*
%TD*%
D15*
%TO.C,SW4*%
X200660000Y-144905000D03*
X200660000Y-149605000D03*
X200660000Y-154305000D03*
%TD*%
D12*
%TO.C,C6*%
X44450000Y-68580000D03*
X44450000Y-73580000D03*
%TD*%
%TO.C,R10*%
X128270000Y-139065000D03*
D13*
X135890000Y-139065000D03*
%TD*%
D10*
%TO.C,D14*%
X85720000Y-55245000D03*
D11*
X88260000Y-55245000D03*
%TD*%
D10*
%TO.C,D11*%
X120015000Y-55245000D03*
D11*
X122555000Y-55245000D03*
%TD*%
D15*
%TO.C,SW15*%
X76200000Y-144905000D03*
X76200000Y-149605000D03*
X76200000Y-154305000D03*
%TD*%
D12*
%TO.C,R18*%
X38100000Y-139065000D03*
D13*
X45720000Y-139065000D03*
%TD*%
D10*
%TO.C,D8*%
X143510000Y-55245000D03*
D11*
X146050000Y-55245000D03*
%TD*%
D14*
%TO.C,U7*%
X177165000Y-74930000D03*
D13*
X179705000Y-74930000D03*
X182245000Y-74930000D03*
X184785000Y-74930000D03*
X187325000Y-74930000D03*
X189865000Y-74930000D03*
X192405000Y-74930000D03*
X194945000Y-74930000D03*
X197485000Y-74930000D03*
X200025000Y-74930000D03*
X200025000Y-67310000D03*
X197485000Y-67310000D03*
X194945000Y-67310000D03*
X192405000Y-67310000D03*
X189865000Y-67310000D03*
X187325000Y-67310000D03*
X184785000Y-67310000D03*
X182245000Y-67310000D03*
X179705000Y-67310000D03*
X177165000Y-67310000D03*
%TD*%
D10*
%TO.C,D46*%
X130810000Y-120015000D03*
D11*
X133350000Y-120015000D03*
%TD*%
D10*
%TO.C,D15*%
X74925000Y-55245000D03*
D11*
X77465000Y-55245000D03*
%TD*%
D10*
%TO.C,D27*%
X143510000Y-87630000D03*
D11*
X146050000Y-87630000D03*
%TD*%
D12*
%TO.C,R14*%
X82550000Y-139065000D03*
D13*
X90170000Y-139065000D03*
%TD*%
D10*
%TO.C,D41*%
X188590000Y-120015000D03*
D11*
X191130000Y-120015000D03*
%TD*%
D10*
%TO.C,D30*%
X109220000Y-87630000D03*
D11*
X111760000Y-87630000D03*
%TD*%
D10*
%TO.C,D23*%
X188595000Y-87630000D03*
D11*
X191135000Y-87630000D03*
%TD*%
D16*
%TO.C,H3*%
X236855000Y-71120000D03*
%TD*%
D12*
%TO.C,R15*%
X72390000Y-139065000D03*
D13*
X80010000Y-139065000D03*
%TD*%
D10*
%TO.C,D6*%
X165100000Y-55245000D03*
D11*
X167640000Y-55245000D03*
%TD*%
D14*
%TO.C,RN6*%
X180975000Y-80645000D03*
D13*
X178435000Y-80645000D03*
X175895000Y-80645000D03*
X173355000Y-80645000D03*
X170815000Y-80645000D03*
X168275000Y-80645000D03*
%TD*%
D10*
%TO.C,D49*%
X96520000Y-120015000D03*
D11*
X99060000Y-120015000D03*
%TD*%
D10*
%TO.C,D22*%
X199390000Y-87630000D03*
D11*
X201930000Y-87630000D03*
%TD*%
D10*
%TO.C,D25*%
X165100000Y-87630000D03*
D11*
X167640000Y-87630000D03*
%TD*%
D12*
%TO.C,R17*%
X48895000Y-139065000D03*
D13*
X56515000Y-139065000D03*
%TD*%
D15*
%TO.C,SW16*%
X63500000Y-144905000D03*
X63500000Y-149605000D03*
X63500000Y-154305000D03*
%TD*%
D12*
%TO.C,R16*%
X59690000Y-139065000D03*
D13*
X67310000Y-139065000D03*
%TD*%
D12*
%TO.C,C7*%
X173990000Y-68580000D03*
X173990000Y-73580000D03*
%TD*%
D16*
%TO.C,H2*%
X40005000Y-131445000D03*
%TD*%
D10*
%TO.C,D10*%
X130810000Y-55245000D03*
D11*
X133350000Y-55245000D03*
%TD*%
D16*
%TO.C,H1*%
X40005000Y-71120000D03*
%TD*%
D15*
%TO.C,SW7*%
X166370000Y-144905000D03*
X166370000Y-149605000D03*
X166370000Y-154305000D03*
%TD*%
D10*
%TO.C,D36*%
X40635000Y-87630000D03*
D11*
X43175000Y-87630000D03*
%TD*%
D14*
%TO.C,U10*%
X138430000Y-106680000D03*
D13*
X140970000Y-106680000D03*
X143510000Y-106680000D03*
X146050000Y-106680000D03*
X148590000Y-106680000D03*
X151130000Y-106680000D03*
X153670000Y-106680000D03*
X156210000Y-106680000D03*
X158750000Y-106680000D03*
X161290000Y-106680000D03*
X161290000Y-99060000D03*
X158750000Y-99060000D03*
X156210000Y-99060000D03*
X153670000Y-99060000D03*
X151130000Y-99060000D03*
X148590000Y-99060000D03*
X146050000Y-99060000D03*
X143510000Y-99060000D03*
X140970000Y-99060000D03*
X138430000Y-99060000D03*
%TD*%
D10*
%TO.C,D13*%
X96515000Y-55245000D03*
D11*
X99055000Y-55245000D03*
%TD*%
D14*
%TO.C,U5*%
X112395000Y-74930000D03*
D13*
X114935000Y-74930000D03*
X117475000Y-74930000D03*
X120015000Y-74930000D03*
X122555000Y-74930000D03*
X125095000Y-74930000D03*
X127635000Y-74930000D03*
X130175000Y-74930000D03*
X132715000Y-74930000D03*
X135255000Y-74930000D03*
X135255000Y-67310000D03*
X132715000Y-67310000D03*
X130175000Y-67310000D03*
X127635000Y-67310000D03*
X125095000Y-67310000D03*
X122555000Y-67310000D03*
X120015000Y-67310000D03*
X117475000Y-67310000D03*
X114935000Y-67310000D03*
X112395000Y-67310000D03*
%TD*%
D10*
%TO.C,D3*%
X212085000Y-55245000D03*
D11*
X214625000Y-55245000D03*
%TD*%
D14*
%TO.C,U2*%
X121915000Y-134620000D03*
D13*
X124455000Y-134620000D03*
X126995000Y-134620000D03*
X129535000Y-134620000D03*
X132075000Y-134620000D03*
X134615000Y-134620000D03*
X137155000Y-134620000D03*
X139695000Y-134620000D03*
X142235000Y-134620000D03*
X144775000Y-134620000D03*
X144775000Y-127000000D03*
X142235000Y-127000000D03*
X139695000Y-127000000D03*
X137155000Y-127000000D03*
X134615000Y-127000000D03*
X132075000Y-127000000D03*
X129535000Y-127000000D03*
X126995000Y-127000000D03*
X124455000Y-127000000D03*
X121915000Y-127000000D03*
%TD*%
D12*
%TO.C,R13*%
X93980000Y-139065000D03*
D13*
X101600000Y-139065000D03*
%TD*%
D14*
%TO.C,U12*%
X71755000Y-106680000D03*
D13*
X74295000Y-106680000D03*
X76835000Y-106680000D03*
X79375000Y-106680000D03*
X81915000Y-106680000D03*
X84455000Y-106680000D03*
X86995000Y-106680000D03*
X89535000Y-106680000D03*
X92075000Y-106680000D03*
X94615000Y-106680000D03*
X94615000Y-99060000D03*
X92075000Y-99060000D03*
X89535000Y-99060000D03*
X86995000Y-99060000D03*
X84455000Y-99060000D03*
X81915000Y-99060000D03*
X79375000Y-99060000D03*
X76835000Y-99060000D03*
X74295000Y-99060000D03*
X71755000Y-99060000D03*
%TD*%
D14*
%TO.C,RN3*%
X133985000Y-62230000D03*
D13*
X131445000Y-62230000D03*
X128905000Y-62230000D03*
X126365000Y-62230000D03*
X123825000Y-62230000D03*
X121285000Y-62230000D03*
%TD*%
D10*
%TO.C,D31*%
X96520000Y-87630000D03*
D11*
X99060000Y-87630000D03*
%TD*%
D10*
%TO.C,D26*%
X154300000Y-87630000D03*
D11*
X156840000Y-87630000D03*
%TD*%
D12*
%TO.C,R9*%
X140970000Y-139065000D03*
D13*
X148590000Y-139065000D03*
%TD*%
D10*
%TO.C,D1*%
X233680000Y-55245000D03*
D11*
X236220000Y-55245000D03*
%TD*%
D10*
%TO.C,D29*%
X120015000Y-87630000D03*
D11*
X122555000Y-87630000D03*
%TD*%
D14*
%TO.C,RN2*%
X180975000Y-62230000D03*
D13*
X178435000Y-62230000D03*
X175895000Y-62230000D03*
X173355000Y-62230000D03*
X170815000Y-62230000D03*
X168275000Y-62230000D03*
%TD*%
D15*
%TO.C,SW10*%
X132080000Y-144905000D03*
X132080000Y-149605000D03*
X132080000Y-154305000D03*
%TD*%
D10*
%TO.C,D7*%
X177800000Y-55245000D03*
D11*
X180340000Y-55245000D03*
%TD*%
D14*
%TO.C,RN7*%
X133985000Y-80645000D03*
D13*
X131445000Y-80645000D03*
X128905000Y-80645000D03*
X126365000Y-80645000D03*
X123825000Y-80645000D03*
X121285000Y-80645000D03*
%TD*%
D12*
%TO.C,C5*%
X109220000Y-68580000D03*
X109220000Y-73580000D03*
%TD*%
D15*
%TO.C,SW9*%
X144780000Y-144905000D03*
X144780000Y-149605000D03*
X144780000Y-154305000D03*
%TD*%
D10*
%TO.C,D44*%
X154300000Y-120015000D03*
D11*
X156840000Y-120015000D03*
%TD*%
D12*
%TO.C,C10*%
X135255000Y-100330000D03*
X135255000Y-105330000D03*
%TD*%
D10*
%TO.C,D37*%
X233680000Y-120015000D03*
D11*
X236220000Y-120015000D03*
%TD*%
D10*
%TO.C,D19*%
X233680000Y-87630000D03*
D11*
X236220000Y-87630000D03*
%TD*%
D15*
%TO.C,SW6*%
X179070000Y-144905000D03*
X179070000Y-149605000D03*
X179070000Y-154305000D03*
%TD*%
D10*
%TO.C,D39*%
X212085000Y-120015000D03*
D11*
X214625000Y-120015000D03*
%TD*%
D12*
%TO.C,C12*%
X68580000Y-100330000D03*
X68580000Y-105330000D03*
%TD*%
D10*
%TO.C,D16*%
X62225000Y-55245000D03*
D11*
X64765000Y-55245000D03*
%TD*%
D10*
%TO.C,D20*%
X222885000Y-87630000D03*
D11*
X225425000Y-87630000D03*
%TD*%
D10*
%TO.C,D32*%
X85720000Y-87630000D03*
D11*
X88260000Y-87630000D03*
%TD*%
D10*
%TO.C,D53*%
X51430000Y-120015000D03*
D11*
X53970000Y-120015000D03*
%TD*%
D14*
%TO.C,RN9*%
X236855000Y-112395000D03*
D13*
X234315000Y-112395000D03*
X231775000Y-112395000D03*
X229235000Y-112395000D03*
X226695000Y-112395000D03*
X224155000Y-112395000D03*
%TD*%
D10*
%TO.C,D54*%
X40635000Y-120015000D03*
D11*
X43175000Y-120015000D03*
%TD*%
D12*
%TO.C,C11*%
X102870000Y-100370000D03*
X102870000Y-105370000D03*
%TD*%
D14*
%TO.C,U4*%
X209550000Y-74930000D03*
D13*
X212090000Y-74930000D03*
X214630000Y-74930000D03*
X217170000Y-74930000D03*
X219710000Y-74930000D03*
X222250000Y-74930000D03*
X224790000Y-74930000D03*
X227330000Y-74930000D03*
X229870000Y-74930000D03*
X232410000Y-74930000D03*
X232410000Y-67310000D03*
X229870000Y-67310000D03*
X227330000Y-67310000D03*
X224790000Y-67310000D03*
X222250000Y-67310000D03*
X219710000Y-67310000D03*
X217170000Y-67310000D03*
X214630000Y-67310000D03*
X212090000Y-67310000D03*
X209550000Y-67310000D03*
%TD*%
D14*
%TO.C,RN10*%
X180975000Y-112395000D03*
D13*
X178435000Y-112395000D03*
X175895000Y-112395000D03*
X173355000Y-112395000D03*
X170815000Y-112395000D03*
X168275000Y-112395000D03*
%TD*%
D12*
%TO.C,R11*%
X117475000Y-139065000D03*
D13*
X125095000Y-139065000D03*
%TD*%
D15*
%TO.C,SW3*%
X213360000Y-144905000D03*
X213360000Y-149605000D03*
X213360000Y-154305000D03*
%TD*%
%TO.C,SW2*%
X224155000Y-144905000D03*
X224155000Y-149605000D03*
X224155000Y-154305000D03*
%TD*%
D12*
%TO.C,R8*%
X151765000Y-139065000D03*
D13*
X159385000Y-139065000D03*
%TD*%
D15*
%TO.C,SW18*%
X41910000Y-144905000D03*
X41910000Y-149605000D03*
X41910000Y-154305000D03*
%TD*%
D12*
%TO.C,R5*%
X186055000Y-139065000D03*
D13*
X193675000Y-139065000D03*
%TD*%
D10*
%TO.C,D51*%
X74925000Y-120015000D03*
D11*
X77465000Y-120015000D03*
%TD*%
D10*
%TO.C,D47*%
X120015000Y-120015000D03*
D11*
X122555000Y-120015000D03*
%TD*%
D10*
%TO.C,D5*%
X199390000Y-55245000D03*
D11*
X201930000Y-55245000D03*
%TD*%
D12*
%TO.C,C2*%
X118745000Y-128310000D03*
X118745000Y-133310000D03*
%TD*%
D14*
%TO.C,U8*%
X144780000Y-74930000D03*
D13*
X147320000Y-74930000D03*
X149860000Y-74930000D03*
X152400000Y-74930000D03*
X154940000Y-74930000D03*
X157480000Y-74930000D03*
X160020000Y-74930000D03*
X162560000Y-74930000D03*
X165100000Y-74930000D03*
X167640000Y-74930000D03*
X167640000Y-67310000D03*
X165100000Y-67310000D03*
X162560000Y-67310000D03*
X160020000Y-67310000D03*
X157480000Y-67310000D03*
X154940000Y-67310000D03*
X152400000Y-67310000D03*
X149860000Y-67310000D03*
X147320000Y-67310000D03*
X144780000Y-67310000D03*
%TD*%
D14*
%TO.C,U9*%
X80010000Y-74930000D03*
D13*
X82550000Y-74930000D03*
X85090000Y-74930000D03*
X87630000Y-74930000D03*
X90170000Y-74930000D03*
X92710000Y-74930000D03*
X95250000Y-74930000D03*
X97790000Y-74930000D03*
X100330000Y-74930000D03*
X102870000Y-74930000D03*
X102870000Y-67310000D03*
X100330000Y-67310000D03*
X97790000Y-67310000D03*
X95250000Y-67310000D03*
X92710000Y-67310000D03*
X90170000Y-67310000D03*
X87630000Y-67310000D03*
X85090000Y-67310000D03*
X82550000Y-67310000D03*
X80010000Y-67310000D03*
%TD*%
D12*
%TO.C,R1*%
X231140000Y-139065000D03*
D13*
X238760000Y-139065000D03*
%TD*%
D12*
%TO.C,C1*%
X187325000Y-128270000D03*
X187325000Y-133270000D03*
%TD*%
D10*
%TO.C,D48*%
X109220000Y-120015000D03*
D11*
X111760000Y-120015000D03*
%TD*%
D17*
%TO.C,J1*%
X233045000Y-100330000D03*
D18*
X233045000Y-97790000D03*
X230505000Y-100330000D03*
X230505000Y-97790000D03*
X227965000Y-100330000D03*
X227965000Y-97790000D03*
X225425000Y-100330000D03*
X225425000Y-97790000D03*
X222885000Y-100330000D03*
X222885000Y-97790000D03*
X220345000Y-100330000D03*
X220345000Y-97790000D03*
X217805000Y-100330000D03*
X217805000Y-97790000D03*
X215265000Y-100330000D03*
X215265000Y-97790000D03*
X212725000Y-100330000D03*
X212725000Y-97790000D03*
X210185000Y-100330000D03*
X210185000Y-97790000D03*
X207645000Y-100330000D03*
X207645000Y-97790000D03*
X205105000Y-100330000D03*
X205105000Y-97790000D03*
X202565000Y-100330000D03*
X202565000Y-97790000D03*
X200025000Y-100330000D03*
X200025000Y-97790000D03*
X197485000Y-100330000D03*
X197485000Y-97790000D03*
X194945000Y-100330000D03*
X194945000Y-97790000D03*
X192405000Y-100330000D03*
X192405000Y-97790000D03*
X189865000Y-100330000D03*
X189865000Y-97790000D03*
X187325000Y-100330000D03*
X187325000Y-97790000D03*
X184785000Y-100330000D03*
X184785000Y-97790000D03*
X182245000Y-100330000D03*
X182245000Y-97790000D03*
X179705000Y-100330000D03*
X179705000Y-97790000D03*
X177165000Y-100330000D03*
X177165000Y-97790000D03*
X174625000Y-100330000D03*
X174625000Y-97790000D03*
X172085000Y-100330000D03*
X172085000Y-97790000D03*
%TD*%
D14*
%TO.C,C13*%
X203835000Y-109855000D03*
D12*
X201335000Y-109855000D03*
%TD*%
M02*
