%TF.GenerationSoftware,KiCad,Pcbnew,7.0.7*%
%TF.CreationDate,2026-08-17T21:16:08-05:00*%
%TF.ProjectId,Front Panel Register,46726f6e-7420-4506-916e-656c20526567,rev?*%
%TF.SameCoordinates,Original*%
%TF.FileFunction,Legend,Bot*%
%TF.FilePolarity,Positive*%
%FSLAX46Y46*%
G04 Gerber Fmt 4.6, Leading zero omitted, Abs format (unit mm)*
G04 Created by KiCad (PCBNEW 7.0.7) date 2026-08-17 21:16:08*
%MOMM*%
%LPD*%
G01*
G04 APERTURE LIST*
%ADD10C,0.150000*%
%ADD11C,0.120000*%
G04 APERTURE END LIST*
D10*
X229644411Y-105597438D02*
X229739649Y-105549819D01*
X229739649Y-105549819D02*
X229882506Y-105549819D01*
X229882506Y-105549819D02*
X230025363Y-105597438D01*
X230025363Y-105597438D02*
X230120601Y-105692676D01*
X230120601Y-105692676D02*
X230168220Y-105787914D01*
X230168220Y-105787914D02*
X230215839Y-105978390D01*
X230215839Y-105978390D02*
X230215839Y-106121247D01*
X230215839Y-106121247D02*
X230168220Y-106311723D01*
X230168220Y-106311723D02*
X230120601Y-106406961D01*
X230120601Y-106406961D02*
X230025363Y-106502200D01*
X230025363Y-106502200D02*
X229882506Y-106549819D01*
X229882506Y-106549819D02*
X229787268Y-106549819D01*
X229787268Y-106549819D02*
X229644411Y-106502200D01*
X229644411Y-106502200D02*
X229596792Y-106454580D01*
X229596792Y-106454580D02*
X229596792Y-106121247D01*
X229596792Y-106121247D02*
X229787268Y-106121247D01*
X228739649Y-106549819D02*
X228739649Y-106026009D01*
X228739649Y-106026009D02*
X228787268Y-105930771D01*
X228787268Y-105930771D02*
X228882506Y-105883152D01*
X228882506Y-105883152D02*
X229072982Y-105883152D01*
X229072982Y-105883152D02*
X229168220Y-105930771D01*
X228739649Y-106502200D02*
X228834887Y-106549819D01*
X228834887Y-106549819D02*
X229072982Y-106549819D01*
X229072982Y-106549819D02*
X229168220Y-106502200D01*
X229168220Y-106502200D02*
X229215839Y-106406961D01*
X229215839Y-106406961D02*
X229215839Y-106311723D01*
X229215839Y-106311723D02*
X229168220Y-106216485D01*
X229168220Y-106216485D02*
X229072982Y-106168866D01*
X229072982Y-106168866D02*
X228834887Y-106168866D01*
X228834887Y-106168866D02*
X228739649Y-106121247D01*
X228358696Y-105883152D02*
X228120601Y-106549819D01*
X228120601Y-106549819D02*
X227882506Y-105883152D01*
X227501553Y-106549819D02*
X227501553Y-105883152D01*
X227501553Y-105549819D02*
X227549172Y-105597438D01*
X227549172Y-105597438D02*
X227501553Y-105645057D01*
X227501553Y-105645057D02*
X227453934Y-105597438D01*
X227453934Y-105597438D02*
X227501553Y-105549819D01*
X227501553Y-105549819D02*
X227501553Y-105645057D01*
X227025363Y-105883152D02*
X227025363Y-106549819D01*
X227025363Y-105978390D02*
X226977744Y-105930771D01*
X226977744Y-105930771D02*
X226882506Y-105883152D01*
X226882506Y-105883152D02*
X226739649Y-105883152D01*
X226739649Y-105883152D02*
X226644411Y-105930771D01*
X226644411Y-105930771D02*
X226596792Y-106026009D01*
X226596792Y-106026009D02*
X226596792Y-106549819D01*
X225501553Y-105549819D02*
X224930125Y-105549819D01*
X225215839Y-106549819D02*
X225215839Y-105549819D01*
X224215839Y-106502200D02*
X224311077Y-106549819D01*
X224311077Y-106549819D02*
X224501553Y-106549819D01*
X224501553Y-106549819D02*
X224596791Y-106502200D01*
X224596791Y-106502200D02*
X224644410Y-106406961D01*
X224644410Y-106406961D02*
X224644410Y-106026009D01*
X224644410Y-106026009D02*
X224596791Y-105930771D01*
X224596791Y-105930771D02*
X224501553Y-105883152D01*
X224501553Y-105883152D02*
X224311077Y-105883152D01*
X224311077Y-105883152D02*
X224215839Y-105930771D01*
X224215839Y-105930771D02*
X224168220Y-106026009D01*
X224168220Y-106026009D02*
X224168220Y-106121247D01*
X224168220Y-106121247D02*
X224644410Y-106216485D01*
X223739648Y-106549819D02*
X223739648Y-105883152D01*
X223739648Y-106073628D02*
X223692029Y-105978390D01*
X223692029Y-105978390D02*
X223644410Y-105930771D01*
X223644410Y-105930771D02*
X223549172Y-105883152D01*
X223549172Y-105883152D02*
X223453934Y-105883152D01*
X223168219Y-106502200D02*
X223072981Y-106549819D01*
X223072981Y-106549819D02*
X222882505Y-106549819D01*
X222882505Y-106549819D02*
X222787267Y-106502200D01*
X222787267Y-106502200D02*
X222739648Y-106406961D01*
X222739648Y-106406961D02*
X222739648Y-106359342D01*
X222739648Y-106359342D02*
X222787267Y-106264104D01*
X222787267Y-106264104D02*
X222882505Y-106216485D01*
X222882505Y-106216485D02*
X223025362Y-106216485D01*
X223025362Y-106216485D02*
X223120600Y-106168866D01*
X223120600Y-106168866D02*
X223168219Y-106073628D01*
X223168219Y-106073628D02*
X223168219Y-106026009D01*
X223168219Y-106026009D02*
X223120600Y-105930771D01*
X223120600Y-105930771D02*
X223025362Y-105883152D01*
X223025362Y-105883152D02*
X222882505Y-105883152D01*
X222882505Y-105883152D02*
X222787267Y-105930771D01*
X222453933Y-105883152D02*
X222072981Y-105883152D01*
X222311076Y-105549819D02*
X222311076Y-106406961D01*
X222311076Y-106406961D02*
X222263457Y-106502200D01*
X222263457Y-106502200D02*
X222168219Y-106549819D01*
X222168219Y-106549819D02*
X222072981Y-106549819D01*
X221358695Y-106502200D02*
X221453933Y-106549819D01*
X221453933Y-106549819D02*
X221644409Y-106549819D01*
X221644409Y-106549819D02*
X221739647Y-106502200D01*
X221739647Y-106502200D02*
X221787266Y-106406961D01*
X221787266Y-106406961D02*
X221787266Y-106026009D01*
X221787266Y-106026009D02*
X221739647Y-105930771D01*
X221739647Y-105930771D02*
X221644409Y-105883152D01*
X221644409Y-105883152D02*
X221453933Y-105883152D01*
X221453933Y-105883152D02*
X221358695Y-105930771D01*
X221358695Y-105930771D02*
X221311076Y-106026009D01*
X221311076Y-106026009D02*
X221311076Y-106121247D01*
X221311076Y-106121247D02*
X221787266Y-106216485D01*
X220501552Y-106502200D02*
X220596790Y-106549819D01*
X220596790Y-106549819D02*
X220787266Y-106549819D01*
X220787266Y-106549819D02*
X220882504Y-106502200D01*
X220882504Y-106502200D02*
X220930123Y-106406961D01*
X220930123Y-106406961D02*
X220930123Y-106026009D01*
X220930123Y-106026009D02*
X220882504Y-105930771D01*
X220882504Y-105930771D02*
X220787266Y-105883152D01*
X220787266Y-105883152D02*
X220596790Y-105883152D01*
X220596790Y-105883152D02*
X220501552Y-105930771D01*
X220501552Y-105930771D02*
X220453933Y-106026009D01*
X220453933Y-106026009D02*
X220453933Y-106121247D01*
X220453933Y-106121247D02*
X220930123Y-106216485D01*
X219596790Y-105883152D02*
X219596790Y-106692676D01*
X219596790Y-106692676D02*
X219644409Y-106787914D01*
X219644409Y-106787914D02*
X219692028Y-106835533D01*
X219692028Y-106835533D02*
X219787266Y-106883152D01*
X219787266Y-106883152D02*
X219930123Y-106883152D01*
X219930123Y-106883152D02*
X220025361Y-106835533D01*
X219596790Y-106502200D02*
X219692028Y-106549819D01*
X219692028Y-106549819D02*
X219882504Y-106549819D01*
X219882504Y-106549819D02*
X219977742Y-106502200D01*
X219977742Y-106502200D02*
X220025361Y-106454580D01*
X220025361Y-106454580D02*
X220072980Y-106359342D01*
X220072980Y-106359342D02*
X220072980Y-106073628D01*
X220072980Y-106073628D02*
X220025361Y-105978390D01*
X220025361Y-105978390D02*
X219977742Y-105930771D01*
X219977742Y-105930771D02*
X219882504Y-105883152D01*
X219882504Y-105883152D02*
X219692028Y-105883152D01*
X219692028Y-105883152D02*
X219596790Y-105930771D01*
X219072980Y-106502200D02*
X219072980Y-106549819D01*
X219072980Y-106549819D02*
X219120599Y-106645057D01*
X219120599Y-106645057D02*
X219168218Y-106692676D01*
X217930123Y-105645057D02*
X217882504Y-105597438D01*
X217882504Y-105597438D02*
X217787266Y-105549819D01*
X217787266Y-105549819D02*
X217549171Y-105549819D01*
X217549171Y-105549819D02*
X217453933Y-105597438D01*
X217453933Y-105597438D02*
X217406314Y-105645057D01*
X217406314Y-105645057D02*
X217358695Y-105740295D01*
X217358695Y-105740295D02*
X217358695Y-105835533D01*
X217358695Y-105835533D02*
X217406314Y-105978390D01*
X217406314Y-105978390D02*
X217977742Y-106549819D01*
X217977742Y-106549819D02*
X217358695Y-106549819D01*
X216739647Y-105549819D02*
X216644409Y-105549819D01*
X216644409Y-105549819D02*
X216549171Y-105597438D01*
X216549171Y-105597438D02*
X216501552Y-105645057D01*
X216501552Y-105645057D02*
X216453933Y-105740295D01*
X216453933Y-105740295D02*
X216406314Y-105930771D01*
X216406314Y-105930771D02*
X216406314Y-106168866D01*
X216406314Y-106168866D02*
X216453933Y-106359342D01*
X216453933Y-106359342D02*
X216501552Y-106454580D01*
X216501552Y-106454580D02*
X216549171Y-106502200D01*
X216549171Y-106502200D02*
X216644409Y-106549819D01*
X216644409Y-106549819D02*
X216739647Y-106549819D01*
X216739647Y-106549819D02*
X216834885Y-106502200D01*
X216834885Y-106502200D02*
X216882504Y-106454580D01*
X216882504Y-106454580D02*
X216930123Y-106359342D01*
X216930123Y-106359342D02*
X216977742Y-106168866D01*
X216977742Y-106168866D02*
X216977742Y-105930771D01*
X216977742Y-105930771D02*
X216930123Y-105740295D01*
X216930123Y-105740295D02*
X216882504Y-105645057D01*
X216882504Y-105645057D02*
X216834885Y-105597438D01*
X216834885Y-105597438D02*
X216739647Y-105549819D01*
X216025361Y-105645057D02*
X215977742Y-105597438D01*
X215977742Y-105597438D02*
X215882504Y-105549819D01*
X215882504Y-105549819D02*
X215644409Y-105549819D01*
X215644409Y-105549819D02*
X215549171Y-105597438D01*
X215549171Y-105597438D02*
X215501552Y-105645057D01*
X215501552Y-105645057D02*
X215453933Y-105740295D01*
X215453933Y-105740295D02*
X215453933Y-105835533D01*
X215453933Y-105835533D02*
X215501552Y-105978390D01*
X215501552Y-105978390D02*
X216072980Y-106549819D01*
X216072980Y-106549819D02*
X215453933Y-106549819D01*
X214596790Y-105549819D02*
X214787266Y-105549819D01*
X214787266Y-105549819D02*
X214882504Y-105597438D01*
X214882504Y-105597438D02*
X214930123Y-105645057D01*
X214930123Y-105645057D02*
X215025361Y-105787914D01*
X215025361Y-105787914D02*
X215072980Y-105978390D01*
X215072980Y-105978390D02*
X215072980Y-106359342D01*
X215072980Y-106359342D02*
X215025361Y-106454580D01*
X215025361Y-106454580D02*
X214977742Y-106502200D01*
X214977742Y-106502200D02*
X214882504Y-106549819D01*
X214882504Y-106549819D02*
X214692028Y-106549819D01*
X214692028Y-106549819D02*
X214596790Y-106502200D01*
X214596790Y-106502200D02*
X214549171Y-106454580D01*
X214549171Y-106454580D02*
X214501552Y-106359342D01*
X214501552Y-106359342D02*
X214501552Y-106121247D01*
X214501552Y-106121247D02*
X214549171Y-106026009D01*
X214549171Y-106026009D02*
X214596790Y-105978390D01*
X214596790Y-105978390D02*
X214692028Y-105930771D01*
X214692028Y-105930771D02*
X214882504Y-105930771D01*
X214882504Y-105930771D02*
X214977742Y-105978390D01*
X214977742Y-105978390D02*
X215025361Y-106026009D01*
X215025361Y-106026009D02*
X215072980Y-106121247D01*
X238599819Y-98726666D02*
X239314104Y-98726666D01*
X239314104Y-98726666D02*
X239456961Y-98679047D01*
X239456961Y-98679047D02*
X239552200Y-98583809D01*
X239552200Y-98583809D02*
X239599819Y-98440952D01*
X239599819Y-98440952D02*
X239599819Y-98345714D01*
X239599819Y-99726666D02*
X239599819Y-99155238D01*
X239599819Y-99440952D02*
X238599819Y-99440952D01*
X238599819Y-99440952D02*
X238742676Y-99345714D01*
X238742676Y-99345714D02*
X238837914Y-99250476D01*
X238837914Y-99250476D02*
X238885533Y-99155238D01*
X203227857Y-105814580D02*
X203275476Y-105862200D01*
X203275476Y-105862200D02*
X203418333Y-105909819D01*
X203418333Y-105909819D02*
X203513571Y-105909819D01*
X203513571Y-105909819D02*
X203656428Y-105862200D01*
X203656428Y-105862200D02*
X203751666Y-105766961D01*
X203751666Y-105766961D02*
X203799285Y-105671723D01*
X203799285Y-105671723D02*
X203846904Y-105481247D01*
X203846904Y-105481247D02*
X203846904Y-105338390D01*
X203846904Y-105338390D02*
X203799285Y-105147914D01*
X203799285Y-105147914D02*
X203751666Y-105052676D01*
X203751666Y-105052676D02*
X203656428Y-104957438D01*
X203656428Y-104957438D02*
X203513571Y-104909819D01*
X203513571Y-104909819D02*
X203418333Y-104909819D01*
X203418333Y-104909819D02*
X203275476Y-104957438D01*
X203275476Y-104957438D02*
X203227857Y-105005057D01*
X202275476Y-105909819D02*
X202846904Y-105909819D01*
X202561190Y-105909819D02*
X202561190Y-104909819D01*
X202561190Y-104909819D02*
X202656428Y-105052676D01*
X202656428Y-105052676D02*
X202751666Y-105147914D01*
X202751666Y-105147914D02*
X202846904Y-105195533D01*
X201942142Y-104909819D02*
X201323095Y-104909819D01*
X201323095Y-104909819D02*
X201656428Y-105290771D01*
X201656428Y-105290771D02*
X201513571Y-105290771D01*
X201513571Y-105290771D02*
X201418333Y-105338390D01*
X201418333Y-105338390D02*
X201370714Y-105386009D01*
X201370714Y-105386009D02*
X201323095Y-105481247D01*
X201323095Y-105481247D02*
X201323095Y-105719342D01*
X201323095Y-105719342D02*
X201370714Y-105814580D01*
X201370714Y-105814580D02*
X201418333Y-105862200D01*
X201418333Y-105862200D02*
X201513571Y-105909819D01*
X201513571Y-105909819D02*
X201799285Y-105909819D01*
X201799285Y-105909819D02*
X201894523Y-105862200D01*
X201894523Y-105862200D02*
X201942142Y-105814580D01*
D11*
%TO.C,J1*%
X232545000Y-105010000D02*
X233045000Y-104010000D01*
X233545000Y-105010000D02*
X232545000Y-105010000D01*
X233045000Y-104010000D02*
X233545000Y-105010000D01*
X166875000Y-103620000D02*
X238255000Y-103620000D01*
X204615000Y-103620000D02*
X204615000Y-102310000D01*
X238255000Y-103620000D02*
X238255000Y-94500000D01*
X168175000Y-102310000D02*
X200515000Y-102310000D01*
X200515000Y-102310000D02*
X200515000Y-103620000D01*
X200515000Y-102310000D02*
X200515000Y-102310000D01*
X204615000Y-102310000D02*
X236955000Y-102310000D01*
X236955000Y-102310000D02*
X236955000Y-95810000D01*
X168175000Y-95810000D02*
X168175000Y-102310000D01*
X236955000Y-95810000D02*
X168175000Y-95810000D01*
X166875000Y-94500000D02*
X166875000Y-103620000D01*
X238255000Y-94500000D02*
X166875000Y-94500000D01*
%TO.C,C13*%
X206085241Y-108016000D02*
X205455241Y-108016000D01*
X205770241Y-107701000D02*
X205770241Y-108331000D01*
X202585000Y-106625000D02*
X202585000Y-113085000D01*
X202545000Y-106625000D02*
X202545000Y-113085000D01*
X202505000Y-106625000D02*
X202505000Y-113085000D01*
X202465000Y-106627000D02*
X202465000Y-113083000D01*
X202425000Y-106628000D02*
X202425000Y-113082000D01*
X202385000Y-106631000D02*
X202385000Y-113079000D01*
X202345000Y-110895000D02*
X202345000Y-113077000D01*
X202345000Y-106633000D02*
X202345000Y-108815000D01*
X202305000Y-110895000D02*
X202305000Y-113073000D01*
X202305000Y-106637000D02*
X202305000Y-108815000D01*
X202265000Y-110895000D02*
X202265000Y-113070000D01*
X202265000Y-106640000D02*
X202265000Y-108815000D01*
X202225000Y-110895000D02*
X202225000Y-113066000D01*
X202225000Y-106644000D02*
X202225000Y-108815000D01*
X202185000Y-110895000D02*
X202185000Y-113061000D01*
X202185000Y-106649000D02*
X202185000Y-108815000D01*
X202145000Y-110895000D02*
X202145000Y-113056000D01*
X202145000Y-106654000D02*
X202145000Y-108815000D01*
X202105000Y-110895000D02*
X202105000Y-113050000D01*
X202105000Y-106660000D02*
X202105000Y-108815000D01*
X202065000Y-110895000D02*
X202065000Y-113044000D01*
X202065000Y-106666000D02*
X202065000Y-108815000D01*
X202025000Y-110895000D02*
X202025000Y-113037000D01*
X202025000Y-106673000D02*
X202025000Y-108815000D01*
X201985000Y-110895000D02*
X201985000Y-113030000D01*
X201985000Y-106680000D02*
X201985000Y-108815000D01*
X201945000Y-110895000D02*
X201945000Y-113022000D01*
X201945000Y-106688000D02*
X201945000Y-108815000D01*
X201905000Y-110895000D02*
X201905000Y-113014000D01*
X201905000Y-106696000D02*
X201905000Y-108815000D01*
X201864000Y-110895000D02*
X201864000Y-113005000D01*
X201864000Y-106705000D02*
X201864000Y-108815000D01*
X201824000Y-110895000D02*
X201824000Y-112996000D01*
X201824000Y-106714000D02*
X201824000Y-108815000D01*
X201784000Y-110895000D02*
X201784000Y-112986000D01*
X201784000Y-106724000D02*
X201784000Y-108815000D01*
X201744000Y-110895000D02*
X201744000Y-112976000D01*
X201744000Y-106734000D02*
X201744000Y-108815000D01*
X201704000Y-110895000D02*
X201704000Y-112965000D01*
X201704000Y-106745000D02*
X201704000Y-108815000D01*
X201664000Y-110895000D02*
X201664000Y-112953000D01*
X201664000Y-106757000D02*
X201664000Y-108815000D01*
X201624000Y-110895000D02*
X201624000Y-112941000D01*
X201624000Y-106769000D02*
X201624000Y-108815000D01*
X201584000Y-110895000D02*
X201584000Y-112929000D01*
X201584000Y-106781000D02*
X201584000Y-108815000D01*
X201544000Y-110895000D02*
X201544000Y-112916000D01*
X201544000Y-106794000D02*
X201544000Y-108815000D01*
X201504000Y-110895000D02*
X201504000Y-112902000D01*
X201504000Y-106808000D02*
X201504000Y-108815000D01*
X201464000Y-110895000D02*
X201464000Y-112888000D01*
X201464000Y-106822000D02*
X201464000Y-108815000D01*
X201424000Y-110895000D02*
X201424000Y-112873000D01*
X201424000Y-106837000D02*
X201424000Y-108815000D01*
X201384000Y-110895000D02*
X201384000Y-112857000D01*
X201384000Y-106853000D02*
X201384000Y-108815000D01*
X201344000Y-110895000D02*
X201344000Y-112841000D01*
X201344000Y-106869000D02*
X201344000Y-108815000D01*
X201304000Y-110895000D02*
X201304000Y-112825000D01*
X201304000Y-106885000D02*
X201304000Y-108815000D01*
X201264000Y-110895000D02*
X201264000Y-112807000D01*
X201264000Y-106903000D02*
X201264000Y-108815000D01*
X201224000Y-110895000D02*
X201224000Y-112789000D01*
X201224000Y-106921000D02*
X201224000Y-108815000D01*
X201184000Y-110895000D02*
X201184000Y-112771000D01*
X201184000Y-106939000D02*
X201184000Y-108815000D01*
X201144000Y-110895000D02*
X201144000Y-112751000D01*
X201144000Y-106959000D02*
X201144000Y-108815000D01*
X201104000Y-110895000D02*
X201104000Y-112731000D01*
X201104000Y-106979000D02*
X201104000Y-108815000D01*
X201064000Y-110895000D02*
X201064000Y-112711000D01*
X201064000Y-106999000D02*
X201064000Y-108815000D01*
X201024000Y-110895000D02*
X201024000Y-112689000D01*
X201024000Y-107021000D02*
X201024000Y-108815000D01*
X200984000Y-110895000D02*
X200984000Y-112667000D01*
X200984000Y-107043000D02*
X200984000Y-108815000D01*
X200944000Y-110895000D02*
X200944000Y-112645000D01*
X200944000Y-107065000D02*
X200944000Y-108815000D01*
X200904000Y-110895000D02*
X200904000Y-112621000D01*
X200904000Y-107089000D02*
X200904000Y-108815000D01*
X200864000Y-110895000D02*
X200864000Y-112597000D01*
X200864000Y-107113000D02*
X200864000Y-108815000D01*
X200824000Y-110895000D02*
X200824000Y-112571000D01*
X200824000Y-107139000D02*
X200824000Y-108815000D01*
X200784000Y-110895000D02*
X200784000Y-112545000D01*
X200784000Y-107165000D02*
X200784000Y-108815000D01*
X200744000Y-110895000D02*
X200744000Y-112519000D01*
X200744000Y-107191000D02*
X200744000Y-108815000D01*
X200704000Y-110895000D02*
X200704000Y-112491000D01*
X200704000Y-107219000D02*
X200704000Y-108815000D01*
X200664000Y-110895000D02*
X200664000Y-112462000D01*
X200664000Y-107248000D02*
X200664000Y-108815000D01*
X200624000Y-110895000D02*
X200624000Y-112433000D01*
X200624000Y-107277000D02*
X200624000Y-108815000D01*
X200584000Y-110895000D02*
X200584000Y-112403000D01*
X200584000Y-107307000D02*
X200584000Y-108815000D01*
X200544000Y-110895000D02*
X200544000Y-112371000D01*
X200544000Y-107339000D02*
X200544000Y-108815000D01*
X200504000Y-110895000D02*
X200504000Y-112339000D01*
X200504000Y-107371000D02*
X200504000Y-108815000D01*
X200464000Y-110895000D02*
X200464000Y-112305000D01*
X200464000Y-107405000D02*
X200464000Y-108815000D01*
X200424000Y-110895000D02*
X200424000Y-112271000D01*
X200424000Y-107439000D02*
X200424000Y-108815000D01*
X200384000Y-110895000D02*
X200384000Y-112235000D01*
X200384000Y-107475000D02*
X200384000Y-108815000D01*
X200344000Y-110895000D02*
X200344000Y-112198000D01*
X200344000Y-107512000D02*
X200344000Y-108815000D01*
X200304000Y-110895000D02*
X200304000Y-112160000D01*
X200304000Y-107550000D02*
X200304000Y-108815000D01*
X200264000Y-107590000D02*
X200264000Y-112120000D01*
X200224000Y-107631000D02*
X200224000Y-112079000D01*
X200184000Y-107673000D02*
X200184000Y-112037000D01*
X200144000Y-107718000D02*
X200144000Y-111992000D01*
X200104000Y-107763000D02*
X200104000Y-111947000D01*
X200064000Y-107811000D02*
X200064000Y-111899000D01*
X200024000Y-107860000D02*
X200024000Y-111850000D01*
X199984000Y-107911000D02*
X199984000Y-111799000D01*
X199944000Y-107965000D02*
X199944000Y-111745000D01*
X199904000Y-108021000D02*
X199904000Y-111689000D01*
X199864000Y-108079000D02*
X199864000Y-111631000D01*
X199824000Y-108141000D02*
X199824000Y-111569000D01*
X199784000Y-108205000D02*
X199784000Y-111505000D01*
X199744000Y-108274000D02*
X199744000Y-111436000D01*
X199704000Y-108346000D02*
X199704000Y-111364000D01*
X199664000Y-108423000D02*
X199664000Y-111287000D01*
X199624000Y-108505000D02*
X199624000Y-111205000D01*
X199584000Y-108593000D02*
X199584000Y-111117000D01*
X199544000Y-108690000D02*
X199544000Y-111020000D01*
X199504000Y-108796000D02*
X199504000Y-110914000D01*
X199464000Y-108915000D02*
X199464000Y-110795000D01*
X199424000Y-109053000D02*
X199424000Y-110657000D01*
X199384000Y-109222000D02*
X199384000Y-110488000D01*
X199344000Y-109453000D02*
X199344000Y-110257000D01*
X205855000Y-109855000D02*
G75*
G03*
X205855000Y-109855000I-3270000J0D01*
G01*
%TD*%
M02*
