%TF.GenerationSoftware,KiCad,Pcbnew,7.0.7*%
%TF.CreationDate,2026-08-17T21:16:10-05:00*%
%TF.ProjectId,Front Panel Register,46726f6e-7420-4506-916e-656c20526567,rev?*%
%TF.SameCoordinates,Original*%
%TF.FileFunction,Drillmap*%
%TF.FilePolarity,Positive*%
%FSLAX45Y45*%
G04 Gerber Fmt 4.5, Leading zero omitted, Abs format (unit mm)*
G04 Created by KiCad (PCBNEW 7.0.7) date 2026-08-17 21:16:10*
%MOMM*%
%LPD*%
G01*
G04 APERTURE LIST*
%ADD10C,0.100000*%
%ADD11C,0.200000*%
G04 APERTURE END LIST*
D10*
X3619500Y-5016500D02*
X24066500Y-5016500D01*
X24066500Y-15748000D01*
X3619500Y-15748000D01*
X3619500Y-5016500D01*
D11*
X3875277Y-16064484D02*
X3875277Y-15864484D01*
X3875277Y-15864484D02*
X3922896Y-15864484D01*
X3922896Y-15864484D02*
X3951467Y-15874008D01*
X3951467Y-15874008D02*
X3970515Y-15893055D01*
X3970515Y-15893055D02*
X3980039Y-15912103D01*
X3980039Y-15912103D02*
X3989562Y-15950198D01*
X3989562Y-15950198D02*
X3989562Y-15978769D01*
X3989562Y-15978769D02*
X3980039Y-16016865D01*
X3980039Y-16016865D02*
X3970515Y-16035912D01*
X3970515Y-16035912D02*
X3951467Y-16054960D01*
X3951467Y-16054960D02*
X3922896Y-16064484D01*
X3922896Y-16064484D02*
X3875277Y-16064484D01*
X4075277Y-16064484D02*
X4075277Y-15931150D01*
X4075277Y-15969246D02*
X4084801Y-15950198D01*
X4084801Y-15950198D02*
X4094324Y-15940674D01*
X4094324Y-15940674D02*
X4113372Y-15931150D01*
X4113372Y-15931150D02*
X4132420Y-15931150D01*
X4199086Y-16064484D02*
X4199086Y-15931150D01*
X4199086Y-15864484D02*
X4189562Y-15874008D01*
X4189562Y-15874008D02*
X4199086Y-15883531D01*
X4199086Y-15883531D02*
X4208610Y-15874008D01*
X4208610Y-15874008D02*
X4199086Y-15864484D01*
X4199086Y-15864484D02*
X4199086Y-15883531D01*
X4322896Y-16064484D02*
X4303848Y-16054960D01*
X4303848Y-16054960D02*
X4294324Y-16035912D01*
X4294324Y-16035912D02*
X4294324Y-15864484D01*
X4427658Y-16064484D02*
X4408610Y-16054960D01*
X4408610Y-16054960D02*
X4399086Y-16035912D01*
X4399086Y-16035912D02*
X4399086Y-15864484D01*
X4656229Y-16064484D02*
X4656229Y-15864484D01*
X4656229Y-15864484D02*
X4722896Y-16007341D01*
X4722896Y-16007341D02*
X4789563Y-15864484D01*
X4789563Y-15864484D02*
X4789563Y-16064484D01*
X4970515Y-16064484D02*
X4970515Y-15959722D01*
X4970515Y-15959722D02*
X4960991Y-15940674D01*
X4960991Y-15940674D02*
X4941944Y-15931150D01*
X4941944Y-15931150D02*
X4903848Y-15931150D01*
X4903848Y-15931150D02*
X4884801Y-15940674D01*
X4970515Y-16054960D02*
X4951467Y-16064484D01*
X4951467Y-16064484D02*
X4903848Y-16064484D01*
X4903848Y-16064484D02*
X4884801Y-16054960D01*
X4884801Y-16054960D02*
X4875277Y-16035912D01*
X4875277Y-16035912D02*
X4875277Y-16016865D01*
X4875277Y-16016865D02*
X4884801Y-15997817D01*
X4884801Y-15997817D02*
X4903848Y-15988293D01*
X4903848Y-15988293D02*
X4951467Y-15988293D01*
X4951467Y-15988293D02*
X4970515Y-15978769D01*
X5065753Y-15931150D02*
X5065753Y-16131150D01*
X5065753Y-15940674D02*
X5084801Y-15931150D01*
X5084801Y-15931150D02*
X5122896Y-15931150D01*
X5122896Y-15931150D02*
X5141944Y-15940674D01*
X5141944Y-15940674D02*
X5151467Y-15950198D01*
X5151467Y-15950198D02*
X5160991Y-15969246D01*
X5160991Y-15969246D02*
X5160991Y-16026388D01*
X5160991Y-16026388D02*
X5151467Y-16045436D01*
X5151467Y-16045436D02*
X5141944Y-16054960D01*
X5141944Y-16054960D02*
X5122896Y-16064484D01*
X5122896Y-16064484D02*
X5084801Y-16064484D01*
X5084801Y-16064484D02*
X5065753Y-16054960D01*
X5246705Y-16045436D02*
X5256229Y-16054960D01*
X5256229Y-16054960D02*
X5246705Y-16064484D01*
X5246705Y-16064484D02*
X5237182Y-16054960D01*
X5237182Y-16054960D02*
X5246705Y-16045436D01*
X5246705Y-16045436D02*
X5246705Y-16064484D01*
X5246705Y-15940674D02*
X5256229Y-15950198D01*
X5256229Y-15950198D02*
X5246705Y-15959722D01*
X5246705Y-15959722D02*
X5237182Y-15950198D01*
X5237182Y-15950198D02*
X5246705Y-15940674D01*
X5246705Y-15940674D02*
X5246705Y-15959722D01*
M02*
