M48
; DRILL file {KiCad 7.0.7} date Mon Aug 17 21:16:09 2026
; FORMAT={-:-/ absolute / inch / decimal}
; #@! TF.CreationDate,2026-08-17T21:16:09-05:00
; #@! TF.GenerationSoftware,Kicad,Pcbnew,7.0.7
; #@! TF.FileFunction,Plated,1,2,PTH
FMAT,2
INCH
; #@! TA.AperFunction,Plated,PTH,ViaDrill
T1C0.0157
; #@! TA.AperFunction,Plated,PTH,ComponentDrill
T2C0.0315
; #@! TA.AperFunction,Plated,PTH,ComponentDrill
T3C0.0354
; #@! TA.AperFunction,Plated,PTH,ComponentDrill
T4C0.0394
; #@! TA.AperFunction,Plated,PTH,ComponentDrill
T5C0.0866
%
G90
G05
T1
X3.4916Y-3.8546
X3.5872Y-4.304
X4.0083Y-2.2427
X4.2822Y-3.9598
X4.3104Y-3.9884
X4.9553Y-2.2765
X5.4836Y-3.0697
X5.5256Y-3.1001
X5.7931Y-3.2385
X5.8232Y-3.0882
X6.2485Y-3.2073
X6.2526Y-4.8713
X6.4488Y-2.8667
X6.8Y-2.7697
X7.0852Y-3.3183
X7.524Y-4.0672
X7.6144Y-3.0035
X8.0133Y-2.8519
X8.0287Y-3.9137
X8.051Y-2.7888
X8.1275Y-4.0686
X8.1678Y-3.041
X8.603Y-3.0766
X8.7162Y-3.7411
X8.7464Y-4.0585
T2
X1.5Y-5.475
X1.75Y-2.7
X1.75Y-2.8969
X1.8Y-5.475
X1.875Y-2.65
X1.875Y-2.95
X1.925Y-5.475
X1.975Y-2.65
X1.975Y-2.95
X2.075Y-2.45
X2.075Y-2.65
X2.075Y-2.95
X2.075Y-3.175
X2.175Y-2.45
X2.175Y-2.65
X2.175Y-2.95
X2.175Y-3.175
X2.225Y-5.475
X2.275Y-2.45
X2.275Y-2.65
X2.275Y-2.95
X2.275Y-3.175
X2.3498Y-5.05
X2.3498Y-5.2469
X2.35Y-5.475
X2.375Y-2.45
X2.375Y-2.65
X2.375Y-2.95
X2.375Y-3.175
X2.4748Y-5.0
X2.4748Y-5.3
X2.475Y-2.45
X2.475Y-2.65
X2.475Y-2.95
X2.475Y-3.175
X2.5748Y-5.0
X2.5748Y-5.3
X2.575Y-2.45
X2.575Y-2.65
X2.575Y-2.95
X2.575Y-3.175
X2.65Y-5.475
X2.6748Y-5.0
X2.6748Y-5.3
X2.675Y-2.65
X2.675Y-2.95
X2.7Y-3.95
X2.7Y-4.1469
X2.7748Y-5.0
X2.7748Y-5.3
X2.775Y-2.65
X2.775Y-2.95
X2.825Y-3.9
X2.825Y-4.2
X2.85Y-5.475
X2.8748Y-5.0
X2.8748Y-5.3
X2.925Y-3.9
X2.925Y-4.2
X2.9748Y-5.0
X2.9748Y-5.3
X3.025Y-2.7
X3.025Y-2.8969
X3.025Y-3.9
X3.025Y-4.2
X3.0748Y-5.0
X3.0748Y-5.3
X3.125Y-3.9
X3.125Y-4.2
X3.15Y-2.65
X3.15Y-2.95
X3.15Y-5.475
X3.1748Y-5.0
X3.1748Y-5.3
X3.225Y-3.9
X3.225Y-4.2
X3.25Y-2.65
X3.25Y-2.95
X3.25Y-5.475
X3.2748Y-5.0
X3.2748Y-5.3
X3.325Y-3.9
X3.325Y-4.2
X3.35Y-2.65
X3.35Y-2.95
X3.3748Y-5.0
X3.3748Y-5.3
X3.425Y-3.9
X3.425Y-4.2
X3.45Y-2.65
X3.45Y-2.95
X3.525Y-3.9
X3.525Y-4.2
X3.55Y-2.65
X3.55Y-2.95
X3.55Y-5.475
X3.625Y-3.9
X3.625Y-4.2
X3.65Y-2.65
X3.65Y-2.95
X3.7Y-5.475
X3.725Y-3.9
X3.725Y-4.2
X3.75Y-2.65
X3.75Y-2.95
X3.85Y-2.65
X3.85Y-2.95
X3.95Y-2.65
X3.95Y-2.95
X4.0Y-5.475
X4.05Y-2.65
X4.05Y-2.95
X4.05Y-3.9516
X4.05Y-4.1484
X4.175Y-3.9
X4.175Y-4.2
X4.2Y-5.475
X4.275Y-3.9
X4.275Y-4.2
X4.3Y-2.7
X4.3Y-2.8969
X4.375Y-3.9
X4.375Y-4.2
X4.425Y-2.65
X4.425Y-2.95
X4.475Y-3.9
X4.475Y-4.2
X4.5Y-5.475
X4.525Y-2.65
X4.525Y-2.95
X4.575Y-3.9
X4.575Y-4.2
X4.625Y-2.65
X4.625Y-2.95
X4.625Y-5.475
X4.675Y-3.9
X4.675Y-4.2
X4.675Y-5.0516
X4.675Y-5.2484
X4.725Y-2.65
X4.725Y-2.95
X4.775Y-2.45
X4.775Y-3.175
X4.775Y-3.9
X4.775Y-4.2
X4.775Y-4.425
X4.7998Y-5.0
X4.7998Y-5.3
X4.825Y-2.65
X4.825Y-2.95
X4.875Y-2.45
X4.875Y-3.175
X4.875Y-3.9
X4.875Y-4.2
X4.875Y-4.425
X4.8998Y-5.0
X4.8998Y-5.3
X4.925Y-2.65
X4.925Y-2.95
X4.925Y-5.475
X4.975Y-2.45
X4.975Y-3.175
X4.975Y-3.9
X4.975Y-4.2
X4.975Y-4.425
X4.9998Y-5.0
X4.9998Y-5.3
X5.025Y-2.65
X5.025Y-2.95
X5.05Y-5.475
X5.075Y-2.45
X5.075Y-3.175
X5.075Y-3.9
X5.075Y-4.2
X5.075Y-4.425
X5.0998Y-5.0
X5.0998Y-5.3
X5.125Y-2.65
X5.125Y-2.95
X5.175Y-2.45
X5.175Y-3.175
X5.175Y-4.425
X5.1998Y-5.0
X5.1998Y-5.3
X5.225Y-2.65
X5.225Y-2.95
X5.275Y-2.45
X5.275Y-3.175
X5.275Y-4.425
X5.2998Y-5.0
X5.2998Y-5.3
X5.325Y-2.65
X5.325Y-2.95
X5.325Y-3.95
X5.325Y-4.1469
X5.35Y-5.475
X5.3998Y-5.0
X5.3998Y-5.3
X5.45Y-3.9
X5.45Y-4.2
X5.4998Y-5.0
X5.4998Y-5.3
X5.55Y-3.9
X5.55Y-4.2
X5.55Y-5.475
X5.575Y-2.7
X5.575Y-2.8969
X5.5998Y-5.0
X5.5998Y-5.3
X5.65Y-3.9
X5.65Y-4.2
X5.6998Y-5.0
X5.6998Y-5.3
X5.7Y-2.65
X5.7Y-2.95
X5.75Y-3.9
X5.75Y-4.2
X5.8Y-2.65
X5.8Y-2.95
X5.85Y-3.9
X5.85Y-4.2
X5.85Y-5.475
X5.9Y-2.65
X5.9Y-2.95
X5.95Y-3.9
X5.95Y-4.2
X5.975Y-5.475
X6.0Y-2.65
X6.0Y-2.95
X6.05Y-3.9
X6.05Y-4.2
X6.1Y-2.65
X6.1Y-2.95
X6.15Y-3.9
X6.15Y-4.2
X6.2Y-2.65
X6.2Y-2.95
X6.25Y-3.9
X6.25Y-4.2
X6.275Y-5.475
X6.3Y-2.65
X6.3Y-2.95
X6.35Y-3.9
X6.35Y-4.2
X6.4Y-2.65
X6.4Y-2.95
X6.4Y-5.475
X6.5Y-2.65
X6.5Y-2.95
X6.6Y-2.65
X6.6Y-2.95
X6.625Y-2.45
X6.625Y-3.175
X6.625Y-4.425
X6.7Y-5.475
X6.725Y-2.45
X6.725Y-3.175
X6.725Y-4.425
X6.825Y-2.45
X6.825Y-3.175
X6.825Y-4.425
X6.85Y-2.7
X6.85Y-2.8969
X6.9Y-5.475
X6.925Y-2.45
X6.925Y-3.175
X6.925Y-4.425
X6.975Y-2.65
X6.975Y-2.95
X7.025Y-2.45
X7.025Y-3.175
X7.025Y-4.425
X7.075Y-2.65
X7.075Y-2.95
X7.125Y-2.45
X7.125Y-3.175
X7.125Y-4.425
X7.175Y-2.65
X7.175Y-2.95
X7.2Y-5.475
X7.275Y-2.65
X7.275Y-2.95
X7.325Y-5.475
X7.375Y-2.65
X7.375Y-2.95
X7.375Y-5.05
X7.375Y-5.2469
X7.475Y-2.65
X7.475Y-2.95
X7.5Y-4.9996
X7.5Y-5.2996
X7.575Y-2.65
X7.575Y-2.95
X7.6Y-4.9996
X7.6Y-5.2996
X7.625Y-5.475
X7.675Y-2.65
X7.675Y-2.95
X7.7Y-4.9996
X7.7Y-5.2996
X7.75Y-5.475
X7.775Y-2.65
X7.775Y-2.95
X7.8Y-4.9996
X7.8Y-5.2996
X7.875Y-2.65
X7.875Y-2.95
X7.9Y-4.9996
X7.9Y-5.2996
X7.9266Y-4.325
X8.0Y-4.9996
X8.0Y-5.2996
X8.025Y-4.325
X8.05Y-5.475
X8.1Y-4.9996
X8.1Y-5.2996
X8.125Y-2.7
X8.125Y-2.8969
X8.2Y-4.9996
X8.2Y-5.2996
X8.25Y-2.65
X8.25Y-2.95
X8.25Y-5.475
X8.3Y-4.9996
X8.3Y-5.2996
X8.35Y-2.65
X8.35Y-2.95
X8.4Y-4.9996
X8.4Y-5.2996
X8.45Y-2.65
X8.45Y-2.95
X8.55Y-2.65
X8.55Y-2.95
X8.55Y-5.475
X8.65Y-2.65
X8.65Y-2.95
X8.675Y-5.475
X8.75Y-2.65
X8.75Y-2.95
X8.825Y-2.45
X8.825Y-3.175
X8.825Y-4.425
X8.85Y-2.65
X8.85Y-2.95
X8.925Y-2.45
X8.925Y-3.175
X8.925Y-4.425
X8.95Y-2.65
X8.95Y-2.95
X8.975Y-5.475
X9.025Y-2.45
X9.025Y-3.175
X9.025Y-4.425
X9.05Y-2.65
X9.05Y-2.95
X9.1Y-5.475
X9.125Y-2.45
X9.125Y-3.175
X9.125Y-4.425
X9.15Y-2.65
X9.15Y-2.95
X9.225Y-2.45
X9.225Y-3.175
X9.225Y-4.425
X9.325Y-2.45
X9.325Y-3.175
X9.325Y-4.425
X9.4Y-5.475
T3
X1.5998Y-2.175
X1.5998Y-3.45
X1.5998Y-4.725
X1.6998Y-2.175
X1.6998Y-3.45
X1.6998Y-4.725
X2.0248Y-3.45
X2.0248Y-4.725
X2.025Y-2.175
X2.1248Y-3.45
X2.1248Y-4.725
X2.125Y-2.175
X2.4498Y-2.175
X2.4498Y-3.45
X2.4498Y-4.725
X2.5498Y-2.175
X2.5498Y-3.45
X2.5498Y-4.725
X2.9498Y-2.175
X2.9498Y-3.45
X2.9498Y-4.725
X3.0498Y-2.175
X3.0498Y-3.45
X3.0498Y-4.725
X3.3748Y-2.175
X3.3748Y-3.45
X3.3748Y-4.725
X3.4748Y-2.175
X3.4748Y-3.45
X3.4748Y-4.725
X3.7998Y-2.175
X3.8Y-3.45
X3.8Y-4.725
X3.8998Y-2.175
X3.9Y-3.45
X3.9Y-4.725
X4.2998Y-2.175
X4.3Y-3.45
X4.3Y-4.725
X4.3998Y-2.175
X4.4Y-3.45
X4.4Y-4.725
X4.725Y-2.175
X4.725Y-3.45
X4.725Y-4.725
X4.825Y-2.175
X4.825Y-3.45
X4.825Y-4.725
X5.15Y-2.175
X5.15Y-3.45
X5.15Y-4.725
X5.25Y-2.175
X5.25Y-3.45
X5.25Y-4.725
X5.65Y-2.175
X5.65Y-3.45
X5.65Y-4.725
X5.75Y-2.175
X5.75Y-3.45
X5.75Y-4.725
X6.0748Y-3.45
X6.0748Y-4.725
X6.075Y-2.175
X6.1748Y-3.45
X6.1748Y-4.725
X6.175Y-2.175
X6.5Y-2.175
X6.5Y-3.45
X6.5Y-4.725
X6.6Y-2.175
X6.6Y-3.45
X6.6Y-4.725
X7.0Y-2.175
X7.0Y-3.45
X7.0Y-4.725
X7.1Y-2.175
X7.1Y-3.45
X7.1Y-4.725
X7.4248Y-4.725
X7.425Y-2.175
X7.425Y-3.45
X7.5248Y-4.725
X7.525Y-2.175
X7.525Y-3.45
X7.85Y-2.175
X7.85Y-3.45
X7.85Y-4.725
X7.95Y-2.175
X7.95Y-3.45
X7.95Y-4.725
X8.3498Y-2.175
X8.3498Y-3.45
X8.3498Y-4.725
X8.4498Y-2.175
X8.4498Y-3.45
X8.4498Y-4.725
X8.775Y-2.175
X8.775Y-3.45
X8.775Y-4.725
X8.875Y-2.175
X8.875Y-3.45
X8.875Y-4.725
X9.2Y-2.175
X9.2Y-3.45
X9.2Y-4.725
X9.3Y-2.175
X9.3Y-3.45
X9.3Y-4.725
T4
X6.775Y-3.85
X6.775Y-3.95
X6.875Y-3.85
X6.875Y-3.95
X6.975Y-3.85
X6.975Y-3.95
X7.075Y-3.85
X7.075Y-3.95
X7.175Y-3.85
X7.175Y-3.95
X7.275Y-3.85
X7.275Y-3.95
X7.375Y-3.85
X7.375Y-3.95
X7.475Y-3.85
X7.475Y-3.95
X7.575Y-3.85
X7.575Y-3.95
X7.675Y-3.85
X7.675Y-3.95
X7.775Y-3.85
X7.775Y-3.95
X7.875Y-3.85
X7.875Y-3.95
X7.975Y-3.85
X7.975Y-3.95
X8.075Y-3.85
X8.075Y-3.95
X8.175Y-3.85
X8.175Y-3.95
X8.275Y-3.85
X8.275Y-3.95
X8.375Y-3.85
X8.375Y-3.95
X8.475Y-3.85
X8.475Y-3.95
X8.575Y-3.85
X8.575Y-3.95
X8.675Y-3.85
X8.675Y-3.95
X8.775Y-3.85
X8.775Y-3.95
X8.875Y-3.85
X8.875Y-3.95
X8.975Y-3.85
X8.975Y-3.95
X9.075Y-3.85
X9.075Y-3.95
X9.175Y-3.85
X9.175Y-3.95
T5
X1.575Y-2.8
X1.575Y-5.175
X9.325Y-2.8
X9.325Y-5.175
T4
G00X1.6244Y-5.7049
M15
G01X1.6756Y-5.7049
M16
G05
G00X1.6244Y-5.89
M15
G01X1.6756Y-5.89
M16
G05
G00X1.6244Y-6.075
M15
G01X1.6756Y-6.075
M16
G05
G00X2.0494Y-5.7049
M15
G01X2.1006Y-5.7049
M16
G05
G00X2.0494Y-5.89
M15
G01X2.1006Y-5.89
M16
G05
G00X2.0494Y-6.075
M15
G01X2.1006Y-6.075
M16
G05
G00X2.4744Y-5.7049
M15
G01X2.5256Y-5.7049
M16
G05
G00X2.4744Y-5.89
M15
G01X2.5256Y-5.89
M16
G05
G00X2.4744Y-6.075
M15
G01X2.5256Y-6.075
M16
G05
G00X2.9744Y-5.7049
M15
G01X3.0256Y-5.7049
M16
G05
G00X2.9744Y-5.89
M15
G01X3.0256Y-5.89
M16
G05
G00X2.9744Y-6.075
M15
G01X3.0256Y-6.075
M16
G05
G00X3.3994Y-5.7049
M15
G01X3.4506Y-5.7049
M16
G05
G00X3.3994Y-5.89
M15
G01X3.4506Y-5.89
M16
G05
G00X3.3994Y-6.075
M15
G01X3.4506Y-6.075
M16
G05
G00X3.8244Y-5.7049
M15
G01X3.8756Y-5.7049
M16
G05
G00X3.8244Y-5.89
M15
G01X3.8756Y-5.89
M16
G05
G00X3.8244Y-6.075
M15
G01X3.8756Y-6.075
M16
G05
G00X4.3244Y-5.7049
M15
G01X4.3756Y-5.7049
M16
G05
G00X4.3244Y-5.89
M15
G01X4.3756Y-5.89
M16
G05
G00X4.3244Y-6.075
M15
G01X4.3756Y-6.075
M16
G05
G00X4.7494Y-5.7049
M15
G01X4.8006Y-5.7049
M16
G05
G00X4.7494Y-5.89
M15
G01X4.8006Y-5.89
M16
G05
G00X4.7494Y-6.075
M15
G01X4.8006Y-6.075
M16
G05
G00X5.1744Y-5.7049
M15
G01X5.2256Y-5.7049
M16
G05
G00X5.1744Y-5.89
M15
G01X5.2256Y-5.89
M16
G05
G00X5.1744Y-6.075
M15
G01X5.2256Y-6.075
M16
G05
G00X5.6744Y-5.7049
M15
G01X5.7256Y-5.7049
M16
G05
G00X5.6744Y-5.89
M15
G01X5.7256Y-5.89
M16
G05
G00X5.6744Y-6.075
M15
G01X5.7256Y-6.075
M16
G05
G00X6.0994Y-5.7049
M15
G01X6.1506Y-5.7049
M16
G05
G00X6.0994Y-5.89
M15
G01X6.1506Y-5.89
M16
G05
G00X6.0994Y-6.075
M15
G01X6.1506Y-6.075
M16
G05
G00X6.5244Y-5.7049
M15
G01X6.5756Y-5.7049
M16
G05
G00X6.5244Y-5.89
M15
G01X6.5756Y-5.89
M16
G05
G00X6.5244Y-6.075
M15
G01X6.5756Y-6.075
M16
G05
G00X7.0244Y-5.7049
M15
G01X7.0756Y-5.7049
M16
G05
G00X7.0244Y-5.89
M15
G01X7.0756Y-5.89
M16
G05
G00X7.0244Y-6.075
M15
G01X7.0756Y-6.075
M16
G05
G00X7.4494Y-5.7049
M15
G01X7.5006Y-5.7049
M16
G05
G00X7.4494Y-5.89
M15
G01X7.5006Y-5.89
M16
G05
G00X7.4494Y-6.075
M15
G01X7.5006Y-6.075
M16
G05
G00X7.8744Y-5.7049
M15
G01X7.9256Y-5.7049
M16
G05
G00X7.8744Y-5.89
M15
G01X7.9256Y-5.89
M16
G05
G00X7.8744Y-6.075
M15
G01X7.9256Y-6.075
M16
G05
G00X8.3744Y-5.7049
M15
G01X8.4256Y-5.7049
M16
G05
G00X8.3744Y-5.89
M15
G01X8.4256Y-5.89
M16
G05
G00X8.3744Y-6.075
M15
G01X8.4256Y-6.075
M16
G05
G00X8.7994Y-5.7049
M15
G01X8.8506Y-5.7049
M16
G05
G00X8.7994Y-5.89
M15
G01X8.8506Y-5.89
M16
G05
G00X8.7994Y-6.075
M15
G01X8.8506Y-6.075
M16
G05
G00X9.2244Y-5.7049
M15
G01X9.2756Y-5.7049
M16
G05
G00X9.2244Y-5.89
M15
G01X9.2756Y-5.89
M16
G05
G00X9.2244Y-6.075
M15
G01X9.2756Y-6.075
M16
G05
T0
M30
