%TF.GenerationSoftware,KiCad,Pcbnew,7.0.7*%
%TF.CreationDate,2026-08-17T22:05:02-05:00*%
%TF.ProjectId,ALU,414c552e-6b69-4636-9164-5f7063625858,rev?*%
%TF.SameCoordinates,Original*%
%TF.FileFunction,Drillmap*%
%TF.FilePolarity,Positive*%
%FSLAX45Y45*%
G04 Gerber Fmt 4.5, Leading zero omitted, Abs format (unit mm)*
G04 Created by KiCad (PCBNEW 7.0.7) date 2026-08-17 22:05:02*
%MOMM*%
%LPD*%
G01*
G04 APERTURE LIST*
%ADD10C,0.100000*%
%ADD11C,0.200000*%
%ADD12C,0.040000*%
%ADD13C,0.080000*%
G04 APERTURE END LIST*
D10*
X3556000Y-1778000D02*
X24193500Y-1778000D01*
X24193500Y-15532100D01*
X3556000Y-15532100D01*
X3556000Y-1778000D01*
D11*
D12*
X4369330Y-6827250D02*
X4409330Y-6867250D01*
X4409330Y-6827250D02*
X4369330Y-6867250D01*
X6070480Y-7976740D02*
X6110480Y-8016740D01*
X6110480Y-7976740D02*
X6070480Y-8016740D01*
X6075140Y-2347560D02*
X6115140Y-2387560D01*
X6115140Y-2347560D02*
X6075140Y-2387560D01*
X6135790Y-14172270D02*
X6175790Y-14212270D01*
X6175790Y-14172270D02*
X6135790Y-14212270D01*
X6647320Y-7193270D02*
X6687320Y-7233270D01*
X6687320Y-7193270D02*
X6647320Y-7233270D01*
X6665180Y-7044870D02*
X6705180Y-7084870D01*
X6705180Y-7044870D02*
X6665180Y-7084870D01*
X6710870Y-9758370D02*
X6750870Y-9798370D01*
X6750870Y-9758370D02*
X6710870Y-9798370D01*
X7044100Y-9123650D02*
X7084100Y-9163650D01*
X7084100Y-9123650D02*
X7044100Y-9163650D01*
X7622250Y-12240110D02*
X7662250Y-12280110D01*
X7662250Y-12240110D02*
X7622250Y-12280110D01*
X7730440Y-11252960D02*
X7770440Y-11292960D01*
X7770440Y-11252960D02*
X7730440Y-11292960D01*
X7954290Y-7356560D02*
X7994290Y-7396560D01*
X7994290Y-7356560D02*
X7954290Y-7396560D01*
X7956980Y-7237150D02*
X7996980Y-7277150D01*
X7996980Y-7237150D02*
X7956980Y-7277150D01*
X7969670Y-13684440D02*
X8009670Y-13724440D01*
X8009670Y-13684440D02*
X7969670Y-13724440D01*
X8406110Y-7477660D02*
X8446110Y-7517660D01*
X8446110Y-7477660D02*
X8406110Y-7517660D01*
X8630740Y-11919880D02*
X8670740Y-11959880D01*
X8670740Y-11919880D02*
X8630740Y-11959880D01*
X8765000Y-9198740D02*
X8805000Y-9238740D01*
X8805000Y-9198740D02*
X8765000Y-9238740D01*
X8838580Y-8990660D02*
X8878580Y-9030660D01*
X8878580Y-8990660D02*
X8838580Y-9030660D01*
X9169640Y-7478170D02*
X9209640Y-7518170D01*
X9209640Y-7478170D02*
X9169640Y-7518170D01*
X9169640Y-7584640D02*
X9209640Y-7624640D01*
X9209640Y-7584640D02*
X9169640Y-7624640D01*
X9858890Y-10834500D02*
X9898890Y-10874500D01*
X9898890Y-10834500D02*
X9858890Y-10874500D01*
X9950780Y-10422370D02*
X9990780Y-10462370D01*
X9990780Y-10422370D02*
X9950780Y-10462370D01*
X10424570Y-12616500D02*
X10464570Y-12656500D01*
X10464570Y-12616500D02*
X10424570Y-12656500D01*
X10483610Y-8975760D02*
X10523610Y-9015760D01*
X10523610Y-8975760D02*
X10483610Y-9015760D01*
X10558030Y-3148830D02*
X10598030Y-3188830D01*
X10598030Y-3148830D02*
X10558030Y-3188830D01*
X10566200Y-7676920D02*
X10606200Y-7716920D01*
X10606200Y-7676920D02*
X10566200Y-7716920D01*
X10744440Y-10620190D02*
X10784440Y-10660190D01*
X10784440Y-10620190D02*
X10744440Y-10660190D01*
X10804030Y-14105870D02*
X10844030Y-14145870D01*
X10844030Y-14105870D02*
X10804030Y-14145870D01*
X10849310Y-11583730D02*
X10889310Y-11623730D01*
X10889310Y-11583730D02*
X10849310Y-11623730D01*
X10891440Y-11689990D02*
X10931440Y-11729990D01*
X10931440Y-11689990D02*
X10891440Y-11729990D01*
X10896600Y-9092220D02*
X10936600Y-9132220D01*
X10936600Y-9092220D02*
X10896600Y-9132220D01*
X10961810Y-14156580D02*
X11001810Y-14196580D01*
X11001810Y-14156580D02*
X10961810Y-14196580D01*
X11018900Y-10497080D02*
X11058900Y-10537080D01*
X11058900Y-10497080D02*
X11018900Y-10537080D01*
X11543740Y-10644210D02*
X11583740Y-10684210D01*
X11583740Y-10644210D02*
X11543740Y-10684210D01*
X11706320Y-6988790D02*
X11746320Y-7028790D01*
X11746320Y-6988790D02*
X11706320Y-7028790D01*
X11868320Y-6494240D02*
X11908320Y-6534240D01*
X11908320Y-6494240D02*
X11868320Y-6534240D01*
X11923710Y-11462860D02*
X11963710Y-11502860D01*
X11963710Y-11462860D02*
X11923710Y-11502860D01*
X11924360Y-12680840D02*
X11964360Y-12720840D01*
X11964360Y-12680840D02*
X11924360Y-12720840D01*
X12270180Y-10713920D02*
X12310180Y-10753920D01*
X12310180Y-10713920D02*
X12270180Y-10753920D01*
X12280630Y-6252040D02*
X12320630Y-6292040D01*
X12320630Y-6252040D02*
X12280630Y-6292040D01*
X12331290Y-10908770D02*
X12371290Y-10948770D01*
X12371290Y-10908770D02*
X12331290Y-10948770D01*
X12490560Y-10353570D02*
X12530560Y-10393570D01*
X12530560Y-10353570D02*
X12490560Y-10393570D01*
X12506670Y-14113350D02*
X12546670Y-14153350D01*
X12546670Y-14113350D02*
X12506670Y-14153350D01*
X12599710Y-1982740D02*
X12639710Y-2022740D01*
X12639710Y-1982740D02*
X12599710Y-2022740D01*
X12734250Y-5595480D02*
X12774250Y-5635480D01*
X12774250Y-5595480D02*
X12734250Y-5635480D01*
X12810660Y-8559730D02*
X12850660Y-8599730D01*
X12850660Y-8559730D02*
X12810660Y-8599730D01*
X12864510Y-7014420D02*
X12904510Y-7054420D01*
X12904510Y-7014420D02*
X12864510Y-7054420D01*
X12879980Y-2037990D02*
X12919980Y-2077990D01*
X12919980Y-2037990D02*
X12879980Y-2077990D01*
X12926420Y-11389100D02*
X12966420Y-11429100D01*
X12966420Y-11389100D02*
X12926420Y-11429100D01*
X12953850Y-11501310D02*
X12993850Y-11541310D01*
X12993850Y-11501310D02*
X12953850Y-11541310D01*
X12962470Y-4284180D02*
X13002470Y-4324180D01*
X13002470Y-4284180D02*
X12962470Y-4324180D01*
X13030630Y-4474280D02*
X13070630Y-4514280D01*
X13070630Y-4474280D02*
X13030630Y-4514280D01*
X13189700Y-4418000D02*
X13229700Y-4458000D01*
X13229700Y-4418000D02*
X13189700Y-4458000D01*
X13302780Y-4543610D02*
X13342780Y-4583610D01*
X13342780Y-4543610D02*
X13302780Y-4583610D01*
X13335250Y-8143510D02*
X13375250Y-8183510D01*
X13375250Y-8143510D02*
X13335250Y-8183510D01*
X13516370Y-5439620D02*
X13556370Y-5479620D01*
X13556370Y-5439620D02*
X13516370Y-5479620D01*
X13588990Y-10270090D02*
X13628990Y-10310090D01*
X13628990Y-10270090D02*
X13588990Y-10310090D01*
X14305480Y-5608180D02*
X14345480Y-5648180D01*
X14345480Y-5608180D02*
X14305480Y-5648180D01*
X14366320Y-4936440D02*
X14406320Y-4976440D01*
X14406320Y-4936440D02*
X14366320Y-4976440D01*
X14370410Y-10825650D02*
X14410410Y-10865650D01*
X14410410Y-10825650D02*
X14370410Y-10865650D01*
X14491360Y-7937910D02*
X14531360Y-7977910D01*
X14531360Y-7937910D02*
X14491360Y-7977910D01*
X14530910Y-10821210D02*
X14570910Y-10861210D01*
X14570910Y-10821210D02*
X14530910Y-10861210D01*
X14695690Y-4661590D02*
X14735690Y-4701590D01*
X14735690Y-4661590D02*
X14695690Y-4701590D01*
X14736280Y-8670950D02*
X14776280Y-8710950D01*
X14776280Y-8670950D02*
X14736280Y-8710950D01*
X14866450Y-11042830D02*
X14906450Y-11082830D01*
X14906450Y-11042830D02*
X14866450Y-11082830D01*
X14924500Y-11258250D02*
X14964500Y-11298250D01*
X14964500Y-11258250D02*
X14924500Y-11298250D01*
X15006580Y-12997500D02*
X15046580Y-13037500D01*
X15046580Y-12997500D02*
X15006580Y-13037500D01*
X15080180Y-12693670D02*
X15120180Y-12733670D01*
X15120180Y-12693670D02*
X15080180Y-12733670D01*
X15228860Y-10422370D02*
X15268860Y-10462370D01*
X15268860Y-10422370D02*
X15228860Y-10462370D01*
X15390260Y-10276730D02*
X15430260Y-10316730D01*
X15430260Y-10276730D02*
X15390260Y-10316730D01*
X15462380Y-8653840D02*
X15502380Y-8693840D01*
X15502380Y-8653840D02*
X15462380Y-8693840D01*
X15863410Y-10326280D02*
X15903410Y-10366280D01*
X15903410Y-10326280D02*
X15863410Y-10366280D01*
X15900660Y-10592730D02*
X15940660Y-10632730D01*
X15940660Y-10592730D02*
X15900660Y-10632730D01*
X15918240Y-9265230D02*
X15958240Y-9305230D01*
X15958240Y-9265230D02*
X15918240Y-9305230D01*
X16059860Y-10759070D02*
X16099860Y-10799070D01*
X16099860Y-10759070D02*
X16059860Y-10799070D01*
X16080430Y-6252040D02*
X16120430Y-6292040D01*
X16120430Y-6252040D02*
X16080430Y-6292040D01*
X16262760Y-9594410D02*
X16302760Y-9634410D01*
X16302760Y-9594410D02*
X16262760Y-9634410D01*
X16451060Y-9617820D02*
X16491060Y-9657820D01*
X16491060Y-9617820D02*
X16451060Y-9657820D01*
X16494560Y-13847660D02*
X16534560Y-13887660D01*
X16534560Y-13847660D02*
X16494560Y-13887660D01*
X16497230Y-10997260D02*
X16537230Y-11037260D01*
X16537230Y-10997260D02*
X16497230Y-11037260D01*
X16504670Y-7512920D02*
X16544670Y-7552920D01*
X16544670Y-7512920D02*
X16504670Y-7552920D01*
X16632640Y-13956040D02*
X16672640Y-13996040D01*
X16672640Y-13956040D02*
X16632640Y-13996040D01*
X16926780Y-7548710D02*
X16966780Y-7588710D01*
X16966780Y-7548710D02*
X16926780Y-7588710D01*
X16943440Y-12475730D02*
X16983440Y-12515730D01*
X16983440Y-12475730D02*
X16943440Y-12515730D01*
X17008950Y-10424480D02*
X17048950Y-10464480D01*
X17048950Y-10424480D02*
X17008950Y-10464480D01*
X17077900Y-10497010D02*
X17117900Y-10537010D01*
X17117900Y-10497010D02*
X17077900Y-10537010D01*
X17164700Y-10615380D02*
X17204700Y-10655380D01*
X17204700Y-10615380D02*
X17164700Y-10655380D01*
X17191230Y-11015150D02*
X17231230Y-11055150D01*
X17231230Y-11015150D02*
X17191230Y-11055150D01*
X17249260Y-14381880D02*
X17289260Y-14421880D01*
X17289260Y-14381880D02*
X17249260Y-14421880D01*
X17251330Y-5243690D02*
X17291330Y-5283690D01*
X17291330Y-5243690D02*
X17251330Y-5283690D01*
X17317320Y-10861230D02*
X17357320Y-10901230D01*
X17357320Y-10861230D02*
X17317320Y-10901230D01*
X17397440Y-10795510D02*
X17437440Y-10835510D01*
X17437440Y-10795510D02*
X17397440Y-10835510D01*
X17637570Y-12755780D02*
X17677570Y-12795780D01*
X17677570Y-12755780D02*
X17637570Y-12795780D01*
X17705110Y-13892740D02*
X17745110Y-13932740D01*
X17745110Y-13892740D02*
X17705110Y-13932740D01*
X17737910Y-13683420D02*
X17777910Y-13723420D01*
X17777910Y-13683420D02*
X17737910Y-13723420D01*
X17877260Y-13765650D02*
X17917260Y-13805650D01*
X17917260Y-13765650D02*
X17877260Y-13805650D01*
X17924190Y-13615420D02*
X17964190Y-13655420D01*
X17964190Y-13615420D02*
X17924190Y-13655420D01*
X17965450Y-14205560D02*
X18005450Y-14245560D01*
X18005450Y-14205560D02*
X17965450Y-14245560D01*
X18031630Y-13912470D02*
X18071630Y-13952470D01*
X18071630Y-13912470D02*
X18031630Y-13952470D01*
X18119700Y-8025920D02*
X18159700Y-8065920D01*
X18159700Y-8025920D02*
X18119700Y-8065920D01*
X18337020Y-13868770D02*
X18377020Y-13908770D01*
X18377020Y-13868770D02*
X18337020Y-13908770D01*
X18394640Y-13969950D02*
X18434640Y-14009950D01*
X18434640Y-13969950D02*
X18394640Y-14009950D01*
X18395210Y-3599500D02*
X18435210Y-3639500D01*
X18435210Y-3599500D02*
X18395210Y-3639500D01*
X18443240Y-10280240D02*
X18483240Y-10320240D01*
X18483240Y-10280240D02*
X18443240Y-10320240D01*
X18458850Y-7377800D02*
X18498850Y-7417800D01*
X18498850Y-7377800D02*
X18458850Y-7417800D01*
X18500750Y-4723420D02*
X18540750Y-4763420D01*
X18540750Y-4723420D02*
X18500750Y-4763420D01*
X18532140Y-7575340D02*
X18572140Y-7615340D01*
X18572140Y-7575340D02*
X18532140Y-7615340D01*
X18578460Y-9937020D02*
X18618460Y-9977020D01*
X18618460Y-9937020D02*
X18578460Y-9977020D01*
X18899830Y-12467970D02*
X18939830Y-12507970D01*
X18939830Y-12467970D02*
X18899830Y-12507970D01*
X19062690Y-2228530D02*
X19102690Y-2268530D01*
X19102690Y-2228530D02*
X19062690Y-2268530D01*
X19065340Y-10471310D02*
X19105340Y-10511310D01*
X19105340Y-10471310D02*
X19065340Y-10511310D01*
X19206820Y-9334380D02*
X19246820Y-9374380D01*
X19246820Y-9334380D02*
X19206820Y-9374380D01*
X19471530Y-7694670D02*
X19511530Y-7734670D01*
X19511530Y-7694670D02*
X19471530Y-7734670D01*
X19544120Y-10369060D02*
X19584120Y-10409060D01*
X19584120Y-10369060D02*
X19544120Y-10409060D01*
X19628760Y-10234640D02*
X19668760Y-10274640D01*
X19668760Y-10234640D02*
X19628760Y-10274640D01*
X19653800Y-7562630D02*
X19693800Y-7602630D01*
X19693800Y-7562630D02*
X19653800Y-7602630D01*
X19830490Y-9529280D02*
X19870490Y-9569280D01*
X19870490Y-9529280D02*
X19830490Y-9569280D01*
X19975080Y-10365270D02*
X20015080Y-10405270D01*
X20015080Y-10365270D02*
X19975080Y-10405270D01*
X20015750Y-9212650D02*
X20055750Y-9252650D01*
X20055750Y-9212650D02*
X20015750Y-9252650D01*
X20077510Y-6050120D02*
X20117510Y-6090120D01*
X20117510Y-6050120D02*
X20077510Y-6090120D01*
X20098420Y-9140120D02*
X20138420Y-9180120D01*
X20138420Y-9140120D02*
X20098420Y-9180120D01*
X20176500Y-7574060D02*
X20216500Y-7614060D01*
X20216500Y-7574060D02*
X20176500Y-7614060D01*
X20319070Y-10950090D02*
X20359070Y-10990090D01*
X20359070Y-10950090D02*
X20319070Y-10990090D01*
X20369890Y-9580310D02*
X20409890Y-9620310D01*
X20409890Y-9580310D02*
X20369890Y-9620310D01*
X20477900Y-11208970D02*
X20517900Y-11248970D01*
X20517900Y-11208970D02*
X20477900Y-11248970D01*
X20526430Y-9529280D02*
X20566430Y-9569280D01*
X20566430Y-9529280D02*
X20526430Y-9569280D01*
X20644000Y-9353300D02*
X20684000Y-9393300D01*
X20684000Y-9353300D02*
X20644000Y-9393300D01*
X20895500Y-10220490D02*
X20935500Y-10260490D01*
X20935500Y-10220490D02*
X20895500Y-10260490D01*
X20977490Y-10684680D02*
X21017490Y-10724680D01*
X21017490Y-10684680D02*
X20977490Y-10724680D01*
X21029990Y-12399550D02*
X21069990Y-12439550D01*
X21069990Y-12399550D02*
X21029990Y-12439550D01*
X21257980Y-10918160D02*
X21297980Y-10958160D01*
X21297980Y-10918160D02*
X21257980Y-10958160D01*
X21307090Y-12303030D02*
X21347090Y-12343030D01*
X21347090Y-12303030D02*
X21307090Y-12343030D01*
X21460830Y-10960180D02*
X21500830Y-11000180D01*
X21500830Y-10960180D02*
X21460830Y-11000180D01*
X21509510Y-10312100D02*
X21549510Y-10352100D01*
X21549510Y-10312100D02*
X21509510Y-10352100D01*
X21575240Y-2268050D02*
X21615240Y-2308050D01*
X21615240Y-2268050D02*
X21575240Y-2308050D01*
X21682180Y-10895950D02*
X21722180Y-10935950D01*
X21722180Y-10895950D02*
X21682180Y-10935950D01*
X21924440Y-2500730D02*
X21964440Y-2540730D01*
X21964440Y-2500730D02*
X21924440Y-2540730D01*
X22798860Y-12853430D02*
X22838860Y-12893430D01*
X22838860Y-12853430D02*
X22798860Y-12893430D01*
X22812140Y-10977370D02*
X22852140Y-11017370D01*
X22852140Y-10977370D02*
X22812140Y-11017370D01*
X22882840Y-10303850D02*
X22922840Y-10343850D01*
X22922840Y-10303850D02*
X22882840Y-10343850D01*
X23262280Y-12236000D02*
X23302280Y-12276000D01*
X23302280Y-12236000D02*
X23262280Y-12276000D01*
X23312840Y-4043840D02*
X23352840Y-4083840D01*
X23352840Y-4043840D02*
X23312840Y-4083840D01*
D13*
X4104000Y-5143500D02*
G75*
G03*
X4104000Y-5143500I-40000J0D01*
G01*
X4104000Y-5397500D02*
G75*
G03*
X4104000Y-5397500I-40000J0D01*
G01*
X4104000Y-5651500D02*
G75*
G03*
X4104000Y-5651500I-40000J0D01*
G01*
X4104000Y-5905500D02*
G75*
G03*
X4104000Y-5905500I-40000J0D01*
G01*
X4104000Y-6159500D02*
G75*
G03*
X4104000Y-6159500I-40000J0D01*
G01*
X4104000Y-6413500D02*
G75*
G03*
X4104000Y-6413500I-40000J0D01*
G01*
X4104000Y-6667500D02*
G75*
G03*
X4104000Y-6667500I-40000J0D01*
G01*
X4104000Y-6921500D02*
G75*
G03*
X4104000Y-6921500I-40000J0D01*
G01*
X4104000Y-8318500D02*
G75*
G03*
X4104000Y-8318500I-40000J0D01*
G01*
X4104000Y-8572500D02*
G75*
G03*
X4104000Y-8572500I-40000J0D01*
G01*
X4104000Y-8826500D02*
G75*
G03*
X4104000Y-8826500I-40000J0D01*
G01*
X4104000Y-9080500D02*
G75*
G03*
X4104000Y-9080500I-40000J0D01*
G01*
X4104000Y-9334500D02*
G75*
G03*
X4104000Y-9334500I-40000J0D01*
G01*
X4104000Y-9588500D02*
G75*
G03*
X4104000Y-9588500I-40000J0D01*
G01*
X4104000Y-9842500D02*
G75*
G03*
X4104000Y-9842500I-40000J0D01*
G01*
X4104000Y-10096500D02*
G75*
G03*
X4104000Y-10096500I-40000J0D01*
G01*
X4105000Y-11493000D02*
G75*
G03*
X4105000Y-11493000I-40000J0D01*
G01*
X4105000Y-11747000D02*
G75*
G03*
X4105000Y-11747000I-40000J0D01*
G01*
X4105000Y-12001000D02*
G75*
G03*
X4105000Y-12001000I-40000J0D01*
G01*
X4105000Y-12255000D02*
G75*
G03*
X4105000Y-12255000I-40000J0D01*
G01*
X4105000Y-12509000D02*
G75*
G03*
X4105000Y-12509000I-40000J0D01*
G01*
X4105000Y-12763000D02*
G75*
G03*
X4105000Y-12763000I-40000J0D01*
G01*
X4105000Y-13017000D02*
G75*
G03*
X4105000Y-13017000I-40000J0D01*
G01*
X4231000Y-4826000D02*
G75*
G03*
X4231000Y-4826000I-40000J0D01*
G01*
X4231000Y-8001000D02*
G75*
G03*
X4231000Y-8001000I-40000J0D01*
G01*
X4231000Y-11176000D02*
G75*
G03*
X4231000Y-11176000I-40000J0D01*
G01*
X4366760Y-13906500D02*
G75*
G03*
X4366760Y-13906500I-40000J0D01*
G01*
X4616760Y-13906500D02*
G75*
G03*
X4616760Y-13906500I-40000J0D01*
G01*
X4731000Y-4826000D02*
G75*
G03*
X4731000Y-4826000I-40000J0D01*
G01*
X4731000Y-8001000D02*
G75*
G03*
X4731000Y-8001000I-40000J0D01*
G01*
X4731000Y-11176000D02*
G75*
G03*
X4731000Y-11176000I-40000J0D01*
G01*
X4866000Y-5143500D02*
G75*
G03*
X4866000Y-5143500I-40000J0D01*
G01*
X4866000Y-5397500D02*
G75*
G03*
X4866000Y-5397500I-40000J0D01*
G01*
X4866000Y-5651500D02*
G75*
G03*
X4866000Y-5651500I-40000J0D01*
G01*
X4866000Y-5905500D02*
G75*
G03*
X4866000Y-5905500I-40000J0D01*
G01*
X4866000Y-6159500D02*
G75*
G03*
X4866000Y-6159500I-40000J0D01*
G01*
X4866000Y-6413500D02*
G75*
G03*
X4866000Y-6413500I-40000J0D01*
G01*
X4866000Y-6667500D02*
G75*
G03*
X4866000Y-6667500I-40000J0D01*
G01*
X4866000Y-6921500D02*
G75*
G03*
X4866000Y-6921500I-40000J0D01*
G01*
X4866000Y-8318500D02*
G75*
G03*
X4866000Y-8318500I-40000J0D01*
G01*
X4866000Y-8572500D02*
G75*
G03*
X4866000Y-8572500I-40000J0D01*
G01*
X4866000Y-8826500D02*
G75*
G03*
X4866000Y-8826500I-40000J0D01*
G01*
X4866000Y-9080500D02*
G75*
G03*
X4866000Y-9080500I-40000J0D01*
G01*
X4866000Y-9334500D02*
G75*
G03*
X4866000Y-9334500I-40000J0D01*
G01*
X4866000Y-9588500D02*
G75*
G03*
X4866000Y-9588500I-40000J0D01*
G01*
X4866000Y-9842500D02*
G75*
G03*
X4866000Y-9842500I-40000J0D01*
G01*
X4866000Y-10096500D02*
G75*
G03*
X4866000Y-10096500I-40000J0D01*
G01*
X4867000Y-11493000D02*
G75*
G03*
X4867000Y-11493000I-40000J0D01*
G01*
X4867000Y-11747000D02*
G75*
G03*
X4867000Y-11747000I-40000J0D01*
G01*
X4867000Y-12001000D02*
G75*
G03*
X4867000Y-12001000I-40000J0D01*
G01*
X4867000Y-12255000D02*
G75*
G03*
X4867000Y-12255000I-40000J0D01*
G01*
X4867000Y-12509000D02*
G75*
G03*
X4867000Y-12509000I-40000J0D01*
G01*
X4867000Y-12763000D02*
G75*
G03*
X4867000Y-12763000I-40000J0D01*
G01*
X4867000Y-13017000D02*
G75*
G03*
X4867000Y-13017000I-40000J0D01*
G01*
X6199500Y-2603500D02*
G75*
G03*
X6199500Y-2603500I-40000J0D01*
G01*
X6199500Y-2857500D02*
G75*
G03*
X6199500Y-2857500I-40000J0D01*
G01*
X6199500Y-3111500D02*
G75*
G03*
X6199500Y-3111500I-40000J0D01*
G01*
X6199500Y-3365500D02*
G75*
G03*
X6199500Y-3365500I-40000J0D01*
G01*
X6199500Y-3619500D02*
G75*
G03*
X6199500Y-3619500I-40000J0D01*
G01*
X6199500Y-3873500D02*
G75*
G03*
X6199500Y-3873500I-40000J0D01*
G01*
X6199500Y-4127500D02*
G75*
G03*
X6199500Y-4127500I-40000J0D01*
G01*
X6199500Y-5143500D02*
G75*
G03*
X6199500Y-5143500I-40000J0D01*
G01*
X6199500Y-5397500D02*
G75*
G03*
X6199500Y-5397500I-40000J0D01*
G01*
X6199500Y-5651500D02*
G75*
G03*
X6199500Y-5651500I-40000J0D01*
G01*
X6199500Y-5905500D02*
G75*
G03*
X6199500Y-5905500I-40000J0D01*
G01*
X6199500Y-6159500D02*
G75*
G03*
X6199500Y-6159500I-40000J0D01*
G01*
X6199500Y-6413500D02*
G75*
G03*
X6199500Y-6413500I-40000J0D01*
G01*
X6199500Y-6667500D02*
G75*
G03*
X6199500Y-6667500I-40000J0D01*
G01*
X6199500Y-6921500D02*
G75*
G03*
X6199500Y-6921500I-40000J0D01*
G01*
X6199500Y-8318500D02*
G75*
G03*
X6199500Y-8318500I-40000J0D01*
G01*
X6199500Y-8572500D02*
G75*
G03*
X6199500Y-8572500I-40000J0D01*
G01*
X6199500Y-8826500D02*
G75*
G03*
X6199500Y-8826500I-40000J0D01*
G01*
X6199500Y-9080500D02*
G75*
G03*
X6199500Y-9080500I-40000J0D01*
G01*
X6199500Y-9334500D02*
G75*
G03*
X6199500Y-9334500I-40000J0D01*
G01*
X6199500Y-9588500D02*
G75*
G03*
X6199500Y-9588500I-40000J0D01*
G01*
X6199500Y-9842500D02*
G75*
G03*
X6199500Y-9842500I-40000J0D01*
G01*
X6199500Y-10096500D02*
G75*
G03*
X6199500Y-10096500I-40000J0D01*
G01*
X6199500Y-11493500D02*
G75*
G03*
X6199500Y-11493500I-40000J0D01*
G01*
X6199500Y-11747500D02*
G75*
G03*
X6199500Y-11747500I-40000J0D01*
G01*
X6199500Y-12001500D02*
G75*
G03*
X6199500Y-12001500I-40000J0D01*
G01*
X6199500Y-12255500D02*
G75*
G03*
X6199500Y-12255500I-40000J0D01*
G01*
X6199500Y-12509500D02*
G75*
G03*
X6199500Y-12509500I-40000J0D01*
G01*
X6199500Y-12763500D02*
G75*
G03*
X6199500Y-12763500I-40000J0D01*
G01*
X6199500Y-13017500D02*
G75*
G03*
X6199500Y-13017500I-40000J0D01*
G01*
X6199500Y-13271500D02*
G75*
G03*
X6199500Y-13271500I-40000J0D01*
G01*
X6199500Y-13525500D02*
G75*
G03*
X6199500Y-13525500I-40000J0D01*
G01*
X6199500Y-13779500D02*
G75*
G03*
X6199500Y-13779500I-40000J0D01*
G01*
X6326500Y-4826000D02*
G75*
G03*
X6326500Y-4826000I-40000J0D01*
G01*
X6330500Y-2286000D02*
G75*
G03*
X6330500Y-2286000I-40000J0D01*
G01*
X6330500Y-8001000D02*
G75*
G03*
X6330500Y-8001000I-40000J0D01*
G01*
X6330500Y-11176000D02*
G75*
G03*
X6330500Y-11176000I-40000J0D01*
G01*
X6826500Y-4826000D02*
G75*
G03*
X6826500Y-4826000I-40000J0D01*
G01*
X6830500Y-2286000D02*
G75*
G03*
X6830500Y-2286000I-40000J0D01*
G01*
X6830500Y-8001000D02*
G75*
G03*
X6830500Y-8001000I-40000J0D01*
G01*
X6830500Y-11176000D02*
G75*
G03*
X6830500Y-11176000I-40000J0D01*
G01*
X6961500Y-2603500D02*
G75*
G03*
X6961500Y-2603500I-40000J0D01*
G01*
X6961500Y-2857500D02*
G75*
G03*
X6961500Y-2857500I-40000J0D01*
G01*
X6961500Y-3111500D02*
G75*
G03*
X6961500Y-3111500I-40000J0D01*
G01*
X6961500Y-3365500D02*
G75*
G03*
X6961500Y-3365500I-40000J0D01*
G01*
X6961500Y-3619500D02*
G75*
G03*
X6961500Y-3619500I-40000J0D01*
G01*
X6961500Y-3873500D02*
G75*
G03*
X6961500Y-3873500I-40000J0D01*
G01*
X6961500Y-4127500D02*
G75*
G03*
X6961500Y-4127500I-40000J0D01*
G01*
X6961500Y-5143500D02*
G75*
G03*
X6961500Y-5143500I-40000J0D01*
G01*
X6961500Y-5397500D02*
G75*
G03*
X6961500Y-5397500I-40000J0D01*
G01*
X6961500Y-5651500D02*
G75*
G03*
X6961500Y-5651500I-40000J0D01*
G01*
X6961500Y-5905500D02*
G75*
G03*
X6961500Y-5905500I-40000J0D01*
G01*
X6961500Y-6159500D02*
G75*
G03*
X6961500Y-6159500I-40000J0D01*
G01*
X6961500Y-6413500D02*
G75*
G03*
X6961500Y-6413500I-40000J0D01*
G01*
X6961500Y-6667500D02*
G75*
G03*
X6961500Y-6667500I-40000J0D01*
G01*
X6961500Y-6921500D02*
G75*
G03*
X6961500Y-6921500I-40000J0D01*
G01*
X6961500Y-8318500D02*
G75*
G03*
X6961500Y-8318500I-40000J0D01*
G01*
X6961500Y-8572500D02*
G75*
G03*
X6961500Y-8572500I-40000J0D01*
G01*
X6961500Y-8826500D02*
G75*
G03*
X6961500Y-8826500I-40000J0D01*
G01*
X6961500Y-9080500D02*
G75*
G03*
X6961500Y-9080500I-40000J0D01*
G01*
X6961500Y-9334500D02*
G75*
G03*
X6961500Y-9334500I-40000J0D01*
G01*
X6961500Y-9588500D02*
G75*
G03*
X6961500Y-9588500I-40000J0D01*
G01*
X6961500Y-9842500D02*
G75*
G03*
X6961500Y-9842500I-40000J0D01*
G01*
X6961500Y-10096500D02*
G75*
G03*
X6961500Y-10096500I-40000J0D01*
G01*
X6961500Y-11493500D02*
G75*
G03*
X6961500Y-11493500I-40000J0D01*
G01*
X6961500Y-11747500D02*
G75*
G03*
X6961500Y-11747500I-40000J0D01*
G01*
X6961500Y-12001500D02*
G75*
G03*
X6961500Y-12001500I-40000J0D01*
G01*
X6961500Y-12255500D02*
G75*
G03*
X6961500Y-12255500I-40000J0D01*
G01*
X6961500Y-12509500D02*
G75*
G03*
X6961500Y-12509500I-40000J0D01*
G01*
X6961500Y-12763500D02*
G75*
G03*
X6961500Y-12763500I-40000J0D01*
G01*
X6961500Y-13017500D02*
G75*
G03*
X6961500Y-13017500I-40000J0D01*
G01*
X6961500Y-13271500D02*
G75*
G03*
X6961500Y-13271500I-40000J0D01*
G01*
X6961500Y-13525500D02*
G75*
G03*
X6961500Y-13525500I-40000J0D01*
G01*
X6961500Y-13779500D02*
G75*
G03*
X6961500Y-13779500I-40000J0D01*
G01*
X7342500Y-3111500D02*
G75*
G03*
X7342500Y-3111500I-40000J0D01*
G01*
X7342500Y-3873500D02*
G75*
G03*
X7342500Y-3873500I-40000J0D01*
G01*
X8295000Y-2603500D02*
G75*
G03*
X8295000Y-2603500I-40000J0D01*
G01*
X8295000Y-2857500D02*
G75*
G03*
X8295000Y-2857500I-40000J0D01*
G01*
X8295000Y-3111500D02*
G75*
G03*
X8295000Y-3111500I-40000J0D01*
G01*
X8295000Y-3365500D02*
G75*
G03*
X8295000Y-3365500I-40000J0D01*
G01*
X8295000Y-3619500D02*
G75*
G03*
X8295000Y-3619500I-40000J0D01*
G01*
X8295000Y-3873500D02*
G75*
G03*
X8295000Y-3873500I-40000J0D01*
G01*
X8295000Y-4127500D02*
G75*
G03*
X8295000Y-4127500I-40000J0D01*
G01*
X8295000Y-8318500D02*
G75*
G03*
X8295000Y-8318500I-40000J0D01*
G01*
X8295000Y-8572500D02*
G75*
G03*
X8295000Y-8572500I-40000J0D01*
G01*
X8295000Y-8826500D02*
G75*
G03*
X8295000Y-8826500I-40000J0D01*
G01*
X8295000Y-9080500D02*
G75*
G03*
X8295000Y-9080500I-40000J0D01*
G01*
X8295000Y-9334500D02*
G75*
G03*
X8295000Y-9334500I-40000J0D01*
G01*
X8295000Y-9588500D02*
G75*
G03*
X8295000Y-9588500I-40000J0D01*
G01*
X8295000Y-9842500D02*
G75*
G03*
X8295000Y-9842500I-40000J0D01*
G01*
X8295000Y-10096500D02*
G75*
G03*
X8295000Y-10096500I-40000J0D01*
G01*
X8295000Y-11493500D02*
G75*
G03*
X8295000Y-11493500I-40000J0D01*
G01*
X8295000Y-11747500D02*
G75*
G03*
X8295000Y-11747500I-40000J0D01*
G01*
X8295000Y-12001500D02*
G75*
G03*
X8295000Y-12001500I-40000J0D01*
G01*
X8295000Y-12255500D02*
G75*
G03*
X8295000Y-12255500I-40000J0D01*
G01*
X8295000Y-12509500D02*
G75*
G03*
X8295000Y-12509500I-40000J0D01*
G01*
X8295000Y-12763500D02*
G75*
G03*
X8295000Y-12763500I-40000J0D01*
G01*
X8295000Y-13017500D02*
G75*
G03*
X8295000Y-13017500I-40000J0D01*
G01*
X8295000Y-13271500D02*
G75*
G03*
X8295000Y-13271500I-40000J0D01*
G01*
X8295000Y-13525500D02*
G75*
G03*
X8295000Y-13525500I-40000J0D01*
G01*
X8295000Y-13779500D02*
G75*
G03*
X8295000Y-13779500I-40000J0D01*
G01*
X8296000Y-5143500D02*
G75*
G03*
X8296000Y-5143500I-40000J0D01*
G01*
X8296000Y-5397500D02*
G75*
G03*
X8296000Y-5397500I-40000J0D01*
G01*
X8296000Y-5651500D02*
G75*
G03*
X8296000Y-5651500I-40000J0D01*
G01*
X8296000Y-5905500D02*
G75*
G03*
X8296000Y-5905500I-40000J0D01*
G01*
X8296000Y-6159500D02*
G75*
G03*
X8296000Y-6159500I-40000J0D01*
G01*
X8296000Y-6413500D02*
G75*
G03*
X8296000Y-6413500I-40000J0D01*
G01*
X8296000Y-6667500D02*
G75*
G03*
X8296000Y-6667500I-40000J0D01*
G01*
X8296000Y-6921500D02*
G75*
G03*
X8296000Y-6921500I-40000J0D01*
G01*
X8422000Y-2286000D02*
G75*
G03*
X8422000Y-2286000I-40000J0D01*
G01*
X8426000Y-4826000D02*
G75*
G03*
X8426000Y-4826000I-40000J0D01*
G01*
X8426000Y-8001000D02*
G75*
G03*
X8426000Y-8001000I-40000J0D01*
G01*
X8426000Y-11176000D02*
G75*
G03*
X8426000Y-11176000I-40000J0D01*
G01*
X8922000Y-2286000D02*
G75*
G03*
X8922000Y-2286000I-40000J0D01*
G01*
X8926000Y-4826000D02*
G75*
G03*
X8926000Y-4826000I-40000J0D01*
G01*
X8926000Y-8001000D02*
G75*
G03*
X8926000Y-8001000I-40000J0D01*
G01*
X8926000Y-11176000D02*
G75*
G03*
X8926000Y-11176000I-40000J0D01*
G01*
X9057000Y-2603500D02*
G75*
G03*
X9057000Y-2603500I-40000J0D01*
G01*
X9057000Y-2857500D02*
G75*
G03*
X9057000Y-2857500I-40000J0D01*
G01*
X9057000Y-3111500D02*
G75*
G03*
X9057000Y-3111500I-40000J0D01*
G01*
X9057000Y-3365500D02*
G75*
G03*
X9057000Y-3365500I-40000J0D01*
G01*
X9057000Y-3619500D02*
G75*
G03*
X9057000Y-3619500I-40000J0D01*
G01*
X9057000Y-3873500D02*
G75*
G03*
X9057000Y-3873500I-40000J0D01*
G01*
X9057000Y-4127500D02*
G75*
G03*
X9057000Y-4127500I-40000J0D01*
G01*
X9057000Y-8318500D02*
G75*
G03*
X9057000Y-8318500I-40000J0D01*
G01*
X9057000Y-8572500D02*
G75*
G03*
X9057000Y-8572500I-40000J0D01*
G01*
X9057000Y-8826500D02*
G75*
G03*
X9057000Y-8826500I-40000J0D01*
G01*
X9057000Y-9080500D02*
G75*
G03*
X9057000Y-9080500I-40000J0D01*
G01*
X9057000Y-9334500D02*
G75*
G03*
X9057000Y-9334500I-40000J0D01*
G01*
X9057000Y-9588500D02*
G75*
G03*
X9057000Y-9588500I-40000J0D01*
G01*
X9057000Y-9842500D02*
G75*
G03*
X9057000Y-9842500I-40000J0D01*
G01*
X9057000Y-10096500D02*
G75*
G03*
X9057000Y-10096500I-40000J0D01*
G01*
X9057000Y-11493500D02*
G75*
G03*
X9057000Y-11493500I-40000J0D01*
G01*
X9057000Y-11747500D02*
G75*
G03*
X9057000Y-11747500I-40000J0D01*
G01*
X9057000Y-12001500D02*
G75*
G03*
X9057000Y-12001500I-40000J0D01*
G01*
X9057000Y-12255500D02*
G75*
G03*
X9057000Y-12255500I-40000J0D01*
G01*
X9057000Y-12509500D02*
G75*
G03*
X9057000Y-12509500I-40000J0D01*
G01*
X9057000Y-12763500D02*
G75*
G03*
X9057000Y-12763500I-40000J0D01*
G01*
X9057000Y-13017500D02*
G75*
G03*
X9057000Y-13017500I-40000J0D01*
G01*
X9057000Y-13271500D02*
G75*
G03*
X9057000Y-13271500I-40000J0D01*
G01*
X9057000Y-13525500D02*
G75*
G03*
X9057000Y-13525500I-40000J0D01*
G01*
X9057000Y-13779500D02*
G75*
G03*
X9057000Y-13779500I-40000J0D01*
G01*
X9058000Y-5143500D02*
G75*
G03*
X9058000Y-5143500I-40000J0D01*
G01*
X9058000Y-5397500D02*
G75*
G03*
X9058000Y-5397500I-40000J0D01*
G01*
X9058000Y-5651500D02*
G75*
G03*
X9058000Y-5651500I-40000J0D01*
G01*
X9058000Y-5905500D02*
G75*
G03*
X9058000Y-5905500I-40000J0D01*
G01*
X9058000Y-6159500D02*
G75*
G03*
X9058000Y-6159500I-40000J0D01*
G01*
X9058000Y-6413500D02*
G75*
G03*
X9058000Y-6413500I-40000J0D01*
G01*
X9058000Y-6667500D02*
G75*
G03*
X9058000Y-6667500I-40000J0D01*
G01*
X9058000Y-6921500D02*
G75*
G03*
X9058000Y-6921500I-40000J0D01*
G01*
X10390500Y-2603500D02*
G75*
G03*
X10390500Y-2603500I-40000J0D01*
G01*
X10390500Y-2857500D02*
G75*
G03*
X10390500Y-2857500I-40000J0D01*
G01*
X10390500Y-3111500D02*
G75*
G03*
X10390500Y-3111500I-40000J0D01*
G01*
X10390500Y-3365500D02*
G75*
G03*
X10390500Y-3365500I-40000J0D01*
G01*
X10390500Y-3619500D02*
G75*
G03*
X10390500Y-3619500I-40000J0D01*
G01*
X10390500Y-3873500D02*
G75*
G03*
X10390500Y-3873500I-40000J0D01*
G01*
X10390500Y-4127500D02*
G75*
G03*
X10390500Y-4127500I-40000J0D01*
G01*
X10390500Y-5143500D02*
G75*
G03*
X10390500Y-5143500I-40000J0D01*
G01*
X10390500Y-5397500D02*
G75*
G03*
X10390500Y-5397500I-40000J0D01*
G01*
X10390500Y-5651500D02*
G75*
G03*
X10390500Y-5651500I-40000J0D01*
G01*
X10390500Y-5905500D02*
G75*
G03*
X10390500Y-5905500I-40000J0D01*
G01*
X10390500Y-6159500D02*
G75*
G03*
X10390500Y-6159500I-40000J0D01*
G01*
X10390500Y-6413500D02*
G75*
G03*
X10390500Y-6413500I-40000J0D01*
G01*
X10390500Y-6667500D02*
G75*
G03*
X10390500Y-6667500I-40000J0D01*
G01*
X10390500Y-6921500D02*
G75*
G03*
X10390500Y-6921500I-40000J0D01*
G01*
X10390500Y-8318500D02*
G75*
G03*
X10390500Y-8318500I-40000J0D01*
G01*
X10390500Y-8572500D02*
G75*
G03*
X10390500Y-8572500I-40000J0D01*
G01*
X10390500Y-8826500D02*
G75*
G03*
X10390500Y-8826500I-40000J0D01*
G01*
X10390500Y-9080500D02*
G75*
G03*
X10390500Y-9080500I-40000J0D01*
G01*
X10390500Y-9334500D02*
G75*
G03*
X10390500Y-9334500I-40000J0D01*
G01*
X10390500Y-9588500D02*
G75*
G03*
X10390500Y-9588500I-40000J0D01*
G01*
X10390500Y-9842500D02*
G75*
G03*
X10390500Y-9842500I-40000J0D01*
G01*
X10390500Y-10096500D02*
G75*
G03*
X10390500Y-10096500I-40000J0D01*
G01*
X10390500Y-11493500D02*
G75*
G03*
X10390500Y-11493500I-40000J0D01*
G01*
X10390500Y-11747500D02*
G75*
G03*
X10390500Y-11747500I-40000J0D01*
G01*
X10390500Y-12001500D02*
G75*
G03*
X10390500Y-12001500I-40000J0D01*
G01*
X10390500Y-12255500D02*
G75*
G03*
X10390500Y-12255500I-40000J0D01*
G01*
X10390500Y-12509500D02*
G75*
G03*
X10390500Y-12509500I-40000J0D01*
G01*
X10390500Y-12763500D02*
G75*
G03*
X10390500Y-12763500I-40000J0D01*
G01*
X10390500Y-13017500D02*
G75*
G03*
X10390500Y-13017500I-40000J0D01*
G01*
X10390500Y-13271500D02*
G75*
G03*
X10390500Y-13271500I-40000J0D01*
G01*
X10390500Y-13525500D02*
G75*
G03*
X10390500Y-13525500I-40000J0D01*
G01*
X10390500Y-13779500D02*
G75*
G03*
X10390500Y-13779500I-40000J0D01*
G01*
X10517500Y-4826000D02*
G75*
G03*
X10517500Y-4826000I-40000J0D01*
G01*
X10517500Y-11176000D02*
G75*
G03*
X10517500Y-11176000I-40000J0D01*
G01*
X10521500Y-2286000D02*
G75*
G03*
X10521500Y-2286000I-40000J0D01*
G01*
X10521500Y-8001000D02*
G75*
G03*
X10521500Y-8001000I-40000J0D01*
G01*
X11017500Y-4826000D02*
G75*
G03*
X11017500Y-4826000I-40000J0D01*
G01*
X11017500Y-11176000D02*
G75*
G03*
X11017500Y-11176000I-40000J0D01*
G01*
X11021500Y-2286000D02*
G75*
G03*
X11021500Y-2286000I-40000J0D01*
G01*
X11021500Y-8001000D02*
G75*
G03*
X11021500Y-8001000I-40000J0D01*
G01*
X11152500Y-2603500D02*
G75*
G03*
X11152500Y-2603500I-40000J0D01*
G01*
X11152500Y-2857500D02*
G75*
G03*
X11152500Y-2857500I-40000J0D01*
G01*
X11152500Y-3111500D02*
G75*
G03*
X11152500Y-3111500I-40000J0D01*
G01*
X11152500Y-3365500D02*
G75*
G03*
X11152500Y-3365500I-40000J0D01*
G01*
X11152500Y-3619500D02*
G75*
G03*
X11152500Y-3619500I-40000J0D01*
G01*
X11152500Y-3873500D02*
G75*
G03*
X11152500Y-3873500I-40000J0D01*
G01*
X11152500Y-4127500D02*
G75*
G03*
X11152500Y-4127500I-40000J0D01*
G01*
X11152500Y-5143500D02*
G75*
G03*
X11152500Y-5143500I-40000J0D01*
G01*
X11152500Y-5397500D02*
G75*
G03*
X11152500Y-5397500I-40000J0D01*
G01*
X11152500Y-5651500D02*
G75*
G03*
X11152500Y-5651500I-40000J0D01*
G01*
X11152500Y-5905500D02*
G75*
G03*
X11152500Y-5905500I-40000J0D01*
G01*
X11152500Y-6159500D02*
G75*
G03*
X11152500Y-6159500I-40000J0D01*
G01*
X11152500Y-6413500D02*
G75*
G03*
X11152500Y-6413500I-40000J0D01*
G01*
X11152500Y-6667500D02*
G75*
G03*
X11152500Y-6667500I-40000J0D01*
G01*
X11152500Y-6921500D02*
G75*
G03*
X11152500Y-6921500I-40000J0D01*
G01*
X11152500Y-8318500D02*
G75*
G03*
X11152500Y-8318500I-40000J0D01*
G01*
X11152500Y-8572500D02*
G75*
G03*
X11152500Y-8572500I-40000J0D01*
G01*
X11152500Y-8826500D02*
G75*
G03*
X11152500Y-8826500I-40000J0D01*
G01*
X11152500Y-9080500D02*
G75*
G03*
X11152500Y-9080500I-40000J0D01*
G01*
X11152500Y-9334500D02*
G75*
G03*
X11152500Y-9334500I-40000J0D01*
G01*
X11152500Y-9588500D02*
G75*
G03*
X11152500Y-9588500I-40000J0D01*
G01*
X11152500Y-9842500D02*
G75*
G03*
X11152500Y-9842500I-40000J0D01*
G01*
X11152500Y-10096500D02*
G75*
G03*
X11152500Y-10096500I-40000J0D01*
G01*
X11152500Y-11493500D02*
G75*
G03*
X11152500Y-11493500I-40000J0D01*
G01*
X11152500Y-11747500D02*
G75*
G03*
X11152500Y-11747500I-40000J0D01*
G01*
X11152500Y-12001500D02*
G75*
G03*
X11152500Y-12001500I-40000J0D01*
G01*
X11152500Y-12255500D02*
G75*
G03*
X11152500Y-12255500I-40000J0D01*
G01*
X11152500Y-12509500D02*
G75*
G03*
X11152500Y-12509500I-40000J0D01*
G01*
X11152500Y-12763500D02*
G75*
G03*
X11152500Y-12763500I-40000J0D01*
G01*
X11152500Y-13017500D02*
G75*
G03*
X11152500Y-13017500I-40000J0D01*
G01*
X11152500Y-13271500D02*
G75*
G03*
X11152500Y-13271500I-40000J0D01*
G01*
X11152500Y-13525500D02*
G75*
G03*
X11152500Y-13525500I-40000J0D01*
G01*
X11152500Y-13779500D02*
G75*
G03*
X11152500Y-13779500I-40000J0D01*
G01*
X12486000Y-2603500D02*
G75*
G03*
X12486000Y-2603500I-40000J0D01*
G01*
X12486000Y-2857500D02*
G75*
G03*
X12486000Y-2857500I-40000J0D01*
G01*
X12486000Y-3111500D02*
G75*
G03*
X12486000Y-3111500I-40000J0D01*
G01*
X12486000Y-3365500D02*
G75*
G03*
X12486000Y-3365500I-40000J0D01*
G01*
X12486000Y-3619500D02*
G75*
G03*
X12486000Y-3619500I-40000J0D01*
G01*
X12486000Y-3873500D02*
G75*
G03*
X12486000Y-3873500I-40000J0D01*
G01*
X12486000Y-4127500D02*
G75*
G03*
X12486000Y-4127500I-40000J0D01*
G01*
X12486000Y-5143500D02*
G75*
G03*
X12486000Y-5143500I-40000J0D01*
G01*
X12486000Y-5397500D02*
G75*
G03*
X12486000Y-5397500I-40000J0D01*
G01*
X12486000Y-5651500D02*
G75*
G03*
X12486000Y-5651500I-40000J0D01*
G01*
X12486000Y-5905500D02*
G75*
G03*
X12486000Y-5905500I-40000J0D01*
G01*
X12486000Y-6159500D02*
G75*
G03*
X12486000Y-6159500I-40000J0D01*
G01*
X12486000Y-6413500D02*
G75*
G03*
X12486000Y-6413500I-40000J0D01*
G01*
X12486000Y-6667500D02*
G75*
G03*
X12486000Y-6667500I-40000J0D01*
G01*
X12486000Y-6921500D02*
G75*
G03*
X12486000Y-6921500I-40000J0D01*
G01*
X12486000Y-8318500D02*
G75*
G03*
X12486000Y-8318500I-40000J0D01*
G01*
X12486000Y-8572500D02*
G75*
G03*
X12486000Y-8572500I-40000J0D01*
G01*
X12486000Y-8826500D02*
G75*
G03*
X12486000Y-8826500I-40000J0D01*
G01*
X12486000Y-9080500D02*
G75*
G03*
X12486000Y-9080500I-40000J0D01*
G01*
X12486000Y-9334500D02*
G75*
G03*
X12486000Y-9334500I-40000J0D01*
G01*
X12486000Y-9588500D02*
G75*
G03*
X12486000Y-9588500I-40000J0D01*
G01*
X12486000Y-9842500D02*
G75*
G03*
X12486000Y-9842500I-40000J0D01*
G01*
X12486000Y-10096500D02*
G75*
G03*
X12486000Y-10096500I-40000J0D01*
G01*
X12486000Y-11493500D02*
G75*
G03*
X12486000Y-11493500I-40000J0D01*
G01*
X12486000Y-11747500D02*
G75*
G03*
X12486000Y-11747500I-40000J0D01*
G01*
X12486000Y-12001500D02*
G75*
G03*
X12486000Y-12001500I-40000J0D01*
G01*
X12486000Y-12255500D02*
G75*
G03*
X12486000Y-12255500I-40000J0D01*
G01*
X12486000Y-12509500D02*
G75*
G03*
X12486000Y-12509500I-40000J0D01*
G01*
X12486000Y-12763500D02*
G75*
G03*
X12486000Y-12763500I-40000J0D01*
G01*
X12486000Y-13017500D02*
G75*
G03*
X12486000Y-13017500I-40000J0D01*
G01*
X12486000Y-13271500D02*
G75*
G03*
X12486000Y-13271500I-40000J0D01*
G01*
X12486000Y-13525500D02*
G75*
G03*
X12486000Y-13525500I-40000J0D01*
G01*
X12486000Y-13779500D02*
G75*
G03*
X12486000Y-13779500I-40000J0D01*
G01*
X12613000Y-2286000D02*
G75*
G03*
X12613000Y-2286000I-40000J0D01*
G01*
X12613000Y-4826000D02*
G75*
G03*
X12613000Y-4826000I-40000J0D01*
G01*
X12613000Y-8001000D02*
G75*
G03*
X12613000Y-8001000I-40000J0D01*
G01*
X12613000Y-11176000D02*
G75*
G03*
X12613000Y-11176000I-40000J0D01*
G01*
X13113000Y-2286000D02*
G75*
G03*
X13113000Y-2286000I-40000J0D01*
G01*
X13113000Y-4826000D02*
G75*
G03*
X13113000Y-4826000I-40000J0D01*
G01*
X13113000Y-8001000D02*
G75*
G03*
X13113000Y-8001000I-40000J0D01*
G01*
X13113000Y-11176000D02*
G75*
G03*
X13113000Y-11176000I-40000J0D01*
G01*
X13248000Y-2603500D02*
G75*
G03*
X13248000Y-2603500I-40000J0D01*
G01*
X13248000Y-2857500D02*
G75*
G03*
X13248000Y-2857500I-40000J0D01*
G01*
X13248000Y-3111500D02*
G75*
G03*
X13248000Y-3111500I-40000J0D01*
G01*
X13248000Y-3365500D02*
G75*
G03*
X13248000Y-3365500I-40000J0D01*
G01*
X13248000Y-3619500D02*
G75*
G03*
X13248000Y-3619500I-40000J0D01*
G01*
X13248000Y-3873500D02*
G75*
G03*
X13248000Y-3873500I-40000J0D01*
G01*
X13248000Y-4127500D02*
G75*
G03*
X13248000Y-4127500I-40000J0D01*
G01*
X13248000Y-5143500D02*
G75*
G03*
X13248000Y-5143500I-40000J0D01*
G01*
X13248000Y-5397500D02*
G75*
G03*
X13248000Y-5397500I-40000J0D01*
G01*
X13248000Y-5651500D02*
G75*
G03*
X13248000Y-5651500I-40000J0D01*
G01*
X13248000Y-5905500D02*
G75*
G03*
X13248000Y-5905500I-40000J0D01*
G01*
X13248000Y-6159500D02*
G75*
G03*
X13248000Y-6159500I-40000J0D01*
G01*
X13248000Y-6413500D02*
G75*
G03*
X13248000Y-6413500I-40000J0D01*
G01*
X13248000Y-6667500D02*
G75*
G03*
X13248000Y-6667500I-40000J0D01*
G01*
X13248000Y-6921500D02*
G75*
G03*
X13248000Y-6921500I-40000J0D01*
G01*
X13248000Y-8318500D02*
G75*
G03*
X13248000Y-8318500I-40000J0D01*
G01*
X13248000Y-8572500D02*
G75*
G03*
X13248000Y-8572500I-40000J0D01*
G01*
X13248000Y-8826500D02*
G75*
G03*
X13248000Y-8826500I-40000J0D01*
G01*
X13248000Y-9080500D02*
G75*
G03*
X13248000Y-9080500I-40000J0D01*
G01*
X13248000Y-9334500D02*
G75*
G03*
X13248000Y-9334500I-40000J0D01*
G01*
X13248000Y-9588500D02*
G75*
G03*
X13248000Y-9588500I-40000J0D01*
G01*
X13248000Y-9842500D02*
G75*
G03*
X13248000Y-9842500I-40000J0D01*
G01*
X13248000Y-10096500D02*
G75*
G03*
X13248000Y-10096500I-40000J0D01*
G01*
X13248000Y-11493500D02*
G75*
G03*
X13248000Y-11493500I-40000J0D01*
G01*
X13248000Y-11747500D02*
G75*
G03*
X13248000Y-11747500I-40000J0D01*
G01*
X13248000Y-12001500D02*
G75*
G03*
X13248000Y-12001500I-40000J0D01*
G01*
X13248000Y-12255500D02*
G75*
G03*
X13248000Y-12255500I-40000J0D01*
G01*
X13248000Y-12509500D02*
G75*
G03*
X13248000Y-12509500I-40000J0D01*
G01*
X13248000Y-12763500D02*
G75*
G03*
X13248000Y-12763500I-40000J0D01*
G01*
X13248000Y-13017500D02*
G75*
G03*
X13248000Y-13017500I-40000J0D01*
G01*
X13248000Y-13271500D02*
G75*
G03*
X13248000Y-13271500I-40000J0D01*
G01*
X13248000Y-13525500D02*
G75*
G03*
X13248000Y-13525500I-40000J0D01*
G01*
X13248000Y-13779500D02*
G75*
G03*
X13248000Y-13779500I-40000J0D01*
G01*
X14581500Y-2603500D02*
G75*
G03*
X14581500Y-2603500I-40000J0D01*
G01*
X14581500Y-2857500D02*
G75*
G03*
X14581500Y-2857500I-40000J0D01*
G01*
X14581500Y-3111500D02*
G75*
G03*
X14581500Y-3111500I-40000J0D01*
G01*
X14581500Y-3365500D02*
G75*
G03*
X14581500Y-3365500I-40000J0D01*
G01*
X14581500Y-3619500D02*
G75*
G03*
X14581500Y-3619500I-40000J0D01*
G01*
X14581500Y-3873500D02*
G75*
G03*
X14581500Y-3873500I-40000J0D01*
G01*
X14581500Y-4127500D02*
G75*
G03*
X14581500Y-4127500I-40000J0D01*
G01*
X14581500Y-5143500D02*
G75*
G03*
X14581500Y-5143500I-40000J0D01*
G01*
X14581500Y-5397500D02*
G75*
G03*
X14581500Y-5397500I-40000J0D01*
G01*
X14581500Y-5651500D02*
G75*
G03*
X14581500Y-5651500I-40000J0D01*
G01*
X14581500Y-5905500D02*
G75*
G03*
X14581500Y-5905500I-40000J0D01*
G01*
X14581500Y-6159500D02*
G75*
G03*
X14581500Y-6159500I-40000J0D01*
G01*
X14581500Y-6413500D02*
G75*
G03*
X14581500Y-6413500I-40000J0D01*
G01*
X14581500Y-6667500D02*
G75*
G03*
X14581500Y-6667500I-40000J0D01*
G01*
X14581500Y-6921500D02*
G75*
G03*
X14581500Y-6921500I-40000J0D01*
G01*
X14581500Y-7175500D02*
G75*
G03*
X14581500Y-7175500I-40000J0D01*
G01*
X14581500Y-7429500D02*
G75*
G03*
X14581500Y-7429500I-40000J0D01*
G01*
X14581500Y-8318500D02*
G75*
G03*
X14581500Y-8318500I-40000J0D01*
G01*
X14581500Y-8572500D02*
G75*
G03*
X14581500Y-8572500I-40000J0D01*
G01*
X14581500Y-8826500D02*
G75*
G03*
X14581500Y-8826500I-40000J0D01*
G01*
X14581500Y-9080500D02*
G75*
G03*
X14581500Y-9080500I-40000J0D01*
G01*
X14581500Y-9334500D02*
G75*
G03*
X14581500Y-9334500I-40000J0D01*
G01*
X14581500Y-9588500D02*
G75*
G03*
X14581500Y-9588500I-40000J0D01*
G01*
X14581500Y-9842500D02*
G75*
G03*
X14581500Y-9842500I-40000J0D01*
G01*
X14581500Y-10096500D02*
G75*
G03*
X14581500Y-10096500I-40000J0D01*
G01*
X14581500Y-11493500D02*
G75*
G03*
X14581500Y-11493500I-40000J0D01*
G01*
X14581500Y-11747500D02*
G75*
G03*
X14581500Y-11747500I-40000J0D01*
G01*
X14581500Y-12001500D02*
G75*
G03*
X14581500Y-12001500I-40000J0D01*
G01*
X14581500Y-12255500D02*
G75*
G03*
X14581500Y-12255500I-40000J0D01*
G01*
X14581500Y-12509500D02*
G75*
G03*
X14581500Y-12509500I-40000J0D01*
G01*
X14581500Y-12763500D02*
G75*
G03*
X14581500Y-12763500I-40000J0D01*
G01*
X14581500Y-13017500D02*
G75*
G03*
X14581500Y-13017500I-40000J0D01*
G01*
X14581500Y-13271500D02*
G75*
G03*
X14581500Y-13271500I-40000J0D01*
G01*
X14581500Y-13525500D02*
G75*
G03*
X14581500Y-13525500I-40000J0D01*
G01*
X14581500Y-13779500D02*
G75*
G03*
X14581500Y-13779500I-40000J0D01*
G01*
X14708500Y-2286000D02*
G75*
G03*
X14708500Y-2286000I-40000J0D01*
G01*
X14708500Y-4826000D02*
G75*
G03*
X14708500Y-4826000I-40000J0D01*
G01*
X14708500Y-11176000D02*
G75*
G03*
X14708500Y-11176000I-40000J0D01*
G01*
X14712500Y-8001000D02*
G75*
G03*
X14712500Y-8001000I-40000J0D01*
G01*
X15208500Y-2286000D02*
G75*
G03*
X15208500Y-2286000I-40000J0D01*
G01*
X15208500Y-4826000D02*
G75*
G03*
X15208500Y-4826000I-40000J0D01*
G01*
X15208500Y-11176000D02*
G75*
G03*
X15208500Y-11176000I-40000J0D01*
G01*
X15212500Y-8001000D02*
G75*
G03*
X15212500Y-8001000I-40000J0D01*
G01*
X15343500Y-2603500D02*
G75*
G03*
X15343500Y-2603500I-40000J0D01*
G01*
X15343500Y-2857500D02*
G75*
G03*
X15343500Y-2857500I-40000J0D01*
G01*
X15343500Y-3111500D02*
G75*
G03*
X15343500Y-3111500I-40000J0D01*
G01*
X15343500Y-3365500D02*
G75*
G03*
X15343500Y-3365500I-40000J0D01*
G01*
X15343500Y-3619500D02*
G75*
G03*
X15343500Y-3619500I-40000J0D01*
G01*
X15343500Y-3873500D02*
G75*
G03*
X15343500Y-3873500I-40000J0D01*
G01*
X15343500Y-4127500D02*
G75*
G03*
X15343500Y-4127500I-40000J0D01*
G01*
X15343500Y-5143500D02*
G75*
G03*
X15343500Y-5143500I-40000J0D01*
G01*
X15343500Y-5397500D02*
G75*
G03*
X15343500Y-5397500I-40000J0D01*
G01*
X15343500Y-5651500D02*
G75*
G03*
X15343500Y-5651500I-40000J0D01*
G01*
X15343500Y-5905500D02*
G75*
G03*
X15343500Y-5905500I-40000J0D01*
G01*
X15343500Y-6159500D02*
G75*
G03*
X15343500Y-6159500I-40000J0D01*
G01*
X15343500Y-6413500D02*
G75*
G03*
X15343500Y-6413500I-40000J0D01*
G01*
X15343500Y-6667500D02*
G75*
G03*
X15343500Y-6667500I-40000J0D01*
G01*
X15343500Y-6921500D02*
G75*
G03*
X15343500Y-6921500I-40000J0D01*
G01*
X15343500Y-7175500D02*
G75*
G03*
X15343500Y-7175500I-40000J0D01*
G01*
X15343500Y-7429500D02*
G75*
G03*
X15343500Y-7429500I-40000J0D01*
G01*
X15343500Y-8318500D02*
G75*
G03*
X15343500Y-8318500I-40000J0D01*
G01*
X15343500Y-8572500D02*
G75*
G03*
X15343500Y-8572500I-40000J0D01*
G01*
X15343500Y-8826500D02*
G75*
G03*
X15343500Y-8826500I-40000J0D01*
G01*
X15343500Y-9080500D02*
G75*
G03*
X15343500Y-9080500I-40000J0D01*
G01*
X15343500Y-9334500D02*
G75*
G03*
X15343500Y-9334500I-40000J0D01*
G01*
X15343500Y-9588500D02*
G75*
G03*
X15343500Y-9588500I-40000J0D01*
G01*
X15343500Y-9842500D02*
G75*
G03*
X15343500Y-9842500I-40000J0D01*
G01*
X15343500Y-10096500D02*
G75*
G03*
X15343500Y-10096500I-40000J0D01*
G01*
X15343500Y-11493500D02*
G75*
G03*
X15343500Y-11493500I-40000J0D01*
G01*
X15343500Y-11747500D02*
G75*
G03*
X15343500Y-11747500I-40000J0D01*
G01*
X15343500Y-12001500D02*
G75*
G03*
X15343500Y-12001500I-40000J0D01*
G01*
X15343500Y-12255500D02*
G75*
G03*
X15343500Y-12255500I-40000J0D01*
G01*
X15343500Y-12509500D02*
G75*
G03*
X15343500Y-12509500I-40000J0D01*
G01*
X15343500Y-12763500D02*
G75*
G03*
X15343500Y-12763500I-40000J0D01*
G01*
X15343500Y-13017500D02*
G75*
G03*
X15343500Y-13017500I-40000J0D01*
G01*
X15343500Y-13271500D02*
G75*
G03*
X15343500Y-13271500I-40000J0D01*
G01*
X15343500Y-13525500D02*
G75*
G03*
X15343500Y-13525500I-40000J0D01*
G01*
X15343500Y-13779500D02*
G75*
G03*
X15343500Y-13779500I-40000J0D01*
G01*
X16677000Y-2603500D02*
G75*
G03*
X16677000Y-2603500I-40000J0D01*
G01*
X16677000Y-2857500D02*
G75*
G03*
X16677000Y-2857500I-40000J0D01*
G01*
X16677000Y-3111500D02*
G75*
G03*
X16677000Y-3111500I-40000J0D01*
G01*
X16677000Y-3365500D02*
G75*
G03*
X16677000Y-3365500I-40000J0D01*
G01*
X16677000Y-3619500D02*
G75*
G03*
X16677000Y-3619500I-40000J0D01*
G01*
X16677000Y-3873500D02*
G75*
G03*
X16677000Y-3873500I-40000J0D01*
G01*
X16677000Y-4127500D02*
G75*
G03*
X16677000Y-4127500I-40000J0D01*
G01*
X16677000Y-5143500D02*
G75*
G03*
X16677000Y-5143500I-40000J0D01*
G01*
X16677000Y-5397500D02*
G75*
G03*
X16677000Y-5397500I-40000J0D01*
G01*
X16677000Y-5651500D02*
G75*
G03*
X16677000Y-5651500I-40000J0D01*
G01*
X16677000Y-5905500D02*
G75*
G03*
X16677000Y-5905500I-40000J0D01*
G01*
X16677000Y-6159500D02*
G75*
G03*
X16677000Y-6159500I-40000J0D01*
G01*
X16677000Y-6413500D02*
G75*
G03*
X16677000Y-6413500I-40000J0D01*
G01*
X16677000Y-6667500D02*
G75*
G03*
X16677000Y-6667500I-40000J0D01*
G01*
X16677000Y-6921500D02*
G75*
G03*
X16677000Y-6921500I-40000J0D01*
G01*
X16677000Y-7175500D02*
G75*
G03*
X16677000Y-7175500I-40000J0D01*
G01*
X16677000Y-7429500D02*
G75*
G03*
X16677000Y-7429500I-40000J0D01*
G01*
X16677000Y-8318500D02*
G75*
G03*
X16677000Y-8318500I-40000J0D01*
G01*
X16677000Y-8572500D02*
G75*
G03*
X16677000Y-8572500I-40000J0D01*
G01*
X16677000Y-8826500D02*
G75*
G03*
X16677000Y-8826500I-40000J0D01*
G01*
X16677000Y-9080500D02*
G75*
G03*
X16677000Y-9080500I-40000J0D01*
G01*
X16677000Y-9334500D02*
G75*
G03*
X16677000Y-9334500I-40000J0D01*
G01*
X16677000Y-9588500D02*
G75*
G03*
X16677000Y-9588500I-40000J0D01*
G01*
X16677000Y-9842500D02*
G75*
G03*
X16677000Y-9842500I-40000J0D01*
G01*
X16677000Y-10096500D02*
G75*
G03*
X16677000Y-10096500I-40000J0D01*
G01*
X16677000Y-11493500D02*
G75*
G03*
X16677000Y-11493500I-40000J0D01*
G01*
X16677000Y-11747500D02*
G75*
G03*
X16677000Y-11747500I-40000J0D01*
G01*
X16677000Y-12001500D02*
G75*
G03*
X16677000Y-12001500I-40000J0D01*
G01*
X16677000Y-12255500D02*
G75*
G03*
X16677000Y-12255500I-40000J0D01*
G01*
X16677000Y-12509500D02*
G75*
G03*
X16677000Y-12509500I-40000J0D01*
G01*
X16677000Y-12763500D02*
G75*
G03*
X16677000Y-12763500I-40000J0D01*
G01*
X16677000Y-13017500D02*
G75*
G03*
X16677000Y-13017500I-40000J0D01*
G01*
X16677000Y-13271500D02*
G75*
G03*
X16677000Y-13271500I-40000J0D01*
G01*
X16677000Y-13525500D02*
G75*
G03*
X16677000Y-13525500I-40000J0D01*
G01*
X16677000Y-13779500D02*
G75*
G03*
X16677000Y-13779500I-40000J0D01*
G01*
X16804000Y-2286000D02*
G75*
G03*
X16804000Y-2286000I-40000J0D01*
G01*
X16804000Y-8001000D02*
G75*
G03*
X16804000Y-8001000I-40000J0D01*
G01*
X16808000Y-4826000D02*
G75*
G03*
X16808000Y-4826000I-40000J0D01*
G01*
X16808000Y-11176000D02*
G75*
G03*
X16808000Y-11176000I-40000J0D01*
G01*
X17304000Y-2286000D02*
G75*
G03*
X17304000Y-2286000I-40000J0D01*
G01*
X17304000Y-8001000D02*
G75*
G03*
X17304000Y-8001000I-40000J0D01*
G01*
X17308000Y-4826000D02*
G75*
G03*
X17308000Y-4826000I-40000J0D01*
G01*
X17308000Y-11176000D02*
G75*
G03*
X17308000Y-11176000I-40000J0D01*
G01*
X17439000Y-2603500D02*
G75*
G03*
X17439000Y-2603500I-40000J0D01*
G01*
X17439000Y-2857500D02*
G75*
G03*
X17439000Y-2857500I-40000J0D01*
G01*
X17439000Y-3111500D02*
G75*
G03*
X17439000Y-3111500I-40000J0D01*
G01*
X17439000Y-3365500D02*
G75*
G03*
X17439000Y-3365500I-40000J0D01*
G01*
X17439000Y-3619500D02*
G75*
G03*
X17439000Y-3619500I-40000J0D01*
G01*
X17439000Y-3873500D02*
G75*
G03*
X17439000Y-3873500I-40000J0D01*
G01*
X17439000Y-4127500D02*
G75*
G03*
X17439000Y-4127500I-40000J0D01*
G01*
X17439000Y-5143500D02*
G75*
G03*
X17439000Y-5143500I-40000J0D01*
G01*
X17439000Y-5397500D02*
G75*
G03*
X17439000Y-5397500I-40000J0D01*
G01*
X17439000Y-5651500D02*
G75*
G03*
X17439000Y-5651500I-40000J0D01*
G01*
X17439000Y-5905500D02*
G75*
G03*
X17439000Y-5905500I-40000J0D01*
G01*
X17439000Y-6159500D02*
G75*
G03*
X17439000Y-6159500I-40000J0D01*
G01*
X17439000Y-6413500D02*
G75*
G03*
X17439000Y-6413500I-40000J0D01*
G01*
X17439000Y-6667500D02*
G75*
G03*
X17439000Y-6667500I-40000J0D01*
G01*
X17439000Y-6921500D02*
G75*
G03*
X17439000Y-6921500I-40000J0D01*
G01*
X17439000Y-7175500D02*
G75*
G03*
X17439000Y-7175500I-40000J0D01*
G01*
X17439000Y-7429500D02*
G75*
G03*
X17439000Y-7429500I-40000J0D01*
G01*
X17439000Y-8318500D02*
G75*
G03*
X17439000Y-8318500I-40000J0D01*
G01*
X17439000Y-8572500D02*
G75*
G03*
X17439000Y-8572500I-40000J0D01*
G01*
X17439000Y-8826500D02*
G75*
G03*
X17439000Y-8826500I-40000J0D01*
G01*
X17439000Y-9080500D02*
G75*
G03*
X17439000Y-9080500I-40000J0D01*
G01*
X17439000Y-9334500D02*
G75*
G03*
X17439000Y-9334500I-40000J0D01*
G01*
X17439000Y-9588500D02*
G75*
G03*
X17439000Y-9588500I-40000J0D01*
G01*
X17439000Y-9842500D02*
G75*
G03*
X17439000Y-9842500I-40000J0D01*
G01*
X17439000Y-10096500D02*
G75*
G03*
X17439000Y-10096500I-40000J0D01*
G01*
X17439000Y-11493500D02*
G75*
G03*
X17439000Y-11493500I-40000J0D01*
G01*
X17439000Y-11747500D02*
G75*
G03*
X17439000Y-11747500I-40000J0D01*
G01*
X17439000Y-12001500D02*
G75*
G03*
X17439000Y-12001500I-40000J0D01*
G01*
X17439000Y-12255500D02*
G75*
G03*
X17439000Y-12255500I-40000J0D01*
G01*
X17439000Y-12509500D02*
G75*
G03*
X17439000Y-12509500I-40000J0D01*
G01*
X17439000Y-12763500D02*
G75*
G03*
X17439000Y-12763500I-40000J0D01*
G01*
X17439000Y-13017500D02*
G75*
G03*
X17439000Y-13017500I-40000J0D01*
G01*
X17439000Y-13271500D02*
G75*
G03*
X17439000Y-13271500I-40000J0D01*
G01*
X17439000Y-13525500D02*
G75*
G03*
X17439000Y-13525500I-40000J0D01*
G01*
X17439000Y-13779500D02*
G75*
G03*
X17439000Y-13779500I-40000J0D01*
G01*
X18772500Y-2603500D02*
G75*
G03*
X18772500Y-2603500I-40000J0D01*
G01*
X18772500Y-2857500D02*
G75*
G03*
X18772500Y-2857500I-40000J0D01*
G01*
X18772500Y-3111500D02*
G75*
G03*
X18772500Y-3111500I-40000J0D01*
G01*
X18772500Y-3365500D02*
G75*
G03*
X18772500Y-3365500I-40000J0D01*
G01*
X18772500Y-3619500D02*
G75*
G03*
X18772500Y-3619500I-40000J0D01*
G01*
X18772500Y-3873500D02*
G75*
G03*
X18772500Y-3873500I-40000J0D01*
G01*
X18772500Y-4127500D02*
G75*
G03*
X18772500Y-4127500I-40000J0D01*
G01*
X18772500Y-4381500D02*
G75*
G03*
X18772500Y-4381500I-40000J0D01*
G01*
X18772500Y-5143500D02*
G75*
G03*
X18772500Y-5143500I-40000J0D01*
G01*
X18772500Y-5397500D02*
G75*
G03*
X18772500Y-5397500I-40000J0D01*
G01*
X18772500Y-5651500D02*
G75*
G03*
X18772500Y-5651500I-40000J0D01*
G01*
X18772500Y-5905500D02*
G75*
G03*
X18772500Y-5905500I-40000J0D01*
G01*
X18772500Y-6159500D02*
G75*
G03*
X18772500Y-6159500I-40000J0D01*
G01*
X18772500Y-6413500D02*
G75*
G03*
X18772500Y-6413500I-40000J0D01*
G01*
X18772500Y-6667500D02*
G75*
G03*
X18772500Y-6667500I-40000J0D01*
G01*
X18772500Y-6921500D02*
G75*
G03*
X18772500Y-6921500I-40000J0D01*
G01*
X18772500Y-7175500D02*
G75*
G03*
X18772500Y-7175500I-40000J0D01*
G01*
X18772500Y-7429500D02*
G75*
G03*
X18772500Y-7429500I-40000J0D01*
G01*
X18772500Y-8318500D02*
G75*
G03*
X18772500Y-8318500I-40000J0D01*
G01*
X18772500Y-8572500D02*
G75*
G03*
X18772500Y-8572500I-40000J0D01*
G01*
X18772500Y-8826500D02*
G75*
G03*
X18772500Y-8826500I-40000J0D01*
G01*
X18772500Y-9080500D02*
G75*
G03*
X18772500Y-9080500I-40000J0D01*
G01*
X18772500Y-9334500D02*
G75*
G03*
X18772500Y-9334500I-40000J0D01*
G01*
X18772500Y-9588500D02*
G75*
G03*
X18772500Y-9588500I-40000J0D01*
G01*
X18772500Y-9842500D02*
G75*
G03*
X18772500Y-9842500I-40000J0D01*
G01*
X18772500Y-10096500D02*
G75*
G03*
X18772500Y-10096500I-40000J0D01*
G01*
X18772500Y-11493500D02*
G75*
G03*
X18772500Y-11493500I-40000J0D01*
G01*
X18772500Y-11747500D02*
G75*
G03*
X18772500Y-11747500I-40000J0D01*
G01*
X18772500Y-12001500D02*
G75*
G03*
X18772500Y-12001500I-40000J0D01*
G01*
X18772500Y-12255500D02*
G75*
G03*
X18772500Y-12255500I-40000J0D01*
G01*
X18772500Y-12509500D02*
G75*
G03*
X18772500Y-12509500I-40000J0D01*
G01*
X18772500Y-12763500D02*
G75*
G03*
X18772500Y-12763500I-40000J0D01*
G01*
X18772500Y-13017500D02*
G75*
G03*
X18772500Y-13017500I-40000J0D01*
G01*
X18772500Y-13271500D02*
G75*
G03*
X18772500Y-13271500I-40000J0D01*
G01*
X18772500Y-13525500D02*
G75*
G03*
X18772500Y-13525500I-40000J0D01*
G01*
X18772500Y-13779500D02*
G75*
G03*
X18772500Y-13779500I-40000J0D01*
G01*
X18899500Y-2286000D02*
G75*
G03*
X18899500Y-2286000I-40000J0D01*
G01*
X18899500Y-8001000D02*
G75*
G03*
X18899500Y-8001000I-40000J0D01*
G01*
X18903500Y-4826000D02*
G75*
G03*
X18903500Y-4826000I-40000J0D01*
G01*
X18903500Y-11176000D02*
G75*
G03*
X18903500Y-11176000I-40000J0D01*
G01*
X19399500Y-2286000D02*
G75*
G03*
X19399500Y-2286000I-40000J0D01*
G01*
X19399500Y-8001000D02*
G75*
G03*
X19399500Y-8001000I-40000J0D01*
G01*
X19403500Y-4826000D02*
G75*
G03*
X19403500Y-4826000I-40000J0D01*
G01*
X19403500Y-11176000D02*
G75*
G03*
X19403500Y-11176000I-40000J0D01*
G01*
X19534500Y-2603500D02*
G75*
G03*
X19534500Y-2603500I-40000J0D01*
G01*
X19534500Y-2857500D02*
G75*
G03*
X19534500Y-2857500I-40000J0D01*
G01*
X19534500Y-3111500D02*
G75*
G03*
X19534500Y-3111500I-40000J0D01*
G01*
X19534500Y-3365500D02*
G75*
G03*
X19534500Y-3365500I-40000J0D01*
G01*
X19534500Y-3619500D02*
G75*
G03*
X19534500Y-3619500I-40000J0D01*
G01*
X19534500Y-3873500D02*
G75*
G03*
X19534500Y-3873500I-40000J0D01*
G01*
X19534500Y-4127500D02*
G75*
G03*
X19534500Y-4127500I-40000J0D01*
G01*
X19534500Y-4381500D02*
G75*
G03*
X19534500Y-4381500I-40000J0D01*
G01*
X19534500Y-5143500D02*
G75*
G03*
X19534500Y-5143500I-40000J0D01*
G01*
X19534500Y-5397500D02*
G75*
G03*
X19534500Y-5397500I-40000J0D01*
G01*
X19534500Y-5651500D02*
G75*
G03*
X19534500Y-5651500I-40000J0D01*
G01*
X19534500Y-5905500D02*
G75*
G03*
X19534500Y-5905500I-40000J0D01*
G01*
X19534500Y-6159500D02*
G75*
G03*
X19534500Y-6159500I-40000J0D01*
G01*
X19534500Y-6413500D02*
G75*
G03*
X19534500Y-6413500I-40000J0D01*
G01*
X19534500Y-6667500D02*
G75*
G03*
X19534500Y-6667500I-40000J0D01*
G01*
X19534500Y-6921500D02*
G75*
G03*
X19534500Y-6921500I-40000J0D01*
G01*
X19534500Y-7175500D02*
G75*
G03*
X19534500Y-7175500I-40000J0D01*
G01*
X19534500Y-7429500D02*
G75*
G03*
X19534500Y-7429500I-40000J0D01*
G01*
X19534500Y-8318500D02*
G75*
G03*
X19534500Y-8318500I-40000J0D01*
G01*
X19534500Y-8572500D02*
G75*
G03*
X19534500Y-8572500I-40000J0D01*
G01*
X19534500Y-8826500D02*
G75*
G03*
X19534500Y-8826500I-40000J0D01*
G01*
X19534500Y-9080500D02*
G75*
G03*
X19534500Y-9080500I-40000J0D01*
G01*
X19534500Y-9334500D02*
G75*
G03*
X19534500Y-9334500I-40000J0D01*
G01*
X19534500Y-9588500D02*
G75*
G03*
X19534500Y-9588500I-40000J0D01*
G01*
X19534500Y-9842500D02*
G75*
G03*
X19534500Y-9842500I-40000J0D01*
G01*
X19534500Y-10096500D02*
G75*
G03*
X19534500Y-10096500I-40000J0D01*
G01*
X19534500Y-11493500D02*
G75*
G03*
X19534500Y-11493500I-40000J0D01*
G01*
X19534500Y-11747500D02*
G75*
G03*
X19534500Y-11747500I-40000J0D01*
G01*
X19534500Y-12001500D02*
G75*
G03*
X19534500Y-12001500I-40000J0D01*
G01*
X19534500Y-12255500D02*
G75*
G03*
X19534500Y-12255500I-40000J0D01*
G01*
X19534500Y-12509500D02*
G75*
G03*
X19534500Y-12509500I-40000J0D01*
G01*
X19534500Y-12763500D02*
G75*
G03*
X19534500Y-12763500I-40000J0D01*
G01*
X19534500Y-13017500D02*
G75*
G03*
X19534500Y-13017500I-40000J0D01*
G01*
X19534500Y-13271500D02*
G75*
G03*
X19534500Y-13271500I-40000J0D01*
G01*
X19534500Y-13525500D02*
G75*
G03*
X19534500Y-13525500I-40000J0D01*
G01*
X19534500Y-13779500D02*
G75*
G03*
X19534500Y-13779500I-40000J0D01*
G01*
X19915500Y-3365500D02*
G75*
G03*
X19915500Y-3365500I-40000J0D01*
G01*
X19915500Y-4127500D02*
G75*
G03*
X19915500Y-4127500I-40000J0D01*
G01*
X20868000Y-2603500D02*
G75*
G03*
X20868000Y-2603500I-40000J0D01*
G01*
X20868000Y-2857500D02*
G75*
G03*
X20868000Y-2857500I-40000J0D01*
G01*
X20868000Y-3111500D02*
G75*
G03*
X20868000Y-3111500I-40000J0D01*
G01*
X20868000Y-3365500D02*
G75*
G03*
X20868000Y-3365500I-40000J0D01*
G01*
X20868000Y-3619500D02*
G75*
G03*
X20868000Y-3619500I-40000J0D01*
G01*
X20868000Y-3873500D02*
G75*
G03*
X20868000Y-3873500I-40000J0D01*
G01*
X20868000Y-4127500D02*
G75*
G03*
X20868000Y-4127500I-40000J0D01*
G01*
X20868000Y-4381500D02*
G75*
G03*
X20868000Y-4381500I-40000J0D01*
G01*
X20868000Y-5143500D02*
G75*
G03*
X20868000Y-5143500I-40000J0D01*
G01*
X20868000Y-5397500D02*
G75*
G03*
X20868000Y-5397500I-40000J0D01*
G01*
X20868000Y-5651500D02*
G75*
G03*
X20868000Y-5651500I-40000J0D01*
G01*
X20868000Y-5905500D02*
G75*
G03*
X20868000Y-5905500I-40000J0D01*
G01*
X20868000Y-6159500D02*
G75*
G03*
X20868000Y-6159500I-40000J0D01*
G01*
X20868000Y-6413500D02*
G75*
G03*
X20868000Y-6413500I-40000J0D01*
G01*
X20868000Y-6667500D02*
G75*
G03*
X20868000Y-6667500I-40000J0D01*
G01*
X20868000Y-6921500D02*
G75*
G03*
X20868000Y-6921500I-40000J0D01*
G01*
X20868000Y-7175500D02*
G75*
G03*
X20868000Y-7175500I-40000J0D01*
G01*
X20868000Y-7429500D02*
G75*
G03*
X20868000Y-7429500I-40000J0D01*
G01*
X20868000Y-8318500D02*
G75*
G03*
X20868000Y-8318500I-40000J0D01*
G01*
X20868000Y-8572500D02*
G75*
G03*
X20868000Y-8572500I-40000J0D01*
G01*
X20868000Y-8826500D02*
G75*
G03*
X20868000Y-8826500I-40000J0D01*
G01*
X20868000Y-9080500D02*
G75*
G03*
X20868000Y-9080500I-40000J0D01*
G01*
X20868000Y-9334500D02*
G75*
G03*
X20868000Y-9334500I-40000J0D01*
G01*
X20868000Y-9588500D02*
G75*
G03*
X20868000Y-9588500I-40000J0D01*
G01*
X20868000Y-9842500D02*
G75*
G03*
X20868000Y-9842500I-40000J0D01*
G01*
X20868000Y-10096500D02*
G75*
G03*
X20868000Y-10096500I-40000J0D01*
G01*
X20868000Y-11493500D02*
G75*
G03*
X20868000Y-11493500I-40000J0D01*
G01*
X20868000Y-11747500D02*
G75*
G03*
X20868000Y-11747500I-40000J0D01*
G01*
X20868000Y-12001500D02*
G75*
G03*
X20868000Y-12001500I-40000J0D01*
G01*
X20868000Y-12255500D02*
G75*
G03*
X20868000Y-12255500I-40000J0D01*
G01*
X20868000Y-12509500D02*
G75*
G03*
X20868000Y-12509500I-40000J0D01*
G01*
X20868000Y-12763500D02*
G75*
G03*
X20868000Y-12763500I-40000J0D01*
G01*
X20868000Y-13017500D02*
G75*
G03*
X20868000Y-13017500I-40000J0D01*
G01*
X20868000Y-13271500D02*
G75*
G03*
X20868000Y-13271500I-40000J0D01*
G01*
X20868000Y-13525500D02*
G75*
G03*
X20868000Y-13525500I-40000J0D01*
G01*
X20868000Y-13779500D02*
G75*
G03*
X20868000Y-13779500I-40000J0D01*
G01*
X20995000Y-2286000D02*
G75*
G03*
X20995000Y-2286000I-40000J0D01*
G01*
X20995000Y-11176000D02*
G75*
G03*
X20995000Y-11176000I-40000J0D01*
G01*
X20999000Y-4826000D02*
G75*
G03*
X20999000Y-4826000I-40000J0D01*
G01*
X21003000Y-8001000D02*
G75*
G03*
X21003000Y-8001000I-40000J0D01*
G01*
X21495000Y-2286000D02*
G75*
G03*
X21495000Y-2286000I-40000J0D01*
G01*
X21495000Y-11176000D02*
G75*
G03*
X21495000Y-11176000I-40000J0D01*
G01*
X21499000Y-4826000D02*
G75*
G03*
X21499000Y-4826000I-40000J0D01*
G01*
X21503000Y-8001000D02*
G75*
G03*
X21503000Y-8001000I-40000J0D01*
G01*
X21630000Y-2603500D02*
G75*
G03*
X21630000Y-2603500I-40000J0D01*
G01*
X21630000Y-2857500D02*
G75*
G03*
X21630000Y-2857500I-40000J0D01*
G01*
X21630000Y-3111500D02*
G75*
G03*
X21630000Y-3111500I-40000J0D01*
G01*
X21630000Y-3365500D02*
G75*
G03*
X21630000Y-3365500I-40000J0D01*
G01*
X21630000Y-3619500D02*
G75*
G03*
X21630000Y-3619500I-40000J0D01*
G01*
X21630000Y-3873500D02*
G75*
G03*
X21630000Y-3873500I-40000J0D01*
G01*
X21630000Y-4127500D02*
G75*
G03*
X21630000Y-4127500I-40000J0D01*
G01*
X21630000Y-4381500D02*
G75*
G03*
X21630000Y-4381500I-40000J0D01*
G01*
X21630000Y-5143500D02*
G75*
G03*
X21630000Y-5143500I-40000J0D01*
G01*
X21630000Y-5397500D02*
G75*
G03*
X21630000Y-5397500I-40000J0D01*
G01*
X21630000Y-5651500D02*
G75*
G03*
X21630000Y-5651500I-40000J0D01*
G01*
X21630000Y-5905500D02*
G75*
G03*
X21630000Y-5905500I-40000J0D01*
G01*
X21630000Y-6159500D02*
G75*
G03*
X21630000Y-6159500I-40000J0D01*
G01*
X21630000Y-6413500D02*
G75*
G03*
X21630000Y-6413500I-40000J0D01*
G01*
X21630000Y-6667500D02*
G75*
G03*
X21630000Y-6667500I-40000J0D01*
G01*
X21630000Y-6921500D02*
G75*
G03*
X21630000Y-6921500I-40000J0D01*
G01*
X21630000Y-7175500D02*
G75*
G03*
X21630000Y-7175500I-40000J0D01*
G01*
X21630000Y-7429500D02*
G75*
G03*
X21630000Y-7429500I-40000J0D01*
G01*
X21630000Y-8318500D02*
G75*
G03*
X21630000Y-8318500I-40000J0D01*
G01*
X21630000Y-8572500D02*
G75*
G03*
X21630000Y-8572500I-40000J0D01*
G01*
X21630000Y-8826500D02*
G75*
G03*
X21630000Y-8826500I-40000J0D01*
G01*
X21630000Y-9080500D02*
G75*
G03*
X21630000Y-9080500I-40000J0D01*
G01*
X21630000Y-9334500D02*
G75*
G03*
X21630000Y-9334500I-40000J0D01*
G01*
X21630000Y-9588500D02*
G75*
G03*
X21630000Y-9588500I-40000J0D01*
G01*
X21630000Y-9842500D02*
G75*
G03*
X21630000Y-9842500I-40000J0D01*
G01*
X21630000Y-10096500D02*
G75*
G03*
X21630000Y-10096500I-40000J0D01*
G01*
X21630000Y-11493500D02*
G75*
G03*
X21630000Y-11493500I-40000J0D01*
G01*
X21630000Y-11747500D02*
G75*
G03*
X21630000Y-11747500I-40000J0D01*
G01*
X21630000Y-12001500D02*
G75*
G03*
X21630000Y-12001500I-40000J0D01*
G01*
X21630000Y-12255500D02*
G75*
G03*
X21630000Y-12255500I-40000J0D01*
G01*
X21630000Y-12509500D02*
G75*
G03*
X21630000Y-12509500I-40000J0D01*
G01*
X21630000Y-12763500D02*
G75*
G03*
X21630000Y-12763500I-40000J0D01*
G01*
X21630000Y-13017500D02*
G75*
G03*
X21630000Y-13017500I-40000J0D01*
G01*
X21630000Y-13271500D02*
G75*
G03*
X21630000Y-13271500I-40000J0D01*
G01*
X21630000Y-13525500D02*
G75*
G03*
X21630000Y-13525500I-40000J0D01*
G01*
X21630000Y-13779500D02*
G75*
G03*
X21630000Y-13779500I-40000J0D01*
G01*
X22963500Y-2603500D02*
G75*
G03*
X22963500Y-2603500I-40000J0D01*
G01*
X22963500Y-2857500D02*
G75*
G03*
X22963500Y-2857500I-40000J0D01*
G01*
X22963500Y-3111500D02*
G75*
G03*
X22963500Y-3111500I-40000J0D01*
G01*
X22963500Y-3365500D02*
G75*
G03*
X22963500Y-3365500I-40000J0D01*
G01*
X22963500Y-3619500D02*
G75*
G03*
X22963500Y-3619500I-40000J0D01*
G01*
X22963500Y-3873500D02*
G75*
G03*
X22963500Y-3873500I-40000J0D01*
G01*
X22963500Y-4127500D02*
G75*
G03*
X22963500Y-4127500I-40000J0D01*
G01*
X22963500Y-5143500D02*
G75*
G03*
X22963500Y-5143500I-40000J0D01*
G01*
X22963500Y-5397500D02*
G75*
G03*
X22963500Y-5397500I-40000J0D01*
G01*
X22963500Y-5651500D02*
G75*
G03*
X22963500Y-5651500I-40000J0D01*
G01*
X22963500Y-5905500D02*
G75*
G03*
X22963500Y-5905500I-40000J0D01*
G01*
X22963500Y-6159500D02*
G75*
G03*
X22963500Y-6159500I-40000J0D01*
G01*
X22963500Y-6413500D02*
G75*
G03*
X22963500Y-6413500I-40000J0D01*
G01*
X22963500Y-6667500D02*
G75*
G03*
X22963500Y-6667500I-40000J0D01*
G01*
X22963500Y-6921500D02*
G75*
G03*
X22963500Y-6921500I-40000J0D01*
G01*
X22963500Y-7175500D02*
G75*
G03*
X22963500Y-7175500I-40000J0D01*
G01*
X22963500Y-7429500D02*
G75*
G03*
X22963500Y-7429500I-40000J0D01*
G01*
X22963500Y-11494000D02*
G75*
G03*
X22963500Y-11494000I-40000J0D01*
G01*
X22963500Y-11748000D02*
G75*
G03*
X22963500Y-11748000I-40000J0D01*
G01*
X22963500Y-12002000D02*
G75*
G03*
X22963500Y-12002000I-40000J0D01*
G01*
X22963500Y-12256000D02*
G75*
G03*
X22963500Y-12256000I-40000J0D01*
G01*
X22963500Y-12510000D02*
G75*
G03*
X22963500Y-12510000I-40000J0D01*
G01*
X22963500Y-12764000D02*
G75*
G03*
X22963500Y-12764000I-40000J0D01*
G01*
X22963500Y-13018000D02*
G75*
G03*
X22963500Y-13018000I-40000J0D01*
G01*
X22963500Y-13272000D02*
G75*
G03*
X22963500Y-13272000I-40000J0D01*
G01*
X22963500Y-13526000D02*
G75*
G03*
X22963500Y-13526000I-40000J0D01*
G01*
X22963500Y-13780000D02*
G75*
G03*
X22963500Y-13780000I-40000J0D01*
G01*
X22964500Y-8320000D02*
G75*
G03*
X22964500Y-8320000I-40000J0D01*
G01*
X22964500Y-8574000D02*
G75*
G03*
X22964500Y-8574000I-40000J0D01*
G01*
X22964500Y-8828000D02*
G75*
G03*
X22964500Y-8828000I-40000J0D01*
G01*
X22964500Y-9082000D02*
G75*
G03*
X22964500Y-9082000I-40000J0D01*
G01*
X22964500Y-9336000D02*
G75*
G03*
X22964500Y-9336000I-40000J0D01*
G01*
X22964500Y-9590000D02*
G75*
G03*
X22964500Y-9590000I-40000J0D01*
G01*
X22964500Y-9844000D02*
G75*
G03*
X22964500Y-9844000I-40000J0D01*
G01*
X22964500Y-10098000D02*
G75*
G03*
X22964500Y-10098000I-40000J0D01*
G01*
X23090500Y-2286000D02*
G75*
G03*
X23090500Y-2286000I-40000J0D01*
G01*
X23090500Y-8001000D02*
G75*
G03*
X23090500Y-8001000I-40000J0D01*
G01*
X23094500Y-4826000D02*
G75*
G03*
X23094500Y-4826000I-40000J0D01*
G01*
X23094500Y-11176000D02*
G75*
G03*
X23094500Y-11176000I-40000J0D01*
G01*
X23590500Y-2286000D02*
G75*
G03*
X23590500Y-2286000I-40000J0D01*
G01*
X23590500Y-8001000D02*
G75*
G03*
X23590500Y-8001000I-40000J0D01*
G01*
X23594500Y-4826000D02*
G75*
G03*
X23594500Y-4826000I-40000J0D01*
G01*
X23594500Y-11176000D02*
G75*
G03*
X23594500Y-11176000I-40000J0D01*
G01*
X23725500Y-2603500D02*
G75*
G03*
X23725500Y-2603500I-40000J0D01*
G01*
X23725500Y-2857500D02*
G75*
G03*
X23725500Y-2857500I-40000J0D01*
G01*
X23725500Y-3111500D02*
G75*
G03*
X23725500Y-3111500I-40000J0D01*
G01*
X23725500Y-3365500D02*
G75*
G03*
X23725500Y-3365500I-40000J0D01*
G01*
X23725500Y-3619500D02*
G75*
G03*
X23725500Y-3619500I-40000J0D01*
G01*
X23725500Y-3873500D02*
G75*
G03*
X23725500Y-3873500I-40000J0D01*
G01*
X23725500Y-4127500D02*
G75*
G03*
X23725500Y-4127500I-40000J0D01*
G01*
X23725500Y-5143500D02*
G75*
G03*
X23725500Y-5143500I-40000J0D01*
G01*
X23725500Y-5397500D02*
G75*
G03*
X23725500Y-5397500I-40000J0D01*
G01*
X23725500Y-5651500D02*
G75*
G03*
X23725500Y-5651500I-40000J0D01*
G01*
X23725500Y-5905500D02*
G75*
G03*
X23725500Y-5905500I-40000J0D01*
G01*
X23725500Y-6159500D02*
G75*
G03*
X23725500Y-6159500I-40000J0D01*
G01*
X23725500Y-6413500D02*
G75*
G03*
X23725500Y-6413500I-40000J0D01*
G01*
X23725500Y-6667500D02*
G75*
G03*
X23725500Y-6667500I-40000J0D01*
G01*
X23725500Y-6921500D02*
G75*
G03*
X23725500Y-6921500I-40000J0D01*
G01*
X23725500Y-7175500D02*
G75*
G03*
X23725500Y-7175500I-40000J0D01*
G01*
X23725500Y-7429500D02*
G75*
G03*
X23725500Y-7429500I-40000J0D01*
G01*
X23725500Y-11494000D02*
G75*
G03*
X23725500Y-11494000I-40000J0D01*
G01*
X23725500Y-11748000D02*
G75*
G03*
X23725500Y-11748000I-40000J0D01*
G01*
X23725500Y-12002000D02*
G75*
G03*
X23725500Y-12002000I-40000J0D01*
G01*
X23725500Y-12256000D02*
G75*
G03*
X23725500Y-12256000I-40000J0D01*
G01*
X23725500Y-12510000D02*
G75*
G03*
X23725500Y-12510000I-40000J0D01*
G01*
X23725500Y-12764000D02*
G75*
G03*
X23725500Y-12764000I-40000J0D01*
G01*
X23725500Y-13018000D02*
G75*
G03*
X23725500Y-13018000I-40000J0D01*
G01*
X23725500Y-13272000D02*
G75*
G03*
X23725500Y-13272000I-40000J0D01*
G01*
X23725500Y-13526000D02*
G75*
G03*
X23725500Y-13526000I-40000J0D01*
G01*
X23725500Y-13780000D02*
G75*
G03*
X23725500Y-13780000I-40000J0D01*
G01*
X23726500Y-8320000D02*
G75*
G03*
X23726500Y-8320000I-40000J0D01*
G01*
X23726500Y-8574000D02*
G75*
G03*
X23726500Y-8574000I-40000J0D01*
G01*
X23726500Y-8828000D02*
G75*
G03*
X23726500Y-8828000I-40000J0D01*
G01*
X23726500Y-9082000D02*
G75*
G03*
X23726500Y-9082000I-40000J0D01*
G01*
X23726500Y-9336000D02*
G75*
G03*
X23726500Y-9336000I-40000J0D01*
G01*
X23726500Y-9590000D02*
G75*
G03*
X23726500Y-9590000I-40000J0D01*
G01*
X23726500Y-9844000D02*
G75*
G03*
X23726500Y-9844000I-40000J0D01*
G01*
X23726500Y-10098000D02*
G75*
G03*
X23726500Y-10098000I-40000J0D01*
G01*
D10*
X4762500Y-14682000D02*
X4762500Y-14782000D01*
X4712500Y-14732000D02*
X4812500Y-14732000D01*
X4762500Y-14936000D02*
X4762500Y-15036000D01*
X4712500Y-14986000D02*
X4812500Y-14986000D01*
X5016500Y-14682000D02*
X5016500Y-14782000D01*
X4966500Y-14732000D02*
X5066500Y-14732000D01*
X5016500Y-14936000D02*
X5016500Y-15036000D01*
X4966500Y-14986000D02*
X5066500Y-14986000D01*
X5270500Y-14682000D02*
X5270500Y-14782000D01*
X5220500Y-14732000D02*
X5320500Y-14732000D01*
X5270500Y-14936000D02*
X5270500Y-15036000D01*
X5220500Y-14986000D02*
X5320500Y-14986000D01*
X5524500Y-14682000D02*
X5524500Y-14782000D01*
X5474500Y-14732000D02*
X5574500Y-14732000D01*
X5524500Y-14936000D02*
X5524500Y-15036000D01*
X5474500Y-14986000D02*
X5574500Y-14986000D01*
X5778500Y-14682000D02*
X5778500Y-14782000D01*
X5728500Y-14732000D02*
X5828500Y-14732000D01*
X5778500Y-14936000D02*
X5778500Y-15036000D01*
X5728500Y-14986000D02*
X5828500Y-14986000D01*
X6032500Y-14682000D02*
X6032500Y-14782000D01*
X5982500Y-14732000D02*
X6082500Y-14732000D01*
X6032500Y-14936000D02*
X6032500Y-15036000D01*
X5982500Y-14986000D02*
X6082500Y-14986000D01*
X6286500Y-14682000D02*
X6286500Y-14782000D01*
X6236500Y-14732000D02*
X6336500Y-14732000D01*
X6286500Y-14936000D02*
X6286500Y-15036000D01*
X6236500Y-14986000D02*
X6336500Y-14986000D01*
X6540500Y-14682000D02*
X6540500Y-14782000D01*
X6490500Y-14732000D02*
X6590500Y-14732000D01*
X6540500Y-14936000D02*
X6540500Y-15036000D01*
X6490500Y-14986000D02*
X6590500Y-14986000D01*
X6794500Y-14682000D02*
X6794500Y-14782000D01*
X6744500Y-14732000D02*
X6844500Y-14732000D01*
X6794500Y-14936000D02*
X6794500Y-15036000D01*
X6744500Y-14986000D02*
X6844500Y-14986000D01*
X7048500Y-14682000D02*
X7048500Y-14782000D01*
X6998500Y-14732000D02*
X7098500Y-14732000D01*
X7048500Y-14936000D02*
X7048500Y-15036000D01*
X6998500Y-14986000D02*
X7098500Y-14986000D01*
X7302500Y-14682000D02*
X7302500Y-14782000D01*
X7252500Y-14732000D02*
X7352500Y-14732000D01*
X7302500Y-14936000D02*
X7302500Y-15036000D01*
X7252500Y-14986000D02*
X7352500Y-14986000D01*
X7556500Y-14682000D02*
X7556500Y-14782000D01*
X7506500Y-14732000D02*
X7606500Y-14732000D01*
X7556500Y-14936000D02*
X7556500Y-15036000D01*
X7506500Y-14986000D02*
X7606500Y-14986000D01*
X7810500Y-14682000D02*
X7810500Y-14782000D01*
X7760500Y-14732000D02*
X7860500Y-14732000D01*
X7810500Y-14936000D02*
X7810500Y-15036000D01*
X7760500Y-14986000D02*
X7860500Y-14986000D01*
X8064500Y-14682000D02*
X8064500Y-14782000D01*
X8014500Y-14732000D02*
X8114500Y-14732000D01*
X8064500Y-14936000D02*
X8064500Y-15036000D01*
X8014500Y-14986000D02*
X8114500Y-14986000D01*
X8318500Y-14682000D02*
X8318500Y-14782000D01*
X8268500Y-14732000D02*
X8368500Y-14732000D01*
X8318500Y-14936000D02*
X8318500Y-15036000D01*
X8268500Y-14986000D02*
X8368500Y-14986000D01*
X8572500Y-14682000D02*
X8572500Y-14782000D01*
X8522500Y-14732000D02*
X8622500Y-14732000D01*
X8572500Y-14936000D02*
X8572500Y-15036000D01*
X8522500Y-14986000D02*
X8622500Y-14986000D01*
X8826500Y-14682000D02*
X8826500Y-14782000D01*
X8776500Y-14732000D02*
X8876500Y-14732000D01*
X8826500Y-14936000D02*
X8826500Y-15036000D01*
X8776500Y-14986000D02*
X8876500Y-14986000D01*
X9080500Y-14682000D02*
X9080500Y-14782000D01*
X9030500Y-14732000D02*
X9130500Y-14732000D01*
X9080500Y-14936000D02*
X9080500Y-15036000D01*
X9030500Y-14986000D02*
X9130500Y-14986000D01*
X9334500Y-14682000D02*
X9334500Y-14782000D01*
X9284500Y-14732000D02*
X9384500Y-14732000D01*
X9334500Y-14936000D02*
X9334500Y-15036000D01*
X9284500Y-14986000D02*
X9384500Y-14986000D01*
X9588500Y-14682000D02*
X9588500Y-14782000D01*
X9538500Y-14732000D02*
X9638500Y-14732000D01*
X9588500Y-14936000D02*
X9588500Y-15036000D01*
X9538500Y-14986000D02*
X9638500Y-14986000D01*
X9842500Y-14682000D02*
X9842500Y-14782000D01*
X9792500Y-14732000D02*
X9892500Y-14732000D01*
X9842500Y-14936000D02*
X9842500Y-15036000D01*
X9792500Y-14986000D02*
X9892500Y-14986000D01*
X10096500Y-14682000D02*
X10096500Y-14782000D01*
X10046500Y-14732000D02*
X10146500Y-14732000D01*
X10096500Y-14936000D02*
X10096500Y-15036000D01*
X10046500Y-14986000D02*
X10146500Y-14986000D01*
X10350500Y-14682000D02*
X10350500Y-14782000D01*
X10300500Y-14732000D02*
X10400500Y-14732000D01*
X10350500Y-14936000D02*
X10350500Y-15036000D01*
X10300500Y-14986000D02*
X10400500Y-14986000D01*
X10604500Y-14682000D02*
X10604500Y-14782000D01*
X10554500Y-14732000D02*
X10654500Y-14732000D01*
X10604500Y-14936000D02*
X10604500Y-15036000D01*
X10554500Y-14986000D02*
X10654500Y-14986000D01*
X10858500Y-14682000D02*
X10858500Y-14782000D01*
X10808500Y-14732000D02*
X10908500Y-14732000D01*
X10858500Y-14936000D02*
X10858500Y-15036000D01*
X10808500Y-14986000D02*
X10908500Y-14986000D01*
X11112500Y-14682000D02*
X11112500Y-14782000D01*
X11062500Y-14732000D02*
X11162500Y-14732000D01*
X11112500Y-14936000D02*
X11112500Y-15036000D01*
X11062500Y-14986000D02*
X11162500Y-14986000D01*
X11366500Y-14682000D02*
X11366500Y-14782000D01*
X11316500Y-14732000D02*
X11416500Y-14732000D01*
X11366500Y-14936000D02*
X11366500Y-15036000D01*
X11316500Y-14986000D02*
X11416500Y-14986000D01*
X11620500Y-14682000D02*
X11620500Y-14782000D01*
X11570500Y-14732000D02*
X11670500Y-14732000D01*
X11620500Y-14936000D02*
X11620500Y-15036000D01*
X11570500Y-14986000D02*
X11670500Y-14986000D01*
X11874500Y-14682000D02*
X11874500Y-14782000D01*
X11824500Y-14732000D02*
X11924500Y-14732000D01*
X11874500Y-14936000D02*
X11874500Y-15036000D01*
X11824500Y-14986000D02*
X11924500Y-14986000D01*
X12128500Y-14682000D02*
X12128500Y-14782000D01*
X12078500Y-14732000D02*
X12178500Y-14732000D01*
X12128500Y-14936000D02*
X12128500Y-15036000D01*
X12078500Y-14986000D02*
X12178500Y-14986000D01*
X12382500Y-14682000D02*
X12382500Y-14782000D01*
X12332500Y-14732000D02*
X12432500Y-14732000D01*
X12382500Y-14936000D02*
X12382500Y-15036000D01*
X12332500Y-14986000D02*
X12432500Y-14986000D01*
X12636500Y-14682000D02*
X12636500Y-14782000D01*
X12586500Y-14732000D02*
X12686500Y-14732000D01*
X12636500Y-14936000D02*
X12636500Y-15036000D01*
X12586500Y-14986000D02*
X12686500Y-14986000D01*
X15113000Y-14682000D02*
X15113000Y-14782000D01*
X15063000Y-14732000D02*
X15163000Y-14732000D01*
X15113000Y-14936000D02*
X15113000Y-15036000D01*
X15063000Y-14986000D02*
X15163000Y-14986000D01*
X15367000Y-14682000D02*
X15367000Y-14782000D01*
X15317000Y-14732000D02*
X15417000Y-14732000D01*
X15367000Y-14936000D02*
X15367000Y-15036000D01*
X15317000Y-14986000D02*
X15417000Y-14986000D01*
X15621000Y-14682000D02*
X15621000Y-14782000D01*
X15571000Y-14732000D02*
X15671000Y-14732000D01*
X15621000Y-14936000D02*
X15621000Y-15036000D01*
X15571000Y-14986000D02*
X15671000Y-14986000D01*
X15875000Y-14682000D02*
X15875000Y-14782000D01*
X15825000Y-14732000D02*
X15925000Y-14732000D01*
X15875000Y-14936000D02*
X15875000Y-15036000D01*
X15825000Y-14986000D02*
X15925000Y-14986000D01*
X16129000Y-14682000D02*
X16129000Y-14782000D01*
X16079000Y-14732000D02*
X16179000Y-14732000D01*
X16129000Y-14936000D02*
X16129000Y-15036000D01*
X16079000Y-14986000D02*
X16179000Y-14986000D01*
X16383000Y-14682000D02*
X16383000Y-14782000D01*
X16333000Y-14732000D02*
X16433000Y-14732000D01*
X16383000Y-14936000D02*
X16383000Y-15036000D01*
X16333000Y-14986000D02*
X16433000Y-14986000D01*
X16637000Y-14682000D02*
X16637000Y-14782000D01*
X16587000Y-14732000D02*
X16687000Y-14732000D01*
X16637000Y-14936000D02*
X16637000Y-15036000D01*
X16587000Y-14986000D02*
X16687000Y-14986000D01*
X16891000Y-14682000D02*
X16891000Y-14782000D01*
X16841000Y-14732000D02*
X16941000Y-14732000D01*
X16891000Y-14936000D02*
X16891000Y-15036000D01*
X16841000Y-14986000D02*
X16941000Y-14986000D01*
X17145000Y-14682000D02*
X17145000Y-14782000D01*
X17095000Y-14732000D02*
X17195000Y-14732000D01*
X17145000Y-14936000D02*
X17145000Y-15036000D01*
X17095000Y-14986000D02*
X17195000Y-14986000D01*
X17399000Y-14682000D02*
X17399000Y-14782000D01*
X17349000Y-14732000D02*
X17449000Y-14732000D01*
X17399000Y-14936000D02*
X17399000Y-15036000D01*
X17349000Y-14986000D02*
X17449000Y-14986000D01*
X17653000Y-14682000D02*
X17653000Y-14782000D01*
X17603000Y-14732000D02*
X17703000Y-14732000D01*
X17653000Y-14936000D02*
X17653000Y-15036000D01*
X17603000Y-14986000D02*
X17703000Y-14986000D01*
X17907000Y-14682000D02*
X17907000Y-14782000D01*
X17857000Y-14732000D02*
X17957000Y-14732000D01*
X17907000Y-14936000D02*
X17907000Y-15036000D01*
X17857000Y-14986000D02*
X17957000Y-14986000D01*
X18161000Y-14682000D02*
X18161000Y-14782000D01*
X18111000Y-14732000D02*
X18211000Y-14732000D01*
X18161000Y-14936000D02*
X18161000Y-15036000D01*
X18111000Y-14986000D02*
X18211000Y-14986000D01*
X18415000Y-14682000D02*
X18415000Y-14782000D01*
X18365000Y-14732000D02*
X18465000Y-14732000D01*
X18415000Y-14936000D02*
X18415000Y-15036000D01*
X18365000Y-14986000D02*
X18465000Y-14986000D01*
X18669000Y-14682000D02*
X18669000Y-14782000D01*
X18619000Y-14732000D02*
X18719000Y-14732000D01*
X18669000Y-14936000D02*
X18669000Y-15036000D01*
X18619000Y-14986000D02*
X18719000Y-14986000D01*
X18923000Y-14682000D02*
X18923000Y-14782000D01*
X18873000Y-14732000D02*
X18973000Y-14732000D01*
X18923000Y-14936000D02*
X18923000Y-15036000D01*
X18873000Y-14986000D02*
X18973000Y-14986000D01*
X19177000Y-14682000D02*
X19177000Y-14782000D01*
X19127000Y-14732000D02*
X19227000Y-14732000D01*
X19177000Y-14936000D02*
X19177000Y-15036000D01*
X19127000Y-14986000D02*
X19227000Y-14986000D01*
X19431000Y-14682000D02*
X19431000Y-14782000D01*
X19381000Y-14732000D02*
X19481000Y-14732000D01*
X19431000Y-14936000D02*
X19431000Y-15036000D01*
X19381000Y-14986000D02*
X19481000Y-14986000D01*
X19685000Y-14682000D02*
X19685000Y-14782000D01*
X19635000Y-14732000D02*
X19735000Y-14732000D01*
X19685000Y-14936000D02*
X19685000Y-15036000D01*
X19635000Y-14986000D02*
X19735000Y-14986000D01*
X19939000Y-14682000D02*
X19939000Y-14782000D01*
X19889000Y-14732000D02*
X19989000Y-14732000D01*
X19939000Y-14936000D02*
X19939000Y-15036000D01*
X19889000Y-14986000D02*
X19989000Y-14986000D01*
X20193000Y-14682000D02*
X20193000Y-14782000D01*
X20143000Y-14732000D02*
X20243000Y-14732000D01*
X20193000Y-14936000D02*
X20193000Y-15036000D01*
X20143000Y-14986000D02*
X20243000Y-14986000D01*
X20447000Y-14682000D02*
X20447000Y-14782000D01*
X20397000Y-14732000D02*
X20497000Y-14732000D01*
X20447000Y-14936000D02*
X20447000Y-15036000D01*
X20397000Y-14986000D02*
X20497000Y-14986000D01*
X20701000Y-14682000D02*
X20701000Y-14782000D01*
X20651000Y-14732000D02*
X20751000Y-14732000D01*
X20701000Y-14936000D02*
X20701000Y-15036000D01*
X20651000Y-14986000D02*
X20751000Y-14986000D01*
X20955000Y-14682000D02*
X20955000Y-14782000D01*
X20905000Y-14732000D02*
X21005000Y-14732000D01*
X20955000Y-14936000D02*
X20955000Y-15036000D01*
X20905000Y-14986000D02*
X21005000Y-14986000D01*
X21209000Y-14682000D02*
X21209000Y-14782000D01*
X21159000Y-14732000D02*
X21259000Y-14732000D01*
X21209000Y-14936000D02*
X21209000Y-15036000D01*
X21159000Y-14986000D02*
X21259000Y-14986000D01*
X21463000Y-14682000D02*
X21463000Y-14782000D01*
X21413000Y-14732000D02*
X21513000Y-14732000D01*
X21463000Y-14936000D02*
X21463000Y-15036000D01*
X21413000Y-14986000D02*
X21513000Y-14986000D01*
X21717000Y-14682000D02*
X21717000Y-14782000D01*
X21667000Y-14732000D02*
X21767000Y-14732000D01*
X21717000Y-14936000D02*
X21717000Y-15036000D01*
X21667000Y-14986000D02*
X21767000Y-14986000D01*
X21971000Y-14682000D02*
X21971000Y-14782000D01*
X21921000Y-14732000D02*
X22021000Y-14732000D01*
X21971000Y-14936000D02*
X21971000Y-15036000D01*
X21921000Y-14986000D02*
X22021000Y-14986000D01*
X22225000Y-14682000D02*
X22225000Y-14782000D01*
X22175000Y-14732000D02*
X22275000Y-14732000D01*
X22225000Y-14936000D02*
X22225000Y-15036000D01*
X22175000Y-14986000D02*
X22275000Y-14986000D01*
X22479000Y-14682000D02*
X22479000Y-14782000D01*
X22429000Y-14732000D02*
X22529000Y-14732000D01*
X22479000Y-14936000D02*
X22479000Y-15036000D01*
X22429000Y-14986000D02*
X22529000Y-14986000D01*
X22733000Y-14682000D02*
X22733000Y-14782000D01*
X22683000Y-14732000D02*
X22783000Y-14732000D01*
X22733000Y-14936000D02*
X22733000Y-15036000D01*
X22683000Y-14986000D02*
X22783000Y-14986000D01*
X22987000Y-14682000D02*
X22987000Y-14782000D01*
X22937000Y-14732000D02*
X23037000Y-14732000D01*
X22987000Y-14936000D02*
X22987000Y-15036000D01*
X22937000Y-14986000D02*
X23037000Y-14986000D01*
D11*
X3811777Y-15848584D02*
X3811777Y-15648584D01*
X3811777Y-15648584D02*
X3859396Y-15648584D01*
X3859396Y-15648584D02*
X3887967Y-15658108D01*
X3887967Y-15658108D02*
X3907015Y-15677155D01*
X3907015Y-15677155D02*
X3916539Y-15696203D01*
X3916539Y-15696203D02*
X3926062Y-15734298D01*
X3926062Y-15734298D02*
X3926062Y-15762869D01*
X3926062Y-15762869D02*
X3916539Y-15800965D01*
X3916539Y-15800965D02*
X3907015Y-15820012D01*
X3907015Y-15820012D02*
X3887967Y-15839060D01*
X3887967Y-15839060D02*
X3859396Y-15848584D01*
X3859396Y-15848584D02*
X3811777Y-15848584D01*
X4011777Y-15848584D02*
X4011777Y-15715250D01*
X4011777Y-15753346D02*
X4021301Y-15734298D01*
X4021301Y-15734298D02*
X4030824Y-15724774D01*
X4030824Y-15724774D02*
X4049872Y-15715250D01*
X4049872Y-15715250D02*
X4068920Y-15715250D01*
X4135586Y-15848584D02*
X4135586Y-15715250D01*
X4135586Y-15648584D02*
X4126062Y-15658108D01*
X4126062Y-15658108D02*
X4135586Y-15667631D01*
X4135586Y-15667631D02*
X4145110Y-15658108D01*
X4145110Y-15658108D02*
X4135586Y-15648584D01*
X4135586Y-15648584D02*
X4135586Y-15667631D01*
X4259396Y-15848584D02*
X4240348Y-15839060D01*
X4240348Y-15839060D02*
X4230824Y-15820012D01*
X4230824Y-15820012D02*
X4230824Y-15648584D01*
X4364158Y-15848584D02*
X4345110Y-15839060D01*
X4345110Y-15839060D02*
X4335586Y-15820012D01*
X4335586Y-15820012D02*
X4335586Y-15648584D01*
X4592729Y-15848584D02*
X4592729Y-15648584D01*
X4592729Y-15648584D02*
X4659396Y-15791441D01*
X4659396Y-15791441D02*
X4726063Y-15648584D01*
X4726063Y-15648584D02*
X4726063Y-15848584D01*
X4907015Y-15848584D02*
X4907015Y-15743822D01*
X4907015Y-15743822D02*
X4897491Y-15724774D01*
X4897491Y-15724774D02*
X4878444Y-15715250D01*
X4878444Y-15715250D02*
X4840348Y-15715250D01*
X4840348Y-15715250D02*
X4821301Y-15724774D01*
X4907015Y-15839060D02*
X4887967Y-15848584D01*
X4887967Y-15848584D02*
X4840348Y-15848584D01*
X4840348Y-15848584D02*
X4821301Y-15839060D01*
X4821301Y-15839060D02*
X4811777Y-15820012D01*
X4811777Y-15820012D02*
X4811777Y-15800965D01*
X4811777Y-15800965D02*
X4821301Y-15781917D01*
X4821301Y-15781917D02*
X4840348Y-15772393D01*
X4840348Y-15772393D02*
X4887967Y-15772393D01*
X4887967Y-15772393D02*
X4907015Y-15762869D01*
X5002253Y-15715250D02*
X5002253Y-15915250D01*
X5002253Y-15724774D02*
X5021301Y-15715250D01*
X5021301Y-15715250D02*
X5059396Y-15715250D01*
X5059396Y-15715250D02*
X5078444Y-15724774D01*
X5078444Y-15724774D02*
X5087967Y-15734298D01*
X5087967Y-15734298D02*
X5097491Y-15753346D01*
X5097491Y-15753346D02*
X5097491Y-15810488D01*
X5097491Y-15810488D02*
X5087967Y-15829536D01*
X5087967Y-15829536D02*
X5078444Y-15839060D01*
X5078444Y-15839060D02*
X5059396Y-15848584D01*
X5059396Y-15848584D02*
X5021301Y-15848584D01*
X5021301Y-15848584D02*
X5002253Y-15839060D01*
X5183205Y-15829536D02*
X5192729Y-15839060D01*
X5192729Y-15839060D02*
X5183205Y-15848584D01*
X5183205Y-15848584D02*
X5173682Y-15839060D01*
X5173682Y-15839060D02*
X5183205Y-15829536D01*
X5183205Y-15829536D02*
X5183205Y-15848584D01*
X5183205Y-15724774D02*
X5192729Y-15734298D01*
X5192729Y-15734298D02*
X5183205Y-15743822D01*
X5183205Y-15743822D02*
X5173682Y-15734298D01*
X5173682Y-15734298D02*
X5183205Y-15724774D01*
X5183205Y-15724774D02*
X5183205Y-15743822D01*
D12*
X3511000Y-16157100D02*
X3551000Y-16197100D01*
X3551000Y-16157100D02*
X3511000Y-16197100D01*
D11*
X3849872Y-16068584D02*
X3868920Y-16068584D01*
X3868920Y-16068584D02*
X3887967Y-16078108D01*
X3887967Y-16078108D02*
X3897491Y-16087631D01*
X3897491Y-16087631D02*
X3907015Y-16106679D01*
X3907015Y-16106679D02*
X3916539Y-16144774D01*
X3916539Y-16144774D02*
X3916539Y-16192393D01*
X3916539Y-16192393D02*
X3907015Y-16230488D01*
X3907015Y-16230488D02*
X3897491Y-16249536D01*
X3897491Y-16249536D02*
X3887967Y-16259060D01*
X3887967Y-16259060D02*
X3868920Y-16268584D01*
X3868920Y-16268584D02*
X3849872Y-16268584D01*
X3849872Y-16268584D02*
X3830824Y-16259060D01*
X3830824Y-16259060D02*
X3821301Y-16249536D01*
X3821301Y-16249536D02*
X3811777Y-16230488D01*
X3811777Y-16230488D02*
X3802253Y-16192393D01*
X3802253Y-16192393D02*
X3802253Y-16144774D01*
X3802253Y-16144774D02*
X3811777Y-16106679D01*
X3811777Y-16106679D02*
X3821301Y-16087631D01*
X3821301Y-16087631D02*
X3830824Y-16078108D01*
X3830824Y-16078108D02*
X3849872Y-16068584D01*
X4002253Y-16249536D02*
X4011777Y-16259060D01*
X4011777Y-16259060D02*
X4002253Y-16268584D01*
X4002253Y-16268584D02*
X3992729Y-16259060D01*
X3992729Y-16259060D02*
X4002253Y-16249536D01*
X4002253Y-16249536D02*
X4002253Y-16268584D01*
X4183205Y-16135250D02*
X4183205Y-16268584D01*
X4135586Y-16059060D02*
X4087967Y-16201917D01*
X4087967Y-16201917D02*
X4211777Y-16201917D01*
X4326063Y-16068584D02*
X4345110Y-16068584D01*
X4345110Y-16068584D02*
X4364158Y-16078108D01*
X4364158Y-16078108D02*
X4373682Y-16087631D01*
X4373682Y-16087631D02*
X4383205Y-16106679D01*
X4383205Y-16106679D02*
X4392729Y-16144774D01*
X4392729Y-16144774D02*
X4392729Y-16192393D01*
X4392729Y-16192393D02*
X4383205Y-16230488D01*
X4383205Y-16230488D02*
X4373682Y-16249536D01*
X4373682Y-16249536D02*
X4364158Y-16259060D01*
X4364158Y-16259060D02*
X4345110Y-16268584D01*
X4345110Y-16268584D02*
X4326063Y-16268584D01*
X4326063Y-16268584D02*
X4307015Y-16259060D01*
X4307015Y-16259060D02*
X4297491Y-16249536D01*
X4297491Y-16249536D02*
X4287967Y-16230488D01*
X4287967Y-16230488D02*
X4278444Y-16192393D01*
X4278444Y-16192393D02*
X4278444Y-16144774D01*
X4278444Y-16144774D02*
X4287967Y-16106679D01*
X4287967Y-16106679D02*
X4297491Y-16087631D01*
X4297491Y-16087631D02*
X4307015Y-16078108D01*
X4307015Y-16078108D02*
X4326063Y-16068584D01*
X4516539Y-16068584D02*
X4535586Y-16068584D01*
X4535586Y-16068584D02*
X4554634Y-16078108D01*
X4554634Y-16078108D02*
X4564158Y-16087631D01*
X4564158Y-16087631D02*
X4573682Y-16106679D01*
X4573682Y-16106679D02*
X4583205Y-16144774D01*
X4583205Y-16144774D02*
X4583205Y-16192393D01*
X4583205Y-16192393D02*
X4573682Y-16230488D01*
X4573682Y-16230488D02*
X4564158Y-16249536D01*
X4564158Y-16249536D02*
X4554634Y-16259060D01*
X4554634Y-16259060D02*
X4535586Y-16268584D01*
X4535586Y-16268584D02*
X4516539Y-16268584D01*
X4516539Y-16268584D02*
X4497491Y-16259060D01*
X4497491Y-16259060D02*
X4487967Y-16249536D01*
X4487967Y-16249536D02*
X4478444Y-16230488D01*
X4478444Y-16230488D02*
X4468920Y-16192393D01*
X4468920Y-16192393D02*
X4468920Y-16144774D01*
X4468920Y-16144774D02*
X4478444Y-16106679D01*
X4478444Y-16106679D02*
X4487967Y-16087631D01*
X4487967Y-16087631D02*
X4497491Y-16078108D01*
X4497491Y-16078108D02*
X4516539Y-16068584D01*
X4668920Y-16268584D02*
X4668920Y-16135250D01*
X4668920Y-16154298D02*
X4678444Y-16144774D01*
X4678444Y-16144774D02*
X4697491Y-16135250D01*
X4697491Y-16135250D02*
X4726063Y-16135250D01*
X4726063Y-16135250D02*
X4745110Y-16144774D01*
X4745110Y-16144774D02*
X4754634Y-16163822D01*
X4754634Y-16163822D02*
X4754634Y-16268584D01*
X4754634Y-16163822D02*
X4764158Y-16144774D01*
X4764158Y-16144774D02*
X4783205Y-16135250D01*
X4783205Y-16135250D02*
X4811777Y-16135250D01*
X4811777Y-16135250D02*
X4830825Y-16144774D01*
X4830825Y-16144774D02*
X4840348Y-16163822D01*
X4840348Y-16163822D02*
X4840348Y-16268584D01*
X4935586Y-16268584D02*
X4935586Y-16135250D01*
X4935586Y-16154298D02*
X4945110Y-16144774D01*
X4945110Y-16144774D02*
X4964158Y-16135250D01*
X4964158Y-16135250D02*
X4992729Y-16135250D01*
X4992729Y-16135250D02*
X5011777Y-16144774D01*
X5011777Y-16144774D02*
X5021301Y-16163822D01*
X5021301Y-16163822D02*
X5021301Y-16268584D01*
X5021301Y-16163822D02*
X5030825Y-16144774D01*
X5030825Y-16144774D02*
X5049872Y-16135250D01*
X5049872Y-16135250D02*
X5078444Y-16135250D01*
X5078444Y-16135250D02*
X5097491Y-16144774D01*
X5097491Y-16144774D02*
X5107015Y-16163822D01*
X5107015Y-16163822D02*
X5107015Y-16268584D01*
X5497491Y-16059060D02*
X5326063Y-16316203D01*
X5754634Y-16068584D02*
X5773682Y-16068584D01*
X5773682Y-16068584D02*
X5792729Y-16078108D01*
X5792729Y-16078108D02*
X5802253Y-16087631D01*
X5802253Y-16087631D02*
X5811777Y-16106679D01*
X5811777Y-16106679D02*
X5821301Y-16144774D01*
X5821301Y-16144774D02*
X5821301Y-16192393D01*
X5821301Y-16192393D02*
X5811777Y-16230488D01*
X5811777Y-16230488D02*
X5802253Y-16249536D01*
X5802253Y-16249536D02*
X5792729Y-16259060D01*
X5792729Y-16259060D02*
X5773682Y-16268584D01*
X5773682Y-16268584D02*
X5754634Y-16268584D01*
X5754634Y-16268584D02*
X5735586Y-16259060D01*
X5735586Y-16259060D02*
X5726063Y-16249536D01*
X5726063Y-16249536D02*
X5716539Y-16230488D01*
X5716539Y-16230488D02*
X5707015Y-16192393D01*
X5707015Y-16192393D02*
X5707015Y-16144774D01*
X5707015Y-16144774D02*
X5716539Y-16106679D01*
X5716539Y-16106679D02*
X5726063Y-16087631D01*
X5726063Y-16087631D02*
X5735586Y-16078108D01*
X5735586Y-16078108D02*
X5754634Y-16068584D01*
X5907015Y-16249536D02*
X5916539Y-16259060D01*
X5916539Y-16259060D02*
X5907015Y-16268584D01*
X5907015Y-16268584D02*
X5897491Y-16259060D01*
X5897491Y-16259060D02*
X5907015Y-16249536D01*
X5907015Y-16249536D02*
X5907015Y-16268584D01*
X6040348Y-16068584D02*
X6059396Y-16068584D01*
X6059396Y-16068584D02*
X6078444Y-16078108D01*
X6078444Y-16078108D02*
X6087967Y-16087631D01*
X6087967Y-16087631D02*
X6097491Y-16106679D01*
X6097491Y-16106679D02*
X6107015Y-16144774D01*
X6107015Y-16144774D02*
X6107015Y-16192393D01*
X6107015Y-16192393D02*
X6097491Y-16230488D01*
X6097491Y-16230488D02*
X6087967Y-16249536D01*
X6087967Y-16249536D02*
X6078444Y-16259060D01*
X6078444Y-16259060D02*
X6059396Y-16268584D01*
X6059396Y-16268584D02*
X6040348Y-16268584D01*
X6040348Y-16268584D02*
X6021301Y-16259060D01*
X6021301Y-16259060D02*
X6011777Y-16249536D01*
X6011777Y-16249536D02*
X6002253Y-16230488D01*
X6002253Y-16230488D02*
X5992729Y-16192393D01*
X5992729Y-16192393D02*
X5992729Y-16144774D01*
X5992729Y-16144774D02*
X6002253Y-16106679D01*
X6002253Y-16106679D02*
X6011777Y-16087631D01*
X6011777Y-16087631D02*
X6021301Y-16078108D01*
X6021301Y-16078108D02*
X6040348Y-16068584D01*
X6297491Y-16268584D02*
X6183206Y-16268584D01*
X6240348Y-16268584D02*
X6240348Y-16068584D01*
X6240348Y-16068584D02*
X6221301Y-16097155D01*
X6221301Y-16097155D02*
X6202253Y-16116203D01*
X6202253Y-16116203D02*
X6183206Y-16125727D01*
X6478444Y-16068584D02*
X6383206Y-16068584D01*
X6383206Y-16068584D02*
X6373682Y-16163822D01*
X6373682Y-16163822D02*
X6383206Y-16154298D01*
X6383206Y-16154298D02*
X6402253Y-16144774D01*
X6402253Y-16144774D02*
X6449872Y-16144774D01*
X6449872Y-16144774D02*
X6468920Y-16154298D01*
X6468920Y-16154298D02*
X6478444Y-16163822D01*
X6478444Y-16163822D02*
X6487967Y-16182869D01*
X6487967Y-16182869D02*
X6487967Y-16230488D01*
X6487967Y-16230488D02*
X6478444Y-16249536D01*
X6478444Y-16249536D02*
X6468920Y-16259060D01*
X6468920Y-16259060D02*
X6449872Y-16268584D01*
X6449872Y-16268584D02*
X6402253Y-16268584D01*
X6402253Y-16268584D02*
X6383206Y-16259060D01*
X6383206Y-16259060D02*
X6373682Y-16249536D01*
X6554634Y-16068584D02*
X6687967Y-16068584D01*
X6687967Y-16068584D02*
X6602253Y-16268584D01*
X6754634Y-16068584D02*
X6754634Y-16106679D01*
X6830825Y-16068584D02*
X6830825Y-16106679D01*
X7126063Y-16344774D02*
X7116539Y-16335250D01*
X7116539Y-16335250D02*
X7097491Y-16306679D01*
X7097491Y-16306679D02*
X7087968Y-16287631D01*
X7087968Y-16287631D02*
X7078444Y-16259060D01*
X7078444Y-16259060D02*
X7068920Y-16211441D01*
X7068920Y-16211441D02*
X7068920Y-16173346D01*
X7068920Y-16173346D02*
X7078444Y-16125727D01*
X7078444Y-16125727D02*
X7087968Y-16097155D01*
X7087968Y-16097155D02*
X7097491Y-16078108D01*
X7097491Y-16078108D02*
X7116539Y-16049536D01*
X7116539Y-16049536D02*
X7126063Y-16040012D01*
X7307015Y-16268584D02*
X7192729Y-16268584D01*
X7249872Y-16268584D02*
X7249872Y-16068584D01*
X7249872Y-16068584D02*
X7230825Y-16097155D01*
X7230825Y-16097155D02*
X7211777Y-16116203D01*
X7211777Y-16116203D02*
X7192729Y-16125727D01*
X7478444Y-16135250D02*
X7478444Y-16268584D01*
X7430825Y-16059060D02*
X7383206Y-16201917D01*
X7383206Y-16201917D02*
X7507015Y-16201917D01*
X7687968Y-16268584D02*
X7573682Y-16268584D01*
X7630825Y-16268584D02*
X7630825Y-16068584D01*
X7630825Y-16068584D02*
X7611777Y-16097155D01*
X7611777Y-16097155D02*
X7592729Y-16116203D01*
X7592729Y-16116203D02*
X7573682Y-16125727D01*
X7926063Y-16268584D02*
X7926063Y-16068584D01*
X8011777Y-16268584D02*
X8011777Y-16163822D01*
X8011777Y-16163822D02*
X8002253Y-16144774D01*
X8002253Y-16144774D02*
X7983206Y-16135250D01*
X7983206Y-16135250D02*
X7954634Y-16135250D01*
X7954634Y-16135250D02*
X7935587Y-16144774D01*
X7935587Y-16144774D02*
X7926063Y-16154298D01*
X8135587Y-16268584D02*
X8116539Y-16259060D01*
X8116539Y-16259060D02*
X8107015Y-16249536D01*
X8107015Y-16249536D02*
X8097491Y-16230488D01*
X8097491Y-16230488D02*
X8097491Y-16173346D01*
X8097491Y-16173346D02*
X8107015Y-16154298D01*
X8107015Y-16154298D02*
X8116539Y-16144774D01*
X8116539Y-16144774D02*
X8135587Y-16135250D01*
X8135587Y-16135250D02*
X8164158Y-16135250D01*
X8164158Y-16135250D02*
X8183206Y-16144774D01*
X8183206Y-16144774D02*
X8192730Y-16154298D01*
X8192730Y-16154298D02*
X8202253Y-16173346D01*
X8202253Y-16173346D02*
X8202253Y-16230488D01*
X8202253Y-16230488D02*
X8192730Y-16249536D01*
X8192730Y-16249536D02*
X8183206Y-16259060D01*
X8183206Y-16259060D02*
X8164158Y-16268584D01*
X8164158Y-16268584D02*
X8135587Y-16268584D01*
X8316539Y-16268584D02*
X8297491Y-16259060D01*
X8297491Y-16259060D02*
X8287968Y-16240012D01*
X8287968Y-16240012D02*
X8287968Y-16068584D01*
X8468920Y-16259060D02*
X8449873Y-16268584D01*
X8449873Y-16268584D02*
X8411777Y-16268584D01*
X8411777Y-16268584D02*
X8392730Y-16259060D01*
X8392730Y-16259060D02*
X8383206Y-16240012D01*
X8383206Y-16240012D02*
X8383206Y-16163822D01*
X8383206Y-16163822D02*
X8392730Y-16144774D01*
X8392730Y-16144774D02*
X8411777Y-16135250D01*
X8411777Y-16135250D02*
X8449873Y-16135250D01*
X8449873Y-16135250D02*
X8468920Y-16144774D01*
X8468920Y-16144774D02*
X8478444Y-16163822D01*
X8478444Y-16163822D02*
X8478444Y-16182869D01*
X8478444Y-16182869D02*
X8383206Y-16201917D01*
X8554634Y-16259060D02*
X8573682Y-16268584D01*
X8573682Y-16268584D02*
X8611777Y-16268584D01*
X8611777Y-16268584D02*
X8630825Y-16259060D01*
X8630825Y-16259060D02*
X8640349Y-16240012D01*
X8640349Y-16240012D02*
X8640349Y-16230488D01*
X8640349Y-16230488D02*
X8630825Y-16211441D01*
X8630825Y-16211441D02*
X8611777Y-16201917D01*
X8611777Y-16201917D02*
X8583206Y-16201917D01*
X8583206Y-16201917D02*
X8564158Y-16192393D01*
X8564158Y-16192393D02*
X8554634Y-16173346D01*
X8554634Y-16173346D02*
X8554634Y-16163822D01*
X8554634Y-16163822D02*
X8564158Y-16144774D01*
X8564158Y-16144774D02*
X8583206Y-16135250D01*
X8583206Y-16135250D02*
X8611777Y-16135250D01*
X8611777Y-16135250D02*
X8630825Y-16144774D01*
X8707015Y-16344774D02*
X8716539Y-16335250D01*
X8716539Y-16335250D02*
X8735587Y-16306679D01*
X8735587Y-16306679D02*
X8745111Y-16287631D01*
X8745111Y-16287631D02*
X8754634Y-16259060D01*
X8754634Y-16259060D02*
X8764158Y-16211441D01*
X8764158Y-16211441D02*
X8764158Y-16173346D01*
X8764158Y-16173346D02*
X8754634Y-16125727D01*
X8754634Y-16125727D02*
X8745111Y-16097155D01*
X8745111Y-16097155D02*
X8735587Y-16078108D01*
X8735587Y-16078108D02*
X8716539Y-16049536D01*
X8716539Y-16049536D02*
X8707015Y-16040012D01*
D13*
X3551000Y-16441100D02*
G75*
G03*
X3551000Y-16441100I-40000J0D01*
G01*
D11*
X3849872Y-16332584D02*
X3868920Y-16332584D01*
X3868920Y-16332584D02*
X3887967Y-16342108D01*
X3887967Y-16342108D02*
X3897491Y-16351631D01*
X3897491Y-16351631D02*
X3907015Y-16370679D01*
X3907015Y-16370679D02*
X3916539Y-16408774D01*
X3916539Y-16408774D02*
X3916539Y-16456393D01*
X3916539Y-16456393D02*
X3907015Y-16494488D01*
X3907015Y-16494488D02*
X3897491Y-16513536D01*
X3897491Y-16513536D02*
X3887967Y-16523060D01*
X3887967Y-16523060D02*
X3868920Y-16532584D01*
X3868920Y-16532584D02*
X3849872Y-16532584D01*
X3849872Y-16532584D02*
X3830824Y-16523060D01*
X3830824Y-16523060D02*
X3821301Y-16513536D01*
X3821301Y-16513536D02*
X3811777Y-16494488D01*
X3811777Y-16494488D02*
X3802253Y-16456393D01*
X3802253Y-16456393D02*
X3802253Y-16408774D01*
X3802253Y-16408774D02*
X3811777Y-16370679D01*
X3811777Y-16370679D02*
X3821301Y-16351631D01*
X3821301Y-16351631D02*
X3830824Y-16342108D01*
X3830824Y-16342108D02*
X3849872Y-16332584D01*
X4002253Y-16513536D02*
X4011777Y-16523060D01*
X4011777Y-16523060D02*
X4002253Y-16532584D01*
X4002253Y-16532584D02*
X3992729Y-16523060D01*
X3992729Y-16523060D02*
X4002253Y-16513536D01*
X4002253Y-16513536D02*
X4002253Y-16532584D01*
X4126062Y-16418298D02*
X4107015Y-16408774D01*
X4107015Y-16408774D02*
X4097491Y-16399250D01*
X4097491Y-16399250D02*
X4087967Y-16380203D01*
X4087967Y-16380203D02*
X4087967Y-16370679D01*
X4087967Y-16370679D02*
X4097491Y-16351631D01*
X4097491Y-16351631D02*
X4107015Y-16342108D01*
X4107015Y-16342108D02*
X4126062Y-16332584D01*
X4126062Y-16332584D02*
X4164158Y-16332584D01*
X4164158Y-16332584D02*
X4183205Y-16342108D01*
X4183205Y-16342108D02*
X4192729Y-16351631D01*
X4192729Y-16351631D02*
X4202253Y-16370679D01*
X4202253Y-16370679D02*
X4202253Y-16380203D01*
X4202253Y-16380203D02*
X4192729Y-16399250D01*
X4192729Y-16399250D02*
X4183205Y-16408774D01*
X4183205Y-16408774D02*
X4164158Y-16418298D01*
X4164158Y-16418298D02*
X4126062Y-16418298D01*
X4126062Y-16418298D02*
X4107015Y-16427822D01*
X4107015Y-16427822D02*
X4097491Y-16437346D01*
X4097491Y-16437346D02*
X4087967Y-16456393D01*
X4087967Y-16456393D02*
X4087967Y-16494488D01*
X4087967Y-16494488D02*
X4097491Y-16513536D01*
X4097491Y-16513536D02*
X4107015Y-16523060D01*
X4107015Y-16523060D02*
X4126062Y-16532584D01*
X4126062Y-16532584D02*
X4164158Y-16532584D01*
X4164158Y-16532584D02*
X4183205Y-16523060D01*
X4183205Y-16523060D02*
X4192729Y-16513536D01*
X4192729Y-16513536D02*
X4202253Y-16494488D01*
X4202253Y-16494488D02*
X4202253Y-16456393D01*
X4202253Y-16456393D02*
X4192729Y-16437346D01*
X4192729Y-16437346D02*
X4183205Y-16427822D01*
X4183205Y-16427822D02*
X4164158Y-16418298D01*
X4326063Y-16332584D02*
X4345110Y-16332584D01*
X4345110Y-16332584D02*
X4364158Y-16342108D01*
X4364158Y-16342108D02*
X4373682Y-16351631D01*
X4373682Y-16351631D02*
X4383205Y-16370679D01*
X4383205Y-16370679D02*
X4392729Y-16408774D01*
X4392729Y-16408774D02*
X4392729Y-16456393D01*
X4392729Y-16456393D02*
X4383205Y-16494488D01*
X4383205Y-16494488D02*
X4373682Y-16513536D01*
X4373682Y-16513536D02*
X4364158Y-16523060D01*
X4364158Y-16523060D02*
X4345110Y-16532584D01*
X4345110Y-16532584D02*
X4326063Y-16532584D01*
X4326063Y-16532584D02*
X4307015Y-16523060D01*
X4307015Y-16523060D02*
X4297491Y-16513536D01*
X4297491Y-16513536D02*
X4287967Y-16494488D01*
X4287967Y-16494488D02*
X4278444Y-16456393D01*
X4278444Y-16456393D02*
X4278444Y-16408774D01*
X4278444Y-16408774D02*
X4287967Y-16370679D01*
X4287967Y-16370679D02*
X4297491Y-16351631D01*
X4297491Y-16351631D02*
X4307015Y-16342108D01*
X4307015Y-16342108D02*
X4326063Y-16332584D01*
X4516539Y-16332584D02*
X4535586Y-16332584D01*
X4535586Y-16332584D02*
X4554634Y-16342108D01*
X4554634Y-16342108D02*
X4564158Y-16351631D01*
X4564158Y-16351631D02*
X4573682Y-16370679D01*
X4573682Y-16370679D02*
X4583205Y-16408774D01*
X4583205Y-16408774D02*
X4583205Y-16456393D01*
X4583205Y-16456393D02*
X4573682Y-16494488D01*
X4573682Y-16494488D02*
X4564158Y-16513536D01*
X4564158Y-16513536D02*
X4554634Y-16523060D01*
X4554634Y-16523060D02*
X4535586Y-16532584D01*
X4535586Y-16532584D02*
X4516539Y-16532584D01*
X4516539Y-16532584D02*
X4497491Y-16523060D01*
X4497491Y-16523060D02*
X4487967Y-16513536D01*
X4487967Y-16513536D02*
X4478444Y-16494488D01*
X4478444Y-16494488D02*
X4468920Y-16456393D01*
X4468920Y-16456393D02*
X4468920Y-16408774D01*
X4468920Y-16408774D02*
X4478444Y-16370679D01*
X4478444Y-16370679D02*
X4487967Y-16351631D01*
X4487967Y-16351631D02*
X4497491Y-16342108D01*
X4497491Y-16342108D02*
X4516539Y-16332584D01*
X4668920Y-16532584D02*
X4668920Y-16399250D01*
X4668920Y-16418298D02*
X4678444Y-16408774D01*
X4678444Y-16408774D02*
X4697491Y-16399250D01*
X4697491Y-16399250D02*
X4726063Y-16399250D01*
X4726063Y-16399250D02*
X4745110Y-16408774D01*
X4745110Y-16408774D02*
X4754634Y-16427822D01*
X4754634Y-16427822D02*
X4754634Y-16532584D01*
X4754634Y-16427822D02*
X4764158Y-16408774D01*
X4764158Y-16408774D02*
X4783205Y-16399250D01*
X4783205Y-16399250D02*
X4811777Y-16399250D01*
X4811777Y-16399250D02*
X4830825Y-16408774D01*
X4830825Y-16408774D02*
X4840348Y-16427822D01*
X4840348Y-16427822D02*
X4840348Y-16532584D01*
X4935586Y-16532584D02*
X4935586Y-16399250D01*
X4935586Y-16418298D02*
X4945110Y-16408774D01*
X4945110Y-16408774D02*
X4964158Y-16399250D01*
X4964158Y-16399250D02*
X4992729Y-16399250D01*
X4992729Y-16399250D02*
X5011777Y-16408774D01*
X5011777Y-16408774D02*
X5021301Y-16427822D01*
X5021301Y-16427822D02*
X5021301Y-16532584D01*
X5021301Y-16427822D02*
X5030825Y-16408774D01*
X5030825Y-16408774D02*
X5049872Y-16399250D01*
X5049872Y-16399250D02*
X5078444Y-16399250D01*
X5078444Y-16399250D02*
X5097491Y-16408774D01*
X5097491Y-16408774D02*
X5107015Y-16427822D01*
X5107015Y-16427822D02*
X5107015Y-16532584D01*
X5497491Y-16323060D02*
X5326063Y-16580203D01*
X5754634Y-16332584D02*
X5773682Y-16332584D01*
X5773682Y-16332584D02*
X5792729Y-16342108D01*
X5792729Y-16342108D02*
X5802253Y-16351631D01*
X5802253Y-16351631D02*
X5811777Y-16370679D01*
X5811777Y-16370679D02*
X5821301Y-16408774D01*
X5821301Y-16408774D02*
X5821301Y-16456393D01*
X5821301Y-16456393D02*
X5811777Y-16494488D01*
X5811777Y-16494488D02*
X5802253Y-16513536D01*
X5802253Y-16513536D02*
X5792729Y-16523060D01*
X5792729Y-16523060D02*
X5773682Y-16532584D01*
X5773682Y-16532584D02*
X5754634Y-16532584D01*
X5754634Y-16532584D02*
X5735586Y-16523060D01*
X5735586Y-16523060D02*
X5726063Y-16513536D01*
X5726063Y-16513536D02*
X5716539Y-16494488D01*
X5716539Y-16494488D02*
X5707015Y-16456393D01*
X5707015Y-16456393D02*
X5707015Y-16408774D01*
X5707015Y-16408774D02*
X5716539Y-16370679D01*
X5716539Y-16370679D02*
X5726063Y-16351631D01*
X5726063Y-16351631D02*
X5735586Y-16342108D01*
X5735586Y-16342108D02*
X5754634Y-16332584D01*
X5907015Y-16513536D02*
X5916539Y-16523060D01*
X5916539Y-16523060D02*
X5907015Y-16532584D01*
X5907015Y-16532584D02*
X5897491Y-16523060D01*
X5897491Y-16523060D02*
X5907015Y-16513536D01*
X5907015Y-16513536D02*
X5907015Y-16532584D01*
X6040348Y-16332584D02*
X6059396Y-16332584D01*
X6059396Y-16332584D02*
X6078444Y-16342108D01*
X6078444Y-16342108D02*
X6087967Y-16351631D01*
X6087967Y-16351631D02*
X6097491Y-16370679D01*
X6097491Y-16370679D02*
X6107015Y-16408774D01*
X6107015Y-16408774D02*
X6107015Y-16456393D01*
X6107015Y-16456393D02*
X6097491Y-16494488D01*
X6097491Y-16494488D02*
X6087967Y-16513536D01*
X6087967Y-16513536D02*
X6078444Y-16523060D01*
X6078444Y-16523060D02*
X6059396Y-16532584D01*
X6059396Y-16532584D02*
X6040348Y-16532584D01*
X6040348Y-16532584D02*
X6021301Y-16523060D01*
X6021301Y-16523060D02*
X6011777Y-16513536D01*
X6011777Y-16513536D02*
X6002253Y-16494488D01*
X6002253Y-16494488D02*
X5992729Y-16456393D01*
X5992729Y-16456393D02*
X5992729Y-16408774D01*
X5992729Y-16408774D02*
X6002253Y-16370679D01*
X6002253Y-16370679D02*
X6011777Y-16351631D01*
X6011777Y-16351631D02*
X6021301Y-16342108D01*
X6021301Y-16342108D02*
X6040348Y-16332584D01*
X6173682Y-16332584D02*
X6297491Y-16332584D01*
X6297491Y-16332584D02*
X6230825Y-16408774D01*
X6230825Y-16408774D02*
X6259396Y-16408774D01*
X6259396Y-16408774D02*
X6278444Y-16418298D01*
X6278444Y-16418298D02*
X6287967Y-16427822D01*
X6287967Y-16427822D02*
X6297491Y-16446869D01*
X6297491Y-16446869D02*
X6297491Y-16494488D01*
X6297491Y-16494488D02*
X6287967Y-16513536D01*
X6287967Y-16513536D02*
X6278444Y-16523060D01*
X6278444Y-16523060D02*
X6259396Y-16532584D01*
X6259396Y-16532584D02*
X6202253Y-16532584D01*
X6202253Y-16532584D02*
X6183206Y-16523060D01*
X6183206Y-16523060D02*
X6173682Y-16513536D01*
X6487967Y-16532584D02*
X6373682Y-16532584D01*
X6430825Y-16532584D02*
X6430825Y-16332584D01*
X6430825Y-16332584D02*
X6411777Y-16361155D01*
X6411777Y-16361155D02*
X6392729Y-16380203D01*
X6392729Y-16380203D02*
X6373682Y-16389727D01*
X6668920Y-16332584D02*
X6573682Y-16332584D01*
X6573682Y-16332584D02*
X6564158Y-16427822D01*
X6564158Y-16427822D02*
X6573682Y-16418298D01*
X6573682Y-16418298D02*
X6592729Y-16408774D01*
X6592729Y-16408774D02*
X6640348Y-16408774D01*
X6640348Y-16408774D02*
X6659396Y-16418298D01*
X6659396Y-16418298D02*
X6668920Y-16427822D01*
X6668920Y-16427822D02*
X6678444Y-16446869D01*
X6678444Y-16446869D02*
X6678444Y-16494488D01*
X6678444Y-16494488D02*
X6668920Y-16513536D01*
X6668920Y-16513536D02*
X6659396Y-16523060D01*
X6659396Y-16523060D02*
X6640348Y-16532584D01*
X6640348Y-16532584D02*
X6592729Y-16532584D01*
X6592729Y-16532584D02*
X6573682Y-16523060D01*
X6573682Y-16523060D02*
X6564158Y-16513536D01*
X6754634Y-16332584D02*
X6754634Y-16370679D01*
X6830825Y-16332584D02*
X6830825Y-16370679D01*
X7126063Y-16608774D02*
X7116539Y-16599250D01*
X7116539Y-16599250D02*
X7097491Y-16570679D01*
X7097491Y-16570679D02*
X7087968Y-16551631D01*
X7087968Y-16551631D02*
X7078444Y-16523060D01*
X7078444Y-16523060D02*
X7068920Y-16475441D01*
X7068920Y-16475441D02*
X7068920Y-16437346D01*
X7068920Y-16437346D02*
X7078444Y-16389727D01*
X7078444Y-16389727D02*
X7087968Y-16361155D01*
X7087968Y-16361155D02*
X7097491Y-16342108D01*
X7097491Y-16342108D02*
X7116539Y-16313536D01*
X7116539Y-16313536D02*
X7126063Y-16304012D01*
X7183206Y-16332584D02*
X7316539Y-16332584D01*
X7316539Y-16332584D02*
X7230825Y-16532584D01*
X7478444Y-16399250D02*
X7478444Y-16532584D01*
X7430825Y-16323060D02*
X7383206Y-16465917D01*
X7383206Y-16465917D02*
X7507015Y-16465917D01*
X7611777Y-16418298D02*
X7592729Y-16408774D01*
X7592729Y-16408774D02*
X7583206Y-16399250D01*
X7583206Y-16399250D02*
X7573682Y-16380203D01*
X7573682Y-16380203D02*
X7573682Y-16370679D01*
X7573682Y-16370679D02*
X7583206Y-16351631D01*
X7583206Y-16351631D02*
X7592729Y-16342108D01*
X7592729Y-16342108D02*
X7611777Y-16332584D01*
X7611777Y-16332584D02*
X7649872Y-16332584D01*
X7649872Y-16332584D02*
X7668920Y-16342108D01*
X7668920Y-16342108D02*
X7678444Y-16351631D01*
X7678444Y-16351631D02*
X7687968Y-16370679D01*
X7687968Y-16370679D02*
X7687968Y-16380203D01*
X7687968Y-16380203D02*
X7678444Y-16399250D01*
X7678444Y-16399250D02*
X7668920Y-16408774D01*
X7668920Y-16408774D02*
X7649872Y-16418298D01*
X7649872Y-16418298D02*
X7611777Y-16418298D01*
X7611777Y-16418298D02*
X7592729Y-16427822D01*
X7592729Y-16427822D02*
X7583206Y-16437346D01*
X7583206Y-16437346D02*
X7573682Y-16456393D01*
X7573682Y-16456393D02*
X7573682Y-16494488D01*
X7573682Y-16494488D02*
X7583206Y-16513536D01*
X7583206Y-16513536D02*
X7592729Y-16523060D01*
X7592729Y-16523060D02*
X7611777Y-16532584D01*
X7611777Y-16532584D02*
X7649872Y-16532584D01*
X7649872Y-16532584D02*
X7668920Y-16523060D01*
X7668920Y-16523060D02*
X7678444Y-16513536D01*
X7678444Y-16513536D02*
X7687968Y-16494488D01*
X7687968Y-16494488D02*
X7687968Y-16456393D01*
X7687968Y-16456393D02*
X7678444Y-16437346D01*
X7678444Y-16437346D02*
X7668920Y-16427822D01*
X7668920Y-16427822D02*
X7649872Y-16418298D01*
X7926063Y-16532584D02*
X7926063Y-16332584D01*
X8011777Y-16532584D02*
X8011777Y-16427822D01*
X8011777Y-16427822D02*
X8002253Y-16408774D01*
X8002253Y-16408774D02*
X7983206Y-16399250D01*
X7983206Y-16399250D02*
X7954634Y-16399250D01*
X7954634Y-16399250D02*
X7935587Y-16408774D01*
X7935587Y-16408774D02*
X7926063Y-16418298D01*
X8135587Y-16532584D02*
X8116539Y-16523060D01*
X8116539Y-16523060D02*
X8107015Y-16513536D01*
X8107015Y-16513536D02*
X8097491Y-16494488D01*
X8097491Y-16494488D02*
X8097491Y-16437346D01*
X8097491Y-16437346D02*
X8107015Y-16418298D01*
X8107015Y-16418298D02*
X8116539Y-16408774D01*
X8116539Y-16408774D02*
X8135587Y-16399250D01*
X8135587Y-16399250D02*
X8164158Y-16399250D01*
X8164158Y-16399250D02*
X8183206Y-16408774D01*
X8183206Y-16408774D02*
X8192730Y-16418298D01*
X8192730Y-16418298D02*
X8202253Y-16437346D01*
X8202253Y-16437346D02*
X8202253Y-16494488D01*
X8202253Y-16494488D02*
X8192730Y-16513536D01*
X8192730Y-16513536D02*
X8183206Y-16523060D01*
X8183206Y-16523060D02*
X8164158Y-16532584D01*
X8164158Y-16532584D02*
X8135587Y-16532584D01*
X8316539Y-16532584D02*
X8297491Y-16523060D01*
X8297491Y-16523060D02*
X8287968Y-16504012D01*
X8287968Y-16504012D02*
X8287968Y-16332584D01*
X8468920Y-16523060D02*
X8449873Y-16532584D01*
X8449873Y-16532584D02*
X8411777Y-16532584D01*
X8411777Y-16532584D02*
X8392730Y-16523060D01*
X8392730Y-16523060D02*
X8383206Y-16504012D01*
X8383206Y-16504012D02*
X8383206Y-16427822D01*
X8383206Y-16427822D02*
X8392730Y-16408774D01*
X8392730Y-16408774D02*
X8411777Y-16399250D01*
X8411777Y-16399250D02*
X8449873Y-16399250D01*
X8449873Y-16399250D02*
X8468920Y-16408774D01*
X8468920Y-16408774D02*
X8478444Y-16427822D01*
X8478444Y-16427822D02*
X8478444Y-16446869D01*
X8478444Y-16446869D02*
X8383206Y-16465917D01*
X8554634Y-16523060D02*
X8573682Y-16532584D01*
X8573682Y-16532584D02*
X8611777Y-16532584D01*
X8611777Y-16532584D02*
X8630825Y-16523060D01*
X8630825Y-16523060D02*
X8640349Y-16504012D01*
X8640349Y-16504012D02*
X8640349Y-16494488D01*
X8640349Y-16494488D02*
X8630825Y-16475441D01*
X8630825Y-16475441D02*
X8611777Y-16465917D01*
X8611777Y-16465917D02*
X8583206Y-16465917D01*
X8583206Y-16465917D02*
X8564158Y-16456393D01*
X8564158Y-16456393D02*
X8554634Y-16437346D01*
X8554634Y-16437346D02*
X8554634Y-16427822D01*
X8554634Y-16427822D02*
X8564158Y-16408774D01*
X8564158Y-16408774D02*
X8583206Y-16399250D01*
X8583206Y-16399250D02*
X8611777Y-16399250D01*
X8611777Y-16399250D02*
X8630825Y-16408774D01*
X8707015Y-16608774D02*
X8716539Y-16599250D01*
X8716539Y-16599250D02*
X8735587Y-16570679D01*
X8735587Y-16570679D02*
X8745111Y-16551631D01*
X8745111Y-16551631D02*
X8754634Y-16523060D01*
X8754634Y-16523060D02*
X8764158Y-16475441D01*
X8764158Y-16475441D02*
X8764158Y-16437346D01*
X8764158Y-16437346D02*
X8754634Y-16389727D01*
X8754634Y-16389727D02*
X8745111Y-16361155D01*
X8745111Y-16361155D02*
X8735587Y-16342108D01*
X8735587Y-16342108D02*
X8716539Y-16313536D01*
X8716539Y-16313536D02*
X8707015Y-16304012D01*
D10*
X3501000Y-16655100D02*
X3501000Y-16755100D01*
X3451000Y-16705100D02*
X3551000Y-16705100D01*
D11*
X3916539Y-16796584D02*
X3802253Y-16796584D01*
X3859396Y-16796584D02*
X3859396Y-16596584D01*
X3859396Y-16596584D02*
X3840348Y-16625155D01*
X3840348Y-16625155D02*
X3821301Y-16644203D01*
X3821301Y-16644203D02*
X3802253Y-16653727D01*
X4002253Y-16777536D02*
X4011777Y-16787060D01*
X4011777Y-16787060D02*
X4002253Y-16796584D01*
X4002253Y-16796584D02*
X3992729Y-16787060D01*
X3992729Y-16787060D02*
X4002253Y-16777536D01*
X4002253Y-16777536D02*
X4002253Y-16796584D01*
X4135586Y-16596584D02*
X4154634Y-16596584D01*
X4154634Y-16596584D02*
X4173682Y-16606108D01*
X4173682Y-16606108D02*
X4183205Y-16615631D01*
X4183205Y-16615631D02*
X4192729Y-16634679D01*
X4192729Y-16634679D02*
X4202253Y-16672774D01*
X4202253Y-16672774D02*
X4202253Y-16720393D01*
X4202253Y-16720393D02*
X4192729Y-16758488D01*
X4192729Y-16758488D02*
X4183205Y-16777536D01*
X4183205Y-16777536D02*
X4173682Y-16787060D01*
X4173682Y-16787060D02*
X4154634Y-16796584D01*
X4154634Y-16796584D02*
X4135586Y-16796584D01*
X4135586Y-16796584D02*
X4116539Y-16787060D01*
X4116539Y-16787060D02*
X4107015Y-16777536D01*
X4107015Y-16777536D02*
X4097491Y-16758488D01*
X4097491Y-16758488D02*
X4087967Y-16720393D01*
X4087967Y-16720393D02*
X4087967Y-16672774D01*
X4087967Y-16672774D02*
X4097491Y-16634679D01*
X4097491Y-16634679D02*
X4107015Y-16615631D01*
X4107015Y-16615631D02*
X4116539Y-16606108D01*
X4116539Y-16606108D02*
X4135586Y-16596584D01*
X4326063Y-16596584D02*
X4345110Y-16596584D01*
X4345110Y-16596584D02*
X4364158Y-16606108D01*
X4364158Y-16606108D02*
X4373682Y-16615631D01*
X4373682Y-16615631D02*
X4383205Y-16634679D01*
X4383205Y-16634679D02*
X4392729Y-16672774D01*
X4392729Y-16672774D02*
X4392729Y-16720393D01*
X4392729Y-16720393D02*
X4383205Y-16758488D01*
X4383205Y-16758488D02*
X4373682Y-16777536D01*
X4373682Y-16777536D02*
X4364158Y-16787060D01*
X4364158Y-16787060D02*
X4345110Y-16796584D01*
X4345110Y-16796584D02*
X4326063Y-16796584D01*
X4326063Y-16796584D02*
X4307015Y-16787060D01*
X4307015Y-16787060D02*
X4297491Y-16777536D01*
X4297491Y-16777536D02*
X4287967Y-16758488D01*
X4287967Y-16758488D02*
X4278444Y-16720393D01*
X4278444Y-16720393D02*
X4278444Y-16672774D01*
X4278444Y-16672774D02*
X4287967Y-16634679D01*
X4287967Y-16634679D02*
X4297491Y-16615631D01*
X4297491Y-16615631D02*
X4307015Y-16606108D01*
X4307015Y-16606108D02*
X4326063Y-16596584D01*
X4516539Y-16596584D02*
X4535586Y-16596584D01*
X4535586Y-16596584D02*
X4554634Y-16606108D01*
X4554634Y-16606108D02*
X4564158Y-16615631D01*
X4564158Y-16615631D02*
X4573682Y-16634679D01*
X4573682Y-16634679D02*
X4583205Y-16672774D01*
X4583205Y-16672774D02*
X4583205Y-16720393D01*
X4583205Y-16720393D02*
X4573682Y-16758488D01*
X4573682Y-16758488D02*
X4564158Y-16777536D01*
X4564158Y-16777536D02*
X4554634Y-16787060D01*
X4554634Y-16787060D02*
X4535586Y-16796584D01*
X4535586Y-16796584D02*
X4516539Y-16796584D01*
X4516539Y-16796584D02*
X4497491Y-16787060D01*
X4497491Y-16787060D02*
X4487967Y-16777536D01*
X4487967Y-16777536D02*
X4478444Y-16758488D01*
X4478444Y-16758488D02*
X4468920Y-16720393D01*
X4468920Y-16720393D02*
X4468920Y-16672774D01*
X4468920Y-16672774D02*
X4478444Y-16634679D01*
X4478444Y-16634679D02*
X4487967Y-16615631D01*
X4487967Y-16615631D02*
X4497491Y-16606108D01*
X4497491Y-16606108D02*
X4516539Y-16596584D01*
X4668920Y-16796584D02*
X4668920Y-16663250D01*
X4668920Y-16682298D02*
X4678444Y-16672774D01*
X4678444Y-16672774D02*
X4697491Y-16663250D01*
X4697491Y-16663250D02*
X4726063Y-16663250D01*
X4726063Y-16663250D02*
X4745110Y-16672774D01*
X4745110Y-16672774D02*
X4754634Y-16691822D01*
X4754634Y-16691822D02*
X4754634Y-16796584D01*
X4754634Y-16691822D02*
X4764158Y-16672774D01*
X4764158Y-16672774D02*
X4783205Y-16663250D01*
X4783205Y-16663250D02*
X4811777Y-16663250D01*
X4811777Y-16663250D02*
X4830825Y-16672774D01*
X4830825Y-16672774D02*
X4840348Y-16691822D01*
X4840348Y-16691822D02*
X4840348Y-16796584D01*
X4935586Y-16796584D02*
X4935586Y-16663250D01*
X4935586Y-16682298D02*
X4945110Y-16672774D01*
X4945110Y-16672774D02*
X4964158Y-16663250D01*
X4964158Y-16663250D02*
X4992729Y-16663250D01*
X4992729Y-16663250D02*
X5011777Y-16672774D01*
X5011777Y-16672774D02*
X5021301Y-16691822D01*
X5021301Y-16691822D02*
X5021301Y-16796584D01*
X5021301Y-16691822D02*
X5030825Y-16672774D01*
X5030825Y-16672774D02*
X5049872Y-16663250D01*
X5049872Y-16663250D02*
X5078444Y-16663250D01*
X5078444Y-16663250D02*
X5097491Y-16672774D01*
X5097491Y-16672774D02*
X5107015Y-16691822D01*
X5107015Y-16691822D02*
X5107015Y-16796584D01*
X5497491Y-16587060D02*
X5326063Y-16844203D01*
X5754634Y-16596584D02*
X5773682Y-16596584D01*
X5773682Y-16596584D02*
X5792729Y-16606108D01*
X5792729Y-16606108D02*
X5802253Y-16615631D01*
X5802253Y-16615631D02*
X5811777Y-16634679D01*
X5811777Y-16634679D02*
X5821301Y-16672774D01*
X5821301Y-16672774D02*
X5821301Y-16720393D01*
X5821301Y-16720393D02*
X5811777Y-16758488D01*
X5811777Y-16758488D02*
X5802253Y-16777536D01*
X5802253Y-16777536D02*
X5792729Y-16787060D01*
X5792729Y-16787060D02*
X5773682Y-16796584D01*
X5773682Y-16796584D02*
X5754634Y-16796584D01*
X5754634Y-16796584D02*
X5735586Y-16787060D01*
X5735586Y-16787060D02*
X5726063Y-16777536D01*
X5726063Y-16777536D02*
X5716539Y-16758488D01*
X5716539Y-16758488D02*
X5707015Y-16720393D01*
X5707015Y-16720393D02*
X5707015Y-16672774D01*
X5707015Y-16672774D02*
X5716539Y-16634679D01*
X5716539Y-16634679D02*
X5726063Y-16615631D01*
X5726063Y-16615631D02*
X5735586Y-16606108D01*
X5735586Y-16606108D02*
X5754634Y-16596584D01*
X5907015Y-16777536D02*
X5916539Y-16787060D01*
X5916539Y-16787060D02*
X5907015Y-16796584D01*
X5907015Y-16796584D02*
X5897491Y-16787060D01*
X5897491Y-16787060D02*
X5907015Y-16777536D01*
X5907015Y-16777536D02*
X5907015Y-16796584D01*
X6040348Y-16596584D02*
X6059396Y-16596584D01*
X6059396Y-16596584D02*
X6078444Y-16606108D01*
X6078444Y-16606108D02*
X6087967Y-16615631D01*
X6087967Y-16615631D02*
X6097491Y-16634679D01*
X6097491Y-16634679D02*
X6107015Y-16672774D01*
X6107015Y-16672774D02*
X6107015Y-16720393D01*
X6107015Y-16720393D02*
X6097491Y-16758488D01*
X6097491Y-16758488D02*
X6087967Y-16777536D01*
X6087967Y-16777536D02*
X6078444Y-16787060D01*
X6078444Y-16787060D02*
X6059396Y-16796584D01*
X6059396Y-16796584D02*
X6040348Y-16796584D01*
X6040348Y-16796584D02*
X6021301Y-16787060D01*
X6021301Y-16787060D02*
X6011777Y-16777536D01*
X6011777Y-16777536D02*
X6002253Y-16758488D01*
X6002253Y-16758488D02*
X5992729Y-16720393D01*
X5992729Y-16720393D02*
X5992729Y-16672774D01*
X5992729Y-16672774D02*
X6002253Y-16634679D01*
X6002253Y-16634679D02*
X6011777Y-16615631D01*
X6011777Y-16615631D02*
X6021301Y-16606108D01*
X6021301Y-16606108D02*
X6040348Y-16596584D01*
X6173682Y-16596584D02*
X6297491Y-16596584D01*
X6297491Y-16596584D02*
X6230825Y-16672774D01*
X6230825Y-16672774D02*
X6259396Y-16672774D01*
X6259396Y-16672774D02*
X6278444Y-16682298D01*
X6278444Y-16682298D02*
X6287967Y-16691822D01*
X6287967Y-16691822D02*
X6297491Y-16710869D01*
X6297491Y-16710869D02*
X6297491Y-16758488D01*
X6297491Y-16758488D02*
X6287967Y-16777536D01*
X6287967Y-16777536D02*
X6278444Y-16787060D01*
X6278444Y-16787060D02*
X6259396Y-16796584D01*
X6259396Y-16796584D02*
X6202253Y-16796584D01*
X6202253Y-16796584D02*
X6183206Y-16787060D01*
X6183206Y-16787060D02*
X6173682Y-16777536D01*
X6392729Y-16796584D02*
X6430825Y-16796584D01*
X6430825Y-16796584D02*
X6449872Y-16787060D01*
X6449872Y-16787060D02*
X6459396Y-16777536D01*
X6459396Y-16777536D02*
X6478444Y-16748965D01*
X6478444Y-16748965D02*
X6487967Y-16710869D01*
X6487967Y-16710869D02*
X6487967Y-16634679D01*
X6487967Y-16634679D02*
X6478444Y-16615631D01*
X6478444Y-16615631D02*
X6468920Y-16606108D01*
X6468920Y-16606108D02*
X6449872Y-16596584D01*
X6449872Y-16596584D02*
X6411777Y-16596584D01*
X6411777Y-16596584D02*
X6392729Y-16606108D01*
X6392729Y-16606108D02*
X6383206Y-16615631D01*
X6383206Y-16615631D02*
X6373682Y-16634679D01*
X6373682Y-16634679D02*
X6373682Y-16682298D01*
X6373682Y-16682298D02*
X6383206Y-16701346D01*
X6383206Y-16701346D02*
X6392729Y-16710869D01*
X6392729Y-16710869D02*
X6411777Y-16720393D01*
X6411777Y-16720393D02*
X6449872Y-16720393D01*
X6449872Y-16720393D02*
X6468920Y-16710869D01*
X6468920Y-16710869D02*
X6478444Y-16701346D01*
X6478444Y-16701346D02*
X6487967Y-16682298D01*
X6659396Y-16663250D02*
X6659396Y-16796584D01*
X6611777Y-16587060D02*
X6564158Y-16729917D01*
X6564158Y-16729917D02*
X6687967Y-16729917D01*
X6754634Y-16596584D02*
X6754634Y-16634679D01*
X6830825Y-16596584D02*
X6830825Y-16634679D01*
X7126063Y-16872774D02*
X7116539Y-16863250D01*
X7116539Y-16863250D02*
X7097491Y-16834679D01*
X7097491Y-16834679D02*
X7087968Y-16815631D01*
X7087968Y-16815631D02*
X7078444Y-16787060D01*
X7078444Y-16787060D02*
X7068920Y-16739441D01*
X7068920Y-16739441D02*
X7068920Y-16701346D01*
X7068920Y-16701346D02*
X7078444Y-16653727D01*
X7078444Y-16653727D02*
X7087968Y-16625155D01*
X7087968Y-16625155D02*
X7097491Y-16606108D01*
X7097491Y-16606108D02*
X7116539Y-16577536D01*
X7116539Y-16577536D02*
X7126063Y-16568012D01*
X7307015Y-16796584D02*
X7192729Y-16796584D01*
X7249872Y-16796584D02*
X7249872Y-16596584D01*
X7249872Y-16596584D02*
X7230825Y-16625155D01*
X7230825Y-16625155D02*
X7211777Y-16644203D01*
X7211777Y-16644203D02*
X7192729Y-16653727D01*
X7383206Y-16615631D02*
X7392729Y-16606108D01*
X7392729Y-16606108D02*
X7411777Y-16596584D01*
X7411777Y-16596584D02*
X7459396Y-16596584D01*
X7459396Y-16596584D02*
X7478444Y-16606108D01*
X7478444Y-16606108D02*
X7487968Y-16615631D01*
X7487968Y-16615631D02*
X7497491Y-16634679D01*
X7497491Y-16634679D02*
X7497491Y-16653727D01*
X7497491Y-16653727D02*
X7487968Y-16682298D01*
X7487968Y-16682298D02*
X7373682Y-16796584D01*
X7373682Y-16796584D02*
X7497491Y-16796584D01*
X7611777Y-16682298D02*
X7592729Y-16672774D01*
X7592729Y-16672774D02*
X7583206Y-16663250D01*
X7583206Y-16663250D02*
X7573682Y-16644203D01*
X7573682Y-16644203D02*
X7573682Y-16634679D01*
X7573682Y-16634679D02*
X7583206Y-16615631D01*
X7583206Y-16615631D02*
X7592729Y-16606108D01*
X7592729Y-16606108D02*
X7611777Y-16596584D01*
X7611777Y-16596584D02*
X7649872Y-16596584D01*
X7649872Y-16596584D02*
X7668920Y-16606108D01*
X7668920Y-16606108D02*
X7678444Y-16615631D01*
X7678444Y-16615631D02*
X7687968Y-16634679D01*
X7687968Y-16634679D02*
X7687968Y-16644203D01*
X7687968Y-16644203D02*
X7678444Y-16663250D01*
X7678444Y-16663250D02*
X7668920Y-16672774D01*
X7668920Y-16672774D02*
X7649872Y-16682298D01*
X7649872Y-16682298D02*
X7611777Y-16682298D01*
X7611777Y-16682298D02*
X7592729Y-16691822D01*
X7592729Y-16691822D02*
X7583206Y-16701346D01*
X7583206Y-16701346D02*
X7573682Y-16720393D01*
X7573682Y-16720393D02*
X7573682Y-16758488D01*
X7573682Y-16758488D02*
X7583206Y-16777536D01*
X7583206Y-16777536D02*
X7592729Y-16787060D01*
X7592729Y-16787060D02*
X7611777Y-16796584D01*
X7611777Y-16796584D02*
X7649872Y-16796584D01*
X7649872Y-16796584D02*
X7668920Y-16787060D01*
X7668920Y-16787060D02*
X7678444Y-16777536D01*
X7678444Y-16777536D02*
X7687968Y-16758488D01*
X7687968Y-16758488D02*
X7687968Y-16720393D01*
X7687968Y-16720393D02*
X7678444Y-16701346D01*
X7678444Y-16701346D02*
X7668920Y-16691822D01*
X7668920Y-16691822D02*
X7649872Y-16682298D01*
X7926063Y-16796584D02*
X7926063Y-16596584D01*
X8011777Y-16796584D02*
X8011777Y-16691822D01*
X8011777Y-16691822D02*
X8002253Y-16672774D01*
X8002253Y-16672774D02*
X7983206Y-16663250D01*
X7983206Y-16663250D02*
X7954634Y-16663250D01*
X7954634Y-16663250D02*
X7935587Y-16672774D01*
X7935587Y-16672774D02*
X7926063Y-16682298D01*
X8135587Y-16796584D02*
X8116539Y-16787060D01*
X8116539Y-16787060D02*
X8107015Y-16777536D01*
X8107015Y-16777536D02*
X8097491Y-16758488D01*
X8097491Y-16758488D02*
X8097491Y-16701346D01*
X8097491Y-16701346D02*
X8107015Y-16682298D01*
X8107015Y-16682298D02*
X8116539Y-16672774D01*
X8116539Y-16672774D02*
X8135587Y-16663250D01*
X8135587Y-16663250D02*
X8164158Y-16663250D01*
X8164158Y-16663250D02*
X8183206Y-16672774D01*
X8183206Y-16672774D02*
X8192730Y-16682298D01*
X8192730Y-16682298D02*
X8202253Y-16701346D01*
X8202253Y-16701346D02*
X8202253Y-16758488D01*
X8202253Y-16758488D02*
X8192730Y-16777536D01*
X8192730Y-16777536D02*
X8183206Y-16787060D01*
X8183206Y-16787060D02*
X8164158Y-16796584D01*
X8164158Y-16796584D02*
X8135587Y-16796584D01*
X8316539Y-16796584D02*
X8297491Y-16787060D01*
X8297491Y-16787060D02*
X8287968Y-16768012D01*
X8287968Y-16768012D02*
X8287968Y-16596584D01*
X8468920Y-16787060D02*
X8449873Y-16796584D01*
X8449873Y-16796584D02*
X8411777Y-16796584D01*
X8411777Y-16796584D02*
X8392730Y-16787060D01*
X8392730Y-16787060D02*
X8383206Y-16768012D01*
X8383206Y-16768012D02*
X8383206Y-16691822D01*
X8383206Y-16691822D02*
X8392730Y-16672774D01*
X8392730Y-16672774D02*
X8411777Y-16663250D01*
X8411777Y-16663250D02*
X8449873Y-16663250D01*
X8449873Y-16663250D02*
X8468920Y-16672774D01*
X8468920Y-16672774D02*
X8478444Y-16691822D01*
X8478444Y-16691822D02*
X8478444Y-16710869D01*
X8478444Y-16710869D02*
X8383206Y-16729917D01*
X8554634Y-16787060D02*
X8573682Y-16796584D01*
X8573682Y-16796584D02*
X8611777Y-16796584D01*
X8611777Y-16796584D02*
X8630825Y-16787060D01*
X8630825Y-16787060D02*
X8640349Y-16768012D01*
X8640349Y-16768012D02*
X8640349Y-16758488D01*
X8640349Y-16758488D02*
X8630825Y-16739441D01*
X8630825Y-16739441D02*
X8611777Y-16729917D01*
X8611777Y-16729917D02*
X8583206Y-16729917D01*
X8583206Y-16729917D02*
X8564158Y-16720393D01*
X8564158Y-16720393D02*
X8554634Y-16701346D01*
X8554634Y-16701346D02*
X8554634Y-16691822D01*
X8554634Y-16691822D02*
X8564158Y-16672774D01*
X8564158Y-16672774D02*
X8583206Y-16663250D01*
X8583206Y-16663250D02*
X8611777Y-16663250D01*
X8611777Y-16663250D02*
X8630825Y-16672774D01*
X8707015Y-16872774D02*
X8716539Y-16863250D01*
X8716539Y-16863250D02*
X8735587Y-16834679D01*
X8735587Y-16834679D02*
X8745111Y-16815631D01*
X8745111Y-16815631D02*
X8754634Y-16787060D01*
X8754634Y-16787060D02*
X8764158Y-16739441D01*
X8764158Y-16739441D02*
X8764158Y-16701346D01*
X8764158Y-16701346D02*
X8754634Y-16653727D01*
X8754634Y-16653727D02*
X8745111Y-16625155D01*
X8745111Y-16625155D02*
X8735587Y-16606108D01*
X8735587Y-16606108D02*
X8716539Y-16577536D01*
X8716539Y-16577536D02*
X8707015Y-16568012D01*
M02*
