M48
; DRILL file {KiCad 7.0.7} date Mon Aug 17 22:05:02 2026
; FORMAT={-:-/ absolute / inch / decimal}
; #@! TF.CreationDate,2026-08-17T22:05:02-05:00
; #@! TF.GenerationSoftware,Kicad,Pcbnew,7.0.7
; #@! TF.FileFunction,Plated,1,2,PTH
FMAT,2
INCH
; #@! TA.AperFunction,Plated,PTH,ViaDrill
T1C0.0157
; #@! TA.AperFunction,Plated,PTH,ComponentDrill
T2C0.0315
; #@! TA.AperFunction,Plated,PTH,ComponentDrill
T3C0.0394
%
G90
G05
T1
X1.7281Y-2.6958
X2.3978Y-3.1483
X2.3997Y-0.9321
X2.4235Y-5.5875
X2.6249Y-2.8399
X2.632Y-2.7814
X2.6499Y-3.8498
X2.7811Y-3.5999
X3.0088Y-4.8268
X3.0514Y-4.4382
X3.1395Y-2.9042
X3.1405Y-2.8571
X3.1455Y-5.3954
X3.3174Y-2.9518
X3.4058Y-4.7007
X3.4587Y-3.6294
X3.4876Y-3.5475
X3.618Y-2.952
X3.618Y-2.994
X3.8893Y-4.2734
X3.9255Y-4.1112
X4.112Y-4.975
X4.1353Y-3.5416
X4.1646Y-1.2476
X4.1678Y-3.0303
X4.238Y-4.1891
X4.2614Y-5.5614
X4.2793Y-4.5684
X4.2958Y-4.6102
X4.2979Y-3.5875
X4.3235Y-5.5813
X4.346Y-4.1406
X4.5527Y-4.1985
X4.6167Y-2.7594
X4.6804Y-2.5647
X4.7022Y-4.5208
X4.7025Y-5.0003
X4.8387Y-4.226
X4.8428Y-2.4693
X4.8627Y-4.3027
X4.9254Y-4.0841
X4.9318Y-5.5643
X4.9684Y-0.7885
X5.0214Y-2.2108
X5.0514Y-3.3778
X5.0726Y-2.7695
X5.0787Y-0.8102
X5.097Y-4.4918
X5.1078Y-4.5359
X5.1112Y-1.6946
X5.138Y-1.7694
X5.2007Y-1.7472
X5.2452Y-1.7967
X5.258Y-3.214
X5.3293Y-2.1495
X5.3579Y-4.0512
X5.64Y-2.2158
X5.6639Y-1.9514
X5.6655Y-4.2699
X5.7131Y-3.133
X5.7287Y-4.2682
X5.7936Y-1.8431
X5.8096Y-3.4216
X5.8608Y-4.3554
X5.8837Y-4.4403
X5.916Y-5.125
X5.945Y-5.0054
X6.0035Y-4.1112
X6.067Y-4.0538
X6.0954Y-3.4149
X6.2533Y-4.0733
X6.268Y-4.1782
X6.2749Y-3.6556
X6.3307Y-4.2437
X6.3388Y-2.4693
X6.4105Y-3.7852
X6.4847Y-3.7944
X6.5018Y-5.4597
X6.5028Y-4.3375
X6.5058Y-2.9657
X6.5562Y-5.5024
X6.672Y-2.9798
X6.6785Y-4.9196
X6.7043Y-4.112
X6.7315Y-4.1406
X6.7656Y-4.1872
X6.7761Y-4.3445
X6.7989Y-5.67
X6.7997Y-2.0723
X6.8257Y-4.2839
X6.8573Y-4.2581
X6.9518Y-5.0298
X6.9784Y-5.4775
X6.9913Y-5.395
X7.0462Y-5.4274
X7.0646Y-5.3683
X7.0809Y-5.6006
X7.1069Y-5.4852
X7.1416Y-3.1677
X7.2272Y-5.468
X7.2499Y-5.5079
X7.2501Y-1.425
X7.269Y-4.0552
X7.2751Y-2.9125
X7.2916Y-1.8675
X7.304Y-2.9903
X7.3222Y-3.9201
X7.4488Y-4.9165
X7.5129Y-0.8852
X7.5139Y-4.1304
X7.5696Y-3.6828
X7.6738Y-3.0373
X7.7024Y-4.0902
X7.7357Y-4.0373
X7.7456Y-2.9853
X7.8152Y-3.7596
X7.8721Y-4.0887
X7.8881Y-3.6349
X7.9124Y-2.3898
X7.9206Y-3.6063
X7.9514Y-2.9898
X8.0075Y-4.3189
X8.0275Y-3.7796
X8.07Y-4.4209
X8.0891Y-3.7596
X8.1354Y-3.6903
X8.2344Y-4.0317
X8.2667Y-4.2144
X8.2874Y-4.8896
X8.3772Y-4.3064
X8.3965Y-4.8516
X8.457Y-4.3229
X8.4762Y-4.0678
X8.5021Y-0.9008
X8.5442Y-4.2976
X8.6395Y-0.9924
X8.9838Y-5.0683
X8.989Y-4.3297
X9.0169Y-4.0645
X9.1663Y-4.8252
X9.1862Y-1.5999
T2
X1.6Y-2.025
X1.6Y-2.125
X1.6Y-2.225
X1.6Y-2.325
X1.6Y-2.425
X1.6Y-2.525
X1.6Y-2.625
X1.6Y-2.725
X1.6Y-3.275
X1.6Y-3.375
X1.6Y-3.475
X1.6Y-3.575
X1.6Y-3.675
X1.6Y-3.775
X1.6Y-3.875
X1.6Y-3.975
X1.6004Y-4.5248
X1.6004Y-4.6248
X1.6004Y-4.7248
X1.6004Y-4.8248
X1.6004Y-4.9248
X1.6004Y-5.0248
X1.6004Y-5.1248
X1.65Y-1.9
X1.65Y-3.15
X1.65Y-4.4
X1.7034Y-5.475
X1.8019Y-5.475
X1.8469Y-1.9
X1.8469Y-3.15
X1.8469Y-4.4
X1.9Y-2.025
X1.9Y-2.125
X1.9Y-2.225
X1.9Y-2.325
X1.9Y-2.425
X1.9Y-2.525
X1.9Y-2.625
X1.9Y-2.725
X1.9Y-3.275
X1.9Y-3.375
X1.9Y-3.475
X1.9Y-3.575
X1.9Y-3.675
X1.9Y-3.775
X1.9Y-3.875
X1.9Y-3.975
X1.9004Y-4.5248
X1.9004Y-4.6248
X1.9004Y-4.7248
X1.9004Y-4.8248
X1.9004Y-4.9248
X1.9004Y-5.0248
X1.9004Y-5.1248
X2.425Y-1.025
X2.425Y-1.125
X2.425Y-1.225
X2.425Y-1.325
X2.425Y-1.425
X2.425Y-1.525
X2.425Y-1.625
X2.425Y-2.025
X2.425Y-2.125
X2.425Y-2.225
X2.425Y-2.325
X2.425Y-2.425
X2.425Y-2.525
X2.425Y-2.625
X2.425Y-2.725
X2.425Y-3.275
X2.425Y-3.375
X2.425Y-3.475
X2.425Y-3.575
X2.425Y-3.675
X2.425Y-3.775
X2.425Y-3.875
X2.425Y-3.975
X2.425Y-4.525
X2.425Y-4.625
X2.425Y-4.725
X2.425Y-4.825
X2.425Y-4.925
X2.425Y-5.025
X2.425Y-5.125
X2.425Y-5.225
X2.425Y-5.325
X2.425Y-5.425
X2.475Y-1.9
X2.4766Y-0.9
X2.4766Y-3.15
X2.4766Y-4.4
X2.6719Y-1.9
X2.6734Y-0.9
X2.6734Y-3.15
X2.6734Y-4.4
X2.725Y-1.025
X2.725Y-1.125
X2.725Y-1.225
X2.725Y-1.325
X2.725Y-1.425
X2.725Y-1.525
X2.725Y-1.625
X2.725Y-2.025
X2.725Y-2.125
X2.725Y-2.225
X2.725Y-2.325
X2.725Y-2.425
X2.725Y-2.525
X2.725Y-2.625
X2.725Y-2.725
X2.725Y-3.275
X2.725Y-3.375
X2.725Y-3.475
X2.725Y-3.575
X2.725Y-3.675
X2.725Y-3.775
X2.725Y-3.875
X2.725Y-3.975
X2.725Y-4.525
X2.725Y-4.625
X2.725Y-4.725
X2.725Y-4.825
X2.725Y-4.925
X2.725Y-5.025
X2.725Y-5.125
X2.725Y-5.225
X2.725Y-5.325
X2.725Y-5.425
X2.875Y-1.225
X2.875Y-1.525
X3.25Y-1.025
X3.25Y-1.125
X3.25Y-1.225
X3.25Y-1.325
X3.25Y-1.425
X3.25Y-1.525
X3.25Y-1.625
X3.25Y-3.275
X3.25Y-3.375
X3.25Y-3.475
X3.25Y-3.575
X3.25Y-3.675
X3.25Y-3.775
X3.25Y-3.875
X3.25Y-3.975
X3.25Y-4.525
X3.25Y-4.625
X3.25Y-4.725
X3.25Y-4.825
X3.25Y-4.925
X3.25Y-5.025
X3.25Y-5.125
X3.25Y-5.225
X3.25Y-5.325
X3.25Y-5.425
X3.2504Y-2.025
X3.2504Y-2.125
X3.2504Y-2.225
X3.2504Y-2.325
X3.2504Y-2.425
X3.2504Y-2.525
X3.2504Y-2.625
X3.2504Y-2.725
X3.3Y-0.9
X3.3016Y-1.9
X3.3016Y-3.15
X3.3016Y-4.4
X3.4969Y-0.9
X3.4984Y-1.9
X3.4984Y-3.15
X3.4984Y-4.4
X3.55Y-1.025
X3.55Y-1.125
X3.55Y-1.225
X3.55Y-1.325
X3.55Y-1.425
X3.55Y-1.525
X3.55Y-1.625
X3.55Y-3.275
X3.55Y-3.375
X3.55Y-3.475
X3.55Y-3.575
X3.55Y-3.675
X3.55Y-3.775
X3.55Y-3.875
X3.55Y-3.975
X3.55Y-4.525
X3.55Y-4.625
X3.55Y-4.725
X3.55Y-4.825
X3.55Y-4.925
X3.55Y-5.025
X3.55Y-5.125
X3.55Y-5.225
X3.55Y-5.325
X3.55Y-5.425
X3.5504Y-2.025
X3.5504Y-2.125
X3.5504Y-2.225
X3.5504Y-2.325
X3.5504Y-2.425
X3.5504Y-2.525
X3.5504Y-2.625
X3.5504Y-2.725
X4.075Y-1.025
X4.075Y-1.125
X4.075Y-1.225
X4.075Y-1.325
X4.075Y-1.425
X4.075Y-1.525
X4.075Y-1.625
X4.075Y-2.025
X4.075Y-2.125
X4.075Y-2.225
X4.075Y-2.325
X4.075Y-2.425
X4.075Y-2.525
X4.075Y-2.625
X4.075Y-2.725
X4.075Y-3.275
X4.075Y-3.375
X4.075Y-3.475
X4.075Y-3.575
X4.075Y-3.675
X4.075Y-3.775
X4.075Y-3.875
X4.075Y-3.975
X4.075Y-4.525
X4.075Y-4.625
X4.075Y-4.725
X4.075Y-4.825
X4.075Y-4.925
X4.075Y-5.025
X4.075Y-5.125
X4.075Y-5.225
X4.075Y-5.325
X4.075Y-5.425
X4.125Y-1.9
X4.125Y-4.4
X4.1266Y-0.9
X4.1266Y-3.15
X4.3219Y-1.9
X4.3219Y-4.4
X4.3234Y-0.9
X4.3234Y-3.15
X4.375Y-1.025
X4.375Y-1.125
X4.375Y-1.225
X4.375Y-1.325
X4.375Y-1.425
X4.375Y-1.525
X4.375Y-1.625
X4.375Y-2.025
X4.375Y-2.125
X4.375Y-2.225
X4.375Y-2.325
X4.375Y-2.425
X4.375Y-2.525
X4.375Y-2.625
X4.375Y-2.725
X4.375Y-3.275
X4.375Y-3.375
X4.375Y-3.475
X4.375Y-3.575
X4.375Y-3.675
X4.375Y-3.775
X4.375Y-3.875
X4.375Y-3.975
X4.375Y-4.525
X4.375Y-4.625
X4.375Y-4.725
X4.375Y-4.825
X4.375Y-4.925
X4.375Y-5.025
X4.375Y-5.125
X4.375Y-5.225
X4.375Y-5.325
X4.375Y-5.425
X4.9Y-1.025
X4.9Y-1.125
X4.9Y-1.225
X4.9Y-1.325
X4.9Y-1.425
X4.9Y-1.525
X4.9Y-1.625
X4.9Y-2.025
X4.9Y-2.125
X4.9Y-2.225
X4.9Y-2.325
X4.9Y-2.425
X4.9Y-2.525
X4.9Y-2.625
X4.9Y-2.725
X4.9Y-3.275
X4.9Y-3.375
X4.9Y-3.475
X4.9Y-3.575
X4.9Y-3.675
X4.9Y-3.775
X4.9Y-3.875
X4.9Y-3.975
X4.9Y-4.525
X4.9Y-4.625
X4.9Y-4.725
X4.9Y-4.825
X4.9Y-4.925
X4.9Y-5.025
X4.9Y-5.125
X4.9Y-5.225
X4.9Y-5.325
X4.9Y-5.425
X4.95Y-0.9
X4.95Y-1.9
X4.95Y-3.15
X4.95Y-4.4
X5.1469Y-0.9
X5.1469Y-1.9
X5.1469Y-3.15
X5.1469Y-4.4
X5.2Y-1.025
X5.2Y-1.125
X5.2Y-1.225
X5.2Y-1.325
X5.2Y-1.425
X5.2Y-1.525
X5.2Y-1.625
X5.2Y-2.025
X5.2Y-2.125
X5.2Y-2.225
X5.2Y-2.325
X5.2Y-2.425
X5.2Y-2.525
X5.2Y-2.625
X5.2Y-2.725
X5.2Y-3.275
X5.2Y-3.375
X5.2Y-3.475
X5.2Y-3.575
X5.2Y-3.675
X5.2Y-3.775
X5.2Y-3.875
X5.2Y-3.975
X5.2Y-4.525
X5.2Y-4.625
X5.2Y-4.725
X5.2Y-4.825
X5.2Y-4.925
X5.2Y-5.025
X5.2Y-5.125
X5.2Y-5.225
X5.2Y-5.325
X5.2Y-5.425
X5.725Y-1.025
X5.725Y-1.125
X5.725Y-1.225
X5.725Y-1.325
X5.725Y-1.425
X5.725Y-1.525
X5.725Y-1.625
X5.725Y-2.025
X5.725Y-2.125
X5.725Y-2.225
X5.725Y-2.325
X5.725Y-2.425
X5.725Y-2.525
X5.725Y-2.625
X5.725Y-2.725
X5.725Y-2.825
X5.725Y-2.925
X5.725Y-3.275
X5.725Y-3.375
X5.725Y-3.475
X5.725Y-3.575
X5.725Y-3.675
X5.725Y-3.775
X5.725Y-3.875
X5.725Y-3.975
X5.725Y-4.525
X5.725Y-4.625
X5.725Y-4.725
X5.725Y-4.825
X5.725Y-4.925
X5.725Y-5.025
X5.725Y-5.125
X5.725Y-5.225
X5.725Y-5.325
X5.725Y-5.425
X5.775Y-0.9
X5.775Y-1.9
X5.775Y-4.4
X5.7766Y-3.15
X5.9719Y-0.9
X5.9719Y-1.9
X5.9719Y-4.4
X5.9734Y-3.15
X6.025Y-1.025
X6.025Y-1.125
X6.025Y-1.225
X6.025Y-1.325
X6.025Y-1.425
X6.025Y-1.525
X6.025Y-1.625
X6.025Y-2.025
X6.025Y-2.125
X6.025Y-2.225
X6.025Y-2.325
X6.025Y-2.425
X6.025Y-2.525
X6.025Y-2.625
X6.025Y-2.725
X6.025Y-2.825
X6.025Y-2.925
X6.025Y-3.275
X6.025Y-3.375
X6.025Y-3.475
X6.025Y-3.575
X6.025Y-3.675
X6.025Y-3.775
X6.025Y-3.875
X6.025Y-3.975
X6.025Y-4.525
X6.025Y-4.625
X6.025Y-4.725
X6.025Y-4.825
X6.025Y-4.925
X6.025Y-5.025
X6.025Y-5.125
X6.025Y-5.225
X6.025Y-5.325
X6.025Y-5.425
X6.55Y-1.025
X6.55Y-1.125
X6.55Y-1.225
X6.55Y-1.325
X6.55Y-1.425
X6.55Y-1.525
X6.55Y-1.625
X6.55Y-2.025
X6.55Y-2.125
X6.55Y-2.225
X6.55Y-2.325
X6.55Y-2.425
X6.55Y-2.525
X6.55Y-2.625
X6.55Y-2.725
X6.55Y-2.825
X6.55Y-2.925
X6.55Y-3.275
X6.55Y-3.375
X6.55Y-3.475
X6.55Y-3.575
X6.55Y-3.675
X6.55Y-3.775
X6.55Y-3.875
X6.55Y-3.975
X6.55Y-4.525
X6.55Y-4.625
X6.55Y-4.725
X6.55Y-4.825
X6.55Y-4.925
X6.55Y-5.025
X6.55Y-5.125
X6.55Y-5.225
X6.55Y-5.325
X6.55Y-5.425
X6.6Y-0.9
X6.6Y-3.15
X6.6016Y-1.9
X6.6016Y-4.4
X6.7969Y-0.9
X6.7969Y-3.15
X6.7984Y-1.9
X6.7984Y-4.4
X6.85Y-1.025
X6.85Y-1.125
X6.85Y-1.225
X6.85Y-1.325
X6.85Y-1.425
X6.85Y-1.525
X6.85Y-1.625
X6.85Y-2.025
X6.85Y-2.125
X6.85Y-2.225
X6.85Y-2.325
X6.85Y-2.425
X6.85Y-2.525
X6.85Y-2.625
X6.85Y-2.725
X6.85Y-2.825
X6.85Y-2.925
X6.85Y-3.275
X6.85Y-3.375
X6.85Y-3.475
X6.85Y-3.575
X6.85Y-3.675
X6.85Y-3.775
X6.85Y-3.875
X6.85Y-3.975
X6.85Y-4.525
X6.85Y-4.625
X6.85Y-4.725
X6.85Y-4.825
X6.85Y-4.925
X6.85Y-5.025
X6.85Y-5.125
X6.85Y-5.225
X6.85Y-5.325
X6.85Y-5.425
X7.375Y-1.025
X7.375Y-1.125
X7.375Y-1.225
X7.375Y-1.325
X7.375Y-1.425
X7.375Y-1.525
X7.375Y-1.625
X7.375Y-1.725
X7.375Y-2.025
X7.375Y-2.125
X7.375Y-2.225
X7.375Y-2.325
X7.375Y-2.425
X7.375Y-2.525
X7.375Y-2.625
X7.375Y-2.725
X7.375Y-2.825
X7.375Y-2.925
X7.375Y-3.275
X7.375Y-3.375
X7.375Y-3.475
X7.375Y-3.575
X7.375Y-3.675
X7.375Y-3.775
X7.375Y-3.875
X7.375Y-3.975
X7.375Y-4.525
X7.375Y-4.625
X7.375Y-4.725
X7.375Y-4.825
X7.375Y-4.925
X7.375Y-5.025
X7.375Y-5.125
X7.375Y-5.225
X7.375Y-5.325
X7.375Y-5.425
X7.425Y-0.9
X7.425Y-3.15
X7.4266Y-1.9
X7.4266Y-4.4
X7.6219Y-0.9
X7.6219Y-3.15
X7.6234Y-1.9
X7.6234Y-4.4
X7.675Y-1.025
X7.675Y-1.125
X7.675Y-1.225
X7.675Y-1.325
X7.675Y-1.425
X7.675Y-1.525
X7.675Y-1.625
X7.675Y-1.725
X7.675Y-2.025
X7.675Y-2.125
X7.675Y-2.225
X7.675Y-2.325
X7.675Y-2.425
X7.675Y-2.525
X7.675Y-2.625
X7.675Y-2.725
X7.675Y-2.825
X7.675Y-2.925
X7.675Y-3.275
X7.675Y-3.375
X7.675Y-3.475
X7.675Y-3.575
X7.675Y-3.675
X7.675Y-3.775
X7.675Y-3.875
X7.675Y-3.975
X7.675Y-4.525
X7.675Y-4.625
X7.675Y-4.725
X7.675Y-4.825
X7.675Y-4.925
X7.675Y-5.025
X7.675Y-5.125
X7.675Y-5.225
X7.675Y-5.325
X7.675Y-5.425
X7.825Y-1.325
X7.825Y-1.625
X8.2Y-1.025
X8.2Y-1.125
X8.2Y-1.225
X8.2Y-1.325
X8.2Y-1.425
X8.2Y-1.525
X8.2Y-1.625
X8.2Y-1.725
X8.2Y-2.025
X8.2Y-2.125
X8.2Y-2.225
X8.2Y-2.325
X8.2Y-2.425
X8.2Y-2.525
X8.2Y-2.625
X8.2Y-2.725
X8.2Y-2.825
X8.2Y-2.925
X8.2Y-3.275
X8.2Y-3.375
X8.2Y-3.475
X8.2Y-3.575
X8.2Y-3.675
X8.2Y-3.775
X8.2Y-3.875
X8.2Y-3.975
X8.2Y-4.525
X8.2Y-4.625
X8.2Y-4.725
X8.2Y-4.825
X8.2Y-4.925
X8.2Y-5.025
X8.2Y-5.125
X8.2Y-5.225
X8.2Y-5.325
X8.2Y-5.425
X8.25Y-0.9
X8.25Y-4.4
X8.2516Y-1.9
X8.2531Y-3.15
X8.4469Y-0.9
X8.4469Y-4.4
X8.4484Y-1.9
X8.45Y-3.15
X8.5Y-1.025
X8.5Y-1.125
X8.5Y-1.225
X8.5Y-1.325
X8.5Y-1.425
X8.5Y-1.525
X8.5Y-1.625
X8.5Y-1.725
X8.5Y-2.025
X8.5Y-2.125
X8.5Y-2.225
X8.5Y-2.325
X8.5Y-2.425
X8.5Y-2.525
X8.5Y-2.625
X8.5Y-2.725
X8.5Y-2.825
X8.5Y-2.925
X8.5Y-3.275
X8.5Y-3.375
X8.5Y-3.475
X8.5Y-3.575
X8.5Y-3.675
X8.5Y-3.775
X8.5Y-3.875
X8.5Y-3.975
X8.5Y-4.525
X8.5Y-4.625
X8.5Y-4.725
X8.5Y-4.825
X8.5Y-4.925
X8.5Y-5.025
X8.5Y-5.125
X8.5Y-5.225
X8.5Y-5.325
X8.5Y-5.425
X9.025Y-1.025
X9.025Y-1.125
X9.025Y-1.225
X9.025Y-1.325
X9.025Y-1.425
X9.025Y-1.525
X9.025Y-1.625
X9.025Y-2.025
X9.025Y-2.125
X9.025Y-2.225
X9.025Y-2.325
X9.025Y-2.425
X9.025Y-2.525
X9.025Y-2.625
X9.025Y-2.725
X9.025Y-2.825
X9.025Y-2.925
X9.025Y-4.5252
X9.025Y-4.6252
X9.025Y-4.7252
X9.025Y-4.8252
X9.025Y-4.9252
X9.025Y-5.0252
X9.025Y-5.1252
X9.025Y-5.2252
X9.025Y-5.3252
X9.025Y-5.4252
X9.0254Y-3.2756
X9.0254Y-3.3756
X9.0254Y-3.4756
X9.0254Y-3.5756
X9.0254Y-3.6756
X9.0254Y-3.7756
X9.0254Y-3.8756
X9.0254Y-3.9756
X9.075Y-0.9
X9.075Y-3.15
X9.0766Y-1.9
X9.0766Y-4.4
X9.2719Y-0.9
X9.2719Y-3.15
X9.2734Y-1.9
X9.2734Y-4.4
X9.325Y-1.025
X9.325Y-1.125
X9.325Y-1.225
X9.325Y-1.325
X9.325Y-1.425
X9.325Y-1.525
X9.325Y-1.625
X9.325Y-2.025
X9.325Y-2.125
X9.325Y-2.225
X9.325Y-2.325
X9.325Y-2.425
X9.325Y-2.525
X9.325Y-2.625
X9.325Y-2.725
X9.325Y-2.825
X9.325Y-2.925
X9.325Y-4.5252
X9.325Y-4.6252
X9.325Y-4.7252
X9.325Y-4.8252
X9.325Y-4.9252
X9.325Y-5.0252
X9.325Y-5.1252
X9.325Y-5.2252
X9.325Y-5.3252
X9.325Y-5.4252
X9.3254Y-3.2756
X9.3254Y-3.3756
X9.3254Y-3.4756
X9.3254Y-3.5756
X9.3254Y-3.6756
X9.3254Y-3.7756
X9.3254Y-3.8756
X9.3254Y-3.9756
T3
X1.875Y-5.8
X1.875Y-5.9
X1.975Y-5.8
X1.975Y-5.9
X2.075Y-5.8
X2.075Y-5.9
X2.175Y-5.8
X2.175Y-5.9
X2.275Y-5.8
X2.275Y-5.9
X2.375Y-5.8
X2.375Y-5.9
X2.475Y-5.8
X2.475Y-5.9
X2.575Y-5.8
X2.575Y-5.9
X2.675Y-5.8
X2.675Y-5.9
X2.775Y-5.8
X2.775Y-5.9
X2.875Y-5.8
X2.875Y-5.9
X2.975Y-5.8
X2.975Y-5.9
X3.075Y-5.8
X3.075Y-5.9
X3.175Y-5.8
X3.175Y-5.9
X3.275Y-5.8
X3.275Y-5.9
X3.375Y-5.8
X3.375Y-5.9
X3.475Y-5.8
X3.475Y-5.9
X3.575Y-5.8
X3.575Y-5.9
X3.675Y-5.8
X3.675Y-5.9
X3.775Y-5.8
X3.775Y-5.9
X3.875Y-5.8
X3.875Y-5.9
X3.975Y-5.8
X3.975Y-5.9
X4.075Y-5.8
X4.075Y-5.9
X4.175Y-5.8
X4.175Y-5.9
X4.275Y-5.8
X4.275Y-5.9
X4.375Y-5.8
X4.375Y-5.9
X4.475Y-5.8
X4.475Y-5.9
X4.575Y-5.8
X4.575Y-5.9
X4.675Y-5.8
X4.675Y-5.9
X4.775Y-5.8
X4.775Y-5.9
X4.875Y-5.8
X4.875Y-5.9
X4.975Y-5.8
X4.975Y-5.9
X5.95Y-5.8
X5.95Y-5.9
X6.05Y-5.8
X6.05Y-5.9
X6.15Y-5.8
X6.15Y-5.9
X6.25Y-5.8
X6.25Y-5.9
X6.35Y-5.8
X6.35Y-5.9
X6.45Y-5.8
X6.45Y-5.9
X6.55Y-5.8
X6.55Y-5.9
X6.65Y-5.8
X6.65Y-5.9
X6.75Y-5.8
X6.75Y-5.9
X6.85Y-5.8
X6.85Y-5.9
X6.95Y-5.8
X6.95Y-5.9
X7.05Y-5.8
X7.05Y-5.9
X7.15Y-5.8
X7.15Y-5.9
X7.25Y-5.8
X7.25Y-5.9
X7.35Y-5.8
X7.35Y-5.9
X7.45Y-5.8
X7.45Y-5.9
X7.55Y-5.8
X7.55Y-5.9
X7.65Y-5.8
X7.65Y-5.9
X7.75Y-5.8
X7.75Y-5.9
X7.85Y-5.8
X7.85Y-5.9
X7.95Y-5.8
X7.95Y-5.9
X8.05Y-5.8
X8.05Y-5.9
X8.15Y-5.8
X8.15Y-5.9
X8.25Y-5.8
X8.25Y-5.9
X8.35Y-5.8
X8.35Y-5.9
X8.45Y-5.8
X8.45Y-5.9
X8.55Y-5.8
X8.55Y-5.9
X8.65Y-5.8
X8.65Y-5.9
X8.75Y-5.8
X8.75Y-5.9
X8.85Y-5.8
X8.85Y-5.9
X8.95Y-5.8
X8.95Y-5.9
X9.05Y-5.8
X9.05Y-5.9
T0
M30
