%TF.GenerationSoftware,KiCad,Pcbnew,7.0.7*%
%TF.CreationDate,2026-08-17T22:05:00-05:00*%
%TF.ProjectId,ALU,414c552e-6b69-4636-9164-5f7063625858,rev?*%
%TF.SameCoordinates,Original*%
%TF.FileFunction,Soldermask,Top*%
%TF.FilePolarity,Negative*%
%FSLAX46Y46*%
G04 Gerber Fmt 4.6, Leading zero omitted, Abs format (unit mm)*
G04 Created by KiCad (PCBNEW 7.0.7) date 2026-08-17 22:05:00*
%MOMM*%
%LPD*%
G01*
G04 APERTURE LIST*
G04 Aperture macros list*
%AMRoundRect*
0 Rectangle with rounded corners*
0 $1 Rounding radius*
0 $2 $3 $4 $5 $6 $7 $8 $9 X,Y pos of 4 corners*
0 Add a 4 corners polygon primitive as box body*
4,1,4,$2,$3,$4,$5,$6,$7,$8,$9,$2,$3,0*
0 Add four circle primitives for the rounded corners*
1,1,$1+$1,$2,$3*
1,1,$1+$1,$4,$5*
1,1,$1+$1,$6,$7*
1,1,$1+$1,$8,$9*
0 Add four rect primitives between the rounded corners*
20,1,$1+$1,$2,$3,$4,$5,0*
20,1,$1+$1,$4,$5,$6,$7,0*
20,1,$1+$1,$6,$7,$8,$9,0*
20,1,$1+$1,$8,$9,$2,$3,0*%
G04 Aperture macros list end*
%ADD10R,1.600000X1.600000*%
%ADD11O,1.600000X1.600000*%
%ADD12C,1.600000*%
%ADD13C,2.850000*%
%ADD14RoundRect,0.249999X0.525001X0.525001X-0.525001X0.525001X-0.525001X-0.525001X0.525001X-0.525001X0*%
%ADD15C,1.550000*%
G04 APERTURE END LIST*
D10*
%TO.C,U36*%
X82550000Y-26035000D03*
D11*
X82550000Y-28575000D03*
X82550000Y-31115000D03*
X82550000Y-33655000D03*
X82550000Y-36195000D03*
X82550000Y-38735000D03*
X82550000Y-41275000D03*
X90170000Y-41275000D03*
X90170000Y-38735000D03*
X90170000Y-36195000D03*
X90170000Y-33655000D03*
X90170000Y-31115000D03*
X90170000Y-28575000D03*
X90170000Y-26035000D03*
%TD*%
D12*
%TO.C,C24*%
X88860000Y-48260000D03*
X83860000Y-48260000D03*
%TD*%
D10*
%TO.C,U18*%
X208280000Y-51435000D03*
D11*
X208280000Y-53975000D03*
X208280000Y-56515000D03*
X208280000Y-59055000D03*
X208280000Y-61595000D03*
X208280000Y-64135000D03*
X208280000Y-66675000D03*
X208280000Y-69215000D03*
X208280000Y-71755000D03*
X208280000Y-74295000D03*
X215900000Y-74295000D03*
X215900000Y-71755000D03*
X215900000Y-69215000D03*
X215900000Y-66675000D03*
X215900000Y-64135000D03*
X215900000Y-61595000D03*
X215900000Y-59055000D03*
X215900000Y-56515000D03*
X215900000Y-53975000D03*
X215900000Y-51435000D03*
%TD*%
D10*
%TO.C,U26*%
X40640000Y-51435000D03*
D11*
X40640000Y-53975000D03*
X40640000Y-56515000D03*
X40640000Y-59055000D03*
X40640000Y-61595000D03*
X40640000Y-64135000D03*
X40640000Y-66675000D03*
X40640000Y-69215000D03*
X48260000Y-69215000D03*
X48260000Y-66675000D03*
X48260000Y-64135000D03*
X48260000Y-61595000D03*
X48260000Y-59055000D03*
X48260000Y-56515000D03*
X48260000Y-53975000D03*
X48260000Y-51435000D03*
%TD*%
D10*
%TO.C,U6*%
X124460000Y-114935000D03*
D11*
X124460000Y-117475000D03*
X124460000Y-120015000D03*
X124460000Y-122555000D03*
X124460000Y-125095000D03*
X124460000Y-127635000D03*
X124460000Y-130175000D03*
X124460000Y-132715000D03*
X124460000Y-135255000D03*
X124460000Y-137795000D03*
X132080000Y-137795000D03*
X132080000Y-135255000D03*
X132080000Y-132715000D03*
X132080000Y-130175000D03*
X132080000Y-127635000D03*
X132080000Y-125095000D03*
X132080000Y-122555000D03*
X132080000Y-120015000D03*
X132080000Y-117475000D03*
X132080000Y-114935000D03*
%TD*%
D12*
%TO.C,C3*%
X193635000Y-111760000D03*
X188635000Y-111760000D03*
%TD*%
%TO.C,C16*%
X46910000Y-80010000D03*
X41910000Y-80010000D03*
%TD*%
D10*
%TO.C,U20*%
X166370000Y-51435000D03*
D11*
X166370000Y-53975000D03*
X166370000Y-56515000D03*
X166370000Y-59055000D03*
X166370000Y-61595000D03*
X166370000Y-64135000D03*
X166370000Y-66675000D03*
X166370000Y-69215000D03*
X166370000Y-71755000D03*
X166370000Y-74295000D03*
X173990000Y-74295000D03*
X173990000Y-71755000D03*
X173990000Y-69215000D03*
X173990000Y-66675000D03*
X173990000Y-64135000D03*
X173990000Y-61595000D03*
X173990000Y-59055000D03*
X173990000Y-56515000D03*
X173990000Y-53975000D03*
X173990000Y-51435000D03*
%TD*%
D12*
%TO.C,C32*%
X130730000Y-22860000D03*
X125730000Y-22860000D03*
%TD*%
%TO.C,C39*%
X46910000Y-111760000D03*
X41910000Y-111760000D03*
%TD*%
D10*
%TO.C,U1*%
X229235000Y-114940000D03*
D11*
X229235000Y-117480000D03*
X229235000Y-120020000D03*
X229235000Y-122560000D03*
X229235000Y-125100000D03*
X229235000Y-127640000D03*
X229235000Y-130180000D03*
X229235000Y-132720000D03*
X229235000Y-135260000D03*
X229235000Y-137800000D03*
X236855000Y-137800000D03*
X236855000Y-135260000D03*
X236855000Y-132720000D03*
X236855000Y-130180000D03*
X236855000Y-127640000D03*
X236855000Y-125100000D03*
X236855000Y-122560000D03*
X236855000Y-120020000D03*
X236855000Y-117480000D03*
X236855000Y-114940000D03*
%TD*%
D12*
%TO.C,C22*%
X130730000Y-48260000D03*
X125730000Y-48260000D03*
%TD*%
%TO.C,C1*%
X235545000Y-111760000D03*
X230545000Y-111760000D03*
%TD*%
D10*
%TO.C,U28*%
X82550000Y-114935000D03*
D11*
X82550000Y-117475000D03*
X82550000Y-120015000D03*
X82550000Y-122555000D03*
X82550000Y-125095000D03*
X82550000Y-127635000D03*
X82550000Y-130175000D03*
X82550000Y-132715000D03*
X82550000Y-135255000D03*
X82550000Y-137795000D03*
X90170000Y-137795000D03*
X90170000Y-135255000D03*
X90170000Y-132715000D03*
X90170000Y-130175000D03*
X90170000Y-127635000D03*
X90170000Y-125095000D03*
X90170000Y-122555000D03*
X90170000Y-120015000D03*
X90170000Y-117475000D03*
X90170000Y-114935000D03*
%TD*%
D10*
%TO.C,U35*%
X103505000Y-26035000D03*
D11*
X103505000Y-28575000D03*
X103505000Y-31115000D03*
X103505000Y-33655000D03*
X103505000Y-36195000D03*
X103505000Y-38735000D03*
X103505000Y-41275000D03*
X111125000Y-41275000D03*
X111125000Y-38735000D03*
X111125000Y-36195000D03*
X111125000Y-33655000D03*
X111125000Y-31115000D03*
X111125000Y-28575000D03*
X111125000Y-26035000D03*
%TD*%
D10*
%TO.C,U30*%
X166370000Y-26035000D03*
D11*
X166370000Y-28575000D03*
X166370000Y-31115000D03*
X166370000Y-33655000D03*
X166370000Y-36195000D03*
X166370000Y-38735000D03*
X166370000Y-41275000D03*
X173990000Y-41275000D03*
X173990000Y-38735000D03*
X173990000Y-36195000D03*
X173990000Y-33655000D03*
X173990000Y-31115000D03*
X173990000Y-28575000D03*
X173990000Y-26035000D03*
%TD*%
D12*
%TO.C,C29*%
X67905000Y-111760000D03*
X62905000Y-111760000D03*
%TD*%
D10*
%TO.C,U34*%
X208280000Y-26035000D03*
D11*
X208280000Y-28575000D03*
X208280000Y-31115000D03*
X208280000Y-33655000D03*
X208280000Y-36195000D03*
X208280000Y-38735000D03*
X208280000Y-41275000D03*
X208280000Y-43815000D03*
X215900000Y-43815000D03*
X215900000Y-41275000D03*
X215900000Y-38735000D03*
X215900000Y-36195000D03*
X215900000Y-33655000D03*
X215900000Y-31115000D03*
X215900000Y-28575000D03*
X215900000Y-26035000D03*
%TD*%
D12*
%TO.C,C8*%
X214630000Y-80010000D03*
X209630000Y-80010000D03*
%TD*%
%TO.C,R1*%
X73025000Y-31115000D03*
D11*
X73025000Y-38735000D03*
%TD*%
D10*
%TO.C,C40*%
X43267600Y-139065000D03*
D12*
X45767600Y-139065000D03*
%TD*%
%TO.C,C26*%
X46910000Y-48260000D03*
X41910000Y-48260000D03*
%TD*%
%TO.C,C12*%
X130730000Y-80010000D03*
X125730000Y-80010000D03*
%TD*%
D10*
%TO.C,U16*%
X40640000Y-83185000D03*
D11*
X40640000Y-85725000D03*
X40640000Y-88265000D03*
X40640000Y-90805000D03*
X40640000Y-93345000D03*
X40640000Y-95885000D03*
X40640000Y-98425000D03*
X40640000Y-100965000D03*
X48260000Y-100965000D03*
X48260000Y-98425000D03*
X48260000Y-95885000D03*
X48260000Y-93345000D03*
X48260000Y-90805000D03*
X48260000Y-88265000D03*
X48260000Y-85725000D03*
X48260000Y-83185000D03*
%TD*%
D12*
%TO.C,C13*%
X109815000Y-80010000D03*
X104815000Y-80010000D03*
%TD*%
D10*
%TO.C,U9*%
X187325000Y-83185000D03*
D11*
X187325000Y-85725000D03*
X187325000Y-88265000D03*
X187325000Y-90805000D03*
X187325000Y-93345000D03*
X187325000Y-95885000D03*
X187325000Y-98425000D03*
X187325000Y-100965000D03*
X194945000Y-100965000D03*
X194945000Y-98425000D03*
X194945000Y-95885000D03*
X194945000Y-93345000D03*
X194945000Y-90805000D03*
X194945000Y-88265000D03*
X194945000Y-85725000D03*
X194945000Y-83185000D03*
%TD*%
D10*
%TO.C,U7*%
X229245000Y-83200000D03*
D11*
X229245000Y-85740000D03*
X229245000Y-88280000D03*
X229245000Y-90820000D03*
X229245000Y-93360000D03*
X229245000Y-95900000D03*
X229245000Y-98440000D03*
X229245000Y-100980000D03*
X236865000Y-100980000D03*
X236865000Y-98440000D03*
X236865000Y-95900000D03*
X236865000Y-93360000D03*
X236865000Y-90820000D03*
X236865000Y-88280000D03*
X236865000Y-85740000D03*
X236865000Y-83200000D03*
%TD*%
D12*
%TO.C,C6*%
X130730000Y-111760000D03*
X125730000Y-111760000D03*
%TD*%
D10*
%TO.C,U31*%
X145415000Y-26035000D03*
D11*
X145415000Y-28575000D03*
X145415000Y-31115000D03*
X145415000Y-33655000D03*
X145415000Y-36195000D03*
X145415000Y-38735000D03*
X145415000Y-41275000D03*
X153035000Y-41275000D03*
X153035000Y-38735000D03*
X153035000Y-36195000D03*
X153035000Y-33655000D03*
X153035000Y-31115000D03*
X153035000Y-28575000D03*
X153035000Y-26035000D03*
%TD*%
D10*
%TO.C,U12*%
X124460000Y-83185000D03*
D11*
X124460000Y-85725000D03*
X124460000Y-88265000D03*
X124460000Y-90805000D03*
X124460000Y-93345000D03*
X124460000Y-95885000D03*
X124460000Y-98425000D03*
X124460000Y-100965000D03*
X132080000Y-100965000D03*
X132080000Y-98425000D03*
X132080000Y-95885000D03*
X132080000Y-93345000D03*
X132080000Y-90805000D03*
X132080000Y-88265000D03*
X132080000Y-85725000D03*
X132080000Y-83185000D03*
%TD*%
D12*
%TO.C,C38*%
X193595000Y-22860000D03*
X188595000Y-22860000D03*
%TD*%
%TO.C,C23*%
X109775000Y-48260000D03*
X104775000Y-48260000D03*
%TD*%
D13*
%TO.C,J2*%
X234950000Y-152400000D03*
X146050000Y-152400000D03*
D14*
X229870000Y-149860000D03*
D15*
X227330000Y-149860000D03*
X224790000Y-149860000D03*
X222250000Y-149860000D03*
X219710000Y-149860000D03*
X217170000Y-149860000D03*
X214630000Y-149860000D03*
X212090000Y-149860000D03*
X209550000Y-149860000D03*
X207010000Y-149860000D03*
X204470000Y-149860000D03*
X201930000Y-149860000D03*
X199390000Y-149860000D03*
X196850000Y-149860000D03*
X194310000Y-149860000D03*
X191770000Y-149860000D03*
X189230000Y-149860000D03*
X186690000Y-149860000D03*
X184150000Y-149860000D03*
X181610000Y-149860000D03*
X179070000Y-149860000D03*
X176530000Y-149860000D03*
X173990000Y-149860000D03*
X171450000Y-149860000D03*
X168910000Y-149860000D03*
X166370000Y-149860000D03*
X163830000Y-149860000D03*
X161290000Y-149860000D03*
X158750000Y-149860000D03*
X156210000Y-149860000D03*
X153670000Y-149860000D03*
X151130000Y-149860000D03*
X229870000Y-147320000D03*
X227330000Y-147320000D03*
X224790000Y-147320000D03*
X222250000Y-147320000D03*
X219710000Y-147320000D03*
X217170000Y-147320000D03*
X214630000Y-147320000D03*
X212090000Y-147320000D03*
X209550000Y-147320000D03*
X207010000Y-147320000D03*
X204470000Y-147320000D03*
X201930000Y-147320000D03*
X199390000Y-147320000D03*
X196850000Y-147320000D03*
X194310000Y-147320000D03*
X191770000Y-147320000D03*
X189230000Y-147320000D03*
X186690000Y-147320000D03*
X184150000Y-147320000D03*
X181610000Y-147320000D03*
X179070000Y-147320000D03*
X176530000Y-147320000D03*
X173990000Y-147320000D03*
X171450000Y-147320000D03*
X168910000Y-147320000D03*
X166370000Y-147320000D03*
X163830000Y-147320000D03*
X161290000Y-147320000D03*
X158750000Y-147320000D03*
X156210000Y-147320000D03*
X153670000Y-147320000D03*
X151130000Y-147320000D03*
%TD*%
D10*
%TO.C,U23*%
X103505000Y-51435000D03*
D11*
X103505000Y-53975000D03*
X103505000Y-56515000D03*
X103505000Y-59055000D03*
X103505000Y-61595000D03*
X103505000Y-64135000D03*
X103505000Y-66675000D03*
X103505000Y-69215000D03*
X111125000Y-69215000D03*
X111125000Y-66675000D03*
X111125000Y-64135000D03*
X111125000Y-61595000D03*
X111125000Y-59055000D03*
X111125000Y-56515000D03*
X111125000Y-53975000D03*
X111125000Y-51435000D03*
%TD*%
D12*
%TO.C,C5*%
X151685000Y-111760000D03*
X146685000Y-111760000D03*
%TD*%
%TO.C,C15*%
X67905000Y-80010000D03*
X62905000Y-80010000D03*
%TD*%
%TO.C,R2*%
X198755000Y-33655000D03*
D11*
X198755000Y-41275000D03*
%TD*%
D13*
%TO.C,J1*%
X131445000Y-152400000D03*
X42545000Y-152400000D03*
D14*
X126365000Y-149860000D03*
D15*
X123825000Y-149860000D03*
X121285000Y-149860000D03*
X118745000Y-149860000D03*
X116205000Y-149860000D03*
X113665000Y-149860000D03*
X111125000Y-149860000D03*
X108585000Y-149860000D03*
X106045000Y-149860000D03*
X103505000Y-149860000D03*
X100965000Y-149860000D03*
X98425000Y-149860000D03*
X95885000Y-149860000D03*
X93345000Y-149860000D03*
X90805000Y-149860000D03*
X88265000Y-149860000D03*
X85725000Y-149860000D03*
X83185000Y-149860000D03*
X80645000Y-149860000D03*
X78105000Y-149860000D03*
X75565000Y-149860000D03*
X73025000Y-149860000D03*
X70485000Y-149860000D03*
X67945000Y-149860000D03*
X65405000Y-149860000D03*
X62865000Y-149860000D03*
X60325000Y-149860000D03*
X57785000Y-149860000D03*
X55245000Y-149860000D03*
X52705000Y-149860000D03*
X50165000Y-149860000D03*
X47625000Y-149860000D03*
X126365000Y-147320000D03*
X123825000Y-147320000D03*
X121285000Y-147320000D03*
X118745000Y-147320000D03*
X116205000Y-147320000D03*
X113665000Y-147320000D03*
X111125000Y-147320000D03*
X108585000Y-147320000D03*
X106045000Y-147320000D03*
X103505000Y-147320000D03*
X100965000Y-147320000D03*
X98425000Y-147320000D03*
X95885000Y-147320000D03*
X93345000Y-147320000D03*
X90805000Y-147320000D03*
X88265000Y-147320000D03*
X85725000Y-147320000D03*
X83185000Y-147320000D03*
X80645000Y-147320000D03*
X78105000Y-147320000D03*
X75565000Y-147320000D03*
X73025000Y-147320000D03*
X70485000Y-147320000D03*
X67945000Y-147320000D03*
X65405000Y-147320000D03*
X62865000Y-147320000D03*
X60325000Y-147320000D03*
X57785000Y-147320000D03*
X55245000Y-147320000D03*
X52705000Y-147320000D03*
X50165000Y-147320000D03*
X47625000Y-147320000D03*
%TD*%
D10*
%TO.C,U32*%
X124460000Y-26035000D03*
D11*
X124460000Y-28575000D03*
X124460000Y-31115000D03*
X124460000Y-33655000D03*
X124460000Y-36195000D03*
X124460000Y-38735000D03*
X124460000Y-41275000D03*
X132080000Y-41275000D03*
X132080000Y-38735000D03*
X132080000Y-36195000D03*
X132080000Y-33655000D03*
X132080000Y-31115000D03*
X132080000Y-28575000D03*
X132080000Y-26035000D03*
%TD*%
D10*
%TO.C,U25*%
X61595000Y-51435000D03*
D11*
X61595000Y-53975000D03*
X61595000Y-56515000D03*
X61595000Y-59055000D03*
X61595000Y-61595000D03*
X61595000Y-64135000D03*
X61595000Y-66675000D03*
X61595000Y-69215000D03*
X69215000Y-69215000D03*
X69215000Y-66675000D03*
X69215000Y-64135000D03*
X69215000Y-61595000D03*
X69215000Y-59055000D03*
X69215000Y-56515000D03*
X69215000Y-53975000D03*
X69215000Y-51435000D03*
%TD*%
D12*
%TO.C,C17*%
X235545000Y-48260000D03*
X230545000Y-48260000D03*
%TD*%
D10*
%TO.C,U2*%
X208280000Y-114935000D03*
D11*
X208280000Y-117475000D03*
X208280000Y-120015000D03*
X208280000Y-122555000D03*
X208280000Y-125095000D03*
X208280000Y-127635000D03*
X208280000Y-130175000D03*
X208280000Y-132715000D03*
X208280000Y-135255000D03*
X208280000Y-137795000D03*
X215900000Y-137795000D03*
X215900000Y-135255000D03*
X215900000Y-132715000D03*
X215900000Y-130175000D03*
X215900000Y-127635000D03*
X215900000Y-125095000D03*
X215900000Y-122555000D03*
X215900000Y-120015000D03*
X215900000Y-117475000D03*
X215900000Y-114935000D03*
%TD*%
D12*
%TO.C,C21*%
X151685000Y-48260000D03*
X146685000Y-48260000D03*
%TD*%
D10*
%TO.C,U17*%
X229235000Y-51435000D03*
D11*
X229235000Y-53975000D03*
X229235000Y-56515000D03*
X229235000Y-59055000D03*
X229235000Y-61595000D03*
X229235000Y-64135000D03*
X229235000Y-66675000D03*
X229235000Y-69215000D03*
X229235000Y-71755000D03*
X229235000Y-74295000D03*
X236855000Y-74295000D03*
X236855000Y-71755000D03*
X236855000Y-69215000D03*
X236855000Y-66675000D03*
X236855000Y-64135000D03*
X236855000Y-61595000D03*
X236855000Y-59055000D03*
X236855000Y-56515000D03*
X236855000Y-53975000D03*
X236855000Y-51435000D03*
%TD*%
D12*
%TO.C,C35*%
X109815000Y-22860000D03*
X104815000Y-22860000D03*
%TD*%
%TO.C,C20*%
X172680000Y-48260000D03*
X167680000Y-48260000D03*
%TD*%
%TO.C,C36*%
X88820000Y-22860000D03*
X83820000Y-22860000D03*
%TD*%
%TO.C,C10*%
X172640000Y-80010000D03*
X167640000Y-80010000D03*
%TD*%
%TO.C,C27*%
X109775000Y-111760000D03*
X104775000Y-111760000D03*
%TD*%
%TO.C,C14*%
X88860000Y-80010000D03*
X83860000Y-80010000D03*
%TD*%
D10*
%TO.C,U29*%
X61595000Y-114935000D03*
D11*
X61595000Y-117475000D03*
X61595000Y-120015000D03*
X61595000Y-122555000D03*
X61595000Y-125095000D03*
X61595000Y-127635000D03*
X61595000Y-130175000D03*
X61595000Y-132715000D03*
X61595000Y-135255000D03*
X61595000Y-137795000D03*
X69215000Y-137795000D03*
X69215000Y-135255000D03*
X69215000Y-132715000D03*
X69215000Y-130175000D03*
X69215000Y-127635000D03*
X69215000Y-125095000D03*
X69215000Y-122555000D03*
X69215000Y-120015000D03*
X69215000Y-117475000D03*
X69215000Y-114935000D03*
%TD*%
D10*
%TO.C,U14*%
X82550000Y-83185000D03*
D11*
X82550000Y-85725000D03*
X82550000Y-88265000D03*
X82550000Y-90805000D03*
X82550000Y-93345000D03*
X82550000Y-95885000D03*
X82550000Y-98425000D03*
X82550000Y-100965000D03*
X90170000Y-100965000D03*
X90170000Y-98425000D03*
X90170000Y-95885000D03*
X90170000Y-93345000D03*
X90170000Y-90805000D03*
X90170000Y-88265000D03*
X90170000Y-85725000D03*
X90170000Y-83185000D03*
%TD*%
D10*
%TO.C,U10*%
X166370000Y-83185000D03*
D11*
X166370000Y-85725000D03*
X166370000Y-88265000D03*
X166370000Y-90805000D03*
X166370000Y-93345000D03*
X166370000Y-95885000D03*
X166370000Y-98425000D03*
X166370000Y-100965000D03*
X173990000Y-100965000D03*
X173990000Y-98425000D03*
X173990000Y-95885000D03*
X173990000Y-93345000D03*
X173990000Y-90805000D03*
X173990000Y-88265000D03*
X173990000Y-85725000D03*
X173990000Y-83185000D03*
%TD*%
D10*
%TO.C,U3*%
X187325000Y-114935000D03*
D11*
X187325000Y-117475000D03*
X187325000Y-120015000D03*
X187325000Y-122555000D03*
X187325000Y-125095000D03*
X187325000Y-127635000D03*
X187325000Y-130175000D03*
X187325000Y-132715000D03*
X187325000Y-135255000D03*
X187325000Y-137795000D03*
X194945000Y-137795000D03*
X194945000Y-135255000D03*
X194945000Y-132715000D03*
X194945000Y-130175000D03*
X194945000Y-127635000D03*
X194945000Y-125095000D03*
X194945000Y-122555000D03*
X194945000Y-120015000D03*
X194945000Y-117475000D03*
X194945000Y-114935000D03*
%TD*%
D12*
%TO.C,C30*%
X172640000Y-22860000D03*
X167640000Y-22860000D03*
%TD*%
%TO.C,C37*%
X67905000Y-22860000D03*
X62905000Y-22860000D03*
%TD*%
%TO.C,C18*%
X214590000Y-48260000D03*
X209590000Y-48260000D03*
%TD*%
D10*
%TO.C,U38*%
X187325000Y-26035000D03*
D11*
X187325000Y-28575000D03*
X187325000Y-31115000D03*
X187325000Y-33655000D03*
X187325000Y-36195000D03*
X187325000Y-38735000D03*
X187325000Y-41275000D03*
X187325000Y-43815000D03*
X194945000Y-43815000D03*
X194945000Y-41275000D03*
X194945000Y-38735000D03*
X194945000Y-36195000D03*
X194945000Y-33655000D03*
X194945000Y-31115000D03*
X194945000Y-28575000D03*
X194945000Y-26035000D03*
%TD*%
D12*
%TO.C,C19*%
X193635000Y-48260000D03*
X188635000Y-48260000D03*
%TD*%
D10*
%TO.C,U24*%
X82560000Y-51435000D03*
D11*
X82560000Y-53975000D03*
X82560000Y-56515000D03*
X82560000Y-59055000D03*
X82560000Y-61595000D03*
X82560000Y-64135000D03*
X82560000Y-66675000D03*
X82560000Y-69215000D03*
X90180000Y-69215000D03*
X90180000Y-66675000D03*
X90180000Y-64135000D03*
X90180000Y-61595000D03*
X90180000Y-59055000D03*
X90180000Y-56515000D03*
X90180000Y-53975000D03*
X90180000Y-51435000D03*
%TD*%
D12*
%TO.C,C9*%
X193595000Y-80010000D03*
X188595000Y-80010000D03*
%TD*%
D10*
%TO.C,U11*%
X145415000Y-83185000D03*
D11*
X145415000Y-85725000D03*
X145415000Y-88265000D03*
X145415000Y-90805000D03*
X145415000Y-93345000D03*
X145415000Y-95885000D03*
X145415000Y-98425000D03*
X145415000Y-100965000D03*
X153035000Y-100965000D03*
X153035000Y-98425000D03*
X153035000Y-95885000D03*
X153035000Y-93345000D03*
X153035000Y-90805000D03*
X153035000Y-88265000D03*
X153035000Y-85725000D03*
X153035000Y-83185000D03*
%TD*%
D10*
%TO.C,U5*%
X145415000Y-114935000D03*
D11*
X145415000Y-117475000D03*
X145415000Y-120015000D03*
X145415000Y-122555000D03*
X145415000Y-125095000D03*
X145415000Y-127635000D03*
X145415000Y-130175000D03*
X145415000Y-132715000D03*
X145415000Y-135255000D03*
X145415000Y-137795000D03*
X153035000Y-137795000D03*
X153035000Y-135255000D03*
X153035000Y-132715000D03*
X153035000Y-130175000D03*
X153035000Y-127635000D03*
X153035000Y-125095000D03*
X153035000Y-122555000D03*
X153035000Y-120015000D03*
X153035000Y-117475000D03*
X153035000Y-114935000D03*
%TD*%
D12*
%TO.C,C4*%
X172680000Y-111760000D03*
X167680000Y-111760000D03*
%TD*%
D10*
%TO.C,U22*%
X124460000Y-51435000D03*
D11*
X124460000Y-53975000D03*
X124460000Y-56515000D03*
X124460000Y-59055000D03*
X124460000Y-61595000D03*
X124460000Y-64135000D03*
X124460000Y-66675000D03*
X124460000Y-69215000D03*
X132080000Y-69215000D03*
X132080000Y-66675000D03*
X132080000Y-64135000D03*
X132080000Y-61595000D03*
X132080000Y-59055000D03*
X132080000Y-56515000D03*
X132080000Y-53975000D03*
X132080000Y-51435000D03*
%TD*%
D10*
%TO.C,U21*%
X145415000Y-51435000D03*
D11*
X145415000Y-53975000D03*
X145415000Y-56515000D03*
X145415000Y-59055000D03*
X145415000Y-61595000D03*
X145415000Y-64135000D03*
X145415000Y-66675000D03*
X145415000Y-69215000D03*
X145415000Y-71755000D03*
X145415000Y-74295000D03*
X153035000Y-74295000D03*
X153035000Y-71755000D03*
X153035000Y-69215000D03*
X153035000Y-66675000D03*
X153035000Y-64135000D03*
X153035000Y-61595000D03*
X153035000Y-59055000D03*
X153035000Y-56515000D03*
X153035000Y-53975000D03*
X153035000Y-51435000D03*
%TD*%
D12*
%TO.C,C2*%
X214550000Y-111760000D03*
X209550000Y-111760000D03*
%TD*%
%TO.C,C25*%
X67865000Y-48260000D03*
X62865000Y-48260000D03*
%TD*%
D10*
%TO.C,U8*%
X208280000Y-83185000D03*
D11*
X208280000Y-85725000D03*
X208280000Y-88265000D03*
X208280000Y-90805000D03*
X208280000Y-93345000D03*
X208280000Y-95885000D03*
X208280000Y-98425000D03*
X208280000Y-100965000D03*
X215900000Y-100965000D03*
X215900000Y-98425000D03*
X215900000Y-95885000D03*
X215900000Y-93345000D03*
X215900000Y-90805000D03*
X215900000Y-88265000D03*
X215900000Y-85725000D03*
X215900000Y-83185000D03*
%TD*%
D12*
%TO.C,C28*%
X88860000Y-111760000D03*
X83860000Y-111760000D03*
%TD*%
D10*
%TO.C,U13*%
X103505000Y-83185000D03*
D11*
X103505000Y-85725000D03*
X103505000Y-88265000D03*
X103505000Y-90805000D03*
X103505000Y-93345000D03*
X103505000Y-95885000D03*
X103505000Y-98425000D03*
X103505000Y-100965000D03*
X111125000Y-100965000D03*
X111125000Y-98425000D03*
X111125000Y-95885000D03*
X111125000Y-93345000D03*
X111125000Y-90805000D03*
X111125000Y-88265000D03*
X111125000Y-85725000D03*
X111125000Y-83185000D03*
%TD*%
D10*
%TO.C,U33*%
X229235000Y-26035000D03*
D11*
X229235000Y-28575000D03*
X229235000Y-31115000D03*
X229235000Y-33655000D03*
X229235000Y-36195000D03*
X229235000Y-38735000D03*
X229235000Y-41275000D03*
X236855000Y-41275000D03*
X236855000Y-38735000D03*
X236855000Y-36195000D03*
X236855000Y-33655000D03*
X236855000Y-31115000D03*
X236855000Y-28575000D03*
X236855000Y-26035000D03*
%TD*%
D12*
%TO.C,C7*%
X235505000Y-80010000D03*
X230505000Y-80010000D03*
%TD*%
%TO.C,C34*%
X214550000Y-22860000D03*
X209550000Y-22860000D03*
%TD*%
%TO.C,C31*%
X151685000Y-22860000D03*
X146685000Y-22860000D03*
%TD*%
D10*
%TO.C,U15*%
X61595000Y-83185000D03*
D11*
X61595000Y-85725000D03*
X61595000Y-88265000D03*
X61595000Y-90805000D03*
X61595000Y-93345000D03*
X61595000Y-95885000D03*
X61595000Y-98425000D03*
X61595000Y-100965000D03*
X69215000Y-100965000D03*
X69215000Y-98425000D03*
X69215000Y-95885000D03*
X69215000Y-93345000D03*
X69215000Y-90805000D03*
X69215000Y-88265000D03*
X69215000Y-85725000D03*
X69215000Y-83185000D03*
%TD*%
D10*
%TO.C,U19*%
X187325000Y-51435000D03*
D11*
X187325000Y-53975000D03*
X187325000Y-56515000D03*
X187325000Y-59055000D03*
X187325000Y-61595000D03*
X187325000Y-64135000D03*
X187325000Y-66675000D03*
X187325000Y-69215000D03*
X187325000Y-71755000D03*
X187325000Y-74295000D03*
X194945000Y-74295000D03*
X194945000Y-71755000D03*
X194945000Y-69215000D03*
X194945000Y-66675000D03*
X194945000Y-64135000D03*
X194945000Y-61595000D03*
X194945000Y-59055000D03*
X194945000Y-56515000D03*
X194945000Y-53975000D03*
X194945000Y-51435000D03*
%TD*%
D12*
%TO.C,C33*%
X235505000Y-22860000D03*
X230505000Y-22860000D03*
%TD*%
D10*
%TO.C,U37*%
X61595000Y-26035000D03*
D11*
X61595000Y-28575000D03*
X61595000Y-31115000D03*
X61595000Y-33655000D03*
X61595000Y-36195000D03*
X61595000Y-38735000D03*
X61595000Y-41275000D03*
X69215000Y-41275000D03*
X69215000Y-38735000D03*
X69215000Y-36195000D03*
X69215000Y-33655000D03*
X69215000Y-31115000D03*
X69215000Y-28575000D03*
X69215000Y-26035000D03*
%TD*%
D12*
%TO.C,C11*%
X151725000Y-80010000D03*
X146725000Y-80010000D03*
%TD*%
D10*
%TO.C,U27*%
X103505000Y-114935000D03*
D11*
X103505000Y-117475000D03*
X103505000Y-120015000D03*
X103505000Y-122555000D03*
X103505000Y-125095000D03*
X103505000Y-127635000D03*
X103505000Y-130175000D03*
X103505000Y-132715000D03*
X103505000Y-135255000D03*
X103505000Y-137795000D03*
X111125000Y-137795000D03*
X111125000Y-135255000D03*
X111125000Y-132715000D03*
X111125000Y-130175000D03*
X111125000Y-127635000D03*
X111125000Y-125095000D03*
X111125000Y-122555000D03*
X111125000Y-120015000D03*
X111125000Y-117475000D03*
X111125000Y-114935000D03*
%TD*%
D10*
%TO.C,U39*%
X40650000Y-114930000D03*
D11*
X40650000Y-117470000D03*
X40650000Y-120010000D03*
X40650000Y-122550000D03*
X40650000Y-125090000D03*
X40650000Y-127630000D03*
X40650000Y-130170000D03*
X48270000Y-130170000D03*
X48270000Y-127630000D03*
X48270000Y-125090000D03*
X48270000Y-122550000D03*
X48270000Y-120010000D03*
X48270000Y-117470000D03*
X48270000Y-114930000D03*
%TD*%
D10*
%TO.C,U4*%
X166370000Y-114935000D03*
D11*
X166370000Y-117475000D03*
X166370000Y-120015000D03*
X166370000Y-122555000D03*
X166370000Y-125095000D03*
X166370000Y-127635000D03*
X166370000Y-130175000D03*
X166370000Y-132715000D03*
X166370000Y-135255000D03*
X166370000Y-137795000D03*
X173990000Y-137795000D03*
X173990000Y-135255000D03*
X173990000Y-132715000D03*
X173990000Y-130175000D03*
X173990000Y-127635000D03*
X173990000Y-125095000D03*
X173990000Y-122555000D03*
X173990000Y-120015000D03*
X173990000Y-117475000D03*
X173990000Y-114935000D03*
%TD*%
M02*
