%TF.GenerationSoftware,KiCad,Pcbnew,7.0.7*%
%TF.CreationDate,2026-08-17T21:43:08-05:00*%
%TF.ProjectId,Memory,4d656d6f-7279-42e6-9b69-6361645f7063,rev?*%
%TF.SameCoordinates,Original*%
%TF.FileFunction,Drillmap*%
%TF.FilePolarity,Positive*%
%FSLAX45Y45*%
G04 Gerber Fmt 4.5, Leading zero omitted, Abs format (unit mm)*
G04 Created by KiCad (PCBNEW 7.0.7) date 2026-08-17 21:43:08*
%MOMM*%
%LPD*%
G01*
G04 APERTURE LIST*
%ADD10C,0.100000*%
%ADD11C,0.200000*%
%ADD12C,0.040000*%
%ADD13C,0.080000*%
G04 APERTURE END LIST*
D10*
X3556000Y-1778000D02*
X24193500Y-1778000D01*
X24193500Y-15532100D01*
X3556000Y-15532100D01*
X3556000Y-1778000D01*
D11*
D12*
X6726380Y-5486010D02*
X6766380Y-5526010D01*
X6766380Y-5486010D02*
X6726380Y-5526010D01*
X6938590Y-10732750D02*
X6978590Y-10772750D01*
X6978590Y-10732750D02*
X6938590Y-10772750D01*
X6968270Y-8697240D02*
X7008270Y-8737240D01*
X7008270Y-8697240D02*
X6968270Y-8737240D01*
X7038170Y-10593450D02*
X7078170Y-10633450D01*
X7078170Y-10593450D02*
X7038170Y-10633450D01*
X7081330Y-10483680D02*
X7121330Y-10523680D01*
X7121330Y-10483680D02*
X7081330Y-10523680D01*
X7137440Y-10346160D02*
X7177440Y-10386160D01*
X7177440Y-10346160D02*
X7137440Y-10386160D01*
X7966940Y-13022550D02*
X8006940Y-13062550D01*
X8006940Y-13022550D02*
X7966940Y-13062550D01*
X8184100Y-8964320D02*
X8224100Y-9004320D01*
X8224100Y-8964320D02*
X8184100Y-9004320D01*
X8191240Y-5137680D02*
X8231240Y-5177680D01*
X8231240Y-5137680D02*
X8191240Y-5177680D01*
X8436000Y-13862400D02*
X8476000Y-13902400D01*
X8476000Y-13862400D02*
X8436000Y-13902400D01*
X8753410Y-3511900D02*
X8793410Y-3551900D01*
X8793410Y-3511900D02*
X8753410Y-3551900D01*
X9315100Y-11418660D02*
X9355100Y-11458660D01*
X9355100Y-11418660D02*
X9315100Y-11458660D01*
X9989690Y-13939990D02*
X10029690Y-13979990D01*
X10029690Y-13939990D02*
X9989690Y-13979990D01*
X10049440Y-13853370D02*
X10089440Y-13893370D01*
X10089440Y-13853370D02*
X10049440Y-13893370D01*
X10188210Y-10901180D02*
X10228210Y-10941180D01*
X10228210Y-10901180D02*
X10188210Y-10941180D01*
X10510380Y-13699680D02*
X10550380Y-13739680D01*
X10550380Y-13699680D02*
X10510380Y-13739680D01*
X10822970Y-8317140D02*
X10862970Y-8357140D01*
X10862970Y-8317140D02*
X10822970Y-8357140D01*
X11139070Y-8497670D02*
X11179070Y-8537670D01*
X11179070Y-8497670D02*
X11139070Y-8537670D01*
X11158580Y-10789460D02*
X11198580Y-10829460D01*
X11198580Y-10789460D02*
X11158580Y-10829460D01*
X11315210Y-8771430D02*
X11355210Y-8811430D01*
X11355210Y-8771430D02*
X11315210Y-8811430D01*
X11362980Y-10508190D02*
X11402980Y-10548190D01*
X11402980Y-10508190D02*
X11362980Y-10548190D01*
X11427130Y-10320540D02*
X11467130Y-10360540D01*
X11467130Y-10320540D02*
X11427130Y-10360540D01*
X11656900Y-8645670D02*
X11696900Y-8685670D01*
X11696900Y-8645670D02*
X11656900Y-8685670D01*
X11856540Y-8695790D02*
X11896540Y-8735790D01*
X11896540Y-8695790D02*
X11856540Y-8735790D01*
X12090540Y-10515770D02*
X12130540Y-10555770D01*
X12130540Y-10515770D02*
X12090540Y-10555770D01*
X12137320Y-9549690D02*
X12177320Y-9589690D01*
X12177320Y-9549690D02*
X12137320Y-9589690D01*
X12202320Y-9314560D02*
X12242320Y-9354560D01*
X12242320Y-9314560D02*
X12202320Y-9354560D01*
X12394010Y-10713680D02*
X12434010Y-10753680D01*
X12434010Y-10713680D02*
X12394010Y-10753680D01*
X12480270Y-8454410D02*
X12520270Y-8494410D01*
X12520270Y-8454410D02*
X12480270Y-8494410D01*
X12690160Y-7092000D02*
X12730160Y-7132000D01*
X12730160Y-7092000D02*
X12690160Y-7132000D01*
X12886610Y-12686930D02*
X12926610Y-12726930D01*
X12926610Y-12686930D02*
X12886610Y-12726930D01*
X12969080Y-12420830D02*
X13009080Y-12460830D01*
X13009080Y-12420830D02*
X12969080Y-12460830D01*
X13336800Y-13138960D02*
X13376800Y-13178960D01*
X13376800Y-13138960D02*
X13336800Y-13178960D01*
X13342340Y-12368130D02*
X13382340Y-12408130D01*
X13382340Y-12368130D02*
X13342340Y-12408130D01*
X13476410Y-9264200D02*
X13516410Y-9304200D01*
X13516410Y-9264200D02*
X13476410Y-9304200D01*
X13507840Y-9871540D02*
X13547840Y-9911540D01*
X13547840Y-9871540D02*
X13507840Y-9911540D01*
X13582630Y-8964320D02*
X13622630Y-9004320D01*
X13622630Y-8964320D02*
X13582630Y-9004320D01*
X13628090Y-13764950D02*
X13668090Y-13804950D01*
X13668090Y-13764950D02*
X13628090Y-13804950D01*
X13778170Y-9191660D02*
X13818170Y-9231660D01*
X13818170Y-9191660D02*
X13778170Y-9231660D01*
X13838200Y-13927920D02*
X13878200Y-13967920D01*
X13878200Y-13927920D02*
X13838200Y-13967920D01*
X14428280Y-13841810D02*
X14468280Y-13881810D01*
X14468280Y-13841810D02*
X14428280Y-13881810D01*
X14870290Y-8676050D02*
X14910290Y-8716050D01*
X14910290Y-8676050D02*
X14870290Y-8716050D01*
X14933380Y-10502170D02*
X14973380Y-10542170D01*
X14973380Y-10502170D02*
X14933380Y-10542170D01*
X15067260Y-8814630D02*
X15107260Y-8854630D01*
X15107260Y-8814630D02*
X15067260Y-8854630D01*
X15085540Y-7329480D02*
X15125540Y-7369480D01*
X15125540Y-7329480D02*
X15085540Y-7369480D01*
X15134010Y-8201640D02*
X15174010Y-8241640D01*
X15174010Y-8201640D02*
X15134010Y-8241640D01*
X15323740Y-9314180D02*
X15363740Y-9354180D01*
X15363740Y-9314180D02*
X15323740Y-9354180D01*
X15340060Y-12224290D02*
X15380060Y-12264290D01*
X15380060Y-12224290D02*
X15340060Y-12264290D01*
X15460180Y-9421790D02*
X15500180Y-9461790D01*
X15500180Y-9421790D02*
X15460180Y-9461790D01*
X15514930Y-9113380D02*
X15554930Y-9153380D01*
X15554930Y-9113380D02*
X15514930Y-9153380D01*
X15598600Y-12870500D02*
X15638600Y-12910500D01*
X15638600Y-12870500D02*
X15598600Y-12910500D01*
X15612060Y-10543820D02*
X15652060Y-10583820D01*
X15652060Y-10543820D02*
X15612060Y-10583820D01*
X15630710Y-13110030D02*
X15670710Y-13150030D01*
X15670710Y-13110030D02*
X15630710Y-13150030D01*
X16105400Y-10706790D02*
X16145400Y-10746790D01*
X16145400Y-10706790D02*
X16105400Y-10746790D01*
X16139660Y-13528490D02*
X16179660Y-13568490D01*
X16179660Y-13528490D02*
X16139660Y-13568490D01*
X16152150Y-8425710D02*
X16192150Y-8465710D01*
X16192150Y-8425710D02*
X16152150Y-8465710D01*
X16170670Y-9120530D02*
X16210670Y-9160530D01*
X16210670Y-9120530D02*
X16170670Y-9160530D01*
X16216630Y-13678090D02*
X16256630Y-13718090D01*
X16256630Y-13678090D02*
X16216630Y-13718090D01*
X16229260Y-6160070D02*
X16269260Y-6200070D01*
X16269260Y-6160070D02*
X16229260Y-6200070D01*
X16286330Y-4431110D02*
X16326330Y-4471110D01*
X16326330Y-4431110D02*
X16286330Y-4471110D01*
X16721410Y-8954580D02*
X16761410Y-8994580D01*
X16761410Y-8954580D02*
X16721410Y-8994580D01*
X17147520Y-8896370D02*
X17187520Y-8936370D01*
X17187520Y-8896370D02*
X17147520Y-8936370D01*
X17169990Y-5964010D02*
X17209990Y-6004010D01*
X17209990Y-5964010D02*
X17169990Y-6004010D01*
X17198240Y-5825980D02*
X17238240Y-5865980D01*
X17238240Y-5825980D02*
X17198240Y-5865980D01*
X17436450Y-2917720D02*
X17476450Y-2957720D01*
X17476450Y-2917720D02*
X17436450Y-2957720D01*
X17439530Y-2810350D02*
X17479530Y-2850350D01*
X17479530Y-2810350D02*
X17439530Y-2850350D01*
X18019970Y-5958470D02*
X18059970Y-5998470D01*
X18059970Y-5958470D02*
X18019970Y-5998470D01*
X19073870Y-3928710D02*
X19113870Y-3968710D01*
X19113870Y-3928710D02*
X19073870Y-3968710D01*
X19168990Y-7419970D02*
X19208990Y-7459970D01*
X19208990Y-7419970D02*
X19168990Y-7459970D01*
X19591510Y-13720650D02*
X19631510Y-13760650D01*
X19631510Y-13720650D02*
X19591510Y-13760650D01*
X19625400Y-13885890D02*
X19665400Y-13925890D01*
X19665400Y-13885890D02*
X19625400Y-13925890D01*
X19665000Y-14146240D02*
X19705000Y-14186240D01*
X19705000Y-14146240D02*
X19665000Y-14186240D01*
X20014920Y-10489150D02*
X20054920Y-10529150D01*
X20054920Y-10489150D02*
X20014920Y-10529150D01*
X21740170Y-12254500D02*
X21780170Y-12294500D01*
X21780170Y-12254500D02*
X21740170Y-12294500D01*
X21962650Y-9549930D02*
X22002650Y-9589930D01*
X22002650Y-9549930D02*
X21962650Y-9589930D01*
X22002060Y-12348030D02*
X22042060Y-12388030D01*
X22042060Y-12348030D02*
X22002060Y-12388030D01*
D13*
X4366760Y-13906500D02*
G75*
G03*
X4366760Y-13906500I-40000J0D01*
G01*
X4616760Y-13906500D02*
G75*
G03*
X4616760Y-13906500I-40000J0D01*
G01*
X4929500Y-6731000D02*
G75*
G03*
X4929500Y-6731000I-40000J0D01*
G01*
X4929500Y-6985000D02*
G75*
G03*
X4929500Y-6985000I-40000J0D01*
G01*
X4929500Y-7239000D02*
G75*
G03*
X4929500Y-7239000I-40000J0D01*
G01*
X4929500Y-7493000D02*
G75*
G03*
X4929500Y-7493000I-40000J0D01*
G01*
X4929500Y-7747000D02*
G75*
G03*
X4929500Y-7747000I-40000J0D01*
G01*
X4929500Y-8001000D02*
G75*
G03*
X4929500Y-8001000I-40000J0D01*
G01*
X4929500Y-8255000D02*
G75*
G03*
X4929500Y-8255000I-40000J0D01*
G01*
X4930500Y-11239000D02*
G75*
G03*
X4930500Y-11239000I-40000J0D01*
G01*
X4930500Y-11493000D02*
G75*
G03*
X4930500Y-11493000I-40000J0D01*
G01*
X4930500Y-11747000D02*
G75*
G03*
X4930500Y-11747000I-40000J0D01*
G01*
X4930500Y-12001000D02*
G75*
G03*
X4930500Y-12001000I-40000J0D01*
G01*
X4930500Y-12255000D02*
G75*
G03*
X4930500Y-12255000I-40000J0D01*
G01*
X4930500Y-12509000D02*
G75*
G03*
X4930500Y-12509000I-40000J0D01*
G01*
X4930500Y-12763000D02*
G75*
G03*
X4930500Y-12763000I-40000J0D01*
G01*
X5060500Y-6413500D02*
G75*
G03*
X5060500Y-6413500I-40000J0D01*
G01*
X5060500Y-10922000D02*
G75*
G03*
X5060500Y-10922000I-40000J0D01*
G01*
X5560500Y-6413500D02*
G75*
G03*
X5560500Y-6413500I-40000J0D01*
G01*
X5560500Y-10922000D02*
G75*
G03*
X5560500Y-10922000I-40000J0D01*
G01*
X5691500Y-6731000D02*
G75*
G03*
X5691500Y-6731000I-40000J0D01*
G01*
X5691500Y-6985000D02*
G75*
G03*
X5691500Y-6985000I-40000J0D01*
G01*
X5691500Y-7239000D02*
G75*
G03*
X5691500Y-7239000I-40000J0D01*
G01*
X5691500Y-7493000D02*
G75*
G03*
X5691500Y-7493000I-40000J0D01*
G01*
X5691500Y-7747000D02*
G75*
G03*
X5691500Y-7747000I-40000J0D01*
G01*
X5691500Y-8001000D02*
G75*
G03*
X5691500Y-8001000I-40000J0D01*
G01*
X5691500Y-8255000D02*
G75*
G03*
X5691500Y-8255000I-40000J0D01*
G01*
X5692500Y-11239000D02*
G75*
G03*
X5692500Y-11239000I-40000J0D01*
G01*
X5692500Y-11493000D02*
G75*
G03*
X5692500Y-11493000I-40000J0D01*
G01*
X5692500Y-11747000D02*
G75*
G03*
X5692500Y-11747000I-40000J0D01*
G01*
X5692500Y-12001000D02*
G75*
G03*
X5692500Y-12001000I-40000J0D01*
G01*
X5692500Y-12255000D02*
G75*
G03*
X5692500Y-12255000I-40000J0D01*
G01*
X5692500Y-12509000D02*
G75*
G03*
X5692500Y-12509000I-40000J0D01*
G01*
X5692500Y-12763000D02*
G75*
G03*
X5692500Y-12763000I-40000J0D01*
G01*
X6390000Y-3238500D02*
G75*
G03*
X6390000Y-3238500I-40000J0D01*
G01*
X6390000Y-3738500D02*
G75*
G03*
X6390000Y-3738500I-40000J0D01*
G01*
X6707500Y-2730500D02*
G75*
G03*
X6707500Y-2730500I-40000J0D01*
G01*
X6707500Y-4254500D02*
G75*
G03*
X6707500Y-4254500I-40000J0D01*
G01*
X6961500Y-2730500D02*
G75*
G03*
X6961500Y-2730500I-40000J0D01*
G01*
X6961500Y-4254500D02*
G75*
G03*
X6961500Y-4254500I-40000J0D01*
G01*
X7215500Y-2730500D02*
G75*
G03*
X7215500Y-2730500I-40000J0D01*
G01*
X7215500Y-4254500D02*
G75*
G03*
X7215500Y-4254500I-40000J0D01*
G01*
X7342500Y-4699000D02*
G75*
G03*
X7342500Y-4699000I-40000J0D01*
G01*
X7342500Y-5016500D02*
G75*
G03*
X7342500Y-5016500I-40000J0D01*
G01*
X7342500Y-5334000D02*
G75*
G03*
X7342500Y-5334000I-40000J0D01*
G01*
X7406000Y-6731000D02*
G75*
G03*
X7406000Y-6731000I-40000J0D01*
G01*
X7406000Y-6985000D02*
G75*
G03*
X7406000Y-6985000I-40000J0D01*
G01*
X7406000Y-7239000D02*
G75*
G03*
X7406000Y-7239000I-40000J0D01*
G01*
X7406000Y-7493000D02*
G75*
G03*
X7406000Y-7493000I-40000J0D01*
G01*
X7406000Y-7747000D02*
G75*
G03*
X7406000Y-7747000I-40000J0D01*
G01*
X7406000Y-8001000D02*
G75*
G03*
X7406000Y-8001000I-40000J0D01*
G01*
X7406000Y-8255000D02*
G75*
G03*
X7406000Y-8255000I-40000J0D01*
G01*
X7406000Y-8509000D02*
G75*
G03*
X7406000Y-8509000I-40000J0D01*
G01*
X7407000Y-11239500D02*
G75*
G03*
X7407000Y-11239500I-40000J0D01*
G01*
X7407000Y-11493500D02*
G75*
G03*
X7407000Y-11493500I-40000J0D01*
G01*
X7407000Y-11747500D02*
G75*
G03*
X7407000Y-11747500I-40000J0D01*
G01*
X7407000Y-12001500D02*
G75*
G03*
X7407000Y-12001500I-40000J0D01*
G01*
X7407000Y-12255500D02*
G75*
G03*
X7407000Y-12255500I-40000J0D01*
G01*
X7407000Y-12509500D02*
G75*
G03*
X7407000Y-12509500I-40000J0D01*
G01*
X7407000Y-12763500D02*
G75*
G03*
X7407000Y-12763500I-40000J0D01*
G01*
X7407000Y-13017500D02*
G75*
G03*
X7407000Y-13017500I-40000J0D01*
G01*
X7407000Y-13271500D02*
G75*
G03*
X7407000Y-13271500I-40000J0D01*
G01*
X7407000Y-13525500D02*
G75*
G03*
X7407000Y-13525500I-40000J0D01*
G01*
X7469500Y-2730500D02*
G75*
G03*
X7469500Y-2730500I-40000J0D01*
G01*
X7469500Y-4254500D02*
G75*
G03*
X7469500Y-4254500I-40000J0D01*
G01*
X7533000Y-6413500D02*
G75*
G03*
X7533000Y-6413500I-40000J0D01*
G01*
X7533000Y-10922000D02*
G75*
G03*
X7533000Y-10922000I-40000J0D01*
G01*
X7723500Y-2730500D02*
G75*
G03*
X7723500Y-2730500I-40000J0D01*
G01*
X7723500Y-4254500D02*
G75*
G03*
X7723500Y-4254500I-40000J0D01*
G01*
X7977500Y-2730500D02*
G75*
G03*
X7977500Y-2730500I-40000J0D01*
G01*
X7977500Y-4254500D02*
G75*
G03*
X7977500Y-4254500I-40000J0D01*
G01*
X8033000Y-6413500D02*
G75*
G03*
X8033000Y-6413500I-40000J0D01*
G01*
X8033000Y-10922000D02*
G75*
G03*
X8033000Y-10922000I-40000J0D01*
G01*
X8104500Y-4699000D02*
G75*
G03*
X8104500Y-4699000I-40000J0D01*
G01*
X8104500Y-5016500D02*
G75*
G03*
X8104500Y-5016500I-40000J0D01*
G01*
X8104500Y-5334000D02*
G75*
G03*
X8104500Y-5334000I-40000J0D01*
G01*
X8168000Y-6731000D02*
G75*
G03*
X8168000Y-6731000I-40000J0D01*
G01*
X8168000Y-6985000D02*
G75*
G03*
X8168000Y-6985000I-40000J0D01*
G01*
X8168000Y-7239000D02*
G75*
G03*
X8168000Y-7239000I-40000J0D01*
G01*
X8168000Y-7493000D02*
G75*
G03*
X8168000Y-7493000I-40000J0D01*
G01*
X8168000Y-7747000D02*
G75*
G03*
X8168000Y-7747000I-40000J0D01*
G01*
X8168000Y-8001000D02*
G75*
G03*
X8168000Y-8001000I-40000J0D01*
G01*
X8168000Y-8255000D02*
G75*
G03*
X8168000Y-8255000I-40000J0D01*
G01*
X8168000Y-8509000D02*
G75*
G03*
X8168000Y-8509000I-40000J0D01*
G01*
X8169000Y-11239500D02*
G75*
G03*
X8169000Y-11239500I-40000J0D01*
G01*
X8169000Y-11493500D02*
G75*
G03*
X8169000Y-11493500I-40000J0D01*
G01*
X8169000Y-11747500D02*
G75*
G03*
X8169000Y-11747500I-40000J0D01*
G01*
X8169000Y-12001500D02*
G75*
G03*
X8169000Y-12001500I-40000J0D01*
G01*
X8169000Y-12255500D02*
G75*
G03*
X8169000Y-12255500I-40000J0D01*
G01*
X8169000Y-12509500D02*
G75*
G03*
X8169000Y-12509500I-40000J0D01*
G01*
X8169000Y-12763500D02*
G75*
G03*
X8169000Y-12763500I-40000J0D01*
G01*
X8169000Y-13017500D02*
G75*
G03*
X8169000Y-13017500I-40000J0D01*
G01*
X8169000Y-13271500D02*
G75*
G03*
X8169000Y-13271500I-40000J0D01*
G01*
X8169000Y-13525500D02*
G75*
G03*
X8169000Y-13525500I-40000J0D01*
G01*
X8231500Y-2730500D02*
G75*
G03*
X8231500Y-2730500I-40000J0D01*
G01*
X8231500Y-4254500D02*
G75*
G03*
X8231500Y-4254500I-40000J0D01*
G01*
X8485500Y-2730500D02*
G75*
G03*
X8485500Y-2730500I-40000J0D01*
G01*
X8485500Y-4254500D02*
G75*
G03*
X8485500Y-4254500I-40000J0D01*
G01*
X8739500Y-2730500D02*
G75*
G03*
X8739500Y-2730500I-40000J0D01*
G01*
X8739500Y-4254500D02*
G75*
G03*
X8739500Y-4254500I-40000J0D01*
G01*
X8739500Y-4699000D02*
G75*
G03*
X8739500Y-4699000I-40000J0D01*
G01*
X8739500Y-5016500D02*
G75*
G03*
X8739500Y-5016500I-40000J0D01*
G01*
X8739500Y-5334000D02*
G75*
G03*
X8739500Y-5334000I-40000J0D01*
G01*
X8993500Y-2730500D02*
G75*
G03*
X8993500Y-2730500I-40000J0D01*
G01*
X8993500Y-4254500D02*
G75*
G03*
X8993500Y-4254500I-40000J0D01*
G01*
X9247500Y-2730500D02*
G75*
G03*
X9247500Y-2730500I-40000J0D01*
G01*
X9247500Y-4254500D02*
G75*
G03*
X9247500Y-4254500I-40000J0D01*
G01*
X9501500Y-2730500D02*
G75*
G03*
X9501500Y-2730500I-40000J0D01*
G01*
X9501500Y-4254500D02*
G75*
G03*
X9501500Y-4254500I-40000J0D01*
G01*
X9501500Y-4699000D02*
G75*
G03*
X9501500Y-4699000I-40000J0D01*
G01*
X9501500Y-5016500D02*
G75*
G03*
X9501500Y-5016500I-40000J0D01*
G01*
X9501500Y-5334000D02*
G75*
G03*
X9501500Y-5334000I-40000J0D01*
G01*
X9755500Y-2730500D02*
G75*
G03*
X9755500Y-2730500I-40000J0D01*
G01*
X9755500Y-4254500D02*
G75*
G03*
X9755500Y-4254500I-40000J0D01*
G01*
X9946000Y-6731000D02*
G75*
G03*
X9946000Y-6731000I-40000J0D01*
G01*
X9946000Y-6985000D02*
G75*
G03*
X9946000Y-6985000I-40000J0D01*
G01*
X9946000Y-7239000D02*
G75*
G03*
X9946000Y-7239000I-40000J0D01*
G01*
X9946000Y-7493000D02*
G75*
G03*
X9946000Y-7493000I-40000J0D01*
G01*
X9946000Y-7747000D02*
G75*
G03*
X9946000Y-7747000I-40000J0D01*
G01*
X9946000Y-8001000D02*
G75*
G03*
X9946000Y-8001000I-40000J0D01*
G01*
X9946000Y-8255000D02*
G75*
G03*
X9946000Y-8255000I-40000J0D01*
G01*
X9946000Y-11239500D02*
G75*
G03*
X9946000Y-11239500I-40000J0D01*
G01*
X9946000Y-11493500D02*
G75*
G03*
X9946000Y-11493500I-40000J0D01*
G01*
X9946000Y-11747500D02*
G75*
G03*
X9946000Y-11747500I-40000J0D01*
G01*
X9946000Y-12001500D02*
G75*
G03*
X9946000Y-12001500I-40000J0D01*
G01*
X9946000Y-12255500D02*
G75*
G03*
X9946000Y-12255500I-40000J0D01*
G01*
X9946000Y-12509500D02*
G75*
G03*
X9946000Y-12509500I-40000J0D01*
G01*
X9946000Y-12763500D02*
G75*
G03*
X9946000Y-12763500I-40000J0D01*
G01*
X9946000Y-13017500D02*
G75*
G03*
X9946000Y-13017500I-40000J0D01*
G01*
X9946000Y-13271500D02*
G75*
G03*
X9946000Y-13271500I-40000J0D01*
G01*
X9946000Y-13525500D02*
G75*
G03*
X9946000Y-13525500I-40000J0D01*
G01*
X10009500Y-2730500D02*
G75*
G03*
X10009500Y-2730500I-40000J0D01*
G01*
X10009500Y-4254500D02*
G75*
G03*
X10009500Y-4254500I-40000J0D01*
G01*
X10077000Y-6413500D02*
G75*
G03*
X10077000Y-6413500I-40000J0D01*
G01*
X10077000Y-10922000D02*
G75*
G03*
X10077000Y-10922000I-40000J0D01*
G01*
X10577000Y-6413500D02*
G75*
G03*
X10577000Y-6413500I-40000J0D01*
G01*
X10577000Y-10922000D02*
G75*
G03*
X10577000Y-10922000I-40000J0D01*
G01*
X10708000Y-6731000D02*
G75*
G03*
X10708000Y-6731000I-40000J0D01*
G01*
X10708000Y-6985000D02*
G75*
G03*
X10708000Y-6985000I-40000J0D01*
G01*
X10708000Y-7239000D02*
G75*
G03*
X10708000Y-7239000I-40000J0D01*
G01*
X10708000Y-7493000D02*
G75*
G03*
X10708000Y-7493000I-40000J0D01*
G01*
X10708000Y-7747000D02*
G75*
G03*
X10708000Y-7747000I-40000J0D01*
G01*
X10708000Y-8001000D02*
G75*
G03*
X10708000Y-8001000I-40000J0D01*
G01*
X10708000Y-8255000D02*
G75*
G03*
X10708000Y-8255000I-40000J0D01*
G01*
X10708000Y-11239500D02*
G75*
G03*
X10708000Y-11239500I-40000J0D01*
G01*
X10708000Y-11493500D02*
G75*
G03*
X10708000Y-11493500I-40000J0D01*
G01*
X10708000Y-11747500D02*
G75*
G03*
X10708000Y-11747500I-40000J0D01*
G01*
X10708000Y-12001500D02*
G75*
G03*
X10708000Y-12001500I-40000J0D01*
G01*
X10708000Y-12255500D02*
G75*
G03*
X10708000Y-12255500I-40000J0D01*
G01*
X10708000Y-12509500D02*
G75*
G03*
X10708000Y-12509500I-40000J0D01*
G01*
X10708000Y-12763500D02*
G75*
G03*
X10708000Y-12763500I-40000J0D01*
G01*
X10708000Y-13017500D02*
G75*
G03*
X10708000Y-13017500I-40000J0D01*
G01*
X10708000Y-13271500D02*
G75*
G03*
X10708000Y-13271500I-40000J0D01*
G01*
X10708000Y-13525500D02*
G75*
G03*
X10708000Y-13525500I-40000J0D01*
G01*
X11914500Y-3246500D02*
G75*
G03*
X11914500Y-3246500I-40000J0D01*
G01*
X11914500Y-3746500D02*
G75*
G03*
X11914500Y-3746500I-40000J0D01*
G01*
X12232000Y-2730500D02*
G75*
G03*
X12232000Y-2730500I-40000J0D01*
G01*
X12232000Y-4254500D02*
G75*
G03*
X12232000Y-4254500I-40000J0D01*
G01*
X12486000Y-2730500D02*
G75*
G03*
X12486000Y-2730500I-40000J0D01*
G01*
X12486000Y-4254500D02*
G75*
G03*
X12486000Y-4254500I-40000J0D01*
G01*
X12486000Y-6731000D02*
G75*
G03*
X12486000Y-6731000I-40000J0D01*
G01*
X12486000Y-6985000D02*
G75*
G03*
X12486000Y-6985000I-40000J0D01*
G01*
X12486000Y-7239000D02*
G75*
G03*
X12486000Y-7239000I-40000J0D01*
G01*
X12486000Y-7493000D02*
G75*
G03*
X12486000Y-7493000I-40000J0D01*
G01*
X12486000Y-7747000D02*
G75*
G03*
X12486000Y-7747000I-40000J0D01*
G01*
X12486000Y-8001000D02*
G75*
G03*
X12486000Y-8001000I-40000J0D01*
G01*
X12486000Y-8255000D02*
G75*
G03*
X12486000Y-8255000I-40000J0D01*
G01*
X12486000Y-11239500D02*
G75*
G03*
X12486000Y-11239500I-40000J0D01*
G01*
X12486000Y-11493500D02*
G75*
G03*
X12486000Y-11493500I-40000J0D01*
G01*
X12486000Y-11747500D02*
G75*
G03*
X12486000Y-11747500I-40000J0D01*
G01*
X12486000Y-12001500D02*
G75*
G03*
X12486000Y-12001500I-40000J0D01*
G01*
X12486000Y-12255500D02*
G75*
G03*
X12486000Y-12255500I-40000J0D01*
G01*
X12486000Y-12509500D02*
G75*
G03*
X12486000Y-12509500I-40000J0D01*
G01*
X12486000Y-12763500D02*
G75*
G03*
X12486000Y-12763500I-40000J0D01*
G01*
X12486000Y-13017500D02*
G75*
G03*
X12486000Y-13017500I-40000J0D01*
G01*
X12486000Y-13271500D02*
G75*
G03*
X12486000Y-13271500I-40000J0D01*
G01*
X12486000Y-13525500D02*
G75*
G03*
X12486000Y-13525500I-40000J0D01*
G01*
X12613000Y-6413500D02*
G75*
G03*
X12613000Y-6413500I-40000J0D01*
G01*
X12617000Y-10922000D02*
G75*
G03*
X12617000Y-10922000I-40000J0D01*
G01*
X12740000Y-2730500D02*
G75*
G03*
X12740000Y-2730500I-40000J0D01*
G01*
X12740000Y-4254500D02*
G75*
G03*
X12740000Y-4254500I-40000J0D01*
G01*
X12994000Y-2730500D02*
G75*
G03*
X12994000Y-2730500I-40000J0D01*
G01*
X12994000Y-4254500D02*
G75*
G03*
X12994000Y-4254500I-40000J0D01*
G01*
X13113000Y-6413500D02*
G75*
G03*
X13113000Y-6413500I-40000J0D01*
G01*
X13117000Y-10922000D02*
G75*
G03*
X13117000Y-10922000I-40000J0D01*
G01*
X13248000Y-2730500D02*
G75*
G03*
X13248000Y-2730500I-40000J0D01*
G01*
X13248000Y-4254500D02*
G75*
G03*
X13248000Y-4254500I-40000J0D01*
G01*
X13248000Y-6731000D02*
G75*
G03*
X13248000Y-6731000I-40000J0D01*
G01*
X13248000Y-6985000D02*
G75*
G03*
X13248000Y-6985000I-40000J0D01*
G01*
X13248000Y-7239000D02*
G75*
G03*
X13248000Y-7239000I-40000J0D01*
G01*
X13248000Y-7493000D02*
G75*
G03*
X13248000Y-7493000I-40000J0D01*
G01*
X13248000Y-7747000D02*
G75*
G03*
X13248000Y-7747000I-40000J0D01*
G01*
X13248000Y-8001000D02*
G75*
G03*
X13248000Y-8001000I-40000J0D01*
G01*
X13248000Y-8255000D02*
G75*
G03*
X13248000Y-8255000I-40000J0D01*
G01*
X13248000Y-11239500D02*
G75*
G03*
X13248000Y-11239500I-40000J0D01*
G01*
X13248000Y-11493500D02*
G75*
G03*
X13248000Y-11493500I-40000J0D01*
G01*
X13248000Y-11747500D02*
G75*
G03*
X13248000Y-11747500I-40000J0D01*
G01*
X13248000Y-12001500D02*
G75*
G03*
X13248000Y-12001500I-40000J0D01*
G01*
X13248000Y-12255500D02*
G75*
G03*
X13248000Y-12255500I-40000J0D01*
G01*
X13248000Y-12509500D02*
G75*
G03*
X13248000Y-12509500I-40000J0D01*
G01*
X13248000Y-12763500D02*
G75*
G03*
X13248000Y-12763500I-40000J0D01*
G01*
X13248000Y-13017500D02*
G75*
G03*
X13248000Y-13017500I-40000J0D01*
G01*
X13248000Y-13271500D02*
G75*
G03*
X13248000Y-13271500I-40000J0D01*
G01*
X13248000Y-13525500D02*
G75*
G03*
X13248000Y-13525500I-40000J0D01*
G01*
X13502000Y-2730500D02*
G75*
G03*
X13502000Y-2730500I-40000J0D01*
G01*
X13502000Y-4254500D02*
G75*
G03*
X13502000Y-4254500I-40000J0D01*
G01*
X13756000Y-2730500D02*
G75*
G03*
X13756000Y-2730500I-40000J0D01*
G01*
X13756000Y-4254500D02*
G75*
G03*
X13756000Y-4254500I-40000J0D01*
G01*
X14010000Y-2730500D02*
G75*
G03*
X14010000Y-2730500I-40000J0D01*
G01*
X14010000Y-4254500D02*
G75*
G03*
X14010000Y-4254500I-40000J0D01*
G01*
X14264000Y-2730500D02*
G75*
G03*
X14264000Y-2730500I-40000J0D01*
G01*
X14264000Y-4254500D02*
G75*
G03*
X14264000Y-4254500I-40000J0D01*
G01*
X14518000Y-2730500D02*
G75*
G03*
X14518000Y-2730500I-40000J0D01*
G01*
X14518000Y-4254500D02*
G75*
G03*
X14518000Y-4254500I-40000J0D01*
G01*
X14772000Y-2730500D02*
G75*
G03*
X14772000Y-2730500I-40000J0D01*
G01*
X14772000Y-4254500D02*
G75*
G03*
X14772000Y-4254500I-40000J0D01*
G01*
X15026000Y-2730500D02*
G75*
G03*
X15026000Y-2730500I-40000J0D01*
G01*
X15026000Y-4254500D02*
G75*
G03*
X15026000Y-4254500I-40000J0D01*
G01*
X15026000Y-6731000D02*
G75*
G03*
X15026000Y-6731000I-40000J0D01*
G01*
X15026000Y-6985000D02*
G75*
G03*
X15026000Y-6985000I-40000J0D01*
G01*
X15026000Y-7239000D02*
G75*
G03*
X15026000Y-7239000I-40000J0D01*
G01*
X15026000Y-7493000D02*
G75*
G03*
X15026000Y-7493000I-40000J0D01*
G01*
X15026000Y-7747000D02*
G75*
G03*
X15026000Y-7747000I-40000J0D01*
G01*
X15026000Y-8001000D02*
G75*
G03*
X15026000Y-8001000I-40000J0D01*
G01*
X15026000Y-8255000D02*
G75*
G03*
X15026000Y-8255000I-40000J0D01*
G01*
X15026000Y-8509000D02*
G75*
G03*
X15026000Y-8509000I-40000J0D01*
G01*
X15026000Y-11239500D02*
G75*
G03*
X15026000Y-11239500I-40000J0D01*
G01*
X15026000Y-11493500D02*
G75*
G03*
X15026000Y-11493500I-40000J0D01*
G01*
X15026000Y-11747500D02*
G75*
G03*
X15026000Y-11747500I-40000J0D01*
G01*
X15026000Y-12001500D02*
G75*
G03*
X15026000Y-12001500I-40000J0D01*
G01*
X15026000Y-12255500D02*
G75*
G03*
X15026000Y-12255500I-40000J0D01*
G01*
X15026000Y-12509500D02*
G75*
G03*
X15026000Y-12509500I-40000J0D01*
G01*
X15026000Y-12763500D02*
G75*
G03*
X15026000Y-12763500I-40000J0D01*
G01*
X15026000Y-13017500D02*
G75*
G03*
X15026000Y-13017500I-40000J0D01*
G01*
X15026000Y-13271500D02*
G75*
G03*
X15026000Y-13271500I-40000J0D01*
G01*
X15026000Y-13525500D02*
G75*
G03*
X15026000Y-13525500I-40000J0D01*
G01*
X15157000Y-6413500D02*
G75*
G03*
X15157000Y-6413500I-40000J0D01*
G01*
X15157000Y-10922000D02*
G75*
G03*
X15157000Y-10922000I-40000J0D01*
G01*
X15280000Y-2730500D02*
G75*
G03*
X15280000Y-2730500I-40000J0D01*
G01*
X15280000Y-4254500D02*
G75*
G03*
X15280000Y-4254500I-40000J0D01*
G01*
X15534000Y-2730500D02*
G75*
G03*
X15534000Y-2730500I-40000J0D01*
G01*
X15534000Y-4254500D02*
G75*
G03*
X15534000Y-4254500I-40000J0D01*
G01*
X15657000Y-6413500D02*
G75*
G03*
X15657000Y-6413500I-40000J0D01*
G01*
X15657000Y-10922000D02*
G75*
G03*
X15657000Y-10922000I-40000J0D01*
G01*
X15661000Y-9461500D02*
G75*
G03*
X15661000Y-9461500I-40000J0D01*
G01*
X15661000Y-9779000D02*
G75*
G03*
X15661000Y-9779000I-40000J0D01*
G01*
X15661000Y-10096500D02*
G75*
G03*
X15661000Y-10096500I-40000J0D01*
G01*
X15788000Y-6731000D02*
G75*
G03*
X15788000Y-6731000I-40000J0D01*
G01*
X15788000Y-6985000D02*
G75*
G03*
X15788000Y-6985000I-40000J0D01*
G01*
X15788000Y-7239000D02*
G75*
G03*
X15788000Y-7239000I-40000J0D01*
G01*
X15788000Y-7493000D02*
G75*
G03*
X15788000Y-7493000I-40000J0D01*
G01*
X15788000Y-7747000D02*
G75*
G03*
X15788000Y-7747000I-40000J0D01*
G01*
X15788000Y-8001000D02*
G75*
G03*
X15788000Y-8001000I-40000J0D01*
G01*
X15788000Y-8255000D02*
G75*
G03*
X15788000Y-8255000I-40000J0D01*
G01*
X15788000Y-8509000D02*
G75*
G03*
X15788000Y-8509000I-40000J0D01*
G01*
X15788000Y-11239500D02*
G75*
G03*
X15788000Y-11239500I-40000J0D01*
G01*
X15788000Y-11493500D02*
G75*
G03*
X15788000Y-11493500I-40000J0D01*
G01*
X15788000Y-11747500D02*
G75*
G03*
X15788000Y-11747500I-40000J0D01*
G01*
X15788000Y-12001500D02*
G75*
G03*
X15788000Y-12001500I-40000J0D01*
G01*
X15788000Y-12255500D02*
G75*
G03*
X15788000Y-12255500I-40000J0D01*
G01*
X15788000Y-12509500D02*
G75*
G03*
X15788000Y-12509500I-40000J0D01*
G01*
X15788000Y-12763500D02*
G75*
G03*
X15788000Y-12763500I-40000J0D01*
G01*
X15788000Y-13017500D02*
G75*
G03*
X15788000Y-13017500I-40000J0D01*
G01*
X15788000Y-13271500D02*
G75*
G03*
X15788000Y-13271500I-40000J0D01*
G01*
X15788000Y-13525500D02*
G75*
G03*
X15788000Y-13525500I-40000J0D01*
G01*
X16423000Y-9461500D02*
G75*
G03*
X16423000Y-9461500I-40000J0D01*
G01*
X16423000Y-9779000D02*
G75*
G03*
X16423000Y-9779000I-40000J0D01*
G01*
X16423000Y-10096500D02*
G75*
G03*
X16423000Y-10096500I-40000J0D01*
G01*
X16931000Y-9461500D02*
G75*
G03*
X16931000Y-9461500I-40000J0D01*
G01*
X16931000Y-9779000D02*
G75*
G03*
X16931000Y-9779000I-40000J0D01*
G01*
X16931000Y-10096500D02*
G75*
G03*
X16931000Y-10096500I-40000J0D01*
G01*
X17439000Y-3246500D02*
G75*
G03*
X17439000Y-3246500I-40000J0D01*
G01*
X17439000Y-3746500D02*
G75*
G03*
X17439000Y-3746500I-40000J0D01*
G01*
X17566000Y-6731000D02*
G75*
G03*
X17566000Y-6731000I-40000J0D01*
G01*
X17566000Y-6985000D02*
G75*
G03*
X17566000Y-6985000I-40000J0D01*
G01*
X17566000Y-7239000D02*
G75*
G03*
X17566000Y-7239000I-40000J0D01*
G01*
X17566000Y-7493000D02*
G75*
G03*
X17566000Y-7493000I-40000J0D01*
G01*
X17566000Y-7747000D02*
G75*
G03*
X17566000Y-7747000I-40000J0D01*
G01*
X17566000Y-8001000D02*
G75*
G03*
X17566000Y-8001000I-40000J0D01*
G01*
X17566000Y-8255000D02*
G75*
G03*
X17566000Y-8255000I-40000J0D01*
G01*
X17566000Y-8509000D02*
G75*
G03*
X17566000Y-8509000I-40000J0D01*
G01*
X17566000Y-11239500D02*
G75*
G03*
X17566000Y-11239500I-40000J0D01*
G01*
X17566000Y-11493500D02*
G75*
G03*
X17566000Y-11493500I-40000J0D01*
G01*
X17566000Y-11747500D02*
G75*
G03*
X17566000Y-11747500I-40000J0D01*
G01*
X17566000Y-12001500D02*
G75*
G03*
X17566000Y-12001500I-40000J0D01*
G01*
X17566000Y-12255500D02*
G75*
G03*
X17566000Y-12255500I-40000J0D01*
G01*
X17566000Y-12509500D02*
G75*
G03*
X17566000Y-12509500I-40000J0D01*
G01*
X17566000Y-12763500D02*
G75*
G03*
X17566000Y-12763500I-40000J0D01*
G01*
X17566000Y-13017500D02*
G75*
G03*
X17566000Y-13017500I-40000J0D01*
G01*
X17566000Y-13271500D02*
G75*
G03*
X17566000Y-13271500I-40000J0D01*
G01*
X17566000Y-13525500D02*
G75*
G03*
X17566000Y-13525500I-40000J0D01*
G01*
X17693000Y-9461500D02*
G75*
G03*
X17693000Y-9461500I-40000J0D01*
G01*
X17693000Y-9779000D02*
G75*
G03*
X17693000Y-9779000I-40000J0D01*
G01*
X17693000Y-10096500D02*
G75*
G03*
X17693000Y-10096500I-40000J0D01*
G01*
X17697000Y-6413500D02*
G75*
G03*
X17697000Y-6413500I-40000J0D01*
G01*
X17697000Y-10922000D02*
G75*
G03*
X17697000Y-10922000I-40000J0D01*
G01*
X17756500Y-2730500D02*
G75*
G03*
X17756500Y-2730500I-40000J0D01*
G01*
X17756500Y-4254500D02*
G75*
G03*
X17756500Y-4254500I-40000J0D01*
G01*
X18010500Y-2730500D02*
G75*
G03*
X18010500Y-2730500I-40000J0D01*
G01*
X18010500Y-4254500D02*
G75*
G03*
X18010500Y-4254500I-40000J0D01*
G01*
X18197000Y-6413500D02*
G75*
G03*
X18197000Y-6413500I-40000J0D01*
G01*
X18197000Y-10922000D02*
G75*
G03*
X18197000Y-10922000I-40000J0D01*
G01*
X18201000Y-9461500D02*
G75*
G03*
X18201000Y-9461500I-40000J0D01*
G01*
X18201000Y-9779000D02*
G75*
G03*
X18201000Y-9779000I-40000J0D01*
G01*
X18201000Y-10096500D02*
G75*
G03*
X18201000Y-10096500I-40000J0D01*
G01*
X18264500Y-2730500D02*
G75*
G03*
X18264500Y-2730500I-40000J0D01*
G01*
X18264500Y-4254500D02*
G75*
G03*
X18264500Y-4254500I-40000J0D01*
G01*
X18328000Y-6731000D02*
G75*
G03*
X18328000Y-6731000I-40000J0D01*
G01*
X18328000Y-6985000D02*
G75*
G03*
X18328000Y-6985000I-40000J0D01*
G01*
X18328000Y-7239000D02*
G75*
G03*
X18328000Y-7239000I-40000J0D01*
G01*
X18328000Y-7493000D02*
G75*
G03*
X18328000Y-7493000I-40000J0D01*
G01*
X18328000Y-7747000D02*
G75*
G03*
X18328000Y-7747000I-40000J0D01*
G01*
X18328000Y-8001000D02*
G75*
G03*
X18328000Y-8001000I-40000J0D01*
G01*
X18328000Y-8255000D02*
G75*
G03*
X18328000Y-8255000I-40000J0D01*
G01*
X18328000Y-8509000D02*
G75*
G03*
X18328000Y-8509000I-40000J0D01*
G01*
X18328000Y-11239500D02*
G75*
G03*
X18328000Y-11239500I-40000J0D01*
G01*
X18328000Y-11493500D02*
G75*
G03*
X18328000Y-11493500I-40000J0D01*
G01*
X18328000Y-11747500D02*
G75*
G03*
X18328000Y-11747500I-40000J0D01*
G01*
X18328000Y-12001500D02*
G75*
G03*
X18328000Y-12001500I-40000J0D01*
G01*
X18328000Y-12255500D02*
G75*
G03*
X18328000Y-12255500I-40000J0D01*
G01*
X18328000Y-12509500D02*
G75*
G03*
X18328000Y-12509500I-40000J0D01*
G01*
X18328000Y-12763500D02*
G75*
G03*
X18328000Y-12763500I-40000J0D01*
G01*
X18328000Y-13017500D02*
G75*
G03*
X18328000Y-13017500I-40000J0D01*
G01*
X18328000Y-13271500D02*
G75*
G03*
X18328000Y-13271500I-40000J0D01*
G01*
X18328000Y-13525500D02*
G75*
G03*
X18328000Y-13525500I-40000J0D01*
G01*
X18518500Y-2730500D02*
G75*
G03*
X18518500Y-2730500I-40000J0D01*
G01*
X18518500Y-4254500D02*
G75*
G03*
X18518500Y-4254500I-40000J0D01*
G01*
X18772500Y-2730500D02*
G75*
G03*
X18772500Y-2730500I-40000J0D01*
G01*
X18772500Y-4254500D02*
G75*
G03*
X18772500Y-4254500I-40000J0D01*
G01*
X18963000Y-9461500D02*
G75*
G03*
X18963000Y-9461500I-40000J0D01*
G01*
X18963000Y-9779000D02*
G75*
G03*
X18963000Y-9779000I-40000J0D01*
G01*
X18963000Y-10096500D02*
G75*
G03*
X18963000Y-10096500I-40000J0D01*
G01*
X19026500Y-2730500D02*
G75*
G03*
X19026500Y-2730500I-40000J0D01*
G01*
X19026500Y-4254500D02*
G75*
G03*
X19026500Y-4254500I-40000J0D01*
G01*
X19280500Y-2730500D02*
G75*
G03*
X19280500Y-2730500I-40000J0D01*
G01*
X19280500Y-4254500D02*
G75*
G03*
X19280500Y-4254500I-40000J0D01*
G01*
X19471000Y-9461500D02*
G75*
G03*
X19471000Y-9461500I-40000J0D01*
G01*
X19471000Y-9779000D02*
G75*
G03*
X19471000Y-9779000I-40000J0D01*
G01*
X19471000Y-10096500D02*
G75*
G03*
X19471000Y-10096500I-40000J0D01*
G01*
X19534500Y-2730500D02*
G75*
G03*
X19534500Y-2730500I-40000J0D01*
G01*
X19534500Y-4254500D02*
G75*
G03*
X19534500Y-4254500I-40000J0D01*
G01*
X19788500Y-2730500D02*
G75*
G03*
X19788500Y-2730500I-40000J0D01*
G01*
X19788500Y-4254500D02*
G75*
G03*
X19788500Y-4254500I-40000J0D01*
G01*
X20042500Y-2730500D02*
G75*
G03*
X20042500Y-2730500I-40000J0D01*
G01*
X20042500Y-4254500D02*
G75*
G03*
X20042500Y-4254500I-40000J0D01*
G01*
X20106000Y-6731000D02*
G75*
G03*
X20106000Y-6731000I-40000J0D01*
G01*
X20106000Y-6985000D02*
G75*
G03*
X20106000Y-6985000I-40000J0D01*
G01*
X20106000Y-7239000D02*
G75*
G03*
X20106000Y-7239000I-40000J0D01*
G01*
X20106000Y-7493000D02*
G75*
G03*
X20106000Y-7493000I-40000J0D01*
G01*
X20106000Y-7747000D02*
G75*
G03*
X20106000Y-7747000I-40000J0D01*
G01*
X20106000Y-8001000D02*
G75*
G03*
X20106000Y-8001000I-40000J0D01*
G01*
X20106000Y-8255000D02*
G75*
G03*
X20106000Y-8255000I-40000J0D01*
G01*
X20106000Y-8509000D02*
G75*
G03*
X20106000Y-8509000I-40000J0D01*
G01*
X20106000Y-11239500D02*
G75*
G03*
X20106000Y-11239500I-40000J0D01*
G01*
X20106000Y-11493500D02*
G75*
G03*
X20106000Y-11493500I-40000J0D01*
G01*
X20106000Y-11747500D02*
G75*
G03*
X20106000Y-11747500I-40000J0D01*
G01*
X20106000Y-12001500D02*
G75*
G03*
X20106000Y-12001500I-40000J0D01*
G01*
X20106000Y-12255500D02*
G75*
G03*
X20106000Y-12255500I-40000J0D01*
G01*
X20106000Y-12509500D02*
G75*
G03*
X20106000Y-12509500I-40000J0D01*
G01*
X20106000Y-12763500D02*
G75*
G03*
X20106000Y-12763500I-40000J0D01*
G01*
X20106000Y-13017500D02*
G75*
G03*
X20106000Y-13017500I-40000J0D01*
G01*
X20106000Y-13271500D02*
G75*
G03*
X20106000Y-13271500I-40000J0D01*
G01*
X20106000Y-13525500D02*
G75*
G03*
X20106000Y-13525500I-40000J0D01*
G01*
X20233000Y-9461500D02*
G75*
G03*
X20233000Y-9461500I-40000J0D01*
G01*
X20233000Y-9779000D02*
G75*
G03*
X20233000Y-9779000I-40000J0D01*
G01*
X20233000Y-10096500D02*
G75*
G03*
X20233000Y-10096500I-40000J0D01*
G01*
X20237000Y-6413500D02*
G75*
G03*
X20237000Y-6413500I-40000J0D01*
G01*
X20237000Y-10922000D02*
G75*
G03*
X20237000Y-10922000I-40000J0D01*
G01*
X20296500Y-2730500D02*
G75*
G03*
X20296500Y-2730500I-40000J0D01*
G01*
X20296500Y-4254500D02*
G75*
G03*
X20296500Y-4254500I-40000J0D01*
G01*
X20550500Y-2730500D02*
G75*
G03*
X20550500Y-2730500I-40000J0D01*
G01*
X20550500Y-4254500D02*
G75*
G03*
X20550500Y-4254500I-40000J0D01*
G01*
X20737000Y-6413500D02*
G75*
G03*
X20737000Y-6413500I-40000J0D01*
G01*
X20737000Y-10922000D02*
G75*
G03*
X20737000Y-10922000I-40000J0D01*
G01*
X20804500Y-2730500D02*
G75*
G03*
X20804500Y-2730500I-40000J0D01*
G01*
X20804500Y-4254500D02*
G75*
G03*
X20804500Y-4254500I-40000J0D01*
G01*
X20868000Y-6731000D02*
G75*
G03*
X20868000Y-6731000I-40000J0D01*
G01*
X20868000Y-6985000D02*
G75*
G03*
X20868000Y-6985000I-40000J0D01*
G01*
X20868000Y-7239000D02*
G75*
G03*
X20868000Y-7239000I-40000J0D01*
G01*
X20868000Y-7493000D02*
G75*
G03*
X20868000Y-7493000I-40000J0D01*
G01*
X20868000Y-7747000D02*
G75*
G03*
X20868000Y-7747000I-40000J0D01*
G01*
X20868000Y-8001000D02*
G75*
G03*
X20868000Y-8001000I-40000J0D01*
G01*
X20868000Y-8255000D02*
G75*
G03*
X20868000Y-8255000I-40000J0D01*
G01*
X20868000Y-8509000D02*
G75*
G03*
X20868000Y-8509000I-40000J0D01*
G01*
X20868000Y-11239500D02*
G75*
G03*
X20868000Y-11239500I-40000J0D01*
G01*
X20868000Y-11493500D02*
G75*
G03*
X20868000Y-11493500I-40000J0D01*
G01*
X20868000Y-11747500D02*
G75*
G03*
X20868000Y-11747500I-40000J0D01*
G01*
X20868000Y-12001500D02*
G75*
G03*
X20868000Y-12001500I-40000J0D01*
G01*
X20868000Y-12255500D02*
G75*
G03*
X20868000Y-12255500I-40000J0D01*
G01*
X20868000Y-12509500D02*
G75*
G03*
X20868000Y-12509500I-40000J0D01*
G01*
X20868000Y-12763500D02*
G75*
G03*
X20868000Y-12763500I-40000J0D01*
G01*
X20868000Y-13017500D02*
G75*
G03*
X20868000Y-13017500I-40000J0D01*
G01*
X20868000Y-13271500D02*
G75*
G03*
X20868000Y-13271500I-40000J0D01*
G01*
X20868000Y-13525500D02*
G75*
G03*
X20868000Y-13525500I-40000J0D01*
G01*
X21058500Y-2730500D02*
G75*
G03*
X21058500Y-2730500I-40000J0D01*
G01*
X21058500Y-4254500D02*
G75*
G03*
X21058500Y-4254500I-40000J0D01*
G01*
X22645000Y-11239500D02*
G75*
G03*
X22645000Y-11239500I-40000J0D01*
G01*
X22645000Y-11493500D02*
G75*
G03*
X22645000Y-11493500I-40000J0D01*
G01*
X22645000Y-11747500D02*
G75*
G03*
X22645000Y-11747500I-40000J0D01*
G01*
X22645000Y-12001500D02*
G75*
G03*
X22645000Y-12001500I-40000J0D01*
G01*
X22645000Y-12255500D02*
G75*
G03*
X22645000Y-12255500I-40000J0D01*
G01*
X22645000Y-12509500D02*
G75*
G03*
X22645000Y-12509500I-40000J0D01*
G01*
X22645000Y-12763500D02*
G75*
G03*
X22645000Y-12763500I-40000J0D01*
G01*
X22645000Y-13017500D02*
G75*
G03*
X22645000Y-13017500I-40000J0D01*
G01*
X22645000Y-13271500D02*
G75*
G03*
X22645000Y-13271500I-40000J0D01*
G01*
X22645000Y-13525500D02*
G75*
G03*
X22645000Y-13525500I-40000J0D01*
G01*
X22646000Y-2794000D02*
G75*
G03*
X22646000Y-2794000I-40000J0D01*
G01*
X22646000Y-3048000D02*
G75*
G03*
X22646000Y-3048000I-40000J0D01*
G01*
X22646000Y-3302000D02*
G75*
G03*
X22646000Y-3302000I-40000J0D01*
G01*
X22646000Y-3556000D02*
G75*
G03*
X22646000Y-3556000I-40000J0D01*
G01*
X22646000Y-3810000D02*
G75*
G03*
X22646000Y-3810000I-40000J0D01*
G01*
X22646000Y-4064000D02*
G75*
G03*
X22646000Y-4064000I-40000J0D01*
G01*
X22646000Y-4318000D02*
G75*
G03*
X22646000Y-4318000I-40000J0D01*
G01*
X22646000Y-6731000D02*
G75*
G03*
X22646000Y-6731000I-40000J0D01*
G01*
X22646000Y-6985000D02*
G75*
G03*
X22646000Y-6985000I-40000J0D01*
G01*
X22646000Y-7239000D02*
G75*
G03*
X22646000Y-7239000I-40000J0D01*
G01*
X22646000Y-7493000D02*
G75*
G03*
X22646000Y-7493000I-40000J0D01*
G01*
X22646000Y-7747000D02*
G75*
G03*
X22646000Y-7747000I-40000J0D01*
G01*
X22646000Y-8001000D02*
G75*
G03*
X22646000Y-8001000I-40000J0D01*
G01*
X22646000Y-8255000D02*
G75*
G03*
X22646000Y-8255000I-40000J0D01*
G01*
X22646000Y-8509000D02*
G75*
G03*
X22646000Y-8509000I-40000J0D01*
G01*
X22773000Y-6413500D02*
G75*
G03*
X22773000Y-6413500I-40000J0D01*
G01*
X22777000Y-2476500D02*
G75*
G03*
X22777000Y-2476500I-40000J0D01*
G01*
X22781000Y-10922000D02*
G75*
G03*
X22781000Y-10922000I-40000J0D01*
G01*
X23273000Y-6413500D02*
G75*
G03*
X23273000Y-6413500I-40000J0D01*
G01*
X23277000Y-2476500D02*
G75*
G03*
X23277000Y-2476500I-40000J0D01*
G01*
X23281000Y-10922000D02*
G75*
G03*
X23281000Y-10922000I-40000J0D01*
G01*
X23407000Y-11239500D02*
G75*
G03*
X23407000Y-11239500I-40000J0D01*
G01*
X23407000Y-11493500D02*
G75*
G03*
X23407000Y-11493500I-40000J0D01*
G01*
X23407000Y-11747500D02*
G75*
G03*
X23407000Y-11747500I-40000J0D01*
G01*
X23407000Y-12001500D02*
G75*
G03*
X23407000Y-12001500I-40000J0D01*
G01*
X23407000Y-12255500D02*
G75*
G03*
X23407000Y-12255500I-40000J0D01*
G01*
X23407000Y-12509500D02*
G75*
G03*
X23407000Y-12509500I-40000J0D01*
G01*
X23407000Y-12763500D02*
G75*
G03*
X23407000Y-12763500I-40000J0D01*
G01*
X23407000Y-13017500D02*
G75*
G03*
X23407000Y-13017500I-40000J0D01*
G01*
X23407000Y-13271500D02*
G75*
G03*
X23407000Y-13271500I-40000J0D01*
G01*
X23407000Y-13525500D02*
G75*
G03*
X23407000Y-13525500I-40000J0D01*
G01*
X23408000Y-2794000D02*
G75*
G03*
X23408000Y-2794000I-40000J0D01*
G01*
X23408000Y-3048000D02*
G75*
G03*
X23408000Y-3048000I-40000J0D01*
G01*
X23408000Y-3302000D02*
G75*
G03*
X23408000Y-3302000I-40000J0D01*
G01*
X23408000Y-3556000D02*
G75*
G03*
X23408000Y-3556000I-40000J0D01*
G01*
X23408000Y-3810000D02*
G75*
G03*
X23408000Y-3810000I-40000J0D01*
G01*
X23408000Y-4064000D02*
G75*
G03*
X23408000Y-4064000I-40000J0D01*
G01*
X23408000Y-4318000D02*
G75*
G03*
X23408000Y-4318000I-40000J0D01*
G01*
X23408000Y-6731000D02*
G75*
G03*
X23408000Y-6731000I-40000J0D01*
G01*
X23408000Y-6985000D02*
G75*
G03*
X23408000Y-6985000I-40000J0D01*
G01*
X23408000Y-7239000D02*
G75*
G03*
X23408000Y-7239000I-40000J0D01*
G01*
X23408000Y-7493000D02*
G75*
G03*
X23408000Y-7493000I-40000J0D01*
G01*
X23408000Y-7747000D02*
G75*
G03*
X23408000Y-7747000I-40000J0D01*
G01*
X23408000Y-8001000D02*
G75*
G03*
X23408000Y-8001000I-40000J0D01*
G01*
X23408000Y-8255000D02*
G75*
G03*
X23408000Y-8255000I-40000J0D01*
G01*
X23408000Y-8509000D02*
G75*
G03*
X23408000Y-8509000I-40000J0D01*
G01*
D10*
X4762500Y-14682000D02*
X4762500Y-14782000D01*
X4712500Y-14732000D02*
X4812500Y-14732000D01*
X4762500Y-14936000D02*
X4762500Y-15036000D01*
X4712500Y-14986000D02*
X4812500Y-14986000D01*
X5016500Y-14682000D02*
X5016500Y-14782000D01*
X4966500Y-14732000D02*
X5066500Y-14732000D01*
X5016500Y-14936000D02*
X5016500Y-15036000D01*
X4966500Y-14986000D02*
X5066500Y-14986000D01*
X5270500Y-14682000D02*
X5270500Y-14782000D01*
X5220500Y-14732000D02*
X5320500Y-14732000D01*
X5270500Y-14936000D02*
X5270500Y-15036000D01*
X5220500Y-14986000D02*
X5320500Y-14986000D01*
X5524500Y-14682000D02*
X5524500Y-14782000D01*
X5474500Y-14732000D02*
X5574500Y-14732000D01*
X5524500Y-14936000D02*
X5524500Y-15036000D01*
X5474500Y-14986000D02*
X5574500Y-14986000D01*
X5778500Y-14682000D02*
X5778500Y-14782000D01*
X5728500Y-14732000D02*
X5828500Y-14732000D01*
X5778500Y-14936000D02*
X5778500Y-15036000D01*
X5728500Y-14986000D02*
X5828500Y-14986000D01*
X6032500Y-14682000D02*
X6032500Y-14782000D01*
X5982500Y-14732000D02*
X6082500Y-14732000D01*
X6032500Y-14936000D02*
X6032500Y-15036000D01*
X5982500Y-14986000D02*
X6082500Y-14986000D01*
X6286500Y-14682000D02*
X6286500Y-14782000D01*
X6236500Y-14732000D02*
X6336500Y-14732000D01*
X6286500Y-14936000D02*
X6286500Y-15036000D01*
X6236500Y-14986000D02*
X6336500Y-14986000D01*
X6540500Y-14682000D02*
X6540500Y-14782000D01*
X6490500Y-14732000D02*
X6590500Y-14732000D01*
X6540500Y-14936000D02*
X6540500Y-15036000D01*
X6490500Y-14986000D02*
X6590500Y-14986000D01*
X6794500Y-14682000D02*
X6794500Y-14782000D01*
X6744500Y-14732000D02*
X6844500Y-14732000D01*
X6794500Y-14936000D02*
X6794500Y-15036000D01*
X6744500Y-14986000D02*
X6844500Y-14986000D01*
X7048500Y-14682000D02*
X7048500Y-14782000D01*
X6998500Y-14732000D02*
X7098500Y-14732000D01*
X7048500Y-14936000D02*
X7048500Y-15036000D01*
X6998500Y-14986000D02*
X7098500Y-14986000D01*
X7302500Y-14682000D02*
X7302500Y-14782000D01*
X7252500Y-14732000D02*
X7352500Y-14732000D01*
X7302500Y-14936000D02*
X7302500Y-15036000D01*
X7252500Y-14986000D02*
X7352500Y-14986000D01*
X7556500Y-14682000D02*
X7556500Y-14782000D01*
X7506500Y-14732000D02*
X7606500Y-14732000D01*
X7556500Y-14936000D02*
X7556500Y-15036000D01*
X7506500Y-14986000D02*
X7606500Y-14986000D01*
X7810500Y-14682000D02*
X7810500Y-14782000D01*
X7760500Y-14732000D02*
X7860500Y-14732000D01*
X7810500Y-14936000D02*
X7810500Y-15036000D01*
X7760500Y-14986000D02*
X7860500Y-14986000D01*
X8064500Y-14682000D02*
X8064500Y-14782000D01*
X8014500Y-14732000D02*
X8114500Y-14732000D01*
X8064500Y-14936000D02*
X8064500Y-15036000D01*
X8014500Y-14986000D02*
X8114500Y-14986000D01*
X8318500Y-14682000D02*
X8318500Y-14782000D01*
X8268500Y-14732000D02*
X8368500Y-14732000D01*
X8318500Y-14936000D02*
X8318500Y-15036000D01*
X8268500Y-14986000D02*
X8368500Y-14986000D01*
X8572500Y-14682000D02*
X8572500Y-14782000D01*
X8522500Y-14732000D02*
X8622500Y-14732000D01*
X8572500Y-14936000D02*
X8572500Y-15036000D01*
X8522500Y-14986000D02*
X8622500Y-14986000D01*
X8826500Y-14682000D02*
X8826500Y-14782000D01*
X8776500Y-14732000D02*
X8876500Y-14732000D01*
X8826500Y-14936000D02*
X8826500Y-15036000D01*
X8776500Y-14986000D02*
X8876500Y-14986000D01*
X9080500Y-14682000D02*
X9080500Y-14782000D01*
X9030500Y-14732000D02*
X9130500Y-14732000D01*
X9080500Y-14936000D02*
X9080500Y-15036000D01*
X9030500Y-14986000D02*
X9130500Y-14986000D01*
X9334500Y-14682000D02*
X9334500Y-14782000D01*
X9284500Y-14732000D02*
X9384500Y-14732000D01*
X9334500Y-14936000D02*
X9334500Y-15036000D01*
X9284500Y-14986000D02*
X9384500Y-14986000D01*
X9588500Y-14682000D02*
X9588500Y-14782000D01*
X9538500Y-14732000D02*
X9638500Y-14732000D01*
X9588500Y-14936000D02*
X9588500Y-15036000D01*
X9538500Y-14986000D02*
X9638500Y-14986000D01*
X9842500Y-14682000D02*
X9842500Y-14782000D01*
X9792500Y-14732000D02*
X9892500Y-14732000D01*
X9842500Y-14936000D02*
X9842500Y-15036000D01*
X9792500Y-14986000D02*
X9892500Y-14986000D01*
X10096500Y-14682000D02*
X10096500Y-14782000D01*
X10046500Y-14732000D02*
X10146500Y-14732000D01*
X10096500Y-14936000D02*
X10096500Y-15036000D01*
X10046500Y-14986000D02*
X10146500Y-14986000D01*
X10350500Y-14682000D02*
X10350500Y-14782000D01*
X10300500Y-14732000D02*
X10400500Y-14732000D01*
X10350500Y-14936000D02*
X10350500Y-15036000D01*
X10300500Y-14986000D02*
X10400500Y-14986000D01*
X10604500Y-14682000D02*
X10604500Y-14782000D01*
X10554500Y-14732000D02*
X10654500Y-14732000D01*
X10604500Y-14936000D02*
X10604500Y-15036000D01*
X10554500Y-14986000D02*
X10654500Y-14986000D01*
X10858500Y-14682000D02*
X10858500Y-14782000D01*
X10808500Y-14732000D02*
X10908500Y-14732000D01*
X10858500Y-14936000D02*
X10858500Y-15036000D01*
X10808500Y-14986000D02*
X10908500Y-14986000D01*
X11112500Y-14682000D02*
X11112500Y-14782000D01*
X11062500Y-14732000D02*
X11162500Y-14732000D01*
X11112500Y-14936000D02*
X11112500Y-15036000D01*
X11062500Y-14986000D02*
X11162500Y-14986000D01*
X11366500Y-14682000D02*
X11366500Y-14782000D01*
X11316500Y-14732000D02*
X11416500Y-14732000D01*
X11366500Y-14936000D02*
X11366500Y-15036000D01*
X11316500Y-14986000D02*
X11416500Y-14986000D01*
X11620500Y-14682000D02*
X11620500Y-14782000D01*
X11570500Y-14732000D02*
X11670500Y-14732000D01*
X11620500Y-14936000D02*
X11620500Y-15036000D01*
X11570500Y-14986000D02*
X11670500Y-14986000D01*
X11874500Y-14682000D02*
X11874500Y-14782000D01*
X11824500Y-14732000D02*
X11924500Y-14732000D01*
X11874500Y-14936000D02*
X11874500Y-15036000D01*
X11824500Y-14986000D02*
X11924500Y-14986000D01*
X12128500Y-14682000D02*
X12128500Y-14782000D01*
X12078500Y-14732000D02*
X12178500Y-14732000D01*
X12128500Y-14936000D02*
X12128500Y-15036000D01*
X12078500Y-14986000D02*
X12178500Y-14986000D01*
X12382500Y-14682000D02*
X12382500Y-14782000D01*
X12332500Y-14732000D02*
X12432500Y-14732000D01*
X12382500Y-14936000D02*
X12382500Y-15036000D01*
X12332500Y-14986000D02*
X12432500Y-14986000D01*
X12636500Y-14682000D02*
X12636500Y-14782000D01*
X12586500Y-14732000D02*
X12686500Y-14732000D01*
X12636500Y-14936000D02*
X12636500Y-15036000D01*
X12586500Y-14986000D02*
X12686500Y-14986000D01*
X15113000Y-14682000D02*
X15113000Y-14782000D01*
X15063000Y-14732000D02*
X15163000Y-14732000D01*
X15113000Y-14936000D02*
X15113000Y-15036000D01*
X15063000Y-14986000D02*
X15163000Y-14986000D01*
X15367000Y-14682000D02*
X15367000Y-14782000D01*
X15317000Y-14732000D02*
X15417000Y-14732000D01*
X15367000Y-14936000D02*
X15367000Y-15036000D01*
X15317000Y-14986000D02*
X15417000Y-14986000D01*
X15621000Y-14682000D02*
X15621000Y-14782000D01*
X15571000Y-14732000D02*
X15671000Y-14732000D01*
X15621000Y-14936000D02*
X15621000Y-15036000D01*
X15571000Y-14986000D02*
X15671000Y-14986000D01*
X15875000Y-14682000D02*
X15875000Y-14782000D01*
X15825000Y-14732000D02*
X15925000Y-14732000D01*
X15875000Y-14936000D02*
X15875000Y-15036000D01*
X15825000Y-14986000D02*
X15925000Y-14986000D01*
X16129000Y-14682000D02*
X16129000Y-14782000D01*
X16079000Y-14732000D02*
X16179000Y-14732000D01*
X16129000Y-14936000D02*
X16129000Y-15036000D01*
X16079000Y-14986000D02*
X16179000Y-14986000D01*
X16383000Y-14682000D02*
X16383000Y-14782000D01*
X16333000Y-14732000D02*
X16433000Y-14732000D01*
X16383000Y-14936000D02*
X16383000Y-15036000D01*
X16333000Y-14986000D02*
X16433000Y-14986000D01*
X16637000Y-14682000D02*
X16637000Y-14782000D01*
X16587000Y-14732000D02*
X16687000Y-14732000D01*
X16637000Y-14936000D02*
X16637000Y-15036000D01*
X16587000Y-14986000D02*
X16687000Y-14986000D01*
X16891000Y-14682000D02*
X16891000Y-14782000D01*
X16841000Y-14732000D02*
X16941000Y-14732000D01*
X16891000Y-14936000D02*
X16891000Y-15036000D01*
X16841000Y-14986000D02*
X16941000Y-14986000D01*
X17145000Y-14682000D02*
X17145000Y-14782000D01*
X17095000Y-14732000D02*
X17195000Y-14732000D01*
X17145000Y-14936000D02*
X17145000Y-15036000D01*
X17095000Y-14986000D02*
X17195000Y-14986000D01*
X17399000Y-14682000D02*
X17399000Y-14782000D01*
X17349000Y-14732000D02*
X17449000Y-14732000D01*
X17399000Y-14936000D02*
X17399000Y-15036000D01*
X17349000Y-14986000D02*
X17449000Y-14986000D01*
X17653000Y-14682000D02*
X17653000Y-14782000D01*
X17603000Y-14732000D02*
X17703000Y-14732000D01*
X17653000Y-14936000D02*
X17653000Y-15036000D01*
X17603000Y-14986000D02*
X17703000Y-14986000D01*
X17907000Y-14682000D02*
X17907000Y-14782000D01*
X17857000Y-14732000D02*
X17957000Y-14732000D01*
X17907000Y-14936000D02*
X17907000Y-15036000D01*
X17857000Y-14986000D02*
X17957000Y-14986000D01*
X18161000Y-14682000D02*
X18161000Y-14782000D01*
X18111000Y-14732000D02*
X18211000Y-14732000D01*
X18161000Y-14936000D02*
X18161000Y-15036000D01*
X18111000Y-14986000D02*
X18211000Y-14986000D01*
X18415000Y-14682000D02*
X18415000Y-14782000D01*
X18365000Y-14732000D02*
X18465000Y-14732000D01*
X18415000Y-14936000D02*
X18415000Y-15036000D01*
X18365000Y-14986000D02*
X18465000Y-14986000D01*
X18669000Y-14682000D02*
X18669000Y-14782000D01*
X18619000Y-14732000D02*
X18719000Y-14732000D01*
X18669000Y-14936000D02*
X18669000Y-15036000D01*
X18619000Y-14986000D02*
X18719000Y-14986000D01*
X18923000Y-14682000D02*
X18923000Y-14782000D01*
X18873000Y-14732000D02*
X18973000Y-14732000D01*
X18923000Y-14936000D02*
X18923000Y-15036000D01*
X18873000Y-14986000D02*
X18973000Y-14986000D01*
X19177000Y-14682000D02*
X19177000Y-14782000D01*
X19127000Y-14732000D02*
X19227000Y-14732000D01*
X19177000Y-14936000D02*
X19177000Y-15036000D01*
X19127000Y-14986000D02*
X19227000Y-14986000D01*
X19431000Y-14682000D02*
X19431000Y-14782000D01*
X19381000Y-14732000D02*
X19481000Y-14732000D01*
X19431000Y-14936000D02*
X19431000Y-15036000D01*
X19381000Y-14986000D02*
X19481000Y-14986000D01*
X19685000Y-14682000D02*
X19685000Y-14782000D01*
X19635000Y-14732000D02*
X19735000Y-14732000D01*
X19685000Y-14936000D02*
X19685000Y-15036000D01*
X19635000Y-14986000D02*
X19735000Y-14986000D01*
X19939000Y-14682000D02*
X19939000Y-14782000D01*
X19889000Y-14732000D02*
X19989000Y-14732000D01*
X19939000Y-14936000D02*
X19939000Y-15036000D01*
X19889000Y-14986000D02*
X19989000Y-14986000D01*
X20193000Y-14682000D02*
X20193000Y-14782000D01*
X20143000Y-14732000D02*
X20243000Y-14732000D01*
X20193000Y-14936000D02*
X20193000Y-15036000D01*
X20143000Y-14986000D02*
X20243000Y-14986000D01*
X20447000Y-14682000D02*
X20447000Y-14782000D01*
X20397000Y-14732000D02*
X20497000Y-14732000D01*
X20447000Y-14936000D02*
X20447000Y-15036000D01*
X20397000Y-14986000D02*
X20497000Y-14986000D01*
X20701000Y-14682000D02*
X20701000Y-14782000D01*
X20651000Y-14732000D02*
X20751000Y-14732000D01*
X20701000Y-14936000D02*
X20701000Y-15036000D01*
X20651000Y-14986000D02*
X20751000Y-14986000D01*
X20955000Y-14682000D02*
X20955000Y-14782000D01*
X20905000Y-14732000D02*
X21005000Y-14732000D01*
X20955000Y-14936000D02*
X20955000Y-15036000D01*
X20905000Y-14986000D02*
X21005000Y-14986000D01*
X21209000Y-14682000D02*
X21209000Y-14782000D01*
X21159000Y-14732000D02*
X21259000Y-14732000D01*
X21209000Y-14936000D02*
X21209000Y-15036000D01*
X21159000Y-14986000D02*
X21259000Y-14986000D01*
X21463000Y-14682000D02*
X21463000Y-14782000D01*
X21413000Y-14732000D02*
X21513000Y-14732000D01*
X21463000Y-14936000D02*
X21463000Y-15036000D01*
X21413000Y-14986000D02*
X21513000Y-14986000D01*
X21717000Y-14682000D02*
X21717000Y-14782000D01*
X21667000Y-14732000D02*
X21767000Y-14732000D01*
X21717000Y-14936000D02*
X21717000Y-15036000D01*
X21667000Y-14986000D02*
X21767000Y-14986000D01*
X21971000Y-14682000D02*
X21971000Y-14782000D01*
X21921000Y-14732000D02*
X22021000Y-14732000D01*
X21971000Y-14936000D02*
X21971000Y-15036000D01*
X21921000Y-14986000D02*
X22021000Y-14986000D01*
X22225000Y-14682000D02*
X22225000Y-14782000D01*
X22175000Y-14732000D02*
X22275000Y-14732000D01*
X22225000Y-14936000D02*
X22225000Y-15036000D01*
X22175000Y-14986000D02*
X22275000Y-14986000D01*
X22479000Y-14682000D02*
X22479000Y-14782000D01*
X22429000Y-14732000D02*
X22529000Y-14732000D01*
X22479000Y-14936000D02*
X22479000Y-15036000D01*
X22429000Y-14986000D02*
X22529000Y-14986000D01*
X22733000Y-14682000D02*
X22733000Y-14782000D01*
X22683000Y-14732000D02*
X22783000Y-14732000D01*
X22733000Y-14936000D02*
X22733000Y-15036000D01*
X22683000Y-14986000D02*
X22783000Y-14986000D01*
X22987000Y-14682000D02*
X22987000Y-14782000D01*
X22937000Y-14732000D02*
X23037000Y-14732000D01*
X22987000Y-14936000D02*
X22987000Y-15036000D01*
X22937000Y-14986000D02*
X23037000Y-14986000D01*
D11*
X3811777Y-15848584D02*
X3811777Y-15648584D01*
X3811777Y-15648584D02*
X3859396Y-15648584D01*
X3859396Y-15648584D02*
X3887967Y-15658108D01*
X3887967Y-15658108D02*
X3907015Y-15677155D01*
X3907015Y-15677155D02*
X3916539Y-15696203D01*
X3916539Y-15696203D02*
X3926062Y-15734298D01*
X3926062Y-15734298D02*
X3926062Y-15762869D01*
X3926062Y-15762869D02*
X3916539Y-15800965D01*
X3916539Y-15800965D02*
X3907015Y-15820012D01*
X3907015Y-15820012D02*
X3887967Y-15839060D01*
X3887967Y-15839060D02*
X3859396Y-15848584D01*
X3859396Y-15848584D02*
X3811777Y-15848584D01*
X4011777Y-15848584D02*
X4011777Y-15715250D01*
X4011777Y-15753346D02*
X4021301Y-15734298D01*
X4021301Y-15734298D02*
X4030824Y-15724774D01*
X4030824Y-15724774D02*
X4049872Y-15715250D01*
X4049872Y-15715250D02*
X4068920Y-15715250D01*
X4135586Y-15848584D02*
X4135586Y-15715250D01*
X4135586Y-15648584D02*
X4126062Y-15658108D01*
X4126062Y-15658108D02*
X4135586Y-15667631D01*
X4135586Y-15667631D02*
X4145110Y-15658108D01*
X4145110Y-15658108D02*
X4135586Y-15648584D01*
X4135586Y-15648584D02*
X4135586Y-15667631D01*
X4259396Y-15848584D02*
X4240348Y-15839060D01*
X4240348Y-15839060D02*
X4230824Y-15820012D01*
X4230824Y-15820012D02*
X4230824Y-15648584D01*
X4364158Y-15848584D02*
X4345110Y-15839060D01*
X4345110Y-15839060D02*
X4335586Y-15820012D01*
X4335586Y-15820012D02*
X4335586Y-15648584D01*
X4592729Y-15848584D02*
X4592729Y-15648584D01*
X4592729Y-15648584D02*
X4659396Y-15791441D01*
X4659396Y-15791441D02*
X4726063Y-15648584D01*
X4726063Y-15648584D02*
X4726063Y-15848584D01*
X4907015Y-15848584D02*
X4907015Y-15743822D01*
X4907015Y-15743822D02*
X4897491Y-15724774D01*
X4897491Y-15724774D02*
X4878444Y-15715250D01*
X4878444Y-15715250D02*
X4840348Y-15715250D01*
X4840348Y-15715250D02*
X4821301Y-15724774D01*
X4907015Y-15839060D02*
X4887967Y-15848584D01*
X4887967Y-15848584D02*
X4840348Y-15848584D01*
X4840348Y-15848584D02*
X4821301Y-15839060D01*
X4821301Y-15839060D02*
X4811777Y-15820012D01*
X4811777Y-15820012D02*
X4811777Y-15800965D01*
X4811777Y-15800965D02*
X4821301Y-15781917D01*
X4821301Y-15781917D02*
X4840348Y-15772393D01*
X4840348Y-15772393D02*
X4887967Y-15772393D01*
X4887967Y-15772393D02*
X4907015Y-15762869D01*
X5002253Y-15715250D02*
X5002253Y-15915250D01*
X5002253Y-15724774D02*
X5021301Y-15715250D01*
X5021301Y-15715250D02*
X5059396Y-15715250D01*
X5059396Y-15715250D02*
X5078444Y-15724774D01*
X5078444Y-15724774D02*
X5087967Y-15734298D01*
X5087967Y-15734298D02*
X5097491Y-15753346D01*
X5097491Y-15753346D02*
X5097491Y-15810488D01*
X5097491Y-15810488D02*
X5087967Y-15829536D01*
X5087967Y-15829536D02*
X5078444Y-15839060D01*
X5078444Y-15839060D02*
X5059396Y-15848584D01*
X5059396Y-15848584D02*
X5021301Y-15848584D01*
X5021301Y-15848584D02*
X5002253Y-15839060D01*
X5183205Y-15829536D02*
X5192729Y-15839060D01*
X5192729Y-15839060D02*
X5183205Y-15848584D01*
X5183205Y-15848584D02*
X5173682Y-15839060D01*
X5173682Y-15839060D02*
X5183205Y-15829536D01*
X5183205Y-15829536D02*
X5183205Y-15848584D01*
X5183205Y-15724774D02*
X5192729Y-15734298D01*
X5192729Y-15734298D02*
X5183205Y-15743822D01*
X5183205Y-15743822D02*
X5173682Y-15734298D01*
X5173682Y-15734298D02*
X5183205Y-15724774D01*
X5183205Y-15724774D02*
X5183205Y-15743822D01*
D12*
X3511000Y-16157100D02*
X3551000Y-16197100D01*
X3551000Y-16157100D02*
X3511000Y-16197100D01*
D11*
X3849872Y-16068584D02*
X3868920Y-16068584D01*
X3868920Y-16068584D02*
X3887967Y-16078108D01*
X3887967Y-16078108D02*
X3897491Y-16087631D01*
X3897491Y-16087631D02*
X3907015Y-16106679D01*
X3907015Y-16106679D02*
X3916539Y-16144774D01*
X3916539Y-16144774D02*
X3916539Y-16192393D01*
X3916539Y-16192393D02*
X3907015Y-16230488D01*
X3907015Y-16230488D02*
X3897491Y-16249536D01*
X3897491Y-16249536D02*
X3887967Y-16259060D01*
X3887967Y-16259060D02*
X3868920Y-16268584D01*
X3868920Y-16268584D02*
X3849872Y-16268584D01*
X3849872Y-16268584D02*
X3830824Y-16259060D01*
X3830824Y-16259060D02*
X3821301Y-16249536D01*
X3821301Y-16249536D02*
X3811777Y-16230488D01*
X3811777Y-16230488D02*
X3802253Y-16192393D01*
X3802253Y-16192393D02*
X3802253Y-16144774D01*
X3802253Y-16144774D02*
X3811777Y-16106679D01*
X3811777Y-16106679D02*
X3821301Y-16087631D01*
X3821301Y-16087631D02*
X3830824Y-16078108D01*
X3830824Y-16078108D02*
X3849872Y-16068584D01*
X4002253Y-16249536D02*
X4011777Y-16259060D01*
X4011777Y-16259060D02*
X4002253Y-16268584D01*
X4002253Y-16268584D02*
X3992729Y-16259060D01*
X3992729Y-16259060D02*
X4002253Y-16249536D01*
X4002253Y-16249536D02*
X4002253Y-16268584D01*
X4183205Y-16135250D02*
X4183205Y-16268584D01*
X4135586Y-16059060D02*
X4087967Y-16201917D01*
X4087967Y-16201917D02*
X4211777Y-16201917D01*
X4326063Y-16068584D02*
X4345110Y-16068584D01*
X4345110Y-16068584D02*
X4364158Y-16078108D01*
X4364158Y-16078108D02*
X4373682Y-16087631D01*
X4373682Y-16087631D02*
X4383205Y-16106679D01*
X4383205Y-16106679D02*
X4392729Y-16144774D01*
X4392729Y-16144774D02*
X4392729Y-16192393D01*
X4392729Y-16192393D02*
X4383205Y-16230488D01*
X4383205Y-16230488D02*
X4373682Y-16249536D01*
X4373682Y-16249536D02*
X4364158Y-16259060D01*
X4364158Y-16259060D02*
X4345110Y-16268584D01*
X4345110Y-16268584D02*
X4326063Y-16268584D01*
X4326063Y-16268584D02*
X4307015Y-16259060D01*
X4307015Y-16259060D02*
X4297491Y-16249536D01*
X4297491Y-16249536D02*
X4287967Y-16230488D01*
X4287967Y-16230488D02*
X4278444Y-16192393D01*
X4278444Y-16192393D02*
X4278444Y-16144774D01*
X4278444Y-16144774D02*
X4287967Y-16106679D01*
X4287967Y-16106679D02*
X4297491Y-16087631D01*
X4297491Y-16087631D02*
X4307015Y-16078108D01*
X4307015Y-16078108D02*
X4326063Y-16068584D01*
X4516539Y-16068584D02*
X4535586Y-16068584D01*
X4535586Y-16068584D02*
X4554634Y-16078108D01*
X4554634Y-16078108D02*
X4564158Y-16087631D01*
X4564158Y-16087631D02*
X4573682Y-16106679D01*
X4573682Y-16106679D02*
X4583205Y-16144774D01*
X4583205Y-16144774D02*
X4583205Y-16192393D01*
X4583205Y-16192393D02*
X4573682Y-16230488D01*
X4573682Y-16230488D02*
X4564158Y-16249536D01*
X4564158Y-16249536D02*
X4554634Y-16259060D01*
X4554634Y-16259060D02*
X4535586Y-16268584D01*
X4535586Y-16268584D02*
X4516539Y-16268584D01*
X4516539Y-16268584D02*
X4497491Y-16259060D01*
X4497491Y-16259060D02*
X4487967Y-16249536D01*
X4487967Y-16249536D02*
X4478444Y-16230488D01*
X4478444Y-16230488D02*
X4468920Y-16192393D01*
X4468920Y-16192393D02*
X4468920Y-16144774D01*
X4468920Y-16144774D02*
X4478444Y-16106679D01*
X4478444Y-16106679D02*
X4487967Y-16087631D01*
X4487967Y-16087631D02*
X4497491Y-16078108D01*
X4497491Y-16078108D02*
X4516539Y-16068584D01*
X4668920Y-16268584D02*
X4668920Y-16135250D01*
X4668920Y-16154298D02*
X4678444Y-16144774D01*
X4678444Y-16144774D02*
X4697491Y-16135250D01*
X4697491Y-16135250D02*
X4726063Y-16135250D01*
X4726063Y-16135250D02*
X4745110Y-16144774D01*
X4745110Y-16144774D02*
X4754634Y-16163822D01*
X4754634Y-16163822D02*
X4754634Y-16268584D01*
X4754634Y-16163822D02*
X4764158Y-16144774D01*
X4764158Y-16144774D02*
X4783205Y-16135250D01*
X4783205Y-16135250D02*
X4811777Y-16135250D01*
X4811777Y-16135250D02*
X4830825Y-16144774D01*
X4830825Y-16144774D02*
X4840348Y-16163822D01*
X4840348Y-16163822D02*
X4840348Y-16268584D01*
X4935586Y-16268584D02*
X4935586Y-16135250D01*
X4935586Y-16154298D02*
X4945110Y-16144774D01*
X4945110Y-16144774D02*
X4964158Y-16135250D01*
X4964158Y-16135250D02*
X4992729Y-16135250D01*
X4992729Y-16135250D02*
X5011777Y-16144774D01*
X5011777Y-16144774D02*
X5021301Y-16163822D01*
X5021301Y-16163822D02*
X5021301Y-16268584D01*
X5021301Y-16163822D02*
X5030825Y-16144774D01*
X5030825Y-16144774D02*
X5049872Y-16135250D01*
X5049872Y-16135250D02*
X5078444Y-16135250D01*
X5078444Y-16135250D02*
X5097491Y-16144774D01*
X5097491Y-16144774D02*
X5107015Y-16163822D01*
X5107015Y-16163822D02*
X5107015Y-16268584D01*
X5497491Y-16059060D02*
X5326063Y-16316203D01*
X5754634Y-16068584D02*
X5773682Y-16068584D01*
X5773682Y-16068584D02*
X5792729Y-16078108D01*
X5792729Y-16078108D02*
X5802253Y-16087631D01*
X5802253Y-16087631D02*
X5811777Y-16106679D01*
X5811777Y-16106679D02*
X5821301Y-16144774D01*
X5821301Y-16144774D02*
X5821301Y-16192393D01*
X5821301Y-16192393D02*
X5811777Y-16230488D01*
X5811777Y-16230488D02*
X5802253Y-16249536D01*
X5802253Y-16249536D02*
X5792729Y-16259060D01*
X5792729Y-16259060D02*
X5773682Y-16268584D01*
X5773682Y-16268584D02*
X5754634Y-16268584D01*
X5754634Y-16268584D02*
X5735586Y-16259060D01*
X5735586Y-16259060D02*
X5726063Y-16249536D01*
X5726063Y-16249536D02*
X5716539Y-16230488D01*
X5716539Y-16230488D02*
X5707015Y-16192393D01*
X5707015Y-16192393D02*
X5707015Y-16144774D01*
X5707015Y-16144774D02*
X5716539Y-16106679D01*
X5716539Y-16106679D02*
X5726063Y-16087631D01*
X5726063Y-16087631D02*
X5735586Y-16078108D01*
X5735586Y-16078108D02*
X5754634Y-16068584D01*
X5907015Y-16249536D02*
X5916539Y-16259060D01*
X5916539Y-16259060D02*
X5907015Y-16268584D01*
X5907015Y-16268584D02*
X5897491Y-16259060D01*
X5897491Y-16259060D02*
X5907015Y-16249536D01*
X5907015Y-16249536D02*
X5907015Y-16268584D01*
X6040348Y-16068584D02*
X6059396Y-16068584D01*
X6059396Y-16068584D02*
X6078444Y-16078108D01*
X6078444Y-16078108D02*
X6087967Y-16087631D01*
X6087967Y-16087631D02*
X6097491Y-16106679D01*
X6097491Y-16106679D02*
X6107015Y-16144774D01*
X6107015Y-16144774D02*
X6107015Y-16192393D01*
X6107015Y-16192393D02*
X6097491Y-16230488D01*
X6097491Y-16230488D02*
X6087967Y-16249536D01*
X6087967Y-16249536D02*
X6078444Y-16259060D01*
X6078444Y-16259060D02*
X6059396Y-16268584D01*
X6059396Y-16268584D02*
X6040348Y-16268584D01*
X6040348Y-16268584D02*
X6021301Y-16259060D01*
X6021301Y-16259060D02*
X6011777Y-16249536D01*
X6011777Y-16249536D02*
X6002253Y-16230488D01*
X6002253Y-16230488D02*
X5992729Y-16192393D01*
X5992729Y-16192393D02*
X5992729Y-16144774D01*
X5992729Y-16144774D02*
X6002253Y-16106679D01*
X6002253Y-16106679D02*
X6011777Y-16087631D01*
X6011777Y-16087631D02*
X6021301Y-16078108D01*
X6021301Y-16078108D02*
X6040348Y-16068584D01*
X6297491Y-16268584D02*
X6183206Y-16268584D01*
X6240348Y-16268584D02*
X6240348Y-16068584D01*
X6240348Y-16068584D02*
X6221301Y-16097155D01*
X6221301Y-16097155D02*
X6202253Y-16116203D01*
X6202253Y-16116203D02*
X6183206Y-16125727D01*
X6478444Y-16068584D02*
X6383206Y-16068584D01*
X6383206Y-16068584D02*
X6373682Y-16163822D01*
X6373682Y-16163822D02*
X6383206Y-16154298D01*
X6383206Y-16154298D02*
X6402253Y-16144774D01*
X6402253Y-16144774D02*
X6449872Y-16144774D01*
X6449872Y-16144774D02*
X6468920Y-16154298D01*
X6468920Y-16154298D02*
X6478444Y-16163822D01*
X6478444Y-16163822D02*
X6487967Y-16182869D01*
X6487967Y-16182869D02*
X6487967Y-16230488D01*
X6487967Y-16230488D02*
X6478444Y-16249536D01*
X6478444Y-16249536D02*
X6468920Y-16259060D01*
X6468920Y-16259060D02*
X6449872Y-16268584D01*
X6449872Y-16268584D02*
X6402253Y-16268584D01*
X6402253Y-16268584D02*
X6383206Y-16259060D01*
X6383206Y-16259060D02*
X6373682Y-16249536D01*
X6554634Y-16068584D02*
X6687967Y-16068584D01*
X6687967Y-16068584D02*
X6602253Y-16268584D01*
X6754634Y-16068584D02*
X6754634Y-16106679D01*
X6830825Y-16068584D02*
X6830825Y-16106679D01*
X7126063Y-16344774D02*
X7116539Y-16335250D01*
X7116539Y-16335250D02*
X7097491Y-16306679D01*
X7097491Y-16306679D02*
X7087968Y-16287631D01*
X7087968Y-16287631D02*
X7078444Y-16259060D01*
X7078444Y-16259060D02*
X7068920Y-16211441D01*
X7068920Y-16211441D02*
X7068920Y-16173346D01*
X7068920Y-16173346D02*
X7078444Y-16125727D01*
X7078444Y-16125727D02*
X7087968Y-16097155D01*
X7087968Y-16097155D02*
X7097491Y-16078108D01*
X7097491Y-16078108D02*
X7116539Y-16049536D01*
X7116539Y-16049536D02*
X7126063Y-16040012D01*
X7183206Y-16068584D02*
X7316539Y-16068584D01*
X7316539Y-16068584D02*
X7230825Y-16268584D01*
X7478444Y-16068584D02*
X7440348Y-16068584D01*
X7440348Y-16068584D02*
X7421301Y-16078108D01*
X7421301Y-16078108D02*
X7411777Y-16087631D01*
X7411777Y-16087631D02*
X7392729Y-16116203D01*
X7392729Y-16116203D02*
X7383206Y-16154298D01*
X7383206Y-16154298D02*
X7383206Y-16230488D01*
X7383206Y-16230488D02*
X7392729Y-16249536D01*
X7392729Y-16249536D02*
X7402253Y-16259060D01*
X7402253Y-16259060D02*
X7421301Y-16268584D01*
X7421301Y-16268584D02*
X7459396Y-16268584D01*
X7459396Y-16268584D02*
X7478444Y-16259060D01*
X7478444Y-16259060D02*
X7487968Y-16249536D01*
X7487968Y-16249536D02*
X7497491Y-16230488D01*
X7497491Y-16230488D02*
X7497491Y-16182869D01*
X7497491Y-16182869D02*
X7487968Y-16163822D01*
X7487968Y-16163822D02*
X7478444Y-16154298D01*
X7478444Y-16154298D02*
X7459396Y-16144774D01*
X7459396Y-16144774D02*
X7421301Y-16144774D01*
X7421301Y-16144774D02*
X7402253Y-16154298D01*
X7402253Y-16154298D02*
X7392729Y-16163822D01*
X7392729Y-16163822D02*
X7383206Y-16182869D01*
X7735587Y-16268584D02*
X7735587Y-16068584D01*
X7821301Y-16268584D02*
X7821301Y-16163822D01*
X7821301Y-16163822D02*
X7811777Y-16144774D01*
X7811777Y-16144774D02*
X7792730Y-16135250D01*
X7792730Y-16135250D02*
X7764158Y-16135250D01*
X7764158Y-16135250D02*
X7745110Y-16144774D01*
X7745110Y-16144774D02*
X7735587Y-16154298D01*
X7945110Y-16268584D02*
X7926063Y-16259060D01*
X7926063Y-16259060D02*
X7916539Y-16249536D01*
X7916539Y-16249536D02*
X7907015Y-16230488D01*
X7907015Y-16230488D02*
X7907015Y-16173346D01*
X7907015Y-16173346D02*
X7916539Y-16154298D01*
X7916539Y-16154298D02*
X7926063Y-16144774D01*
X7926063Y-16144774D02*
X7945110Y-16135250D01*
X7945110Y-16135250D02*
X7973682Y-16135250D01*
X7973682Y-16135250D02*
X7992730Y-16144774D01*
X7992730Y-16144774D02*
X8002253Y-16154298D01*
X8002253Y-16154298D02*
X8011777Y-16173346D01*
X8011777Y-16173346D02*
X8011777Y-16230488D01*
X8011777Y-16230488D02*
X8002253Y-16249536D01*
X8002253Y-16249536D02*
X7992730Y-16259060D01*
X7992730Y-16259060D02*
X7973682Y-16268584D01*
X7973682Y-16268584D02*
X7945110Y-16268584D01*
X8126063Y-16268584D02*
X8107015Y-16259060D01*
X8107015Y-16259060D02*
X8097491Y-16240012D01*
X8097491Y-16240012D02*
X8097491Y-16068584D01*
X8278444Y-16259060D02*
X8259396Y-16268584D01*
X8259396Y-16268584D02*
X8221301Y-16268584D01*
X8221301Y-16268584D02*
X8202253Y-16259060D01*
X8202253Y-16259060D02*
X8192730Y-16240012D01*
X8192730Y-16240012D02*
X8192730Y-16163822D01*
X8192730Y-16163822D02*
X8202253Y-16144774D01*
X8202253Y-16144774D02*
X8221301Y-16135250D01*
X8221301Y-16135250D02*
X8259396Y-16135250D01*
X8259396Y-16135250D02*
X8278444Y-16144774D01*
X8278444Y-16144774D02*
X8287968Y-16163822D01*
X8287968Y-16163822D02*
X8287968Y-16182869D01*
X8287968Y-16182869D02*
X8192730Y-16201917D01*
X8364158Y-16259060D02*
X8383206Y-16268584D01*
X8383206Y-16268584D02*
X8421301Y-16268584D01*
X8421301Y-16268584D02*
X8440349Y-16259060D01*
X8440349Y-16259060D02*
X8449873Y-16240012D01*
X8449873Y-16240012D02*
X8449873Y-16230488D01*
X8449873Y-16230488D02*
X8440349Y-16211441D01*
X8440349Y-16211441D02*
X8421301Y-16201917D01*
X8421301Y-16201917D02*
X8392730Y-16201917D01*
X8392730Y-16201917D02*
X8373682Y-16192393D01*
X8373682Y-16192393D02*
X8364158Y-16173346D01*
X8364158Y-16173346D02*
X8364158Y-16163822D01*
X8364158Y-16163822D02*
X8373682Y-16144774D01*
X8373682Y-16144774D02*
X8392730Y-16135250D01*
X8392730Y-16135250D02*
X8421301Y-16135250D01*
X8421301Y-16135250D02*
X8440349Y-16144774D01*
X8516539Y-16344774D02*
X8526063Y-16335250D01*
X8526063Y-16335250D02*
X8545111Y-16306679D01*
X8545111Y-16306679D02*
X8554634Y-16287631D01*
X8554634Y-16287631D02*
X8564158Y-16259060D01*
X8564158Y-16259060D02*
X8573682Y-16211441D01*
X8573682Y-16211441D02*
X8573682Y-16173346D01*
X8573682Y-16173346D02*
X8564158Y-16125727D01*
X8564158Y-16125727D02*
X8554634Y-16097155D01*
X8554634Y-16097155D02*
X8545111Y-16078108D01*
X8545111Y-16078108D02*
X8526063Y-16049536D01*
X8526063Y-16049536D02*
X8516539Y-16040012D01*
D13*
X3551000Y-16441100D02*
G75*
G03*
X3551000Y-16441100I-40000J0D01*
G01*
D11*
X3849872Y-16332584D02*
X3868920Y-16332584D01*
X3868920Y-16332584D02*
X3887967Y-16342108D01*
X3887967Y-16342108D02*
X3897491Y-16351631D01*
X3897491Y-16351631D02*
X3907015Y-16370679D01*
X3907015Y-16370679D02*
X3916539Y-16408774D01*
X3916539Y-16408774D02*
X3916539Y-16456393D01*
X3916539Y-16456393D02*
X3907015Y-16494488D01*
X3907015Y-16494488D02*
X3897491Y-16513536D01*
X3897491Y-16513536D02*
X3887967Y-16523060D01*
X3887967Y-16523060D02*
X3868920Y-16532584D01*
X3868920Y-16532584D02*
X3849872Y-16532584D01*
X3849872Y-16532584D02*
X3830824Y-16523060D01*
X3830824Y-16523060D02*
X3821301Y-16513536D01*
X3821301Y-16513536D02*
X3811777Y-16494488D01*
X3811777Y-16494488D02*
X3802253Y-16456393D01*
X3802253Y-16456393D02*
X3802253Y-16408774D01*
X3802253Y-16408774D02*
X3811777Y-16370679D01*
X3811777Y-16370679D02*
X3821301Y-16351631D01*
X3821301Y-16351631D02*
X3830824Y-16342108D01*
X3830824Y-16342108D02*
X3849872Y-16332584D01*
X4002253Y-16513536D02*
X4011777Y-16523060D01*
X4011777Y-16523060D02*
X4002253Y-16532584D01*
X4002253Y-16532584D02*
X3992729Y-16523060D01*
X3992729Y-16523060D02*
X4002253Y-16513536D01*
X4002253Y-16513536D02*
X4002253Y-16532584D01*
X4126062Y-16418298D02*
X4107015Y-16408774D01*
X4107015Y-16408774D02*
X4097491Y-16399250D01*
X4097491Y-16399250D02*
X4087967Y-16380203D01*
X4087967Y-16380203D02*
X4087967Y-16370679D01*
X4087967Y-16370679D02*
X4097491Y-16351631D01*
X4097491Y-16351631D02*
X4107015Y-16342108D01*
X4107015Y-16342108D02*
X4126062Y-16332584D01*
X4126062Y-16332584D02*
X4164158Y-16332584D01*
X4164158Y-16332584D02*
X4183205Y-16342108D01*
X4183205Y-16342108D02*
X4192729Y-16351631D01*
X4192729Y-16351631D02*
X4202253Y-16370679D01*
X4202253Y-16370679D02*
X4202253Y-16380203D01*
X4202253Y-16380203D02*
X4192729Y-16399250D01*
X4192729Y-16399250D02*
X4183205Y-16408774D01*
X4183205Y-16408774D02*
X4164158Y-16418298D01*
X4164158Y-16418298D02*
X4126062Y-16418298D01*
X4126062Y-16418298D02*
X4107015Y-16427822D01*
X4107015Y-16427822D02*
X4097491Y-16437346D01*
X4097491Y-16437346D02*
X4087967Y-16456393D01*
X4087967Y-16456393D02*
X4087967Y-16494488D01*
X4087967Y-16494488D02*
X4097491Y-16513536D01*
X4097491Y-16513536D02*
X4107015Y-16523060D01*
X4107015Y-16523060D02*
X4126062Y-16532584D01*
X4126062Y-16532584D02*
X4164158Y-16532584D01*
X4164158Y-16532584D02*
X4183205Y-16523060D01*
X4183205Y-16523060D02*
X4192729Y-16513536D01*
X4192729Y-16513536D02*
X4202253Y-16494488D01*
X4202253Y-16494488D02*
X4202253Y-16456393D01*
X4202253Y-16456393D02*
X4192729Y-16437346D01*
X4192729Y-16437346D02*
X4183205Y-16427822D01*
X4183205Y-16427822D02*
X4164158Y-16418298D01*
X4326063Y-16332584D02*
X4345110Y-16332584D01*
X4345110Y-16332584D02*
X4364158Y-16342108D01*
X4364158Y-16342108D02*
X4373682Y-16351631D01*
X4373682Y-16351631D02*
X4383205Y-16370679D01*
X4383205Y-16370679D02*
X4392729Y-16408774D01*
X4392729Y-16408774D02*
X4392729Y-16456393D01*
X4392729Y-16456393D02*
X4383205Y-16494488D01*
X4383205Y-16494488D02*
X4373682Y-16513536D01*
X4373682Y-16513536D02*
X4364158Y-16523060D01*
X4364158Y-16523060D02*
X4345110Y-16532584D01*
X4345110Y-16532584D02*
X4326063Y-16532584D01*
X4326063Y-16532584D02*
X4307015Y-16523060D01*
X4307015Y-16523060D02*
X4297491Y-16513536D01*
X4297491Y-16513536D02*
X4287967Y-16494488D01*
X4287967Y-16494488D02*
X4278444Y-16456393D01*
X4278444Y-16456393D02*
X4278444Y-16408774D01*
X4278444Y-16408774D02*
X4287967Y-16370679D01*
X4287967Y-16370679D02*
X4297491Y-16351631D01*
X4297491Y-16351631D02*
X4307015Y-16342108D01*
X4307015Y-16342108D02*
X4326063Y-16332584D01*
X4516539Y-16332584D02*
X4535586Y-16332584D01*
X4535586Y-16332584D02*
X4554634Y-16342108D01*
X4554634Y-16342108D02*
X4564158Y-16351631D01*
X4564158Y-16351631D02*
X4573682Y-16370679D01*
X4573682Y-16370679D02*
X4583205Y-16408774D01*
X4583205Y-16408774D02*
X4583205Y-16456393D01*
X4583205Y-16456393D02*
X4573682Y-16494488D01*
X4573682Y-16494488D02*
X4564158Y-16513536D01*
X4564158Y-16513536D02*
X4554634Y-16523060D01*
X4554634Y-16523060D02*
X4535586Y-16532584D01*
X4535586Y-16532584D02*
X4516539Y-16532584D01*
X4516539Y-16532584D02*
X4497491Y-16523060D01*
X4497491Y-16523060D02*
X4487967Y-16513536D01*
X4487967Y-16513536D02*
X4478444Y-16494488D01*
X4478444Y-16494488D02*
X4468920Y-16456393D01*
X4468920Y-16456393D02*
X4468920Y-16408774D01*
X4468920Y-16408774D02*
X4478444Y-16370679D01*
X4478444Y-16370679D02*
X4487967Y-16351631D01*
X4487967Y-16351631D02*
X4497491Y-16342108D01*
X4497491Y-16342108D02*
X4516539Y-16332584D01*
X4668920Y-16532584D02*
X4668920Y-16399250D01*
X4668920Y-16418298D02*
X4678444Y-16408774D01*
X4678444Y-16408774D02*
X4697491Y-16399250D01*
X4697491Y-16399250D02*
X4726063Y-16399250D01*
X4726063Y-16399250D02*
X4745110Y-16408774D01*
X4745110Y-16408774D02*
X4754634Y-16427822D01*
X4754634Y-16427822D02*
X4754634Y-16532584D01*
X4754634Y-16427822D02*
X4764158Y-16408774D01*
X4764158Y-16408774D02*
X4783205Y-16399250D01*
X4783205Y-16399250D02*
X4811777Y-16399250D01*
X4811777Y-16399250D02*
X4830825Y-16408774D01*
X4830825Y-16408774D02*
X4840348Y-16427822D01*
X4840348Y-16427822D02*
X4840348Y-16532584D01*
X4935586Y-16532584D02*
X4935586Y-16399250D01*
X4935586Y-16418298D02*
X4945110Y-16408774D01*
X4945110Y-16408774D02*
X4964158Y-16399250D01*
X4964158Y-16399250D02*
X4992729Y-16399250D01*
X4992729Y-16399250D02*
X5011777Y-16408774D01*
X5011777Y-16408774D02*
X5021301Y-16427822D01*
X5021301Y-16427822D02*
X5021301Y-16532584D01*
X5021301Y-16427822D02*
X5030825Y-16408774D01*
X5030825Y-16408774D02*
X5049872Y-16399250D01*
X5049872Y-16399250D02*
X5078444Y-16399250D01*
X5078444Y-16399250D02*
X5097491Y-16408774D01*
X5097491Y-16408774D02*
X5107015Y-16427822D01*
X5107015Y-16427822D02*
X5107015Y-16532584D01*
X5497491Y-16323060D02*
X5326063Y-16580203D01*
X5754634Y-16332584D02*
X5773682Y-16332584D01*
X5773682Y-16332584D02*
X5792729Y-16342108D01*
X5792729Y-16342108D02*
X5802253Y-16351631D01*
X5802253Y-16351631D02*
X5811777Y-16370679D01*
X5811777Y-16370679D02*
X5821301Y-16408774D01*
X5821301Y-16408774D02*
X5821301Y-16456393D01*
X5821301Y-16456393D02*
X5811777Y-16494488D01*
X5811777Y-16494488D02*
X5802253Y-16513536D01*
X5802253Y-16513536D02*
X5792729Y-16523060D01*
X5792729Y-16523060D02*
X5773682Y-16532584D01*
X5773682Y-16532584D02*
X5754634Y-16532584D01*
X5754634Y-16532584D02*
X5735586Y-16523060D01*
X5735586Y-16523060D02*
X5726063Y-16513536D01*
X5726063Y-16513536D02*
X5716539Y-16494488D01*
X5716539Y-16494488D02*
X5707015Y-16456393D01*
X5707015Y-16456393D02*
X5707015Y-16408774D01*
X5707015Y-16408774D02*
X5716539Y-16370679D01*
X5716539Y-16370679D02*
X5726063Y-16351631D01*
X5726063Y-16351631D02*
X5735586Y-16342108D01*
X5735586Y-16342108D02*
X5754634Y-16332584D01*
X5907015Y-16513536D02*
X5916539Y-16523060D01*
X5916539Y-16523060D02*
X5907015Y-16532584D01*
X5907015Y-16532584D02*
X5897491Y-16523060D01*
X5897491Y-16523060D02*
X5907015Y-16513536D01*
X5907015Y-16513536D02*
X5907015Y-16532584D01*
X6040348Y-16332584D02*
X6059396Y-16332584D01*
X6059396Y-16332584D02*
X6078444Y-16342108D01*
X6078444Y-16342108D02*
X6087967Y-16351631D01*
X6087967Y-16351631D02*
X6097491Y-16370679D01*
X6097491Y-16370679D02*
X6107015Y-16408774D01*
X6107015Y-16408774D02*
X6107015Y-16456393D01*
X6107015Y-16456393D02*
X6097491Y-16494488D01*
X6097491Y-16494488D02*
X6087967Y-16513536D01*
X6087967Y-16513536D02*
X6078444Y-16523060D01*
X6078444Y-16523060D02*
X6059396Y-16532584D01*
X6059396Y-16532584D02*
X6040348Y-16532584D01*
X6040348Y-16532584D02*
X6021301Y-16523060D01*
X6021301Y-16523060D02*
X6011777Y-16513536D01*
X6011777Y-16513536D02*
X6002253Y-16494488D01*
X6002253Y-16494488D02*
X5992729Y-16456393D01*
X5992729Y-16456393D02*
X5992729Y-16408774D01*
X5992729Y-16408774D02*
X6002253Y-16370679D01*
X6002253Y-16370679D02*
X6011777Y-16351631D01*
X6011777Y-16351631D02*
X6021301Y-16342108D01*
X6021301Y-16342108D02*
X6040348Y-16332584D01*
X6173682Y-16332584D02*
X6297491Y-16332584D01*
X6297491Y-16332584D02*
X6230825Y-16408774D01*
X6230825Y-16408774D02*
X6259396Y-16408774D01*
X6259396Y-16408774D02*
X6278444Y-16418298D01*
X6278444Y-16418298D02*
X6287967Y-16427822D01*
X6287967Y-16427822D02*
X6297491Y-16446869D01*
X6297491Y-16446869D02*
X6297491Y-16494488D01*
X6297491Y-16494488D02*
X6287967Y-16513536D01*
X6287967Y-16513536D02*
X6278444Y-16523060D01*
X6278444Y-16523060D02*
X6259396Y-16532584D01*
X6259396Y-16532584D02*
X6202253Y-16532584D01*
X6202253Y-16532584D02*
X6183206Y-16523060D01*
X6183206Y-16523060D02*
X6173682Y-16513536D01*
X6487967Y-16532584D02*
X6373682Y-16532584D01*
X6430825Y-16532584D02*
X6430825Y-16332584D01*
X6430825Y-16332584D02*
X6411777Y-16361155D01*
X6411777Y-16361155D02*
X6392729Y-16380203D01*
X6392729Y-16380203D02*
X6373682Y-16389727D01*
X6668920Y-16332584D02*
X6573682Y-16332584D01*
X6573682Y-16332584D02*
X6564158Y-16427822D01*
X6564158Y-16427822D02*
X6573682Y-16418298D01*
X6573682Y-16418298D02*
X6592729Y-16408774D01*
X6592729Y-16408774D02*
X6640348Y-16408774D01*
X6640348Y-16408774D02*
X6659396Y-16418298D01*
X6659396Y-16418298D02*
X6668920Y-16427822D01*
X6668920Y-16427822D02*
X6678444Y-16446869D01*
X6678444Y-16446869D02*
X6678444Y-16494488D01*
X6678444Y-16494488D02*
X6668920Y-16513536D01*
X6668920Y-16513536D02*
X6659396Y-16523060D01*
X6659396Y-16523060D02*
X6640348Y-16532584D01*
X6640348Y-16532584D02*
X6592729Y-16532584D01*
X6592729Y-16532584D02*
X6573682Y-16523060D01*
X6573682Y-16523060D02*
X6564158Y-16513536D01*
X6754634Y-16332584D02*
X6754634Y-16370679D01*
X6830825Y-16332584D02*
X6830825Y-16370679D01*
X7126063Y-16608774D02*
X7116539Y-16599250D01*
X7116539Y-16599250D02*
X7097491Y-16570679D01*
X7097491Y-16570679D02*
X7087968Y-16551631D01*
X7087968Y-16551631D02*
X7078444Y-16523060D01*
X7078444Y-16523060D02*
X7068920Y-16475441D01*
X7068920Y-16475441D02*
X7068920Y-16437346D01*
X7068920Y-16437346D02*
X7078444Y-16389727D01*
X7078444Y-16389727D02*
X7087968Y-16361155D01*
X7087968Y-16361155D02*
X7097491Y-16342108D01*
X7097491Y-16342108D02*
X7116539Y-16313536D01*
X7116539Y-16313536D02*
X7126063Y-16304012D01*
X7287968Y-16399250D02*
X7287968Y-16532584D01*
X7240348Y-16323060D02*
X7192729Y-16465917D01*
X7192729Y-16465917D02*
X7316539Y-16465917D01*
X7487968Y-16332584D02*
X7392729Y-16332584D01*
X7392729Y-16332584D02*
X7383206Y-16427822D01*
X7383206Y-16427822D02*
X7392729Y-16418298D01*
X7392729Y-16418298D02*
X7411777Y-16408774D01*
X7411777Y-16408774D02*
X7459396Y-16408774D01*
X7459396Y-16408774D02*
X7478444Y-16418298D01*
X7478444Y-16418298D02*
X7487968Y-16427822D01*
X7487968Y-16427822D02*
X7497491Y-16446869D01*
X7497491Y-16446869D02*
X7497491Y-16494488D01*
X7497491Y-16494488D02*
X7487968Y-16513536D01*
X7487968Y-16513536D02*
X7478444Y-16523060D01*
X7478444Y-16523060D02*
X7459396Y-16532584D01*
X7459396Y-16532584D02*
X7411777Y-16532584D01*
X7411777Y-16532584D02*
X7392729Y-16523060D01*
X7392729Y-16523060D02*
X7383206Y-16513536D01*
X7573682Y-16351631D02*
X7583206Y-16342108D01*
X7583206Y-16342108D02*
X7602253Y-16332584D01*
X7602253Y-16332584D02*
X7649872Y-16332584D01*
X7649872Y-16332584D02*
X7668920Y-16342108D01*
X7668920Y-16342108D02*
X7678444Y-16351631D01*
X7678444Y-16351631D02*
X7687968Y-16370679D01*
X7687968Y-16370679D02*
X7687968Y-16389727D01*
X7687968Y-16389727D02*
X7678444Y-16418298D01*
X7678444Y-16418298D02*
X7564158Y-16532584D01*
X7564158Y-16532584D02*
X7687968Y-16532584D01*
X7926063Y-16532584D02*
X7926063Y-16332584D01*
X8011777Y-16532584D02*
X8011777Y-16427822D01*
X8011777Y-16427822D02*
X8002253Y-16408774D01*
X8002253Y-16408774D02*
X7983206Y-16399250D01*
X7983206Y-16399250D02*
X7954634Y-16399250D01*
X7954634Y-16399250D02*
X7935587Y-16408774D01*
X7935587Y-16408774D02*
X7926063Y-16418298D01*
X8135587Y-16532584D02*
X8116539Y-16523060D01*
X8116539Y-16523060D02*
X8107015Y-16513536D01*
X8107015Y-16513536D02*
X8097491Y-16494488D01*
X8097491Y-16494488D02*
X8097491Y-16437346D01*
X8097491Y-16437346D02*
X8107015Y-16418298D01*
X8107015Y-16418298D02*
X8116539Y-16408774D01*
X8116539Y-16408774D02*
X8135587Y-16399250D01*
X8135587Y-16399250D02*
X8164158Y-16399250D01*
X8164158Y-16399250D02*
X8183206Y-16408774D01*
X8183206Y-16408774D02*
X8192730Y-16418298D01*
X8192730Y-16418298D02*
X8202253Y-16437346D01*
X8202253Y-16437346D02*
X8202253Y-16494488D01*
X8202253Y-16494488D02*
X8192730Y-16513536D01*
X8192730Y-16513536D02*
X8183206Y-16523060D01*
X8183206Y-16523060D02*
X8164158Y-16532584D01*
X8164158Y-16532584D02*
X8135587Y-16532584D01*
X8316539Y-16532584D02*
X8297491Y-16523060D01*
X8297491Y-16523060D02*
X8287968Y-16504012D01*
X8287968Y-16504012D02*
X8287968Y-16332584D01*
X8468920Y-16523060D02*
X8449873Y-16532584D01*
X8449873Y-16532584D02*
X8411777Y-16532584D01*
X8411777Y-16532584D02*
X8392730Y-16523060D01*
X8392730Y-16523060D02*
X8383206Y-16504012D01*
X8383206Y-16504012D02*
X8383206Y-16427822D01*
X8383206Y-16427822D02*
X8392730Y-16408774D01*
X8392730Y-16408774D02*
X8411777Y-16399250D01*
X8411777Y-16399250D02*
X8449873Y-16399250D01*
X8449873Y-16399250D02*
X8468920Y-16408774D01*
X8468920Y-16408774D02*
X8478444Y-16427822D01*
X8478444Y-16427822D02*
X8478444Y-16446869D01*
X8478444Y-16446869D02*
X8383206Y-16465917D01*
X8554634Y-16523060D02*
X8573682Y-16532584D01*
X8573682Y-16532584D02*
X8611777Y-16532584D01*
X8611777Y-16532584D02*
X8630825Y-16523060D01*
X8630825Y-16523060D02*
X8640349Y-16504012D01*
X8640349Y-16504012D02*
X8640349Y-16494488D01*
X8640349Y-16494488D02*
X8630825Y-16475441D01*
X8630825Y-16475441D02*
X8611777Y-16465917D01*
X8611777Y-16465917D02*
X8583206Y-16465917D01*
X8583206Y-16465917D02*
X8564158Y-16456393D01*
X8564158Y-16456393D02*
X8554634Y-16437346D01*
X8554634Y-16437346D02*
X8554634Y-16427822D01*
X8554634Y-16427822D02*
X8564158Y-16408774D01*
X8564158Y-16408774D02*
X8583206Y-16399250D01*
X8583206Y-16399250D02*
X8611777Y-16399250D01*
X8611777Y-16399250D02*
X8630825Y-16408774D01*
X8707015Y-16608774D02*
X8716539Y-16599250D01*
X8716539Y-16599250D02*
X8735587Y-16570679D01*
X8735587Y-16570679D02*
X8745111Y-16551631D01*
X8745111Y-16551631D02*
X8754634Y-16523060D01*
X8754634Y-16523060D02*
X8764158Y-16475441D01*
X8764158Y-16475441D02*
X8764158Y-16437346D01*
X8764158Y-16437346D02*
X8754634Y-16389727D01*
X8754634Y-16389727D02*
X8745111Y-16361155D01*
X8745111Y-16361155D02*
X8735587Y-16342108D01*
X8735587Y-16342108D02*
X8716539Y-16313536D01*
X8716539Y-16313536D02*
X8707015Y-16304012D01*
D10*
X3501000Y-16655100D02*
X3501000Y-16755100D01*
X3451000Y-16705100D02*
X3551000Y-16705100D01*
D11*
X3916539Y-16796584D02*
X3802253Y-16796584D01*
X3859396Y-16796584D02*
X3859396Y-16596584D01*
X3859396Y-16596584D02*
X3840348Y-16625155D01*
X3840348Y-16625155D02*
X3821301Y-16644203D01*
X3821301Y-16644203D02*
X3802253Y-16653727D01*
X4002253Y-16777536D02*
X4011777Y-16787060D01*
X4011777Y-16787060D02*
X4002253Y-16796584D01*
X4002253Y-16796584D02*
X3992729Y-16787060D01*
X3992729Y-16787060D02*
X4002253Y-16777536D01*
X4002253Y-16777536D02*
X4002253Y-16796584D01*
X4135586Y-16596584D02*
X4154634Y-16596584D01*
X4154634Y-16596584D02*
X4173682Y-16606108D01*
X4173682Y-16606108D02*
X4183205Y-16615631D01*
X4183205Y-16615631D02*
X4192729Y-16634679D01*
X4192729Y-16634679D02*
X4202253Y-16672774D01*
X4202253Y-16672774D02*
X4202253Y-16720393D01*
X4202253Y-16720393D02*
X4192729Y-16758488D01*
X4192729Y-16758488D02*
X4183205Y-16777536D01*
X4183205Y-16777536D02*
X4173682Y-16787060D01*
X4173682Y-16787060D02*
X4154634Y-16796584D01*
X4154634Y-16796584D02*
X4135586Y-16796584D01*
X4135586Y-16796584D02*
X4116539Y-16787060D01*
X4116539Y-16787060D02*
X4107015Y-16777536D01*
X4107015Y-16777536D02*
X4097491Y-16758488D01*
X4097491Y-16758488D02*
X4087967Y-16720393D01*
X4087967Y-16720393D02*
X4087967Y-16672774D01*
X4087967Y-16672774D02*
X4097491Y-16634679D01*
X4097491Y-16634679D02*
X4107015Y-16615631D01*
X4107015Y-16615631D02*
X4116539Y-16606108D01*
X4116539Y-16606108D02*
X4135586Y-16596584D01*
X4326063Y-16596584D02*
X4345110Y-16596584D01*
X4345110Y-16596584D02*
X4364158Y-16606108D01*
X4364158Y-16606108D02*
X4373682Y-16615631D01*
X4373682Y-16615631D02*
X4383205Y-16634679D01*
X4383205Y-16634679D02*
X4392729Y-16672774D01*
X4392729Y-16672774D02*
X4392729Y-16720393D01*
X4392729Y-16720393D02*
X4383205Y-16758488D01*
X4383205Y-16758488D02*
X4373682Y-16777536D01*
X4373682Y-16777536D02*
X4364158Y-16787060D01*
X4364158Y-16787060D02*
X4345110Y-16796584D01*
X4345110Y-16796584D02*
X4326063Y-16796584D01*
X4326063Y-16796584D02*
X4307015Y-16787060D01*
X4307015Y-16787060D02*
X4297491Y-16777536D01*
X4297491Y-16777536D02*
X4287967Y-16758488D01*
X4287967Y-16758488D02*
X4278444Y-16720393D01*
X4278444Y-16720393D02*
X4278444Y-16672774D01*
X4278444Y-16672774D02*
X4287967Y-16634679D01*
X4287967Y-16634679D02*
X4297491Y-16615631D01*
X4297491Y-16615631D02*
X4307015Y-16606108D01*
X4307015Y-16606108D02*
X4326063Y-16596584D01*
X4516539Y-16596584D02*
X4535586Y-16596584D01*
X4535586Y-16596584D02*
X4554634Y-16606108D01*
X4554634Y-16606108D02*
X4564158Y-16615631D01*
X4564158Y-16615631D02*
X4573682Y-16634679D01*
X4573682Y-16634679D02*
X4583205Y-16672774D01*
X4583205Y-16672774D02*
X4583205Y-16720393D01*
X4583205Y-16720393D02*
X4573682Y-16758488D01*
X4573682Y-16758488D02*
X4564158Y-16777536D01*
X4564158Y-16777536D02*
X4554634Y-16787060D01*
X4554634Y-16787060D02*
X4535586Y-16796584D01*
X4535586Y-16796584D02*
X4516539Y-16796584D01*
X4516539Y-16796584D02*
X4497491Y-16787060D01*
X4497491Y-16787060D02*
X4487967Y-16777536D01*
X4487967Y-16777536D02*
X4478444Y-16758488D01*
X4478444Y-16758488D02*
X4468920Y-16720393D01*
X4468920Y-16720393D02*
X4468920Y-16672774D01*
X4468920Y-16672774D02*
X4478444Y-16634679D01*
X4478444Y-16634679D02*
X4487967Y-16615631D01*
X4487967Y-16615631D02*
X4497491Y-16606108D01*
X4497491Y-16606108D02*
X4516539Y-16596584D01*
X4668920Y-16796584D02*
X4668920Y-16663250D01*
X4668920Y-16682298D02*
X4678444Y-16672774D01*
X4678444Y-16672774D02*
X4697491Y-16663250D01*
X4697491Y-16663250D02*
X4726063Y-16663250D01*
X4726063Y-16663250D02*
X4745110Y-16672774D01*
X4745110Y-16672774D02*
X4754634Y-16691822D01*
X4754634Y-16691822D02*
X4754634Y-16796584D01*
X4754634Y-16691822D02*
X4764158Y-16672774D01*
X4764158Y-16672774D02*
X4783205Y-16663250D01*
X4783205Y-16663250D02*
X4811777Y-16663250D01*
X4811777Y-16663250D02*
X4830825Y-16672774D01*
X4830825Y-16672774D02*
X4840348Y-16691822D01*
X4840348Y-16691822D02*
X4840348Y-16796584D01*
X4935586Y-16796584D02*
X4935586Y-16663250D01*
X4935586Y-16682298D02*
X4945110Y-16672774D01*
X4945110Y-16672774D02*
X4964158Y-16663250D01*
X4964158Y-16663250D02*
X4992729Y-16663250D01*
X4992729Y-16663250D02*
X5011777Y-16672774D01*
X5011777Y-16672774D02*
X5021301Y-16691822D01*
X5021301Y-16691822D02*
X5021301Y-16796584D01*
X5021301Y-16691822D02*
X5030825Y-16672774D01*
X5030825Y-16672774D02*
X5049872Y-16663250D01*
X5049872Y-16663250D02*
X5078444Y-16663250D01*
X5078444Y-16663250D02*
X5097491Y-16672774D01*
X5097491Y-16672774D02*
X5107015Y-16691822D01*
X5107015Y-16691822D02*
X5107015Y-16796584D01*
X5497491Y-16587060D02*
X5326063Y-16844203D01*
X5754634Y-16596584D02*
X5773682Y-16596584D01*
X5773682Y-16596584D02*
X5792729Y-16606108D01*
X5792729Y-16606108D02*
X5802253Y-16615631D01*
X5802253Y-16615631D02*
X5811777Y-16634679D01*
X5811777Y-16634679D02*
X5821301Y-16672774D01*
X5821301Y-16672774D02*
X5821301Y-16720393D01*
X5821301Y-16720393D02*
X5811777Y-16758488D01*
X5811777Y-16758488D02*
X5802253Y-16777536D01*
X5802253Y-16777536D02*
X5792729Y-16787060D01*
X5792729Y-16787060D02*
X5773682Y-16796584D01*
X5773682Y-16796584D02*
X5754634Y-16796584D01*
X5754634Y-16796584D02*
X5735586Y-16787060D01*
X5735586Y-16787060D02*
X5726063Y-16777536D01*
X5726063Y-16777536D02*
X5716539Y-16758488D01*
X5716539Y-16758488D02*
X5707015Y-16720393D01*
X5707015Y-16720393D02*
X5707015Y-16672774D01*
X5707015Y-16672774D02*
X5716539Y-16634679D01*
X5716539Y-16634679D02*
X5726063Y-16615631D01*
X5726063Y-16615631D02*
X5735586Y-16606108D01*
X5735586Y-16606108D02*
X5754634Y-16596584D01*
X5907015Y-16777536D02*
X5916539Y-16787060D01*
X5916539Y-16787060D02*
X5907015Y-16796584D01*
X5907015Y-16796584D02*
X5897491Y-16787060D01*
X5897491Y-16787060D02*
X5907015Y-16777536D01*
X5907015Y-16777536D02*
X5907015Y-16796584D01*
X6040348Y-16596584D02*
X6059396Y-16596584D01*
X6059396Y-16596584D02*
X6078444Y-16606108D01*
X6078444Y-16606108D02*
X6087967Y-16615631D01*
X6087967Y-16615631D02*
X6097491Y-16634679D01*
X6097491Y-16634679D02*
X6107015Y-16672774D01*
X6107015Y-16672774D02*
X6107015Y-16720393D01*
X6107015Y-16720393D02*
X6097491Y-16758488D01*
X6097491Y-16758488D02*
X6087967Y-16777536D01*
X6087967Y-16777536D02*
X6078444Y-16787060D01*
X6078444Y-16787060D02*
X6059396Y-16796584D01*
X6059396Y-16796584D02*
X6040348Y-16796584D01*
X6040348Y-16796584D02*
X6021301Y-16787060D01*
X6021301Y-16787060D02*
X6011777Y-16777536D01*
X6011777Y-16777536D02*
X6002253Y-16758488D01*
X6002253Y-16758488D02*
X5992729Y-16720393D01*
X5992729Y-16720393D02*
X5992729Y-16672774D01*
X5992729Y-16672774D02*
X6002253Y-16634679D01*
X6002253Y-16634679D02*
X6011777Y-16615631D01*
X6011777Y-16615631D02*
X6021301Y-16606108D01*
X6021301Y-16606108D02*
X6040348Y-16596584D01*
X6173682Y-16596584D02*
X6297491Y-16596584D01*
X6297491Y-16596584D02*
X6230825Y-16672774D01*
X6230825Y-16672774D02*
X6259396Y-16672774D01*
X6259396Y-16672774D02*
X6278444Y-16682298D01*
X6278444Y-16682298D02*
X6287967Y-16691822D01*
X6287967Y-16691822D02*
X6297491Y-16710869D01*
X6297491Y-16710869D02*
X6297491Y-16758488D01*
X6297491Y-16758488D02*
X6287967Y-16777536D01*
X6287967Y-16777536D02*
X6278444Y-16787060D01*
X6278444Y-16787060D02*
X6259396Y-16796584D01*
X6259396Y-16796584D02*
X6202253Y-16796584D01*
X6202253Y-16796584D02*
X6183206Y-16787060D01*
X6183206Y-16787060D02*
X6173682Y-16777536D01*
X6392729Y-16796584D02*
X6430825Y-16796584D01*
X6430825Y-16796584D02*
X6449872Y-16787060D01*
X6449872Y-16787060D02*
X6459396Y-16777536D01*
X6459396Y-16777536D02*
X6478444Y-16748965D01*
X6478444Y-16748965D02*
X6487967Y-16710869D01*
X6487967Y-16710869D02*
X6487967Y-16634679D01*
X6487967Y-16634679D02*
X6478444Y-16615631D01*
X6478444Y-16615631D02*
X6468920Y-16606108D01*
X6468920Y-16606108D02*
X6449872Y-16596584D01*
X6449872Y-16596584D02*
X6411777Y-16596584D01*
X6411777Y-16596584D02*
X6392729Y-16606108D01*
X6392729Y-16606108D02*
X6383206Y-16615631D01*
X6383206Y-16615631D02*
X6373682Y-16634679D01*
X6373682Y-16634679D02*
X6373682Y-16682298D01*
X6373682Y-16682298D02*
X6383206Y-16701346D01*
X6383206Y-16701346D02*
X6392729Y-16710869D01*
X6392729Y-16710869D02*
X6411777Y-16720393D01*
X6411777Y-16720393D02*
X6449872Y-16720393D01*
X6449872Y-16720393D02*
X6468920Y-16710869D01*
X6468920Y-16710869D02*
X6478444Y-16701346D01*
X6478444Y-16701346D02*
X6487967Y-16682298D01*
X6659396Y-16663250D02*
X6659396Y-16796584D01*
X6611777Y-16587060D02*
X6564158Y-16729917D01*
X6564158Y-16729917D02*
X6687967Y-16729917D01*
X6754634Y-16596584D02*
X6754634Y-16634679D01*
X6830825Y-16596584D02*
X6830825Y-16634679D01*
X7126063Y-16872774D02*
X7116539Y-16863250D01*
X7116539Y-16863250D02*
X7097491Y-16834679D01*
X7097491Y-16834679D02*
X7087968Y-16815631D01*
X7087968Y-16815631D02*
X7078444Y-16787060D01*
X7078444Y-16787060D02*
X7068920Y-16739441D01*
X7068920Y-16739441D02*
X7068920Y-16701346D01*
X7068920Y-16701346D02*
X7078444Y-16653727D01*
X7078444Y-16653727D02*
X7087968Y-16625155D01*
X7087968Y-16625155D02*
X7097491Y-16606108D01*
X7097491Y-16606108D02*
X7116539Y-16577536D01*
X7116539Y-16577536D02*
X7126063Y-16568012D01*
X7307015Y-16796584D02*
X7192729Y-16796584D01*
X7249872Y-16796584D02*
X7249872Y-16596584D01*
X7249872Y-16596584D02*
X7230825Y-16625155D01*
X7230825Y-16625155D02*
X7211777Y-16644203D01*
X7211777Y-16644203D02*
X7192729Y-16653727D01*
X7383206Y-16615631D02*
X7392729Y-16606108D01*
X7392729Y-16606108D02*
X7411777Y-16596584D01*
X7411777Y-16596584D02*
X7459396Y-16596584D01*
X7459396Y-16596584D02*
X7478444Y-16606108D01*
X7478444Y-16606108D02*
X7487968Y-16615631D01*
X7487968Y-16615631D02*
X7497491Y-16634679D01*
X7497491Y-16634679D02*
X7497491Y-16653727D01*
X7497491Y-16653727D02*
X7487968Y-16682298D01*
X7487968Y-16682298D02*
X7373682Y-16796584D01*
X7373682Y-16796584D02*
X7497491Y-16796584D01*
X7611777Y-16682298D02*
X7592729Y-16672774D01*
X7592729Y-16672774D02*
X7583206Y-16663250D01*
X7583206Y-16663250D02*
X7573682Y-16644203D01*
X7573682Y-16644203D02*
X7573682Y-16634679D01*
X7573682Y-16634679D02*
X7583206Y-16615631D01*
X7583206Y-16615631D02*
X7592729Y-16606108D01*
X7592729Y-16606108D02*
X7611777Y-16596584D01*
X7611777Y-16596584D02*
X7649872Y-16596584D01*
X7649872Y-16596584D02*
X7668920Y-16606108D01*
X7668920Y-16606108D02*
X7678444Y-16615631D01*
X7678444Y-16615631D02*
X7687968Y-16634679D01*
X7687968Y-16634679D02*
X7687968Y-16644203D01*
X7687968Y-16644203D02*
X7678444Y-16663250D01*
X7678444Y-16663250D02*
X7668920Y-16672774D01*
X7668920Y-16672774D02*
X7649872Y-16682298D01*
X7649872Y-16682298D02*
X7611777Y-16682298D01*
X7611777Y-16682298D02*
X7592729Y-16691822D01*
X7592729Y-16691822D02*
X7583206Y-16701346D01*
X7583206Y-16701346D02*
X7573682Y-16720393D01*
X7573682Y-16720393D02*
X7573682Y-16758488D01*
X7573682Y-16758488D02*
X7583206Y-16777536D01*
X7583206Y-16777536D02*
X7592729Y-16787060D01*
X7592729Y-16787060D02*
X7611777Y-16796584D01*
X7611777Y-16796584D02*
X7649872Y-16796584D01*
X7649872Y-16796584D02*
X7668920Y-16787060D01*
X7668920Y-16787060D02*
X7678444Y-16777536D01*
X7678444Y-16777536D02*
X7687968Y-16758488D01*
X7687968Y-16758488D02*
X7687968Y-16720393D01*
X7687968Y-16720393D02*
X7678444Y-16701346D01*
X7678444Y-16701346D02*
X7668920Y-16691822D01*
X7668920Y-16691822D02*
X7649872Y-16682298D01*
X7926063Y-16796584D02*
X7926063Y-16596584D01*
X8011777Y-16796584D02*
X8011777Y-16691822D01*
X8011777Y-16691822D02*
X8002253Y-16672774D01*
X8002253Y-16672774D02*
X7983206Y-16663250D01*
X7983206Y-16663250D02*
X7954634Y-16663250D01*
X7954634Y-16663250D02*
X7935587Y-16672774D01*
X7935587Y-16672774D02*
X7926063Y-16682298D01*
X8135587Y-16796584D02*
X8116539Y-16787060D01*
X8116539Y-16787060D02*
X8107015Y-16777536D01*
X8107015Y-16777536D02*
X8097491Y-16758488D01*
X8097491Y-16758488D02*
X8097491Y-16701346D01*
X8097491Y-16701346D02*
X8107015Y-16682298D01*
X8107015Y-16682298D02*
X8116539Y-16672774D01*
X8116539Y-16672774D02*
X8135587Y-16663250D01*
X8135587Y-16663250D02*
X8164158Y-16663250D01*
X8164158Y-16663250D02*
X8183206Y-16672774D01*
X8183206Y-16672774D02*
X8192730Y-16682298D01*
X8192730Y-16682298D02*
X8202253Y-16701346D01*
X8202253Y-16701346D02*
X8202253Y-16758488D01*
X8202253Y-16758488D02*
X8192730Y-16777536D01*
X8192730Y-16777536D02*
X8183206Y-16787060D01*
X8183206Y-16787060D02*
X8164158Y-16796584D01*
X8164158Y-16796584D02*
X8135587Y-16796584D01*
X8316539Y-16796584D02*
X8297491Y-16787060D01*
X8297491Y-16787060D02*
X8287968Y-16768012D01*
X8287968Y-16768012D02*
X8287968Y-16596584D01*
X8468920Y-16787060D02*
X8449873Y-16796584D01*
X8449873Y-16796584D02*
X8411777Y-16796584D01*
X8411777Y-16796584D02*
X8392730Y-16787060D01*
X8392730Y-16787060D02*
X8383206Y-16768012D01*
X8383206Y-16768012D02*
X8383206Y-16691822D01*
X8383206Y-16691822D02*
X8392730Y-16672774D01*
X8392730Y-16672774D02*
X8411777Y-16663250D01*
X8411777Y-16663250D02*
X8449873Y-16663250D01*
X8449873Y-16663250D02*
X8468920Y-16672774D01*
X8468920Y-16672774D02*
X8478444Y-16691822D01*
X8478444Y-16691822D02*
X8478444Y-16710869D01*
X8478444Y-16710869D02*
X8383206Y-16729917D01*
X8554634Y-16787060D02*
X8573682Y-16796584D01*
X8573682Y-16796584D02*
X8611777Y-16796584D01*
X8611777Y-16796584D02*
X8630825Y-16787060D01*
X8630825Y-16787060D02*
X8640349Y-16768012D01*
X8640349Y-16768012D02*
X8640349Y-16758488D01*
X8640349Y-16758488D02*
X8630825Y-16739441D01*
X8630825Y-16739441D02*
X8611777Y-16729917D01*
X8611777Y-16729917D02*
X8583206Y-16729917D01*
X8583206Y-16729917D02*
X8564158Y-16720393D01*
X8564158Y-16720393D02*
X8554634Y-16701346D01*
X8554634Y-16701346D02*
X8554634Y-16691822D01*
X8554634Y-16691822D02*
X8564158Y-16672774D01*
X8564158Y-16672774D02*
X8583206Y-16663250D01*
X8583206Y-16663250D02*
X8611777Y-16663250D01*
X8611777Y-16663250D02*
X8630825Y-16672774D01*
X8707015Y-16872774D02*
X8716539Y-16863250D01*
X8716539Y-16863250D02*
X8735587Y-16834679D01*
X8735587Y-16834679D02*
X8745111Y-16815631D01*
X8745111Y-16815631D02*
X8754634Y-16787060D01*
X8754634Y-16787060D02*
X8764158Y-16739441D01*
X8764158Y-16739441D02*
X8764158Y-16701346D01*
X8764158Y-16701346D02*
X8754634Y-16653727D01*
X8754634Y-16653727D02*
X8745111Y-16625155D01*
X8745111Y-16625155D02*
X8735587Y-16606108D01*
X8735587Y-16606108D02*
X8716539Y-16577536D01*
X8716539Y-16577536D02*
X8707015Y-16568012D01*
M02*
