M48
; DRILL file {KiCad 7.0.7} date Mon Aug 17 21:43:07 2026
; FORMAT={-:-/ absolute / inch / decimal}
; #@! TF.CreationDate,2026-08-17T21:43:07-05:00
; #@! TF.GenerationSoftware,Kicad,Pcbnew,7.0.7
; #@! TF.FileFunction,Plated,1,2,PTH
FMAT,2
INCH
; #@! TA.AperFunction,Plated,PTH,ViaDrill
T1C0.0157
; #@! TA.AperFunction,Plated,PTH,ComponentDrill
T2C0.0315
; #@! TA.AperFunction,Plated,PTH,ComponentDrill
T3C0.0394
%
G90
G05
T1
X2.6561Y-2.1677
X2.7396Y-4.2334
X2.7513Y-3.432
X2.7788Y-4.1785
X2.7958Y-4.1353
X2.8179Y-4.0812
X3.1445Y-5.1349
X3.23Y-3.5371
X3.2328Y-2.0306
X3.3291Y-5.4655
X3.4541Y-1.3905
X3.6752Y-4.5034
X3.9408Y-5.4961
X3.9643Y-5.462
X4.019Y-4.2997
X4.1458Y-5.4014
X4.2689Y-3.2823
X4.3933Y-3.3534
X4.401Y-4.2557
X4.4627Y-3.4612
X4.4815Y-4.145
X4.5067Y-4.0711
X4.5972Y-3.4117
X4.6758Y-3.4314
X4.7679Y-4.1479
X4.7863Y-3.7676
X4.8119Y-3.675
X4.8874Y-4.2259
X4.9214Y-3.3364
X5.004Y-2.8
X5.0813Y-5.0027
X5.1138Y-4.898
X5.2586Y-5.1807
X5.2608Y-4.8772
X5.3135Y-3.6552
X5.3259Y-3.8943
X5.3554Y-3.5371
X5.3733Y-5.4271
X5.4324Y-3.6266
X5.456Y-5.4913
X5.6883Y-5.4574
X5.8623Y-3.4236
X5.8872Y-4.1426
X5.9399Y-3.4782
X5.9471Y-2.8935
X5.9661Y-3.2369
X6.0408Y-3.6749
X6.0473Y-4.8206
X6.0946Y-3.7172
X6.1161Y-3.5958
X6.1491Y-5.075
X6.1544Y-4.159
X6.1617Y-5.1693
X6.3486Y-4.2231
X6.3621Y-5.3341
X6.367Y-3.3251
X6.3743Y-3.5986
X6.3924Y-5.3929
X6.3973Y-2.4331
X6.4198Y-1.7524
X6.5911Y-3.5333
X6.7589Y-3.5104
X6.7677Y-2.3559
X6.7788Y-2.3016
X6.8726Y-1.1566
X6.8738Y-1.1143
X7.1024Y-2.3537
X7.5173Y-1.5546
X7.5547Y-2.9291
X7.7211Y-5.4097
X7.7344Y-5.4748
X7.75Y-5.5773
X7.8878Y-4.1375
X8.567Y-4.8325
X8.6546Y-3.7677
X8.6701Y-4.8693
T2
X1.7034Y-5.475
X1.8019Y-5.475
X1.925Y-2.65
X1.925Y-2.75
X1.925Y-2.85
X1.925Y-2.95
X1.925Y-3.05
X1.925Y-3.15
X1.925Y-3.25
X1.9254Y-4.4248
X1.9254Y-4.5248
X1.9254Y-4.6248
X1.9254Y-4.7248
X1.9254Y-4.8248
X1.9254Y-4.9248
X1.9254Y-5.0248
X1.9766Y-2.525
X1.9766Y-4.3
X2.1734Y-2.525
X2.1734Y-4.3
X2.225Y-2.65
X2.225Y-2.75
X2.225Y-2.85
X2.225Y-2.95
X2.225Y-3.05
X2.225Y-3.15
X2.225Y-3.25
X2.2254Y-4.4248
X2.2254Y-4.5248
X2.2254Y-4.6248
X2.2254Y-4.7248
X2.2254Y-4.8248
X2.2254Y-4.9248
X2.2254Y-5.0248
X2.5Y-1.275
X2.5Y-1.4719
X2.625Y-1.075
X2.625Y-1.675
X2.725Y-1.075
X2.725Y-1.675
X2.825Y-1.075
X2.825Y-1.675
X2.875Y-1.85
X2.875Y-1.975
X2.875Y-2.1
X2.9Y-2.65
X2.9Y-2.75
X2.9Y-2.85
X2.9Y-2.95
X2.9Y-3.05
X2.9Y-3.15
X2.9Y-3.25
X2.9Y-3.35
X2.9004Y-4.425
X2.9004Y-4.525
X2.9004Y-4.625
X2.9004Y-4.725
X2.9004Y-4.825
X2.9004Y-4.925
X2.9004Y-5.025
X2.9004Y-5.125
X2.9004Y-5.225
X2.9004Y-5.325
X2.925Y-1.075
X2.925Y-1.675
X2.95Y-2.525
X2.95Y-4.3
X3.025Y-1.075
X3.025Y-1.675
X3.125Y-1.075
X3.125Y-1.675
X3.1469Y-2.525
X3.1469Y-4.3
X3.175Y-1.85
X3.175Y-1.975
X3.175Y-2.1
X3.2Y-2.65
X3.2Y-2.75
X3.2Y-2.85
X3.2Y-2.95
X3.2Y-3.05
X3.2Y-3.15
X3.2Y-3.25
X3.2Y-3.35
X3.2004Y-4.425
X3.2004Y-4.525
X3.2004Y-4.625
X3.2004Y-4.725
X3.2004Y-4.825
X3.2004Y-4.925
X3.2004Y-5.025
X3.2004Y-5.125
X3.2004Y-5.225
X3.2004Y-5.325
X3.225Y-1.075
X3.225Y-1.675
X3.325Y-1.075
X3.325Y-1.675
X3.425Y-1.075
X3.425Y-1.675
X3.425Y-1.85
X3.425Y-1.975
X3.425Y-2.1
X3.525Y-1.075
X3.525Y-1.675
X3.625Y-1.075
X3.625Y-1.675
X3.725Y-1.075
X3.725Y-1.675
X3.725Y-1.85
X3.725Y-1.975
X3.725Y-2.1
X3.825Y-1.075
X3.825Y-1.675
X3.9Y-2.65
X3.9Y-2.75
X3.9Y-2.85
X3.9Y-2.95
X3.9Y-3.05
X3.9Y-3.15
X3.9Y-3.25
X3.9Y-4.425
X3.9Y-4.525
X3.9Y-4.625
X3.9Y-4.725
X3.9Y-4.825
X3.9Y-4.925
X3.9Y-5.025
X3.9Y-5.125
X3.9Y-5.225
X3.9Y-5.325
X3.925Y-1.075
X3.925Y-1.675
X3.9516Y-2.525
X3.9516Y-4.3
X4.1484Y-2.525
X4.1484Y-4.3
X4.2Y-2.65
X4.2Y-2.75
X4.2Y-2.85
X4.2Y-2.95
X4.2Y-3.05
X4.2Y-3.15
X4.2Y-3.25
X4.2Y-4.425
X4.2Y-4.525
X4.2Y-4.625
X4.2Y-4.725
X4.2Y-4.825
X4.2Y-4.925
X4.2Y-5.025
X4.2Y-5.125
X4.2Y-5.225
X4.2Y-5.325
X4.675Y-1.2781
X4.675Y-1.475
X4.8Y-1.075
X4.8Y-1.675
X4.9Y-1.075
X4.9Y-1.675
X4.9Y-2.65
X4.9Y-2.75
X4.9Y-2.85
X4.9Y-2.95
X4.9Y-3.05
X4.9Y-3.15
X4.9Y-3.25
X4.9Y-4.425
X4.9Y-4.525
X4.9Y-4.625
X4.9Y-4.725
X4.9Y-4.825
X4.9Y-4.925
X4.9Y-5.025
X4.9Y-5.125
X4.9Y-5.225
X4.9Y-5.325
X4.95Y-2.525
X4.9516Y-4.3
X5.0Y-1.075
X5.0Y-1.675
X5.1Y-1.075
X5.1Y-1.675
X5.1469Y-2.525
X5.1484Y-4.3
X5.2Y-1.075
X5.2Y-1.675
X5.2Y-2.65
X5.2Y-2.75
X5.2Y-2.85
X5.2Y-2.95
X5.2Y-3.05
X5.2Y-3.15
X5.2Y-3.25
X5.2Y-4.425
X5.2Y-4.525
X5.2Y-4.625
X5.2Y-4.725
X5.2Y-4.825
X5.2Y-4.925
X5.2Y-5.025
X5.2Y-5.125
X5.2Y-5.225
X5.2Y-5.325
X5.3Y-1.075
X5.3Y-1.675
X5.4Y-1.075
X5.4Y-1.675
X5.5Y-1.075
X5.5Y-1.675
X5.6Y-1.075
X5.6Y-1.675
X5.7Y-1.075
X5.7Y-1.675
X5.8Y-1.075
X5.8Y-1.675
X5.9Y-1.075
X5.9Y-1.675
X5.9Y-2.65
X5.9Y-2.75
X5.9Y-2.85
X5.9Y-2.95
X5.9Y-3.05
X5.9Y-3.15
X5.9Y-3.25
X5.9Y-3.35
X5.9Y-4.425
X5.9Y-4.525
X5.9Y-4.625
X5.9Y-4.725
X5.9Y-4.825
X5.9Y-4.925
X5.9Y-5.025
X5.9Y-5.125
X5.9Y-5.225
X5.9Y-5.325
X5.9516Y-2.525
X5.9516Y-4.3
X6.0Y-1.075
X6.0Y-1.675
X6.1Y-1.075
X6.1Y-1.675
X6.1484Y-2.525
X6.1484Y-4.3
X6.15Y-3.725
X6.15Y-3.85
X6.15Y-3.975
X6.2Y-2.65
X6.2Y-2.75
X6.2Y-2.85
X6.2Y-2.95
X6.2Y-3.05
X6.2Y-3.15
X6.2Y-3.25
X6.2Y-3.35
X6.2Y-4.425
X6.2Y-4.525
X6.2Y-4.625
X6.2Y-4.725
X6.2Y-4.825
X6.2Y-4.925
X6.2Y-5.025
X6.2Y-5.125
X6.2Y-5.225
X6.2Y-5.325
X6.45Y-3.725
X6.45Y-3.85
X6.45Y-3.975
X6.65Y-3.725
X6.65Y-3.85
X6.65Y-3.975
X6.85Y-1.2781
X6.85Y-1.475
X6.9Y-2.65
X6.9Y-2.75
X6.9Y-2.85
X6.9Y-2.95
X6.9Y-3.05
X6.9Y-3.15
X6.9Y-3.25
X6.9Y-3.35
X6.9Y-4.425
X6.9Y-4.525
X6.9Y-4.625
X6.9Y-4.725
X6.9Y-4.825
X6.9Y-4.925
X6.9Y-5.025
X6.9Y-5.125
X6.9Y-5.225
X6.9Y-5.325
X6.95Y-3.725
X6.95Y-3.85
X6.95Y-3.975
X6.9516Y-2.525
X6.9516Y-4.3
X6.975Y-1.075
X6.975Y-1.675
X7.075Y-1.075
X7.075Y-1.675
X7.1484Y-2.525
X7.1484Y-4.3
X7.15Y-3.725
X7.15Y-3.85
X7.15Y-3.975
X7.175Y-1.075
X7.175Y-1.675
X7.2Y-2.65
X7.2Y-2.75
X7.2Y-2.85
X7.2Y-2.95
X7.2Y-3.05
X7.2Y-3.15
X7.2Y-3.25
X7.2Y-3.35
X7.2Y-4.425
X7.2Y-4.525
X7.2Y-4.625
X7.2Y-4.725
X7.2Y-4.825
X7.2Y-4.925
X7.2Y-5.025
X7.2Y-5.125
X7.2Y-5.225
X7.2Y-5.325
X7.275Y-1.075
X7.275Y-1.675
X7.375Y-1.075
X7.375Y-1.675
X7.45Y-3.725
X7.45Y-3.85
X7.45Y-3.975
X7.475Y-1.075
X7.475Y-1.675
X7.575Y-1.075
X7.575Y-1.675
X7.65Y-3.725
X7.65Y-3.85
X7.65Y-3.975
X7.675Y-1.075
X7.675Y-1.675
X7.775Y-1.075
X7.775Y-1.675
X7.875Y-1.075
X7.875Y-1.675
X7.9Y-2.65
X7.9Y-2.75
X7.9Y-2.85
X7.9Y-2.95
X7.9Y-3.05
X7.9Y-3.15
X7.9Y-3.25
X7.9Y-3.35
X7.9Y-4.425
X7.9Y-4.525
X7.9Y-4.625
X7.9Y-4.725
X7.9Y-4.825
X7.9Y-4.925
X7.9Y-5.025
X7.9Y-5.125
X7.9Y-5.225
X7.9Y-5.325
X7.95Y-3.725
X7.95Y-3.85
X7.95Y-3.975
X7.9516Y-2.525
X7.9516Y-4.3
X7.975Y-1.075
X7.975Y-1.675
X8.075Y-1.075
X8.075Y-1.675
X8.1484Y-2.525
X8.1484Y-4.3
X8.175Y-1.075
X8.175Y-1.675
X8.2Y-2.65
X8.2Y-2.75
X8.2Y-2.85
X8.2Y-2.95
X8.2Y-3.05
X8.2Y-3.15
X8.2Y-3.25
X8.2Y-3.35
X8.2Y-4.425
X8.2Y-4.525
X8.2Y-4.625
X8.2Y-4.725
X8.2Y-4.825
X8.2Y-4.925
X8.2Y-5.025
X8.2Y-5.125
X8.2Y-5.225
X8.2Y-5.325
X8.275Y-1.075
X8.275Y-1.675
X8.8996Y-4.425
X8.8996Y-4.525
X8.8996Y-4.625
X8.8996Y-4.725
X8.8996Y-4.825
X8.8996Y-4.925
X8.8996Y-5.025
X8.8996Y-5.125
X8.8996Y-5.225
X8.8996Y-5.325
X8.9Y-1.1
X8.9Y-1.2
X8.9Y-1.3
X8.9Y-1.4
X8.9Y-1.5
X8.9Y-1.6
X8.9Y-1.7
X8.9Y-2.65
X8.9Y-2.75
X8.9Y-2.85
X8.9Y-2.95
X8.9Y-3.05
X8.9Y-3.15
X8.9Y-3.25
X8.9Y-3.35
X8.95Y-2.525
X8.9516Y-0.975
X8.9531Y-4.3
X9.1469Y-2.525
X9.1484Y-0.975
X9.15Y-4.3
X9.1996Y-4.425
X9.1996Y-4.525
X9.1996Y-4.625
X9.1996Y-4.725
X9.1996Y-4.825
X9.1996Y-4.925
X9.1996Y-5.025
X9.1996Y-5.125
X9.1996Y-5.225
X9.1996Y-5.325
X9.2Y-1.1
X9.2Y-1.2
X9.2Y-1.3
X9.2Y-1.4
X9.2Y-1.5
X9.2Y-1.6
X9.2Y-1.7
X9.2Y-2.65
X9.2Y-2.75
X9.2Y-2.85
X9.2Y-2.95
X9.2Y-3.05
X9.2Y-3.15
X9.2Y-3.25
X9.2Y-3.35
T3
X1.875Y-5.8
X1.875Y-5.9
X1.975Y-5.8
X1.975Y-5.9
X2.075Y-5.8
X2.075Y-5.9
X2.175Y-5.8
X2.175Y-5.9
X2.275Y-5.8
X2.275Y-5.9
X2.375Y-5.8
X2.375Y-5.9
X2.475Y-5.8
X2.475Y-5.9
X2.575Y-5.8
X2.575Y-5.9
X2.675Y-5.8
X2.675Y-5.9
X2.775Y-5.8
X2.775Y-5.9
X2.875Y-5.8
X2.875Y-5.9
X2.975Y-5.8
X2.975Y-5.9
X3.075Y-5.8
X3.075Y-5.9
X3.175Y-5.8
X3.175Y-5.9
X3.275Y-5.8
X3.275Y-5.9
X3.375Y-5.8
X3.375Y-5.9
X3.475Y-5.8
X3.475Y-5.9
X3.575Y-5.8
X3.575Y-5.9
X3.675Y-5.8
X3.675Y-5.9
X3.775Y-5.8
X3.775Y-5.9
X3.875Y-5.8
X3.875Y-5.9
X3.975Y-5.8
X3.975Y-5.9
X4.075Y-5.8
X4.075Y-5.9
X4.175Y-5.8
X4.175Y-5.9
X4.275Y-5.8
X4.275Y-5.9
X4.375Y-5.8
X4.375Y-5.9
X4.475Y-5.8
X4.475Y-5.9
X4.575Y-5.8
X4.575Y-5.9
X4.675Y-5.8
X4.675Y-5.9
X4.775Y-5.8
X4.775Y-5.9
X4.875Y-5.8
X4.875Y-5.9
X4.975Y-5.8
X4.975Y-5.9
X5.95Y-5.8
X5.95Y-5.9
X6.05Y-5.8
X6.05Y-5.9
X6.15Y-5.8
X6.15Y-5.9
X6.25Y-5.8
X6.25Y-5.9
X6.35Y-5.8
X6.35Y-5.9
X6.45Y-5.8
X6.45Y-5.9
X6.55Y-5.8
X6.55Y-5.9
X6.65Y-5.8
X6.65Y-5.9
X6.75Y-5.8
X6.75Y-5.9
X6.85Y-5.8
X6.85Y-5.9
X6.95Y-5.8
X6.95Y-5.9
X7.05Y-5.8
X7.05Y-5.9
X7.15Y-5.8
X7.15Y-5.9
X7.25Y-5.8
X7.25Y-5.9
X7.35Y-5.8
X7.35Y-5.9
X7.45Y-5.8
X7.45Y-5.9
X7.55Y-5.8
X7.55Y-5.9
X7.65Y-5.8
X7.65Y-5.9
X7.75Y-5.8
X7.75Y-5.9
X7.85Y-5.8
X7.85Y-5.9
X7.95Y-5.8
X7.95Y-5.9
X8.05Y-5.8
X8.05Y-5.9
X8.15Y-5.8
X8.15Y-5.9
X8.25Y-5.8
X8.25Y-5.9
X8.35Y-5.8
X8.35Y-5.9
X8.45Y-5.8
X8.45Y-5.9
X8.55Y-5.8
X8.55Y-5.9
X8.65Y-5.8
X8.65Y-5.9
X8.75Y-5.8
X8.75Y-5.9
X8.85Y-5.8
X8.85Y-5.9
X8.95Y-5.8
X8.95Y-5.9
X9.05Y-5.8
X9.05Y-5.9
T0
M30
