%TF.GenerationSoftware,KiCad,Pcbnew,7.0.7*%
%TF.CreationDate,2026-08-17T21:43:04-05:00*%
%TF.ProjectId,Memory,4d656d6f-7279-42e6-9b69-6361645f7063,rev?*%
%TF.SameCoordinates,Original*%
%TF.FileFunction,Soldermask,Top*%
%TF.FilePolarity,Negative*%
%FSLAX46Y46*%
G04 Gerber Fmt 4.6, Leading zero omitted, Abs format (unit mm)*
G04 Created by KiCad (PCBNEW 7.0.7) date 2026-08-17 21:43:04*
%MOMM*%
%LPD*%
G01*
G04 APERTURE LIST*
G04 Aperture macros list*
%AMRoundRect*
0 Rectangle with rounded corners*
0 $1 Rounding radius*
0 $2 $3 $4 $5 $6 $7 $8 $9 X,Y pos of 4 corners*
0 Add a 4 corners polygon primitive as box body*
4,1,4,$2,$3,$4,$5,$6,$7,$8,$9,$2,$3,0*
0 Add four circle primitives for the rounded corners*
1,1,$1+$1,$2,$3*
1,1,$1+$1,$4,$5*
1,1,$1+$1,$6,$7*
1,1,$1+$1,$8,$9*
0 Add four rect primitives between the rounded corners*
20,1,$1+$1,$2,$3,$4,$5,0*
20,1,$1+$1,$4,$5,$6,$7,0*
20,1,$1+$1,$6,$7,$8,$9,0*
20,1,$1+$1,$8,$9,$2,$3,0*%
G04 Aperture macros list end*
%ADD10C,1.600000*%
%ADD11C,2.850000*%
%ADD12RoundRect,0.249999X0.525001X0.525001X-0.525001X0.525001X-0.525001X-0.525001X0.525001X-0.525001X0*%
%ADD13C,1.550000*%
%ADD14O,1.600000X1.600000*%
%ADD15R,1.600000X1.600000*%
G04 APERTURE END LIST*
D10*
%TO.C,C2*%
X118745000Y-32465000D03*
X118745000Y-37465000D03*
%TD*%
D11*
%TO.C,J2*%
X234950000Y-152400000D03*
X146050000Y-152400000D03*
D12*
X229870000Y-149860000D03*
D13*
X227330000Y-149860000D03*
X224790000Y-149860000D03*
X222250000Y-149860000D03*
X219710000Y-149860000D03*
X217170000Y-149860000D03*
X214630000Y-149860000D03*
X212090000Y-149860000D03*
X209550000Y-149860000D03*
X207010000Y-149860000D03*
X204470000Y-149860000D03*
X201930000Y-149860000D03*
X199390000Y-149860000D03*
X196850000Y-149860000D03*
X194310000Y-149860000D03*
X191770000Y-149860000D03*
X189230000Y-149860000D03*
X186690000Y-149860000D03*
X184150000Y-149860000D03*
X181610000Y-149860000D03*
X179070000Y-149860000D03*
X176530000Y-149860000D03*
X173990000Y-149860000D03*
X171450000Y-149860000D03*
X168910000Y-149860000D03*
X166370000Y-149860000D03*
X163830000Y-149860000D03*
X161290000Y-149860000D03*
X158750000Y-149860000D03*
X156210000Y-149860000D03*
X153670000Y-149860000D03*
X151130000Y-149860000D03*
X229870000Y-147320000D03*
X227330000Y-147320000D03*
X224790000Y-147320000D03*
X222250000Y-147320000D03*
X219710000Y-147320000D03*
X217170000Y-147320000D03*
X214630000Y-147320000D03*
X212090000Y-147320000D03*
X209550000Y-147320000D03*
X207010000Y-147320000D03*
X204470000Y-147320000D03*
X201930000Y-147320000D03*
X199390000Y-147320000D03*
X196850000Y-147320000D03*
X194310000Y-147320000D03*
X191770000Y-147320000D03*
X189230000Y-147320000D03*
X186690000Y-147320000D03*
X184150000Y-147320000D03*
X181610000Y-147320000D03*
X179070000Y-147320000D03*
X176530000Y-147320000D03*
X173990000Y-147320000D03*
X171450000Y-147320000D03*
X168910000Y-147320000D03*
X166370000Y-147320000D03*
X163830000Y-147320000D03*
X161290000Y-147320000D03*
X158750000Y-147320000D03*
X156210000Y-147320000D03*
X153670000Y-147320000D03*
X151130000Y-147320000D03*
%TD*%
D10*
%TO.C,R2*%
X163830000Y-97790000D03*
D14*
X156210000Y-97790000D03*
%TD*%
D10*
%TO.C,C1*%
X63500000Y-32385000D03*
X63500000Y-37385000D03*
%TD*%
%TO.C,C14*%
X79930000Y-109220000D03*
X74930000Y-109220000D03*
%TD*%
%TO.C,R16*%
X73025000Y-50165000D03*
D14*
X80645000Y-50165000D03*
%TD*%
D10*
%TO.C,R13*%
X86995000Y-46990000D03*
D14*
X94615000Y-46990000D03*
%TD*%
D15*
%TO.C,U18*%
X48895000Y-67310000D03*
D14*
X48895000Y-69850000D03*
X48895000Y-72390000D03*
X48895000Y-74930000D03*
X48895000Y-77470000D03*
X48895000Y-80010000D03*
X48895000Y-82550000D03*
X56515000Y-82550000D03*
X56515000Y-80010000D03*
X56515000Y-77470000D03*
X56515000Y-74930000D03*
X56515000Y-72390000D03*
X56515000Y-69850000D03*
X56515000Y-67310000D03*
%TD*%
D10*
%TO.C,R17*%
X73025000Y-53340000D03*
D14*
X80645000Y-53340000D03*
%TD*%
D10*
%TO.C,R10*%
X194310000Y-100965000D03*
D14*
X201930000Y-100965000D03*
%TD*%
D10*
%TO.C,R7*%
X181610000Y-100965000D03*
D14*
X189230000Y-100965000D03*
%TD*%
D10*
%TO.C,C16*%
X79930000Y-64135000D03*
X74930000Y-64135000D03*
%TD*%
%TO.C,R1*%
X156210000Y-100965000D03*
D14*
X163830000Y-100965000D03*
%TD*%
D10*
%TO.C,C4*%
X232410000Y-109220000D03*
X227410000Y-109220000D03*
%TD*%
D15*
%TO.C,U15*%
X124460000Y-67310000D03*
D14*
X124460000Y-69850000D03*
X124460000Y-72390000D03*
X124460000Y-74930000D03*
X124460000Y-77470000D03*
X124460000Y-80010000D03*
X124460000Y-82550000D03*
X132080000Y-82550000D03*
X132080000Y-80010000D03*
X132080000Y-77470000D03*
X132080000Y-74930000D03*
X132080000Y-72390000D03*
X132080000Y-69850000D03*
X132080000Y-67310000D03*
%TD*%
D15*
%TO.C,U7*%
X226060000Y-67310000D03*
D14*
X226060000Y-69850000D03*
X226060000Y-72390000D03*
X226060000Y-74930000D03*
X226060000Y-77470000D03*
X226060000Y-80010000D03*
X226060000Y-82550000D03*
X226060000Y-85090000D03*
X233680000Y-85090000D03*
X233680000Y-82550000D03*
X233680000Y-80010000D03*
X233680000Y-77470000D03*
X233680000Y-74930000D03*
X233680000Y-72390000D03*
X233680000Y-69850000D03*
X233680000Y-67310000D03*
%TD*%
D10*
%TO.C,C8*%
X206970000Y-64135000D03*
X201970000Y-64135000D03*
%TD*%
%TO.C,C18*%
X55205000Y-64135000D03*
X50205000Y-64135000D03*
%TD*%
%TO.C,R15*%
X86995000Y-53340000D03*
D14*
X94615000Y-53340000D03*
%TD*%
D11*
%TO.C,J1*%
X131445000Y-152400000D03*
X42545000Y-152400000D03*
D12*
X126365000Y-149860000D03*
D13*
X123825000Y-149860000D03*
X121285000Y-149860000D03*
X118745000Y-149860000D03*
X116205000Y-149860000D03*
X113665000Y-149860000D03*
X111125000Y-149860000D03*
X108585000Y-149860000D03*
X106045000Y-149860000D03*
X103505000Y-149860000D03*
X100965000Y-149860000D03*
X98425000Y-149860000D03*
X95885000Y-149860000D03*
X93345000Y-149860000D03*
X90805000Y-149860000D03*
X88265000Y-149860000D03*
X85725000Y-149860000D03*
X83185000Y-149860000D03*
X80645000Y-149860000D03*
X78105000Y-149860000D03*
X75565000Y-149860000D03*
X73025000Y-149860000D03*
X70485000Y-149860000D03*
X67945000Y-149860000D03*
X65405000Y-149860000D03*
X62865000Y-149860000D03*
X60325000Y-149860000D03*
X57785000Y-149860000D03*
X55245000Y-149860000D03*
X52705000Y-149860000D03*
X50165000Y-149860000D03*
X47625000Y-149860000D03*
X126365000Y-147320000D03*
X123825000Y-147320000D03*
X121285000Y-147320000D03*
X118745000Y-147320000D03*
X116205000Y-147320000D03*
X113665000Y-147320000D03*
X111125000Y-147320000D03*
X108585000Y-147320000D03*
X106045000Y-147320000D03*
X103505000Y-147320000D03*
X100965000Y-147320000D03*
X98425000Y-147320000D03*
X95885000Y-147320000D03*
X93345000Y-147320000D03*
X90805000Y-147320000D03*
X88265000Y-147320000D03*
X85725000Y-147320000D03*
X83185000Y-147320000D03*
X80645000Y-147320000D03*
X78105000Y-147320000D03*
X75565000Y-147320000D03*
X73025000Y-147320000D03*
X70485000Y-147320000D03*
X67945000Y-147320000D03*
X65405000Y-147320000D03*
X62865000Y-147320000D03*
X60325000Y-147320000D03*
X57785000Y-147320000D03*
X55245000Y-147320000D03*
X52705000Y-147320000D03*
X50165000Y-147320000D03*
X47625000Y-147320000D03*
%TD*%
D15*
%TO.C,U17*%
X99060000Y-67310000D03*
D14*
X99060000Y-69850000D03*
X99060000Y-72390000D03*
X99060000Y-74930000D03*
X99060000Y-77470000D03*
X99060000Y-80010000D03*
X99060000Y-82550000D03*
X106680000Y-82550000D03*
X106680000Y-80010000D03*
X106680000Y-77470000D03*
X106680000Y-74930000D03*
X106680000Y-72390000D03*
X106680000Y-69850000D03*
X106680000Y-67310000D03*
%TD*%
D10*
%TO.C,C20*%
X232370000Y-24765000D03*
X227370000Y-24765000D03*
%TD*%
D15*
%TO.C,U3*%
X66675000Y-42545000D03*
D14*
X69215000Y-42545000D03*
X71755000Y-42545000D03*
X74295000Y-42545000D03*
X76835000Y-42545000D03*
X79375000Y-42545000D03*
X81915000Y-42545000D03*
X84455000Y-42545000D03*
X86995000Y-42545000D03*
X89535000Y-42545000D03*
X92075000Y-42545000D03*
X94615000Y-42545000D03*
X97155000Y-42545000D03*
X99695000Y-42545000D03*
X99695000Y-27305000D03*
X97155000Y-27305000D03*
X94615000Y-27305000D03*
X92075000Y-27305000D03*
X89535000Y-27305000D03*
X86995000Y-27305000D03*
X84455000Y-27305000D03*
X81915000Y-27305000D03*
X79375000Y-27305000D03*
X76835000Y-27305000D03*
X74295000Y-27305000D03*
X71755000Y-27305000D03*
X69215000Y-27305000D03*
X66675000Y-27305000D03*
%TD*%
D10*
%TO.C,R14*%
X86995000Y-50165000D03*
D14*
X94615000Y-50165000D03*
%TD*%
D10*
%TO.C,C9*%
X181570000Y-64135000D03*
X176570000Y-64135000D03*
%TD*%
%TO.C,C19*%
X55205000Y-109220000D03*
X50205000Y-109220000D03*
%TD*%
%TO.C,C7*%
X232330000Y-64135000D03*
X227330000Y-64135000D03*
%TD*%
%TO.C,C13*%
X105370000Y-109220000D03*
X100370000Y-109220000D03*
%TD*%
%TO.C,C5*%
X206970000Y-109220000D03*
X201970000Y-109220000D03*
%TD*%
%TO.C,C10*%
X156170000Y-64135000D03*
X151170000Y-64135000D03*
%TD*%
D15*
%TO.C,U14*%
X73670000Y-112395000D03*
D14*
X73670000Y-114935000D03*
X73670000Y-117475000D03*
X73670000Y-120015000D03*
X73670000Y-122555000D03*
X73670000Y-125095000D03*
X73670000Y-127635000D03*
X73670000Y-130175000D03*
X73670000Y-132715000D03*
X73670000Y-135255000D03*
X81290000Y-135255000D03*
X81290000Y-132715000D03*
X81290000Y-130175000D03*
X81290000Y-127635000D03*
X81290000Y-125095000D03*
X81290000Y-122555000D03*
X81290000Y-120015000D03*
X81290000Y-117475000D03*
X81290000Y-114935000D03*
X81290000Y-112395000D03*
%TD*%
D15*
%TO.C,U2*%
X121920000Y-42545000D03*
D14*
X124460000Y-42545000D03*
X127000000Y-42545000D03*
X129540000Y-42545000D03*
X132080000Y-42545000D03*
X134620000Y-42545000D03*
X137160000Y-42545000D03*
X139700000Y-42545000D03*
X142240000Y-42545000D03*
X144780000Y-42545000D03*
X147320000Y-42545000D03*
X149860000Y-42545000D03*
X152400000Y-42545000D03*
X154940000Y-42545000D03*
X154940000Y-27305000D03*
X152400000Y-27305000D03*
X149860000Y-27305000D03*
X147320000Y-27305000D03*
X144780000Y-27305000D03*
X142240000Y-27305000D03*
X139700000Y-27305000D03*
X137160000Y-27305000D03*
X134620000Y-27305000D03*
X132080000Y-27305000D03*
X129540000Y-27305000D03*
X127000000Y-27305000D03*
X124460000Y-27305000D03*
X121920000Y-27305000D03*
%TD*%
D10*
%TO.C,R4*%
X168910000Y-100965000D03*
D14*
X176530000Y-100965000D03*
%TD*%
D15*
%TO.C,U1*%
X177165000Y-42545000D03*
D14*
X179705000Y-42545000D03*
X182245000Y-42545000D03*
X184785000Y-42545000D03*
X187325000Y-42545000D03*
X189865000Y-42545000D03*
X192405000Y-42545000D03*
X194945000Y-42545000D03*
X197485000Y-42545000D03*
X200025000Y-42545000D03*
X202565000Y-42545000D03*
X205105000Y-42545000D03*
X207645000Y-42545000D03*
X210185000Y-42545000D03*
X210185000Y-27305000D03*
X207645000Y-27305000D03*
X205105000Y-27305000D03*
X202565000Y-27305000D03*
X200025000Y-27305000D03*
X197485000Y-27305000D03*
X194945000Y-27305000D03*
X192405000Y-27305000D03*
X189865000Y-27305000D03*
X187325000Y-27305000D03*
X184785000Y-27305000D03*
X182245000Y-27305000D03*
X179705000Y-27305000D03*
X177165000Y-27305000D03*
%TD*%
D10*
%TO.C,R11*%
X194310000Y-97790000D03*
D14*
X201930000Y-97790000D03*
%TD*%
D15*
%TO.C,U4*%
X226050000Y-112395000D03*
D14*
X226050000Y-114935000D03*
X226050000Y-117475000D03*
X226050000Y-120015000D03*
X226050000Y-122555000D03*
X226050000Y-125095000D03*
X226050000Y-127635000D03*
X226050000Y-130175000D03*
X226050000Y-132715000D03*
X226050000Y-135255000D03*
X233670000Y-135255000D03*
X233670000Y-132715000D03*
X233670000Y-130175000D03*
X233670000Y-127635000D03*
X233670000Y-125095000D03*
X233670000Y-122555000D03*
X233670000Y-120015000D03*
X233670000Y-117475000D03*
X233670000Y-114935000D03*
X233670000Y-112395000D03*
%TD*%
D10*
%TO.C,C11*%
X151170000Y-109220000D03*
X156170000Y-109220000D03*
%TD*%
%TO.C,R12*%
X194310000Y-94615000D03*
D14*
X201930000Y-94615000D03*
%TD*%
D15*
%TO.C,U8*%
X200660000Y-67310000D03*
D14*
X200660000Y-69850000D03*
X200660000Y-72390000D03*
X200660000Y-74930000D03*
X200660000Y-77470000D03*
X200660000Y-80010000D03*
X200660000Y-82550000D03*
X200660000Y-85090000D03*
X208280000Y-85090000D03*
X208280000Y-82550000D03*
X208280000Y-80010000D03*
X208280000Y-77470000D03*
X208280000Y-74930000D03*
X208280000Y-72390000D03*
X208280000Y-69850000D03*
X208280000Y-67310000D03*
%TD*%
D15*
%TO.C,U16*%
X73660000Y-67310000D03*
D14*
X73660000Y-69850000D03*
X73660000Y-72390000D03*
X73660000Y-74930000D03*
X73660000Y-77470000D03*
X73660000Y-80010000D03*
X73660000Y-82550000D03*
X73660000Y-85090000D03*
X81280000Y-85090000D03*
X81280000Y-82550000D03*
X81280000Y-80010000D03*
X81280000Y-77470000D03*
X81280000Y-74930000D03*
X81280000Y-72390000D03*
X81280000Y-69850000D03*
X81280000Y-67310000D03*
%TD*%
D15*
%TO.C,U11*%
X149860000Y-112395000D03*
D14*
X149860000Y-114935000D03*
X149860000Y-117475000D03*
X149860000Y-120015000D03*
X149860000Y-122555000D03*
X149860000Y-125095000D03*
X149860000Y-127635000D03*
X149860000Y-130175000D03*
X149860000Y-132715000D03*
X149860000Y-135255000D03*
X157480000Y-135255000D03*
X157480000Y-132715000D03*
X157480000Y-130175000D03*
X157480000Y-127635000D03*
X157480000Y-125095000D03*
X157480000Y-122555000D03*
X157480000Y-120015000D03*
X157480000Y-117475000D03*
X157480000Y-114935000D03*
X157480000Y-112395000D03*
%TD*%
D10*
%TO.C,C3*%
X173990000Y-32465000D03*
X173990000Y-37465000D03*
%TD*%
%TO.C,C6*%
X181570000Y-109220000D03*
X176570000Y-109220000D03*
%TD*%
D15*
%TO.C,U5*%
X200660000Y-112395000D03*
D14*
X200660000Y-114935000D03*
X200660000Y-117475000D03*
X200660000Y-120015000D03*
X200660000Y-122555000D03*
X200660000Y-125095000D03*
X200660000Y-127635000D03*
X200660000Y-130175000D03*
X200660000Y-132715000D03*
X200660000Y-135255000D03*
X208280000Y-135255000D03*
X208280000Y-132715000D03*
X208280000Y-130175000D03*
X208280000Y-127635000D03*
X208280000Y-125095000D03*
X208280000Y-122555000D03*
X208280000Y-120015000D03*
X208280000Y-117475000D03*
X208280000Y-114935000D03*
X208280000Y-112395000D03*
%TD*%
D15*
%TO.C,U19*%
X48905000Y-112390000D03*
D14*
X48905000Y-114930000D03*
X48905000Y-117470000D03*
X48905000Y-120010000D03*
X48905000Y-122550000D03*
X48905000Y-125090000D03*
X48905000Y-127630000D03*
X56525000Y-127630000D03*
X56525000Y-125090000D03*
X56525000Y-122550000D03*
X56525000Y-120010000D03*
X56525000Y-117470000D03*
X56525000Y-114930000D03*
X56525000Y-112390000D03*
%TD*%
D15*
%TO.C,U20*%
X226060000Y-27940000D03*
D14*
X226060000Y-30480000D03*
X226060000Y-33020000D03*
X226060000Y-35560000D03*
X226060000Y-38100000D03*
X226060000Y-40640000D03*
X226060000Y-43180000D03*
X233680000Y-43180000D03*
X233680000Y-40640000D03*
X233680000Y-38100000D03*
X233680000Y-35560000D03*
X233680000Y-33020000D03*
X233680000Y-30480000D03*
X233680000Y-27940000D03*
%TD*%
D10*
%TO.C,R5*%
X168910000Y-97790000D03*
D14*
X176530000Y-97790000D03*
%TD*%
D15*
%TO.C,U13*%
X99060000Y-112395000D03*
D14*
X99060000Y-114935000D03*
X99060000Y-117475000D03*
X99060000Y-120015000D03*
X99060000Y-122555000D03*
X99060000Y-125095000D03*
X99060000Y-127635000D03*
X99060000Y-130175000D03*
X99060000Y-132715000D03*
X99060000Y-135255000D03*
X106680000Y-135255000D03*
X106680000Y-132715000D03*
X106680000Y-130175000D03*
X106680000Y-127635000D03*
X106680000Y-125095000D03*
X106680000Y-122555000D03*
X106680000Y-120015000D03*
X106680000Y-117475000D03*
X106680000Y-114935000D03*
X106680000Y-112395000D03*
%TD*%
D15*
%TO.C,U6*%
X175260000Y-112395000D03*
D14*
X175260000Y-114935000D03*
X175260000Y-117475000D03*
X175260000Y-120015000D03*
X175260000Y-122555000D03*
X175260000Y-125095000D03*
X175260000Y-127635000D03*
X175260000Y-130175000D03*
X175260000Y-132715000D03*
X175260000Y-135255000D03*
X182880000Y-135255000D03*
X182880000Y-132715000D03*
X182880000Y-130175000D03*
X182880000Y-127635000D03*
X182880000Y-125095000D03*
X182880000Y-122555000D03*
X182880000Y-120015000D03*
X182880000Y-117475000D03*
X182880000Y-114935000D03*
X182880000Y-112395000D03*
%TD*%
D10*
%TO.C,R6*%
X168910000Y-94615000D03*
D14*
X176530000Y-94615000D03*
%TD*%
D15*
%TO.C,U10*%
X149860000Y-67310000D03*
D14*
X149860000Y-69850000D03*
X149860000Y-72390000D03*
X149860000Y-74930000D03*
X149860000Y-77470000D03*
X149860000Y-80010000D03*
X149860000Y-82550000D03*
X149860000Y-85090000D03*
X157480000Y-85090000D03*
X157480000Y-82550000D03*
X157480000Y-80010000D03*
X157480000Y-77470000D03*
X157480000Y-74930000D03*
X157480000Y-72390000D03*
X157480000Y-69850000D03*
X157480000Y-67310000D03*
%TD*%
D10*
%TO.C,R8*%
X181610000Y-97790000D03*
D14*
X189230000Y-97790000D03*
%TD*%
D10*
%TO.C,R3*%
X163830000Y-94615000D03*
D14*
X156210000Y-94615000D03*
%TD*%
D10*
%TO.C,R18*%
X73025000Y-46990000D03*
D14*
X80645000Y-46990000D03*
%TD*%
D15*
%TO.C,U12*%
X124460000Y-112395000D03*
D14*
X124460000Y-114935000D03*
X124460000Y-117475000D03*
X124460000Y-120015000D03*
X124460000Y-122555000D03*
X124460000Y-125095000D03*
X124460000Y-127635000D03*
X124460000Y-130175000D03*
X124460000Y-132715000D03*
X124460000Y-135255000D03*
X132080000Y-135255000D03*
X132080000Y-132715000D03*
X132080000Y-130175000D03*
X132080000Y-127635000D03*
X132080000Y-125095000D03*
X132080000Y-122555000D03*
X132080000Y-120015000D03*
X132080000Y-117475000D03*
X132080000Y-114935000D03*
X132080000Y-112395000D03*
%TD*%
D15*
%TO.C,C21*%
X43267600Y-139065000D03*
D10*
X45767600Y-139065000D03*
%TD*%
%TO.C,C15*%
X130730000Y-64135000D03*
X125730000Y-64135000D03*
%TD*%
%TO.C,R9*%
X181610000Y-94615000D03*
D14*
X189230000Y-94615000D03*
%TD*%
D15*
%TO.C,U9*%
X175260000Y-67310000D03*
D14*
X175260000Y-69850000D03*
X175260000Y-72390000D03*
X175260000Y-74930000D03*
X175260000Y-77470000D03*
X175260000Y-80010000D03*
X175260000Y-82550000D03*
X175260000Y-85090000D03*
X182880000Y-85090000D03*
X182880000Y-82550000D03*
X182880000Y-80010000D03*
X182880000Y-77470000D03*
X182880000Y-74930000D03*
X182880000Y-72390000D03*
X182880000Y-69850000D03*
X182880000Y-67310000D03*
%TD*%
D10*
%TO.C,C12*%
X130770000Y-109220000D03*
X125770000Y-109220000D03*
%TD*%
%TO.C,C17*%
X105370000Y-64135000D03*
X100370000Y-64135000D03*
%TD*%
M02*
